%TF.GenerationSoftware,KiCad,Pcbnew,7.0.2*%
%TF.CreationDate,2023-06-26T22:08:20-07:00*%
%TF.ProjectId,19V 10A Standalone,31395620-3130-4412-9053-74616e64616c,rev?*%
%TF.SameCoordinates,Original*%
%TF.FileFunction,Copper,L2,Bot*%
%TF.FilePolarity,Positive*%
%FSLAX46Y46*%
G04 Gerber Fmt 4.6, Leading zero omitted, Abs format (unit mm)*
G04 Created by KiCad (PCBNEW 7.0.2) date 2023-06-26 22:08:20*
%MOMM*%
%LPD*%
G01*
G04 APERTURE LIST*
G04 Aperture macros list*
%AMRoundRect*
0 Rectangle with rounded corners*
0 $1 Rounding radius*
0 $2 $3 $4 $5 $6 $7 $8 $9 X,Y pos of 4 corners*
0 Add a 4 corners polygon primitive as box body*
4,1,4,$2,$3,$4,$5,$6,$7,$8,$9,$2,$3,0*
0 Add four circle primitives for the rounded corners*
1,1,$1+$1,$2,$3*
1,1,$1+$1,$4,$5*
1,1,$1+$1,$6,$7*
1,1,$1+$1,$8,$9*
0 Add four rect primitives between the rounded corners*
20,1,$1+$1,$2,$3,$4,$5,0*
20,1,$1+$1,$4,$5,$6,$7,0*
20,1,$1+$1,$6,$7,$8,$9,0*
20,1,$1+$1,$8,$9,$2,$3,0*%
G04 Aperture macros list end*
%TA.AperFunction,ComponentPad*%
%ADD10R,1.200000X1.200000*%
%TD*%
%TA.AperFunction,ComponentPad*%
%ADD11C,1.200000*%
%TD*%
%TA.AperFunction,ComponentPad*%
%ADD12RoundRect,1.500000X1.500000X-1.500000X1.500000X1.500000X-1.500000X1.500000X-1.500000X-1.500000X0*%
%TD*%
%TA.AperFunction,ComponentPad*%
%ADD13C,6.000000*%
%TD*%
%TA.AperFunction,ComponentPad*%
%ADD14RoundRect,1.500000X-1.500000X-1.500000X1.500000X-1.500000X1.500000X1.500000X-1.500000X1.500000X0*%
%TD*%
%TA.AperFunction,ViaPad*%
%ADD15C,0.800000*%
%TD*%
%TA.AperFunction,Conductor*%
%ADD16C,0.250000*%
%TD*%
G04 APERTURE END LIST*
D10*
X96520000Y-67790000D03*
D11*
X96520000Y-64290000D03*
D12*
X180340000Y-102660000D03*
D13*
X180340000Y-95460000D03*
D14*
X96940000Y-101600000D03*
D13*
X104140000Y-101600000D03*
D15*
X123774200Y-91440000D03*
X129540000Y-45720000D03*
X129540000Y-62057085D03*
X119500000Y-80250000D03*
X116867155Y-74814087D03*
X137160000Y-50800000D03*
X119380000Y-76200000D03*
X145000000Y-70500000D03*
X138500000Y-80250000D03*
X128287980Y-70892579D03*
X139700000Y-43180000D03*
X153750000Y-73250000D03*
X139700000Y-50800000D03*
X160500000Y-67000000D03*
X132066422Y-74569692D03*
X123000000Y-81000000D03*
X134620000Y-53340000D03*
X131750000Y-85750000D03*
X109000000Y-72000000D03*
X144250000Y-59500000D03*
X129250000Y-80500000D03*
X139700000Y-48260000D03*
X124460000Y-66040000D03*
X112445800Y-45720000D03*
X134264400Y-71755000D03*
X127000000Y-68580000D03*
X172720000Y-91440000D03*
X172720000Y-53340000D03*
X152400000Y-87835000D03*
X127000000Y-71120000D03*
X106680000Y-62037500D03*
X118072275Y-64050123D03*
X118133054Y-77256236D03*
X139966700Y-75565000D03*
X111055842Y-78593300D03*
X139966700Y-85725000D03*
X139966700Y-97155000D03*
X123198384Y-78769339D03*
X139966700Y-71755000D03*
X129540000Y-73660000D03*
X139700000Y-59055000D03*
X124460000Y-68580000D03*
X121450561Y-69203126D03*
X123320000Y-53340000D03*
X154940000Y-81280000D03*
X116840000Y-82357500D03*
X134264400Y-84455000D03*
X165100000Y-66040000D03*
X139966700Y-98425000D03*
D16*
X123774200Y-91440000D02*
X122432000Y-91440000D01*
X105955000Y-74963000D02*
X105955000Y-51185495D01*
X114410495Y-42730000D02*
X126550000Y-42730000D01*
X105955000Y-51185495D02*
X114410495Y-42730000D01*
X126550000Y-42730000D02*
X129540000Y-45720000D01*
X129540000Y-62057085D02*
X129540000Y-45720000D01*
X122432000Y-91440000D02*
X105955000Y-74963000D01*
X124460000Y-66040000D02*
X124460000Y-48260000D01*
X119380000Y-43180000D02*
X114985800Y-43180000D01*
X114985800Y-43180000D02*
X112445800Y-45720000D01*
X124460000Y-48260000D02*
X119380000Y-43180000D01*
X134264400Y-71755000D02*
X130175000Y-71755000D01*
X130175000Y-71755000D02*
X127000000Y-68580000D01*
X172720000Y-91440000D02*
X172720000Y-53340000D01*
X106680000Y-62037500D02*
X106680000Y-66828487D01*
X129239695Y-65315000D02*
X126275000Y-68279695D01*
X126275000Y-70395000D02*
X127000000Y-71120000D01*
X165825000Y-65739695D02*
X165400305Y-65315000D01*
X152400000Y-87835000D02*
X152400000Y-82794695D01*
X156177653Y-80555000D02*
X165825000Y-70907653D01*
X117895852Y-78044339D02*
X120075661Y-78044339D01*
X106680000Y-66828487D02*
X117895852Y-78044339D01*
X120075661Y-78044339D02*
X127000000Y-71120000D01*
X165400305Y-65315000D02*
X129239695Y-65315000D01*
X152400000Y-82794695D02*
X154639695Y-80555000D01*
X126275000Y-68279695D02*
X126275000Y-70395000D01*
X154639695Y-80555000D02*
X156177653Y-80555000D01*
X165825000Y-70907653D02*
X165825000Y-65739695D01*
X118133054Y-64110902D02*
X118133054Y-77256236D01*
X118072275Y-64050123D02*
X118133054Y-64110902D01*
X142240000Y-77838300D02*
X142240000Y-83451700D01*
X111055842Y-78593300D02*
X122349118Y-78593300D01*
X142240000Y-83451700D02*
X139966700Y-85725000D01*
X122349118Y-78593300D02*
X125377418Y-75565000D01*
X139966700Y-75565000D02*
X142240000Y-77838300D01*
X125377418Y-75565000D02*
X139966700Y-75565000D01*
X139966700Y-95537655D02*
X139966700Y-97155000D01*
X123198384Y-78769339D02*
X139966700Y-95537655D01*
X129540000Y-73660000D02*
X138061700Y-73660000D01*
X138061700Y-73660000D02*
X139966700Y-71755000D01*
X133985000Y-59055000D02*
X139700000Y-59055000D01*
X124460000Y-68580000D02*
X133985000Y-59055000D01*
X121450561Y-55209439D02*
X121450561Y-69203126D01*
X123320000Y-53340000D02*
X121450561Y-55209439D01*
X116840000Y-82357500D02*
X138622500Y-104140000D01*
X142240000Y-104140000D02*
X154940000Y-91440000D01*
X154940000Y-91440000D02*
X154940000Y-81280000D01*
X138622500Y-104140000D02*
X142240000Y-104140000D01*
X140691700Y-90882300D02*
X134264400Y-84455000D01*
X165100000Y-66040000D02*
X144690000Y-86450000D01*
X139966700Y-98425000D02*
X140691700Y-97700000D01*
X140691700Y-97700000D02*
X140691700Y-90882300D01*
X144690000Y-86450000D02*
X136259400Y-86450000D01*
X136259400Y-86450000D02*
X134264400Y-84455000D01*
%TA.AperFunction,Conductor*%
G36*
X126306587Y-43375185D02*
G01*
X126327229Y-43391819D01*
X128601038Y-45665628D01*
X128634523Y-45726951D01*
X128636678Y-45740347D01*
X128654326Y-45908257D01*
X128712820Y-46088284D01*
X128807464Y-46252213D01*
X128882650Y-46335714D01*
X128912880Y-46398706D01*
X128914500Y-46418687D01*
X128914500Y-61358397D01*
X128894815Y-61425436D01*
X128882650Y-61441369D01*
X128807466Y-61524868D01*
X128712820Y-61688800D01*
X128654326Y-61868827D01*
X128634540Y-62057084D01*
X128654326Y-62245342D01*
X128712820Y-62425369D01*
X128807466Y-62589301D01*
X128934129Y-62729974D01*
X129097813Y-62848897D01*
X129095806Y-62851659D01*
X129132680Y-62882997D01*
X129153006Y-62949845D01*
X129133965Y-63017070D01*
X129116693Y-63038714D01*
X124512228Y-67643181D01*
X124450905Y-67676666D01*
X124424547Y-67679500D01*
X124365352Y-67679500D01*
X124180197Y-67718855D01*
X124007269Y-67795848D01*
X123854129Y-67907110D01*
X123727466Y-68047783D01*
X123632820Y-68211715D01*
X123574326Y-68391742D01*
X123554540Y-68580000D01*
X123574326Y-68768257D01*
X123632820Y-68948284D01*
X123727466Y-69112216D01*
X123854129Y-69252889D01*
X124007269Y-69364151D01*
X124180197Y-69441144D01*
X124365352Y-69480500D01*
X124365354Y-69480500D01*
X124554648Y-69480500D01*
X124678084Y-69454262D01*
X124739803Y-69441144D01*
X124912730Y-69364151D01*
X125065871Y-69252888D01*
X125192533Y-69112216D01*
X125287179Y-68948284D01*
X125345674Y-68768256D01*
X125363321Y-68600345D01*
X125389905Y-68535732D01*
X125398952Y-68525636D01*
X125437820Y-68486768D01*
X125499141Y-68453285D01*
X125568833Y-68458269D01*
X125624766Y-68500141D01*
X125649183Y-68565605D01*
X125649499Y-68574451D01*
X125649499Y-70312262D01*
X125647236Y-70332771D01*
X125649438Y-70402874D01*
X125649499Y-70406762D01*
X125649499Y-70430461D01*
X125649499Y-70430474D01*
X125649500Y-70434350D01*
X125649986Y-70438202D01*
X125649987Y-70438211D01*
X125650004Y-70438343D01*
X125650918Y-70449967D01*
X125652290Y-70493626D01*
X125657879Y-70512860D01*
X125661825Y-70531916D01*
X125664335Y-70551792D01*
X125680414Y-70592404D01*
X125684197Y-70603451D01*
X125696382Y-70645391D01*
X125706580Y-70662635D01*
X125715136Y-70680100D01*
X125722514Y-70698732D01*
X125722515Y-70698733D01*
X125748180Y-70734059D01*
X125754593Y-70743822D01*
X125776826Y-70781416D01*
X125776829Y-70781419D01*
X125776830Y-70781420D01*
X125790995Y-70795585D01*
X125803627Y-70810375D01*
X125815406Y-70826587D01*
X125849058Y-70854426D01*
X125857699Y-70862289D01*
X126027727Y-71032318D01*
X126061212Y-71093641D01*
X126056228Y-71163333D01*
X126027727Y-71207680D01*
X119852889Y-77382520D01*
X119791566Y-77416005D01*
X119765208Y-77418839D01*
X119159140Y-77418839D01*
X119092101Y-77399154D01*
X119046346Y-77346350D01*
X119035819Y-77281879D01*
X119038514Y-77256236D01*
X119038513Y-77256236D01*
X119018728Y-77067980D01*
X118960233Y-76887952D01*
X118960233Y-76887951D01*
X118865587Y-76724019D01*
X118790404Y-76640520D01*
X118760174Y-76577529D01*
X118758554Y-76557548D01*
X118758554Y-64681308D01*
X118778239Y-64614269D01*
X118790406Y-64598334D01*
X118791000Y-64597674D01*
X118804808Y-64582339D01*
X118899454Y-64418407D01*
X118957949Y-64238379D01*
X118977735Y-64050123D01*
X118957949Y-63861867D01*
X118899454Y-63681839D01*
X118899454Y-63681838D01*
X118804808Y-63517906D01*
X118678145Y-63377233D01*
X118525005Y-63265971D01*
X118352077Y-63188978D01*
X118166923Y-63149623D01*
X118166921Y-63149623D01*
X117977629Y-63149623D01*
X117977627Y-63149623D01*
X117792472Y-63188978D01*
X117619544Y-63265971D01*
X117466404Y-63377233D01*
X117339741Y-63517906D01*
X117245095Y-63681838D01*
X117186601Y-63861865D01*
X117166815Y-64050123D01*
X117186601Y-64238380D01*
X117245095Y-64418407D01*
X117339741Y-64582339D01*
X117475125Y-64732697D01*
X117471794Y-64735695D01*
X117499071Y-64771014D01*
X117507554Y-64816089D01*
X117507554Y-76472088D01*
X117487869Y-76539127D01*
X117435065Y-76584882D01*
X117365907Y-76594826D01*
X117302351Y-76565801D01*
X117295873Y-76559769D01*
X107341819Y-66605715D01*
X107308334Y-66544392D01*
X107305500Y-66518034D01*
X107305500Y-62736187D01*
X107325185Y-62669148D01*
X107337350Y-62653214D01*
X107394898Y-62589301D01*
X107412533Y-62569716D01*
X107507179Y-62405784D01*
X107565674Y-62225756D01*
X107585460Y-62037500D01*
X107565674Y-61849244D01*
X107513543Y-61688801D01*
X107507179Y-61669215D01*
X107412533Y-61505283D01*
X107285870Y-61364610D01*
X107132730Y-61253348D01*
X106959802Y-61176355D01*
X106774648Y-61137000D01*
X106774646Y-61137000D01*
X106704500Y-61137000D01*
X106637461Y-61117315D01*
X106591706Y-61064511D01*
X106580500Y-61013000D01*
X106580499Y-51495946D01*
X106600184Y-51428907D01*
X106616813Y-51408270D01*
X111649111Y-46375972D01*
X111710432Y-46342489D01*
X111780124Y-46347473D01*
X111828940Y-46380683D01*
X111839929Y-46392888D01*
X111839931Y-46392890D01*
X111993069Y-46504151D01*
X112165997Y-46581144D01*
X112351152Y-46620500D01*
X112351154Y-46620500D01*
X112540448Y-46620500D01*
X112663884Y-46594262D01*
X112725603Y-46581144D01*
X112898530Y-46504151D01*
X113016162Y-46418687D01*
X113051670Y-46392889D01*
X113178333Y-46252216D01*
X113272979Y-46088284D01*
X113272978Y-46088284D01*
X113331474Y-45908256D01*
X113349121Y-45740344D01*
X113375704Y-45675734D01*
X113384751Y-45665638D01*
X115208571Y-43841819D01*
X115269895Y-43808334D01*
X115296253Y-43805500D01*
X119069548Y-43805500D01*
X119136587Y-43825185D01*
X119157229Y-43841819D01*
X123798180Y-48482771D01*
X123831665Y-48544094D01*
X123834499Y-48570452D01*
X123834500Y-52392406D01*
X123814815Y-52459445D01*
X123762011Y-52505200D01*
X123692853Y-52515144D01*
X123660065Y-52505686D01*
X123599800Y-52478854D01*
X123414648Y-52439500D01*
X123414646Y-52439500D01*
X123225354Y-52439500D01*
X123225352Y-52439500D01*
X123040197Y-52478855D01*
X122867269Y-52555848D01*
X122714129Y-52667110D01*
X122587466Y-52807783D01*
X122492820Y-52971715D01*
X122434326Y-53151742D01*
X122416679Y-53319649D01*
X122390094Y-53384263D01*
X122381039Y-53394368D01*
X121066769Y-54708638D01*
X121050671Y-54721535D01*
X121002657Y-54772664D01*
X120999953Y-54775455D01*
X120983189Y-54792219D01*
X120983182Y-54792226D01*
X120980441Y-54794968D01*
X120978060Y-54798036D01*
X120978051Y-54798047D01*
X120977972Y-54798150D01*
X120970403Y-54807011D01*
X120940496Y-54838859D01*
X120930846Y-54856413D01*
X120920170Y-54872667D01*
X120907887Y-54888502D01*
X120890536Y-54928597D01*
X120885399Y-54939083D01*
X120864363Y-54977346D01*
X120859382Y-54996748D01*
X120853081Y-55015150D01*
X120845122Y-55033541D01*
X120838289Y-55076681D01*
X120835921Y-55088113D01*
X120825061Y-55130416D01*
X120825061Y-55150455D01*
X120823534Y-55169853D01*
X120820401Y-55189633D01*
X120824511Y-55233112D01*
X120825061Y-55244782D01*
X120825061Y-68504438D01*
X120805376Y-68571477D01*
X120793211Y-68587410D01*
X120718027Y-68670909D01*
X120623381Y-68834841D01*
X120564887Y-69014868D01*
X120545101Y-69203126D01*
X120564887Y-69391383D01*
X120623381Y-69571410D01*
X120718027Y-69735342D01*
X120844690Y-69876015D01*
X120997830Y-69987277D01*
X121170758Y-70064270D01*
X121355913Y-70103626D01*
X121355915Y-70103626D01*
X121545209Y-70103626D01*
X121668644Y-70077388D01*
X121730364Y-70064270D01*
X121903291Y-69987277D01*
X122056432Y-69876014D01*
X122183094Y-69735342D01*
X122277740Y-69571410D01*
X122336235Y-69391382D01*
X122356021Y-69203126D01*
X122336235Y-69014870D01*
X122305893Y-68921489D01*
X122277740Y-68834841D01*
X122183094Y-68670909D01*
X122107911Y-68587410D01*
X122077681Y-68524419D01*
X122076061Y-68504438D01*
X122076061Y-55519891D01*
X122095746Y-55452852D01*
X122112380Y-55432210D01*
X123267772Y-54276819D01*
X123329095Y-54243334D01*
X123355453Y-54240500D01*
X123414648Y-54240500D01*
X123538084Y-54214262D01*
X123599803Y-54201144D01*
X123638224Y-54184037D01*
X123660064Y-54174314D01*
X123729314Y-54165029D01*
X123792590Y-54194657D01*
X123829804Y-54253791D01*
X123834500Y-54287593D01*
X123834499Y-65341312D01*
X123814814Y-65408351D01*
X123802650Y-65424284D01*
X123727464Y-65507786D01*
X123632820Y-65671715D01*
X123574326Y-65851742D01*
X123554540Y-66040000D01*
X123574326Y-66228257D01*
X123632820Y-66408284D01*
X123727466Y-66572216D01*
X123854129Y-66712889D01*
X124007269Y-66824151D01*
X124180197Y-66901144D01*
X124365352Y-66940500D01*
X124365354Y-66940500D01*
X124554648Y-66940500D01*
X124678084Y-66914262D01*
X124739803Y-66901144D01*
X124912730Y-66824151D01*
X125065870Y-66712889D01*
X125192533Y-66572216D01*
X125287179Y-66408284D01*
X125287178Y-66408284D01*
X125345674Y-66228256D01*
X125365460Y-66040000D01*
X125345674Y-65851744D01*
X125305449Y-65727944D01*
X125287179Y-65671715D01*
X125192533Y-65507783D01*
X125117350Y-65424284D01*
X125087120Y-65361293D01*
X125085500Y-65341312D01*
X125085500Y-48342743D01*
X125087764Y-48322239D01*
X125085561Y-48252126D01*
X125085500Y-48248231D01*
X125085500Y-48224540D01*
X125085500Y-48220650D01*
X125084998Y-48216677D01*
X125084080Y-48205018D01*
X125082709Y-48161373D01*
X125077120Y-48142140D01*
X125073174Y-48123082D01*
X125070664Y-48103206D01*
X125054588Y-48062604D01*
X125050804Y-48051553D01*
X125044881Y-48031168D01*
X125038618Y-48009610D01*
X125028414Y-47992355D01*
X125019861Y-47974895D01*
X125012486Y-47956269D01*
X125012486Y-47956268D01*
X124986808Y-47920925D01*
X124980401Y-47911171D01*
X124958169Y-47873579D01*
X124944006Y-47859416D01*
X124931367Y-47844617D01*
X124919595Y-47828413D01*
X124885941Y-47800573D01*
X124877299Y-47792709D01*
X120651772Y-43567181D01*
X120618287Y-43505858D01*
X120623271Y-43436166D01*
X120665143Y-43380233D01*
X120730607Y-43355816D01*
X120739453Y-43355500D01*
X126239548Y-43355500D01*
X126306587Y-43375185D01*
G37*
%TD.AperFunction*%
%TA.AperFunction,Conductor*%
G36*
X164082586Y-65960185D02*
G01*
X164128341Y-66012989D01*
X164138285Y-66082147D01*
X164109260Y-66145703D01*
X164103228Y-66152181D01*
X144467228Y-85788181D01*
X144405905Y-85821666D01*
X144379547Y-85824500D01*
X141051151Y-85824500D01*
X140984112Y-85804815D01*
X140938357Y-85752011D01*
X140928413Y-85682853D01*
X140957438Y-85619297D01*
X140963470Y-85612819D01*
X141788108Y-84788181D01*
X142623786Y-83952502D01*
X142639886Y-83939605D01*
X142641874Y-83937487D01*
X142641877Y-83937486D01*
X142687964Y-83888407D01*
X142690549Y-83885739D01*
X142710120Y-83866170D01*
X142712565Y-83863016D01*
X142720154Y-83854129D01*
X142750062Y-83822282D01*
X142759713Y-83804726D01*
X142770393Y-83788467D01*
X142782674Y-83772636D01*
X142800018Y-83732551D01*
X142805160Y-83722056D01*
X142826197Y-83683792D01*
X142831178Y-83664388D01*
X142837480Y-83645983D01*
X142845438Y-83627595D01*
X142852270Y-83584448D01*
X142854639Y-83573016D01*
X142865500Y-83530720D01*
X142865500Y-83510683D01*
X142867027Y-83491284D01*
X142870160Y-83471504D01*
X142866050Y-83428024D01*
X142865500Y-83416355D01*
X142865500Y-77921043D01*
X142867764Y-77900539D01*
X142865561Y-77830412D01*
X142865500Y-77826518D01*
X142865500Y-77802841D01*
X142865500Y-77798950D01*
X142864998Y-77794983D01*
X142864081Y-77783327D01*
X142862710Y-77739673D01*
X142857118Y-77720426D01*
X142853174Y-77701385D01*
X142850664Y-77681508D01*
X142834579Y-77640883D01*
X142830808Y-77629868D01*
X142818618Y-77587910D01*
X142808414Y-77570655D01*
X142799861Y-77553195D01*
X142792486Y-77534569D01*
X142792486Y-77534568D01*
X142766808Y-77499225D01*
X142760401Y-77489471D01*
X142738169Y-77451879D01*
X142724006Y-77437716D01*
X142711367Y-77422917D01*
X142699595Y-77406713D01*
X142665941Y-77378873D01*
X142657299Y-77371009D01*
X140905660Y-75619369D01*
X140872175Y-75558046D01*
X140870023Y-75544668D01*
X140852374Y-75376744D01*
X140810575Y-75248101D01*
X140793879Y-75196715D01*
X140699233Y-75032783D01*
X140572570Y-74892110D01*
X140419430Y-74780848D01*
X140246502Y-74703855D01*
X140061348Y-74664500D01*
X140061346Y-74664500D01*
X139872054Y-74664500D01*
X139872052Y-74664500D01*
X139686897Y-74703855D01*
X139513972Y-74780847D01*
X139411875Y-74855024D01*
X139360829Y-74892112D01*
X139355101Y-74898472D01*
X139295616Y-74935121D01*
X139262953Y-74939500D01*
X125460162Y-74939500D01*
X125439655Y-74937235D01*
X125369545Y-74939439D01*
X125365650Y-74939500D01*
X125338068Y-74939500D01*
X125334223Y-74939985D01*
X125334198Y-74939987D01*
X125334071Y-74940004D01*
X125322451Y-74940918D01*
X125278787Y-74942290D01*
X125259547Y-74947880D01*
X125240499Y-74951825D01*
X125220627Y-74954335D01*
X125180017Y-74970413D01*
X125168972Y-74974194D01*
X125127028Y-74986381D01*
X125109783Y-74996579D01*
X125092322Y-75005133D01*
X125073685Y-75012512D01*
X125038349Y-75038185D01*
X125028592Y-75044595D01*
X124990998Y-75066829D01*
X124976831Y-75080996D01*
X124962042Y-75093626D01*
X124945831Y-75105404D01*
X124917990Y-75139058D01*
X124910129Y-75147697D01*
X122126346Y-77931481D01*
X122065023Y-77964966D01*
X122038665Y-77967800D01*
X121336152Y-77967800D01*
X121269113Y-77948115D01*
X121223358Y-77895311D01*
X121213414Y-77826153D01*
X121242439Y-77762597D01*
X121248471Y-77756119D01*
X124018209Y-74986382D01*
X125344592Y-73659999D01*
X128634540Y-73659999D01*
X128654326Y-73848257D01*
X128712820Y-74028284D01*
X128807466Y-74192216D01*
X128934129Y-74332889D01*
X129087269Y-74444151D01*
X129260197Y-74521144D01*
X129445352Y-74560500D01*
X129445354Y-74560500D01*
X129634648Y-74560500D01*
X129758084Y-74534262D01*
X129819803Y-74521144D01*
X129992730Y-74444151D01*
X130145871Y-74332888D01*
X130151598Y-74326527D01*
X130211084Y-74289879D01*
X130243747Y-74285500D01*
X137978956Y-74285500D01*
X137999462Y-74287764D01*
X138002365Y-74287672D01*
X138002367Y-74287673D01*
X138069572Y-74285561D01*
X138073468Y-74285500D01*
X138097148Y-74285500D01*
X138101050Y-74285500D01*
X138105013Y-74284999D01*
X138116662Y-74284080D01*
X138160327Y-74282709D01*
X138179559Y-74277120D01*
X138198618Y-74273174D01*
X138204896Y-74272381D01*
X138218492Y-74270664D01*
X138259107Y-74254582D01*
X138270144Y-74250803D01*
X138312090Y-74238618D01*
X138329329Y-74228422D01*
X138346802Y-74219862D01*
X138365432Y-74212486D01*
X138400764Y-74186814D01*
X138410530Y-74180400D01*
X138448118Y-74158171D01*
X138448117Y-74158171D01*
X138448120Y-74158170D01*
X138462285Y-74144004D01*
X138477073Y-74131373D01*
X138493287Y-74119594D01*
X138521138Y-74085926D01*
X138528979Y-74077309D01*
X139914471Y-72691819D01*
X139975795Y-72658334D01*
X140002153Y-72655500D01*
X140061348Y-72655500D01*
X140184783Y-72629262D01*
X140246503Y-72616144D01*
X140419430Y-72539151D01*
X140572571Y-72427888D01*
X140699233Y-72287216D01*
X140793879Y-72123284D01*
X140852374Y-71943256D01*
X140872160Y-71755000D01*
X140852374Y-71566744D01*
X140822032Y-71473363D01*
X140793879Y-71386715D01*
X140699233Y-71222783D01*
X140572570Y-71082110D01*
X140419430Y-70970848D01*
X140246502Y-70893855D01*
X140061348Y-70854500D01*
X140061346Y-70854500D01*
X139872054Y-70854500D01*
X139872052Y-70854500D01*
X139686897Y-70893855D01*
X139513969Y-70970848D01*
X139360829Y-71082110D01*
X139234166Y-71222783D01*
X139139520Y-71386715D01*
X139081026Y-71566742D01*
X139063379Y-71734649D01*
X139036794Y-71799263D01*
X139027739Y-71809368D01*
X137838928Y-72998181D01*
X137777605Y-73031666D01*
X137751247Y-73034500D01*
X130243747Y-73034500D01*
X130176708Y-73014815D01*
X130151599Y-72993473D01*
X130145871Y-72987112D01*
X129992730Y-72875849D01*
X129992729Y-72875848D01*
X129992727Y-72875847D01*
X129819802Y-72798855D01*
X129634648Y-72759500D01*
X129634646Y-72759500D01*
X129445354Y-72759500D01*
X129445352Y-72759500D01*
X129260197Y-72798855D01*
X129087269Y-72875848D01*
X128934129Y-72987110D01*
X128807466Y-73127783D01*
X128712820Y-73291715D01*
X128654326Y-73471742D01*
X128634540Y-73659999D01*
X125344592Y-73659999D01*
X126947771Y-72056819D01*
X127009095Y-72023334D01*
X127035453Y-72020500D01*
X127094648Y-72020500D01*
X127218083Y-71994262D01*
X127279803Y-71981144D01*
X127452730Y-71904151D01*
X127605871Y-71792888D01*
X127732533Y-71652216D01*
X127827179Y-71488284D01*
X127885674Y-71308256D01*
X127905460Y-71120000D01*
X127885674Y-70931744D01*
X127841431Y-70795579D01*
X127827179Y-70751715D01*
X127732533Y-70587783D01*
X127605870Y-70447110D01*
X127452730Y-70335848D01*
X127279802Y-70258855D01*
X127094648Y-70219500D01*
X127094646Y-70219500D01*
X127035453Y-70219500D01*
X126968414Y-70199815D01*
X126947772Y-70183181D01*
X126936818Y-70172227D01*
X126903333Y-70110904D01*
X126900500Y-70084555D01*
X126900500Y-69664452D01*
X126920185Y-69597412D01*
X126972989Y-69551658D01*
X127042147Y-69541714D01*
X127105703Y-69570739D01*
X127112180Y-69576770D01*
X128393561Y-70858152D01*
X129674196Y-72138787D01*
X129687096Y-72154888D01*
X129738223Y-72202900D01*
X129741020Y-72205611D01*
X129760529Y-72225120D01*
X129763709Y-72227587D01*
X129772571Y-72235155D01*
X129804418Y-72265062D01*
X129821972Y-72274712D01*
X129838236Y-72285396D01*
X129849972Y-72294499D01*
X129854064Y-72297673D01*
X129878909Y-72308424D01*
X129894152Y-72315021D01*
X129904631Y-72320154D01*
X129942908Y-72341197D01*
X129962306Y-72346177D01*
X129980708Y-72352477D01*
X129999104Y-72360438D01*
X130042261Y-72367273D01*
X130053664Y-72369634D01*
X130095981Y-72380500D01*
X130116016Y-72380500D01*
X130135413Y-72382026D01*
X130155196Y-72385160D01*
X130198674Y-72381050D01*
X130210344Y-72380500D01*
X133560653Y-72380500D01*
X133627692Y-72400185D01*
X133652800Y-72421526D01*
X133658529Y-72427888D01*
X133811670Y-72539151D01*
X133811671Y-72539151D01*
X133811672Y-72539152D01*
X133984597Y-72616144D01*
X134169752Y-72655500D01*
X134169754Y-72655500D01*
X134359048Y-72655500D01*
X134482483Y-72629262D01*
X134544203Y-72616144D01*
X134717130Y-72539151D01*
X134870271Y-72427888D01*
X134996933Y-72287216D01*
X135091579Y-72123284D01*
X135150074Y-71943256D01*
X135169860Y-71755000D01*
X135150074Y-71566744D01*
X135119732Y-71473363D01*
X135091579Y-71386715D01*
X134996933Y-71222783D01*
X134870270Y-71082110D01*
X134717130Y-70970848D01*
X134544202Y-70893855D01*
X134359048Y-70854500D01*
X134359046Y-70854500D01*
X134169754Y-70854500D01*
X134169752Y-70854500D01*
X133984597Y-70893855D01*
X133811672Y-70970847D01*
X133789894Y-70986670D01*
X133658529Y-71082112D01*
X133652801Y-71088472D01*
X133593316Y-71125121D01*
X133560653Y-71129500D01*
X130485452Y-71129500D01*
X130418413Y-71109815D01*
X130397771Y-71093181D01*
X127938960Y-68634369D01*
X127905475Y-68573046D01*
X127903323Y-68559668D01*
X127885674Y-68391744D01*
X127827179Y-68211716D01*
X127827179Y-68211715D01*
X127732533Y-68047783D01*
X127649690Y-67955777D01*
X127619460Y-67892786D01*
X127628085Y-67823450D01*
X127654156Y-67785127D01*
X129462466Y-65976819D01*
X129523790Y-65943334D01*
X129550148Y-65940500D01*
X164015547Y-65940500D01*
X164082586Y-65960185D01*
G37*
%TD.AperFunction*%
%TA.AperFunction,Conductor*%
G36*
X165118834Y-67008270D02*
G01*
X165174767Y-67050142D01*
X165199184Y-67115606D01*
X165199500Y-67124452D01*
X165199500Y-70597200D01*
X165179815Y-70664239D01*
X165163181Y-70684881D01*
X155954881Y-79893181D01*
X155893558Y-79926666D01*
X155867200Y-79929500D01*
X154722436Y-79929500D01*
X154701932Y-79927236D01*
X154631840Y-79929439D01*
X154627946Y-79929500D01*
X154600345Y-79929500D01*
X154596494Y-79929986D01*
X154596463Y-79929988D01*
X154596335Y-79930005D01*
X154584723Y-79930918D01*
X154541063Y-79932290D01*
X154521823Y-79937880D01*
X154502776Y-79941825D01*
X154482904Y-79944335D01*
X154442294Y-79960413D01*
X154431249Y-79964194D01*
X154389305Y-79976381D01*
X154372060Y-79986579D01*
X154354599Y-79995133D01*
X154335962Y-80002512D01*
X154300626Y-80028185D01*
X154290869Y-80034595D01*
X154253275Y-80056829D01*
X154239108Y-80070996D01*
X154224319Y-80083626D01*
X154208108Y-80095404D01*
X154180267Y-80129058D01*
X154172406Y-80137697D01*
X152016208Y-82293894D01*
X152000110Y-82306791D01*
X151952096Y-82357920D01*
X151949392Y-82360711D01*
X151932628Y-82377475D01*
X151932621Y-82377482D01*
X151929880Y-82380224D01*
X151927499Y-82383292D01*
X151927490Y-82383303D01*
X151927411Y-82383406D01*
X151919842Y-82392267D01*
X151889935Y-82424115D01*
X151880285Y-82441669D01*
X151869609Y-82457923D01*
X151857326Y-82473758D01*
X151839975Y-82513853D01*
X151834838Y-82524339D01*
X151813802Y-82562602D01*
X151808821Y-82582004D01*
X151802520Y-82600406D01*
X151794561Y-82618797D01*
X151787728Y-82661937D01*
X151785360Y-82673369D01*
X151774500Y-82715672D01*
X151774500Y-82735711D01*
X151772973Y-82755109D01*
X151769840Y-82774889D01*
X151773950Y-82818368D01*
X151774500Y-82830038D01*
X151774500Y-87136312D01*
X151754815Y-87203351D01*
X151742650Y-87219284D01*
X151667466Y-87302783D01*
X151572820Y-87466715D01*
X151514326Y-87646742D01*
X151494540Y-87835000D01*
X151514326Y-88023257D01*
X151572820Y-88203284D01*
X151667466Y-88367216D01*
X151794129Y-88507889D01*
X151947269Y-88619151D01*
X152120197Y-88696144D01*
X152305352Y-88735500D01*
X152305354Y-88735500D01*
X152494648Y-88735500D01*
X152618084Y-88709262D01*
X152679803Y-88696144D01*
X152852730Y-88619151D01*
X153005871Y-88507888D01*
X153132533Y-88367216D01*
X153227179Y-88203284D01*
X153285674Y-88023256D01*
X153305460Y-87835000D01*
X153285674Y-87646744D01*
X153227179Y-87466716D01*
X153227179Y-87466715D01*
X153132533Y-87302783D01*
X153057350Y-87219284D01*
X153027120Y-87156293D01*
X153025500Y-87136312D01*
X153025500Y-83105147D01*
X153045185Y-83038108D01*
X153061819Y-83017466D01*
X154102819Y-81976466D01*
X154164142Y-81942981D01*
X154233834Y-81947965D01*
X154289767Y-81989837D01*
X154314184Y-82055301D01*
X154314500Y-82064147D01*
X154314500Y-91129546D01*
X154294815Y-91196585D01*
X154278181Y-91217227D01*
X142017228Y-103478181D01*
X141955905Y-103511666D01*
X141929547Y-103514500D01*
X138932952Y-103514500D01*
X138865913Y-103494815D01*
X138845271Y-103478181D01*
X117778960Y-82411869D01*
X117745475Y-82350546D01*
X117743323Y-82337168D01*
X117725674Y-82169244D01*
X117691526Y-82064147D01*
X117667179Y-81989215D01*
X117572533Y-81825283D01*
X117445870Y-81684610D01*
X117292730Y-81573348D01*
X117119802Y-81496355D01*
X116934648Y-81457000D01*
X116934646Y-81457000D01*
X116745354Y-81457000D01*
X116745352Y-81457000D01*
X116560197Y-81496355D01*
X116387269Y-81573348D01*
X116234129Y-81684610D01*
X116107466Y-81825283D01*
X116012820Y-81989215D01*
X115954326Y-82169242D01*
X115939647Y-82308909D01*
X115934540Y-82357500D01*
X115936525Y-82376384D01*
X115954326Y-82545757D01*
X116012820Y-82725784D01*
X116107466Y-82889716D01*
X116234129Y-83030389D01*
X116387269Y-83141651D01*
X116560197Y-83218644D01*
X116745352Y-83258000D01*
X116745354Y-83258000D01*
X116804548Y-83258000D01*
X116871587Y-83277685D01*
X116892229Y-83294319D01*
X123925728Y-90327819D01*
X123959213Y-90389142D01*
X123954229Y-90458834D01*
X123912357Y-90514767D01*
X123846893Y-90539184D01*
X123838047Y-90539500D01*
X123679552Y-90539500D01*
X123494397Y-90578855D01*
X123321472Y-90655847D01*
X123288969Y-90679462D01*
X123168329Y-90767112D01*
X123162601Y-90773472D01*
X123103116Y-90810121D01*
X123070453Y-90814500D01*
X122742452Y-90814500D01*
X122675413Y-90794815D01*
X122654771Y-90778181D01*
X111460031Y-79583441D01*
X111426546Y-79522118D01*
X111431530Y-79452426D01*
X111473402Y-79396493D01*
X111497277Y-79382480D01*
X111508572Y-79377451D01*
X111508571Y-79377450D01*
X111661713Y-79266188D01*
X111667440Y-79259827D01*
X111726926Y-79223179D01*
X111759589Y-79218800D01*
X122266374Y-79218800D01*
X122286879Y-79221064D01*
X122289783Y-79220972D01*
X122289785Y-79220973D01*
X122342843Y-79219305D01*
X122410466Y-79236874D01*
X122454124Y-79281244D01*
X122465850Y-79301555D01*
X122592513Y-79442228D01*
X122745653Y-79553490D01*
X122918581Y-79630483D01*
X123103736Y-79669839D01*
X123103738Y-79669839D01*
X123162932Y-79669839D01*
X123229971Y-79689524D01*
X123250613Y-79706158D01*
X139304881Y-95760426D01*
X139338366Y-95821749D01*
X139341200Y-95848107D01*
X139341200Y-96456312D01*
X139321515Y-96523351D01*
X139309350Y-96539284D01*
X139234166Y-96622783D01*
X139139520Y-96786715D01*
X139081026Y-96966742D01*
X139061240Y-97154999D01*
X139081026Y-97343257D01*
X139139520Y-97523284D01*
X139234166Y-97687216D01*
X139252005Y-97707028D01*
X139282235Y-97770020D01*
X139273609Y-97839355D01*
X139252005Y-97872972D01*
X139234166Y-97892783D01*
X139139520Y-98056715D01*
X139081026Y-98236742D01*
X139061240Y-98425000D01*
X139081026Y-98613257D01*
X139139520Y-98793284D01*
X139234166Y-98957216D01*
X139360829Y-99097889D01*
X139513969Y-99209151D01*
X139686897Y-99286144D01*
X139872052Y-99325500D01*
X139872054Y-99325500D01*
X140061348Y-99325500D01*
X140184783Y-99299262D01*
X140246503Y-99286144D01*
X140419430Y-99209151D01*
X140572571Y-99097888D01*
X140699233Y-98957216D01*
X140793879Y-98793284D01*
X140852374Y-98613256D01*
X140870021Y-98445344D01*
X140896604Y-98380734D01*
X140905651Y-98370638D01*
X141075489Y-98200800D01*
X141091585Y-98187906D01*
X141093573Y-98185787D01*
X141093577Y-98185786D01*
X141139649Y-98136723D01*
X141142234Y-98134055D01*
X141161820Y-98114471D01*
X141164285Y-98111292D01*
X141171867Y-98102416D01*
X141174457Y-98099658D01*
X141201762Y-98070582D01*
X141211412Y-98053027D01*
X141222100Y-98036757D01*
X141234371Y-98020938D01*
X141234373Y-98020936D01*
X141251726Y-97980832D01*
X141256857Y-97970362D01*
X141277897Y-97932092D01*
X141282875Y-97912699D01*
X141289181Y-97894282D01*
X141290718Y-97890728D01*
X141297138Y-97875896D01*
X141303972Y-97832745D01*
X141306335Y-97821331D01*
X141317200Y-97779019D01*
X141317200Y-97758982D01*
X141318727Y-97739584D01*
X141321860Y-97719804D01*
X141317750Y-97676324D01*
X141317200Y-97664655D01*
X141317200Y-90965043D01*
X141319464Y-90944539D01*
X141318386Y-90910243D01*
X141317261Y-90874426D01*
X141317200Y-90870531D01*
X141317200Y-90846840D01*
X141317200Y-90842950D01*
X141316698Y-90838977D01*
X141315780Y-90827318D01*
X141315377Y-90814500D01*
X141314409Y-90783673D01*
X141308820Y-90764440D01*
X141304874Y-90745382D01*
X141302364Y-90725506D01*
X141286288Y-90684904D01*
X141282504Y-90673853D01*
X141276581Y-90653468D01*
X141270318Y-90631910D01*
X141260114Y-90614655D01*
X141251561Y-90597195D01*
X141244300Y-90578856D01*
X141244186Y-90578568D01*
X141218508Y-90543225D01*
X141212101Y-90533471D01*
X141189870Y-90495880D01*
X141175705Y-90481715D01*
X141163067Y-90466917D01*
X141151295Y-90450713D01*
X141117641Y-90422873D01*
X141108999Y-90415009D01*
X137981172Y-87287181D01*
X137947687Y-87225858D01*
X137952671Y-87156166D01*
X137994543Y-87100233D01*
X138060007Y-87075816D01*
X138068853Y-87075500D01*
X144607256Y-87075500D01*
X144627762Y-87077764D01*
X144630665Y-87077672D01*
X144630667Y-87077673D01*
X144697872Y-87075561D01*
X144701768Y-87075500D01*
X144725448Y-87075500D01*
X144729350Y-87075500D01*
X144733313Y-87074999D01*
X144744962Y-87074080D01*
X144788627Y-87072709D01*
X144807859Y-87067120D01*
X144826918Y-87063174D01*
X144833196Y-87062381D01*
X144846792Y-87060664D01*
X144887407Y-87044582D01*
X144898444Y-87040803D01*
X144940390Y-87028618D01*
X144957629Y-87018422D01*
X144975102Y-87009862D01*
X144993732Y-87002486D01*
X145029064Y-86976814D01*
X145038830Y-86970400D01*
X145076418Y-86948171D01*
X145076417Y-86948171D01*
X145076420Y-86948170D01*
X145090585Y-86934004D01*
X145105373Y-86921373D01*
X145121587Y-86909594D01*
X145149438Y-86875926D01*
X145157279Y-86867309D01*
X164987821Y-67036769D01*
X165049142Y-67003286D01*
X165118834Y-67008270D01*
G37*
%TD.AperFunction*%
%TA.AperFunction,Conductor*%
G36*
X139329992Y-76210185D02*
G01*
X139355100Y-76231526D01*
X139360829Y-76237888D01*
X139513970Y-76349151D01*
X139513971Y-76349151D01*
X139513972Y-76349152D01*
X139686897Y-76426144D01*
X139872052Y-76465500D01*
X139872054Y-76465500D01*
X139931248Y-76465500D01*
X139998287Y-76485185D01*
X140018929Y-76501819D01*
X141578181Y-78061071D01*
X141611666Y-78122394D01*
X141614500Y-78148752D01*
X141614500Y-83141247D01*
X141594815Y-83208286D01*
X141578181Y-83228928D01*
X140018928Y-84788181D01*
X139957605Y-84821666D01*
X139931247Y-84824500D01*
X139872052Y-84824500D01*
X139686897Y-84863855D01*
X139513969Y-84940848D01*
X139360829Y-85052110D01*
X139234166Y-85192783D01*
X139139520Y-85356715D01*
X139081026Y-85536742D01*
X139062453Y-85713461D01*
X139035868Y-85778076D01*
X138978571Y-85818061D01*
X138939132Y-85824500D01*
X136569853Y-85824500D01*
X136502814Y-85804815D01*
X136482172Y-85788181D01*
X135203360Y-84509369D01*
X135169875Y-84448046D01*
X135167723Y-84434668D01*
X135150074Y-84266744D01*
X135091579Y-84086716D01*
X135091579Y-84086715D01*
X134996933Y-83922783D01*
X134870270Y-83782110D01*
X134717130Y-83670848D01*
X134544202Y-83593855D01*
X134359048Y-83554500D01*
X134359046Y-83554500D01*
X134169754Y-83554500D01*
X134169752Y-83554500D01*
X133984597Y-83593855D01*
X133811669Y-83670848D01*
X133658529Y-83782110D01*
X133531866Y-83922783D01*
X133437220Y-84086715D01*
X133378726Y-84266742D01*
X133358940Y-84455000D01*
X133378726Y-84643257D01*
X133437220Y-84823284D01*
X133531866Y-84987216D01*
X133658529Y-85127889D01*
X133811669Y-85239151D01*
X133984597Y-85316144D01*
X134169752Y-85355500D01*
X134169754Y-85355500D01*
X134228948Y-85355500D01*
X134295987Y-85375185D01*
X134316629Y-85391819D01*
X135758596Y-86833787D01*
X135771496Y-86849888D01*
X135822623Y-86897900D01*
X135825420Y-86900611D01*
X135853608Y-86928799D01*
X135853614Y-86928804D01*
X140029882Y-91105072D01*
X140063366Y-91166393D01*
X140066200Y-91192751D01*
X140066200Y-94453202D01*
X140046515Y-94520241D01*
X139993711Y-94565996D01*
X139924553Y-94575940D01*
X139860997Y-94546915D01*
X139854519Y-94540883D01*
X124137344Y-78823708D01*
X124103859Y-78762385D01*
X124101707Y-78749007D01*
X124084058Y-78581083D01*
X124025563Y-78401055D01*
X124025563Y-78401054D01*
X123930917Y-78237122D01*
X123848074Y-78145116D01*
X123817844Y-78082125D01*
X123826469Y-78012789D01*
X123852540Y-77974466D01*
X125600189Y-76226819D01*
X125661513Y-76193334D01*
X125687871Y-76190500D01*
X139262953Y-76190500D01*
X139329992Y-76210185D01*
G37*
%TD.AperFunction*%
%TA.AperFunction,Conductor*%
G36*
X106785702Y-67819225D02*
G01*
X106792180Y-67825257D01*
X116723041Y-77756119D01*
X116756526Y-77817442D01*
X116751542Y-77887134D01*
X116709670Y-77943067D01*
X116644206Y-77967484D01*
X116635360Y-77967800D01*
X111759589Y-77967800D01*
X111692550Y-77948115D01*
X111667441Y-77926773D01*
X111661713Y-77920412D01*
X111508572Y-77809149D01*
X111508571Y-77809148D01*
X111508569Y-77809147D01*
X111335644Y-77732155D01*
X111150490Y-77692800D01*
X111150488Y-77692800D01*
X110961196Y-77692800D01*
X110961194Y-77692800D01*
X110776039Y-77732155D01*
X110603111Y-77809148D01*
X110449971Y-77920410D01*
X110323308Y-78061084D01*
X110262956Y-78165617D01*
X110212389Y-78213833D01*
X110143782Y-78227055D01*
X110078917Y-78201087D01*
X110067888Y-78191298D01*
X106616818Y-74740228D01*
X106583333Y-74678905D01*
X106580499Y-74652547D01*
X106580499Y-71163333D01*
X106580499Y-67912934D01*
X106600184Y-67845899D01*
X106652988Y-67800144D01*
X106722146Y-67790200D01*
X106785702Y-67819225D01*
G37*
%TD.AperFunction*%
%TA.AperFunction,Conductor*%
G36*
X192982539Y-35580185D02*
G01*
X193028294Y-35632989D01*
X193039500Y-35684500D01*
X193039500Y-109095500D01*
X193019815Y-109162539D01*
X192967011Y-109208294D01*
X192915500Y-109219500D01*
X89024500Y-109219500D01*
X88957461Y-109199815D01*
X88911706Y-109147011D01*
X88900500Y-109095500D01*
X88900500Y-103171448D01*
X93439500Y-103171448D01*
X93439657Y-103173656D01*
X93439658Y-103173658D01*
X93454804Y-103385429D01*
X93515629Y-103665041D01*
X93615634Y-103933163D01*
X93752772Y-104184313D01*
X93838517Y-104298855D01*
X93924261Y-104413395D01*
X94126605Y-104615739D01*
X94272622Y-104725046D01*
X94355686Y-104787227D01*
X94495435Y-104863535D01*
X94606839Y-104924367D01*
X94874954Y-105024369D01*
X94874957Y-105024369D01*
X94874958Y-105024370D01*
X94927217Y-105035738D01*
X95154572Y-105085196D01*
X95368552Y-105100500D01*
X95370767Y-105100500D01*
X98509233Y-105100500D01*
X98511448Y-105100500D01*
X98725428Y-105085196D01*
X99005046Y-105024369D01*
X99273161Y-104924367D01*
X99524315Y-104787226D01*
X99753395Y-104615739D01*
X99955739Y-104413395D01*
X100127226Y-104184315D01*
X100264367Y-103933161D01*
X100364369Y-103665046D01*
X100425196Y-103385428D01*
X100440500Y-103171448D01*
X100440500Y-100028552D01*
X100425196Y-99814572D01*
X100364369Y-99534954D01*
X100264367Y-99266839D01*
X100172113Y-99097889D01*
X100127227Y-99015686D01*
X100083457Y-98957216D01*
X99955739Y-98786605D01*
X99753395Y-98584261D01*
X99638854Y-98498517D01*
X99524313Y-98412772D01*
X99273163Y-98275634D01*
X99273162Y-98275633D01*
X99273161Y-98275633D01*
X99046576Y-98191121D01*
X99005041Y-98175629D01*
X98725429Y-98114804D01*
X98513658Y-98099658D01*
X98513656Y-98099657D01*
X98511448Y-98099500D01*
X95368552Y-98099500D01*
X95366344Y-98099657D01*
X95366341Y-98099658D01*
X95154570Y-98114804D01*
X94874958Y-98175629D01*
X94606836Y-98275634D01*
X94355686Y-98412772D01*
X94126602Y-98584263D01*
X93924263Y-98786602D01*
X93752772Y-99015686D01*
X93615634Y-99266836D01*
X93515629Y-99534958D01*
X93454804Y-99814570D01*
X93454804Y-99814572D01*
X93439500Y-100028552D01*
X93439500Y-103171448D01*
X88900500Y-103171448D01*
X88900500Y-68434578D01*
X95419500Y-68434578D01*
X95419501Y-68437872D01*
X95419853Y-68441152D01*
X95419854Y-68441159D01*
X95424757Y-68486770D01*
X95425909Y-68497483D01*
X95476204Y-68632331D01*
X95562454Y-68747546D01*
X95677669Y-68833796D01*
X95812517Y-68884091D01*
X95872127Y-68890500D01*
X97167872Y-68890499D01*
X97227483Y-68884091D01*
X97362331Y-68833796D01*
X97477546Y-68747546D01*
X97563796Y-68632331D01*
X97614091Y-68497483D01*
X97620500Y-68437873D01*
X97620499Y-67142128D01*
X97614091Y-67082517D01*
X97563796Y-66947669D01*
X97477546Y-66832454D01*
X97362331Y-66746204D01*
X97227483Y-66695909D01*
X97167873Y-66689500D01*
X97164550Y-66689500D01*
X95875439Y-66689500D01*
X95875420Y-66689500D01*
X95872128Y-66689501D01*
X95868848Y-66689853D01*
X95868840Y-66689854D01*
X95812515Y-66695909D01*
X95677669Y-66746204D01*
X95562454Y-66832454D01*
X95476204Y-66947668D01*
X95425910Y-67082515D01*
X95425909Y-67082517D01*
X95419500Y-67142127D01*
X95419500Y-67145448D01*
X95419500Y-67145449D01*
X95419500Y-68434560D01*
X95419500Y-68434578D01*
X88900500Y-68434578D01*
X88900500Y-51165689D01*
X105324840Y-51165689D01*
X105328950Y-51209168D01*
X105329500Y-51220838D01*
X105329500Y-74880255D01*
X105327235Y-74900766D01*
X105329438Y-74970874D01*
X105329499Y-74974763D01*
X105329499Y-74998461D01*
X105329499Y-74998474D01*
X105329500Y-75002350D01*
X105329986Y-75006202D01*
X105329987Y-75006211D01*
X105330004Y-75006343D01*
X105330918Y-75017967D01*
X105332290Y-75061626D01*
X105337879Y-75080860D01*
X105341825Y-75099916D01*
X105344335Y-75119792D01*
X105360414Y-75160404D01*
X105364197Y-75171451D01*
X105376382Y-75213391D01*
X105386580Y-75230635D01*
X105395136Y-75248100D01*
X105402514Y-75266732D01*
X105402515Y-75266733D01*
X105428180Y-75302059D01*
X105434593Y-75311822D01*
X105456826Y-75349416D01*
X105456829Y-75349419D01*
X105456830Y-75349420D01*
X105470995Y-75363585D01*
X105483627Y-75378375D01*
X105495406Y-75394587D01*
X105529058Y-75422426D01*
X105537699Y-75430289D01*
X121931196Y-91823787D01*
X121944096Y-91839888D01*
X121995223Y-91887900D01*
X121998020Y-91890611D01*
X122017529Y-91910120D01*
X122020709Y-91912587D01*
X122029571Y-91920155D01*
X122061418Y-91950062D01*
X122078972Y-91959712D01*
X122095236Y-91970396D01*
X122106972Y-91979499D01*
X122111064Y-91982673D01*
X122135909Y-91993424D01*
X122151152Y-92000021D01*
X122161631Y-92005154D01*
X122199908Y-92026197D01*
X122219306Y-92031177D01*
X122237708Y-92037477D01*
X122256104Y-92045438D01*
X122299261Y-92052273D01*
X122310664Y-92054634D01*
X122352981Y-92065500D01*
X122373016Y-92065500D01*
X122392413Y-92067026D01*
X122412196Y-92070160D01*
X122455674Y-92066050D01*
X122467344Y-92065500D01*
X123070453Y-92065500D01*
X123137492Y-92085185D01*
X123162600Y-92106526D01*
X123168329Y-92112888D01*
X123321470Y-92224151D01*
X123321471Y-92224151D01*
X123321472Y-92224152D01*
X123494397Y-92301144D01*
X123679552Y-92340500D01*
X123679554Y-92340500D01*
X123868848Y-92340500D01*
X123992283Y-92314262D01*
X124054003Y-92301144D01*
X124226930Y-92224151D01*
X124380071Y-92112888D01*
X124506733Y-91972216D01*
X124601379Y-91808284D01*
X124659874Y-91628256D01*
X124679660Y-91440000D01*
X124674186Y-91387920D01*
X124686755Y-91319192D01*
X124734487Y-91268168D01*
X124802228Y-91251050D01*
X124868469Y-91273272D01*
X124885188Y-91287279D01*
X138121696Y-104523787D01*
X138134596Y-104539888D01*
X138185723Y-104587900D01*
X138188520Y-104590611D01*
X138208029Y-104610120D01*
X138211209Y-104612587D01*
X138220071Y-104620155D01*
X138251918Y-104650062D01*
X138269472Y-104659712D01*
X138285736Y-104670396D01*
X138297472Y-104679499D01*
X138301564Y-104682673D01*
X138326409Y-104693424D01*
X138341652Y-104700021D01*
X138352131Y-104705154D01*
X138390408Y-104726197D01*
X138409806Y-104731177D01*
X138428208Y-104737477D01*
X138446604Y-104745438D01*
X138489761Y-104752273D01*
X138501164Y-104754634D01*
X138543481Y-104765500D01*
X138563516Y-104765500D01*
X138582913Y-104767026D01*
X138602696Y-104770160D01*
X138646174Y-104766050D01*
X138657844Y-104765500D01*
X142157256Y-104765500D01*
X142177762Y-104767764D01*
X142180665Y-104767672D01*
X142180667Y-104767673D01*
X142247872Y-104765561D01*
X142251768Y-104765500D01*
X142275448Y-104765500D01*
X142279350Y-104765500D01*
X142283313Y-104764999D01*
X142294962Y-104764080D01*
X142338627Y-104762709D01*
X142357859Y-104757120D01*
X142376918Y-104753174D01*
X142384091Y-104752268D01*
X142396792Y-104750664D01*
X142437407Y-104734582D01*
X142448444Y-104730803D01*
X142490390Y-104718618D01*
X142507629Y-104708422D01*
X142525102Y-104699862D01*
X142543732Y-104692486D01*
X142579064Y-104666814D01*
X142588830Y-104660400D01*
X142626418Y-104638171D01*
X142626417Y-104638171D01*
X142626420Y-104638170D01*
X142640585Y-104624004D01*
X142655373Y-104611373D01*
X142671587Y-104599594D01*
X142699438Y-104565926D01*
X142707279Y-104557309D01*
X143033140Y-104231448D01*
X176839500Y-104231448D01*
X176839657Y-104233656D01*
X176839658Y-104233658D01*
X176854804Y-104445429D01*
X176915629Y-104725041D01*
X176917917Y-104731176D01*
X176989973Y-104924365D01*
X177015634Y-104993163D01*
X177152772Y-105244313D01*
X177238517Y-105358855D01*
X177324261Y-105473395D01*
X177526605Y-105675739D01*
X177698415Y-105804354D01*
X177755686Y-105847227D01*
X177895435Y-105923535D01*
X178006839Y-105984367D01*
X178274954Y-106084369D01*
X178274957Y-106084369D01*
X178274958Y-106084370D01*
X178327217Y-106095738D01*
X178554572Y-106145196D01*
X178768552Y-106160500D01*
X178770767Y-106160500D01*
X181909233Y-106160500D01*
X181911448Y-106160500D01*
X182125428Y-106145196D01*
X182405046Y-106084369D01*
X182673161Y-105984367D01*
X182924315Y-105847226D01*
X183153395Y-105675739D01*
X183355739Y-105473395D01*
X183527226Y-105244315D01*
X183664367Y-104993161D01*
X183764369Y-104725046D01*
X183825196Y-104445428D01*
X183840500Y-104231448D01*
X183840500Y-101088552D01*
X183825196Y-100874572D01*
X183764369Y-100594954D01*
X183664367Y-100326839D01*
X183527226Y-100075685D01*
X183355739Y-99846605D01*
X183153395Y-99644261D01*
X183007378Y-99534954D01*
X182924313Y-99472772D01*
X182673163Y-99335634D01*
X182673162Y-99335633D01*
X182673161Y-99335633D01*
X182405046Y-99235631D01*
X182405041Y-99235629D01*
X182125429Y-99174804D01*
X181913658Y-99159658D01*
X181913656Y-99159657D01*
X181911448Y-99159500D01*
X178768552Y-99159500D01*
X178766344Y-99159657D01*
X178766341Y-99159658D01*
X178554570Y-99174804D01*
X178274958Y-99235629D01*
X178006836Y-99335634D01*
X177755686Y-99472772D01*
X177526602Y-99644263D01*
X177324263Y-99846602D01*
X177152772Y-100075686D01*
X177015634Y-100326836D01*
X176915629Y-100594958D01*
X176854804Y-100874570D01*
X176854804Y-100874572D01*
X176839500Y-101088552D01*
X176839500Y-104231448D01*
X143033140Y-104231448D01*
X155323789Y-91940800D01*
X155339885Y-91927906D01*
X155341873Y-91925787D01*
X155341877Y-91925786D01*
X155387949Y-91876723D01*
X155390534Y-91874055D01*
X155410120Y-91854471D01*
X155412585Y-91851292D01*
X155420167Y-91842416D01*
X155437661Y-91823787D01*
X155450062Y-91810582D01*
X155459717Y-91793018D01*
X155470394Y-91776764D01*
X155482673Y-91760936D01*
X155500018Y-91720852D01*
X155505160Y-91710356D01*
X155526197Y-91672092D01*
X155531179Y-91652684D01*
X155537481Y-91634280D01*
X155545437Y-91615896D01*
X155552269Y-91572752D01*
X155554633Y-91561338D01*
X155565500Y-91519019D01*
X155565500Y-91498983D01*
X155567027Y-91479584D01*
X155570160Y-91459804D01*
X155568288Y-91440000D01*
X171814540Y-91440000D01*
X171818700Y-91479584D01*
X171834326Y-91628257D01*
X171892820Y-91808284D01*
X171987466Y-91972216D01*
X172114129Y-92112889D01*
X172267269Y-92224151D01*
X172440197Y-92301144D01*
X172625352Y-92340500D01*
X172625354Y-92340500D01*
X172814648Y-92340500D01*
X172938083Y-92314262D01*
X172999803Y-92301144D01*
X173172730Y-92224151D01*
X173325871Y-92112888D01*
X173452533Y-91972216D01*
X173547179Y-91808284D01*
X173605674Y-91628256D01*
X173625460Y-91440000D01*
X173605674Y-91251744D01*
X173565969Y-91129546D01*
X173547179Y-91071715D01*
X173452533Y-90907783D01*
X173377350Y-90824284D01*
X173347120Y-90761293D01*
X173345500Y-90741312D01*
X173345500Y-54038687D01*
X173365185Y-53971648D01*
X173377350Y-53955714D01*
X173452533Y-53872216D01*
X173547179Y-53708284D01*
X173605674Y-53528256D01*
X173625460Y-53340000D01*
X173605674Y-53151744D01*
X173547179Y-52971716D01*
X173547179Y-52971715D01*
X173452533Y-52807783D01*
X173325870Y-52667110D01*
X173172730Y-52555848D01*
X172999802Y-52478855D01*
X172814648Y-52439500D01*
X172814646Y-52439500D01*
X172625354Y-52439500D01*
X172625352Y-52439500D01*
X172440197Y-52478855D01*
X172267269Y-52555848D01*
X172114129Y-52667110D01*
X171987466Y-52807783D01*
X171892820Y-52971715D01*
X171834326Y-53151742D01*
X171814540Y-53340000D01*
X171834326Y-53528257D01*
X171892820Y-53708284D01*
X171987464Y-53872213D01*
X172062650Y-53955714D01*
X172092880Y-54018706D01*
X172094500Y-54038687D01*
X172094500Y-90741312D01*
X172074815Y-90808351D01*
X172062650Y-90824284D01*
X171987466Y-90907783D01*
X171892820Y-91071715D01*
X171834326Y-91251742D01*
X171834325Y-91251744D01*
X171834326Y-91251744D01*
X171814540Y-91440000D01*
X155568288Y-91440000D01*
X155566050Y-91416324D01*
X155565500Y-91404655D01*
X155565500Y-81978687D01*
X155585185Y-81911648D01*
X155597350Y-81895714D01*
X155660767Y-81825283D01*
X155672533Y-81812216D01*
X155767179Y-81648284D01*
X155825674Y-81468256D01*
X155844247Y-81291538D01*
X155870832Y-81226924D01*
X155928129Y-81186939D01*
X155967568Y-81180500D01*
X156094909Y-81180500D01*
X156115415Y-81182764D01*
X156118318Y-81182672D01*
X156118320Y-81182673D01*
X156185525Y-81180561D01*
X156189421Y-81180500D01*
X156213101Y-81180500D01*
X156217003Y-81180500D01*
X156220966Y-81179999D01*
X156232615Y-81179080D01*
X156276280Y-81177709D01*
X156295512Y-81172120D01*
X156314571Y-81168174D01*
X156320849Y-81167381D01*
X156334445Y-81165664D01*
X156375060Y-81149582D01*
X156386097Y-81145803D01*
X156428043Y-81133618D01*
X156445282Y-81123422D01*
X156462755Y-81114862D01*
X156481385Y-81107486D01*
X156516717Y-81081814D01*
X156526483Y-81075400D01*
X156564071Y-81053171D01*
X156564070Y-81053171D01*
X156564073Y-81053170D01*
X156578238Y-81039004D01*
X156593026Y-81026373D01*
X156609240Y-81014594D01*
X156637091Y-80980926D01*
X156644932Y-80972309D01*
X166208789Y-71408453D01*
X166224885Y-71395559D01*
X166226873Y-71393440D01*
X166226877Y-71393439D01*
X166272949Y-71344376D01*
X166275534Y-71341708D01*
X166295120Y-71322124D01*
X166297585Y-71318945D01*
X166305167Y-71310069D01*
X166306870Y-71308256D01*
X166335062Y-71278235D01*
X166344712Y-71260680D01*
X166355400Y-71244410D01*
X166367671Y-71228591D01*
X166367673Y-71228589D01*
X166385026Y-71188485D01*
X166390157Y-71178015D01*
X166411197Y-71139745D01*
X166416175Y-71120352D01*
X166422481Y-71101935D01*
X166428307Y-71088472D01*
X166430438Y-71083549D01*
X166437272Y-71040398D01*
X166439635Y-71028984D01*
X166450500Y-70986672D01*
X166450500Y-70966635D01*
X166452027Y-70947237D01*
X166455160Y-70927457D01*
X166451050Y-70883977D01*
X166450500Y-70872308D01*
X166450500Y-65822434D01*
X166452763Y-65801933D01*
X166450561Y-65731838D01*
X166450500Y-65727944D01*
X166450500Y-65704239D01*
X166450500Y-65700345D01*
X166449998Y-65696376D01*
X166449080Y-65684719D01*
X166447709Y-65641067D01*
X166442119Y-65621829D01*
X166438174Y-65602777D01*
X166435664Y-65582903D01*
X166419578Y-65542276D01*
X166415805Y-65531255D01*
X166403617Y-65489305D01*
X166393421Y-65472064D01*
X166384863Y-65454597D01*
X166377486Y-65435963D01*
X166351798Y-65400607D01*
X166345409Y-65390879D01*
X166323170Y-65353274D01*
X166309006Y-65339110D01*
X166296369Y-65324315D01*
X166284595Y-65308109D01*
X166284594Y-65308108D01*
X166250935Y-65280263D01*
X166242305Y-65272409D01*
X165901107Y-64931211D01*
X165888211Y-64915113D01*
X165837080Y-64867098D01*
X165834283Y-64864387D01*
X165817532Y-64847636D01*
X165814776Y-64844880D01*
X165811595Y-64842412D01*
X165802727Y-64834837D01*
X165770887Y-64804938D01*
X165753329Y-64795285D01*
X165737069Y-64784604D01*
X165721241Y-64772327D01*
X165681156Y-64754980D01*
X165670666Y-64749841D01*
X165632396Y-64728802D01*
X165612996Y-64723821D01*
X165594589Y-64717519D01*
X165576202Y-64709562D01*
X165533063Y-64702729D01*
X165521629Y-64700361D01*
X165479324Y-64689500D01*
X165459289Y-64689500D01*
X165439891Y-64687973D01*
X165432467Y-64686797D01*
X165420110Y-64684840D01*
X165420109Y-64684840D01*
X165393800Y-64687327D01*
X165376630Y-64688950D01*
X165364961Y-64689500D01*
X129534451Y-64689500D01*
X129467412Y-64669815D01*
X129421657Y-64617011D01*
X129411713Y-64547853D01*
X129440738Y-64484297D01*
X129446770Y-64477819D01*
X130547355Y-63377235D01*
X134207771Y-59716819D01*
X134269095Y-59683334D01*
X134295453Y-59680500D01*
X138996253Y-59680500D01*
X139063292Y-59700185D01*
X139088400Y-59721526D01*
X139094129Y-59727888D01*
X139247270Y-59839151D01*
X139247271Y-59839151D01*
X139247272Y-59839152D01*
X139420197Y-59916144D01*
X139605352Y-59955500D01*
X139605354Y-59955500D01*
X139794648Y-59955500D01*
X139918083Y-59929262D01*
X139979803Y-59916144D01*
X140152730Y-59839151D01*
X140305871Y-59727888D01*
X140432533Y-59587216D01*
X140527179Y-59423284D01*
X140585674Y-59243256D01*
X140605460Y-59055000D01*
X140585674Y-58866744D01*
X140527179Y-58686716D01*
X140527179Y-58686715D01*
X140432533Y-58522783D01*
X140305870Y-58382110D01*
X140152730Y-58270848D01*
X139979802Y-58193855D01*
X139794648Y-58154500D01*
X139794646Y-58154500D01*
X139605354Y-58154500D01*
X139605352Y-58154500D01*
X139420197Y-58193855D01*
X139247272Y-58270847D01*
X139145175Y-58345024D01*
X139094129Y-58382112D01*
X139088401Y-58388472D01*
X139028916Y-58425121D01*
X138996253Y-58429500D01*
X134067740Y-58429500D01*
X134047236Y-58427236D01*
X133977144Y-58429439D01*
X133973250Y-58429500D01*
X133945650Y-58429500D01*
X133941799Y-58429986D01*
X133941768Y-58429988D01*
X133941640Y-58430005D01*
X133930028Y-58430918D01*
X133886368Y-58432290D01*
X133867128Y-58437880D01*
X133848081Y-58441825D01*
X133828209Y-58444335D01*
X133787599Y-58460413D01*
X133776554Y-58464194D01*
X133734611Y-58476380D01*
X133717369Y-58486578D01*
X133699897Y-58495138D01*
X133681266Y-58502514D01*
X133645938Y-58528181D01*
X133636180Y-58534591D01*
X133598579Y-58556829D01*
X133584410Y-58570998D01*
X133569622Y-58583628D01*
X133553413Y-58595405D01*
X133525572Y-58629058D01*
X133517711Y-58637696D01*
X130517840Y-61637567D01*
X130456517Y-61671052D01*
X130386825Y-61666068D01*
X130330892Y-61624196D01*
X130322775Y-61611892D01*
X130272533Y-61524869D01*
X130272532Y-61524867D01*
X130197350Y-61441369D01*
X130167120Y-61378378D01*
X130165500Y-61358397D01*
X130165500Y-46418687D01*
X130185185Y-46351648D01*
X130197350Y-46335714D01*
X130244294Y-46283578D01*
X130272533Y-46252216D01*
X130367179Y-46088284D01*
X130425674Y-45908256D01*
X130445460Y-45720000D01*
X130425674Y-45531744D01*
X130367179Y-45351716D01*
X130367179Y-45351715D01*
X130272533Y-45187783D01*
X130145870Y-45047110D01*
X129992730Y-44935848D01*
X129819802Y-44858855D01*
X129634648Y-44819500D01*
X129634646Y-44819500D01*
X129575452Y-44819500D01*
X129508413Y-44799815D01*
X129487771Y-44783181D01*
X128271771Y-43567181D01*
X127050802Y-42346211D01*
X127037906Y-42330113D01*
X126986775Y-42282098D01*
X126983978Y-42279387D01*
X126967227Y-42262636D01*
X126964471Y-42259880D01*
X126961290Y-42257412D01*
X126952422Y-42249837D01*
X126920582Y-42219938D01*
X126903024Y-42210285D01*
X126886764Y-42199604D01*
X126870936Y-42187327D01*
X126830851Y-42169980D01*
X126820361Y-42164841D01*
X126782091Y-42143802D01*
X126762691Y-42138821D01*
X126744284Y-42132519D01*
X126725897Y-42124562D01*
X126682758Y-42117729D01*
X126671324Y-42115361D01*
X126629019Y-42104500D01*
X126608984Y-42104500D01*
X126589586Y-42102973D01*
X126582162Y-42101797D01*
X126569805Y-42099840D01*
X126569804Y-42099840D01*
X126544468Y-42102235D01*
X126526325Y-42103950D01*
X126514656Y-42104500D01*
X114493239Y-42104500D01*
X114472731Y-42102235D01*
X114402608Y-42104439D01*
X114398714Y-42104500D01*
X114371145Y-42104500D01*
X114367289Y-42104986D01*
X114367286Y-42104987D01*
X114367230Y-42104994D01*
X114367157Y-42105003D01*
X114355538Y-42105917D01*
X114311867Y-42107289D01*
X114292623Y-42112880D01*
X114273579Y-42116824D01*
X114253703Y-42119335D01*
X114213095Y-42135413D01*
X114202049Y-42139194D01*
X114160105Y-42151382D01*
X114160102Y-42151383D01*
X114142860Y-42161579D01*
X114125399Y-42170133D01*
X114106762Y-42177512D01*
X114071426Y-42203185D01*
X114061669Y-42209595D01*
X114024075Y-42231829D01*
X114009908Y-42245996D01*
X113995119Y-42258626D01*
X113978908Y-42270404D01*
X113951067Y-42304058D01*
X113943206Y-42312697D01*
X105571208Y-50684694D01*
X105555110Y-50697591D01*
X105507096Y-50748720D01*
X105504392Y-50751511D01*
X105487628Y-50768275D01*
X105487621Y-50768282D01*
X105484880Y-50771024D01*
X105482499Y-50774092D01*
X105482490Y-50774103D01*
X105482411Y-50774206D01*
X105474842Y-50783067D01*
X105444935Y-50814915D01*
X105435285Y-50832469D01*
X105424609Y-50848723D01*
X105412326Y-50864558D01*
X105394975Y-50904653D01*
X105389838Y-50915139D01*
X105368802Y-50953402D01*
X105363821Y-50972804D01*
X105357520Y-50991206D01*
X105349561Y-51009597D01*
X105342728Y-51052737D01*
X105340360Y-51064169D01*
X105329500Y-51106472D01*
X105329500Y-51126511D01*
X105327973Y-51145909D01*
X105324840Y-51165689D01*
X88900500Y-51165689D01*
X88900500Y-35684500D01*
X88920185Y-35617461D01*
X88972989Y-35571706D01*
X89024500Y-35560500D01*
X192915500Y-35560500D01*
X192982539Y-35580185D01*
G37*
%TD.AperFunction*%
M02*
