M48
; DRILL file {KiCad 7.0.2} date Mon Jun 26 22:09:08 2023
; FORMAT={-:-/ absolute / metric / decimal}
; #@! TF.CreationDate,2023-06-26T22:09:08-07:00
; #@! TF.GenerationSoftware,Kicad,Pcbnew,7.0.2
; #@! TF.FileFunction,Plated,1,2,PTH
FMAT,2
METRIC
; #@! TA.AperFunction,Plated,PTH,ViaDrill
T1C0.400
; #@! TA.AperFunction,Plated,PTH,ComponentDrill
T2C0.850
; #@! TA.AperFunction,Plated,PTH,ComponentDrill
T3C4.500
%
G90
G05
T1
X106.68Y-62.037
X109.0Y-72.0
X111.056Y-78.593
X112.446Y-45.72
X116.84Y-82.358
X116.867Y-74.814
X118.072Y-64.05
X118.133Y-77.256
X119.38Y-76.2
X119.5Y-80.25
X121.451Y-69.203
X123.0Y-81.0
X123.198Y-78.769
X123.32Y-53.34
X123.774Y-91.44
X124.46Y-66.04
X124.46Y-68.58
X127.0Y-68.58
X127.0Y-71.12
X128.288Y-70.893
X129.25Y-80.5
X129.54Y-45.72
X129.54Y-62.057
X129.54Y-73.66
X131.75Y-85.75
X132.066Y-74.57
X134.264Y-71.755
X134.264Y-84.455
X134.62Y-53.34
X137.16Y-50.8
X138.5Y-80.25
X139.7Y-43.18
X139.7Y-48.26
X139.7Y-50.8
X139.7Y-59.055
X139.967Y-71.755
X139.967Y-75.565
X139.967Y-85.725
X139.967Y-97.155
X139.967Y-98.425
X144.25Y-59.5
X145.0Y-70.5
X152.4Y-87.835
X153.75Y-73.25
X154.94Y-81.28
X160.5Y-67.0
X165.1Y-66.04
X172.72Y-53.34
X172.72Y-91.44
T2
X96.52Y-64.29
X96.52Y-67.79
T3
X96.94Y-101.6
X104.14Y-101.6
X180.34Y-95.46
X180.34Y-102.66
T0
M30
