%TF.GenerationSoftware,KiCad,Pcbnew,7.0.2*%
%TF.CreationDate,2023-09-14T18:59:28-07:00*%
%TF.ProjectId,RGB,5247422e-6b69-4636-9164-5f7063625858,rev?*%
%TF.SameCoordinates,Original*%
%TF.FileFunction,Drillmap*%
%TF.FilePolarity,Positive*%
%FSLAX45Y45*%
G04 Gerber Fmt 4.5, Leading zero omitted, Abs format (unit mm)*
G04 Created by KiCad (PCBNEW 7.0.2) date 2023-09-14 18:59:28*
%MOMM*%
%LPD*%
G01*
G04 APERTURE LIST*
%ADD10C,0.200000*%
%ADD11C,0.100000*%
G04 APERTURE END LIST*
D10*
X9575800Y-8267700D02*
X13119100Y-8267700D01*
X13119100Y-10223500D01*
X9575800Y-10223500D01*
X9575800Y-8267700D01*
D11*
X10167084Y-8596695D02*
X10267084Y-8696695D01*
X10267084Y-8596695D02*
X10167084Y-8696695D01*
X10167084Y-8850695D02*
X10267084Y-8950695D01*
X10267084Y-8850695D02*
X10167084Y-8950695D01*
X10167084Y-9104695D02*
X10267084Y-9204695D01*
X10267084Y-9104695D02*
X10167084Y-9204695D01*
X10167084Y-9358695D02*
X10267084Y-9458695D01*
X10267084Y-9358695D02*
X10167084Y-9458695D01*
D10*
X9813419Y-10546024D02*
X9813419Y-10346024D01*
X9813419Y-10346024D02*
X9861038Y-10346024D01*
X9861038Y-10346024D02*
X9889610Y-10355548D01*
X9889610Y-10355548D02*
X9908657Y-10374595D01*
X9908657Y-10374595D02*
X9918181Y-10393643D01*
X9918181Y-10393643D02*
X9927705Y-10431738D01*
X9927705Y-10431738D02*
X9927705Y-10460310D01*
X9927705Y-10460310D02*
X9918181Y-10498405D01*
X9918181Y-10498405D02*
X9908657Y-10517452D01*
X9908657Y-10517452D02*
X9889610Y-10536500D01*
X9889610Y-10536500D02*
X9861038Y-10546024D01*
X9861038Y-10546024D02*
X9813419Y-10546024D01*
X10013419Y-10546024D02*
X10013419Y-10412690D01*
X10013419Y-10450786D02*
X10022943Y-10431738D01*
X10022943Y-10431738D02*
X10032467Y-10422214D01*
X10032467Y-10422214D02*
X10051514Y-10412690D01*
X10051514Y-10412690D02*
X10070562Y-10412690D01*
X10137229Y-10546024D02*
X10137229Y-10412690D01*
X10137229Y-10346024D02*
X10127705Y-10355548D01*
X10127705Y-10355548D02*
X10137229Y-10365071D01*
X10137229Y-10365071D02*
X10146752Y-10355548D01*
X10146752Y-10355548D02*
X10137229Y-10346024D01*
X10137229Y-10346024D02*
X10137229Y-10365071D01*
X10261038Y-10546024D02*
X10241990Y-10536500D01*
X10241990Y-10536500D02*
X10232467Y-10517452D01*
X10232467Y-10517452D02*
X10232467Y-10346024D01*
X10365800Y-10546024D02*
X10346752Y-10536500D01*
X10346752Y-10536500D02*
X10337229Y-10517452D01*
X10337229Y-10517452D02*
X10337229Y-10346024D01*
X10594371Y-10546024D02*
X10594371Y-10346024D01*
X10594371Y-10346024D02*
X10661038Y-10488881D01*
X10661038Y-10488881D02*
X10727705Y-10346024D01*
X10727705Y-10346024D02*
X10727705Y-10546024D01*
X10908657Y-10546024D02*
X10908657Y-10441262D01*
X10908657Y-10441262D02*
X10899133Y-10422214D01*
X10899133Y-10422214D02*
X10880086Y-10412690D01*
X10880086Y-10412690D02*
X10841990Y-10412690D01*
X10841990Y-10412690D02*
X10822943Y-10422214D01*
X10908657Y-10536500D02*
X10889610Y-10546024D01*
X10889610Y-10546024D02*
X10841990Y-10546024D01*
X10841990Y-10546024D02*
X10822943Y-10536500D01*
X10822943Y-10536500D02*
X10813419Y-10517452D01*
X10813419Y-10517452D02*
X10813419Y-10498405D01*
X10813419Y-10498405D02*
X10822943Y-10479357D01*
X10822943Y-10479357D02*
X10841990Y-10469833D01*
X10841990Y-10469833D02*
X10889610Y-10469833D01*
X10889610Y-10469833D02*
X10908657Y-10460310D01*
X11003895Y-10412690D02*
X11003895Y-10612690D01*
X11003895Y-10422214D02*
X11022943Y-10412690D01*
X11022943Y-10412690D02*
X11061038Y-10412690D01*
X11061038Y-10412690D02*
X11080086Y-10422214D01*
X11080086Y-10422214D02*
X11089610Y-10431738D01*
X11089610Y-10431738D02*
X11099133Y-10450786D01*
X11099133Y-10450786D02*
X11099133Y-10507929D01*
X11099133Y-10507929D02*
X11089610Y-10526976D01*
X11089610Y-10526976D02*
X11080086Y-10536500D01*
X11080086Y-10536500D02*
X11061038Y-10546024D01*
X11061038Y-10546024D02*
X11022943Y-10546024D01*
X11022943Y-10546024D02*
X11003895Y-10536500D01*
X11184848Y-10526976D02*
X11194371Y-10536500D01*
X11194371Y-10536500D02*
X11184848Y-10546024D01*
X11184848Y-10546024D02*
X11175324Y-10536500D01*
X11175324Y-10536500D02*
X11184848Y-10526976D01*
X11184848Y-10526976D02*
X11184848Y-10546024D01*
X11184848Y-10422214D02*
X11194371Y-10431738D01*
X11194371Y-10431738D02*
X11184848Y-10441262D01*
X11184848Y-10441262D02*
X11175324Y-10431738D01*
X11175324Y-10431738D02*
X11184848Y-10422214D01*
X11184848Y-10422214D02*
X11184848Y-10441262D01*
D11*
X9465800Y-10823500D02*
X9565800Y-10923500D01*
X9565800Y-10823500D02*
X9465800Y-10923500D01*
D10*
X9918181Y-10966024D02*
X9803895Y-10966024D01*
X9861038Y-10966024D02*
X9861038Y-10766024D01*
X9861038Y-10766024D02*
X9841990Y-10794595D01*
X9841990Y-10794595D02*
X9822943Y-10813643D01*
X9822943Y-10813643D02*
X9803895Y-10823167D01*
X10003895Y-10946976D02*
X10013419Y-10956500D01*
X10013419Y-10956500D02*
X10003895Y-10966024D01*
X10003895Y-10966024D02*
X9994371Y-10956500D01*
X9994371Y-10956500D02*
X10003895Y-10946976D01*
X10003895Y-10946976D02*
X10003895Y-10966024D01*
X10137229Y-10766024D02*
X10156276Y-10766024D01*
X10156276Y-10766024D02*
X10175324Y-10775548D01*
X10175324Y-10775548D02*
X10184848Y-10785071D01*
X10184848Y-10785071D02*
X10194371Y-10804119D01*
X10194371Y-10804119D02*
X10203895Y-10842214D01*
X10203895Y-10842214D02*
X10203895Y-10889833D01*
X10203895Y-10889833D02*
X10194371Y-10927929D01*
X10194371Y-10927929D02*
X10184848Y-10946976D01*
X10184848Y-10946976D02*
X10175324Y-10956500D01*
X10175324Y-10956500D02*
X10156276Y-10966024D01*
X10156276Y-10966024D02*
X10137229Y-10966024D01*
X10137229Y-10966024D02*
X10118181Y-10956500D01*
X10118181Y-10956500D02*
X10108657Y-10946976D01*
X10108657Y-10946976D02*
X10099133Y-10927929D01*
X10099133Y-10927929D02*
X10089610Y-10889833D01*
X10089610Y-10889833D02*
X10089610Y-10842214D01*
X10089610Y-10842214D02*
X10099133Y-10804119D01*
X10099133Y-10804119D02*
X10108657Y-10785071D01*
X10108657Y-10785071D02*
X10118181Y-10775548D01*
X10118181Y-10775548D02*
X10137229Y-10766024D01*
X10327705Y-10766024D02*
X10346752Y-10766024D01*
X10346752Y-10766024D02*
X10365800Y-10775548D01*
X10365800Y-10775548D02*
X10375324Y-10785071D01*
X10375324Y-10785071D02*
X10384848Y-10804119D01*
X10384848Y-10804119D02*
X10394371Y-10842214D01*
X10394371Y-10842214D02*
X10394371Y-10889833D01*
X10394371Y-10889833D02*
X10384848Y-10927929D01*
X10384848Y-10927929D02*
X10375324Y-10946976D01*
X10375324Y-10946976D02*
X10365800Y-10956500D01*
X10365800Y-10956500D02*
X10346752Y-10966024D01*
X10346752Y-10966024D02*
X10327705Y-10966024D01*
X10327705Y-10966024D02*
X10308657Y-10956500D01*
X10308657Y-10956500D02*
X10299133Y-10946976D01*
X10299133Y-10946976D02*
X10289610Y-10927929D01*
X10289610Y-10927929D02*
X10280086Y-10889833D01*
X10280086Y-10889833D02*
X10280086Y-10842214D01*
X10280086Y-10842214D02*
X10289610Y-10804119D01*
X10289610Y-10804119D02*
X10299133Y-10785071D01*
X10299133Y-10785071D02*
X10308657Y-10775548D01*
X10308657Y-10775548D02*
X10327705Y-10766024D01*
X10518181Y-10766024D02*
X10537229Y-10766024D01*
X10537229Y-10766024D02*
X10556276Y-10775548D01*
X10556276Y-10775548D02*
X10565800Y-10785071D01*
X10565800Y-10785071D02*
X10575324Y-10804119D01*
X10575324Y-10804119D02*
X10584848Y-10842214D01*
X10584848Y-10842214D02*
X10584848Y-10889833D01*
X10584848Y-10889833D02*
X10575324Y-10927929D01*
X10575324Y-10927929D02*
X10565800Y-10946976D01*
X10565800Y-10946976D02*
X10556276Y-10956500D01*
X10556276Y-10956500D02*
X10537229Y-10966024D01*
X10537229Y-10966024D02*
X10518181Y-10966024D01*
X10518181Y-10966024D02*
X10499133Y-10956500D01*
X10499133Y-10956500D02*
X10489610Y-10946976D01*
X10489610Y-10946976D02*
X10480086Y-10927929D01*
X10480086Y-10927929D02*
X10470562Y-10889833D01*
X10470562Y-10889833D02*
X10470562Y-10842214D01*
X10470562Y-10842214D02*
X10480086Y-10804119D01*
X10480086Y-10804119D02*
X10489610Y-10785071D01*
X10489610Y-10785071D02*
X10499133Y-10775548D01*
X10499133Y-10775548D02*
X10518181Y-10766024D01*
X10670562Y-10966024D02*
X10670562Y-10832690D01*
X10670562Y-10851738D02*
X10680086Y-10842214D01*
X10680086Y-10842214D02*
X10699133Y-10832690D01*
X10699133Y-10832690D02*
X10727705Y-10832690D01*
X10727705Y-10832690D02*
X10746752Y-10842214D01*
X10746752Y-10842214D02*
X10756276Y-10861262D01*
X10756276Y-10861262D02*
X10756276Y-10966024D01*
X10756276Y-10861262D02*
X10765800Y-10842214D01*
X10765800Y-10842214D02*
X10784848Y-10832690D01*
X10784848Y-10832690D02*
X10813419Y-10832690D01*
X10813419Y-10832690D02*
X10832467Y-10842214D01*
X10832467Y-10842214D02*
X10841991Y-10861262D01*
X10841991Y-10861262D02*
X10841991Y-10966024D01*
X10937229Y-10966024D02*
X10937229Y-10832690D01*
X10937229Y-10851738D02*
X10946752Y-10842214D01*
X10946752Y-10842214D02*
X10965800Y-10832690D01*
X10965800Y-10832690D02*
X10994372Y-10832690D01*
X10994372Y-10832690D02*
X11013419Y-10842214D01*
X11013419Y-10842214D02*
X11022943Y-10861262D01*
X11022943Y-10861262D02*
X11022943Y-10966024D01*
X11022943Y-10861262D02*
X11032467Y-10842214D01*
X11032467Y-10842214D02*
X11051514Y-10832690D01*
X11051514Y-10832690D02*
X11080086Y-10832690D01*
X11080086Y-10832690D02*
X11099133Y-10842214D01*
X11099133Y-10842214D02*
X11108657Y-10861262D01*
X11108657Y-10861262D02*
X11108657Y-10966024D01*
X11499133Y-10756500D02*
X11327705Y-11013643D01*
X11756276Y-10766024D02*
X11775324Y-10766024D01*
X11775324Y-10766024D02*
X11794372Y-10775548D01*
X11794372Y-10775548D02*
X11803895Y-10785071D01*
X11803895Y-10785071D02*
X11813419Y-10804119D01*
X11813419Y-10804119D02*
X11822943Y-10842214D01*
X11822943Y-10842214D02*
X11822943Y-10889833D01*
X11822943Y-10889833D02*
X11813419Y-10927929D01*
X11813419Y-10927929D02*
X11803895Y-10946976D01*
X11803895Y-10946976D02*
X11794372Y-10956500D01*
X11794372Y-10956500D02*
X11775324Y-10966024D01*
X11775324Y-10966024D02*
X11756276Y-10966024D01*
X11756276Y-10966024D02*
X11737229Y-10956500D01*
X11737229Y-10956500D02*
X11727705Y-10946976D01*
X11727705Y-10946976D02*
X11718181Y-10927929D01*
X11718181Y-10927929D02*
X11708657Y-10889833D01*
X11708657Y-10889833D02*
X11708657Y-10842214D01*
X11708657Y-10842214D02*
X11718181Y-10804119D01*
X11718181Y-10804119D02*
X11727705Y-10785071D01*
X11727705Y-10785071D02*
X11737229Y-10775548D01*
X11737229Y-10775548D02*
X11756276Y-10766024D01*
X11908657Y-10946976D02*
X11918181Y-10956500D01*
X11918181Y-10956500D02*
X11908657Y-10966024D01*
X11908657Y-10966024D02*
X11899133Y-10956500D01*
X11899133Y-10956500D02*
X11908657Y-10946976D01*
X11908657Y-10946976D02*
X11908657Y-10966024D01*
X12041991Y-10766024D02*
X12061038Y-10766024D01*
X12061038Y-10766024D02*
X12080086Y-10775548D01*
X12080086Y-10775548D02*
X12089610Y-10785071D01*
X12089610Y-10785071D02*
X12099133Y-10804119D01*
X12099133Y-10804119D02*
X12108657Y-10842214D01*
X12108657Y-10842214D02*
X12108657Y-10889833D01*
X12108657Y-10889833D02*
X12099133Y-10927929D01*
X12099133Y-10927929D02*
X12089610Y-10946976D01*
X12089610Y-10946976D02*
X12080086Y-10956500D01*
X12080086Y-10956500D02*
X12061038Y-10966024D01*
X12061038Y-10966024D02*
X12041991Y-10966024D01*
X12041991Y-10966024D02*
X12022943Y-10956500D01*
X12022943Y-10956500D02*
X12013419Y-10946976D01*
X12013419Y-10946976D02*
X12003895Y-10927929D01*
X12003895Y-10927929D02*
X11994372Y-10889833D01*
X11994372Y-10889833D02*
X11994372Y-10842214D01*
X11994372Y-10842214D02*
X12003895Y-10804119D01*
X12003895Y-10804119D02*
X12013419Y-10785071D01*
X12013419Y-10785071D02*
X12022943Y-10775548D01*
X12022943Y-10775548D02*
X12041991Y-10766024D01*
X12175324Y-10766024D02*
X12299133Y-10766024D01*
X12299133Y-10766024D02*
X12232467Y-10842214D01*
X12232467Y-10842214D02*
X12261038Y-10842214D01*
X12261038Y-10842214D02*
X12280086Y-10851738D01*
X12280086Y-10851738D02*
X12289610Y-10861262D01*
X12289610Y-10861262D02*
X12299133Y-10880310D01*
X12299133Y-10880310D02*
X12299133Y-10927929D01*
X12299133Y-10927929D02*
X12289610Y-10946976D01*
X12289610Y-10946976D02*
X12280086Y-10956500D01*
X12280086Y-10956500D02*
X12261038Y-10966024D01*
X12261038Y-10966024D02*
X12203895Y-10966024D01*
X12203895Y-10966024D02*
X12184848Y-10956500D01*
X12184848Y-10956500D02*
X12175324Y-10946976D01*
X12394372Y-10966024D02*
X12432467Y-10966024D01*
X12432467Y-10966024D02*
X12451514Y-10956500D01*
X12451514Y-10956500D02*
X12461038Y-10946976D01*
X12461038Y-10946976D02*
X12480086Y-10918405D01*
X12480086Y-10918405D02*
X12489610Y-10880310D01*
X12489610Y-10880310D02*
X12489610Y-10804119D01*
X12489610Y-10804119D02*
X12480086Y-10785071D01*
X12480086Y-10785071D02*
X12470562Y-10775548D01*
X12470562Y-10775548D02*
X12451514Y-10766024D01*
X12451514Y-10766024D02*
X12413419Y-10766024D01*
X12413419Y-10766024D02*
X12394372Y-10775548D01*
X12394372Y-10775548D02*
X12384848Y-10785071D01*
X12384848Y-10785071D02*
X12375324Y-10804119D01*
X12375324Y-10804119D02*
X12375324Y-10851738D01*
X12375324Y-10851738D02*
X12384848Y-10870786D01*
X12384848Y-10870786D02*
X12394372Y-10880310D01*
X12394372Y-10880310D02*
X12413419Y-10889833D01*
X12413419Y-10889833D02*
X12451514Y-10889833D01*
X12451514Y-10889833D02*
X12470562Y-10880310D01*
X12470562Y-10880310D02*
X12480086Y-10870786D01*
X12480086Y-10870786D02*
X12489610Y-10851738D01*
X12661038Y-10832690D02*
X12661038Y-10966024D01*
X12613419Y-10756500D02*
X12565800Y-10899357D01*
X12565800Y-10899357D02*
X12689610Y-10899357D01*
X12756276Y-10766024D02*
X12756276Y-10804119D01*
X12832467Y-10766024D02*
X12832467Y-10804119D01*
X13127705Y-11042214D02*
X13118181Y-11032690D01*
X13118181Y-11032690D02*
X13099134Y-11004119D01*
X13099134Y-11004119D02*
X13089610Y-10985071D01*
X13089610Y-10985071D02*
X13080086Y-10956500D01*
X13080086Y-10956500D02*
X13070562Y-10908881D01*
X13070562Y-10908881D02*
X13070562Y-10870786D01*
X13070562Y-10870786D02*
X13080086Y-10823167D01*
X13080086Y-10823167D02*
X13089610Y-10794595D01*
X13089610Y-10794595D02*
X13099134Y-10775548D01*
X13099134Y-10775548D02*
X13118181Y-10746976D01*
X13118181Y-10746976D02*
X13127705Y-10737452D01*
X13289610Y-10832690D02*
X13289610Y-10966024D01*
X13241991Y-10756500D02*
X13194372Y-10899357D01*
X13194372Y-10899357D02*
X13318181Y-10899357D01*
X13546753Y-10966024D02*
X13546753Y-10766024D01*
X13632467Y-10966024D02*
X13632467Y-10861262D01*
X13632467Y-10861262D02*
X13622943Y-10842214D01*
X13622943Y-10842214D02*
X13603896Y-10832690D01*
X13603896Y-10832690D02*
X13575324Y-10832690D01*
X13575324Y-10832690D02*
X13556276Y-10842214D01*
X13556276Y-10842214D02*
X13546753Y-10851738D01*
X13756276Y-10966024D02*
X13737229Y-10956500D01*
X13737229Y-10956500D02*
X13727705Y-10946976D01*
X13727705Y-10946976D02*
X13718181Y-10927929D01*
X13718181Y-10927929D02*
X13718181Y-10870786D01*
X13718181Y-10870786D02*
X13727705Y-10851738D01*
X13727705Y-10851738D02*
X13737229Y-10842214D01*
X13737229Y-10842214D02*
X13756276Y-10832690D01*
X13756276Y-10832690D02*
X13784848Y-10832690D01*
X13784848Y-10832690D02*
X13803896Y-10842214D01*
X13803896Y-10842214D02*
X13813419Y-10851738D01*
X13813419Y-10851738D02*
X13822943Y-10870786D01*
X13822943Y-10870786D02*
X13822943Y-10927929D01*
X13822943Y-10927929D02*
X13813419Y-10946976D01*
X13813419Y-10946976D02*
X13803896Y-10956500D01*
X13803896Y-10956500D02*
X13784848Y-10966024D01*
X13784848Y-10966024D02*
X13756276Y-10966024D01*
X13937229Y-10966024D02*
X13918181Y-10956500D01*
X13918181Y-10956500D02*
X13908657Y-10937452D01*
X13908657Y-10937452D02*
X13908657Y-10766024D01*
X14089610Y-10956500D02*
X14070562Y-10966024D01*
X14070562Y-10966024D02*
X14032467Y-10966024D01*
X14032467Y-10966024D02*
X14013419Y-10956500D01*
X14013419Y-10956500D02*
X14003896Y-10937452D01*
X14003896Y-10937452D02*
X14003896Y-10861262D01*
X14003896Y-10861262D02*
X14013419Y-10842214D01*
X14013419Y-10842214D02*
X14032467Y-10832690D01*
X14032467Y-10832690D02*
X14070562Y-10832690D01*
X14070562Y-10832690D02*
X14089610Y-10842214D01*
X14089610Y-10842214D02*
X14099134Y-10861262D01*
X14099134Y-10861262D02*
X14099134Y-10880310D01*
X14099134Y-10880310D02*
X14003896Y-10899357D01*
X14175324Y-10956500D02*
X14194372Y-10966024D01*
X14194372Y-10966024D02*
X14232467Y-10966024D01*
X14232467Y-10966024D02*
X14251515Y-10956500D01*
X14251515Y-10956500D02*
X14261038Y-10937452D01*
X14261038Y-10937452D02*
X14261038Y-10927929D01*
X14261038Y-10927929D02*
X14251515Y-10908881D01*
X14251515Y-10908881D02*
X14232467Y-10899357D01*
X14232467Y-10899357D02*
X14203896Y-10899357D01*
X14203896Y-10899357D02*
X14184848Y-10889833D01*
X14184848Y-10889833D02*
X14175324Y-10870786D01*
X14175324Y-10870786D02*
X14175324Y-10861262D01*
X14175324Y-10861262D02*
X14184848Y-10842214D01*
X14184848Y-10842214D02*
X14203896Y-10832690D01*
X14203896Y-10832690D02*
X14232467Y-10832690D01*
X14232467Y-10832690D02*
X14251515Y-10842214D01*
X14327705Y-11042214D02*
X14337229Y-11032690D01*
X14337229Y-11032690D02*
X14356277Y-11004119D01*
X14356277Y-11004119D02*
X14365800Y-10985071D01*
X14365800Y-10985071D02*
X14375324Y-10956500D01*
X14375324Y-10956500D02*
X14384848Y-10908881D01*
X14384848Y-10908881D02*
X14384848Y-10870786D01*
X14384848Y-10870786D02*
X14375324Y-10823167D01*
X14375324Y-10823167D02*
X14365800Y-10794595D01*
X14365800Y-10794595D02*
X14356277Y-10775548D01*
X14356277Y-10775548D02*
X14337229Y-10746976D01*
X14337229Y-10746976D02*
X14327705Y-10737452D01*
M02*
