%TF.GenerationSoftware,KiCad,Pcbnew,7.0.2*%
%TF.CreationDate,2023-09-14T18:59:28-07:00*%
%TF.ProjectId,RGB,5247422e-6b69-4636-9164-5f7063625858,rev?*%
%TF.SameCoordinates,Original*%
%TF.FileFunction,Drillmap*%
%TF.FilePolarity,Positive*%
%FSLAX45Y45*%
G04 Gerber Fmt 4.5, Leading zero omitted, Abs format (unit mm)*
G04 Created by KiCad (PCBNEW 7.0.2) date 2023-09-14 18:59:28*
%MOMM*%
%LPD*%
G01*
G04 APERTURE LIST*
%ADD10C,0.200000*%
G04 APERTURE END LIST*
D10*
X9575800Y-8267700D02*
X13119100Y-8267700D01*
X13119100Y-10223500D01*
X9575800Y-10223500D01*
X9575800Y-8267700D01*
X9813419Y-10546024D02*
X9813419Y-10346024D01*
X9813419Y-10346024D02*
X9861038Y-10346024D01*
X9861038Y-10346024D02*
X9889610Y-10355548D01*
X9889610Y-10355548D02*
X9908657Y-10374595D01*
X9908657Y-10374595D02*
X9918181Y-10393643D01*
X9918181Y-10393643D02*
X9927705Y-10431738D01*
X9927705Y-10431738D02*
X9927705Y-10460310D01*
X9927705Y-10460310D02*
X9918181Y-10498405D01*
X9918181Y-10498405D02*
X9908657Y-10517452D01*
X9908657Y-10517452D02*
X9889610Y-10536500D01*
X9889610Y-10536500D02*
X9861038Y-10546024D01*
X9861038Y-10546024D02*
X9813419Y-10546024D01*
X10013419Y-10546024D02*
X10013419Y-10412690D01*
X10013419Y-10450786D02*
X10022943Y-10431738D01*
X10022943Y-10431738D02*
X10032467Y-10422214D01*
X10032467Y-10422214D02*
X10051514Y-10412690D01*
X10051514Y-10412690D02*
X10070562Y-10412690D01*
X10137229Y-10546024D02*
X10137229Y-10412690D01*
X10137229Y-10346024D02*
X10127705Y-10355548D01*
X10127705Y-10355548D02*
X10137229Y-10365071D01*
X10137229Y-10365071D02*
X10146752Y-10355548D01*
X10146752Y-10355548D02*
X10137229Y-10346024D01*
X10137229Y-10346024D02*
X10137229Y-10365071D01*
X10261038Y-10546024D02*
X10241990Y-10536500D01*
X10241990Y-10536500D02*
X10232467Y-10517452D01*
X10232467Y-10517452D02*
X10232467Y-10346024D01*
X10365800Y-10546024D02*
X10346752Y-10536500D01*
X10346752Y-10536500D02*
X10337229Y-10517452D01*
X10337229Y-10517452D02*
X10337229Y-10346024D01*
X10594371Y-10546024D02*
X10594371Y-10346024D01*
X10594371Y-10346024D02*
X10661038Y-10488881D01*
X10661038Y-10488881D02*
X10727705Y-10346024D01*
X10727705Y-10346024D02*
X10727705Y-10546024D01*
X10908657Y-10546024D02*
X10908657Y-10441262D01*
X10908657Y-10441262D02*
X10899133Y-10422214D01*
X10899133Y-10422214D02*
X10880086Y-10412690D01*
X10880086Y-10412690D02*
X10841990Y-10412690D01*
X10841990Y-10412690D02*
X10822943Y-10422214D01*
X10908657Y-10536500D02*
X10889610Y-10546024D01*
X10889610Y-10546024D02*
X10841990Y-10546024D01*
X10841990Y-10546024D02*
X10822943Y-10536500D01*
X10822943Y-10536500D02*
X10813419Y-10517452D01*
X10813419Y-10517452D02*
X10813419Y-10498405D01*
X10813419Y-10498405D02*
X10822943Y-10479357D01*
X10822943Y-10479357D02*
X10841990Y-10469833D01*
X10841990Y-10469833D02*
X10889610Y-10469833D01*
X10889610Y-10469833D02*
X10908657Y-10460310D01*
X11003895Y-10412690D02*
X11003895Y-10612690D01*
X11003895Y-10422214D02*
X11022943Y-10412690D01*
X11022943Y-10412690D02*
X11061038Y-10412690D01*
X11061038Y-10412690D02*
X11080086Y-10422214D01*
X11080086Y-10422214D02*
X11089610Y-10431738D01*
X11089610Y-10431738D02*
X11099133Y-10450786D01*
X11099133Y-10450786D02*
X11099133Y-10507929D01*
X11099133Y-10507929D02*
X11089610Y-10526976D01*
X11089610Y-10526976D02*
X11080086Y-10536500D01*
X11080086Y-10536500D02*
X11061038Y-10546024D01*
X11061038Y-10546024D02*
X11022943Y-10546024D01*
X11022943Y-10546024D02*
X11003895Y-10536500D01*
X11184848Y-10526976D02*
X11194371Y-10536500D01*
X11194371Y-10536500D02*
X11184848Y-10546024D01*
X11184848Y-10546024D02*
X11175324Y-10536500D01*
X11175324Y-10536500D02*
X11184848Y-10526976D01*
X11184848Y-10526976D02*
X11184848Y-10546024D01*
X11184848Y-10422214D02*
X11194371Y-10431738D01*
X11194371Y-10431738D02*
X11184848Y-10441262D01*
X11184848Y-10441262D02*
X11175324Y-10431738D01*
X11175324Y-10431738D02*
X11184848Y-10422214D01*
X11184848Y-10422214D02*
X11184848Y-10441262D01*
M02*
