%TF.GenerationSoftware,KiCad,Pcbnew,7.0.1*%
%TF.CreationDate,2023-08-29T01:03:56-07:00*%
%TF.ProjectId,Current Sense Standalone,43757272-656e-4742-9053-656e73652053,rev?*%
%TF.SameCoordinates,Original*%
%TF.FileFunction,Copper,L1,Top*%
%TF.FilePolarity,Positive*%
%FSLAX46Y46*%
G04 Gerber Fmt 4.6, Leading zero omitted, Abs format (unit mm)*
G04 Created by KiCad (PCBNEW 7.0.1) date 2023-08-29 01:03:56*
%MOMM*%
%LPD*%
G01*
G04 APERTURE LIST*
G04 Aperture macros list*
%AMRoundRect*
0 Rectangle with rounded corners*
0 $1 Rounding radius*
0 $2 $3 $4 $5 $6 $7 $8 $9 X,Y pos of 4 corners*
0 Add a 4 corners polygon primitive as box body*
4,1,4,$2,$3,$4,$5,$6,$7,$8,$9,$2,$3,0*
0 Add four circle primitives for the rounded corners*
1,1,$1+$1,$2,$3*
1,1,$1+$1,$4,$5*
1,1,$1+$1,$6,$7*
1,1,$1+$1,$8,$9*
0 Add four rect primitives between the rounded corners*
20,1,$1+$1,$2,$3,$4,$5,0*
20,1,$1+$1,$4,$5,$6,$7,0*
20,1,$1+$1,$6,$7,$8,$9,0*
20,1,$1+$1,$8,$9,$2,$3,0*%
G04 Aperture macros list end*
%TA.AperFunction,ComponentPad*%
%ADD10RoundRect,1.500000X1.500000X-1.500000X1.500000X1.500000X-1.500000X1.500000X-1.500000X-1.500000X0*%
%TD*%
%TA.AperFunction,ComponentPad*%
%ADD11C,6.000000*%
%TD*%
%TA.AperFunction,SMDPad,CuDef*%
%ADD12RoundRect,0.250000X-0.325000X-0.650000X0.325000X-0.650000X0.325000X0.650000X-0.325000X0.650000X0*%
%TD*%
%TA.AperFunction,SMDPad,CuDef*%
%ADD13R,1.800000X1.600000*%
%TD*%
%TA.AperFunction,SMDPad,CuDef*%
%ADD14R,7.800000X4.000000*%
%TD*%
%TA.AperFunction,SMDPad,CuDef*%
%ADD15RoundRect,0.250000X-0.650000X0.325000X-0.650000X-0.325000X0.650000X-0.325000X0.650000X0.325000X0*%
%TD*%
%TA.AperFunction,ComponentPad*%
%ADD16R,1.700000X1.700000*%
%TD*%
%TA.AperFunction,ComponentPad*%
%ADD17O,1.700000X1.700000*%
%TD*%
%TA.AperFunction,SMDPad,CuDef*%
%ADD18R,1.473200X0.355600*%
%TD*%
%TA.AperFunction,Conductor*%
%ADD19C,4.000000*%
%TD*%
%TA.AperFunction,Conductor*%
%ADD20C,0.250000*%
%TD*%
%TA.AperFunction,Conductor*%
%ADD21C,1.000000*%
%TD*%
%TA.AperFunction,Conductor*%
%ADD22C,0.500000*%
%TD*%
%TA.AperFunction,Conductor*%
%ADD23C,2.000000*%
%TD*%
%TA.AperFunction,Conductor*%
%ADD24C,0.750000*%
%TD*%
G04 APERTURE END LIST*
D10*
X68344045Y-29210000D03*
D11*
X68344045Y-22010000D03*
D12*
X47801000Y-24384000D03*
X50751000Y-24384000D03*
D13*
X54453375Y-25140000D03*
X54453375Y-27940000D03*
D14*
X29629273Y-33018011D03*
X29629273Y-22018011D03*
D15*
X57404000Y-25195000D03*
X57404000Y-28145000D03*
D16*
X45720000Y-19812000D03*
D17*
X48260000Y-19812000D03*
D18*
X38608000Y-25400000D03*
X38608000Y-26049998D03*
X38608000Y-26700000D03*
X38608000Y-27349998D03*
X44450000Y-27349998D03*
X44450000Y-26700000D03*
X44450000Y-26049998D03*
X44450000Y-25400000D03*
D10*
X18650936Y-29210000D03*
D11*
X18650936Y-22010000D03*
D16*
X57150000Y-20320000D03*
D17*
X59690000Y-20320000D03*
D19*
X18650936Y-22010000D02*
X29621262Y-22010000D01*
X29621262Y-22010000D02*
X29629273Y-22018011D01*
D20*
X28279273Y-23368011D02*
X29629273Y-22018011D01*
X45720000Y-22303000D02*
X45720000Y-19812000D01*
X47801000Y-24384000D02*
X45720000Y-22303000D01*
X45466000Y-24384000D02*
X47801000Y-24384000D01*
X44450000Y-25400000D02*
X45466000Y-24384000D01*
X57942862Y-25195000D02*
X58208238Y-24929624D01*
X54718751Y-25195000D02*
X57942862Y-25195000D01*
X54453375Y-24929624D02*
X54718751Y-25195000D01*
D19*
X65693027Y-22010000D02*
X68344045Y-22010000D01*
X61520000Y-30936000D02*
X61520000Y-26183027D01*
X59436000Y-33020000D02*
X61520000Y-30936000D01*
X29631262Y-33020000D02*
X59436000Y-33020000D01*
X61520000Y-26183027D02*
X65693027Y-22010000D01*
D21*
X33052013Y-22018011D02*
X29629273Y-22018011D01*
X37084000Y-26049998D02*
X33052013Y-22018011D01*
D22*
X37084000Y-26049998D02*
X38100000Y-26049998D01*
D23*
X60812045Y-15748000D02*
X67074045Y-22010000D01*
D24*
X38608000Y-23368000D02*
X38608000Y-24384000D01*
D23*
X38608000Y-23368000D02*
X38608000Y-20320000D01*
X43180000Y-15748000D02*
X60812045Y-15748000D01*
X38608000Y-20320000D02*
X43180000Y-15748000D01*
D20*
X38608000Y-24384000D02*
X38608000Y-25400000D01*
X57150000Y-20320000D02*
X57150000Y-22443375D01*
X57150000Y-22443375D02*
X54663751Y-24929624D01*
X54663751Y-24929624D02*
X54453375Y-24929624D01*
X53340000Y-25400000D02*
X53982999Y-25400000D01*
X44450000Y-26700000D02*
X52040000Y-26700000D01*
X53982999Y-25400000D02*
X54453375Y-24929624D01*
X52040000Y-26700000D02*
X53340000Y-25400000D01*
X58363078Y-27724784D02*
X58358238Y-27729624D01*
X18650936Y-29210000D02*
X20510938Y-27349998D01*
X54663751Y-27729624D02*
X54043375Y-28350000D01*
X38100000Y-26049998D02*
X38608000Y-26049998D01*
X18650936Y-22010000D02*
X20008947Y-23368011D01*
X18650936Y-20130973D02*
X18650936Y-22010000D01*
D23*
X29629273Y-33018011D02*
X29631262Y-33020000D01*
%TA.AperFunction,Conductor*%
G36*
X74867500Y-12717113D02*
G01*
X74912887Y-12762500D01*
X74929500Y-12824500D01*
X74929500Y-36901978D01*
X74912887Y-36963978D01*
X74867500Y-37009365D01*
X74805500Y-37025978D01*
X12730653Y-37025978D01*
X12668653Y-37009365D01*
X12623266Y-36963978D01*
X12606653Y-36901978D01*
X12606653Y-27575667D01*
X43212900Y-27575667D01*
X43219309Y-27635281D01*
X43269604Y-27770129D01*
X43355854Y-27885344D01*
X43471069Y-27971594D01*
X43605917Y-28021889D01*
X43665527Y-28028298D01*
X45234472Y-28028297D01*
X45294083Y-28021889D01*
X45428931Y-27971594D01*
X45544146Y-27885344D01*
X45630396Y-27770129D01*
X45680691Y-27635281D01*
X45687100Y-27575671D01*
X45687099Y-27449499D01*
X45703712Y-27387501D01*
X45749099Y-27342113D01*
X45811099Y-27325500D01*
X51957256Y-27325500D01*
X51977762Y-27327764D01*
X51980665Y-27327672D01*
X51980667Y-27327673D01*
X52047872Y-27325561D01*
X52051768Y-27325500D01*
X52079349Y-27325500D01*
X52079350Y-27325500D01*
X52083319Y-27324998D01*
X52094965Y-27324080D01*
X52138627Y-27322709D01*
X52157859Y-27317120D01*
X52176918Y-27313174D01*
X52183196Y-27312381D01*
X52196792Y-27310664D01*
X52237407Y-27294582D01*
X52248444Y-27290803D01*
X52290390Y-27278618D01*
X52307629Y-27268422D01*
X52325102Y-27259862D01*
X52343732Y-27252486D01*
X52379064Y-27226814D01*
X52388830Y-27220400D01*
X52426418Y-27198171D01*
X52426417Y-27198171D01*
X52426420Y-27198170D01*
X52440585Y-27184004D01*
X52455373Y-27171373D01*
X52471587Y-27159594D01*
X52499438Y-27125926D01*
X52507279Y-27117309D01*
X53203529Y-26421059D01*
X53264850Y-26387576D01*
X53334541Y-26392560D01*
X53445889Y-26434090D01*
X53445892Y-26434091D01*
X53505502Y-26440500D01*
X55401247Y-26440499D01*
X55460858Y-26434091D01*
X55595706Y-26383796D01*
X55710921Y-26297546D01*
X55797171Y-26182331D01*
X55847466Y-26047483D01*
X55853875Y-25987873D01*
X55853875Y-25944500D01*
X55870488Y-25882500D01*
X55915875Y-25837113D01*
X55977875Y-25820500D01*
X55988362Y-25820500D01*
X56048794Y-25836223D01*
X56093901Y-25879404D01*
X56161288Y-25988657D01*
X56285342Y-26112711D01*
X56285344Y-26112712D01*
X56434666Y-26204814D01*
X56546016Y-26241712D01*
X56601202Y-26259999D01*
X56611702Y-26261071D01*
X56703991Y-26270500D01*
X58104008Y-26270499D01*
X58206797Y-26259999D01*
X58373334Y-26204814D01*
X58522656Y-26112712D01*
X58646712Y-25988656D01*
X58738814Y-25839334D01*
X58793999Y-25672797D01*
X58804500Y-25570009D01*
X58804499Y-25152403D01*
X58811939Y-25116480D01*
X58813675Y-25105520D01*
X58838398Y-24949428D01*
X58823525Y-24792091D01*
X58794102Y-24710364D01*
X58764867Y-24629159D01*
X58763830Y-24626160D01*
X58758641Y-24610500D01*
X58738814Y-24550666D01*
X58646712Y-24401344D01*
X58646711Y-24401342D01*
X58522657Y-24277288D01*
X58373334Y-24185186D01*
X58206797Y-24130000D01*
X58104009Y-24119500D01*
X56703988Y-24119500D01*
X56665891Y-24123392D01*
X56606170Y-24114731D01*
X56557609Y-24078906D01*
X56531710Y-24024401D01*
X56534605Y-23964124D01*
X56565609Y-23912355D01*
X57533789Y-22944175D01*
X57549885Y-22931281D01*
X57551873Y-22929162D01*
X57551877Y-22929161D01*
X57597948Y-22880098D01*
X57600566Y-22877398D01*
X57620120Y-22857846D01*
X57622581Y-22854673D01*
X57630156Y-22845802D01*
X57660062Y-22813957D01*
X57669712Y-22796402D01*
X57680400Y-22780132D01*
X57692673Y-22764311D01*
X57710026Y-22724207D01*
X57715157Y-22713737D01*
X57736197Y-22675467D01*
X57741175Y-22656074D01*
X57747481Y-22637657D01*
X57749018Y-22634103D01*
X57755438Y-22619271D01*
X57762272Y-22576120D01*
X57764635Y-22564706D01*
X57775500Y-22522394D01*
X57775500Y-22502359D01*
X57777027Y-22482960D01*
X57780160Y-22463179D01*
X57776050Y-22419700D01*
X57775500Y-22408031D01*
X57775500Y-21794499D01*
X57792113Y-21732499D01*
X57837500Y-21687112D01*
X57899500Y-21670499D01*
X58047870Y-21670499D01*
X58047872Y-21670499D01*
X58107483Y-21664091D01*
X58242331Y-21613796D01*
X58357546Y-21527546D01*
X58443796Y-21412331D01*
X58494091Y-21277483D01*
X58500500Y-21217873D01*
X58500499Y-19422128D01*
X58494091Y-19362517D01*
X58443796Y-19227669D01*
X58357546Y-19112454D01*
X58242331Y-19026204D01*
X58107483Y-18975909D01*
X58047873Y-18969500D01*
X58047869Y-18969500D01*
X56252130Y-18969500D01*
X56192515Y-18975909D01*
X56057669Y-19026204D01*
X55942454Y-19112454D01*
X55856204Y-19227668D01*
X55805909Y-19362515D01*
X55805909Y-19362517D01*
X55799588Y-19421314D01*
X55799500Y-19422130D01*
X55799500Y-21217869D01*
X55805909Y-21277484D01*
X55809272Y-21286500D01*
X55856204Y-21412331D01*
X55942454Y-21527546D01*
X56057669Y-21613796D01*
X56192517Y-21664091D01*
X56252127Y-21670500D01*
X56400500Y-21670500D01*
X56462500Y-21687113D01*
X56507887Y-21732500D01*
X56524500Y-21794500D01*
X56524500Y-22132923D01*
X56515061Y-22180376D01*
X56488181Y-22220603D01*
X56089513Y-22619271D01*
X54905602Y-23803181D01*
X54865374Y-23830061D01*
X54817921Y-23839500D01*
X53505505Y-23839500D01*
X53445890Y-23845909D01*
X53311044Y-23896204D01*
X53195829Y-23982454D01*
X53109579Y-24097668D01*
X53101436Y-24119500D01*
X53059284Y-24232517D01*
X53054471Y-24277288D01*
X53052875Y-24292131D01*
X53052875Y-24772266D01*
X53039335Y-24828610D01*
X53001671Y-24872649D01*
X53000845Y-24873248D01*
X52991174Y-24879595D01*
X52953580Y-24901829D01*
X52939413Y-24915996D01*
X52924624Y-24928626D01*
X52908413Y-24940404D01*
X52880572Y-24974058D01*
X52872711Y-24982697D01*
X51817228Y-26038181D01*
X51777000Y-26065061D01*
X51729547Y-26074500D01*
X45811100Y-26074500D01*
X45749100Y-26057887D01*
X45703713Y-26012501D01*
X45687100Y-25950501D01*
X45687099Y-25824328D01*
X45679663Y-25755153D01*
X45674222Y-25724997D01*
X45679663Y-25694837D01*
X45680689Y-25685285D01*
X45680691Y-25685283D01*
X45687100Y-25625673D01*
X45687099Y-25174328D01*
X45687099Y-25174327D01*
X45684135Y-25146752D01*
X45695889Y-25079317D01*
X45741633Y-25028394D01*
X45807425Y-25009500D01*
X46605911Y-25009500D01*
X46664232Y-25024071D01*
X46708846Y-25064360D01*
X46729269Y-25120898D01*
X46736000Y-25186796D01*
X46791186Y-25353334D01*
X46883288Y-25502657D01*
X47007342Y-25626711D01*
X47007344Y-25626712D01*
X47156666Y-25718814D01*
X47266330Y-25755153D01*
X47323202Y-25773999D01*
X47333702Y-25775071D01*
X47425991Y-25784500D01*
X48176008Y-25784499D01*
X48278797Y-25773999D01*
X48445334Y-25718814D01*
X48594656Y-25626712D01*
X48718712Y-25502656D01*
X48810814Y-25353334D01*
X48865999Y-25186797D01*
X48876500Y-25084009D01*
X48876499Y-23683992D01*
X48865999Y-23581203D01*
X48810814Y-23414666D01*
X48718712Y-23265344D01*
X48718711Y-23265342D01*
X48594657Y-23141288D01*
X48445334Y-23049186D01*
X48278797Y-22994000D01*
X48176009Y-22983500D01*
X47425991Y-22983500D01*
X47356768Y-22990572D01*
X47302604Y-22984041D01*
X47256486Y-22954895D01*
X46381819Y-22080228D01*
X46354939Y-22040000D01*
X46345500Y-21992547D01*
X46345500Y-21286499D01*
X46362113Y-21224499D01*
X46407500Y-21179112D01*
X46469500Y-21162499D01*
X46617870Y-21162499D01*
X46617872Y-21162499D01*
X46677483Y-21156091D01*
X46812331Y-21105796D01*
X46927546Y-21019546D01*
X47013796Y-20904331D01*
X47064091Y-20769483D01*
X47070500Y-20709873D01*
X47070499Y-18914128D01*
X47064091Y-18854517D01*
X47013796Y-18719669D01*
X46927546Y-18604454D01*
X46812331Y-18518204D01*
X46677483Y-18467909D01*
X46617873Y-18461500D01*
X46617869Y-18461500D01*
X44822130Y-18461500D01*
X44762515Y-18467909D01*
X44627669Y-18518204D01*
X44512454Y-18604454D01*
X44426204Y-18719668D01*
X44375909Y-18854516D01*
X44369500Y-18914130D01*
X44369500Y-20709869D01*
X44375909Y-20769483D01*
X44426204Y-20904331D01*
X44512454Y-21019546D01*
X44627669Y-21105796D01*
X44762517Y-21156091D01*
X44822127Y-21162500D01*
X44970500Y-21162500D01*
X45032500Y-21179113D01*
X45077887Y-21224500D01*
X45094500Y-21286500D01*
X45094500Y-22220256D01*
X45092235Y-22240762D01*
X45094439Y-22310873D01*
X45094500Y-22314768D01*
X45094500Y-22342349D01*
X45095003Y-22346334D01*
X45095918Y-22357967D01*
X45097290Y-22401626D01*
X45102879Y-22420860D01*
X45106825Y-22439916D01*
X45109335Y-22459792D01*
X45125414Y-22500404D01*
X45129197Y-22511451D01*
X45141382Y-22553391D01*
X45151580Y-22570635D01*
X45160136Y-22588100D01*
X45167514Y-22606732D01*
X45167515Y-22606733D01*
X45193180Y-22642059D01*
X45199593Y-22651822D01*
X45221826Y-22689416D01*
X45221829Y-22689419D01*
X45221830Y-22689420D01*
X45235995Y-22703585D01*
X45248627Y-22718375D01*
X45260406Y-22734587D01*
X45294058Y-22762426D01*
X45302699Y-22770289D01*
X46079229Y-23546819D01*
X46109479Y-23596182D01*
X46114021Y-23653898D01*
X46091866Y-23707385D01*
X46047843Y-23744985D01*
X45991548Y-23758500D01*
X45548744Y-23758500D01*
X45528237Y-23756235D01*
X45458127Y-23758439D01*
X45454232Y-23758500D01*
X45426650Y-23758500D01*
X45422665Y-23759003D01*
X45411033Y-23759918D01*
X45367369Y-23761290D01*
X45348129Y-23766880D01*
X45329081Y-23770825D01*
X45309209Y-23773335D01*
X45268599Y-23789413D01*
X45257554Y-23793194D01*
X45215610Y-23805381D01*
X45198365Y-23815579D01*
X45180904Y-23824133D01*
X45162267Y-23831512D01*
X45126931Y-23857185D01*
X45117174Y-23863595D01*
X45079580Y-23885829D01*
X45065413Y-23899996D01*
X45050624Y-23912626D01*
X45034413Y-23924404D01*
X45006572Y-23958058D01*
X44998711Y-23966697D01*
X44280026Y-24685381D01*
X44239798Y-24712261D01*
X44192345Y-24721700D01*
X43665530Y-24721700D01*
X43605915Y-24728109D01*
X43471069Y-24778404D01*
X43355854Y-24864654D01*
X43269604Y-24979868D01*
X43219309Y-25114716D01*
X43212900Y-25174330D01*
X43212900Y-25625669D01*
X43220335Y-25694830D01*
X43225777Y-25724996D01*
X43220336Y-25755161D01*
X43219308Y-25764715D01*
X43219309Y-25764715D01*
X43213312Y-25820500D01*
X43212900Y-25824328D01*
X43212900Y-26275666D01*
X43220335Y-26344824D01*
X43225778Y-26374996D01*
X43220333Y-26405182D01*
X43212900Y-26474321D01*
X43212900Y-26925669D01*
X43220335Y-26994830D01*
X43225777Y-27024996D01*
X43220336Y-27055161D01*
X43212900Y-27124328D01*
X43212900Y-27575667D01*
X12606653Y-27575667D01*
X12606653Y-22010000D01*
X15145632Y-22010000D01*
X15164833Y-22376406D01*
X15222229Y-22738788D01*
X15317194Y-23093200D01*
X15448680Y-23435735D01*
X15615256Y-23762656D01*
X15815082Y-24070363D01*
X15908064Y-24185186D01*
X16045987Y-24355506D01*
X16305430Y-24614949D01*
X16440538Y-24724357D01*
X16590572Y-24845853D01*
X16898279Y-25045679D01*
X16898284Y-25045682D01*
X17225200Y-25212255D01*
X17567737Y-25343742D01*
X17922142Y-25438705D01*
X17922145Y-25438705D01*
X17922147Y-25438706D01*
X18284529Y-25496102D01*
X18334309Y-25498710D01*
X18650936Y-25515304D01*
X18982581Y-25497923D01*
X19017342Y-25496102D01*
X19379724Y-25438706D01*
X19379724Y-25438705D01*
X19379730Y-25438705D01*
X19734135Y-25343742D01*
X20076672Y-25212255D01*
X20403588Y-25045682D01*
X20711302Y-24845851D01*
X20996442Y-24614949D01*
X21064571Y-24546819D01*
X21104800Y-24519939D01*
X21152253Y-24510500D01*
X25600247Y-24510500D01*
X25613503Y-24511211D01*
X25621789Y-24512101D01*
X25621790Y-24512102D01*
X25681400Y-24518511D01*
X29505500Y-24518510D01*
X29517169Y-24519059D01*
X29550575Y-24522218D01*
X29666620Y-24518570D01*
X29670515Y-24518510D01*
X33577143Y-24518510D01*
X33577145Y-24518510D01*
X33636756Y-24512102D01*
X33771604Y-24461807D01*
X33862467Y-24393786D01*
X33916210Y-24370772D01*
X33974530Y-24374943D01*
X34024455Y-24405373D01*
X36412420Y-26793339D01*
X36530592Y-26889695D01*
X36530593Y-26889696D01*
X36710952Y-26983908D01*
X36906580Y-27039885D01*
X36931734Y-27041800D01*
X37109477Y-27055335D01*
X37292607Y-27032012D01*
X37347295Y-27037319D01*
X37394323Y-27065736D01*
X37424452Y-27111682D01*
X37427604Y-27120131D01*
X37513854Y-27235346D01*
X37629069Y-27321596D01*
X37763917Y-27371891D01*
X37823527Y-27378300D01*
X39392472Y-27378299D01*
X39452083Y-27371891D01*
X39586931Y-27321596D01*
X39702146Y-27235346D01*
X39788396Y-27120131D01*
X39838691Y-26985283D01*
X39845100Y-26925673D01*
X39845099Y-26474328D01*
X39838691Y-26414717D01*
X39838690Y-26414715D01*
X39837663Y-26405158D01*
X39832221Y-26374997D01*
X39837663Y-26344839D01*
X39838690Y-26335282D01*
X39838691Y-26335281D01*
X39845100Y-26275671D01*
X39845099Y-25824326D01*
X39838691Y-25764715D01*
X39838690Y-25764714D01*
X39837663Y-25755153D01*
X39832222Y-25724997D01*
X39837663Y-25694837D01*
X39838689Y-25685285D01*
X39838691Y-25685283D01*
X39845100Y-25625673D01*
X39845099Y-25174328D01*
X39838691Y-25114717D01*
X39788396Y-24979869D01*
X39702146Y-24864654D01*
X39586931Y-24778404D01*
X39559730Y-24768258D01*
X39506881Y-24730337D01*
X39480499Y-24670877D01*
X39487848Y-24606244D01*
X39526902Y-24554225D01*
X39627744Y-24475738D01*
X39796164Y-24292785D01*
X39932173Y-24084607D01*
X40032063Y-23856881D01*
X40093108Y-23615821D01*
X40100104Y-23531387D01*
X40108500Y-23430073D01*
X40108500Y-20992890D01*
X40117939Y-20945437D01*
X40144819Y-20905209D01*
X43765208Y-17284819D01*
X43805436Y-17257939D01*
X43852889Y-17248500D01*
X60139155Y-17248500D01*
X60186608Y-17257939D01*
X60226836Y-17284819D01*
X63466720Y-20524703D01*
X63498814Y-20580290D01*
X63498814Y-20644478D01*
X63466720Y-20700065D01*
X59781036Y-24385748D01*
X59778240Y-24388458D01*
X59693613Y-24467929D01*
X59693610Y-24467933D01*
X59619589Y-24557407D01*
X59617088Y-24560335D01*
X59540312Y-24647420D01*
X59521448Y-24675176D01*
X59514439Y-24684511D01*
X59493050Y-24710366D01*
X59430853Y-24808373D01*
X59428716Y-24811627D01*
X59363457Y-24907653D01*
X59348227Y-24937545D01*
X59342443Y-24947685D01*
X59334592Y-24960059D01*
X59324459Y-24976026D01*
X59275041Y-25081045D01*
X59273328Y-25084542D01*
X59220616Y-25187996D01*
X59209246Y-25219574D01*
X59204780Y-25230357D01*
X59190495Y-25260715D01*
X59154614Y-25371142D01*
X59153353Y-25374825D01*
X59114037Y-25484030D01*
X59106720Y-25516765D01*
X59103639Y-25528029D01*
X59093268Y-25559949D01*
X59071511Y-25673996D01*
X59070722Y-25677807D01*
X59045401Y-25791090D01*
X59042242Y-25824500D01*
X59040598Y-25836055D01*
X59034311Y-25869015D01*
X59027022Y-25984873D01*
X59026717Y-25988754D01*
X59015793Y-26104329D01*
X59019439Y-26220358D01*
X59019500Y-26224253D01*
X59019500Y-29848897D01*
X59010061Y-29896350D01*
X58983181Y-29936578D01*
X58436578Y-30483181D01*
X58396350Y-30510061D01*
X58348897Y-30519500D01*
X33602289Y-30519500D01*
X33589034Y-30518789D01*
X33577146Y-30517511D01*
X25681403Y-30517511D01*
X25621788Y-30523920D01*
X25486942Y-30574215D01*
X25371727Y-30660465D01*
X25285477Y-30775679D01*
X25235182Y-30910527D01*
X25228773Y-30970141D01*
X25228773Y-35065880D01*
X25233424Y-35109140D01*
X25235182Y-35125494D01*
X25285477Y-35260342D01*
X25371727Y-35375557D01*
X25486942Y-35461807D01*
X25621790Y-35512102D01*
X25681400Y-35518511D01*
X29517160Y-35518510D01*
X29524948Y-35518755D01*
X29552676Y-35520500D01*
X29552679Y-35520500D01*
X59394774Y-35520500D01*
X59398669Y-35520561D01*
X59514698Y-35524207D01*
X59630292Y-35513279D01*
X59634151Y-35512976D01*
X59750015Y-35505688D01*
X59782967Y-35499401D01*
X59794535Y-35497755D01*
X59796847Y-35497536D01*
X59827938Y-35494598D01*
X59878770Y-35483235D01*
X59941234Y-35469273D01*
X59945028Y-35468486D01*
X60059079Y-35446731D01*
X60090993Y-35436360D01*
X60102255Y-35433279D01*
X60134996Y-35425962D01*
X60244285Y-35386614D01*
X60247817Y-35385404D01*
X60358315Y-35349503D01*
X60388687Y-35335210D01*
X60399452Y-35330751D01*
X60431032Y-35319383D01*
X60534507Y-35266658D01*
X60537929Y-35264981D01*
X60643007Y-35215537D01*
X60671334Y-35197558D01*
X60681469Y-35191777D01*
X60711375Y-35176541D01*
X60807403Y-35111280D01*
X60810661Y-35109140D01*
X60908663Y-35046947D01*
X60934518Y-35025556D01*
X60943837Y-35018558D01*
X60971605Y-34999689D01*
X61058700Y-34922902D01*
X61061626Y-34920402D01*
X61151094Y-34846390D01*
X61230597Y-34761726D01*
X61233248Y-34758991D01*
X63258991Y-32733248D01*
X63261726Y-32730597D01*
X63346390Y-32651094D01*
X63420402Y-32561626D01*
X63422903Y-32558700D01*
X63499689Y-32471605D01*
X63518558Y-32443837D01*
X63525556Y-32434518D01*
X63546947Y-32408663D01*
X63609142Y-32310657D01*
X63611280Y-32307403D01*
X63676538Y-32211379D01*
X63676541Y-32211375D01*
X63691777Y-32181469D01*
X63697558Y-32171334D01*
X63715537Y-32143007D01*
X63764981Y-32037929D01*
X63766658Y-32034507D01*
X63819383Y-31931032D01*
X63830751Y-31899452D01*
X63835210Y-31888687D01*
X63849503Y-31858315D01*
X63885404Y-31747817D01*
X63886614Y-31744285D01*
X63925962Y-31634996D01*
X63933279Y-31602255D01*
X63936360Y-31590993D01*
X63946731Y-31559079D01*
X63968486Y-31445028D01*
X63969273Y-31441234D01*
X63994597Y-31327941D01*
X63994598Y-31327938D01*
X63997755Y-31294535D01*
X63999402Y-31282964D01*
X64005688Y-31250015D01*
X64012976Y-31134151D01*
X64013281Y-31130279D01*
X64024207Y-31014698D01*
X64020561Y-30898669D01*
X64020500Y-30894774D01*
X64020500Y-27270130D01*
X64029939Y-27222677D01*
X64056819Y-27182449D01*
X64445933Y-26793335D01*
X66279209Y-24960057D01*
X66326518Y-24930496D01*
X66382000Y-24924664D01*
X66434422Y-24943744D01*
X66459544Y-24960059D01*
X66591389Y-25045680D01*
X66843877Y-25174330D01*
X66918309Y-25212255D01*
X67260846Y-25343742D01*
X67615251Y-25438705D01*
X67615254Y-25438705D01*
X67615256Y-25438706D01*
X67977638Y-25496102D01*
X68029779Y-25498834D01*
X68344045Y-25515304D01*
X68677264Y-25497841D01*
X68710451Y-25496102D01*
X69072833Y-25438706D01*
X69072833Y-25438705D01*
X69072839Y-25438705D01*
X69427244Y-25343742D01*
X69769781Y-25212255D01*
X70096697Y-25045682D01*
X70404411Y-24845851D01*
X70689551Y-24614949D01*
X70948994Y-24355506D01*
X71179896Y-24070366D01*
X71379727Y-23762652D01*
X71546300Y-23435736D01*
X71677787Y-23093199D01*
X71772750Y-22738794D01*
X71788769Y-22637657D01*
X71830147Y-22376406D01*
X71833377Y-22314768D01*
X71849349Y-22010000D01*
X71830147Y-21643596D01*
X71825961Y-21617169D01*
X71772751Y-21281211D01*
X71772750Y-21281206D01*
X71677787Y-20926801D01*
X71546300Y-20584264D01*
X71379727Y-20257348D01*
X71360025Y-20227009D01*
X71179898Y-19949636D01*
X71083924Y-19831119D01*
X70948994Y-19664494D01*
X70689551Y-19405051D01*
X70470503Y-19227669D01*
X70404408Y-19174146D01*
X70096701Y-18974320D01*
X69769780Y-18807744D01*
X69427245Y-18676258D01*
X69072833Y-18581293D01*
X68710451Y-18523897D01*
X68360637Y-18505565D01*
X68344045Y-18504696D01*
X68344044Y-18504696D01*
X67977638Y-18523897D01*
X67615256Y-18581293D01*
X67260844Y-18676258D01*
X66918309Y-18807744D01*
X66591388Y-18974320D01*
X66414298Y-19089323D01*
X66361874Y-19108404D01*
X66306392Y-19102572D01*
X66259082Y-19073009D01*
X61944380Y-14758307D01*
X61934207Y-14746787D01*
X61919785Y-14728258D01*
X61852998Y-14666776D01*
X61849300Y-14663227D01*
X61829168Y-14643095D01*
X61807433Y-14624686D01*
X61803592Y-14621294D01*
X61736832Y-14559837D01*
X61717170Y-14546991D01*
X61704856Y-14537808D01*
X61686939Y-14522634D01*
X61608935Y-14476153D01*
X61604654Y-14473481D01*
X61528654Y-14423828D01*
X61528648Y-14423824D01*
X61507152Y-14414395D01*
X61493493Y-14407364D01*
X61473320Y-14395344D01*
X61420998Y-14374928D01*
X61388762Y-14362349D01*
X61384049Y-14360397D01*
X61356377Y-14348260D01*
X61300925Y-14323936D01*
X61278159Y-14318171D01*
X61263530Y-14313484D01*
X61241659Y-14304950D01*
X61152838Y-14286325D01*
X61147848Y-14285171D01*
X61059864Y-14262891D01*
X61036466Y-14260952D01*
X61021268Y-14258738D01*
X60998282Y-14253919D01*
X60976533Y-14253019D01*
X60907604Y-14250168D01*
X60902493Y-14249851D01*
X60879053Y-14247909D01*
X60874112Y-14247500D01*
X60874111Y-14247500D01*
X60845641Y-14247500D01*
X60840518Y-14247394D01*
X60836746Y-14247238D01*
X60749825Y-14243642D01*
X60726518Y-14246548D01*
X60711180Y-14247500D01*
X43280864Y-14247500D01*
X43265526Y-14246548D01*
X43242219Y-14243642D01*
X43151536Y-14247394D01*
X43146411Y-14247500D01*
X43117933Y-14247500D01*
X43112328Y-14247964D01*
X43089537Y-14249852D01*
X43084428Y-14250169D01*
X42993761Y-14253920D01*
X42970781Y-14258738D01*
X42955581Y-14260952D01*
X42932180Y-14262891D01*
X42844191Y-14285172D01*
X42839202Y-14286326D01*
X42750389Y-14304950D01*
X42750386Y-14304950D01*
X42750386Y-14304951D01*
X42728512Y-14313485D01*
X42713889Y-14318170D01*
X42691118Y-14323936D01*
X42608008Y-14360392D01*
X42603275Y-14362353D01*
X42518722Y-14395346D01*
X42498546Y-14407367D01*
X42484901Y-14414391D01*
X42463391Y-14423828D01*
X42387407Y-14473469D01*
X42383062Y-14476182D01*
X42305102Y-14522635D01*
X42287182Y-14537813D01*
X42274869Y-14546994D01*
X42255214Y-14559835D01*
X42188446Y-14621300D01*
X42184609Y-14624689D01*
X42162878Y-14643095D01*
X42142751Y-14663221D01*
X42139057Y-14666764D01*
X42072261Y-14728255D01*
X42057832Y-14746793D01*
X42047663Y-14758308D01*
X37618306Y-19187664D01*
X37606793Y-19197832D01*
X37588254Y-19212262D01*
X37526775Y-19279045D01*
X37523232Y-19282739D01*
X37503093Y-19302878D01*
X37484687Y-19324610D01*
X37481299Y-19328447D01*
X37419833Y-19395218D01*
X37406995Y-19414868D01*
X37397813Y-19427183D01*
X37382636Y-19445102D01*
X37336174Y-19523074D01*
X37333462Y-19527417D01*
X37283826Y-19603392D01*
X37274396Y-19624891D01*
X37267368Y-19638545D01*
X37255343Y-19658726D01*
X37222346Y-19743288D01*
X37220386Y-19748020D01*
X37183936Y-19831120D01*
X37178169Y-19853890D01*
X37173484Y-19868515D01*
X37164951Y-19890385D01*
X37146324Y-19979211D01*
X37145170Y-19984200D01*
X37122891Y-20072180D01*
X37120952Y-20095578D01*
X37118738Y-20110777D01*
X37113919Y-20133762D01*
X37110168Y-20224440D01*
X37109851Y-20229550D01*
X37107549Y-20257348D01*
X37107500Y-20257934D01*
X37107500Y-20286404D01*
X37107394Y-20291529D01*
X37103642Y-20382219D01*
X37106548Y-20405527D01*
X37107500Y-20420865D01*
X37107500Y-23430073D01*
X37122891Y-23615816D01*
X37122891Y-23615819D01*
X37122892Y-23615821D01*
X37183937Y-23856881D01*
X37213556Y-23924406D01*
X37283825Y-24084604D01*
X37283827Y-24084607D01*
X37419836Y-24292785D01*
X37588256Y-24475738D01*
X37689096Y-24554226D01*
X37728151Y-24606244D01*
X37735500Y-24670877D01*
X37709118Y-24730336D01*
X37656267Y-24768259D01*
X37629071Y-24778402D01*
X37499582Y-24875338D01*
X37499576Y-24875331D01*
X37457936Y-24906502D01*
X37388245Y-24911486D01*
X37326923Y-24878001D01*
X34066091Y-21617169D01*
X34039211Y-21576941D01*
X34029772Y-21529488D01*
X34029772Y-19970141D01*
X34027568Y-19949636D01*
X34023364Y-19910528D01*
X33973069Y-19775680D01*
X33886819Y-19660465D01*
X33771604Y-19574215D01*
X33636756Y-19523920D01*
X33577146Y-19517511D01*
X33577142Y-19517511D01*
X29831077Y-19517511D01*
X29823300Y-19517266D01*
X29819384Y-19517020D01*
X29815536Y-19516717D01*
X29725625Y-19508218D01*
X29699960Y-19505793D01*
X29699959Y-19505793D01*
X29583931Y-19509439D01*
X29580036Y-19509500D01*
X21152253Y-19509500D01*
X21104800Y-19500061D01*
X21064572Y-19473181D01*
X20996445Y-19405054D01*
X20996442Y-19405051D01*
X20777394Y-19227669D01*
X20711299Y-19174146D01*
X20403592Y-18974320D01*
X20076671Y-18807744D01*
X19734136Y-18676258D01*
X19379724Y-18581293D01*
X19017342Y-18523897D01*
X18667528Y-18505565D01*
X18650936Y-18504696D01*
X18650935Y-18504696D01*
X18284529Y-18523897D01*
X17922147Y-18581293D01*
X17567735Y-18676258D01*
X17225200Y-18807744D01*
X16898279Y-18974320D01*
X16590572Y-19174146D01*
X16305426Y-19405054D01*
X16045990Y-19664490D01*
X15815082Y-19949636D01*
X15615256Y-20257343D01*
X15448680Y-20584264D01*
X15317194Y-20926799D01*
X15222229Y-21281211D01*
X15164833Y-21643593D01*
X15145632Y-22010000D01*
X12606653Y-22010000D01*
X12606653Y-12824500D01*
X12623266Y-12762500D01*
X12668653Y-12717113D01*
X12730653Y-12700500D01*
X74805500Y-12700500D01*
X74867500Y-12717113D01*
G37*
%TD.AperFunction*%
M02*
