%TF.GenerationSoftware,KiCad,Pcbnew,7.0.1*%
%TF.CreationDate,2023-08-29T01:03:56-07:00*%
%TF.ProjectId,Current Sense Standalone,43757272-656e-4742-9053-656e73652053,rev?*%
%TF.SameCoordinates,Original*%
%TF.FileFunction,Legend,Top*%
%TF.FilePolarity,Positive*%
%FSLAX46Y46*%
G04 Gerber Fmt 4.6, Leading zero omitted, Abs format (unit mm)*
G04 Created by KiCad (PCBNEW 7.0.1) date 2023-08-29 01:03:56*
%MOMM*%
%LPD*%
G01*
G04 APERTURE LIST*
G04 Aperture macros list*
%AMRoundRect*
0 Rectangle with rounded corners*
0 $1 Rounding radius*
0 $2 $3 $4 $5 $6 $7 $8 $9 X,Y pos of 4 corners*
0 Add a 4 corners polygon primitive as box body*
4,1,4,$2,$3,$4,$5,$6,$7,$8,$9,$2,$3,0*
0 Add four circle primitives for the rounded corners*
1,1,$1+$1,$2,$3*
1,1,$1+$1,$4,$5*
1,1,$1+$1,$6,$7*
1,1,$1+$1,$8,$9*
0 Add four rect primitives between the rounded corners*
20,1,$1+$1,$2,$3,$4,$5,0*
20,1,$1+$1,$4,$5,$6,$7,0*
20,1,$1+$1,$6,$7,$8,$9,0*
20,1,$1+$1,$8,$9,$2,$3,0*%
G04 Aperture macros list end*
%ADD10C,0.150000*%
%ADD11C,0.120000*%
%ADD12C,0.127000*%
%ADD13C,0.152400*%
%ADD14RoundRect,1.500000X1.500000X-1.500000X1.500000X1.500000X-1.500000X1.500000X-1.500000X-1.500000X0*%
%ADD15C,6.000000*%
%ADD16RoundRect,0.250000X-0.325000X-0.650000X0.325000X-0.650000X0.325000X0.650000X-0.325000X0.650000X0*%
%ADD17R,1.800000X1.600000*%
%ADD18R,7.800000X4.000000*%
%ADD19RoundRect,0.250000X-0.650000X0.325000X-0.650000X-0.325000X0.650000X-0.325000X0.650000X0.325000X0*%
%ADD20R,1.700000X1.700000*%
%ADD21O,1.700000X1.700000*%
%ADD22R,1.473200X0.355600*%
G04 APERTURE END LIST*
D10*
X68006551Y-34453581D02*
X68006551Y-35167866D01*
X68006551Y-35167866D02*
X67958932Y-35310723D01*
X67958932Y-35310723D02*
X67863694Y-35405962D01*
X67863694Y-35405962D02*
X67720837Y-35453581D01*
X67720837Y-35453581D02*
X67625599Y-35453581D01*
X68387504Y-34453581D02*
X69054170Y-34453581D01*
X69054170Y-34453581D02*
X68625599Y-35453581D01*
X46531252Y-24566879D02*
X46578872Y-24614498D01*
X46578872Y-24614498D02*
X46626491Y-24757355D01*
X46626491Y-24757355D02*
X46626491Y-24852593D01*
X46626491Y-24852593D02*
X46578872Y-24995450D01*
X46578872Y-24995450D02*
X46483633Y-25090688D01*
X46483633Y-25090688D02*
X46388395Y-25138307D01*
X46388395Y-25138307D02*
X46197919Y-25185926D01*
X46197919Y-25185926D02*
X46055062Y-25185926D01*
X46055062Y-25185926D02*
X45864586Y-25138307D01*
X45864586Y-25138307D02*
X45769348Y-25090688D01*
X45769348Y-25090688D02*
X45674110Y-24995450D01*
X45674110Y-24995450D02*
X45626491Y-24852593D01*
X45626491Y-24852593D02*
X45626491Y-24757355D01*
X45626491Y-24757355D02*
X45674110Y-24614498D01*
X45674110Y-24614498D02*
X45721729Y-24566879D01*
X45721729Y-24185926D02*
X45674110Y-24138307D01*
X45674110Y-24138307D02*
X45626491Y-24043069D01*
X45626491Y-24043069D02*
X45626491Y-23804974D01*
X45626491Y-23804974D02*
X45674110Y-23709736D01*
X45674110Y-23709736D02*
X45721729Y-23662117D01*
X45721729Y-23662117D02*
X45816967Y-23614498D01*
X45816967Y-23614498D02*
X45912205Y-23614498D01*
X45912205Y-23614498D02*
X46055062Y-23662117D01*
X46055062Y-23662117D02*
X46626491Y-24233545D01*
X46626491Y-24233545D02*
X46626491Y-23614498D01*
X53883731Y-23741796D02*
X53550398Y-23265605D01*
X53312303Y-23741796D02*
X53312303Y-22741796D01*
X53312303Y-22741796D02*
X53693255Y-22741796D01*
X53693255Y-22741796D02*
X53788493Y-22789415D01*
X53788493Y-22789415D02*
X53836112Y-22837034D01*
X53836112Y-22837034D02*
X53883731Y-22932272D01*
X53883731Y-22932272D02*
X53883731Y-23075129D01*
X53883731Y-23075129D02*
X53836112Y-23170367D01*
X53836112Y-23170367D02*
X53788493Y-23217986D01*
X53788493Y-23217986D02*
X53693255Y-23265605D01*
X53693255Y-23265605D02*
X53312303Y-23265605D01*
X54788493Y-23741796D02*
X54312303Y-23741796D01*
X54312303Y-23741796D02*
X54312303Y-22741796D01*
X55645636Y-23741796D02*
X55074208Y-23741796D01*
X55359922Y-23741796D02*
X55359922Y-22741796D01*
X55359922Y-22741796D02*
X55264684Y-22884653D01*
X55264684Y-22884653D02*
X55169446Y-22979891D01*
X55169446Y-22979891D02*
X55074208Y-23027510D01*
X29591892Y-28089439D02*
X29115701Y-28422772D01*
X29591892Y-28660867D02*
X28591892Y-28660867D01*
X28591892Y-28660867D02*
X28591892Y-28279915D01*
X28591892Y-28279915D02*
X28639511Y-28184677D01*
X28639511Y-28184677D02*
X28687130Y-28137058D01*
X28687130Y-28137058D02*
X28782368Y-28089439D01*
X28782368Y-28089439D02*
X28925225Y-28089439D01*
X28925225Y-28089439D02*
X29020463Y-28137058D01*
X29020463Y-28137058D02*
X29068082Y-28184677D01*
X29068082Y-28184677D02*
X29115701Y-28279915D01*
X29115701Y-28279915D02*
X29115701Y-28660867D01*
X29544273Y-27708486D02*
X29591892Y-27613248D01*
X29591892Y-27613248D02*
X29591892Y-27422772D01*
X29591892Y-27422772D02*
X29544273Y-27327534D01*
X29544273Y-27327534D02*
X29449034Y-27279915D01*
X29449034Y-27279915D02*
X29401415Y-27279915D01*
X29401415Y-27279915D02*
X29306177Y-27327534D01*
X29306177Y-27327534D02*
X29258558Y-27422772D01*
X29258558Y-27422772D02*
X29258558Y-27565629D01*
X29258558Y-27565629D02*
X29210939Y-27660867D01*
X29210939Y-27660867D02*
X29115701Y-27708486D01*
X29115701Y-27708486D02*
X29068082Y-27708486D01*
X29068082Y-27708486D02*
X28972844Y-27660867D01*
X28972844Y-27660867D02*
X28925225Y-27565629D01*
X28925225Y-27565629D02*
X28925225Y-27422772D01*
X28925225Y-27422772D02*
X28972844Y-27327534D01*
X29591892Y-26327534D02*
X29591892Y-26898962D01*
X29591892Y-26613248D02*
X28591892Y-26613248D01*
X28591892Y-26613248D02*
X28734749Y-26708486D01*
X28734749Y-26708486D02*
X28829987Y-26803724D01*
X28829987Y-26803724D02*
X28877606Y-26898962D01*
X57232635Y-24045485D02*
X57185016Y-24093105D01*
X57185016Y-24093105D02*
X57042159Y-24140724D01*
X57042159Y-24140724D02*
X56946921Y-24140724D01*
X56946921Y-24140724D02*
X56804064Y-24093105D01*
X56804064Y-24093105D02*
X56708826Y-23997866D01*
X56708826Y-23997866D02*
X56661207Y-23902628D01*
X56661207Y-23902628D02*
X56613588Y-23712152D01*
X56613588Y-23712152D02*
X56613588Y-23569295D01*
X56613588Y-23569295D02*
X56661207Y-23378819D01*
X56661207Y-23378819D02*
X56708826Y-23283581D01*
X56708826Y-23283581D02*
X56804064Y-23188343D01*
X56804064Y-23188343D02*
X56946921Y-23140724D01*
X56946921Y-23140724D02*
X57042159Y-23140724D01*
X57042159Y-23140724D02*
X57185016Y-23188343D01*
X57185016Y-23188343D02*
X57232635Y-23235962D01*
X58185016Y-24140724D02*
X57613588Y-24140724D01*
X57899302Y-24140724D02*
X57899302Y-23140724D01*
X57899302Y-23140724D02*
X57804064Y-23283581D01*
X57804064Y-23283581D02*
X57708826Y-23378819D01*
X57708826Y-23378819D02*
X57613588Y-23426438D01*
X46577819Y-21938557D02*
X46577819Y-22652842D01*
X46577819Y-22652842D02*
X46530200Y-22795699D01*
X46530200Y-22795699D02*
X46434962Y-22890938D01*
X46434962Y-22890938D02*
X46292105Y-22938557D01*
X46292105Y-22938557D02*
X46196867Y-22938557D01*
X46958772Y-21938557D02*
X47577819Y-21938557D01*
X47577819Y-21938557D02*
X47244486Y-22319509D01*
X47244486Y-22319509D02*
X47387343Y-22319509D01*
X47387343Y-22319509D02*
X47482581Y-22367128D01*
X47482581Y-22367128D02*
X47530200Y-22414747D01*
X47530200Y-22414747D02*
X47577819Y-22509985D01*
X47577819Y-22509985D02*
X47577819Y-22748080D01*
X47577819Y-22748080D02*
X47530200Y-22843318D01*
X47530200Y-22843318D02*
X47482581Y-22890938D01*
X47482581Y-22890938D02*
X47387343Y-22938557D01*
X47387343Y-22938557D02*
X47101629Y-22938557D01*
X47101629Y-22938557D02*
X47006391Y-22890938D01*
X47006391Y-22890938D02*
X46958772Y-22843318D01*
X40767095Y-23297618D02*
X40767095Y-24107141D01*
X40767095Y-24107141D02*
X40814714Y-24202379D01*
X40814714Y-24202379D02*
X40862333Y-24249999D01*
X40862333Y-24249999D02*
X40957571Y-24297618D01*
X40957571Y-24297618D02*
X41148047Y-24297618D01*
X41148047Y-24297618D02*
X41243285Y-24249999D01*
X41243285Y-24249999D02*
X41290904Y-24202379D01*
X41290904Y-24202379D02*
X41338523Y-24107141D01*
X41338523Y-24107141D02*
X41338523Y-23297618D01*
X42338523Y-24297618D02*
X41767095Y-24297618D01*
X42052809Y-24297618D02*
X42052809Y-23297618D01*
X42052809Y-23297618D02*
X41957571Y-23440475D01*
X41957571Y-23440475D02*
X41862333Y-23535713D01*
X41862333Y-23535713D02*
X41767095Y-23583332D01*
X36830000Y-23364018D02*
X36830000Y-23602113D01*
X36591905Y-23506875D02*
X36830000Y-23602113D01*
X36830000Y-23602113D02*
X37068095Y-23506875D01*
X36687143Y-23792589D02*
X36830000Y-23602113D01*
X36830000Y-23602113D02*
X36972857Y-23792589D01*
X38354000Y-23364018D02*
X38354000Y-23602113D01*
X38115905Y-23506875D02*
X38354000Y-23602113D01*
X38354000Y-23602113D02*
X38592095Y-23506875D01*
X38211143Y-23792589D02*
X38354000Y-23602113D01*
X38354000Y-23602113D02*
X38496857Y-23792589D01*
X18317602Y-34172619D02*
X18317602Y-34886904D01*
X18317602Y-34886904D02*
X18269983Y-35029761D01*
X18269983Y-35029761D02*
X18174745Y-35125000D01*
X18174745Y-35125000D02*
X18031888Y-35172619D01*
X18031888Y-35172619D02*
X17936650Y-35172619D01*
X19317602Y-35172619D02*
X18746174Y-35172619D01*
X19031888Y-35172619D02*
X19031888Y-34172619D01*
X19031888Y-34172619D02*
X18936650Y-34315476D01*
X18936650Y-34315476D02*
X18841412Y-34410714D01*
X18841412Y-34410714D02*
X18746174Y-34458333D01*
X58026435Y-22343331D02*
X58026435Y-23057616D01*
X58026435Y-23057616D02*
X57978816Y-23200473D01*
X57978816Y-23200473D02*
X57883578Y-23295712D01*
X57883578Y-23295712D02*
X57740721Y-23343331D01*
X57740721Y-23343331D02*
X57645483Y-23343331D01*
X58931197Y-22343331D02*
X58740721Y-22343331D01*
X58740721Y-22343331D02*
X58645483Y-22390950D01*
X58645483Y-22390950D02*
X58597864Y-22438569D01*
X58597864Y-22438569D02*
X58502626Y-22581426D01*
X58502626Y-22581426D02*
X58455007Y-22771902D01*
X58455007Y-22771902D02*
X58455007Y-23152854D01*
X58455007Y-23152854D02*
X58502626Y-23248092D01*
X58502626Y-23248092D02*
X58550245Y-23295712D01*
X58550245Y-23295712D02*
X58645483Y-23343331D01*
X58645483Y-23343331D02*
X58835959Y-23343331D01*
X58835959Y-23343331D02*
X58931197Y-23295712D01*
X58931197Y-23295712D02*
X58978816Y-23248092D01*
X58978816Y-23248092D02*
X59026435Y-23152854D01*
X59026435Y-23152854D02*
X59026435Y-22914759D01*
X59026435Y-22914759D02*
X58978816Y-22819521D01*
X58978816Y-22819521D02*
X58931197Y-22771902D01*
X58931197Y-22771902D02*
X58835959Y-22724283D01*
X58835959Y-22724283D02*
X58645483Y-22724283D01*
X58645483Y-22724283D02*
X58550245Y-22771902D01*
X58550245Y-22771902D02*
X58502626Y-22819521D01*
X58502626Y-22819521D02*
X58455007Y-22914759D01*
D11*
X66744045Y-33460000D02*
X69894045Y-33460000D01*
X69894045Y-33460000D02*
X72494045Y-30610000D01*
X64194045Y-30610000D02*
X66744045Y-33460000D01*
X72494045Y-30610000D02*
X72494045Y-17760000D01*
X64194045Y-17760000D02*
X64194045Y-30610000D01*
X72494045Y-17760000D02*
X64194045Y-17760000D01*
X48564748Y-23474000D02*
X49987252Y-23474000D01*
X48564748Y-25294000D02*
X49987252Y-25294000D01*
D12*
X55253375Y-26140000D02*
X55253375Y-26940000D01*
X53653375Y-26140000D02*
X53653375Y-26940000D01*
D11*
X58314000Y-25958748D02*
X58314000Y-27381252D01*
X56494000Y-25958748D02*
X56494000Y-27381252D01*
X44390000Y-21142000D02*
X44390000Y-19812000D01*
X45720000Y-21142000D02*
X44390000Y-21142000D01*
X46990000Y-21142000D02*
X49590000Y-21142000D01*
X46990000Y-21142000D02*
X46990000Y-18482000D01*
X49590000Y-21142000D02*
X49590000Y-18482000D01*
X46990000Y-18482000D02*
X49590000Y-18482000D01*
D13*
X39281100Y-27924399D02*
X43776900Y-27924399D01*
X43776900Y-24825599D02*
X39281100Y-24825599D01*
X41224200Y-24825599D02*
G75*
G03*
X41833800Y-24825599I304800J0D01*
G01*
D11*
X17050936Y-33460000D02*
X20200936Y-33460000D01*
X20200936Y-33460000D02*
X22800936Y-30610000D01*
X14500936Y-30610000D02*
X17050936Y-33460000D01*
X22800936Y-30610000D02*
X22800936Y-17760000D01*
X14500936Y-17760000D02*
X14500936Y-30610000D01*
X22800936Y-17760000D02*
X14500936Y-17760000D01*
X55820000Y-21650000D02*
X55820000Y-20320000D01*
X57150000Y-21650000D02*
X55820000Y-21650000D01*
X58420000Y-21650000D02*
X61020000Y-21650000D01*
X58420000Y-21650000D02*
X58420000Y-18990000D01*
X61020000Y-21650000D02*
X61020000Y-18990000D01*
X58420000Y-18990000D02*
X61020000Y-18990000D01*
%LPC*%
D14*
X68344045Y-29210000D03*
D15*
X68344045Y-22010000D03*
D16*
X47801000Y-24384000D03*
X50751000Y-24384000D03*
D17*
X54453375Y-25140000D03*
X54453375Y-27940000D03*
D18*
X29629273Y-33018011D03*
X29629273Y-22018011D03*
D19*
X57404000Y-25195000D03*
X57404000Y-28145000D03*
D20*
X45720000Y-19812000D03*
D21*
X48260000Y-19812000D03*
D22*
X38608000Y-25400000D03*
X38608000Y-26049998D03*
X38608000Y-26700000D03*
X38608000Y-27349998D03*
X44450000Y-27349998D03*
X44450000Y-26700000D03*
X44450000Y-26049998D03*
X44450000Y-25400000D03*
D14*
X18650936Y-29210000D03*
D15*
X18650936Y-22010000D03*
D20*
X57150000Y-20320000D03*
D21*
X59690000Y-20320000D03*
M02*
