%TF.GenerationSoftware,KiCad,Pcbnew,7.0.2*%
%TF.CreationDate,2023-09-08T16:08:14-07:00*%
%TF.ProjectId,Buck Converter,4275636b-2043-46f6-9e76-65727465722e,rev?*%
%TF.SameCoordinates,Original*%
%TF.FileFunction,Copper,L1,Top*%
%TF.FilePolarity,Positive*%
%FSLAX46Y46*%
G04 Gerber Fmt 4.6, Leading zero omitted, Abs format (unit mm)*
G04 Created by KiCad (PCBNEW 7.0.2) date 2023-09-08 16:08:14*
%MOMM*%
%LPD*%
G01*
G04 APERTURE LIST*
G04 Aperture macros list*
%AMRoundRect*
0 Rectangle with rounded corners*
0 $1 Rounding radius*
0 $2 $3 $4 $5 $6 $7 $8 $9 X,Y pos of 4 corners*
0 Add a 4 corners polygon primitive as box body*
4,1,4,$2,$3,$4,$5,$6,$7,$8,$9,$2,$3,0*
0 Add four circle primitives for the rounded corners*
1,1,$1+$1,$2,$3*
1,1,$1+$1,$4,$5*
1,1,$1+$1,$6,$7*
1,1,$1+$1,$8,$9*
0 Add four rect primitives between the rounded corners*
20,1,$1+$1,$2,$3,$4,$5,0*
20,1,$1+$1,$4,$5,$6,$7,0*
20,1,$1+$1,$6,$7,$8,$9,0*
20,1,$1+$1,$8,$9,$2,$3,0*%
G04 Aperture macros list end*
%TA.AperFunction,SMDPad,CuDef*%
%ADD10RoundRect,0.250000X-1.000000X1.500000X-1.000000X-1.500000X1.000000X-1.500000X1.000000X1.500000X0*%
%TD*%
%TA.AperFunction,SMDPad,CuDef*%
%ADD11RoundRect,0.250000X0.625000X-0.312500X0.625000X0.312500X-0.625000X0.312500X-0.625000X-0.312500X0*%
%TD*%
%TA.AperFunction,ComponentPad*%
%ADD12RoundRect,1.500000X-1.500000X1.500000X-1.500000X-1.500000X1.500000X-1.500000X1.500000X1.500000X0*%
%TD*%
%TA.AperFunction,ComponentPad*%
%ADD13C,6.000000*%
%TD*%
%TA.AperFunction,SMDPad,CuDef*%
%ADD14R,2.184400X1.625600*%
%TD*%
%TA.AperFunction,SMDPad,CuDef*%
%ADD15RoundRect,0.250000X0.300000X-2.050000X0.300000X2.050000X-0.300000X2.050000X-0.300000X-2.050000X0*%
%TD*%
%TA.AperFunction,SMDPad,CuDef*%
%ADD16RoundRect,0.250000X2.375000X-2.025000X2.375000X2.025000X-2.375000X2.025000X-2.375000X-2.025000X0*%
%TD*%
%TA.AperFunction,SMDPad,CuDef*%
%ADD17RoundRect,0.250002X5.149998X-4.449998X5.149998X4.449998X-5.149998X4.449998X-5.149998X-4.449998X0*%
%TD*%
%TA.AperFunction,SMDPad,CuDef*%
%ADD18RoundRect,0.250000X-0.650000X0.325000X-0.650000X-0.325000X0.650000X-0.325000X0.650000X0.325000X0*%
%TD*%
%TA.AperFunction,SMDPad,CuDef*%
%ADD19RoundRect,0.250000X-0.625000X0.312500X-0.625000X-0.312500X0.625000X-0.312500X0.625000X0.312500X0*%
%TD*%
%TA.AperFunction,SMDPad,CuDef*%
%ADD20R,2.895600X5.410200*%
%TD*%
%TA.AperFunction,Conductor*%
%ADD21C,0.250000*%
%TD*%
G04 APERTURE END LIST*
D10*
%TO.P,C_IN1,1*%
%TO.N,Net-(J1-Pin_2)*%
X116018000Y-85077500D03*
%TO.P,C_IN1,2*%
%TO.N,GND*%
X116018000Y-91577500D03*
%TD*%
D11*
%TO.P,R1,1*%
%TO.N,GND*%
X149148800Y-92993400D03*
%TO.P,R1,2*%
%TO.N,Net-(U1-FB)*%
X149148800Y-90068400D03*
%TD*%
D10*
%TO.P,C_OUT1,1*%
%TO.N,Net-(J2-Pin_2)*%
X189678000Y-85077500D03*
%TO.P,C_OUT1,2*%
%TO.N,GND*%
X189678000Y-91577500D03*
%TD*%
D12*
%TO.P,J2,1,Pin_1*%
%TO.N,GND*%
X189678000Y-115977500D03*
D13*
%TO.P,J2,2,Pin_2*%
%TO.N,Net-(J2-Pin_2)*%
X189678000Y-123177500D03*
%TD*%
D12*
%TO.P,J1,1,Pin_1*%
%TO.N,GND*%
X113639600Y-116078000D03*
D13*
%TO.P,J1,2,Pin_2*%
%TO.N,Net-(J1-Pin_2)*%
X113639600Y-123278000D03*
%TD*%
D14*
%TO.P,D1,1,K*%
%TO.N,Net-(D1-K)*%
X141138600Y-131661100D03*
%TO.P,D1,2,A*%
%TO.N,GND*%
X144847000Y-131661100D03*
%TD*%
D15*
%TO.P,U1,1,VIN*%
%TO.N,Net-(J1-Pin_2)*%
X138018000Y-117087500D03*
%TO.P,U1,2,OUT*%
%TO.N,Net-(D1-K)*%
X139718000Y-117087500D03*
%TO.P,U1,3,GND*%
%TO.N,GND*%
X141418000Y-117087500D03*
D16*
X138643000Y-110362500D03*
X144193000Y-110362500D03*
D17*
X141418000Y-107937500D03*
D16*
X138643000Y-105512500D03*
X144193000Y-105512500D03*
D15*
%TO.P,U1,4,FB*%
%TO.N,Net-(U1-FB)*%
X143118000Y-117087500D03*
%TO.P,U1,5,~{ON}/OFF*%
%TO.N,GND*%
X144818000Y-117087500D03*
%TD*%
D18*
%TO.P,C_FF1,1*%
%TO.N,Net-(U1-FB)*%
X159198000Y-87617500D03*
%TO.P,C_FF1,2*%
%TO.N,Net-(J2-Pin_2)*%
X159198000Y-90567500D03*
%TD*%
D19*
%TO.P,R2,1*%
%TO.N,Net-(U1-FB)*%
X166818000Y-90157500D03*
%TO.P,R2,2*%
%TO.N,Net-(J2-Pin_2)*%
X166818000Y-93082500D03*
%TD*%
D20*
%TO.P,L1,1,1*%
%TO.N,Net-(D1-K)*%
X159198000Y-113017500D03*
%TO.P,L1,2,2*%
%TO.N,Net-(J2-Pin_2)*%
X169104000Y-113017500D03*
%TD*%
D21*
%TO.N,Net-(U1-FB)*%
X143118000Y-118550673D02*
X143118000Y-117087500D01*
X145204827Y-120637500D02*
X143118000Y-118550673D01*
X149038000Y-120637500D02*
X145204827Y-120637500D01*
X152146000Y-91236800D02*
X152393000Y-91483800D01*
X152393000Y-117282500D02*
X149038000Y-120637500D01*
X150317200Y-91236800D02*
X152146000Y-91236800D01*
X149148800Y-90068400D02*
X150317200Y-91236800D01*
X152393000Y-91483800D02*
X152393000Y-117282500D01*
X151282100Y-90068400D02*
X149148800Y-90068400D01*
X153733000Y-87617500D02*
X151282100Y-90068400D01*
X159198000Y-87617500D02*
X153733000Y-87617500D01*
%TO.N,Net-(J1-Pin_2)*%
X115917500Y-123278000D02*
X113639600Y-123278000D01*
X119343000Y-88402500D02*
X119343000Y-119852500D01*
X119343000Y-119852500D02*
X115917500Y-123278000D01*
X116018000Y-85077500D02*
X119343000Y-88402500D01*
X113639600Y-123278000D02*
X113740100Y-123177500D01*
X131928000Y-123177500D02*
X138018000Y-117087500D01*
X113740100Y-123177500D02*
X131928000Y-123177500D01*
%TO.N,Net-(U1-FB)*%
X161738000Y-90157500D02*
X166818000Y-90157500D01*
X159198000Y-87617500D02*
X161738000Y-90157500D01*
%TO.N,Net-(D1-K)*%
X159198000Y-113017500D02*
X159198000Y-118097500D01*
X141138600Y-131661100D02*
X140859200Y-131661100D01*
X139718000Y-130442678D02*
X139718000Y-117087500D01*
X140859200Y-131661100D02*
X139796400Y-130598300D01*
X144344827Y-123177500D02*
X139718000Y-118550673D01*
X154118000Y-123177500D02*
X144344827Y-123177500D01*
X139718000Y-118550673D02*
X139718000Y-117087500D01*
X140936422Y-131661100D02*
X139718000Y-130442678D01*
X159198000Y-118097500D02*
X154118000Y-123177500D01*
X141138600Y-131661100D02*
X140936422Y-131661100D01*
%TO.N,Net-(J2-Pin_2)*%
X169104000Y-95368500D02*
X166818000Y-93082500D01*
X169104000Y-113017500D02*
X169104000Y-95368500D01*
X166818000Y-93082500D02*
X161713000Y-93082500D01*
X179264000Y-123177500D02*
X169104000Y-113017500D01*
X189678000Y-123177500D02*
X179264000Y-123177500D01*
X181673000Y-93082500D02*
X166818000Y-93082500D01*
X161713000Y-93082500D02*
X159198000Y-90567500D01*
X189678000Y-85077500D02*
X181673000Y-93082500D01*
%TD*%
%TA.AperFunction,Conductor*%
%TO.N,GND*%
G36*
X196732539Y-80792185D02*
G01*
X196778294Y-80844989D01*
X196789500Y-80896500D01*
X196789500Y-137010500D01*
X196769815Y-137077539D01*
X196717011Y-137123294D01*
X196665500Y-137134500D01*
X107261700Y-137134500D01*
X107194661Y-137114815D01*
X107148906Y-137062011D01*
X107137700Y-137010500D01*
X107137700Y-123278000D01*
X110134296Y-123278000D01*
X110134466Y-123281243D01*
X110152571Y-123626726D01*
X110153498Y-123644404D01*
X110154003Y-123647597D01*
X110154005Y-123647609D01*
X110210385Y-124003576D01*
X110210386Y-124003581D01*
X110210895Y-124006794D01*
X110211733Y-124009923D01*
X110211736Y-124009935D01*
X110305015Y-124358056D01*
X110305019Y-124358070D01*
X110305858Y-124361199D01*
X110307021Y-124364228D01*
X110307025Y-124364241D01*
X110436184Y-124700712D01*
X110437345Y-124703736D01*
X110603918Y-125030652D01*
X110803749Y-125338366D01*
X111034651Y-125623506D01*
X111294094Y-125882949D01*
X111579234Y-126113851D01*
X111886948Y-126313682D01*
X112213864Y-126480255D01*
X112492012Y-126587025D01*
X112543302Y-126606714D01*
X112556401Y-126611742D01*
X112910806Y-126706705D01*
X113273196Y-126764102D01*
X113639600Y-126783304D01*
X114006004Y-126764102D01*
X114368394Y-126706705D01*
X114722799Y-126611742D01*
X115065336Y-126480255D01*
X115392252Y-126313682D01*
X115699966Y-126113851D01*
X115985106Y-125882949D01*
X116244549Y-125623506D01*
X116475451Y-125338366D01*
X116675282Y-125030652D01*
X116841855Y-124703736D01*
X116973342Y-124361199D01*
X117068305Y-124006794D01*
X117077520Y-123948609D01*
X117084016Y-123907601D01*
X117113946Y-123844467D01*
X117173257Y-123807536D01*
X117206489Y-123803000D01*
X131845256Y-123803000D01*
X131865762Y-123805264D01*
X131868665Y-123805172D01*
X131868667Y-123805173D01*
X131935872Y-123803061D01*
X131939768Y-123803000D01*
X131963448Y-123803000D01*
X131967350Y-123803000D01*
X131971313Y-123802499D01*
X131982962Y-123801580D01*
X132026627Y-123800209D01*
X132045859Y-123794620D01*
X132064918Y-123790674D01*
X132072099Y-123789767D01*
X132084792Y-123788164D01*
X132125407Y-123772082D01*
X132136444Y-123768303D01*
X132178390Y-123756118D01*
X132195629Y-123745922D01*
X132213102Y-123737362D01*
X132231732Y-123729986D01*
X132267064Y-123704314D01*
X132276830Y-123697900D01*
X132314418Y-123675671D01*
X132314417Y-123675671D01*
X132314420Y-123675670D01*
X132328585Y-123661504D01*
X132343373Y-123648873D01*
X132359587Y-123637094D01*
X132387438Y-123603426D01*
X132395279Y-123594809D01*
X136767696Y-119222392D01*
X136829017Y-119188909D01*
X136898709Y-119193893D01*
X136954642Y-119235765D01*
X136971225Y-119278234D01*
X136973729Y-119277405D01*
X137033186Y-119456834D01*
X137125288Y-119606157D01*
X137249342Y-119730211D01*
X137305895Y-119765092D01*
X137398666Y-119822314D01*
X137510016Y-119859212D01*
X137565202Y-119877499D01*
X137664858Y-119887680D01*
X137664859Y-119887680D01*
X137667991Y-119888000D01*
X138368008Y-119887999D01*
X138470797Y-119877499D01*
X138637334Y-119822314D01*
X138746760Y-119754819D01*
X138798993Y-119722603D01*
X138800723Y-119725408D01*
X138841626Y-119703067D01*
X138911319Y-119708043D01*
X138936146Y-119723998D01*
X138937007Y-119722603D01*
X139033596Y-119782178D01*
X139080321Y-119834125D01*
X139092500Y-119887717D01*
X139092500Y-130359934D01*
X139090235Y-130380444D01*
X139092439Y-130450550D01*
X139092500Y-130454445D01*
X139092500Y-130482028D01*
X139092988Y-130485897D01*
X139092989Y-130485903D01*
X139093004Y-130486021D01*
X139093918Y-130497645D01*
X139095290Y-130541304D01*
X139100879Y-130560538D01*
X139104825Y-130579594D01*
X139107335Y-130599470D01*
X139123414Y-130640082D01*
X139127197Y-130651129D01*
X139139382Y-130693069D01*
X139149580Y-130710313D01*
X139158137Y-130727779D01*
X139165514Y-130746411D01*
X139190373Y-130780626D01*
X139209131Y-130818915D01*
X139217781Y-130848689D01*
X139298230Y-130984721D01*
X139509581Y-131196071D01*
X139543066Y-131257394D01*
X139545900Y-131283752D01*
X139545900Y-132518460D01*
X139545900Y-132518478D01*
X139545901Y-132521772D01*
X139552309Y-132581383D01*
X139602604Y-132716231D01*
X139688854Y-132831446D01*
X139804069Y-132917696D01*
X139938917Y-132967991D01*
X139998527Y-132974400D01*
X140125600Y-132974399D01*
X140192639Y-132994083D01*
X140238394Y-133046887D01*
X140241926Y-133063126D01*
X140249600Y-133070800D01*
X145736000Y-133070800D01*
X145736000Y-132524700D01*
X143828000Y-132524700D01*
X143760961Y-132505015D01*
X143715206Y-132452211D01*
X143704000Y-132400700D01*
X143704000Y-130921500D01*
X143723685Y-130854461D01*
X143776489Y-130808706D01*
X143828000Y-130797500D01*
X145736000Y-130797500D01*
X145736000Y-130251400D01*
X140467500Y-130251400D01*
X140400461Y-130231715D01*
X140354706Y-130178911D01*
X140343500Y-130127400D01*
X140343500Y-120360125D01*
X140363185Y-120293086D01*
X140415989Y-120247331D01*
X140485147Y-120237387D01*
X140548703Y-120266412D01*
X140555180Y-120272443D01*
X142373994Y-122091258D01*
X143844023Y-123561287D01*
X143856923Y-123577388D01*
X143908050Y-123625400D01*
X143910847Y-123628111D01*
X143930356Y-123647620D01*
X143933536Y-123650087D01*
X143942398Y-123657655D01*
X143974245Y-123687562D01*
X143991797Y-123697211D01*
X144008065Y-123707897D01*
X144023891Y-123720173D01*
X144063973Y-123737517D01*
X144074460Y-123742655D01*
X144112734Y-123763697D01*
X144121237Y-123765879D01*
X144132135Y-123768678D01*
X144150540Y-123774978D01*
X144168931Y-123782937D01*
X144212077Y-123789770D01*
X144223495Y-123792135D01*
X144265808Y-123803000D01*
X144285844Y-123803000D01*
X144305241Y-123804526D01*
X144325023Y-123807660D01*
X144365547Y-123803828D01*
X144368499Y-123803550D01*
X144380169Y-123803000D01*
X154035256Y-123803000D01*
X154055762Y-123805264D01*
X154058665Y-123805172D01*
X154058667Y-123805173D01*
X154125872Y-123803061D01*
X154129768Y-123803000D01*
X154153448Y-123803000D01*
X154157350Y-123803000D01*
X154161313Y-123802499D01*
X154172962Y-123801580D01*
X154216627Y-123800209D01*
X154235859Y-123794620D01*
X154254918Y-123790674D01*
X154262099Y-123789767D01*
X154274792Y-123788164D01*
X154315407Y-123772082D01*
X154326444Y-123768303D01*
X154368390Y-123756118D01*
X154385629Y-123745922D01*
X154403102Y-123737362D01*
X154421732Y-123729986D01*
X154457064Y-123704314D01*
X154466830Y-123697900D01*
X154504418Y-123675671D01*
X154504417Y-123675671D01*
X154504420Y-123675670D01*
X154518585Y-123661504D01*
X154533373Y-123648873D01*
X154549587Y-123637094D01*
X154577438Y-123603426D01*
X154585279Y-123594809D01*
X159581789Y-118598300D01*
X159597885Y-118585406D01*
X159599873Y-118583287D01*
X159599877Y-118583286D01*
X159645949Y-118534223D01*
X159648534Y-118531555D01*
X159668120Y-118511971D01*
X159670585Y-118508792D01*
X159678167Y-118499916D01*
X159708062Y-118468082D01*
X159717712Y-118450527D01*
X159728400Y-118434257D01*
X159740671Y-118418438D01*
X159740673Y-118418436D01*
X159758026Y-118378332D01*
X159763157Y-118367862D01*
X159784197Y-118329592D01*
X159789175Y-118310199D01*
X159795481Y-118291782D01*
X159797018Y-118288228D01*
X159803438Y-118273396D01*
X159810272Y-118230245D01*
X159812635Y-118218831D01*
X159823500Y-118176519D01*
X159823500Y-118156483D01*
X159825027Y-118137084D01*
X159828160Y-118117304D01*
X159824050Y-118073824D01*
X159823500Y-118062155D01*
X159823500Y-116347099D01*
X159843185Y-116280060D01*
X159895989Y-116234305D01*
X159947500Y-116223099D01*
X160690361Y-116223099D01*
X160693672Y-116223099D01*
X160753283Y-116216691D01*
X160888131Y-116166396D01*
X161003346Y-116080146D01*
X161089596Y-115964931D01*
X161139891Y-115830083D01*
X161146300Y-115770473D01*
X161146299Y-110264528D01*
X161139891Y-110204917D01*
X161089596Y-110070069D01*
X161003346Y-109954854D01*
X160888131Y-109868604D01*
X160753283Y-109818309D01*
X160693673Y-109811900D01*
X160690350Y-109811900D01*
X157705639Y-109811900D01*
X157705620Y-109811900D01*
X157702328Y-109811901D01*
X157699048Y-109812253D01*
X157699040Y-109812254D01*
X157642715Y-109818309D01*
X157507869Y-109868604D01*
X157392654Y-109954854D01*
X157306404Y-110070068D01*
X157256110Y-110204915D01*
X157256109Y-110204917D01*
X157249700Y-110264527D01*
X157249700Y-110267848D01*
X157249700Y-110267849D01*
X157249700Y-115767160D01*
X157249700Y-115767178D01*
X157249701Y-115770472D01*
X157256109Y-115830083D01*
X157306404Y-115964931D01*
X157392654Y-116080146D01*
X157507869Y-116166396D01*
X157642717Y-116216691D01*
X157702327Y-116223100D01*
X158448500Y-116223099D01*
X158515539Y-116242783D01*
X158561294Y-116295587D01*
X158572500Y-116347099D01*
X158572500Y-117787047D01*
X158552815Y-117854086D01*
X158536181Y-117874728D01*
X153895228Y-122515681D01*
X153833905Y-122549166D01*
X153807547Y-122552000D01*
X144655280Y-122552000D01*
X144588241Y-122532315D01*
X144567599Y-122515681D01*
X141236296Y-119184378D01*
X142067500Y-119184378D01*
X142067501Y-119187508D01*
X142067820Y-119190640D01*
X142067821Y-119190641D01*
X142078000Y-119290296D01*
X142133186Y-119456834D01*
X142225288Y-119606157D01*
X142349342Y-119730211D01*
X142405895Y-119765092D01*
X142498666Y-119822314D01*
X142610017Y-119859212D01*
X142665202Y-119877499D01*
X142764858Y-119887680D01*
X142764859Y-119887680D01*
X142767991Y-119888000D01*
X143468008Y-119887999D01*
X143502596Y-119884465D01*
X143571287Y-119897234D01*
X143602879Y-119920142D01*
X144704023Y-121021287D01*
X144716923Y-121037388D01*
X144768050Y-121085400D01*
X144770847Y-121088111D01*
X144790356Y-121107620D01*
X144793536Y-121110087D01*
X144802398Y-121117655D01*
X144834245Y-121147562D01*
X144851799Y-121157212D01*
X144868063Y-121167896D01*
X144879799Y-121176999D01*
X144883891Y-121180173D01*
X144908736Y-121190924D01*
X144923979Y-121197521D01*
X144934458Y-121202654D01*
X144972735Y-121223697D01*
X144992133Y-121228677D01*
X145010535Y-121234977D01*
X145028931Y-121242938D01*
X145072088Y-121249773D01*
X145083491Y-121252134D01*
X145125808Y-121263000D01*
X145145843Y-121263000D01*
X145165240Y-121264526D01*
X145185023Y-121267660D01*
X145228501Y-121263550D01*
X145240171Y-121263000D01*
X148955256Y-121263000D01*
X148975762Y-121265264D01*
X148978665Y-121265172D01*
X148978667Y-121265173D01*
X149045872Y-121263061D01*
X149049768Y-121263000D01*
X149073448Y-121263000D01*
X149077350Y-121263000D01*
X149081313Y-121262499D01*
X149092962Y-121261580D01*
X149136627Y-121260209D01*
X149155859Y-121254620D01*
X149174918Y-121250674D01*
X149182091Y-121249768D01*
X149194792Y-121248164D01*
X149235407Y-121232082D01*
X149246444Y-121228303D01*
X149288390Y-121216118D01*
X149305629Y-121205922D01*
X149323102Y-121197362D01*
X149341732Y-121189986D01*
X149377064Y-121164314D01*
X149386830Y-121157900D01*
X149424418Y-121135671D01*
X149424417Y-121135671D01*
X149424420Y-121135670D01*
X149438585Y-121121504D01*
X149453373Y-121108873D01*
X149469587Y-121097094D01*
X149497438Y-121063426D01*
X149505279Y-121054809D01*
X152776786Y-117783302D01*
X152792886Y-117770405D01*
X152794874Y-117768287D01*
X152794877Y-117768286D01*
X152840964Y-117719207D01*
X152843549Y-117716539D01*
X152863120Y-117696970D01*
X152865565Y-117693816D01*
X152873154Y-117684929D01*
X152903062Y-117653082D01*
X152912713Y-117635526D01*
X152923393Y-117619267D01*
X152935674Y-117603436D01*
X152953018Y-117563351D01*
X152958160Y-117552856D01*
X152979197Y-117514592D01*
X152984178Y-117495188D01*
X152990480Y-117476783D01*
X152998438Y-117458395D01*
X153005270Y-117415248D01*
X153007639Y-117403816D01*
X153018500Y-117361520D01*
X153018500Y-117341483D01*
X153020027Y-117322084D01*
X153023160Y-117302304D01*
X153019050Y-117258824D01*
X153018500Y-117247155D01*
X153018500Y-91566543D01*
X153020764Y-91546039D01*
X153018561Y-91475912D01*
X153018500Y-91472018D01*
X153018500Y-91448341D01*
X153018500Y-91444450D01*
X153017998Y-91440483D01*
X153017081Y-91428827D01*
X153015710Y-91385173D01*
X153010118Y-91365926D01*
X153006174Y-91346885D01*
X153003664Y-91327008D01*
X152987579Y-91286383D01*
X152983808Y-91275368D01*
X152971618Y-91233410D01*
X152961414Y-91216155D01*
X152952861Y-91198695D01*
X152945486Y-91180069D01*
X152945486Y-91180068D01*
X152919808Y-91144725D01*
X152913401Y-91134971D01*
X152891169Y-91097379D01*
X152877006Y-91083216D01*
X152864374Y-91068427D01*
X152852594Y-91052213D01*
X152818941Y-91024373D01*
X152810311Y-91016521D01*
X152646798Y-90853007D01*
X152633902Y-90836910D01*
X152582774Y-90788897D01*
X152579977Y-90786186D01*
X152563227Y-90769436D01*
X152560471Y-90766680D01*
X152557290Y-90764212D01*
X152548422Y-90756637D01*
X152516582Y-90726738D01*
X152499024Y-90717085D01*
X152482764Y-90706404D01*
X152466936Y-90694127D01*
X152426851Y-90676780D01*
X152416361Y-90671641D01*
X152378091Y-90650602D01*
X152358691Y-90645621D01*
X152340284Y-90639319D01*
X152321897Y-90631362D01*
X152278758Y-90624529D01*
X152267324Y-90622161D01*
X152225019Y-90611300D01*
X152204984Y-90611300D01*
X152185586Y-90609773D01*
X152175092Y-90608111D01*
X152165805Y-90606640D01*
X152165804Y-90606640D01*
X152150243Y-90608111D01*
X152122325Y-90610750D01*
X152110656Y-90611300D01*
X151923151Y-90611300D01*
X151856112Y-90591615D01*
X151810357Y-90538811D01*
X151800413Y-90469653D01*
X151829438Y-90406097D01*
X151835470Y-90399619D01*
X152311924Y-89923166D01*
X153955771Y-88279319D01*
X154017095Y-88245834D01*
X154043453Y-88243000D01*
X157782362Y-88243000D01*
X157849401Y-88262685D01*
X157887901Y-88301904D01*
X157955288Y-88411157D01*
X158079342Y-88535211D01*
X158079344Y-88535212D01*
X158228666Y-88627314D01*
X158332104Y-88661590D01*
X158395202Y-88682499D01*
X158494858Y-88692680D01*
X158494859Y-88692680D01*
X158497991Y-88693000D01*
X159337547Y-88692999D01*
X159404586Y-88712683D01*
X159425228Y-88729318D01*
X159976228Y-89280319D01*
X160009713Y-89341642D01*
X160004729Y-89411334D01*
X159962857Y-89467267D01*
X159897393Y-89491684D01*
X159888547Y-89492000D01*
X158501140Y-89492000D01*
X158501120Y-89492000D01*
X158497992Y-89492001D01*
X158494860Y-89492320D01*
X158494858Y-89492321D01*
X158395203Y-89502500D01*
X158228665Y-89557686D01*
X158079342Y-89649788D01*
X157955288Y-89773842D01*
X157863186Y-89923165D01*
X157808000Y-90089702D01*
X157797819Y-90189358D01*
X157797817Y-90189378D01*
X157797500Y-90192491D01*
X157797500Y-90195638D01*
X157797500Y-90195639D01*
X157797500Y-90939358D01*
X157797500Y-90939377D01*
X157797501Y-90942508D01*
X157797820Y-90945640D01*
X157797821Y-90945641D01*
X157808000Y-91045296D01*
X157863186Y-91211834D01*
X157955288Y-91361157D01*
X158079342Y-91485211D01*
X158079344Y-91485212D01*
X158228666Y-91577314D01*
X158340017Y-91614212D01*
X158395202Y-91632499D01*
X158494858Y-91642680D01*
X158494859Y-91642680D01*
X158497991Y-91643000D01*
X159337547Y-91642999D01*
X159404586Y-91662683D01*
X159425228Y-91679318D01*
X161212196Y-93466287D01*
X161225096Y-93482388D01*
X161276223Y-93530400D01*
X161279020Y-93533111D01*
X161298529Y-93552620D01*
X161301709Y-93555087D01*
X161310571Y-93562655D01*
X161342418Y-93592562D01*
X161359970Y-93602211D01*
X161376238Y-93612897D01*
X161392064Y-93625173D01*
X161432146Y-93642517D01*
X161442633Y-93647655D01*
X161480907Y-93668697D01*
X161489410Y-93670879D01*
X161500308Y-93673678D01*
X161518713Y-93679978D01*
X161537104Y-93687937D01*
X161580250Y-93694770D01*
X161591668Y-93697135D01*
X161633981Y-93708000D01*
X161654016Y-93708000D01*
X161673415Y-93709527D01*
X161693196Y-93712660D01*
X161736674Y-93708550D01*
X161748344Y-93708000D01*
X165435072Y-93708000D01*
X165502111Y-93727685D01*
X165540611Y-93766904D01*
X165600288Y-93863657D01*
X165724342Y-93987711D01*
X165724344Y-93987712D01*
X165873666Y-94079814D01*
X165985017Y-94116712D01*
X166040202Y-94134999D01*
X166139858Y-94145180D01*
X166139859Y-94145180D01*
X166142991Y-94145500D01*
X166945047Y-94145499D01*
X167012086Y-94165183D01*
X167032728Y-94181818D01*
X168442181Y-95591271D01*
X168475666Y-95652594D01*
X168478500Y-95678952D01*
X168478500Y-109687900D01*
X168458815Y-109754939D01*
X168406011Y-109800694D01*
X168354500Y-109811900D01*
X167611639Y-109811900D01*
X167611620Y-109811900D01*
X167608328Y-109811901D01*
X167605048Y-109812253D01*
X167605040Y-109812254D01*
X167548715Y-109818309D01*
X167413869Y-109868604D01*
X167298654Y-109954854D01*
X167212404Y-110070068D01*
X167162110Y-110204915D01*
X167162109Y-110204917D01*
X167155700Y-110264527D01*
X167155700Y-110267848D01*
X167155700Y-110267849D01*
X167155700Y-115767160D01*
X167155700Y-115767178D01*
X167155701Y-115770472D01*
X167162109Y-115830083D01*
X167212404Y-115964931D01*
X167298654Y-116080146D01*
X167413869Y-116166396D01*
X167548717Y-116216691D01*
X167608327Y-116223100D01*
X170599672Y-116223099D01*
X170659283Y-116216691D01*
X170794131Y-116166396D01*
X170909346Y-116080146D01*
X170983150Y-115981555D01*
X171039083Y-115939686D01*
X171108774Y-115934702D01*
X171170097Y-115968187D01*
X178763197Y-123561287D01*
X178776098Y-123577389D01*
X178778212Y-123579374D01*
X178778214Y-123579377D01*
X178825561Y-123623839D01*
X178827240Y-123625416D01*
X178830021Y-123628111D01*
X178849530Y-123647620D01*
X178852615Y-123650013D01*
X178852701Y-123650080D01*
X178861573Y-123657658D01*
X178893418Y-123687562D01*
X178910970Y-123697211D01*
X178927238Y-123707897D01*
X178943064Y-123720173D01*
X178983148Y-123737518D01*
X178993628Y-123742652D01*
X179031908Y-123763697D01*
X179036754Y-123764941D01*
X179051313Y-123768680D01*
X179069716Y-123774980D01*
X179088105Y-123782938D01*
X179131254Y-123789771D01*
X179142680Y-123792138D01*
X179158222Y-123796129D01*
X179184980Y-123803000D01*
X179184981Y-123803000D01*
X179205016Y-123803000D01*
X179224413Y-123804526D01*
X179244196Y-123807660D01*
X179287674Y-123803550D01*
X179299344Y-123803000D01*
X186127100Y-123803000D01*
X186194139Y-123822685D01*
X186239894Y-123875489D01*
X186248392Y-123901225D01*
X186248785Y-123903076D01*
X186249295Y-123906294D01*
X186250133Y-123909423D01*
X186250136Y-123909435D01*
X186343415Y-124257556D01*
X186343419Y-124257570D01*
X186344258Y-124260699D01*
X186345421Y-124263728D01*
X186345425Y-124263741D01*
X186474584Y-124600212D01*
X186475745Y-124603236D01*
X186477213Y-124606117D01*
X186528420Y-124706617D01*
X186642318Y-124930152D01*
X186842149Y-125237866D01*
X187073051Y-125523006D01*
X187332494Y-125782449D01*
X187617634Y-126013351D01*
X187925348Y-126213182D01*
X188252264Y-126379755D01*
X188594801Y-126511242D01*
X188949206Y-126606205D01*
X189311596Y-126663602D01*
X189678000Y-126682804D01*
X190044404Y-126663602D01*
X190406794Y-126606205D01*
X190761199Y-126511242D01*
X191103736Y-126379755D01*
X191430652Y-126213182D01*
X191738366Y-126013351D01*
X192023506Y-125782449D01*
X192282949Y-125523006D01*
X192513851Y-125237866D01*
X192713682Y-124930152D01*
X192880255Y-124603236D01*
X193011742Y-124260699D01*
X193106705Y-123906294D01*
X193164102Y-123543904D01*
X193183304Y-123177500D01*
X193164102Y-122811096D01*
X193106705Y-122448706D01*
X193011742Y-122094301D01*
X192880255Y-121751764D01*
X192713682Y-121424848D01*
X192513851Y-121117134D01*
X192282949Y-120831994D01*
X192023506Y-120572551D01*
X191738366Y-120341649D01*
X191430652Y-120141818D01*
X191427764Y-120140346D01*
X191427758Y-120140343D01*
X191123395Y-119985262D01*
X191103736Y-119975245D01*
X191100715Y-119974085D01*
X191100712Y-119974084D01*
X190764241Y-119844925D01*
X190764228Y-119844921D01*
X190761199Y-119843758D01*
X190758070Y-119842919D01*
X190758056Y-119842915D01*
X190409935Y-119749636D01*
X190409923Y-119749633D01*
X190406794Y-119748795D01*
X190403581Y-119748286D01*
X190403576Y-119748285D01*
X190047609Y-119691905D01*
X190047597Y-119691903D01*
X190044404Y-119691398D01*
X190041171Y-119691228D01*
X190041166Y-119691228D01*
X189681244Y-119672366D01*
X189678000Y-119672196D01*
X189674756Y-119672366D01*
X189314833Y-119691228D01*
X189314826Y-119691228D01*
X189311596Y-119691398D01*
X189308404Y-119691903D01*
X189308390Y-119691905D01*
X188952423Y-119748285D01*
X188952414Y-119748286D01*
X188949206Y-119748795D01*
X188946080Y-119749632D01*
X188946064Y-119749636D01*
X188597943Y-119842915D01*
X188597923Y-119842921D01*
X188594801Y-119843758D01*
X188591776Y-119844918D01*
X188591758Y-119844925D01*
X188255287Y-119974084D01*
X188255277Y-119974088D01*
X188252264Y-119975245D01*
X188249389Y-119976709D01*
X188249382Y-119976713D01*
X187928241Y-120140343D01*
X187928227Y-120140350D01*
X187925348Y-120141818D01*
X187922628Y-120143584D01*
X187922620Y-120143589D01*
X187620362Y-120339877D01*
X187620356Y-120339880D01*
X187617634Y-120341649D01*
X187615114Y-120343689D01*
X187615108Y-120343694D01*
X187335012Y-120570511D01*
X187335001Y-120570520D01*
X187332494Y-120572551D01*
X187330209Y-120574835D01*
X187330199Y-120574845D01*
X187075345Y-120829699D01*
X187075335Y-120829709D01*
X187073051Y-120831994D01*
X187071020Y-120834501D01*
X187071011Y-120834512D01*
X186844194Y-121114608D01*
X186844189Y-121114614D01*
X186842149Y-121117134D01*
X186840380Y-121119856D01*
X186840377Y-121119862D01*
X186644089Y-121422120D01*
X186644084Y-121422128D01*
X186642318Y-121424848D01*
X186640850Y-121427727D01*
X186640843Y-121427741D01*
X186477213Y-121748882D01*
X186475745Y-121751764D01*
X186474588Y-121754777D01*
X186474584Y-121754787D01*
X186345425Y-122091258D01*
X186345418Y-122091276D01*
X186344258Y-122094301D01*
X186343421Y-122097423D01*
X186343415Y-122097443D01*
X186250136Y-122445564D01*
X186250132Y-122445580D01*
X186249295Y-122448706D01*
X186248785Y-122451920D01*
X186248392Y-122453775D01*
X186215202Y-122515258D01*
X186154041Y-122549038D01*
X186127100Y-122552000D01*
X179574452Y-122552000D01*
X179507413Y-122532315D01*
X179486771Y-122515681D01*
X171088618Y-114117527D01*
X171055133Y-114056204D01*
X171052299Y-114029846D01*
X171052299Y-110267839D01*
X171052299Y-110264528D01*
X171045891Y-110204917D01*
X170995596Y-110070069D01*
X170909346Y-109954854D01*
X170794131Y-109868604D01*
X170659283Y-109818309D01*
X170599673Y-109811900D01*
X170596351Y-109811900D01*
X169853500Y-109811900D01*
X169786461Y-109792215D01*
X169740706Y-109739411D01*
X169729500Y-109687900D01*
X169729500Y-95451239D01*
X169731763Y-95430738D01*
X169729561Y-95360644D01*
X169729500Y-95356750D01*
X169729500Y-95333044D01*
X169729500Y-95329150D01*
X169728998Y-95325181D01*
X169728080Y-95313524D01*
X169726709Y-95269873D01*
X169721120Y-95250640D01*
X169717174Y-95231582D01*
X169714664Y-95211708D01*
X169698588Y-95171106D01*
X169694804Y-95160052D01*
X169682619Y-95118113D01*
X169682618Y-95118112D01*
X169682618Y-95118110D01*
X169672417Y-95100861D01*
X169663860Y-95083395D01*
X169656486Y-95064768D01*
X169630813Y-95029432D01*
X169624402Y-95019672D01*
X169602169Y-94982078D01*
X169588006Y-94967915D01*
X169575369Y-94953120D01*
X169563595Y-94936914D01*
X169563594Y-94936913D01*
X169529935Y-94909068D01*
X169521305Y-94901214D01*
X168539772Y-93919681D01*
X168506287Y-93858358D01*
X168511271Y-93788666D01*
X168553143Y-93732733D01*
X168618607Y-93708316D01*
X168627453Y-93708000D01*
X181590256Y-93708000D01*
X181610762Y-93710264D01*
X181613665Y-93710172D01*
X181613667Y-93710173D01*
X181680872Y-93708061D01*
X181684768Y-93708000D01*
X181708448Y-93708000D01*
X181712350Y-93708000D01*
X181716313Y-93707499D01*
X181727962Y-93706580D01*
X181771627Y-93705209D01*
X181790859Y-93699620D01*
X181809918Y-93695674D01*
X181817099Y-93694767D01*
X181829792Y-93693164D01*
X181870407Y-93677082D01*
X181881444Y-93673303D01*
X181923390Y-93661118D01*
X181940629Y-93650922D01*
X181958102Y-93642362D01*
X181976732Y-93634986D01*
X182012064Y-93609314D01*
X182021830Y-93602900D01*
X182059418Y-93580671D01*
X182059417Y-93580671D01*
X182059420Y-93580670D01*
X182073585Y-93566504D01*
X182088373Y-93553873D01*
X182104587Y-93542094D01*
X182132438Y-93508426D01*
X182140279Y-93499809D01*
X188318937Y-87321151D01*
X188380258Y-87287668D01*
X188445620Y-87291128D01*
X188525202Y-87317499D01*
X188624858Y-87327680D01*
X188624859Y-87327680D01*
X188627991Y-87328000D01*
X190728008Y-87327999D01*
X190830797Y-87317499D01*
X190997334Y-87262314D01*
X191146656Y-87170212D01*
X191270712Y-87046156D01*
X191362814Y-86896834D01*
X191417999Y-86730297D01*
X191428500Y-86627509D01*
X191428499Y-83527492D01*
X191417999Y-83424703D01*
X191362814Y-83258166D01*
X191270712Y-83108844D01*
X191270711Y-83108842D01*
X191146657Y-82984788D01*
X190997334Y-82892686D01*
X190830797Y-82837500D01*
X190731141Y-82827319D01*
X190731122Y-82827318D01*
X190728009Y-82827000D01*
X190724860Y-82827000D01*
X188631140Y-82827000D01*
X188631120Y-82827000D01*
X188627992Y-82827001D01*
X188624860Y-82827320D01*
X188624858Y-82827321D01*
X188525203Y-82837500D01*
X188358665Y-82892686D01*
X188209342Y-82984788D01*
X188085288Y-83108842D01*
X187993186Y-83258165D01*
X187938000Y-83424702D01*
X187927819Y-83524358D01*
X187927817Y-83524378D01*
X187927500Y-83527491D01*
X187927500Y-83530639D01*
X187927500Y-85892047D01*
X187907815Y-85959086D01*
X187891181Y-85979728D01*
X181450228Y-92420681D01*
X181388905Y-92454166D01*
X181362547Y-92457000D01*
X168200928Y-92457000D01*
X168133889Y-92437315D01*
X168095389Y-92398096D01*
X168035711Y-92301342D01*
X167911657Y-92177288D01*
X167762334Y-92085186D01*
X167595797Y-92030000D01*
X167496141Y-92019819D01*
X167496122Y-92019818D01*
X167493009Y-92019500D01*
X167489860Y-92019500D01*
X166146140Y-92019500D01*
X166146120Y-92019500D01*
X166142992Y-92019501D01*
X166139860Y-92019820D01*
X166139858Y-92019821D01*
X166040203Y-92030000D01*
X165873665Y-92085186D01*
X165724342Y-92177288D01*
X165600288Y-92301342D01*
X165540611Y-92398096D01*
X165488663Y-92444821D01*
X165435072Y-92457000D01*
X162023452Y-92457000D01*
X161956413Y-92437315D01*
X161935771Y-92420681D01*
X160627104Y-91112014D01*
X160593619Y-91050691D01*
X160591427Y-91011737D01*
X160598500Y-90942509D01*
X160598499Y-90201950D01*
X160618183Y-90134912D01*
X160670987Y-90089157D01*
X160740146Y-90079213D01*
X160803702Y-90108238D01*
X160810168Y-90114259D01*
X161095528Y-90399619D01*
X161237196Y-90541287D01*
X161250096Y-90557388D01*
X161301223Y-90605400D01*
X161304020Y-90608111D01*
X161323529Y-90627620D01*
X161326709Y-90630087D01*
X161335571Y-90637655D01*
X161367418Y-90667562D01*
X161384970Y-90677211D01*
X161401238Y-90687897D01*
X161417064Y-90700173D01*
X161457146Y-90717517D01*
X161467633Y-90722655D01*
X161505907Y-90743697D01*
X161514410Y-90745879D01*
X161525308Y-90748678D01*
X161543713Y-90754978D01*
X161562104Y-90762937D01*
X161605250Y-90769770D01*
X161616668Y-90772135D01*
X161658981Y-90783000D01*
X161679016Y-90783000D01*
X161698415Y-90784527D01*
X161718196Y-90787660D01*
X161761674Y-90783550D01*
X161773344Y-90783000D01*
X165435072Y-90783000D01*
X165502111Y-90802685D01*
X165540611Y-90841904D01*
X165600288Y-90938657D01*
X165724342Y-91062711D01*
X165724344Y-91062712D01*
X165873666Y-91154814D01*
X165985016Y-91191712D01*
X166040202Y-91209999D01*
X166139858Y-91220180D01*
X166139859Y-91220180D01*
X166142991Y-91220500D01*
X167493008Y-91220499D01*
X167595797Y-91209999D01*
X167762334Y-91154814D01*
X167911656Y-91062712D01*
X168035712Y-90938656D01*
X168127814Y-90789334D01*
X168182999Y-90622797D01*
X168193500Y-90520009D01*
X168193499Y-89794992D01*
X168182999Y-89692203D01*
X168127814Y-89525666D01*
X168035712Y-89376344D01*
X168035711Y-89376342D01*
X167911657Y-89252288D01*
X167762334Y-89160186D01*
X167595797Y-89105000D01*
X167496141Y-89094819D01*
X167496122Y-89094818D01*
X167493009Y-89094500D01*
X167489860Y-89094500D01*
X166146140Y-89094500D01*
X166146120Y-89094500D01*
X166142992Y-89094501D01*
X166139860Y-89094820D01*
X166139858Y-89094821D01*
X166040203Y-89105000D01*
X165873665Y-89160186D01*
X165724342Y-89252288D01*
X165600288Y-89376342D01*
X165540611Y-89473096D01*
X165488663Y-89519821D01*
X165435072Y-89532000D01*
X162048453Y-89532000D01*
X161981414Y-89512315D01*
X161960772Y-89495681D01*
X160627104Y-88162013D01*
X160593619Y-88100690D01*
X160591427Y-88061736D01*
X160598500Y-87992509D01*
X160598499Y-87242492D01*
X160587999Y-87139703D01*
X160532814Y-86973166D01*
X160440712Y-86823844D01*
X160440711Y-86823842D01*
X160316657Y-86699788D01*
X160167334Y-86607686D01*
X160000797Y-86552500D01*
X159901141Y-86542319D01*
X159901122Y-86542318D01*
X159898009Y-86542000D01*
X159894860Y-86542000D01*
X158501140Y-86542000D01*
X158501120Y-86542000D01*
X158497992Y-86542001D01*
X158494860Y-86542320D01*
X158494858Y-86542321D01*
X158395203Y-86552500D01*
X158228665Y-86607686D01*
X158079342Y-86699788D01*
X157955288Y-86823842D01*
X157887901Y-86933096D01*
X157835953Y-86979821D01*
X157782362Y-86992000D01*
X153815744Y-86992000D01*
X153795237Y-86989735D01*
X153725127Y-86991939D01*
X153721232Y-86992000D01*
X153693650Y-86992000D01*
X153689805Y-86992485D01*
X153689780Y-86992487D01*
X153689653Y-86992504D01*
X153678033Y-86993418D01*
X153634369Y-86994790D01*
X153615129Y-87000380D01*
X153596081Y-87004325D01*
X153576209Y-87006835D01*
X153535599Y-87022913D01*
X153524554Y-87026694D01*
X153482610Y-87038881D01*
X153465365Y-87049079D01*
X153447904Y-87057633D01*
X153429267Y-87065012D01*
X153393931Y-87090685D01*
X153384174Y-87097095D01*
X153346580Y-87119329D01*
X153332413Y-87133496D01*
X153317624Y-87146126D01*
X153301413Y-87157904D01*
X153273572Y-87191558D01*
X153265711Y-87200197D01*
X151059328Y-89406581D01*
X150998005Y-89440066D01*
X150971647Y-89442900D01*
X150531728Y-89442900D01*
X150464689Y-89423215D01*
X150426189Y-89383996D01*
X150366511Y-89287242D01*
X150242457Y-89163188D01*
X150093134Y-89071086D01*
X149926597Y-89015900D01*
X149826941Y-89005719D01*
X149826922Y-89005718D01*
X149823809Y-89005400D01*
X149820660Y-89005400D01*
X148476940Y-89005400D01*
X148476920Y-89005400D01*
X148473792Y-89005401D01*
X148470660Y-89005720D01*
X148470658Y-89005721D01*
X148371003Y-89015900D01*
X148204465Y-89071086D01*
X148055142Y-89163188D01*
X147931088Y-89287242D01*
X147838986Y-89436565D01*
X147783800Y-89603102D01*
X147773619Y-89702758D01*
X147773617Y-89702778D01*
X147773300Y-89705891D01*
X147773300Y-89709038D01*
X147773300Y-89709039D01*
X147773300Y-90427758D01*
X147773300Y-90427777D01*
X147773301Y-90430908D01*
X147773620Y-90434040D01*
X147773621Y-90434041D01*
X147783800Y-90533696D01*
X147838986Y-90700234D01*
X147931088Y-90849557D01*
X148055142Y-90973611D01*
X148055144Y-90973612D01*
X148204466Y-91065714D01*
X148315817Y-91102612D01*
X148371002Y-91120899D01*
X148470658Y-91131080D01*
X148470659Y-91131080D01*
X148473791Y-91131400D01*
X149275846Y-91131399D01*
X149342885Y-91151083D01*
X149363527Y-91167718D01*
X149816396Y-91620587D01*
X149829296Y-91636688D01*
X149831413Y-91638676D01*
X149831414Y-91638677D01*
X149856978Y-91662683D01*
X149880423Y-91684700D01*
X149883220Y-91687411D01*
X149902729Y-91706920D01*
X149905909Y-91709387D01*
X149914771Y-91716955D01*
X149946618Y-91746862D01*
X149964170Y-91756511D01*
X149980438Y-91767197D01*
X149996264Y-91779473D01*
X150036346Y-91796817D01*
X150046833Y-91801955D01*
X150085107Y-91822997D01*
X150093610Y-91825179D01*
X150104508Y-91827978D01*
X150122913Y-91834278D01*
X150141304Y-91842237D01*
X150184450Y-91849070D01*
X150195868Y-91851435D01*
X150238181Y-91862300D01*
X150258216Y-91862300D01*
X150277615Y-91863827D01*
X150297396Y-91866960D01*
X150340874Y-91862850D01*
X150352544Y-91862300D01*
X151643500Y-91862300D01*
X151710539Y-91881985D01*
X151756294Y-91934789D01*
X151767500Y-91986300D01*
X151767500Y-116972046D01*
X151747815Y-117039085D01*
X151731181Y-117059727D01*
X148815228Y-119975681D01*
X148753905Y-120009166D01*
X148727547Y-120012000D01*
X145515279Y-120012000D01*
X145448240Y-119992315D01*
X145427598Y-119975681D01*
X144204818Y-118752900D01*
X144171333Y-118691577D01*
X144168499Y-118665219D01*
X144168499Y-114990640D01*
X144168499Y-114990639D01*
X144168499Y-114987492D01*
X144157999Y-114884703D01*
X144102814Y-114718166D01*
X144010712Y-114568844D01*
X144010711Y-114568842D01*
X143886657Y-114444788D01*
X143737334Y-114352686D01*
X143570797Y-114297500D01*
X143471141Y-114287319D01*
X143471122Y-114287318D01*
X143468009Y-114287000D01*
X143464860Y-114287000D01*
X142771141Y-114287000D01*
X142771121Y-114287000D01*
X142767992Y-114287001D01*
X142764860Y-114287320D01*
X142764858Y-114287321D01*
X142665203Y-114297500D01*
X142498665Y-114352686D01*
X142349342Y-114444788D01*
X142225288Y-114568842D01*
X142133186Y-114718165D01*
X142078000Y-114884702D01*
X142067819Y-114984358D01*
X142067817Y-114984378D01*
X142067500Y-114987491D01*
X142067500Y-114990638D01*
X142067500Y-114990639D01*
X142067500Y-119184359D01*
X142067500Y-119184378D01*
X141236296Y-119184378D01*
X140804818Y-118752900D01*
X140771333Y-118691577D01*
X140768499Y-118665219D01*
X140768499Y-114990640D01*
X140768499Y-114990639D01*
X140768499Y-114987492D01*
X140757999Y-114884703D01*
X140702814Y-114718166D01*
X140610712Y-114568844D01*
X140610711Y-114568842D01*
X140486657Y-114444788D01*
X140337334Y-114352686D01*
X140170797Y-114297500D01*
X140071141Y-114287319D01*
X140071122Y-114287318D01*
X140068009Y-114287000D01*
X140064860Y-114287000D01*
X139371141Y-114287000D01*
X139371121Y-114287000D01*
X139367992Y-114287001D01*
X139364860Y-114287320D01*
X139364858Y-114287321D01*
X139265203Y-114297500D01*
X139098665Y-114352686D01*
X138937008Y-114452397D01*
X138935278Y-114449592D01*
X138894343Y-114471939D01*
X138824652Y-114466945D01*
X138799850Y-114451005D01*
X138798992Y-114452397D01*
X138637334Y-114352686D01*
X138470797Y-114297500D01*
X138371141Y-114287319D01*
X138371122Y-114287318D01*
X138368009Y-114287000D01*
X138364860Y-114287000D01*
X137671141Y-114287000D01*
X137671121Y-114287000D01*
X137667992Y-114287001D01*
X137664860Y-114287320D01*
X137664858Y-114287321D01*
X137565203Y-114297500D01*
X137398665Y-114352686D01*
X137249342Y-114444788D01*
X137125288Y-114568842D01*
X137033186Y-114718165D01*
X136978000Y-114884702D01*
X136967819Y-114984358D01*
X136967817Y-114984378D01*
X136967500Y-114987491D01*
X136967500Y-114990638D01*
X136967500Y-114990639D01*
X136967500Y-117202047D01*
X136947815Y-117269086D01*
X136931181Y-117289728D01*
X131705228Y-122515681D01*
X131643905Y-122549166D01*
X131617547Y-122552000D01*
X117827452Y-122552000D01*
X117760413Y-122532315D01*
X117714658Y-122479511D01*
X117704714Y-122410353D01*
X117733739Y-122346797D01*
X117739771Y-122340319D01*
X118230708Y-121849382D01*
X119726786Y-120353302D01*
X119742886Y-120340405D01*
X119744874Y-120338287D01*
X119744877Y-120338286D01*
X119790964Y-120289207D01*
X119793549Y-120286539D01*
X119813120Y-120266970D01*
X119815565Y-120263816D01*
X119823154Y-120254929D01*
X119853062Y-120223082D01*
X119862713Y-120205526D01*
X119873393Y-120189267D01*
X119885674Y-120173436D01*
X119903018Y-120133351D01*
X119908160Y-120122856D01*
X119929197Y-120084592D01*
X119934178Y-120065188D01*
X119940480Y-120046783D01*
X119948438Y-120028395D01*
X119955270Y-119985248D01*
X119957639Y-119973816D01*
X119968499Y-119931521D01*
X119968500Y-119931519D01*
X119968500Y-119911473D01*
X119970024Y-119892102D01*
X119973160Y-119872304D01*
X119969050Y-119828824D01*
X119968500Y-119817155D01*
X119968500Y-88485240D01*
X119970763Y-88464739D01*
X119968561Y-88394644D01*
X119968500Y-88390750D01*
X119968500Y-88367044D01*
X119968500Y-88363150D01*
X119967998Y-88359181D01*
X119967080Y-88347524D01*
X119965709Y-88303873D01*
X119960120Y-88284640D01*
X119956174Y-88265582D01*
X119953664Y-88245706D01*
X119937588Y-88205104D01*
X119933804Y-88194053D01*
X119924495Y-88162013D01*
X119921618Y-88152110D01*
X119911414Y-88134855D01*
X119902861Y-88117395D01*
X119895486Y-88098769D01*
X119895486Y-88098768D01*
X119869808Y-88063425D01*
X119863401Y-88053671D01*
X119841169Y-88016079D01*
X119827006Y-88001916D01*
X119814367Y-87987117D01*
X119802595Y-87970913D01*
X119768941Y-87943073D01*
X119760299Y-87935209D01*
X117804818Y-85979728D01*
X117771333Y-85918405D01*
X117768499Y-85892047D01*
X117768499Y-83530640D01*
X117768498Y-83530639D01*
X117768499Y-83527492D01*
X117757999Y-83424703D01*
X117702814Y-83258166D01*
X117610712Y-83108844D01*
X117610711Y-83108842D01*
X117486657Y-82984788D01*
X117337334Y-82892686D01*
X117170797Y-82837500D01*
X117071141Y-82827319D01*
X117071122Y-82827318D01*
X117068009Y-82827000D01*
X117064860Y-82827000D01*
X114971140Y-82827000D01*
X114971120Y-82827000D01*
X114967992Y-82827001D01*
X114964860Y-82827320D01*
X114964858Y-82827321D01*
X114865203Y-82837500D01*
X114698665Y-82892686D01*
X114549342Y-82984788D01*
X114425288Y-83108842D01*
X114333186Y-83258165D01*
X114278000Y-83424702D01*
X114267819Y-83524358D01*
X114267817Y-83524378D01*
X114267500Y-83527491D01*
X114267500Y-83530638D01*
X114267500Y-83530639D01*
X114267500Y-86624359D01*
X114267500Y-86624378D01*
X114267501Y-86627508D01*
X114267820Y-86630640D01*
X114267821Y-86630641D01*
X114278000Y-86730296D01*
X114333186Y-86896834D01*
X114425288Y-87046157D01*
X114549342Y-87170211D01*
X114591254Y-87196062D01*
X114698666Y-87262314D01*
X114785621Y-87291128D01*
X114865202Y-87317499D01*
X114964858Y-87327680D01*
X114964859Y-87327680D01*
X114967991Y-87328000D01*
X117068008Y-87327999D01*
X117170797Y-87317499D01*
X117250378Y-87291127D01*
X117320205Y-87288726D01*
X117377062Y-87321153D01*
X118681180Y-88625271D01*
X118714665Y-88686594D01*
X118717499Y-88712952D01*
X118717500Y-119542046D01*
X118697815Y-119609085D01*
X118681181Y-119629727D01*
X116826978Y-121483930D01*
X116765655Y-121517415D01*
X116695963Y-121512431D01*
X116640030Y-121470559D01*
X116635302Y-121463784D01*
X116475451Y-121217634D01*
X116244549Y-120932494D01*
X115985106Y-120673051D01*
X115699966Y-120442149D01*
X115392252Y-120242318D01*
X115389364Y-120240846D01*
X115389358Y-120240843D01*
X115068217Y-120077213D01*
X115065336Y-120075745D01*
X115062315Y-120074585D01*
X115062312Y-120074584D01*
X114725841Y-119945425D01*
X114725828Y-119945421D01*
X114722799Y-119944258D01*
X114719670Y-119943419D01*
X114719656Y-119943415D01*
X114371535Y-119850136D01*
X114371523Y-119850133D01*
X114368394Y-119849295D01*
X114365181Y-119848786D01*
X114365176Y-119848785D01*
X114009209Y-119792405D01*
X114009197Y-119792403D01*
X114006004Y-119791898D01*
X114002771Y-119791728D01*
X114002766Y-119791728D01*
X113642844Y-119772866D01*
X113639600Y-119772696D01*
X113636356Y-119772866D01*
X113276433Y-119791728D01*
X113276426Y-119791728D01*
X113273196Y-119791898D01*
X113270004Y-119792403D01*
X113269990Y-119792405D01*
X112914023Y-119848785D01*
X112914014Y-119848786D01*
X112910806Y-119849295D01*
X112907680Y-119850132D01*
X112907664Y-119850136D01*
X112559543Y-119943415D01*
X112559523Y-119943421D01*
X112556401Y-119944258D01*
X112553376Y-119945418D01*
X112553358Y-119945425D01*
X112216887Y-120074584D01*
X112216877Y-120074588D01*
X112213864Y-120075745D01*
X112210989Y-120077209D01*
X112210982Y-120077213D01*
X111889841Y-120240843D01*
X111889827Y-120240850D01*
X111886948Y-120242318D01*
X111884228Y-120244084D01*
X111884220Y-120244089D01*
X111581962Y-120440377D01*
X111581956Y-120440380D01*
X111579234Y-120442149D01*
X111576714Y-120444189D01*
X111576708Y-120444194D01*
X111296612Y-120671011D01*
X111296601Y-120671020D01*
X111294094Y-120673051D01*
X111291809Y-120675335D01*
X111291799Y-120675345D01*
X111036945Y-120930199D01*
X111036935Y-120930209D01*
X111034651Y-120932494D01*
X111032620Y-120935001D01*
X111032611Y-120935012D01*
X110805794Y-121215108D01*
X110805789Y-121215114D01*
X110803749Y-121217634D01*
X110801980Y-121220356D01*
X110801977Y-121220362D01*
X110605689Y-121522620D01*
X110605684Y-121522628D01*
X110603918Y-121525348D01*
X110602450Y-121528227D01*
X110602443Y-121528241D01*
X110487012Y-121754787D01*
X110437345Y-121852264D01*
X110436188Y-121855277D01*
X110436184Y-121855287D01*
X110307025Y-122191758D01*
X110307018Y-122191776D01*
X110305858Y-122194801D01*
X110305021Y-122197923D01*
X110305015Y-122197943D01*
X110211736Y-122546064D01*
X110211732Y-122546080D01*
X110210895Y-122549206D01*
X110210386Y-122552414D01*
X110210385Y-122552423D01*
X110154005Y-122908390D01*
X110154003Y-122908404D01*
X110153498Y-122911596D01*
X110134296Y-123278000D01*
X107137700Y-123278000D01*
X107137700Y-80896500D01*
X107157385Y-80829461D01*
X107210189Y-80783706D01*
X107261700Y-80772500D01*
X196665500Y-80772500D01*
X196732539Y-80792185D01*
G37*
%TD.AperFunction*%
%TD*%
M02*
