%TF.GenerationSoftware,KiCad,Pcbnew,7.0.2*%
%TF.CreationDate,2023-09-08T16:08:13-07:00*%
%TF.ProjectId,Buck Converter,4275636b-2043-46f6-9e76-65727465722e,rev?*%
%TF.SameCoordinates,Original*%
%TF.FileFunction,Drillmap*%
%TF.FilePolarity,Positive*%
%FSLAX45Y45*%
G04 Gerber Fmt 4.5, Leading zero omitted, Abs format (unit mm)*
G04 Created by KiCad (PCBNEW 7.0.2) date 2023-09-08 16:08:13*
%MOMM*%
%LPD*%
G01*
G04 APERTURE LIST*
%ADD10C,0.200000*%
%ADD11C,0.450000*%
G04 APERTURE END LIST*
D10*
X10713720Y-8077200D02*
X19679000Y-8077200D01*
X19679000Y-13713500D01*
X10713720Y-13713500D01*
X10713720Y-8077200D01*
D11*
X11138960Y-11382800D02*
X11588960Y-11832800D01*
X11588960Y-11382800D02*
X11138960Y-11832800D01*
X11138960Y-12102800D02*
X11588960Y-12552800D01*
X11588960Y-12102800D02*
X11138960Y-12552800D01*
X18742800Y-11372750D02*
X19192800Y-11822750D01*
X19192800Y-11372750D02*
X18742800Y-11822750D01*
X18742800Y-12092750D02*
X19192800Y-12542750D01*
X19192800Y-12092750D02*
X18742800Y-12542750D01*
D10*
X10951339Y-14036024D02*
X10951339Y-13836024D01*
X10951339Y-13836024D02*
X10998958Y-13836024D01*
X10998958Y-13836024D02*
X11027530Y-13845548D01*
X11027530Y-13845548D02*
X11046577Y-13864595D01*
X11046577Y-13864595D02*
X11056101Y-13883643D01*
X11056101Y-13883643D02*
X11065625Y-13921738D01*
X11065625Y-13921738D02*
X11065625Y-13950309D01*
X11065625Y-13950309D02*
X11056101Y-13988405D01*
X11056101Y-13988405D02*
X11046577Y-14007452D01*
X11046577Y-14007452D02*
X11027530Y-14026500D01*
X11027530Y-14026500D02*
X10998958Y-14036024D01*
X10998958Y-14036024D02*
X10951339Y-14036024D01*
X11151339Y-14036024D02*
X11151339Y-13902690D01*
X11151339Y-13940786D02*
X11160863Y-13921738D01*
X11160863Y-13921738D02*
X11170387Y-13912214D01*
X11170387Y-13912214D02*
X11189434Y-13902690D01*
X11189434Y-13902690D02*
X11208482Y-13902690D01*
X11275148Y-14036024D02*
X11275148Y-13902690D01*
X11275148Y-13836024D02*
X11265625Y-13845548D01*
X11265625Y-13845548D02*
X11275148Y-13855071D01*
X11275148Y-13855071D02*
X11284672Y-13845548D01*
X11284672Y-13845548D02*
X11275148Y-13836024D01*
X11275148Y-13836024D02*
X11275148Y-13855071D01*
X11398958Y-14036024D02*
X11379910Y-14026500D01*
X11379910Y-14026500D02*
X11370387Y-14007452D01*
X11370387Y-14007452D02*
X11370387Y-13836024D01*
X11503720Y-14036024D02*
X11484672Y-14026500D01*
X11484672Y-14026500D02*
X11475148Y-14007452D01*
X11475148Y-14007452D02*
X11475148Y-13836024D01*
X11732291Y-14036024D02*
X11732291Y-13836024D01*
X11732291Y-13836024D02*
X11798958Y-13978881D01*
X11798958Y-13978881D02*
X11865625Y-13836024D01*
X11865625Y-13836024D02*
X11865625Y-14036024D01*
X12046577Y-14036024D02*
X12046577Y-13931262D01*
X12046577Y-13931262D02*
X12037053Y-13912214D01*
X12037053Y-13912214D02*
X12018006Y-13902690D01*
X12018006Y-13902690D02*
X11979910Y-13902690D01*
X11979910Y-13902690D02*
X11960863Y-13912214D01*
X12046577Y-14026500D02*
X12027529Y-14036024D01*
X12027529Y-14036024D02*
X11979910Y-14036024D01*
X11979910Y-14036024D02*
X11960863Y-14026500D01*
X11960863Y-14026500D02*
X11951339Y-14007452D01*
X11951339Y-14007452D02*
X11951339Y-13988405D01*
X11951339Y-13988405D02*
X11960863Y-13969357D01*
X11960863Y-13969357D02*
X11979910Y-13959833D01*
X11979910Y-13959833D02*
X12027529Y-13959833D01*
X12027529Y-13959833D02*
X12046577Y-13950309D01*
X12141815Y-13902690D02*
X12141815Y-14102690D01*
X12141815Y-13912214D02*
X12160863Y-13902690D01*
X12160863Y-13902690D02*
X12198958Y-13902690D01*
X12198958Y-13902690D02*
X12218006Y-13912214D01*
X12218006Y-13912214D02*
X12227529Y-13921738D01*
X12227529Y-13921738D02*
X12237053Y-13940786D01*
X12237053Y-13940786D02*
X12237053Y-13997928D01*
X12237053Y-13997928D02*
X12227529Y-14016976D01*
X12227529Y-14016976D02*
X12218006Y-14026500D01*
X12218006Y-14026500D02*
X12198958Y-14036024D01*
X12198958Y-14036024D02*
X12160863Y-14036024D01*
X12160863Y-14036024D02*
X12141815Y-14026500D01*
X12322768Y-14016976D02*
X12332291Y-14026500D01*
X12332291Y-14026500D02*
X12322768Y-14036024D01*
X12322768Y-14036024D02*
X12313244Y-14026500D01*
X12313244Y-14026500D02*
X12322768Y-14016976D01*
X12322768Y-14016976D02*
X12322768Y-14036024D01*
X12322768Y-13912214D02*
X12332291Y-13921738D01*
X12332291Y-13921738D02*
X12322768Y-13931262D01*
X12322768Y-13931262D02*
X12313244Y-13921738D01*
X12313244Y-13921738D02*
X12322768Y-13912214D01*
X12322768Y-13912214D02*
X12322768Y-13931262D01*
X10503720Y-14263500D02*
X10703720Y-14463500D01*
X10703720Y-14263500D02*
X10503720Y-14463500D01*
X11037053Y-14322690D02*
X11037053Y-14456024D01*
X10989434Y-14246500D02*
X10941815Y-14389357D01*
X10941815Y-14389357D02*
X11065625Y-14389357D01*
X11141815Y-14436976D02*
X11151339Y-14446500D01*
X11151339Y-14446500D02*
X11141815Y-14456024D01*
X11141815Y-14456024D02*
X11132291Y-14446500D01*
X11132291Y-14446500D02*
X11141815Y-14436976D01*
X11141815Y-14436976D02*
X11141815Y-14456024D01*
X11332291Y-14256024D02*
X11237053Y-14256024D01*
X11237053Y-14256024D02*
X11227529Y-14351262D01*
X11227529Y-14351262D02*
X11237053Y-14341738D01*
X11237053Y-14341738D02*
X11256101Y-14332214D01*
X11256101Y-14332214D02*
X11303720Y-14332214D01*
X11303720Y-14332214D02*
X11322768Y-14341738D01*
X11322768Y-14341738D02*
X11332291Y-14351262D01*
X11332291Y-14351262D02*
X11341815Y-14370309D01*
X11341815Y-14370309D02*
X11341815Y-14417928D01*
X11341815Y-14417928D02*
X11332291Y-14436976D01*
X11332291Y-14436976D02*
X11322768Y-14446500D01*
X11322768Y-14446500D02*
X11303720Y-14456024D01*
X11303720Y-14456024D02*
X11256101Y-14456024D01*
X11256101Y-14456024D02*
X11237053Y-14446500D01*
X11237053Y-14446500D02*
X11227529Y-14436976D01*
X11465625Y-14256024D02*
X11484672Y-14256024D01*
X11484672Y-14256024D02*
X11503720Y-14265548D01*
X11503720Y-14265548D02*
X11513244Y-14275071D01*
X11513244Y-14275071D02*
X11522768Y-14294119D01*
X11522768Y-14294119D02*
X11532291Y-14332214D01*
X11532291Y-14332214D02*
X11532291Y-14379833D01*
X11532291Y-14379833D02*
X11522768Y-14417928D01*
X11522768Y-14417928D02*
X11513244Y-14436976D01*
X11513244Y-14436976D02*
X11503720Y-14446500D01*
X11503720Y-14446500D02*
X11484672Y-14456024D01*
X11484672Y-14456024D02*
X11465625Y-14456024D01*
X11465625Y-14456024D02*
X11446577Y-14446500D01*
X11446577Y-14446500D02*
X11437053Y-14436976D01*
X11437053Y-14436976D02*
X11427529Y-14417928D01*
X11427529Y-14417928D02*
X11418006Y-14379833D01*
X11418006Y-14379833D02*
X11418006Y-14332214D01*
X11418006Y-14332214D02*
X11427529Y-14294119D01*
X11427529Y-14294119D02*
X11437053Y-14275071D01*
X11437053Y-14275071D02*
X11446577Y-14265548D01*
X11446577Y-14265548D02*
X11465625Y-14256024D01*
X11656101Y-14256024D02*
X11675149Y-14256024D01*
X11675149Y-14256024D02*
X11694196Y-14265548D01*
X11694196Y-14265548D02*
X11703720Y-14275071D01*
X11703720Y-14275071D02*
X11713244Y-14294119D01*
X11713244Y-14294119D02*
X11722768Y-14332214D01*
X11722768Y-14332214D02*
X11722768Y-14379833D01*
X11722768Y-14379833D02*
X11713244Y-14417928D01*
X11713244Y-14417928D02*
X11703720Y-14436976D01*
X11703720Y-14436976D02*
X11694196Y-14446500D01*
X11694196Y-14446500D02*
X11675149Y-14456024D01*
X11675149Y-14456024D02*
X11656101Y-14456024D01*
X11656101Y-14456024D02*
X11637053Y-14446500D01*
X11637053Y-14446500D02*
X11627529Y-14436976D01*
X11627529Y-14436976D02*
X11618006Y-14417928D01*
X11618006Y-14417928D02*
X11608482Y-14379833D01*
X11608482Y-14379833D02*
X11608482Y-14332214D01*
X11608482Y-14332214D02*
X11618006Y-14294119D01*
X11618006Y-14294119D02*
X11627529Y-14275071D01*
X11627529Y-14275071D02*
X11637053Y-14265548D01*
X11637053Y-14265548D02*
X11656101Y-14256024D01*
X11808482Y-14456024D02*
X11808482Y-14322690D01*
X11808482Y-14341738D02*
X11818006Y-14332214D01*
X11818006Y-14332214D02*
X11837053Y-14322690D01*
X11837053Y-14322690D02*
X11865625Y-14322690D01*
X11865625Y-14322690D02*
X11884672Y-14332214D01*
X11884672Y-14332214D02*
X11894196Y-14351262D01*
X11894196Y-14351262D02*
X11894196Y-14456024D01*
X11894196Y-14351262D02*
X11903720Y-14332214D01*
X11903720Y-14332214D02*
X11922768Y-14322690D01*
X11922768Y-14322690D02*
X11951339Y-14322690D01*
X11951339Y-14322690D02*
X11970387Y-14332214D01*
X11970387Y-14332214D02*
X11979910Y-14351262D01*
X11979910Y-14351262D02*
X11979910Y-14456024D01*
X12075149Y-14456024D02*
X12075149Y-14322690D01*
X12075149Y-14341738D02*
X12084672Y-14332214D01*
X12084672Y-14332214D02*
X12103720Y-14322690D01*
X12103720Y-14322690D02*
X12132291Y-14322690D01*
X12132291Y-14322690D02*
X12151339Y-14332214D01*
X12151339Y-14332214D02*
X12160863Y-14351262D01*
X12160863Y-14351262D02*
X12160863Y-14456024D01*
X12160863Y-14351262D02*
X12170387Y-14332214D01*
X12170387Y-14332214D02*
X12189434Y-14322690D01*
X12189434Y-14322690D02*
X12218006Y-14322690D01*
X12218006Y-14322690D02*
X12237053Y-14332214D01*
X12237053Y-14332214D02*
X12246577Y-14351262D01*
X12246577Y-14351262D02*
X12246577Y-14456024D01*
X12637053Y-14246500D02*
X12465625Y-14503643D01*
X12894196Y-14256024D02*
X12913244Y-14256024D01*
X12913244Y-14256024D02*
X12932292Y-14265548D01*
X12932292Y-14265548D02*
X12941815Y-14275071D01*
X12941815Y-14275071D02*
X12951339Y-14294119D01*
X12951339Y-14294119D02*
X12960863Y-14332214D01*
X12960863Y-14332214D02*
X12960863Y-14379833D01*
X12960863Y-14379833D02*
X12951339Y-14417928D01*
X12951339Y-14417928D02*
X12941815Y-14436976D01*
X12941815Y-14436976D02*
X12932292Y-14446500D01*
X12932292Y-14446500D02*
X12913244Y-14456024D01*
X12913244Y-14456024D02*
X12894196Y-14456024D01*
X12894196Y-14456024D02*
X12875149Y-14446500D01*
X12875149Y-14446500D02*
X12865625Y-14436976D01*
X12865625Y-14436976D02*
X12856101Y-14417928D01*
X12856101Y-14417928D02*
X12846577Y-14379833D01*
X12846577Y-14379833D02*
X12846577Y-14332214D01*
X12846577Y-14332214D02*
X12856101Y-14294119D01*
X12856101Y-14294119D02*
X12865625Y-14275071D01*
X12865625Y-14275071D02*
X12875149Y-14265548D01*
X12875149Y-14265548D02*
X12894196Y-14256024D01*
X13046577Y-14436976D02*
X13056101Y-14446500D01*
X13056101Y-14446500D02*
X13046577Y-14456024D01*
X13046577Y-14456024D02*
X13037053Y-14446500D01*
X13037053Y-14446500D02*
X13046577Y-14436976D01*
X13046577Y-14436976D02*
X13046577Y-14456024D01*
X13246577Y-14456024D02*
X13132292Y-14456024D01*
X13189434Y-14456024D02*
X13189434Y-14256024D01*
X13189434Y-14256024D02*
X13170387Y-14284595D01*
X13170387Y-14284595D02*
X13151339Y-14303643D01*
X13151339Y-14303643D02*
X13132292Y-14313167D01*
X13313244Y-14256024D02*
X13446577Y-14256024D01*
X13446577Y-14256024D02*
X13360863Y-14456024D01*
X13503720Y-14256024D02*
X13637053Y-14256024D01*
X13637053Y-14256024D02*
X13551339Y-14456024D01*
X13703720Y-14275071D02*
X13713244Y-14265548D01*
X13713244Y-14265548D02*
X13732292Y-14256024D01*
X13732292Y-14256024D02*
X13779911Y-14256024D01*
X13779911Y-14256024D02*
X13798958Y-14265548D01*
X13798958Y-14265548D02*
X13808482Y-14275071D01*
X13808482Y-14275071D02*
X13818006Y-14294119D01*
X13818006Y-14294119D02*
X13818006Y-14313167D01*
X13818006Y-14313167D02*
X13808482Y-14341738D01*
X13808482Y-14341738D02*
X13694196Y-14456024D01*
X13694196Y-14456024D02*
X13818006Y-14456024D01*
X13894196Y-14256024D02*
X13894196Y-14294119D01*
X13970387Y-14256024D02*
X13970387Y-14294119D01*
X14265625Y-14532214D02*
X14256101Y-14522690D01*
X14256101Y-14522690D02*
X14237054Y-14494119D01*
X14237054Y-14494119D02*
X14227530Y-14475071D01*
X14227530Y-14475071D02*
X14218006Y-14446500D01*
X14218006Y-14446500D02*
X14208482Y-14398881D01*
X14208482Y-14398881D02*
X14208482Y-14360786D01*
X14208482Y-14360786D02*
X14218006Y-14313167D01*
X14218006Y-14313167D02*
X14227530Y-14284595D01*
X14227530Y-14284595D02*
X14237054Y-14265548D01*
X14237054Y-14265548D02*
X14256101Y-14236976D01*
X14256101Y-14236976D02*
X14265625Y-14227452D01*
X14427530Y-14322690D02*
X14427530Y-14456024D01*
X14379911Y-14246500D02*
X14332292Y-14389357D01*
X14332292Y-14389357D02*
X14456101Y-14389357D01*
X14684673Y-14456024D02*
X14684673Y-14256024D01*
X14770387Y-14456024D02*
X14770387Y-14351262D01*
X14770387Y-14351262D02*
X14760863Y-14332214D01*
X14760863Y-14332214D02*
X14741816Y-14322690D01*
X14741816Y-14322690D02*
X14713244Y-14322690D01*
X14713244Y-14322690D02*
X14694196Y-14332214D01*
X14694196Y-14332214D02*
X14684673Y-14341738D01*
X14894196Y-14456024D02*
X14875149Y-14446500D01*
X14875149Y-14446500D02*
X14865625Y-14436976D01*
X14865625Y-14436976D02*
X14856101Y-14417928D01*
X14856101Y-14417928D02*
X14856101Y-14360786D01*
X14856101Y-14360786D02*
X14865625Y-14341738D01*
X14865625Y-14341738D02*
X14875149Y-14332214D01*
X14875149Y-14332214D02*
X14894196Y-14322690D01*
X14894196Y-14322690D02*
X14922768Y-14322690D01*
X14922768Y-14322690D02*
X14941816Y-14332214D01*
X14941816Y-14332214D02*
X14951339Y-14341738D01*
X14951339Y-14341738D02*
X14960863Y-14360786D01*
X14960863Y-14360786D02*
X14960863Y-14417928D01*
X14960863Y-14417928D02*
X14951339Y-14436976D01*
X14951339Y-14436976D02*
X14941816Y-14446500D01*
X14941816Y-14446500D02*
X14922768Y-14456024D01*
X14922768Y-14456024D02*
X14894196Y-14456024D01*
X15075149Y-14456024D02*
X15056101Y-14446500D01*
X15056101Y-14446500D02*
X15046577Y-14427452D01*
X15046577Y-14427452D02*
X15046577Y-14256024D01*
X15227530Y-14446500D02*
X15208482Y-14456024D01*
X15208482Y-14456024D02*
X15170387Y-14456024D01*
X15170387Y-14456024D02*
X15151339Y-14446500D01*
X15151339Y-14446500D02*
X15141816Y-14427452D01*
X15141816Y-14427452D02*
X15141816Y-14351262D01*
X15141816Y-14351262D02*
X15151339Y-14332214D01*
X15151339Y-14332214D02*
X15170387Y-14322690D01*
X15170387Y-14322690D02*
X15208482Y-14322690D01*
X15208482Y-14322690D02*
X15227530Y-14332214D01*
X15227530Y-14332214D02*
X15237054Y-14351262D01*
X15237054Y-14351262D02*
X15237054Y-14370309D01*
X15237054Y-14370309D02*
X15141816Y-14389357D01*
X15313244Y-14446500D02*
X15332292Y-14456024D01*
X15332292Y-14456024D02*
X15370387Y-14456024D01*
X15370387Y-14456024D02*
X15389435Y-14446500D01*
X15389435Y-14446500D02*
X15398958Y-14427452D01*
X15398958Y-14427452D02*
X15398958Y-14417928D01*
X15398958Y-14417928D02*
X15389435Y-14398881D01*
X15389435Y-14398881D02*
X15370387Y-14389357D01*
X15370387Y-14389357D02*
X15341816Y-14389357D01*
X15341816Y-14389357D02*
X15322768Y-14379833D01*
X15322768Y-14379833D02*
X15313244Y-14360786D01*
X15313244Y-14360786D02*
X15313244Y-14351262D01*
X15313244Y-14351262D02*
X15322768Y-14332214D01*
X15322768Y-14332214D02*
X15341816Y-14322690D01*
X15341816Y-14322690D02*
X15370387Y-14322690D01*
X15370387Y-14322690D02*
X15389435Y-14332214D01*
X15465625Y-14532214D02*
X15475149Y-14522690D01*
X15475149Y-14522690D02*
X15494197Y-14494119D01*
X15494197Y-14494119D02*
X15503720Y-14475071D01*
X15503720Y-14475071D02*
X15513244Y-14446500D01*
X15513244Y-14446500D02*
X15522768Y-14398881D01*
X15522768Y-14398881D02*
X15522768Y-14360786D01*
X15522768Y-14360786D02*
X15513244Y-14313167D01*
X15513244Y-14313167D02*
X15503720Y-14284595D01*
X15503720Y-14284595D02*
X15494197Y-14265548D01*
X15494197Y-14265548D02*
X15475149Y-14236976D01*
X15475149Y-14236976D02*
X15465625Y-14227452D01*
M02*
