%TF.GenerationSoftware,KiCad,Pcbnew,7.0.2*%
%TF.CreationDate,2023-09-08T16:08:14-07:00*%
%TF.ProjectId,Buck Converter,4275636b-2043-46f6-9e76-65727465722e,rev?*%
%TF.SameCoordinates,Original*%
%TF.FileFunction,Legend,Top*%
%TF.FilePolarity,Positive*%
%FSLAX46Y46*%
G04 Gerber Fmt 4.6, Leading zero omitted, Abs format (unit mm)*
G04 Created by KiCad (PCBNEW 7.0.2) date 2023-09-08 16:08:14*
%MOMM*%
%LPD*%
G01*
G04 APERTURE LIST*
%ADD10C,0.150000*%
%ADD11C,0.120000*%
%ADD12C,0.152400*%
G04 APERTURE END LIST*
D10*
%TO.C,C_IN1*%
X121585380Y-89637023D02*
X121633000Y-89684642D01*
X121633000Y-89684642D02*
X121680619Y-89827499D01*
X121680619Y-89827499D02*
X121680619Y-89922737D01*
X121680619Y-89922737D02*
X121633000Y-90065594D01*
X121633000Y-90065594D02*
X121537761Y-90160832D01*
X121537761Y-90160832D02*
X121442523Y-90208451D01*
X121442523Y-90208451D02*
X121252047Y-90256070D01*
X121252047Y-90256070D02*
X121109190Y-90256070D01*
X121109190Y-90256070D02*
X120918714Y-90208451D01*
X120918714Y-90208451D02*
X120823476Y-90160832D01*
X120823476Y-90160832D02*
X120728238Y-90065594D01*
X120728238Y-90065594D02*
X120680619Y-89922737D01*
X120680619Y-89922737D02*
X120680619Y-89827499D01*
X120680619Y-89827499D02*
X120728238Y-89684642D01*
X120728238Y-89684642D02*
X120775857Y-89637023D01*
X121775857Y-89446547D02*
X121775857Y-88684642D01*
X121680619Y-88446546D02*
X120680619Y-88446546D01*
X121680619Y-87970356D02*
X120680619Y-87970356D01*
X120680619Y-87970356D02*
X121680619Y-87398928D01*
X121680619Y-87398928D02*
X120680619Y-87398928D01*
X121680619Y-86398928D02*
X121680619Y-86970356D01*
X121680619Y-86684642D02*
X120680619Y-86684642D01*
X120680619Y-86684642D02*
X120823476Y-86779880D01*
X120823476Y-86779880D02*
X120918714Y-86875118D01*
X120918714Y-86875118D02*
X120966333Y-86970356D01*
%TO.C,R1*%
X147791419Y-91697566D02*
X147315228Y-92030899D01*
X147791419Y-92268994D02*
X146791419Y-92268994D01*
X146791419Y-92268994D02*
X146791419Y-91888042D01*
X146791419Y-91888042D02*
X146839038Y-91792804D01*
X146839038Y-91792804D02*
X146886657Y-91745185D01*
X146886657Y-91745185D02*
X146981895Y-91697566D01*
X146981895Y-91697566D02*
X147124752Y-91697566D01*
X147124752Y-91697566D02*
X147219990Y-91745185D01*
X147219990Y-91745185D02*
X147267609Y-91792804D01*
X147267609Y-91792804D02*
X147315228Y-91888042D01*
X147315228Y-91888042D02*
X147315228Y-92268994D01*
X147791419Y-90745185D02*
X147791419Y-91316613D01*
X147791419Y-91030899D02*
X146791419Y-91030899D01*
X146791419Y-91030899D02*
X146934276Y-91126137D01*
X146934276Y-91126137D02*
X147029514Y-91221375D01*
X147029514Y-91221375D02*
X147077133Y-91316613D01*
%TO.C,C_OUT1*%
X195245380Y-90303690D02*
X195293000Y-90351309D01*
X195293000Y-90351309D02*
X195340619Y-90494166D01*
X195340619Y-90494166D02*
X195340619Y-90589404D01*
X195340619Y-90589404D02*
X195293000Y-90732261D01*
X195293000Y-90732261D02*
X195197761Y-90827499D01*
X195197761Y-90827499D02*
X195102523Y-90875118D01*
X195102523Y-90875118D02*
X194912047Y-90922737D01*
X194912047Y-90922737D02*
X194769190Y-90922737D01*
X194769190Y-90922737D02*
X194578714Y-90875118D01*
X194578714Y-90875118D02*
X194483476Y-90827499D01*
X194483476Y-90827499D02*
X194388238Y-90732261D01*
X194388238Y-90732261D02*
X194340619Y-90589404D01*
X194340619Y-90589404D02*
X194340619Y-90494166D01*
X194340619Y-90494166D02*
X194388238Y-90351309D01*
X194388238Y-90351309D02*
X194435857Y-90303690D01*
X195435857Y-90113214D02*
X195435857Y-89351309D01*
X194340619Y-88922737D02*
X194340619Y-88732261D01*
X194340619Y-88732261D02*
X194388238Y-88637023D01*
X194388238Y-88637023D02*
X194483476Y-88541785D01*
X194483476Y-88541785D02*
X194673952Y-88494166D01*
X194673952Y-88494166D02*
X195007285Y-88494166D01*
X195007285Y-88494166D02*
X195197761Y-88541785D01*
X195197761Y-88541785D02*
X195293000Y-88637023D01*
X195293000Y-88637023D02*
X195340619Y-88732261D01*
X195340619Y-88732261D02*
X195340619Y-88922737D01*
X195340619Y-88922737D02*
X195293000Y-89017975D01*
X195293000Y-89017975D02*
X195197761Y-89113213D01*
X195197761Y-89113213D02*
X195007285Y-89160832D01*
X195007285Y-89160832D02*
X194673952Y-89160832D01*
X194673952Y-89160832D02*
X194483476Y-89113213D01*
X194483476Y-89113213D02*
X194388238Y-89017975D01*
X194388238Y-89017975D02*
X194340619Y-88922737D01*
X194340619Y-88065594D02*
X195150142Y-88065594D01*
X195150142Y-88065594D02*
X195245380Y-88017975D01*
X195245380Y-88017975D02*
X195293000Y-87970356D01*
X195293000Y-87970356D02*
X195340619Y-87875118D01*
X195340619Y-87875118D02*
X195340619Y-87684642D01*
X195340619Y-87684642D02*
X195293000Y-87589404D01*
X195293000Y-87589404D02*
X195245380Y-87541785D01*
X195245380Y-87541785D02*
X195150142Y-87494166D01*
X195150142Y-87494166D02*
X194340619Y-87494166D01*
X194340619Y-87160832D02*
X194340619Y-86589404D01*
X195340619Y-86875118D02*
X194340619Y-86875118D01*
X195340619Y-85732261D02*
X195340619Y-86303689D01*
X195340619Y-86017975D02*
X194340619Y-86017975D01*
X194340619Y-86017975D02*
X194483476Y-86113213D01*
X194483476Y-86113213D02*
X194578714Y-86208451D01*
X194578714Y-86208451D02*
X194626333Y-86303689D01*
%TO.C,J2*%
X194440619Y-119910833D02*
X195154904Y-119910833D01*
X195154904Y-119910833D02*
X195297761Y-119958452D01*
X195297761Y-119958452D02*
X195393000Y-120053690D01*
X195393000Y-120053690D02*
X195440619Y-120196547D01*
X195440619Y-120196547D02*
X195440619Y-120291785D01*
X194535857Y-119482261D02*
X194488238Y-119434642D01*
X194488238Y-119434642D02*
X194440619Y-119339404D01*
X194440619Y-119339404D02*
X194440619Y-119101309D01*
X194440619Y-119101309D02*
X194488238Y-119006071D01*
X194488238Y-119006071D02*
X194535857Y-118958452D01*
X194535857Y-118958452D02*
X194631095Y-118910833D01*
X194631095Y-118910833D02*
X194726333Y-118910833D01*
X194726333Y-118910833D02*
X194869190Y-118958452D01*
X194869190Y-118958452D02*
X195440619Y-119529880D01*
X195440619Y-119529880D02*
X195440619Y-118910833D01*
%TO.C,J1*%
X118402219Y-120011333D02*
X119116504Y-120011333D01*
X119116504Y-120011333D02*
X119259361Y-120058952D01*
X119259361Y-120058952D02*
X119354600Y-120154190D01*
X119354600Y-120154190D02*
X119402219Y-120297047D01*
X119402219Y-120297047D02*
X119402219Y-120392285D01*
X119402219Y-119011333D02*
X119402219Y-119582761D01*
X119402219Y-119297047D02*
X118402219Y-119297047D01*
X118402219Y-119297047D02*
X118545076Y-119392285D01*
X118545076Y-119392285D02*
X118640314Y-119487523D01*
X118640314Y-119487523D02*
X118687933Y-119582761D01*
%TO.C,D1*%
X142254705Y-134663719D02*
X142254705Y-133663719D01*
X142254705Y-133663719D02*
X142492800Y-133663719D01*
X142492800Y-133663719D02*
X142635657Y-133711338D01*
X142635657Y-133711338D02*
X142730895Y-133806576D01*
X142730895Y-133806576D02*
X142778514Y-133901814D01*
X142778514Y-133901814D02*
X142826133Y-134092290D01*
X142826133Y-134092290D02*
X142826133Y-134235147D01*
X142826133Y-134235147D02*
X142778514Y-134425623D01*
X142778514Y-134425623D02*
X142730895Y-134520861D01*
X142730895Y-134520861D02*
X142635657Y-134616100D01*
X142635657Y-134616100D02*
X142492800Y-134663719D01*
X142492800Y-134663719D02*
X142254705Y-134663719D01*
X143778514Y-134663719D02*
X143207086Y-134663719D01*
X143492800Y-134663719D02*
X143492800Y-133663719D01*
X143492800Y-133663719D02*
X143397562Y-133806576D01*
X143397562Y-133806576D02*
X143302324Y-133901814D01*
X143302324Y-133901814D02*
X143207086Y-133949433D01*
%TO.C,U1*%
X134230619Y-110199404D02*
X135040142Y-110199404D01*
X135040142Y-110199404D02*
X135135380Y-110151785D01*
X135135380Y-110151785D02*
X135183000Y-110104166D01*
X135183000Y-110104166D02*
X135230619Y-110008928D01*
X135230619Y-110008928D02*
X135230619Y-109818452D01*
X135230619Y-109818452D02*
X135183000Y-109723214D01*
X135183000Y-109723214D02*
X135135380Y-109675595D01*
X135135380Y-109675595D02*
X135040142Y-109627976D01*
X135040142Y-109627976D02*
X134230619Y-109627976D01*
X135230619Y-108627976D02*
X135230619Y-109199404D01*
X135230619Y-108913690D02*
X134230619Y-108913690D01*
X134230619Y-108913690D02*
X134373476Y-109008928D01*
X134373476Y-109008928D02*
X134468714Y-109104166D01*
X134468714Y-109104166D02*
X134516333Y-109199404D01*
%TO.C,C_FF1*%
X161415380Y-90497262D02*
X161463000Y-90544881D01*
X161463000Y-90544881D02*
X161510619Y-90687738D01*
X161510619Y-90687738D02*
X161510619Y-90782976D01*
X161510619Y-90782976D02*
X161463000Y-90925833D01*
X161463000Y-90925833D02*
X161367761Y-91021071D01*
X161367761Y-91021071D02*
X161272523Y-91068690D01*
X161272523Y-91068690D02*
X161082047Y-91116309D01*
X161082047Y-91116309D02*
X160939190Y-91116309D01*
X160939190Y-91116309D02*
X160748714Y-91068690D01*
X160748714Y-91068690D02*
X160653476Y-91021071D01*
X160653476Y-91021071D02*
X160558238Y-90925833D01*
X160558238Y-90925833D02*
X160510619Y-90782976D01*
X160510619Y-90782976D02*
X160510619Y-90687738D01*
X160510619Y-90687738D02*
X160558238Y-90544881D01*
X160558238Y-90544881D02*
X160605857Y-90497262D01*
X161605857Y-90306786D02*
X161605857Y-89544881D01*
X160986809Y-88973452D02*
X160986809Y-89306785D01*
X161510619Y-89306785D02*
X160510619Y-89306785D01*
X160510619Y-89306785D02*
X160510619Y-88830595D01*
X160986809Y-88116309D02*
X160986809Y-88449642D01*
X161510619Y-88449642D02*
X160510619Y-88449642D01*
X160510619Y-88449642D02*
X160510619Y-87973452D01*
X161510619Y-87068690D02*
X161510619Y-87640118D01*
X161510619Y-87354404D02*
X160510619Y-87354404D01*
X160510619Y-87354404D02*
X160653476Y-87449642D01*
X160653476Y-87449642D02*
X160748714Y-87544880D01*
X160748714Y-87544880D02*
X160796333Y-87640118D01*
%TO.C,R2*%
X165395300Y-91754368D02*
X164919109Y-92087701D01*
X165395300Y-92325796D02*
X164395300Y-92325796D01*
X164395300Y-92325796D02*
X164395300Y-91944844D01*
X164395300Y-91944844D02*
X164442919Y-91849606D01*
X164442919Y-91849606D02*
X164490538Y-91801987D01*
X164490538Y-91801987D02*
X164585776Y-91754368D01*
X164585776Y-91754368D02*
X164728633Y-91754368D01*
X164728633Y-91754368D02*
X164823871Y-91801987D01*
X164823871Y-91801987D02*
X164871490Y-91849606D01*
X164871490Y-91849606D02*
X164919109Y-91944844D01*
X164919109Y-91944844D02*
X164919109Y-92325796D01*
X164490538Y-91373415D02*
X164442919Y-91325796D01*
X164442919Y-91325796D02*
X164395300Y-91230558D01*
X164395300Y-91230558D02*
X164395300Y-90992463D01*
X164395300Y-90992463D02*
X164442919Y-90897225D01*
X164442919Y-90897225D02*
X164490538Y-90849606D01*
X164490538Y-90849606D02*
X164585776Y-90801987D01*
X164585776Y-90801987D02*
X164681014Y-90801987D01*
X164681014Y-90801987D02*
X164823871Y-90849606D01*
X164823871Y-90849606D02*
X165395300Y-91421034D01*
X165395300Y-91421034D02*
X165395300Y-90801987D01*
%TO.C,L1*%
X163882733Y-113480119D02*
X163406543Y-113480119D01*
X163406543Y-113480119D02*
X163406543Y-112480119D01*
X164739876Y-113480119D02*
X164168448Y-113480119D01*
X164454162Y-113480119D02*
X164454162Y-112480119D01*
X164454162Y-112480119D02*
X164358924Y-112622976D01*
X164358924Y-112622976D02*
X164263686Y-112718214D01*
X164263686Y-112718214D02*
X164168448Y-112765833D01*
X164561994Y-120819326D02*
X164085804Y-120819326D01*
X164085804Y-120819326D02*
X164085804Y-119819326D01*
D11*
%TO.C,C_IN1*%
X118528000Y-82827500D02*
X118528000Y-83827500D01*
X119028000Y-83327500D02*
X118028000Y-83327500D01*
X119213563Y-84067500D02*
X117528000Y-84067500D01*
X119213563Y-84067500D02*
X120278000Y-85131937D01*
X112822437Y-84067500D02*
X114508000Y-84067500D01*
X112822437Y-84067500D02*
X111758000Y-85131937D01*
X120278000Y-85131937D02*
X120278000Y-92587500D01*
X111758000Y-85131937D02*
X111758000Y-92587500D01*
X120278000Y-92587500D02*
X117528000Y-92587500D01*
X111758000Y-92587500D02*
X114508000Y-92587500D01*
%TO.C,R1*%
X148238800Y-92257964D02*
X148238800Y-90803836D01*
X150058800Y-92257964D02*
X150058800Y-90803836D01*
%TO.C,C_OUT1*%
X192188000Y-82827500D02*
X192188000Y-83827500D01*
X192688000Y-83327500D02*
X191688000Y-83327500D01*
X192873563Y-84067500D02*
X191188000Y-84067500D01*
X192873563Y-84067500D02*
X193938000Y-85131937D01*
X186482437Y-84067500D02*
X188168000Y-84067500D01*
X186482437Y-84067500D02*
X185418000Y-85131937D01*
X193938000Y-85131937D02*
X193938000Y-92587500D01*
X185418000Y-85131937D02*
X185418000Y-92587500D01*
X193938000Y-92587500D02*
X191188000Y-92587500D01*
X185418000Y-92587500D02*
X188168000Y-92587500D01*
%TO.C,J2*%
X191278000Y-111727500D02*
X188128000Y-111727500D01*
X188128000Y-111727500D02*
X185528000Y-114577500D01*
X193828000Y-114577500D02*
X191278000Y-111727500D01*
X185528000Y-114577500D02*
X185528000Y-127427500D01*
X193828000Y-127427500D02*
X193828000Y-114577500D01*
X185528000Y-127427500D02*
X193828000Y-127427500D01*
%TO.C,J1*%
X115239600Y-111828000D02*
X112089600Y-111828000D01*
X112089600Y-111828000D02*
X109489600Y-114678000D01*
X117789600Y-114678000D02*
X115239600Y-111828000D01*
X109489600Y-114678000D02*
X109489600Y-127528000D01*
X117789600Y-127528000D02*
X117789600Y-114678000D01*
X109489600Y-127528000D02*
X117789600Y-127528000D01*
D12*
%TO.C,D1*%
X138674800Y-131026100D02*
X138674800Y-132296100D01*
X138674800Y-131661100D02*
X139436800Y-131026100D01*
X138674800Y-131661100D02*
X139436800Y-131153100D01*
X138674800Y-131661100D02*
X139436800Y-131280100D01*
X138674800Y-131661100D02*
X139436800Y-131407100D01*
X138674800Y-131661100D02*
X139436800Y-131534100D01*
X138674800Y-131661100D02*
X139436800Y-131788100D01*
X138674800Y-131661100D02*
X139436800Y-131915100D01*
X138674800Y-131661100D02*
X139436800Y-132042100D01*
X138674800Y-131661100D02*
X139436800Y-132169100D01*
X138674800Y-131661100D02*
X139436800Y-132296100D01*
X139436800Y-131026100D02*
X139436800Y-132296100D01*
X139690800Y-131661100D02*
X138420800Y-131661100D01*
X140071800Y-130073600D02*
X140071800Y-130515560D01*
X140071800Y-132806640D02*
X140071800Y-133248600D01*
X140071800Y-133248600D02*
X145913800Y-133248600D01*
X145913800Y-130073600D02*
X140071800Y-130073600D01*
X145913800Y-130515560D02*
X145913800Y-130073600D01*
X145913800Y-133248600D02*
X145913800Y-132806640D01*
D11*
%TO.C,U1*%
X136218000Y-114262500D02*
X137168000Y-114262500D01*
X137168000Y-114262500D02*
X137168000Y-119387500D01*
X145668000Y-114262500D02*
X145668000Y-115362500D01*
X146618000Y-114262500D02*
X145668000Y-114262500D01*
X136218000Y-112762500D02*
X136218000Y-114262500D01*
X146618000Y-112762500D02*
X146618000Y-114262500D01*
%TO.C,C_FF1*%
X160108000Y-88381248D02*
X160108000Y-89803752D01*
X158288000Y-88381248D02*
X158288000Y-89803752D01*
%TO.C,R2*%
X167728000Y-90892936D02*
X167728000Y-92347064D01*
X165908000Y-90892936D02*
X165908000Y-92347064D01*
D12*
%TO.C,L1*%
X157877200Y-106743700D02*
X157877200Y-109969500D01*
X157877200Y-116065500D02*
X157877200Y-119291300D01*
X157877200Y-119291300D02*
X170424800Y-119291300D01*
X170424800Y-106743700D02*
X157877200Y-106743700D01*
X170424800Y-109969500D02*
X170424800Y-106743700D01*
X170424800Y-119291300D02*
X170424800Y-116065500D01*
X157064400Y-113017500D02*
G75*
G03*
X156912000Y-113017500I-76200J0D01*
G01*
X156912000Y-113017500D02*
G75*
G03*
X157064400Y-113017500I76200J0D01*
G01*
%TD*%
M02*
