G04 #@! TF.GenerationSoftware,KiCad,Pcbnew,7.0.1*
G04 #@! TF.CreationDate,2023-11-20T20:44:29-08:00*
G04 #@! TF.ProjectId,rps01,72707330-312e-46b6-9963-61645f706362,2*
G04 #@! TF.SameCoordinates,Original*
G04 #@! TF.FileFunction,Soldermask,Bot*
G04 #@! TF.FilePolarity,Negative*
%FSLAX46Y46*%
G04 Gerber Fmt 4.6, Leading zero omitted, Abs format (unit mm)*
G04 Created by KiCad (PCBNEW 7.0.1) date 2023-11-20 20:44:29*
%MOMM*%
%LPD*%
G01*
G04 APERTURE LIST*
G04 Aperture macros list*
%AMRoundRect*
0 Rectangle with rounded corners*
0 $1 Rounding radius*
0 $2 $3 $4 $5 $6 $7 $8 $9 X,Y pos of 4 corners*
0 Add a 4 corners polygon primitive as box body*
4,1,4,$2,$3,$4,$5,$6,$7,$8,$9,$2,$3,0*
0 Add four circle primitives for the rounded corners*
1,1,$1+$1,$2,$3*
1,1,$1+$1,$4,$5*
1,1,$1+$1,$6,$7*
1,1,$1+$1,$8,$9*
0 Add four rect primitives between the rounded corners*
20,1,$1+$1,$2,$3,$4,$5,0*
20,1,$1+$1,$4,$5,$6,$7,0*
20,1,$1+$1,$6,$7,$8,$9,0*
20,1,$1+$1,$8,$9,$2,$3,0*%
G04 Aperture macros list end*
%ADD10R,3.800000X3.800000*%
%ADD11C,4.000000*%
%ADD12RoundRect,1.900000X-1.900000X1.900000X-1.900000X-1.900000X1.900000X-1.900000X1.900000X1.900000X0*%
%ADD13C,7.600000*%
%ADD14R,1.700000X1.700000*%
%ADD15O,1.700000X1.700000*%
%ADD16RoundRect,0.250000X0.625000X-0.350000X0.625000X0.350000X-0.625000X0.350000X-0.625000X-0.350000X0*%
%ADD17O,1.750000X1.200000*%
%ADD18R,1.050000X1.500000*%
%ADD19O,1.050000X1.500000*%
%ADD20C,1.400000*%
%ADD21R,3.500000X3.500000*%
%ADD22C,3.500000*%
%ADD23C,0.800000*%
%ADD24C,6.400000*%
%ADD25RoundRect,1.900000X1.900000X-1.900000X1.900000X1.900000X-1.900000X1.900000X-1.900000X-1.900000X0*%
%ADD26RoundRect,0.250000X0.350000X0.625000X-0.350000X0.625000X-0.350000X-0.625000X0.350000X-0.625000X0*%
%ADD27O,1.200000X1.750000*%
%ADD28R,2.159000X1.955800*%
%ADD29R,2.184400X1.625600*%
%ADD30RoundRect,0.250000X0.650000X-0.412500X0.650000X0.412500X-0.650000X0.412500X-0.650000X-0.412500X0*%
%ADD31R,0.812800X3.251200*%
%ADD32R,7.874000X8.305800*%
%ADD33RoundRect,0.250000X-0.650000X0.412500X-0.650000X-0.412500X0.650000X-0.412500X0.650000X0.412500X0*%
%ADD34R,0.431800X1.143000*%
%ADD35R,0.431800X0.965200*%
%ADD36RoundRect,0.150000X-0.150000X0.587500X-0.150000X-0.587500X0.150000X-0.587500X0.150000X0.587500X0*%
%ADD37RoundRect,0.250000X0.625000X-0.400000X0.625000X0.400000X-0.625000X0.400000X-0.625000X-0.400000X0*%
%ADD38RoundRect,0.200000X0.200000X0.275000X-0.200000X0.275000X-0.200000X-0.275000X0.200000X-0.275000X0*%
%ADD39RoundRect,0.200000X-0.200000X-0.275000X0.200000X-0.275000X0.200000X0.275000X-0.200000X0.275000X0*%
%ADD40R,1.500000X2.000000*%
%ADD41R,3.800000X2.000000*%
%ADD42R,3.360000X4.860000*%
%ADD43R,1.390000X1.400000*%
%ADD44RoundRect,0.200000X0.275000X-0.200000X0.275000X0.200000X-0.275000X0.200000X-0.275000X-0.200000X0*%
%ADD45R,1.625600X2.184400*%
%ADD46R,4.000000X7.800000*%
%ADD47RoundRect,0.249999X-0.450001X-1.425001X0.450001X-1.425001X0.450001X1.425001X-0.450001X1.425001X0*%
%ADD48R,4.860000X3.360000*%
%ADD49R,1.400000X1.390000*%
%ADD50R,1.143000X0.431800*%
%ADD51R,0.965200X0.431800*%
%ADD52RoundRect,0.250000X-0.300000X2.050000X-0.300000X-2.050000X0.300000X-2.050000X0.300000X2.050000X0*%
%ADD53RoundRect,0.250002X-5.149998X4.449998X-5.149998X-4.449998X5.149998X-4.449998X5.149998X4.449998X0*%
%ADD54RoundRect,0.200000X-0.275000X0.200000X-0.275000X-0.200000X0.275000X-0.200000X0.275000X0.200000X0*%
%ADD55R,2.000000X1.500000*%
%ADD56R,2.000000X3.800000*%
G04 APERTURE END LIST*
G36*
X136371700Y-56019400D02*
G01*
X133298300Y-56019400D01*
X133298300Y-55435200D01*
X136371700Y-55435200D01*
X136371700Y-56019400D01*
G37*
G36*
X136397100Y-54597000D02*
G01*
X132002900Y-54597000D01*
X132002900Y-50787000D01*
X136397100Y-50787000D01*
X136397100Y-54597000D01*
G37*
G36*
X144969400Y-70601700D02*
G01*
X144385200Y-70601700D01*
X144385200Y-67528300D01*
X144969400Y-67528300D01*
X144969400Y-70601700D01*
G37*
G36*
X143547000Y-71897100D02*
G01*
X139737000Y-71897100D01*
X139737000Y-67502900D01*
X143547000Y-67502900D01*
X143547000Y-71897100D01*
G37*
G36*
X135146700Y-77419200D02*
G01*
X132073300Y-77419200D01*
X132073300Y-76835000D01*
X135146700Y-76835000D01*
X135146700Y-77419200D01*
G37*
G36*
X136442100Y-82067400D02*
G01*
X132047900Y-82067400D01*
X132047900Y-78257400D01*
X136442100Y-78257400D01*
X136442100Y-82067400D01*
G37*
G36*
X145069400Y-60701700D02*
G01*
X144485200Y-60701700D01*
X144485200Y-57628300D01*
X145069400Y-57628300D01*
X145069400Y-60701700D01*
G37*
G36*
X143647000Y-61997100D02*
G01*
X139837000Y-61997100D01*
X139837000Y-57602900D01*
X143647000Y-57602900D01*
X143647000Y-61997100D01*
G37*
D10*
X177899179Y-80200000D03*
D11*
X177899179Y-75200000D03*
D12*
X46349179Y-46176680D03*
D13*
X46349179Y-57176680D03*
D14*
X140970000Y-123444000D03*
D15*
X138430000Y-123444000D03*
X135890000Y-123444000D03*
X133350000Y-123444000D03*
X130810000Y-123444000D03*
D16*
X37024179Y-124551680D03*
D17*
X37024179Y-122551680D03*
X37024179Y-120551680D03*
D14*
X140550000Y-116860000D03*
D15*
X140550000Y-119400000D03*
X138010000Y-116860000D03*
X138010000Y-119400000D03*
X135470000Y-116860000D03*
X135470000Y-119400000D03*
D18*
X99850000Y-82400000D03*
D19*
X101120000Y-82400000D03*
X102390000Y-82400000D03*
D10*
X177899179Y-120200000D03*
D11*
X177899179Y-115200000D03*
D10*
X177899179Y-100200000D03*
D11*
X177899179Y-95200000D03*
D20*
X139549179Y-44400000D03*
X150549179Y-44400000D03*
D21*
X142549179Y-49400000D03*
D22*
X147549179Y-49400000D03*
D23*
X85000000Y-37700000D03*
X85702944Y-36002944D03*
X85702944Y-39397056D03*
X87400000Y-35300000D03*
D24*
X87400000Y-37700000D03*
D23*
X87400000Y-40100000D03*
X89097056Y-36002944D03*
X89097056Y-39397056D03*
X89800000Y-37700000D03*
D20*
X153874179Y-44350000D03*
X164874179Y-44350000D03*
D21*
X156874179Y-49350000D03*
D22*
X161874179Y-49350000D03*
D25*
X45874179Y-121701680D03*
D13*
X45874179Y-110701680D03*
D23*
X85000000Y-130797056D03*
X85702944Y-129100000D03*
X85702944Y-132494112D03*
X87400000Y-128397056D03*
D24*
X87400000Y-130797056D03*
D23*
X87400000Y-133197056D03*
X89097056Y-129100000D03*
X89097056Y-132494112D03*
X89800000Y-130797056D03*
X35002944Y-130797056D03*
X35705888Y-129100000D03*
X35705888Y-132494112D03*
X37402944Y-128397056D03*
D24*
X37402944Y-130797056D03*
D23*
X37402944Y-133197056D03*
X39100000Y-129100000D03*
X39100000Y-132494112D03*
X39802944Y-130797056D03*
D16*
X37449179Y-48301680D03*
D17*
X37449179Y-46301680D03*
X37449179Y-44301680D03*
D25*
X78124179Y-121301680D03*
D13*
X78124179Y-110301680D03*
D23*
X35000000Y-37700000D03*
X35702944Y-36002944D03*
X35702944Y-39397056D03*
X37400000Y-35300000D03*
D24*
X37400000Y-37700000D03*
D23*
X37400000Y-40100000D03*
X39097056Y-36002944D03*
X39097056Y-39397056D03*
X39800000Y-37700000D03*
D12*
X78399179Y-46276680D03*
D13*
X78399179Y-57276680D03*
D23*
X178000000Y-130802944D03*
X178702944Y-129105888D03*
X178702944Y-132500000D03*
X180400000Y-128402944D03*
D24*
X180400000Y-130802944D03*
D23*
X180400000Y-133202944D03*
X182097056Y-129105888D03*
X182097056Y-132500000D03*
X182800000Y-130802944D03*
X178000000Y-37700000D03*
X178702944Y-36002944D03*
X178702944Y-39397056D03*
X180400000Y-35300000D03*
D24*
X180400000Y-37700000D03*
D23*
X180400000Y-40100000D03*
X182097056Y-36002944D03*
X182097056Y-39397056D03*
X182800000Y-37700000D03*
D26*
X126449179Y-126651680D03*
D27*
X124449179Y-126651680D03*
X122449179Y-126651680D03*
X120449179Y-126651680D03*
D28*
X164250000Y-120313000D03*
X164250000Y-124250000D03*
D29*
X119204200Y-69300000D03*
X115495800Y-69300000D03*
D30*
X124000000Y-72362500D03*
X124000000Y-69237500D03*
D31*
X41359179Y-88153680D03*
X43899179Y-88153680D03*
X46439179Y-88153680D03*
D32*
X43899179Y-98275580D03*
D33*
X169050000Y-48225000D03*
X169050000Y-51350000D03*
D34*
X136105000Y-56006700D03*
X134835000Y-56006700D03*
X133565000Y-56006700D03*
X132295000Y-56006700D03*
D35*
X132295000Y-50304400D03*
X133565000Y-50304400D03*
X134835000Y-50304400D03*
X136105000Y-50304400D03*
D36*
X119050000Y-106150000D03*
X120950000Y-106150000D03*
X120000000Y-108025000D03*
D37*
X121650000Y-75450000D03*
X121650000Y-72350000D03*
D38*
X147350000Y-106060000D03*
X145700000Y-106060000D03*
D39*
X145700000Y-107600000D03*
X147350000Y-107600000D03*
D40*
X91350000Y-49550000D03*
X89050000Y-49550000D03*
X86750000Y-49550000D03*
D41*
X89050000Y-43250000D03*
D42*
X139300000Y-80600000D03*
D43*
X138380000Y-76618000D03*
X140220000Y-76618000D03*
D31*
X57664179Y-75748880D03*
X55124179Y-75748880D03*
X52584179Y-75748880D03*
D32*
X55124179Y-65626980D03*
D44*
X120962500Y-111425000D03*
X120962500Y-109775000D03*
D45*
X128700000Y-69900000D03*
X128700000Y-66191600D03*
D46*
X83996000Y-68580000D03*
X94996000Y-68580000D03*
D31*
X68514179Y-72698880D03*
X65974179Y-72698880D03*
X63434179Y-72698880D03*
D32*
X65974179Y-62576980D03*
D31*
X46639179Y-78999680D03*
X44099179Y-78999680D03*
X41559179Y-78999680D03*
D32*
X44099179Y-68877780D03*
D47*
X145534178Y-64802967D03*
X151634178Y-64802967D03*
D48*
X140900000Y-54750000D03*
D49*
X144882000Y-53830000D03*
X144882000Y-55670000D03*
D39*
X122637500Y-104400000D03*
X124287500Y-104400000D03*
D50*
X144956700Y-67795000D03*
X144956700Y-69065000D03*
X144956700Y-70335000D03*
X144956700Y-71605000D03*
D51*
X139254400Y-71605000D03*
X139254400Y-70335000D03*
X139254400Y-69065000D03*
X139254400Y-67795000D03*
D44*
X119412500Y-111425000D03*
X119412500Y-109775000D03*
D37*
X126400000Y-75450000D03*
X126400000Y-72350000D03*
D44*
X170575000Y-129025000D03*
X170575000Y-127375000D03*
D52*
X159075000Y-94175000D03*
X160775000Y-94175000D03*
X162475000Y-94175000D03*
D53*
X162475000Y-103325000D03*
D52*
X164175000Y-94175000D03*
X165875000Y-94175000D03*
D39*
X174125000Y-131390000D03*
X175775000Y-131390000D03*
D33*
X128700000Y-72345800D03*
X128700000Y-75470800D03*
D54*
X169100000Y-127400000D03*
X169100000Y-129050000D03*
D34*
X132340000Y-76847700D03*
X133610000Y-76847700D03*
X134880000Y-76847700D03*
X136150000Y-76847700D03*
D35*
X136150000Y-82550000D03*
X134880000Y-82550000D03*
X133610000Y-82550000D03*
X132340000Y-82550000D03*
D50*
X145056700Y-57895000D03*
X145056700Y-59165000D03*
X145056700Y-60435000D03*
X145056700Y-61705000D03*
D51*
X139354400Y-61705000D03*
X139354400Y-60435000D03*
X139354400Y-59165000D03*
X139354400Y-57895000D03*
D44*
X124062500Y-111425000D03*
X124062500Y-109775000D03*
D38*
X175775000Y-132950000D03*
X174125000Y-132950000D03*
D31*
X63359179Y-94628680D03*
X65899179Y-94628680D03*
X68439179Y-94628680D03*
D32*
X65899179Y-104750580D03*
D40*
X168599179Y-115926680D03*
X170899179Y-115926680D03*
D41*
X170899179Y-122226680D03*
D40*
X173199179Y-115926680D03*
D33*
X171700000Y-48187500D03*
X171700000Y-51312500D03*
D37*
X151600000Y-71050000D03*
X151600000Y-67950000D03*
D39*
X119200000Y-104400000D03*
X120850000Y-104400000D03*
D52*
X152525000Y-113100000D03*
X154225000Y-113100000D03*
X155925000Y-113100000D03*
D53*
X155925000Y-122250000D03*
D52*
X157625000Y-113100000D03*
X159325000Y-113100000D03*
D44*
X122512500Y-111425000D03*
X122512500Y-109775000D03*
D31*
X52334179Y-91354780D03*
X54874179Y-91354780D03*
X57414179Y-91354780D03*
D32*
X54874179Y-101476680D03*
D55*
X85000000Y-125300000D03*
X85000000Y-123000000D03*
X85000000Y-120700000D03*
D56*
X91300000Y-123000000D03*
D37*
X149300000Y-71100000D03*
X149300000Y-68000000D03*
D36*
X122512500Y-106175000D03*
X124412500Y-106175000D03*
X123462500Y-108050000D03*
D46*
X67524179Y-83351680D03*
X78524179Y-83351680D03*
D18*
X108074179Y-82251680D03*
D19*
X106804179Y-82251680D03*
X105534179Y-82251680D03*
D33*
X174350000Y-48187500D03*
X174350000Y-51312500D03*
M02*
