M48
; DRILL file {KiCad 7.0.1} date Mon Nov 20 20:44:47 2023
; FORMAT={-:-/ absolute / metric / decimal}
; #@! TF.CreationDate,2023-11-20T20:44:47-08:00
; #@! TF.GenerationSoftware,Kicad,Pcbnew,7.0.1
; #@! TF.FileFunction,Plated,1,2,PTH
FMAT,2
METRIC
; #@! TA.AperFunction,Plated,PTH,ViaDrill
T1C0.400
; #@! TA.AperFunction,Plated,PTH,ViaDrill
T2C0.500
; #@! TA.AperFunction,Plated,PTH,ComponentDrill
T3C0.500
; #@! TA.AperFunction,Plated,PTH,ComponentDrill
T4C0.750
; #@! TA.AperFunction,Plated,PTH,ViaDrill
T5C0.800
; #@! TA.AperFunction,Plated,PTH,ComponentDrill
T6C1.000
; #@! TA.AperFunction,Plated,PTH,ViaDrill
T7C1.500
; #@! TA.AperFunction,Plated,PTH,ComponentDrill
T8C1.900
; #@! TA.AperFunction,Plated,PTH,ComponentDrill
T9C2.700
; #@! TA.AperFunction,Plated,PTH,ComponentDrill
T10C3.200
; #@! TA.AperFunction,Plated,PTH,ComponentDrill
T11C6.000
%
G90
G05
T1
X36.83Y-52.832
X37.084Y-115.174
X38.85Y-115.6
X39.45Y-121.15
X41.0Y-95.0
X41.0Y-97.0
X41.0Y-99.0
X41.0Y-101.0
X41.0Y-110.5
X41.3Y-35.25
X41.375Y-89.402
X41.5Y-57.5
X41.5Y-66.0
X41.5Y-68.0
X41.5Y-70.0
X41.5Y-72.0
X41.5Y-81.5
X41.5Y-83.0
X41.5Y-84.5
X41.5Y-86.0
X41.55Y-77.752
X42.0Y-53.5
X42.0Y-61.0
X42.0Y-107.0
X42.0Y-114.0
X42.05Y-36.15
X43.5Y-95.0
X43.5Y-97.0
X43.5Y-99.0
X43.5Y-101.0
X43.925Y-89.377
X44.0Y-66.0
X44.0Y-68.0
X44.0Y-70.0
X44.0Y-72.0
X44.1Y-77.827
X45.5Y-81.5
X45.5Y-83.0
X45.5Y-84.5
X45.5Y-86.0
X46.0Y-105.5
X46.5Y-62.0
X46.5Y-95.0
X46.5Y-97.0
X46.5Y-99.0
X46.5Y-101.0
X46.65Y-77.777
X47.0Y-66.0
X47.0Y-68.0
X47.0Y-70.0
X47.0Y-72.0
X48.5Y-77.0
X48.5Y-79.5
X48.5Y-82.0
X48.5Y-84.5
X48.5Y-86.5
X48.5Y-88.5
X48.5Y-90.5
X49.5Y-107.0
X49.5Y-114.0
X50.5Y-61.0
X50.5Y-120.0
X50.5Y-122.0
X50.5Y-124.0
X51.0Y-44.0
X51.0Y-46.0
X51.0Y-48.0
X51.0Y-53.5
X51.0Y-111.0
X51.5Y-57.5
X52.0Y-98.5
X52.0Y-100.5
X52.0Y-102.5
X52.0Y-104.5
X52.375Y-92.602
X52.5Y-62.5
X52.5Y-64.5
X52.5Y-66.5
X52.5Y-68.5
X52.5Y-80.5
X52.5Y-82.5
X52.5Y-84.5
X52.5Y-86.5
X52.5Y-120.0
X52.5Y-122.0
X52.5Y-124.0
X53.0Y-44.0
X53.0Y-46.0
X53.0Y-48.0
X54.5Y-98.5
X54.5Y-100.5
X54.5Y-102.5
X54.5Y-104.5
X55.0Y-62.5
X55.0Y-64.5
X55.0Y-66.5
X55.0Y-68.5
X55.0Y-80.5
X55.0Y-82.5
X55.0Y-84.5
X55.0Y-86.5
X57.5Y-98.5
X57.5Y-100.5
X57.5Y-102.5
X57.5Y-104.5
X57.65Y-74.552
X58.0Y-62.5
X58.0Y-64.5
X58.0Y-66.5
X58.0Y-68.5
X58.0Y-80.5
X58.0Y-82.5
X58.0Y-84.5
X58.0Y-86.5
X62.5Y-80.5
X62.5Y-82.5
X62.5Y-84.5
X62.5Y-86.5
X63.0Y-60.0
X63.0Y-62.0
X63.0Y-64.0
X63.0Y-66.0
X63.0Y-102.0
X63.0Y-104.0
X63.0Y-106.0
X63.0Y-108.0
X63.375Y-95.902
X65.0Y-80.5
X65.0Y-82.5
X65.0Y-84.5
X65.0Y-86.5
X65.5Y-60.0
X65.5Y-62.0
X65.5Y-64.0
X65.5Y-66.0
X65.5Y-102.0
X65.5Y-104.0
X65.5Y-106.0
X65.5Y-108.0
X66.5Y-75.5
X66.5Y-77.0
X66.5Y-89.5
X66.5Y-91.0
X68.0Y-80.5
X68.0Y-82.5
X68.0Y-84.5
X68.0Y-86.5
X68.5Y-60.0
X68.5Y-62.0
X68.5Y-64.0
X68.5Y-66.0
X68.5Y-75.5
X68.5Y-77.0
X68.5Y-78.5
X68.5Y-88.5
X68.5Y-90.0
X68.5Y-91.5
X68.5Y-102.0
X68.5Y-104.0
X68.5Y-106.0
X68.5Y-108.0
X68.525Y-71.527
X70.424Y-82.777
X70.624Y-85.652
X71.0Y-119.0
X71.0Y-121.0
X71.0Y-123.0
X71.5Y-44.0
X71.5Y-46.0
X71.5Y-48.0
X71.85Y-51.4
X73.0Y-110.0
X73.0Y-119.0
X73.0Y-121.0
X73.0Y-123.0
X73.5Y-44.0
X73.5Y-46.0
X73.5Y-48.0
X73.5Y-57.5
X73.5Y-113.5
X74.0Y-54.0
X74.0Y-106.5
X74.5Y-61.5
X76.0Y-98.0
X76.0Y-100.0
X76.0Y-102.0
X77.0Y-66.5
X77.0Y-68.5
X77.0Y-70.5
X78.0Y-81.5
X78.0Y-83.5
X78.0Y-85.5
X78.0Y-98.0
X78.0Y-100.0
X78.0Y-102.0
X78.0Y-105.0
X78.5Y-62.5
X79.0Y-66.5
X79.0Y-68.5
X79.0Y-70.5
X80.0Y-81.5
X80.0Y-83.5
X80.0Y-85.5
X80.0Y-98.0
X80.0Y-100.0
X80.0Y-102.0
X81.0Y-66.5
X81.0Y-68.5
X81.0Y-70.5
X82.0Y-81.5
X82.0Y-83.5
X82.0Y-85.5
X82.5Y-54.0
X82.5Y-61.5
X82.5Y-106.5
X82.5Y-113.5
X83.05Y-66.75
X83.05Y-68.65
X83.05Y-70.6
X83.5Y-57.5
X83.5Y-110.0
X84.75Y-66.75
X84.75Y-68.7
X84.75Y-70.65
X85.05Y-122.9
X88.0Y-53.5
X88.0Y-55.5
X88.0Y-57.5
X88.5Y-111.0
X88.5Y-113.0
X88.5Y-115.0
X90.0Y-53.5
X90.0Y-55.5
X90.0Y-57.5
X90.5Y-111.0
X90.5Y-113.0
X90.5Y-115.0
X91.1Y-122.85
X91.25Y-130.9
X92.0Y-53.5
X92.0Y-55.5
X92.0Y-57.5
X92.5Y-81.5
X92.5Y-83.5
X92.5Y-85.5
X92.5Y-111.0
X92.5Y-113.0
X92.5Y-115.0
X94.5Y-81.5
X94.5Y-83.5
X94.5Y-85.5
X96.5Y-81.5
X96.5Y-83.5
X96.5Y-85.5
X99.15Y-96.75
X99.22Y-102.057
X99.784Y-102.882
X100.0Y-97.95
X100.55Y-95.65
X100.6Y-71.1
X100.65Y-67.85
X100.65Y-69.4
X100.7Y-66.15
X101.2Y-109.25
X101.65Y-127.5
X101.8Y-133.75
X101.85Y-79.5
X102.538Y-129.688
X102.55Y-71.1
X102.6Y-67.85
X102.6Y-69.4
X102.65Y-66.15
X103.224Y-117.65
X103.75Y-124.707
X103.75Y-127.6
X104.5Y-69.4
X104.5Y-71.1
X104.55Y-66.15
X104.55Y-67.85
X104.75Y-118.2
X104.875Y-112.15
X104.9Y-77.8
X105.5Y-126.9
X106.056Y-110.974
X106.217Y-122.343
X106.537Y-121.387
X106.66Y-99.401
X106.788Y-125.212
X106.9Y-108.4
X106.925Y-117.4
X107.328Y-120.596
X107.5Y-110.7
X107.6Y-72.2
X108.25Y-36.6
X109.05Y-117.776
X109.08Y-107.945
X109.274Y-39.95
X109.624Y-54.45
X109.625Y-122.679
X109.674Y-110.675
X110.25Y-59.85
X110.325Y-130.237
X110.35Y-49.45
X110.424Y-128.338
X110.57Y-66.73
X110.601Y-102.454
X110.643Y-110.923
X110.65Y-107.9
X111.4Y-98.65
X111.8Y-114.75
X111.85Y-71.25
X111.877Y-67.388
X111.896Y-72.248
X112.114Y-108.089
X112.183Y-131.308
X112.2Y-128.1
X112.7Y-110.877
X112.95Y-116.7
X113.048Y-112.425
X113.15Y-61.95
X113.65Y-56.95
X114.0Y-49.8
X114.088Y-51.888
X114.1Y-130.05
X114.2Y-114.1
X114.3Y-44.35
X114.4Y-60.2
X114.5Y-103.65
X114.764Y-106.304
X114.814Y-120.6
X115.05Y-127.05
X115.35Y-119.624
X115.9Y-64.6
X115.95Y-53.926
X116.0Y-103.85
X116.189Y-114.836
X116.225Y-108.975
X116.287Y-122.913
X116.6Y-46.1
X116.7Y-49.05
X117.0Y-58.05
X117.05Y-59.6
X117.127Y-117.447
X117.65Y-132.7
X117.664Y-109.526
X118.374Y-129.618
X118.525Y-119.75
X118.65Y-54.05
X118.7Y-58.95
X119.042Y-114.441
X119.2Y-131.1
X119.45Y-112.95
X119.5Y-49.6
X119.65Y-58.6
X119.783Y-108.125
X119.823Y-129.625
X120.05Y-121.95
X120.491Y-114.185
X120.579Y-57.322
X120.9Y-48.9
X121.15Y-117.05
X121.572Y-65.84
X121.6Y-62.3
X121.6Y-75.4
X121.781Y-64.863
X122.103Y-129.626
X122.35Y-121.8
X122.4Y-48.55
X122.857Y-61.031
X123.203Y-73.612
X123.475Y-49.974
X123.6Y-80.45
X124.05Y-109.8
X124.15Y-56.85
X124.2Y-116.75
X124.8Y-114.1
X124.862Y-59.112
X125.025Y-115.35
X125.1Y-121.8
X125.282Y-67.25
X126.346Y-55.076
X126.5Y-75.4
X126.7Y-105.9
X126.791Y-110.189
X126.8Y-102.3
X127.85Y-60.05
X128.091Y-111.364
X128.7Y-127.127
X128.75Y-118.95
X129.7Y-45.05
X129.7Y-46.75
X129.7Y-48.4
X130.0Y-115.5
X130.65Y-68.25
X130.85Y-76.0
X130.85Y-118.9
X131.2Y-101.0
X131.5Y-45.05
X131.5Y-46.75
X131.5Y-48.4
X131.6Y-120.25
X132.65Y-109.4
X132.8Y-58.0
X132.85Y-70.4
X132.9Y-71.9
X132.9Y-73.45
X133.0Y-60.35
X133.0Y-61.75
X133.0Y-63.3
X133.3Y-45.05
X133.3Y-46.75
X133.3Y-48.4
X133.7Y-70.4
X133.75Y-71.9
X133.75Y-73.45
X133.85Y-60.35
X133.85Y-61.75
X133.85Y-63.3
X134.351Y-114.613
X134.55Y-70.4
X134.6Y-71.9
X134.6Y-73.45
X134.7Y-60.35
X134.7Y-61.75
X134.7Y-63.3
X135.0Y-45.05
X135.0Y-46.75
X135.0Y-48.4
X135.4Y-70.4
X135.45Y-71.9
X135.45Y-73.45
X135.55Y-60.35
X135.55Y-61.75
X135.55Y-63.3
X136.15Y-76.85
X136.25Y-70.4
X136.3Y-71.9
X136.3Y-73.45
X136.3Y-130.8
X136.4Y-60.35
X136.4Y-61.75
X136.4Y-63.3
X138.5Y-114.6
X140.45Y-127.9
X140.9Y-98.55
X140.95Y-130.7
X144.8Y-129.55
X144.85Y-118.575
X144.85Y-124.6
X144.95Y-71.6
X145.0Y-64.65
X145.05Y-61.65
X147.0Y-113.65
X147.1Y-123.15
X147.55Y-107.7
X149.005Y-70.805
X149.3Y-68.0
X151.263Y-70.713
X151.6Y-67.95
X157.6Y-115.4
X159.3Y-108.7
X162.6Y-103.7
X166.05Y-131.25
X174.15Y-131.4
X174.15Y-132.95
X175.1Y-127.4
X176.1Y-72.8
X176.85Y-124.35
X181.65Y-82.9
T2
X152.5Y-114.85
X152.55Y-111.3
X154.25Y-111.35
T3
X35.0Y-37.7
X35.003Y-130.797
X35.703Y-36.003
X35.703Y-39.397
X35.706Y-129.1
X35.706Y-132.494
X37.4Y-35.3
X37.4Y-40.1
X37.403Y-128.397
X37.403Y-133.197
X39.097Y-36.003
X39.097Y-39.397
X39.1Y-129.1
X39.1Y-132.494
X39.8Y-37.7
X39.803Y-130.797
X85.0Y-37.7
X85.0Y-130.797
X85.703Y-36.003
X85.703Y-39.397
X85.703Y-129.1
X85.703Y-132.494
X87.4Y-35.3
X87.4Y-40.1
X87.4Y-128.397
X87.4Y-133.197
X89.097Y-36.003
X89.097Y-39.397
X89.097Y-129.1
X89.097Y-132.494
X89.8Y-37.7
X89.8Y-130.797
X178.0Y-37.7
X178.0Y-130.803
X178.703Y-36.003
X178.703Y-39.397
X178.703Y-129.106
X178.703Y-132.5
X180.4Y-35.3
X180.4Y-40.1
X180.4Y-128.403
X180.4Y-133.203
X182.097Y-36.003
X182.097Y-39.397
X182.097Y-129.106
X182.097Y-132.5
X182.8Y-37.7
X182.8Y-130.803
T4
X37.024Y-120.552
X37.024Y-122.552
X37.024Y-124.552
X37.449Y-44.302
X37.449Y-46.302
X37.449Y-48.302
X99.85Y-82.4
X101.12Y-82.4
X102.39Y-82.4
X105.534Y-82.252
X106.804Y-82.252
X108.074Y-82.252
X120.449Y-126.652
X122.449Y-126.652
X124.449Y-126.652
X126.449Y-126.652
T5
X133.1Y-111.975
X147.45Y-130.177
X150.7Y-130.177
X154.8Y-130.177
X156.42Y-88.22
X158.75Y-130.15
X160.8Y-92.6
X160.85Y-95.65
X164.15Y-120.45
X164.2Y-92.7
X164.2Y-95.2
X165.6Y-114.9
X166.4Y-120.45
X170.65Y-125.55
X180.8Y-92.25
X181.55Y-87.8
T6
X130.81Y-123.444
X133.35Y-123.444
X135.47Y-116.86
X135.47Y-119.4
X135.89Y-123.444
X138.01Y-116.86
X138.01Y-119.4
X138.43Y-123.444
X139.549Y-44.4
X140.55Y-116.86
X140.55Y-119.4
X140.97Y-123.444
X150.549Y-44.4
X153.874Y-44.35
X164.874Y-44.35
T7
X172.508Y-54.75
T8
X142.549Y-49.4
X147.549Y-49.4
X156.874Y-49.35
X161.874Y-49.35
T9
X177.899Y-75.2
X177.899Y-80.2
X177.899Y-95.2
X177.899Y-100.2
X177.899Y-115.2
X177.899Y-120.2
T10
X37.4Y-37.7
X37.403Y-130.797
X87.4Y-37.7
X87.4Y-130.797
X180.4Y-37.7
X180.4Y-130.803
T11
X45.874Y-110.702
X45.874Y-121.702
X46.349Y-46.177
X46.349Y-57.177
X78.124Y-110.302
X78.124Y-121.302
X78.399Y-46.277
X78.399Y-57.277
T0
M30
