G04 #@! TF.GenerationSoftware,KiCad,Pcbnew,7.0.1*
G04 #@! TF.CreationDate,2023-11-20T20:44:28-08:00*
G04 #@! TF.ProjectId,rps01,72707330-312e-46b6-9963-61645f706362,2*
G04 #@! TF.SameCoordinates,Original*
G04 #@! TF.FileFunction,Paste,Top*
G04 #@! TF.FilePolarity,Positive*
%FSLAX46Y46*%
G04 Gerber Fmt 4.6, Leading zero omitted, Abs format (unit mm)*
G04 Created by KiCad (PCBNEW 7.0.1) date 2023-11-20 20:44:28*
%MOMM*%
%LPD*%
G01*
G04 APERTURE LIST*
G04 Aperture macros list*
%AMRoundRect*
0 Rectangle with rounded corners*
0 $1 Rounding radius*
0 $2 $3 $4 $5 $6 $7 $8 $9 X,Y pos of 4 corners*
0 Add a 4 corners polygon primitive as box body*
4,1,4,$2,$3,$4,$5,$6,$7,$8,$9,$2,$3,0*
0 Add four circle primitives for the rounded corners*
1,1,$1+$1,$2,$3*
1,1,$1+$1,$4,$5*
1,1,$1+$1,$6,$7*
1,1,$1+$1,$8,$9*
0 Add four rect primitives between the rounded corners*
20,1,$1+$1,$2,$3,$4,$5,0*
20,1,$1+$1,$4,$5,$6,$7,0*
20,1,$1+$1,$6,$7,$8,$9,0*
20,1,$1+$1,$8,$9,$2,$3,0*%
G04 Aperture macros list end*
%ADD10RoundRect,0.250000X-0.412500X-0.650000X0.412500X-0.650000X0.412500X0.650000X-0.412500X0.650000X0*%
%ADD11R,1.100000X2.000000*%
%ADD12RoundRect,0.225000X0.250000X-0.225000X0.250000X0.225000X-0.250000X0.225000X-0.250000X-0.225000X0*%
%ADD13RoundRect,0.200000X0.200000X0.275000X-0.200000X0.275000X-0.200000X-0.275000X0.200000X-0.275000X0*%
%ADD14RoundRect,0.250000X0.625000X-0.312500X0.625000X0.312500X-0.625000X0.312500X-0.625000X-0.312500X0*%
%ADD15RoundRect,0.200000X-0.275000X0.200000X-0.275000X-0.200000X0.275000X-0.200000X0.275000X0.200000X0*%
%ADD16RoundRect,0.225000X-0.250000X0.225000X-0.250000X-0.225000X0.250000X-0.225000X0.250000X0.225000X0*%
%ADD17R,4.241800X3.810000*%
%ADD18RoundRect,0.200000X0.275000X-0.200000X0.275000X0.200000X-0.275000X0.200000X-0.275000X-0.200000X0*%
%ADD19RoundRect,0.225000X-0.225000X-0.250000X0.225000X-0.250000X0.225000X0.250000X-0.225000X0.250000X0*%
%ADD20RoundRect,0.250000X1.500000X1.000000X-1.500000X1.000000X-1.500000X-1.000000X1.500000X-1.000000X0*%
%ADD21RoundRect,0.225000X0.225000X0.250000X-0.225000X0.250000X-0.225000X-0.250000X0.225000X-0.250000X0*%
%ADD22RoundRect,0.112500X-0.187500X-0.112500X0.187500X-0.112500X0.187500X0.112500X-0.187500X0.112500X0*%
%ADD23RoundRect,0.200000X-0.200000X-0.275000X0.200000X-0.275000X0.200000X0.275000X-0.200000X0.275000X0*%
%ADD24R,4.000000X7.800000*%
%ADD25R,0.804800X0.249200*%
%ADD26R,0.249200X0.804800*%
%ADD27R,4.521200X4.241800*%
%ADD28RoundRect,0.237500X0.237500X-0.250000X0.237500X0.250000X-0.237500X0.250000X-0.237500X-0.250000X0*%
%ADD29R,2.499995X2.560396*%
%ADD30R,1.460500X0.558800*%
%ADD31RoundRect,0.250000X0.400000X0.625000X-0.400000X0.625000X-0.400000X-0.625000X0.400000X-0.625000X0*%
%ADD32R,3.810000X4.241800*%
%ADD33RoundRect,0.225000X-0.225000X-0.375000X0.225000X-0.375000X0.225000X0.375000X-0.225000X0.375000X0*%
%ADD34RoundRect,0.250000X0.625000X-0.400000X0.625000X0.400000X-0.625000X0.400000X-0.625000X-0.400000X0*%
%ADD35R,0.279400X1.333500*%
%ADD36RoundRect,0.225000X0.375000X-0.225000X0.375000X0.225000X-0.375000X0.225000X-0.375000X-0.225000X0*%
%ADD37RoundRect,0.250000X0.650000X-0.412500X0.650000X0.412500X-0.650000X0.412500X-0.650000X-0.412500X0*%
%ADD38R,1.600000X0.550000*%
%ADD39R,0.550000X1.600000*%
%ADD40R,0.508000X0.952500*%
%ADD41RoundRect,0.250000X-0.625000X0.400000X-0.625000X-0.400000X0.625000X-0.400000X0.625000X0.400000X0*%
%ADD42R,0.355600X1.473200*%
%ADD43RoundRect,0.250000X-0.625000X0.312500X-0.625000X-0.312500X0.625000X-0.312500X0.625000X0.312500X0*%
%ADD44RoundRect,0.250000X-0.650000X0.412500X-0.650000X-0.412500X0.650000X-0.412500X0.650000X0.412500X0*%
%ADD45R,2.159000X1.955800*%
%ADD46O,2.159000X17.907000*%
%ADD47O,13.970000X1.524000*%
%ADD48R,1.600000X1.400000*%
%ADD49RoundRect,0.225000X-0.375000X0.225000X-0.375000X-0.225000X0.375000X-0.225000X0.375000X0.225000X0*%
%ADD50RoundRect,0.250000X-1.500000X-1.000000X1.500000X-1.000000X1.500000X1.000000X-1.500000X1.000000X0*%
%ADD51R,1.473200X0.355600*%
%ADD52R,2.000000X4.500000*%
%ADD53RoundRect,0.112500X0.112500X-0.187500X0.112500X0.187500X-0.112500X0.187500X-0.112500X-0.187500X0*%
G04 APERTURE END LIST*
G36*
X119911100Y-53800000D02*
G01*
X118336100Y-53800000D01*
X118336100Y-52225000D01*
X119911100Y-52225000D01*
X119911100Y-53800000D01*
G37*
G36*
X119911100Y-55575000D02*
G01*
X118336100Y-55575000D01*
X118336100Y-54000000D01*
X119911100Y-54000000D01*
X119911100Y-55575000D01*
G37*
G36*
X121686100Y-53800000D02*
G01*
X120111100Y-53800000D01*
X120111100Y-52225000D01*
X121686100Y-52225000D01*
X121686100Y-53800000D01*
G37*
G36*
X121686100Y-55575000D02*
G01*
X120111100Y-55575000D01*
X120111100Y-54000000D01*
X121686100Y-54000000D01*
X121686100Y-55575000D01*
G37*
D10*
X111300000Y-52600000D03*
X114425000Y-52600000D03*
X111300000Y-55500000D03*
X114425000Y-55500000D03*
X126637500Y-51650000D03*
X129762500Y-51650000D03*
D11*
X60113750Y-126243939D03*
X61813750Y-126243939D03*
X63513750Y-126243939D03*
X63513750Y-121443939D03*
X61813750Y-121443939D03*
X60113750Y-121443939D03*
D12*
X131050000Y-117050000D03*
X131050000Y-115500000D03*
D13*
X106325000Y-119700000D03*
X104675000Y-119700000D03*
D14*
X124650000Y-121925000D03*
X124650000Y-119000000D03*
D12*
X105500000Y-128475000D03*
X105500000Y-126925000D03*
X107050000Y-128500000D03*
X107050000Y-126950000D03*
D13*
X110300000Y-126900000D03*
X108650000Y-126900000D03*
D12*
X104750000Y-115125000D03*
X104750000Y-113575000D03*
D15*
X114450000Y-103650000D03*
X114450000Y-105300000D03*
D16*
X120450000Y-103850000D03*
X120450000Y-105400000D03*
D17*
X101800000Y-99500000D03*
X108175400Y-99500000D03*
D18*
X164250000Y-89175000D03*
X164250000Y-87525000D03*
D19*
X159775000Y-115500000D03*
X161325000Y-115500000D03*
D20*
X181150000Y-87700000D03*
X174650000Y-87700000D03*
D21*
X113300000Y-122850000D03*
X111750000Y-122850000D03*
D10*
X126662500Y-49350000D03*
X129787500Y-49350000D03*
D22*
X108300000Y-122850000D03*
X110400000Y-122850000D03*
D23*
X108600000Y-129925000D03*
X110250000Y-129925000D03*
D19*
X117675000Y-131050000D03*
X119225000Y-131050000D03*
D24*
X102650000Y-39150000D03*
X113650000Y-39150000D03*
D25*
X117558700Y-52150001D03*
X117558700Y-52650000D03*
X117558700Y-53149999D03*
X117558700Y-53650000D03*
X117558700Y-54150000D03*
X117558700Y-54650001D03*
X117558700Y-55150000D03*
X117558700Y-55649999D03*
D26*
X118261101Y-56352400D03*
X118761100Y-56352400D03*
X119261099Y-56352400D03*
X119761100Y-56352400D03*
X120261100Y-56352400D03*
X120761101Y-56352400D03*
X121261100Y-56352400D03*
X121761099Y-56352400D03*
D25*
X122463500Y-55649999D03*
X122463500Y-55150000D03*
X122463500Y-54650001D03*
X122463500Y-54150000D03*
X122463500Y-53650000D03*
X122463500Y-53149999D03*
X122463500Y-52650000D03*
X122463500Y-52150001D03*
D26*
X121761099Y-51447600D03*
X121261100Y-51447600D03*
X120761101Y-51447600D03*
X120261100Y-51447600D03*
X119761100Y-51447600D03*
X119261099Y-51447600D03*
X118761100Y-51447600D03*
X118261101Y-51447600D03*
D13*
X110275000Y-128425000D03*
X108625000Y-128425000D03*
D27*
X134600000Y-61800002D03*
X134600000Y-71950000D03*
D20*
X169000000Y-103200000D03*
X162500000Y-103200000D03*
D28*
X118000000Y-121575000D03*
X118000000Y-119750000D03*
D29*
X128700000Y-60177806D03*
X128700000Y-65522194D03*
D30*
X121301700Y-107690000D03*
X121301700Y-108960000D03*
X121301700Y-110230000D03*
X121301700Y-111500000D03*
X126750000Y-111500000D03*
X126750000Y-110230000D03*
X126750000Y-108960000D03*
X126750000Y-107690000D03*
D31*
X172400000Y-58800000D03*
X169300000Y-58800000D03*
D17*
X172508150Y-54750000D03*
X166132750Y-54750000D03*
D23*
X99975000Y-125950000D03*
X101625000Y-125950000D03*
D32*
X169750000Y-95837700D03*
X169750000Y-89462300D03*
D15*
X112900000Y-103650000D03*
X112900000Y-105300000D03*
D33*
X123850000Y-44700000D03*
X127150000Y-44700000D03*
D13*
X104625000Y-110250000D03*
X102975000Y-110250000D03*
D34*
X124800000Y-62150000D03*
X124800000Y-59050000D03*
X118300000Y-64600000D03*
X118300000Y-61500000D03*
D35*
X37698419Y-85806730D03*
X38198799Y-85806730D03*
X38699179Y-85806730D03*
X39199559Y-85806730D03*
X39699939Y-85806730D03*
X39699939Y-81374430D03*
X39199559Y-81374430D03*
X38699179Y-81374430D03*
X38198799Y-81374430D03*
X37698419Y-81374430D03*
D23*
X100000000Y-128998000D03*
X101650000Y-128998000D03*
D36*
X129100000Y-117000000D03*
X129100000Y-113700000D03*
D37*
X121150000Y-62262500D03*
X121150000Y-59137500D03*
D38*
X109100000Y-110750000D03*
X109100000Y-111550000D03*
X109100000Y-112350000D03*
X109100000Y-113150000D03*
X109100000Y-113950000D03*
X109100000Y-114750000D03*
X109100000Y-115550000D03*
X109100000Y-116350000D03*
D39*
X110550000Y-117800000D03*
X111350000Y-117800000D03*
X112150000Y-117800000D03*
X112950000Y-117800000D03*
X113750000Y-117800000D03*
X114550000Y-117800000D03*
X115350000Y-117800000D03*
X116150000Y-117800000D03*
D38*
X117600000Y-116350000D03*
X117600000Y-115550000D03*
X117600000Y-114750000D03*
X117600000Y-113950000D03*
X117600000Y-113150000D03*
X117600000Y-112350000D03*
X117600000Y-111550000D03*
X117600000Y-110750000D03*
D39*
X116150000Y-109300000D03*
X115350000Y-109300000D03*
X114550000Y-109300000D03*
X113750000Y-109300000D03*
X112950000Y-109300000D03*
X112150000Y-109300000D03*
X111350000Y-109300000D03*
X110550000Y-109300000D03*
D28*
X128900000Y-120775000D03*
X128900000Y-118950000D03*
D40*
X114150000Y-131302700D03*
X115100001Y-131302700D03*
X116050002Y-131302700D03*
X116050002Y-128750000D03*
X114150000Y-128750000D03*
D21*
X131925000Y-120600000D03*
X130375000Y-120600000D03*
D40*
X114099998Y-127000000D03*
X115049999Y-127000000D03*
X116000000Y-127000000D03*
X116000000Y-124447300D03*
X114099998Y-124447300D03*
D16*
X104750000Y-116625000D03*
X104750000Y-118175000D03*
D19*
X104700000Y-112050000D03*
X106250000Y-112050000D03*
D41*
X120900000Y-69450000D03*
X120900000Y-72550000D03*
X115950000Y-61500000D03*
X115950000Y-64600000D03*
D12*
X71500000Y-81500000D03*
X71500000Y-79950000D03*
D42*
X72574178Y-83230680D03*
X71924180Y-83230680D03*
X71274178Y-83230680D03*
X70624180Y-83230680D03*
X70624180Y-89072680D03*
X71274178Y-89072680D03*
X71924180Y-89072680D03*
X72574178Y-89072680D03*
D41*
X111700000Y-44450000D03*
X111700000Y-47550000D03*
X110400000Y-61450000D03*
X110400000Y-64550000D03*
D36*
X109400000Y-47550000D03*
X109400000Y-44250000D03*
D12*
X162750000Y-89125000D03*
X162750000Y-87575000D03*
D43*
X126950000Y-119000000D03*
X126950000Y-121925000D03*
D37*
X124800000Y-67250000D03*
X124800000Y-64125000D03*
D23*
X106375000Y-77800000D03*
X108025000Y-77800000D03*
D44*
X113300000Y-61437500D03*
X113300000Y-64562500D03*
D17*
X171008150Y-114650000D03*
X164632750Y-114650000D03*
D15*
X159850000Y-112300000D03*
X159850000Y-113950000D03*
D43*
X122350000Y-119000000D03*
X122350000Y-121925000D03*
D12*
X161400000Y-113400000D03*
X161400000Y-111850000D03*
D23*
X100000000Y-127474000D03*
X101650000Y-127474000D03*
D15*
X161250000Y-87525000D03*
X161250000Y-89175000D03*
D18*
X144850000Y-121600000D03*
X144850000Y-119950000D03*
D20*
X180900000Y-107700000D03*
X174400000Y-107700000D03*
D41*
X121950000Y-41350000D03*
X121950000Y-44450000D03*
D23*
X108600000Y-131400000D03*
X110250000Y-131400000D03*
X114700000Y-122850000D03*
X116350000Y-122850000D03*
D41*
X110400000Y-66950000D03*
X110400000Y-70050000D03*
D30*
X121300000Y-113290000D03*
X121300000Y-114560000D03*
X121300000Y-115830000D03*
X121300000Y-117100000D03*
X126748300Y-117100000D03*
X126748300Y-115830000D03*
X126748300Y-114560000D03*
X126748300Y-113290000D03*
D10*
X128487500Y-56400000D03*
X131612500Y-56400000D03*
D44*
X119550000Y-44487500D03*
X119550000Y-47612500D03*
D45*
X131200000Y-96931500D03*
X131200000Y-100868500D03*
D10*
X126662500Y-47050000D03*
X129787500Y-47050000D03*
X111350000Y-58450000D03*
X114475000Y-58450000D03*
D21*
X101850000Y-77800000D03*
X100300000Y-77800000D03*
D34*
X123240000Y-72550000D03*
X123240000Y-69450000D03*
D46*
X156936100Y-102550000D03*
X135854100Y-102550000D03*
D47*
X153700000Y-130874998D03*
X153700000Y-117925002D03*
D48*
X108400000Y-106400000D03*
X101200000Y-106400000D03*
X108400000Y-103400000D03*
X101200000Y-103400000D03*
D49*
X118550000Y-103800000D03*
X118550000Y-107100000D03*
D44*
X117150000Y-41187500D03*
X117150000Y-44312500D03*
D17*
X165162300Y-120400000D03*
X171537700Y-120400000D03*
D14*
X120000000Y-121925000D03*
X120000000Y-119000000D03*
D23*
X70299179Y-92576680D03*
X71949179Y-92576680D03*
D49*
X112150000Y-128100000D03*
X112150000Y-131400000D03*
D18*
X144850000Y-118575000D03*
X144850000Y-116925000D03*
D50*
X165850000Y-128100000D03*
X172350000Y-128100000D03*
D13*
X106325000Y-121200000D03*
X104675000Y-121200000D03*
X104575000Y-108750000D03*
X102925000Y-108750000D03*
D51*
X100629000Y-74125001D03*
X100629000Y-74774999D03*
X100629000Y-75425001D03*
X100629000Y-76074999D03*
X106471000Y-76074999D03*
X106471000Y-75425001D03*
X106471000Y-74774999D03*
X106471000Y-74125001D03*
D16*
X111400000Y-98600000D03*
X111400000Y-100150000D03*
D33*
X106950000Y-125000000D03*
X110250000Y-125000000D03*
D44*
X117100000Y-46325000D03*
X117100000Y-49450000D03*
D19*
X117675000Y-132600000D03*
X119225000Y-132600000D03*
D13*
X104950000Y-77800000D03*
X103300000Y-77800000D03*
D52*
X101350000Y-113550000D03*
X101350000Y-122050000D03*
D48*
X57952000Y-128512000D03*
X65152000Y-128512000D03*
X57952000Y-131512000D03*
X65152000Y-131512000D03*
D53*
X112150000Y-126550000D03*
X112150000Y-124450000D03*
D21*
X71924179Y-91051680D03*
X70374179Y-91051680D03*
M02*
