G04 #@! TF.GenerationSoftware,KiCad,Pcbnew,7.0.1*
G04 #@! TF.CreationDate,2023-11-20T20:44:29-08:00*
G04 #@! TF.ProjectId,rps01,72707330-312e-46b6-9963-61645f706362,2*
G04 #@! TF.SameCoordinates,Original*
G04 #@! TF.FileFunction,Paste,Bot*
G04 #@! TF.FilePolarity,Positive*
%FSLAX46Y46*%
G04 Gerber Fmt 4.6, Leading zero omitted, Abs format (unit mm)*
G04 Created by KiCad (PCBNEW 7.0.1) date 2023-11-20 20:44:29*
%MOMM*%
%LPD*%
G01*
G04 APERTURE LIST*
G04 Aperture macros list*
%AMRoundRect*
0 Rectangle with rounded corners*
0 $1 Rounding radius*
0 $2 $3 $4 $5 $6 $7 $8 $9 X,Y pos of 4 corners*
0 Add a 4 corners polygon primitive as box body*
4,1,4,$2,$3,$4,$5,$6,$7,$8,$9,$2,$3,0*
0 Add four circle primitives for the rounded corners*
1,1,$1+$1,$2,$3*
1,1,$1+$1,$4,$5*
1,1,$1+$1,$6,$7*
1,1,$1+$1,$8,$9*
0 Add four rect primitives between the rounded corners*
20,1,$1+$1,$2,$3,$4,$5,0*
20,1,$1+$1,$4,$5,$6,$7,0*
20,1,$1+$1,$6,$7,$8,$9,0*
20,1,$1+$1,$8,$9,$2,$3,0*%
G04 Aperture macros list end*
%ADD10R,2.159000X1.955800*%
%ADD11R,2.184400X1.625600*%
%ADD12RoundRect,0.250000X0.650000X-0.412500X0.650000X0.412500X-0.650000X0.412500X-0.650000X-0.412500X0*%
%ADD13R,0.812800X3.251200*%
%ADD14R,7.874000X8.305800*%
%ADD15RoundRect,0.250000X-0.650000X0.412500X-0.650000X-0.412500X0.650000X-0.412500X0.650000X0.412500X0*%
%ADD16R,0.431800X1.143000*%
%ADD17R,0.431800X0.965200*%
%ADD18RoundRect,0.150000X-0.150000X0.587500X-0.150000X-0.587500X0.150000X-0.587500X0.150000X0.587500X0*%
%ADD19RoundRect,0.250000X0.625000X-0.400000X0.625000X0.400000X-0.625000X0.400000X-0.625000X-0.400000X0*%
%ADD20RoundRect,0.200000X0.200000X0.275000X-0.200000X0.275000X-0.200000X-0.275000X0.200000X-0.275000X0*%
%ADD21RoundRect,0.200000X-0.200000X-0.275000X0.200000X-0.275000X0.200000X0.275000X-0.200000X0.275000X0*%
%ADD22R,1.500000X2.000000*%
%ADD23R,3.800000X2.000000*%
%ADD24R,3.360000X4.860000*%
%ADD25R,1.390000X1.400000*%
%ADD26RoundRect,0.200000X0.275000X-0.200000X0.275000X0.200000X-0.275000X0.200000X-0.275000X-0.200000X0*%
%ADD27R,1.625600X2.184400*%
%ADD28R,4.000000X7.800000*%
%ADD29RoundRect,0.249999X-0.450001X-1.425001X0.450001X-1.425001X0.450001X1.425001X-0.450001X1.425001X0*%
%ADD30R,4.860000X3.360000*%
%ADD31R,1.400000X1.390000*%
%ADD32R,1.143000X0.431800*%
%ADD33R,0.965200X0.431800*%
%ADD34RoundRect,0.250000X-0.300000X2.050000X-0.300000X-2.050000X0.300000X-2.050000X0.300000X2.050000X0*%
%ADD35RoundRect,0.250000X-2.375000X2.025000X-2.375000X-2.025000X2.375000X-2.025000X2.375000X2.025000X0*%
%ADD36RoundRect,0.200000X-0.275000X0.200000X-0.275000X-0.200000X0.275000X-0.200000X0.275000X0.200000X0*%
%ADD37R,2.000000X1.500000*%
%ADD38R,2.000000X3.800000*%
G04 APERTURE END LIST*
G36*
X136371700Y-56019400D02*
G01*
X133298300Y-56019400D01*
X133298300Y-55435200D01*
X136371700Y-55435200D01*
X136371700Y-56019400D01*
G37*
G36*
X133367634Y-55005000D02*
G01*
X132102900Y-55005000D01*
X132102900Y-53935000D01*
X133367634Y-53935000D01*
X133367634Y-55005000D01*
G37*
G36*
X134832367Y-55005000D02*
G01*
X133567633Y-55005000D01*
X133567633Y-53935000D01*
X134832367Y-53935000D01*
X134832367Y-55005000D01*
G37*
G36*
X136297100Y-55005000D02*
G01*
X135032366Y-55005000D01*
X135032366Y-53935000D01*
X136297100Y-53935000D01*
X136297100Y-55005000D01*
G37*
G36*
X136397100Y-54597000D02*
G01*
X132002900Y-54597000D01*
X132002900Y-50787000D01*
X136397100Y-50787000D01*
X136397100Y-54597000D01*
G37*
G36*
X133367634Y-53735000D02*
G01*
X132102900Y-53735000D01*
X132102900Y-52665000D01*
X133367634Y-52665000D01*
X133367634Y-53735000D01*
G37*
G36*
X134832367Y-53735000D02*
G01*
X133567633Y-53735000D01*
X133567633Y-52665000D01*
X134832367Y-52665000D01*
X134832367Y-53735000D01*
G37*
G36*
X136297100Y-53735000D02*
G01*
X135032366Y-53735000D01*
X135032366Y-52665000D01*
X136297100Y-52665000D01*
X136297100Y-53735000D01*
G37*
G36*
X133367634Y-52465000D02*
G01*
X132102900Y-52465000D01*
X132102900Y-51395000D01*
X133367634Y-51395000D01*
X133367634Y-52465000D01*
G37*
G36*
X134832367Y-52465000D02*
G01*
X133567633Y-52465000D01*
X133567633Y-51395000D01*
X134832367Y-51395000D01*
X134832367Y-52465000D01*
G37*
G36*
X136297100Y-52465000D02*
G01*
X135032366Y-52465000D01*
X135032366Y-51395000D01*
X136297100Y-51395000D01*
X136297100Y-52465000D01*
G37*
G36*
X144969400Y-70601700D02*
G01*
X144385200Y-70601700D01*
X144385200Y-67528300D01*
X144969400Y-67528300D01*
X144969400Y-70601700D01*
G37*
G36*
X143955000Y-71797100D02*
G01*
X142885000Y-71797100D01*
X142885000Y-70532366D01*
X143955000Y-70532366D01*
X143955000Y-71797100D01*
G37*
G36*
X143955000Y-70332367D02*
G01*
X142885000Y-70332367D01*
X142885000Y-69067633D01*
X143955000Y-69067633D01*
X143955000Y-70332367D01*
G37*
G36*
X143955000Y-68867634D02*
G01*
X142885000Y-68867634D01*
X142885000Y-67602900D01*
X143955000Y-67602900D01*
X143955000Y-68867634D01*
G37*
G36*
X143547000Y-71897100D02*
G01*
X139737000Y-71897100D01*
X139737000Y-67502900D01*
X143547000Y-67502900D01*
X143547000Y-71897100D01*
G37*
G36*
X142685000Y-71797100D02*
G01*
X141615000Y-71797100D01*
X141615000Y-70532366D01*
X142685000Y-70532366D01*
X142685000Y-71797100D01*
G37*
G36*
X142685000Y-70332367D02*
G01*
X141615000Y-70332367D01*
X141615000Y-69067633D01*
X142685000Y-69067633D01*
X142685000Y-70332367D01*
G37*
G36*
X142685000Y-68867634D02*
G01*
X141615000Y-68867634D01*
X141615000Y-67602900D01*
X142685000Y-67602900D01*
X142685000Y-68867634D01*
G37*
G36*
X141415000Y-71797100D02*
G01*
X140345000Y-71797100D01*
X140345000Y-70532366D01*
X141415000Y-70532366D01*
X141415000Y-71797100D01*
G37*
G36*
X141415000Y-70332367D02*
G01*
X140345000Y-70332367D01*
X140345000Y-69067633D01*
X141415000Y-69067633D01*
X141415000Y-70332367D01*
G37*
G36*
X141415000Y-68867634D02*
G01*
X140345000Y-68867634D01*
X140345000Y-67602900D01*
X141415000Y-67602900D01*
X141415000Y-68867634D01*
G37*
G36*
X135146700Y-77419200D02*
G01*
X132073300Y-77419200D01*
X132073300Y-76835000D01*
X135146700Y-76835000D01*
X135146700Y-77419200D01*
G37*
G36*
X136342100Y-78919400D02*
G01*
X135077366Y-78919400D01*
X135077366Y-77849400D01*
X136342100Y-77849400D01*
X136342100Y-78919400D01*
G37*
G36*
X134877367Y-78919400D02*
G01*
X133612633Y-78919400D01*
X133612633Y-77849400D01*
X134877367Y-77849400D01*
X134877367Y-78919400D01*
G37*
G36*
X133412634Y-78919400D02*
G01*
X132147900Y-78919400D01*
X132147900Y-77849400D01*
X133412634Y-77849400D01*
X133412634Y-78919400D01*
G37*
G36*
X136442100Y-82067400D02*
G01*
X132047900Y-82067400D01*
X132047900Y-78257400D01*
X136442100Y-78257400D01*
X136442100Y-82067400D01*
G37*
G36*
X136342100Y-80189400D02*
G01*
X135077366Y-80189400D01*
X135077366Y-79119400D01*
X136342100Y-79119400D01*
X136342100Y-80189400D01*
G37*
G36*
X134877367Y-80189400D02*
G01*
X133612633Y-80189400D01*
X133612633Y-79119400D01*
X134877367Y-79119400D01*
X134877367Y-80189400D01*
G37*
G36*
X133412634Y-80189400D02*
G01*
X132147900Y-80189400D01*
X132147900Y-79119400D01*
X133412634Y-79119400D01*
X133412634Y-80189400D01*
G37*
G36*
X136342100Y-81459400D02*
G01*
X135077366Y-81459400D01*
X135077366Y-80389400D01*
X136342100Y-80389400D01*
X136342100Y-81459400D01*
G37*
G36*
X134877367Y-81459400D02*
G01*
X133612633Y-81459400D01*
X133612633Y-80389400D01*
X134877367Y-80389400D01*
X134877367Y-81459400D01*
G37*
G36*
X133412634Y-81459400D02*
G01*
X132147900Y-81459400D01*
X132147900Y-80389400D01*
X133412634Y-80389400D01*
X133412634Y-81459400D01*
G37*
G36*
X145069400Y-60701700D02*
G01*
X144485200Y-60701700D01*
X144485200Y-57628300D01*
X145069400Y-57628300D01*
X145069400Y-60701700D01*
G37*
G36*
X144055000Y-61897100D02*
G01*
X142985000Y-61897100D01*
X142985000Y-60632366D01*
X144055000Y-60632366D01*
X144055000Y-61897100D01*
G37*
G36*
X144055000Y-60432367D02*
G01*
X142985000Y-60432367D01*
X142985000Y-59167633D01*
X144055000Y-59167633D01*
X144055000Y-60432367D01*
G37*
G36*
X144055000Y-58967634D02*
G01*
X142985000Y-58967634D01*
X142985000Y-57702900D01*
X144055000Y-57702900D01*
X144055000Y-58967634D01*
G37*
G36*
X143647000Y-61997100D02*
G01*
X139837000Y-61997100D01*
X139837000Y-57602900D01*
X143647000Y-57602900D01*
X143647000Y-61997100D01*
G37*
G36*
X142785000Y-61897100D02*
G01*
X141715000Y-61897100D01*
X141715000Y-60632366D01*
X142785000Y-60632366D01*
X142785000Y-61897100D01*
G37*
G36*
X142785000Y-60432367D02*
G01*
X141715000Y-60432367D01*
X141715000Y-59167633D01*
X142785000Y-59167633D01*
X142785000Y-60432367D01*
G37*
G36*
X142785000Y-58967634D02*
G01*
X141715000Y-58967634D01*
X141715000Y-57702900D01*
X142785000Y-57702900D01*
X142785000Y-58967634D01*
G37*
G36*
X141515000Y-61897100D02*
G01*
X140445000Y-61897100D01*
X140445000Y-60632366D01*
X141515000Y-60632366D01*
X141515000Y-61897100D01*
G37*
G36*
X141515000Y-60432367D02*
G01*
X140445000Y-60432367D01*
X140445000Y-59167633D01*
X141515000Y-59167633D01*
X141515000Y-60432367D01*
G37*
G36*
X141515000Y-58967634D02*
G01*
X140445000Y-58967634D01*
X140445000Y-57702900D01*
X141515000Y-57702900D01*
X141515000Y-58967634D01*
G37*
D10*
X164250000Y-120313000D03*
X164250000Y-124250000D03*
D11*
X119204200Y-69300000D03*
X115495800Y-69300000D03*
D12*
X124000000Y-72362500D03*
X124000000Y-69237500D03*
D13*
X41359179Y-88153680D03*
X43899179Y-88153680D03*
X46439179Y-88153680D03*
D14*
X43899179Y-98275580D03*
D15*
X169050000Y-48225000D03*
X169050000Y-51350000D03*
D16*
X136105000Y-56006700D03*
X134835000Y-56006700D03*
X133565000Y-56006700D03*
X132295000Y-56006700D03*
D17*
X132295000Y-50304400D03*
X133565000Y-50304400D03*
X134835000Y-50304400D03*
X136105000Y-50304400D03*
D18*
X119050000Y-106150000D03*
X120950000Y-106150000D03*
X120000000Y-108025000D03*
D19*
X121650000Y-75450000D03*
X121650000Y-72350000D03*
D20*
X147350000Y-106060000D03*
X145700000Y-106060000D03*
D21*
X145700000Y-107600000D03*
X147350000Y-107600000D03*
D22*
X91350000Y-49550000D03*
X89050000Y-49550000D03*
X86750000Y-49550000D03*
D23*
X89050000Y-43250000D03*
D24*
X139300000Y-80600000D03*
D25*
X138380000Y-76618000D03*
X140220000Y-76618000D03*
D13*
X57664179Y-75748880D03*
X55124179Y-75748880D03*
X52584179Y-75748880D03*
D14*
X55124179Y-65626980D03*
D26*
X120962500Y-111425000D03*
X120962500Y-109775000D03*
D27*
X128700000Y-69900000D03*
X128700000Y-66191600D03*
D28*
X83996000Y-68580000D03*
X94996000Y-68580000D03*
D13*
X68514179Y-72698880D03*
X65974179Y-72698880D03*
X63434179Y-72698880D03*
D14*
X65974179Y-62576980D03*
D13*
X46639179Y-78999680D03*
X44099179Y-78999680D03*
X41559179Y-78999680D03*
D14*
X44099179Y-68877780D03*
D29*
X145534178Y-64802967D03*
X151634178Y-64802967D03*
D30*
X140900000Y-54750000D03*
D31*
X144882000Y-53830000D03*
X144882000Y-55670000D03*
D21*
X122637500Y-104400000D03*
X124287500Y-104400000D03*
D32*
X144956700Y-67795000D03*
X144956700Y-69065000D03*
X144956700Y-70335000D03*
X144956700Y-71605000D03*
D33*
X139254400Y-71605000D03*
X139254400Y-70335000D03*
X139254400Y-69065000D03*
X139254400Y-67795000D03*
D26*
X119412500Y-111425000D03*
X119412500Y-109775000D03*
D19*
X126400000Y-75450000D03*
X126400000Y-72350000D03*
D26*
X170575000Y-129025000D03*
X170575000Y-127375000D03*
D34*
X159075000Y-94175000D03*
X160775000Y-94175000D03*
X162475000Y-94175000D03*
D35*
X165250000Y-100900000D03*
X159700000Y-100900000D03*
X165250000Y-105750000D03*
X159700000Y-105750000D03*
D34*
X164175000Y-94175000D03*
X165875000Y-94175000D03*
D21*
X174125000Y-131390000D03*
X175775000Y-131390000D03*
D15*
X128700000Y-72345800D03*
X128700000Y-75470800D03*
D36*
X169100000Y-127400000D03*
X169100000Y-129050000D03*
D16*
X132340000Y-76847700D03*
X133610000Y-76847700D03*
X134880000Y-76847700D03*
X136150000Y-76847700D03*
D17*
X136150000Y-82550000D03*
X134880000Y-82550000D03*
X133610000Y-82550000D03*
X132340000Y-82550000D03*
D32*
X145056700Y-57895000D03*
X145056700Y-59165000D03*
X145056700Y-60435000D03*
X145056700Y-61705000D03*
D33*
X139354400Y-61705000D03*
X139354400Y-60435000D03*
X139354400Y-59165000D03*
X139354400Y-57895000D03*
D26*
X124062500Y-111425000D03*
X124062500Y-109775000D03*
D20*
X175775000Y-132950000D03*
X174125000Y-132950000D03*
D13*
X63359179Y-94628680D03*
X65899179Y-94628680D03*
X68439179Y-94628680D03*
D14*
X65899179Y-104750580D03*
D22*
X168599179Y-115926680D03*
X170899179Y-115926680D03*
D23*
X170899179Y-122226680D03*
D22*
X173199179Y-115926680D03*
D15*
X171700000Y-48187500D03*
X171700000Y-51312500D03*
D19*
X151600000Y-71050000D03*
X151600000Y-67950000D03*
D21*
X119200000Y-104400000D03*
X120850000Y-104400000D03*
D34*
X152525000Y-113100000D03*
X154225000Y-113100000D03*
X155925000Y-113100000D03*
D35*
X158700000Y-119825000D03*
X153150000Y-119825000D03*
X158700000Y-124675000D03*
X153150000Y-124675000D03*
D34*
X157625000Y-113100000D03*
X159325000Y-113100000D03*
D26*
X122512500Y-111425000D03*
X122512500Y-109775000D03*
D13*
X52334179Y-91354780D03*
X54874179Y-91354780D03*
X57414179Y-91354780D03*
D14*
X54874179Y-101476680D03*
D37*
X85000000Y-125300000D03*
X85000000Y-123000000D03*
X85000000Y-120700000D03*
D38*
X91300000Y-123000000D03*
D19*
X149300000Y-71100000D03*
X149300000Y-68000000D03*
D18*
X122512500Y-106175000D03*
X124412500Y-106175000D03*
X123462500Y-108050000D03*
D28*
X67524179Y-83351680D03*
X78524179Y-83351680D03*
D15*
X174350000Y-48187500D03*
X174350000Y-51312500D03*
M02*
