G04 #@! TF.GenerationSoftware,KiCad,Pcbnew,7.0.1*
G04 #@! TF.CreationDate,2023-09-17T03:43:03-07:00*
G04 #@! TF.ProjectId,rps01,72707330-312e-46b6-9963-61645f706362,1*
G04 #@! TF.SameCoordinates,Original*
G04 #@! TF.FileFunction,Soldermask,Bot*
G04 #@! TF.FilePolarity,Negative*
%FSLAX46Y46*%
G04 Gerber Fmt 4.6, Leading zero omitted, Abs format (unit mm)*
G04 Created by KiCad (PCBNEW 7.0.1) date 2023-09-17 03:43:03*
%MOMM*%
%LPD*%
G01*
G04 APERTURE LIST*
G04 Aperture macros list*
%AMRoundRect*
0 Rectangle with rounded corners*
0 $1 Rounding radius*
0 $2 $3 $4 $5 $6 $7 $8 $9 X,Y pos of 4 corners*
0 Add a 4 corners polygon primitive as box body*
4,1,4,$2,$3,$4,$5,$6,$7,$8,$9,$2,$3,0*
0 Add four circle primitives for the rounded corners*
1,1,$1+$1,$2,$3*
1,1,$1+$1,$4,$5*
1,1,$1+$1,$6,$7*
1,1,$1+$1,$8,$9*
0 Add four rect primitives between the rounded corners*
20,1,$1+$1,$2,$3,$4,$5,0*
20,1,$1+$1,$4,$5,$6,$7,0*
20,1,$1+$1,$6,$7,$8,$9,0*
20,1,$1+$1,$8,$9,$2,$3,0*%
G04 Aperture macros list end*
%ADD10RoundRect,0.200000X0.200000X0.275000X-0.200000X0.275000X-0.200000X-0.275000X0.200000X-0.275000X0*%
%ADD11R,0.431800X1.143000*%
%ADD12R,0.431800X0.965200*%
%ADD13R,1.143000X0.431800*%
%ADD14R,0.965200X0.431800*%
%ADD15R,2.184400X1.625600*%
%ADD16RoundRect,0.250000X0.325000X0.650000X-0.325000X0.650000X-0.325000X-0.650000X0.325000X-0.650000X0*%
%ADD17R,3.800000X3.800000*%
%ADD18C,4.000000*%
%ADD19RoundRect,1.900000X-1.900000X1.900000X-1.900000X-1.900000X1.900000X-1.900000X1.900000X1.900000X0*%
%ADD20C,7.600000*%
%ADD21R,1.700000X1.700000*%
%ADD22O,1.700000X1.700000*%
%ADD23O,2.000000X1.600000*%
%ADD24RoundRect,0.250000X0.625000X-0.350000X0.625000X0.350000X-0.625000X0.350000X-0.625000X-0.350000X0*%
%ADD25O,1.750000X1.200000*%
%ADD26R,1.050000X1.500000*%
%ADD27O,1.050000X1.500000*%
%ADD28C,1.400000*%
%ADD29R,3.500000X3.500000*%
%ADD30C,3.500000*%
%ADD31C,0.800000*%
%ADD32C,6.400000*%
%ADD33RoundRect,1.900000X1.900000X-1.900000X1.900000X1.900000X-1.900000X1.900000X-1.900000X-1.900000X0*%
%ADD34RoundRect,0.250000X0.350000X0.625000X-0.350000X0.625000X-0.350000X-0.625000X0.350000X-0.625000X0*%
%ADD35O,1.200000X1.750000*%
%ADD36R,1.200000X1.200000*%
%ADD37C,1.200000*%
%ADD38R,0.812800X3.251200*%
%ADD39R,7.874000X8.305800*%
%ADD40RoundRect,0.200000X-0.200000X-0.275000X0.200000X-0.275000X0.200000X0.275000X-0.200000X0.275000X0*%
%ADD41RoundRect,0.200000X0.275000X-0.200000X0.275000X0.200000X-0.275000X0.200000X-0.275000X-0.200000X0*%
%ADD42R,1.500000X2.000000*%
%ADD43R,3.800000X2.000000*%
%ADD44R,2.000000X1.500000*%
%ADD45R,2.000000X3.800000*%
%ADD46RoundRect,0.250000X-0.625000X0.312500X-0.625000X-0.312500X0.625000X-0.312500X0.625000X0.312500X0*%
%ADD47RoundRect,0.225000X-0.225000X-0.250000X0.225000X-0.250000X0.225000X0.250000X-0.225000X0.250000X0*%
%ADD48RoundRect,0.225000X0.225000X0.250000X-0.225000X0.250000X-0.225000X-0.250000X0.225000X-0.250000X0*%
%ADD49RoundRect,0.200000X-0.275000X0.200000X-0.275000X-0.200000X0.275000X-0.200000X0.275000X0.200000X0*%
%ADD50RoundRect,0.250000X-0.300000X2.050000X-0.300000X-2.050000X0.300000X-2.050000X0.300000X2.050000X0*%
%ADD51RoundRect,0.250002X-5.149998X4.449998X-5.149998X-4.449998X5.149998X-4.449998X5.149998X4.449998X0*%
%ADD52RoundRect,0.250000X0.650000X-0.325000X0.650000X0.325000X-0.650000X0.325000X-0.650000X-0.325000X0*%
%ADD53R,1.917700X2.997200*%
%ADD54RoundRect,0.250000X-0.650000X0.325000X-0.650000X-0.325000X0.650000X-0.325000X0.650000X0.325000X0*%
%ADD55R,1.625600X2.184400*%
%ADD56R,4.000000X7.800000*%
%ADD57RoundRect,0.250000X0.625000X-0.312500X0.625000X0.312500X-0.625000X0.312500X-0.625000X-0.312500X0*%
G04 APERTURE END LIST*
G36*
X136397100Y-54597000D02*
G01*
X132002900Y-54597000D01*
X132002900Y-50787000D01*
X136397100Y-50787000D01*
X136397100Y-54597000D01*
G37*
G36*
X136371700Y-56019400D02*
G01*
X133298300Y-56019400D01*
X133298300Y-55435200D01*
X136371700Y-55435200D01*
X136371700Y-56019400D01*
G37*
G36*
X143647000Y-61997100D02*
G01*
X139837000Y-61997100D01*
X139837000Y-57602900D01*
X143647000Y-57602900D01*
X143647000Y-61997100D01*
G37*
G36*
X145069400Y-60701700D02*
G01*
X144485200Y-60701700D01*
X144485200Y-57628300D01*
X145069400Y-57628300D01*
X145069400Y-60701700D01*
G37*
G36*
X143547000Y-71897100D02*
G01*
X139737000Y-71897100D01*
X139737000Y-67502900D01*
X143547000Y-67502900D01*
X143547000Y-71897100D01*
G37*
G36*
X144969400Y-70601700D02*
G01*
X144385200Y-70601700D01*
X144385200Y-67528300D01*
X144969400Y-67528300D01*
X144969400Y-70601700D01*
G37*
G36*
X136447100Y-82063000D02*
G01*
X132052900Y-82063000D01*
X132052900Y-78253000D01*
X136447100Y-78253000D01*
X136447100Y-82063000D01*
G37*
G36*
X135151700Y-77414800D02*
G01*
X132078300Y-77414800D01*
X132078300Y-76830600D01*
X135151700Y-76830600D01*
X135151700Y-77414800D01*
G37*
D10*
X169825000Y-76500000D03*
X168175000Y-76500000D03*
D11*
X136105000Y-56006700D03*
X134835000Y-56006700D03*
X132295000Y-56006700D03*
D12*
X132295000Y-50304400D03*
X134835000Y-50304400D03*
D11*
X133565000Y-56006700D03*
D12*
X133565000Y-50304400D03*
X136105000Y-50304400D03*
D13*
X145056700Y-57895000D03*
X145056700Y-59165000D03*
X145056700Y-61705000D03*
D14*
X139354400Y-61705000D03*
X139354400Y-59165000D03*
D13*
X145056700Y-60435000D03*
D14*
X139354400Y-60435000D03*
X139354400Y-57895000D03*
D13*
X144956700Y-67795000D03*
X144956700Y-69065000D03*
X144956700Y-71605000D03*
D14*
X139254400Y-71605000D03*
X139254400Y-69065000D03*
D13*
X144956700Y-70335000D03*
D14*
X139254400Y-70335000D03*
X139254400Y-67795000D03*
D11*
X132345000Y-76843300D03*
X133615000Y-76843300D03*
X136155000Y-76843300D03*
D12*
X136155000Y-82545600D03*
X133615000Y-82545600D03*
D11*
X134885000Y-76843300D03*
D12*
X134885000Y-82545600D03*
X132345000Y-82545600D03*
D15*
X140368400Y-106350000D03*
X136660000Y-106350000D03*
D16*
X163800000Y-69700000D03*
X160850000Y-69700000D03*
D17*
X177899179Y-80200000D03*
D18*
X177899179Y-75200000D03*
D19*
X46349179Y-46176680D03*
D20*
X46349179Y-57176680D03*
D21*
X140824179Y-123001680D03*
D22*
X138284179Y-123001680D03*
X135744179Y-123001680D03*
X133204179Y-123001680D03*
X130664179Y-123001680D03*
D23*
X86974179Y-79681680D03*
X86974179Y-82221680D03*
X86974179Y-84761680D03*
X86974179Y-87301680D03*
D24*
X37024179Y-124551680D03*
D25*
X37024179Y-122551680D03*
X37024179Y-120551680D03*
D21*
X115124179Y-125036680D03*
D22*
X115124179Y-127576680D03*
X112584179Y-125036680D03*
X112584179Y-127576680D03*
X110044179Y-125036680D03*
X110044179Y-127576680D03*
D26*
X107974179Y-78901680D03*
D27*
X106704179Y-78901680D03*
X105434179Y-78901680D03*
D17*
X177899179Y-120200000D03*
D18*
X177899179Y-115200000D03*
D17*
X177899179Y-100200000D03*
D18*
X177899179Y-95200000D03*
D28*
X139549179Y-44400000D03*
X150549179Y-44400000D03*
D29*
X142549179Y-49400000D03*
D30*
X147549179Y-49400000D03*
D31*
X84002944Y-37697056D03*
X84705888Y-36000000D03*
X84705888Y-39394112D03*
X86402944Y-35297056D03*
D32*
X86402944Y-37697056D03*
D31*
X86402944Y-40097056D03*
X88100000Y-36000000D03*
X88100000Y-39394112D03*
X88802944Y-37697056D03*
D28*
X153874179Y-44350000D03*
X164874179Y-44350000D03*
D29*
X156874179Y-49350000D03*
D30*
X161874179Y-49350000D03*
D33*
X45874179Y-121701680D03*
D20*
X45874179Y-110701680D03*
D31*
X85000000Y-130797056D03*
X85702944Y-129100000D03*
X85702944Y-132494112D03*
X87400000Y-128397056D03*
D32*
X87400000Y-130797056D03*
D31*
X87400000Y-133197056D03*
X89097056Y-129100000D03*
X89097056Y-132494112D03*
X89800000Y-130797056D03*
X35002944Y-130797056D03*
X35705888Y-129100000D03*
X35705888Y-132494112D03*
X37402944Y-128397056D03*
D32*
X37402944Y-130797056D03*
D31*
X37402944Y-133197056D03*
X39100000Y-129100000D03*
X39100000Y-132494112D03*
X39802944Y-130797056D03*
D24*
X37449179Y-48301680D03*
D25*
X37449179Y-46301680D03*
X37449179Y-44301680D03*
D33*
X78124179Y-121301680D03*
D20*
X78124179Y-110301680D03*
D31*
X35000000Y-37700000D03*
X35702944Y-36002944D03*
X35702944Y-39397056D03*
X37400000Y-35300000D03*
D32*
X37400000Y-37700000D03*
D31*
X37400000Y-40100000D03*
X39097056Y-36002944D03*
X39097056Y-39397056D03*
X39800000Y-37700000D03*
D19*
X78399179Y-46276680D03*
D20*
X78399179Y-57276680D03*
D15*
X167550000Y-87000000D03*
X171258400Y-87000000D03*
D31*
X178000000Y-130802944D03*
X178702944Y-129105888D03*
X178702944Y-132500000D03*
X180400000Y-128402944D03*
D32*
X180400000Y-130802944D03*
D31*
X180400000Y-133202944D03*
X182097056Y-129105888D03*
X182097056Y-132500000D03*
X182800000Y-130802944D03*
X178000000Y-37700000D03*
X178702944Y-36002944D03*
X178702944Y-39397056D03*
X180400000Y-35300000D03*
D32*
X180400000Y-37700000D03*
D31*
X180400000Y-40100000D03*
X182097056Y-36002944D03*
X182097056Y-39397056D03*
X182800000Y-37700000D03*
D34*
X126449179Y-126651680D03*
D35*
X124449179Y-126651680D03*
X122449179Y-126651680D03*
X120449179Y-126651680D03*
D36*
X127408150Y-84300000D03*
D37*
X123908150Y-84300000D03*
D38*
X41359179Y-88153680D03*
X43899179Y-88153680D03*
X46439179Y-88153680D03*
D39*
X43899179Y-98275580D03*
D40*
X168175000Y-78040000D03*
X169825000Y-78040000D03*
D38*
X57664179Y-75748880D03*
X55124179Y-75748880D03*
X52584179Y-75748880D03*
D39*
X55124179Y-65626980D03*
D41*
X169010000Y-50500000D03*
X169010000Y-48850000D03*
D42*
X86774179Y-49501680D03*
X89074179Y-49501680D03*
D43*
X89074179Y-55801680D03*
D42*
X91374179Y-49501680D03*
D44*
X84974179Y-125301680D03*
X84974179Y-123001680D03*
D45*
X91274179Y-123001680D03*
D44*
X84974179Y-120701680D03*
D38*
X68514179Y-72698880D03*
X65974179Y-72698880D03*
X63434179Y-72698880D03*
D39*
X65974179Y-62576980D03*
D16*
X166000000Y-61500000D03*
X163050000Y-61500000D03*
D38*
X46639179Y-78999680D03*
X44099179Y-78999680D03*
X41559179Y-78999680D03*
D39*
X44099179Y-68877780D03*
D16*
X161050000Y-38000000D03*
X158100000Y-38000000D03*
D46*
X150400000Y-72200000D03*
X150400000Y-75125000D03*
D47*
X109049179Y-114500000D03*
X110599179Y-114500000D03*
D48*
X109199179Y-112976680D03*
X107649179Y-112976680D03*
D49*
X166500000Y-48850000D03*
X166500000Y-50500000D03*
D46*
X152000000Y-67237500D03*
X152000000Y-70162500D03*
D50*
X159175000Y-93975000D03*
X160875000Y-93975000D03*
X162575000Y-93975000D03*
D51*
X162575000Y-103125000D03*
D50*
X164275000Y-93975000D03*
X165975000Y-93975000D03*
D16*
X159250000Y-76600000D03*
X156300000Y-76600000D03*
D40*
X176850000Y-87490000D03*
X178500000Y-87490000D03*
D52*
X152700000Y-75150000D03*
X152700000Y-72200000D03*
D53*
X128162900Y-60000000D03*
X132900000Y-60000000D03*
D54*
X155300000Y-71350000D03*
X155300000Y-74300000D03*
D10*
X178500000Y-90000000D03*
X176850000Y-90000000D03*
D38*
X63359179Y-94628680D03*
X65899179Y-94628680D03*
X68439179Y-94628680D03*
D39*
X65899179Y-104750580D03*
D42*
X168599179Y-115926680D03*
X170899179Y-115926680D03*
D43*
X170899179Y-122226680D03*
D42*
X173199179Y-115926680D03*
D50*
X152500000Y-113050000D03*
X154200000Y-113050000D03*
X155900000Y-113050000D03*
D51*
X155900000Y-122200000D03*
D50*
X157600000Y-113050000D03*
X159300000Y-113050000D03*
D55*
X161000000Y-86454200D03*
X161000000Y-82745800D03*
D38*
X52334179Y-91354780D03*
X54874179Y-91354780D03*
X57414179Y-91354780D03*
D39*
X54874179Y-101476680D03*
D56*
X67524179Y-83351680D03*
X78524179Y-83351680D03*
D26*
X108074179Y-82251680D03*
D27*
X106804179Y-82251680D03*
X105534179Y-82251680D03*
D16*
X161150000Y-45000000D03*
X158200000Y-45000000D03*
D54*
X158400000Y-61150000D03*
X158400000Y-64100000D03*
D57*
X151800000Y-63200000D03*
X151800000Y-60275000D03*
M02*
