G04 #@! TF.GenerationSoftware,KiCad,Pcbnew,7.0.1*
G04 #@! TF.CreationDate,2023-09-15T01:18:15-07:00*
G04 #@! TF.ProjectId,rps01,72707330-312e-46b6-9963-61645f706362,1*
G04 #@! TF.SameCoordinates,Original*
G04 #@! TF.FileFunction,Soldermask,Bot*
G04 #@! TF.FilePolarity,Negative*
%FSLAX46Y46*%
G04 Gerber Fmt 4.6, Leading zero omitted, Abs format (unit mm)*
G04 Created by KiCad (PCBNEW 7.0.1) date 2023-09-15 01:18:15*
%MOMM*%
%LPD*%
G01*
G04 APERTURE LIST*
G04 Aperture macros list*
%AMRoundRect*
0 Rectangle with rounded corners*
0 $1 Rounding radius*
0 $2 $3 $4 $5 $6 $7 $8 $9 X,Y pos of 4 corners*
0 Add a 4 corners polygon primitive as box body*
4,1,4,$2,$3,$4,$5,$6,$7,$8,$9,$2,$3,0*
0 Add four circle primitives for the rounded corners*
1,1,$1+$1,$2,$3*
1,1,$1+$1,$4,$5*
1,1,$1+$1,$6,$7*
1,1,$1+$1,$8,$9*
0 Add four rect primitives between the rounded corners*
20,1,$1+$1,$2,$3,$4,$5,0*
20,1,$1+$1,$4,$5,$6,$7,0*
20,1,$1+$1,$6,$7,$8,$9,0*
20,1,$1+$1,$8,$9,$2,$3,0*%
G04 Aperture macros list end*
%ADD10R,3.800000X3.800000*%
%ADD11C,4.000000*%
%ADD12RoundRect,1.900000X-1.900000X1.900000X-1.900000X-1.900000X1.900000X-1.900000X1.900000X1.900000X0*%
%ADD13C,7.600000*%
%ADD14R,1.700000X1.700000*%
%ADD15O,1.700000X1.700000*%
%ADD16O,2.000000X1.600000*%
%ADD17RoundRect,0.250000X0.625000X-0.350000X0.625000X0.350000X-0.625000X0.350000X-0.625000X-0.350000X0*%
%ADD18O,1.750000X1.200000*%
%ADD19R,1.050000X1.500000*%
%ADD20O,1.050000X1.500000*%
%ADD21C,1.400000*%
%ADD22R,3.500000X3.500000*%
%ADD23C,3.500000*%
%ADD24C,0.800000*%
%ADD25C,6.400000*%
%ADD26RoundRect,1.900000X1.900000X-1.900000X1.900000X1.900000X-1.900000X1.900000X-1.900000X-1.900000X0*%
%ADD27RoundRect,0.250000X0.350000X0.625000X-0.350000X0.625000X-0.350000X-0.625000X0.350000X-0.625000X0*%
%ADD28O,1.200000X1.750000*%
%ADD29R,1.200000X1.200000*%
%ADD30C,1.200000*%
%ADD31R,0.812800X3.251200*%
%ADD32R,7.874000X8.305800*%
%ADD33R,1.143000X0.431800*%
%ADD34R,0.965200X0.431800*%
%ADD35R,1.500000X2.000000*%
%ADD36R,3.800000X2.000000*%
%ADD37R,0.431800X1.143000*%
%ADD38R,0.431800X0.965200*%
%ADD39R,2.000000X1.500000*%
%ADD40R,2.000000X3.800000*%
%ADD41RoundRect,0.250000X0.325000X0.650000X-0.325000X0.650000X-0.325000X-0.650000X0.325000X-0.650000X0*%
%ADD42RoundRect,0.250000X-0.625000X0.312500X-0.625000X-0.312500X0.625000X-0.312500X0.625000X0.312500X0*%
%ADD43RoundRect,0.225000X-0.225000X-0.250000X0.225000X-0.250000X0.225000X0.250000X-0.225000X0.250000X0*%
%ADD44RoundRect,0.225000X0.225000X0.250000X-0.225000X0.250000X-0.225000X-0.250000X0.225000X-0.250000X0*%
%ADD45R,1.917700X2.997200*%
%ADD46RoundRect,0.250000X-0.300000X2.050000X-0.300000X-2.050000X0.300000X-2.050000X0.300000X2.050000X0*%
%ADD47RoundRect,0.250002X-5.149998X4.449998X-5.149998X-4.449998X5.149998X-4.449998X5.149998X4.449998X0*%
%ADD48RoundRect,0.250000X0.650000X-0.325000X0.650000X0.325000X-0.650000X0.325000X-0.650000X-0.325000X0*%
%ADD49RoundRect,0.250000X-0.650000X0.325000X-0.650000X-0.325000X0.650000X-0.325000X0.650000X0.325000X0*%
%ADD50R,1.625600X2.184400*%
%ADD51R,5.410200X2.895600*%
%ADD52R,4.000000X7.800000*%
%ADD53RoundRect,0.250000X0.625000X-0.312500X0.625000X0.312500X-0.625000X0.312500X-0.625000X-0.312500X0*%
%ADD54C,1.000000*%
%ADD55C,2.000000*%
G04 APERTURE END LIST*
G36*
X144815000Y-70646698D02*
G01*
X144230800Y-70646698D01*
X144230800Y-67573298D01*
X144815000Y-67573298D01*
X144815000Y-70646698D01*
G37*
G36*
X143392600Y-71942098D02*
G01*
X139582600Y-71942098D01*
X139582600Y-67547898D01*
X143392600Y-67547898D01*
X143392600Y-71942098D01*
G37*
G36*
X135096700Y-77269200D02*
G01*
X132023300Y-77269200D01*
X132023300Y-76685000D01*
X135096700Y-76685000D01*
X135096700Y-77269200D01*
G37*
G36*
X136392100Y-81917400D02*
G01*
X131997900Y-81917400D01*
X131997900Y-78107400D01*
X136392100Y-78107400D01*
X136392100Y-81917400D01*
G37*
G36*
X136366700Y-56062698D02*
G01*
X133293300Y-56062698D01*
X133293300Y-55478498D01*
X136366700Y-55478498D01*
X136366700Y-56062698D01*
G37*
G36*
X136392100Y-54640298D02*
G01*
X131997900Y-54640298D01*
X131997900Y-50830298D01*
X136392100Y-50830298D01*
X136392100Y-54640298D01*
G37*
G36*
X144915000Y-60746698D02*
G01*
X144330800Y-60746698D01*
X144330800Y-57673298D01*
X144915000Y-57673298D01*
X144915000Y-60746698D01*
G37*
G36*
X143492600Y-62042098D02*
G01*
X139682600Y-62042098D01*
X139682600Y-57647898D01*
X143492600Y-57647898D01*
X143492600Y-62042098D01*
G37*
D10*
X177899179Y-80200000D03*
D11*
X177899179Y-75200000D03*
D12*
X46349179Y-46176680D03*
D13*
X46349179Y-57176680D03*
D14*
X140824179Y-123001680D03*
D15*
X138284179Y-123001680D03*
X135744179Y-123001680D03*
X133204179Y-123001680D03*
X130664179Y-123001680D03*
D16*
X86974179Y-79681680D03*
X86974179Y-82221680D03*
X86974179Y-84761680D03*
X86974179Y-87301680D03*
D17*
X37024179Y-124551680D03*
D18*
X37024179Y-122551680D03*
X37024179Y-120551680D03*
D14*
X115124179Y-125036680D03*
D15*
X115124179Y-127576680D03*
X112584179Y-125036680D03*
X112584179Y-127576680D03*
X110044179Y-125036680D03*
X110044179Y-127576680D03*
D19*
X107974179Y-78901680D03*
D20*
X106704179Y-78901680D03*
X105434179Y-78901680D03*
D10*
X177899179Y-120200000D03*
D11*
X177899179Y-115200000D03*
D10*
X177899179Y-100200000D03*
D11*
X177899179Y-95200000D03*
D21*
X139549179Y-44400000D03*
X150549179Y-44400000D03*
D22*
X142549179Y-49400000D03*
D23*
X147549179Y-49400000D03*
D24*
X84002944Y-37697056D03*
X84705888Y-36000000D03*
X84705888Y-39394112D03*
X86402944Y-35297056D03*
D25*
X86402944Y-37697056D03*
D24*
X86402944Y-40097056D03*
X88100000Y-36000000D03*
X88100000Y-39394112D03*
X88802944Y-37697056D03*
D21*
X153874179Y-44350000D03*
X164874179Y-44350000D03*
D22*
X156874179Y-49350000D03*
D23*
X161874179Y-49350000D03*
D26*
X45874179Y-121701680D03*
D13*
X45874179Y-110701680D03*
D24*
X85000000Y-130797056D03*
X85702944Y-129100000D03*
X85702944Y-132494112D03*
X87400000Y-128397056D03*
D25*
X87400000Y-130797056D03*
D24*
X87400000Y-133197056D03*
X89097056Y-129100000D03*
X89097056Y-132494112D03*
X89800000Y-130797056D03*
X35002944Y-130797056D03*
X35705888Y-129100000D03*
X35705888Y-132494112D03*
X37402944Y-128397056D03*
D25*
X37402944Y-130797056D03*
D24*
X37402944Y-133197056D03*
X39100000Y-129100000D03*
X39100000Y-132494112D03*
X39802944Y-130797056D03*
D17*
X37449179Y-48301680D03*
D18*
X37449179Y-46301680D03*
X37449179Y-44301680D03*
D26*
X78124179Y-121301680D03*
D13*
X78124179Y-110301680D03*
D24*
X35000000Y-37700000D03*
X35702944Y-36002944D03*
X35702944Y-39397056D03*
X37400000Y-35300000D03*
D25*
X37400000Y-37700000D03*
D24*
X37400000Y-40100000D03*
X39097056Y-36002944D03*
X39097056Y-39397056D03*
X39800000Y-37700000D03*
D12*
X78399179Y-46276680D03*
D13*
X78399179Y-57276680D03*
D24*
X178000000Y-130802944D03*
X178702944Y-129105888D03*
X178702944Y-132500000D03*
X180400000Y-128402944D03*
D25*
X180400000Y-130802944D03*
D24*
X180400000Y-133202944D03*
X182097056Y-129105888D03*
X182097056Y-132500000D03*
X182800000Y-130802944D03*
X178000000Y-37700000D03*
X178702944Y-36002944D03*
X178702944Y-39397056D03*
X180400000Y-35300000D03*
D25*
X180400000Y-37700000D03*
D24*
X180400000Y-40100000D03*
X182097056Y-36002944D03*
X182097056Y-39397056D03*
X182800000Y-37700000D03*
D27*
X126449179Y-126651680D03*
D28*
X124449179Y-126651680D03*
X122449179Y-126651680D03*
X120449179Y-126651680D03*
D29*
X127408150Y-84300000D03*
D30*
X123908150Y-84300000D03*
D31*
X41359179Y-88153680D03*
X43899179Y-88153680D03*
X46439179Y-88153680D03*
D32*
X43899179Y-98275580D03*
D33*
X144802300Y-67839998D03*
X144802300Y-69109998D03*
X144802300Y-70379998D03*
X144802300Y-71649998D03*
D34*
X139100000Y-71649998D03*
X139100000Y-70379998D03*
X139100000Y-69109998D03*
X139100000Y-67839998D03*
D31*
X57664179Y-75748880D03*
X55124179Y-75748880D03*
X52584179Y-75748880D03*
D32*
X55124179Y-65626980D03*
D35*
X86774179Y-49501680D03*
X89074179Y-49501680D03*
D36*
X89074179Y-55801680D03*
D35*
X91374179Y-49501680D03*
D37*
X132290000Y-76697700D03*
X133560000Y-76697700D03*
X134830000Y-76697700D03*
X136100000Y-76697700D03*
D38*
X136100000Y-82400000D03*
X134830000Y-82400000D03*
X133560000Y-82400000D03*
X132290000Y-82400000D03*
D39*
X84974179Y-125301680D03*
X84974179Y-123001680D03*
D40*
X91274179Y-123001680D03*
D39*
X84974179Y-120701680D03*
D31*
X68514179Y-72698880D03*
X65974179Y-72698880D03*
X63434179Y-72698880D03*
D32*
X65974179Y-62576980D03*
D41*
X166000000Y-61500000D03*
X163050000Y-61500000D03*
D31*
X46639179Y-78999680D03*
X44099179Y-78999680D03*
X41559179Y-78999680D03*
D32*
X44099179Y-68877780D03*
D41*
X161050000Y-38000000D03*
X158100000Y-38000000D03*
D42*
X150400000Y-72200000D03*
X150400000Y-75125000D03*
D43*
X109049179Y-114426680D03*
X110599179Y-114426680D03*
D44*
X109199179Y-112976680D03*
X107649179Y-112976680D03*
D42*
X152000000Y-67237500D03*
X152000000Y-70162500D03*
D45*
X141431450Y-75149998D03*
X146168550Y-75149998D03*
D46*
X159175000Y-93975000D03*
X160875000Y-93975000D03*
X162575000Y-93975000D03*
D47*
X162575000Y-103125000D03*
D46*
X164275000Y-93975000D03*
X165975000Y-93975000D03*
D41*
X159250000Y-76600000D03*
X156300000Y-76600000D03*
D48*
X152700000Y-75150000D03*
X152700000Y-72200000D03*
D45*
X128162900Y-60000000D03*
X132900000Y-60000000D03*
D49*
X155300000Y-71350000D03*
X155300000Y-74300000D03*
D31*
X63359179Y-94628680D03*
X65899179Y-94628680D03*
X68439179Y-94628680D03*
D32*
X65899179Y-104750580D03*
D35*
X168599179Y-115926680D03*
X170899179Y-115926680D03*
D36*
X170899179Y-122226680D03*
D35*
X173199179Y-115926680D03*
D46*
X152500000Y-113050000D03*
X154200000Y-113050000D03*
X155900000Y-113050000D03*
D47*
X155900000Y-122200000D03*
D46*
X157600000Y-113050000D03*
X159300000Y-113050000D03*
D50*
X161000000Y-86454200D03*
X161000000Y-82745800D03*
D37*
X136100000Y-56049998D03*
X134830000Y-56049998D03*
X133560000Y-56049998D03*
X132290000Y-56049998D03*
D38*
X132290000Y-50347698D03*
X133560000Y-50347698D03*
X134830000Y-50347698D03*
X136100000Y-50347698D03*
D51*
X149407900Y-92453000D03*
X149407900Y-82547000D03*
D31*
X52334179Y-91354780D03*
X54874179Y-91354780D03*
X57414179Y-91354780D03*
D32*
X54874179Y-101476680D03*
D33*
X144902300Y-57939998D03*
X144902300Y-59209998D03*
X144902300Y-60479998D03*
X144902300Y-61749998D03*
D34*
X139200000Y-61749998D03*
X139200000Y-60479998D03*
X139200000Y-59209998D03*
X139200000Y-57939998D03*
D52*
X67524179Y-83351680D03*
X78524179Y-83351680D03*
D19*
X108074179Y-82251680D03*
D20*
X106804179Y-82251680D03*
X105534179Y-82251680D03*
D41*
X161150000Y-45000000D03*
X158200000Y-45000000D03*
D49*
X158400000Y-61150000D03*
X158400000Y-64100000D03*
D53*
X151800000Y-63200000D03*
X151800000Y-60275000D03*
D54*
X59400000Y-42200000D03*
D24*
X154800000Y-58700000D03*
D54*
X158900000Y-124200000D03*
D24*
X118974179Y-91026680D03*
X89699179Y-84626680D03*
D54*
X64400000Y-123200000D03*
X62900000Y-123200000D03*
X64400000Y-120200000D03*
X62900000Y-120200000D03*
D24*
X169900000Y-128200000D03*
X121424179Y-112926680D03*
D55*
X73900000Y-42700000D03*
D54*
X58400000Y-121700000D03*
D55*
X73400000Y-118200000D03*
X82900000Y-124675500D03*
D24*
X136000000Y-48000000D03*
D54*
X159900000Y-100200000D03*
X64400000Y-118700000D03*
D55*
X41400000Y-118200000D03*
D24*
X170000000Y-69500000D03*
X107224179Y-122001680D03*
X106000000Y-93800000D03*
X154800000Y-72750000D03*
X177100000Y-66200000D03*
X101299179Y-126226680D03*
D54*
X155900000Y-121200000D03*
X162900000Y-100200000D03*
X62900000Y-124700000D03*
D24*
X111499179Y-92476680D03*
D54*
X58400000Y-123200000D03*
D24*
X167600000Y-67500000D03*
D54*
X59400000Y-48200000D03*
X158900000Y-119700000D03*
D24*
X108136325Y-96388826D03*
X113049179Y-107401680D03*
D54*
X59900000Y-123200000D03*
D24*
X101049179Y-118901680D03*
D55*
X73400000Y-48200000D03*
D24*
X75900000Y-129200000D03*
X136949179Y-118176680D03*
D54*
X161400000Y-100200000D03*
D55*
X50900000Y-42200000D03*
D54*
X59900000Y-118700000D03*
X152900000Y-121200000D03*
D24*
X152500000Y-70300000D03*
X132874179Y-115801680D03*
X167800000Y-70100000D03*
X86899179Y-48926680D03*
X149700000Y-77000000D03*
D54*
X63900000Y-48200000D03*
X59400000Y-46700000D03*
X61400000Y-121700000D03*
D24*
X119899179Y-98276680D03*
D54*
X63900000Y-43700000D03*
X59900000Y-120200000D03*
D24*
X161000000Y-82900000D03*
D54*
X165900000Y-101700000D03*
X62900000Y-121700000D03*
X57900000Y-45200000D03*
X62400000Y-45200000D03*
D24*
X87749179Y-119101680D03*
D54*
X157400000Y-121200000D03*
X154400000Y-124200000D03*
D24*
X121474179Y-117851680D03*
D54*
X157400000Y-119700000D03*
X155900000Y-125700000D03*
X60900000Y-43700000D03*
X61400000Y-118700000D03*
D24*
X128799179Y-120401680D03*
D54*
X155900000Y-122700000D03*
D24*
X114974179Y-123001680D03*
D54*
X57900000Y-43700000D03*
D24*
X147900000Y-110100000D03*
X94199179Y-98576680D03*
X139900000Y-118200000D03*
D54*
X62400000Y-42200000D03*
D24*
X88924179Y-108176680D03*
D54*
X57900000Y-48200000D03*
D55*
X83024679Y-118998458D03*
D54*
X57900000Y-42200000D03*
D24*
X100224179Y-91126680D03*
X158400000Y-62800000D03*
D54*
X60900000Y-46700000D03*
D24*
X115424179Y-118501680D03*
X73100000Y-128100000D03*
X119274179Y-122701680D03*
D55*
X82874679Y-49327180D03*
D54*
X57900000Y-46700000D03*
X58400000Y-120200000D03*
D55*
X41900000Y-42200000D03*
D54*
X62400000Y-48200000D03*
D24*
X118824179Y-103901680D03*
D54*
X62400000Y-46700000D03*
X164400000Y-100200000D03*
D24*
X118649179Y-110001680D03*
D54*
X152900000Y-119700000D03*
D24*
X70624179Y-85651680D03*
D54*
X157400000Y-122700000D03*
D24*
X130224179Y-115801680D03*
D55*
X82900000Y-42700000D03*
D24*
X110399179Y-96326680D03*
X70424179Y-82776680D03*
D54*
X158900000Y-122700000D03*
D55*
X73400000Y-124675500D03*
D24*
X36924179Y-83651680D03*
D54*
X63900000Y-42200000D03*
D24*
X116774179Y-99451680D03*
X96374179Y-84951680D03*
D54*
X59400000Y-45200000D03*
X59900000Y-124700000D03*
D24*
X119200000Y-125300000D03*
X119574179Y-94926680D03*
X105224179Y-122976680D03*
D54*
X60900000Y-42200000D03*
D24*
X157300000Y-71200000D03*
X116500000Y-91100000D03*
X102049179Y-104451680D03*
X89524179Y-89451680D03*
D54*
X158900000Y-125700000D03*
D24*
X120799179Y-101126680D03*
D54*
X61400000Y-120200000D03*
D24*
X122924179Y-96201680D03*
D54*
X64400000Y-124700000D03*
X60900000Y-48200000D03*
X154400000Y-125700000D03*
D24*
X133200000Y-113900000D03*
D54*
X59900000Y-121700000D03*
X154400000Y-119700000D03*
D24*
X135600000Y-112300000D03*
D54*
X152900000Y-125700000D03*
D24*
X37974179Y-51151680D03*
X109000000Y-114600000D03*
D54*
X157400000Y-124200000D03*
D24*
X87024179Y-78001680D03*
D54*
X62400000Y-43700000D03*
D24*
X177800000Y-68400000D03*
X105800000Y-97100000D03*
D54*
X63900000Y-46700000D03*
D24*
X169700000Y-67400000D03*
D54*
X155900000Y-124200000D03*
D55*
X50900000Y-49700000D03*
D24*
X92024179Y-116026680D03*
D54*
X159900000Y-101700000D03*
X155900000Y-119700000D03*
D24*
X34599179Y-80376680D03*
X104124179Y-106651680D03*
D54*
X61400000Y-123200000D03*
D55*
X41400000Y-125700000D03*
X50400000Y-125700000D03*
D24*
X115724179Y-112051680D03*
X86599179Y-64151680D03*
D54*
X58400000Y-118700000D03*
X63900000Y-45200000D03*
D55*
X41900000Y-49700000D03*
D24*
X102549179Y-79901680D03*
D54*
X64400000Y-121700000D03*
X158900000Y-121200000D03*
X162900000Y-101700000D03*
X62900000Y-118700000D03*
D24*
X117674179Y-124101680D03*
D54*
X165900000Y-100200000D03*
D24*
X71833550Y-50427444D03*
D54*
X60900000Y-45200000D03*
X61400000Y-124700000D03*
D24*
X93774179Y-127201680D03*
D54*
X154400000Y-121200000D03*
X58400000Y-124700000D03*
D24*
X155100000Y-121600000D03*
D55*
X50400000Y-118200000D03*
D24*
X152500000Y-60000000D03*
D54*
X59400000Y-43700000D03*
X164400000Y-101700000D03*
X161400000Y-101700000D03*
X152900000Y-124200000D03*
D24*
X103124179Y-117276680D03*
X89874179Y-114001680D03*
D54*
X154400000Y-122700000D03*
D24*
X121724179Y-99951680D03*
D54*
X157400000Y-125700000D03*
D24*
X109699179Y-122176680D03*
X147100000Y-79200000D03*
X151800000Y-38500000D03*
D54*
X152900000Y-122700000D03*
D24*
X63375098Y-95901600D03*
X41375098Y-89401600D03*
X52375098Y-92601600D03*
X46650098Y-77776600D03*
X68525098Y-71526600D03*
X57650098Y-74551600D03*
X111849179Y-106500000D03*
X94348506Y-110276680D03*
X115624179Y-116101680D03*
X132300000Y-111700000D03*
X123599179Y-113901680D03*
X104749179Y-60126680D03*
X118449179Y-116101680D03*
X121724500Y-115949502D03*
X121600000Y-93700000D03*
X127800000Y-97500000D03*
D55*
X145900000Y-119200000D03*
D24*
X125399179Y-120826680D03*
X157600000Y-113100000D03*
X172900000Y-63500000D03*
X98849179Y-118526680D03*
X98849179Y-121976680D03*
X99724179Y-118526680D03*
X99724179Y-121976680D03*
X107099179Y-105501680D03*
X107874179Y-106451680D03*
X112124179Y-123251680D03*
X108603603Y-101708317D03*
X135649179Y-116726680D03*
X127499179Y-116701680D03*
X135100000Y-60500000D03*
X135100000Y-59500000D03*
X134100000Y-58500000D03*
X133100000Y-60500000D03*
X135100000Y-61500000D03*
X134100000Y-61500000D03*
X136100000Y-58500000D03*
X136100000Y-59500000D03*
X167200000Y-65900000D03*
X133100000Y-61500000D03*
X161081802Y-62518198D03*
X134100000Y-60500000D03*
X135100000Y-58500000D03*
X136100000Y-61500000D03*
X133100000Y-59500000D03*
X133100000Y-58500000D03*
X136100000Y-60500000D03*
X134100000Y-59500000D03*
D54*
X79900000Y-93200000D03*
X78900000Y-80200000D03*
X75400000Y-96200000D03*
X81400000Y-93200000D03*
D55*
X159125500Y-93975000D03*
D54*
X81400000Y-90200000D03*
D24*
X138200000Y-82300000D03*
D54*
X80400000Y-84700000D03*
X78400000Y-103700000D03*
X78400000Y-64200000D03*
X81400000Y-105200000D03*
X79900000Y-94700000D03*
X75400000Y-91700000D03*
X81400000Y-96200000D03*
D55*
X74400000Y-54200000D03*
D54*
X76900000Y-72200000D03*
X78400000Y-93200000D03*
X75400000Y-73700000D03*
X77400000Y-81700000D03*
X75400000Y-62700000D03*
X81400000Y-72200000D03*
D24*
X135399179Y-40976680D03*
D54*
X81400000Y-65700000D03*
X76900000Y-96200000D03*
X81400000Y-73700000D03*
X79900000Y-72200000D03*
X75400000Y-76700000D03*
X81400000Y-94700000D03*
X75400000Y-102200000D03*
D55*
X81900000Y-113952180D03*
D24*
X141200000Y-82300000D03*
D54*
X76900000Y-99200000D03*
X75400000Y-72200000D03*
D55*
X73900000Y-107200000D03*
D54*
X81400000Y-62700000D03*
X78400000Y-91700000D03*
X79900000Y-102200000D03*
X76900000Y-70700000D03*
D24*
X170200000Y-106700000D03*
D54*
X78400000Y-100700000D03*
D24*
X140200000Y-79300000D03*
D54*
X76900000Y-100700000D03*
X83400000Y-83200000D03*
X76900000Y-91700000D03*
X79900000Y-73700000D03*
X76900000Y-62700000D03*
X77400000Y-84700000D03*
X81900000Y-81700000D03*
X78900000Y-83200000D03*
X75400000Y-94700000D03*
D24*
X96849179Y-41126680D03*
D54*
X79900000Y-70700000D03*
X75400000Y-70700000D03*
X78400000Y-75200000D03*
X81400000Y-102200000D03*
X79900000Y-96200000D03*
X75400000Y-99200000D03*
D24*
X141200000Y-80300000D03*
X141200000Y-81300000D03*
D54*
X76900000Y-67200000D03*
X79900000Y-99200000D03*
X76900000Y-105200000D03*
D24*
X140200000Y-81300000D03*
D54*
X77400000Y-83200000D03*
X80400000Y-81700000D03*
X79900000Y-62700000D03*
D55*
X82400000Y-54200000D03*
D24*
X139200000Y-79300000D03*
D54*
X81400000Y-75200000D03*
X76900000Y-93200000D03*
X83400000Y-86200000D03*
D24*
X140200000Y-80300000D03*
D54*
X81900000Y-83200000D03*
D55*
X82400000Y-60700000D03*
D54*
X78400000Y-102200000D03*
X76900000Y-102200000D03*
X78400000Y-94700000D03*
X81400000Y-103700000D03*
X78400000Y-90200000D03*
D55*
X82400000Y-107200000D03*
D54*
X78400000Y-73700000D03*
X83400000Y-81700000D03*
X79900000Y-90200000D03*
X76900000Y-90200000D03*
X83400000Y-84700000D03*
X78400000Y-65700000D03*
X79900000Y-105200000D03*
X78900000Y-81700000D03*
X75400000Y-67200000D03*
X75400000Y-103700000D03*
X78400000Y-76700000D03*
X76900000Y-103700000D03*
X76900000Y-64200000D03*
D24*
X140200000Y-82300000D03*
D54*
X81400000Y-68700000D03*
X76900000Y-75200000D03*
X75400000Y-100700000D03*
X76900000Y-65700000D03*
X79900000Y-65700000D03*
X81900000Y-84700000D03*
X78400000Y-67200000D03*
X79900000Y-100700000D03*
X83400000Y-80200000D03*
D24*
X168500000Y-66600000D03*
D54*
X81400000Y-67200000D03*
D24*
X139200000Y-80300000D03*
D54*
X81400000Y-100700000D03*
X75400000Y-93200000D03*
X81400000Y-91700000D03*
X79900000Y-68700000D03*
X78400000Y-96200000D03*
X79900000Y-76700000D03*
X79900000Y-67200000D03*
X77400000Y-86200000D03*
D55*
X73900000Y-113700000D03*
D54*
X80400000Y-86200000D03*
X78400000Y-62700000D03*
X79900000Y-64200000D03*
X78400000Y-72200000D03*
X81400000Y-70700000D03*
X79900000Y-91700000D03*
D24*
X139200000Y-82300000D03*
D54*
X78400000Y-68700000D03*
X75400000Y-64200000D03*
X75400000Y-90200000D03*
X79900000Y-103700000D03*
X76900000Y-73700000D03*
X80400000Y-83200000D03*
X79900000Y-75200000D03*
X81400000Y-99200000D03*
X81900000Y-86200000D03*
X77400000Y-80200000D03*
X81400000Y-64200000D03*
D24*
X138200000Y-79300000D03*
D54*
X75400000Y-105200000D03*
X81400000Y-76700000D03*
X75400000Y-68700000D03*
D24*
X138200000Y-81300000D03*
D54*
X78400000Y-105200000D03*
X76900000Y-68700000D03*
X80400000Y-80200000D03*
X76900000Y-94700000D03*
X75400000Y-75200000D03*
X78400000Y-99200000D03*
D24*
X181700000Y-112500000D03*
X141200000Y-79300000D03*
D54*
X76900000Y-76700000D03*
D24*
X138200000Y-80300000D03*
D54*
X75400000Y-65700000D03*
X78900000Y-84700000D03*
D24*
X139200000Y-81300000D03*
D55*
X74400000Y-60700000D03*
D54*
X78900000Y-86200000D03*
X78400000Y-70700000D03*
X81900000Y-80200000D03*
D24*
X150200000Y-63200000D03*
X96700000Y-132000000D03*
X101900000Y-115300000D03*
X115949179Y-110526680D03*
X98000000Y-116500000D03*
X98600000Y-110400000D03*
X102400000Y-132000000D03*
X101174179Y-108601680D03*
X115949179Y-109626680D03*
X112674179Y-102626680D03*
X117624179Y-96426680D03*
X114274179Y-95226680D03*
X110186124Y-94975424D03*
D55*
X50400000Y-114700000D03*
D54*
X68900000Y-107700000D03*
X53400000Y-101200000D03*
X65900000Y-104700000D03*
X65900000Y-103200000D03*
X64400000Y-106200000D03*
X57900000Y-101200000D03*
X53400000Y-104200000D03*
X56400000Y-102700000D03*
X43900000Y-101200000D03*
X51900000Y-102700000D03*
D55*
X41400000Y-106700000D03*
D54*
X68900000Y-103200000D03*
X51900000Y-101200000D03*
X42400000Y-99700000D03*
X57900000Y-98200000D03*
D55*
X41400000Y-114700000D03*
D54*
X54900000Y-101200000D03*
X45400000Y-98200000D03*
X56400000Y-98200000D03*
X67400000Y-103200000D03*
X57900000Y-104200000D03*
X43900000Y-96700000D03*
X46900000Y-101200000D03*
X42400000Y-96700000D03*
X54900000Y-104200000D03*
X40900000Y-95200000D03*
X64400000Y-104700000D03*
X43900000Y-99700000D03*
X65900000Y-101700000D03*
X64400000Y-107700000D03*
D24*
X66749179Y-112751680D03*
D54*
X40900000Y-96700000D03*
X64400000Y-103200000D03*
X67400000Y-106200000D03*
X57900000Y-99700000D03*
X45400000Y-99700000D03*
X57900000Y-102700000D03*
D55*
X50400000Y-106700000D03*
D54*
X56400000Y-101200000D03*
X51900000Y-98200000D03*
X46900000Y-96700000D03*
X46900000Y-98200000D03*
X65900000Y-106200000D03*
X68900000Y-106200000D03*
X53400000Y-99700000D03*
X62900000Y-104700000D03*
X62900000Y-106200000D03*
X53400000Y-98200000D03*
X45400000Y-96700000D03*
X54900000Y-98200000D03*
X40900000Y-98200000D03*
X43900000Y-95200000D03*
X65900000Y-107700000D03*
X51900000Y-104200000D03*
D24*
X91049179Y-116276680D03*
D54*
X46900000Y-99700000D03*
X56400000Y-104200000D03*
X68900000Y-101700000D03*
X54900000Y-99700000D03*
X67400000Y-107700000D03*
X62900000Y-103200000D03*
X45400000Y-95200000D03*
D24*
X43925098Y-89376600D03*
D54*
X56400000Y-99700000D03*
X46900000Y-95200000D03*
X62900000Y-101700000D03*
X42400000Y-95200000D03*
X67400000Y-104700000D03*
X40900000Y-99700000D03*
X54900000Y-102700000D03*
X64400000Y-101700000D03*
X42400000Y-101200000D03*
X62900000Y-107700000D03*
X67400000Y-101700000D03*
X53400000Y-102700000D03*
X43900000Y-98200000D03*
X42400000Y-98200000D03*
X68900000Y-104700000D03*
X51900000Y-99700000D03*
X40900000Y-101200000D03*
X45400000Y-101200000D03*
X40900000Y-65700000D03*
X42400000Y-71700000D03*
X68900000Y-62700000D03*
X67400000Y-59700000D03*
X45400000Y-70200000D03*
X56900000Y-65700000D03*
X58400000Y-65700000D03*
X64400000Y-65700000D03*
X53900000Y-67200000D03*
X42400000Y-67200000D03*
X40900000Y-71700000D03*
X62900000Y-64200000D03*
D55*
X50900000Y-61200000D03*
D54*
X64400000Y-59700000D03*
X65900000Y-59700000D03*
X46900000Y-68700000D03*
X68900000Y-65700000D03*
X56900000Y-62700000D03*
X45400000Y-65700000D03*
X45400000Y-71700000D03*
X40900000Y-67200000D03*
X53900000Y-68700000D03*
D55*
X41900000Y-61200000D03*
D54*
X67400000Y-64200000D03*
X46900000Y-65700000D03*
X42400000Y-65700000D03*
X67400000Y-65700000D03*
X42400000Y-68700000D03*
X43900000Y-67200000D03*
X55400000Y-65700000D03*
X62900000Y-62700000D03*
X52400000Y-65700000D03*
X65900000Y-65700000D03*
X43900000Y-68700000D03*
X46900000Y-70200000D03*
X55400000Y-68700000D03*
X43900000Y-70200000D03*
X65900000Y-61200000D03*
X52400000Y-64200000D03*
X40900000Y-70200000D03*
X58400000Y-68700000D03*
X46900000Y-71700000D03*
X42400000Y-70200000D03*
X53900000Y-62700000D03*
X67400000Y-61200000D03*
X64400000Y-61200000D03*
X65900000Y-62700000D03*
X56900000Y-64200000D03*
X45400000Y-68700000D03*
X53900000Y-64200000D03*
X55400000Y-64200000D03*
X53900000Y-65700000D03*
X56900000Y-68700000D03*
X45400000Y-67200000D03*
X52400000Y-67200000D03*
X62900000Y-65700000D03*
X58400000Y-62700000D03*
D24*
X44100098Y-77826600D03*
D54*
X55400000Y-62700000D03*
X62900000Y-61200000D03*
X43900000Y-71700000D03*
X64400000Y-64200000D03*
X58400000Y-67200000D03*
X62900000Y-59700000D03*
X43900000Y-65700000D03*
X55400000Y-67200000D03*
X65900000Y-64200000D03*
X68900000Y-59700000D03*
X46900000Y-67200000D03*
X40900000Y-68700000D03*
X52400000Y-68700000D03*
D55*
X41900000Y-53200000D03*
D54*
X58400000Y-64200000D03*
X67400000Y-62700000D03*
D55*
X50900000Y-53200000D03*
D54*
X56900000Y-67200000D03*
X68900000Y-64200000D03*
X68900000Y-61200000D03*
X52400000Y-62700000D03*
X64400000Y-62700000D03*
D24*
X119323549Y-121376451D03*
X125300000Y-132100000D03*
X117200000Y-126500000D03*
X103449179Y-95226680D03*
X115049179Y-101326680D03*
X120400000Y-132000000D03*
X112800000Y-101300000D03*
X107249179Y-93601680D03*
X117500000Y-127800000D03*
X158500000Y-64200000D03*
X105474179Y-118276680D03*
X101199179Y-99751680D03*
X98674179Y-113600000D03*
X38974179Y-45001680D03*
X158900000Y-67200000D03*
X163775000Y-90725000D03*
X113199179Y-91951680D03*
X106749179Y-98376680D03*
D55*
X166400000Y-83400000D03*
D24*
X135200000Y-71800000D03*
X136200000Y-71800000D03*
X164700000Y-72200000D03*
X134200000Y-68800000D03*
X134200000Y-71800000D03*
X135200000Y-68800000D03*
X141400000Y-75200000D03*
X136200000Y-70800000D03*
X133200000Y-71800000D03*
X133200000Y-70800000D03*
X134200000Y-70800000D03*
X136200000Y-69800000D03*
X135200000Y-70800000D03*
X133200000Y-68800000D03*
X134200000Y-69800000D03*
X136200000Y-68800000D03*
X133200000Y-69800000D03*
X135200000Y-69800000D03*
X161750000Y-74000000D03*
D54*
X61900000Y-83200000D03*
X49400000Y-84700000D03*
X52400000Y-80200000D03*
X60400000Y-84700000D03*
X53900000Y-86200000D03*
D24*
X36799179Y-86076680D03*
D54*
X52400000Y-84700000D03*
D24*
X67725098Y-83301600D03*
D54*
X63400000Y-84700000D03*
X53900000Y-84700000D03*
X66400000Y-86200000D03*
X50900000Y-86200000D03*
X55400000Y-83200000D03*
X64900000Y-80200000D03*
X66400000Y-83200000D03*
X50900000Y-80200000D03*
X64900000Y-86200000D03*
X50900000Y-83200000D03*
X61900000Y-84700000D03*
X50900000Y-81700000D03*
X61900000Y-86200000D03*
X52400000Y-81700000D03*
X64900000Y-83200000D03*
X55400000Y-80200000D03*
X60400000Y-86200000D03*
X60400000Y-80200000D03*
X49400000Y-80200000D03*
X66400000Y-84700000D03*
X61900000Y-80200000D03*
X64900000Y-81700000D03*
X49400000Y-86200000D03*
X60400000Y-81700000D03*
X52400000Y-86200000D03*
X53900000Y-80200000D03*
X63400000Y-81700000D03*
X55400000Y-81700000D03*
X55400000Y-84700000D03*
X63400000Y-80200000D03*
X55400000Y-86200000D03*
X63400000Y-83200000D03*
X60400000Y-83200000D03*
X63400000Y-86200000D03*
X49400000Y-83200000D03*
X61900000Y-81700000D03*
X49400000Y-81700000D03*
X64900000Y-84700000D03*
X53900000Y-81700000D03*
X53900000Y-83200000D03*
D24*
X41550098Y-77751600D03*
D54*
X66400000Y-80200000D03*
X52400000Y-83200000D03*
X50900000Y-84700000D03*
X66400000Y-81700000D03*
D24*
X105174179Y-106900000D03*
X69849179Y-129876680D03*
X118649179Y-114926680D03*
X136174179Y-115001680D03*
X123173679Y-114900000D03*
X115399179Y-114801680D03*
X111899677Y-111351251D03*
X121724679Y-114950000D03*
X155300000Y-60300000D03*
X162000000Y-56000000D03*
X130600000Y-52600000D03*
X130600000Y-51600000D03*
X129600000Y-52600000D03*
X130600000Y-50600000D03*
X127600000Y-52600000D03*
X128600000Y-51600000D03*
X127600000Y-53600000D03*
X127600000Y-50600000D03*
X128600000Y-50600000D03*
X129600000Y-50600000D03*
X129600000Y-51600000D03*
X127600000Y-51600000D03*
X129600000Y-53600000D03*
X128600000Y-53600000D03*
X130600000Y-53600000D03*
X128600000Y-52600000D03*
X147100000Y-56600000D03*
X147000000Y-66100000D03*
X148000000Y-64100000D03*
X145700000Y-59800000D03*
X147100000Y-58600000D03*
X148000000Y-65100000D03*
X147100000Y-57600000D03*
X146000000Y-66100000D03*
X145000000Y-65100000D03*
X147000000Y-64100000D03*
X147100000Y-59600000D03*
X146000000Y-63100000D03*
X146000000Y-65100000D03*
X147000000Y-63100000D03*
X146000000Y-64100000D03*
X148000000Y-63100000D03*
X145700000Y-56700000D03*
X145000000Y-64100000D03*
X147000000Y-65100000D03*
X148000000Y-66100000D03*
X145000000Y-63100000D03*
X145000000Y-66100000D03*
X154300000Y-113200000D03*
X170900000Y-122200000D03*
X144800000Y-71600000D03*
X156668885Y-68755713D03*
X167275000Y-70975000D03*
X132300000Y-56000000D03*
X164700000Y-60000000D03*
X164999293Y-64403399D03*
X154200000Y-67200000D03*
X155400000Y-63100000D03*
X92974179Y-118851680D03*
X92124179Y-117501680D03*
X91124179Y-117376680D03*
X92949179Y-120301680D03*
D55*
X89124179Y-58226680D03*
X91724179Y-75676680D03*
D24*
X106374179Y-113701680D03*
X111649179Y-114451680D03*
X118049179Y-112851680D03*
X120122364Y-99377676D03*
X163173101Y-72600000D03*
X167975500Y-69024500D03*
X144900000Y-61700000D03*
X161139006Y-63600000D03*
M02*
