M48
; DRILL file {KiCad 7.0.1} date Fri Sep 15 01:18:09 2023
; FORMAT={-:-/ absolute / metric / decimal}
; #@! TF.CreationDate,2023-09-15T01:18:09-07:00
; #@! TF.GenerationSoftware,Kicad,Pcbnew,7.0.1
; #@! TF.FileFunction,Plated,1,2,PTH
FMAT,2
METRIC
; #@! TA.AperFunction,Plated,PTH,ViaDrill
T1C0.400
; #@! TA.AperFunction,Plated,PTH,ComponentDrill
T2C0.500
; #@! TA.AperFunction,Plated,PTH,ViaDrill
T3C0.600
; #@! TA.AperFunction,Plated,PTH,ComponentDrill
T4C0.750
; #@! TA.AperFunction,Plated,PTH,ComponentDrill
T5C0.850
; #@! TA.AperFunction,Plated,PTH,ViaDrill
T6C1.000
; #@! TA.AperFunction,Plated,PTH,ComponentDrill
T7C1.000
; #@! TA.AperFunction,Plated,PTH,ViaDrill
T8C1.500
; #@! TA.AperFunction,Plated,PTH,ComponentDrill
T9C1.900
; #@! TA.AperFunction,Plated,PTH,ComponentDrill
T10C2.700
; #@! TA.AperFunction,Plated,PTH,ComponentDrill
T11C3.200
; #@! TA.AperFunction,Plated,PTH,ComponentDrill
T12C6.000
%
G90
G05
T1
X34.599Y-80.377
X36.799Y-86.077
X36.924Y-83.652
X37.974Y-51.152
X38.974Y-45.002
X41.375Y-89.402
X41.55Y-77.752
X43.925Y-89.377
X44.1Y-77.827
X46.65Y-77.777
X52.375Y-92.602
X57.65Y-74.552
X63.375Y-95.902
X66.749Y-112.752
X67.725Y-83.302
X68.525Y-71.527
X69.849Y-129.877
X70.424Y-82.777
X70.624Y-85.652
X71.834Y-50.427
X73.1Y-128.1
X75.9Y-129.2
X86.599Y-64.152
X86.899Y-48.927
X87.024Y-78.002
X87.749Y-119.102
X88.924Y-108.177
X89.524Y-89.452
X89.699Y-84.627
X89.874Y-114.002
X91.049Y-116.277
X91.124Y-117.377
X92.024Y-116.027
X92.124Y-117.502
X92.949Y-120.302
X92.974Y-118.852
X93.774Y-127.202
X94.199Y-98.577
X94.349Y-110.277
X96.374Y-84.952
X96.7Y-132.0
X96.849Y-41.127
X98.0Y-116.5
X98.6Y-110.4
X98.674Y-113.6
X98.849Y-118.527
X98.849Y-121.977
X99.724Y-118.527
X99.724Y-121.977
X100.224Y-91.127
X101.049Y-118.902
X101.174Y-108.602
X101.199Y-99.752
X101.299Y-126.227
X101.9Y-115.3
X102.049Y-104.452
X102.4Y-132.0
X102.549Y-79.902
X103.124Y-117.277
X103.449Y-95.227
X104.124Y-106.652
X104.749Y-60.127
X105.174Y-106.9
X105.224Y-122.977
X105.474Y-118.277
X105.8Y-97.1
X106.0Y-93.8
X106.374Y-113.702
X106.749Y-98.377
X107.099Y-105.502
X107.224Y-122.002
X107.249Y-93.602
X107.874Y-106.452
X108.136Y-96.389
X108.604Y-101.708
X109.0Y-114.6
X109.699Y-122.177
X110.186Y-94.975
X110.399Y-96.327
X111.499Y-92.477
X111.649Y-114.452
X111.849Y-106.5
X111.9Y-111.351
X112.124Y-123.252
X112.674Y-102.627
X112.8Y-101.3
X113.049Y-107.402
X113.199Y-91.952
X114.274Y-95.227
X114.974Y-123.002
X115.049Y-101.327
X115.399Y-114.802
X115.424Y-118.502
X115.624Y-116.102
X115.724Y-112.052
X115.949Y-109.627
X115.949Y-110.527
X116.5Y-91.1
X116.774Y-99.452
X117.2Y-126.5
X117.5Y-127.8
X117.624Y-96.427
X117.674Y-124.102
X118.049Y-112.852
X118.449Y-116.102
X118.649Y-110.002
X118.649Y-114.927
X118.824Y-103.902
X118.974Y-91.027
X119.2Y-125.3
X119.274Y-122.702
X119.324Y-121.376
X119.574Y-94.927
X119.899Y-98.277
X120.122Y-99.378
X120.4Y-132.0
X120.799Y-101.127
X121.424Y-112.927
X121.474Y-117.852
X121.6Y-93.7
X121.724Y-99.952
X121.724Y-115.95
X121.725Y-114.95
X122.924Y-96.202
X123.174Y-114.9
X123.599Y-113.902
X125.3Y-132.1
X125.399Y-120.827
X127.499Y-116.702
X127.6Y-50.6
X127.6Y-51.6
X127.6Y-52.6
X127.6Y-53.6
X127.8Y-97.5
X128.6Y-50.6
X128.6Y-51.6
X128.6Y-52.6
X128.6Y-53.6
X128.799Y-120.402
X129.6Y-50.6
X129.6Y-51.6
X129.6Y-52.6
X129.6Y-53.6
X130.224Y-115.802
X130.6Y-50.6
X130.6Y-51.6
X130.6Y-52.6
X130.6Y-53.6
X132.3Y-56.0
X132.3Y-111.7
X132.874Y-115.802
X133.1Y-58.5
X133.1Y-59.5
X133.1Y-60.5
X133.1Y-61.5
X133.2Y-68.8
X133.2Y-69.8
X133.2Y-70.8
X133.2Y-71.8
X133.2Y-113.9
X134.1Y-58.5
X134.1Y-59.5
X134.1Y-60.5
X134.1Y-61.5
X134.2Y-68.8
X134.2Y-69.8
X134.2Y-70.8
X134.2Y-71.8
X135.1Y-58.5
X135.1Y-59.5
X135.1Y-60.5
X135.1Y-61.5
X135.2Y-68.8
X135.2Y-69.8
X135.2Y-70.8
X135.2Y-71.8
X135.399Y-40.977
X135.6Y-112.3
X135.649Y-116.727
X136.0Y-48.0
X136.1Y-58.5
X136.1Y-59.5
X136.1Y-60.5
X136.1Y-61.5
X136.174Y-115.002
X136.2Y-68.8
X136.2Y-69.8
X136.2Y-70.8
X136.2Y-71.8
X136.949Y-118.177
X138.2Y-79.3
X138.2Y-80.3
X138.2Y-81.3
X138.2Y-82.3
X139.2Y-79.3
X139.2Y-80.3
X139.2Y-81.3
X139.2Y-82.3
X139.9Y-118.2
X140.2Y-79.3
X140.2Y-80.3
X140.2Y-81.3
X140.2Y-82.3
X141.2Y-79.3
X141.2Y-80.3
X141.2Y-81.3
X141.2Y-82.3
X141.4Y-75.2
X144.8Y-71.6
X144.9Y-61.7
X145.0Y-63.1
X145.0Y-64.1
X145.0Y-65.1
X145.0Y-66.1
X145.7Y-56.7
X145.7Y-59.8
X146.0Y-63.1
X146.0Y-64.1
X146.0Y-65.1
X146.0Y-66.1
X147.0Y-63.1
X147.0Y-64.1
X147.0Y-65.1
X147.0Y-66.1
X147.1Y-56.6
X147.1Y-57.6
X147.1Y-58.6
X147.1Y-59.6
X147.1Y-79.2
X147.9Y-110.1
X148.0Y-63.1
X148.0Y-64.1
X148.0Y-65.1
X148.0Y-66.1
X149.7Y-77.0
X150.2Y-63.2
X151.8Y-38.5
X152.5Y-60.0
X152.5Y-70.3
X154.2Y-67.2
X154.3Y-113.2
X154.8Y-58.7
X154.8Y-72.75
X155.1Y-121.6
X155.3Y-60.3
X155.4Y-63.1
X156.669Y-68.756
X157.3Y-71.2
X157.6Y-113.1
X158.4Y-62.8
X158.5Y-64.2
X158.9Y-67.2
X161.0Y-82.9
X161.082Y-62.518
X161.139Y-63.6
X161.75Y-74.0
X162.0Y-56.0
X163.173Y-72.6
X163.775Y-90.725
X164.7Y-60.0
X164.7Y-72.2
X164.999Y-64.403
X167.2Y-65.9
X167.275Y-70.975
X167.6Y-67.5
X167.8Y-70.1
X167.975Y-69.025
X168.5Y-66.6
X169.7Y-67.4
X169.9Y-128.2
X170.0Y-69.5
X170.2Y-106.7
X170.9Y-122.2
X172.9Y-63.5
X177.1Y-66.2
X177.8Y-68.4
X181.7Y-112.5
T2
X35.0Y-37.7
X35.003Y-130.797
X35.703Y-36.003
X35.703Y-39.397
X35.706Y-129.1
X35.706Y-132.494
X37.4Y-35.3
X37.4Y-40.1
X37.403Y-128.397
X37.403Y-133.197
X39.097Y-36.003
X39.097Y-39.397
X39.1Y-129.1
X39.1Y-132.494
X39.8Y-37.7
X39.803Y-130.797
X84.003Y-37.697
X84.706Y-36.0
X84.706Y-39.394
X85.0Y-130.797
X85.703Y-129.1
X85.703Y-132.494
X86.403Y-35.297
X86.403Y-40.097
X87.4Y-128.397
X87.4Y-133.197
X88.1Y-36.0
X88.1Y-39.394
X88.803Y-37.697
X89.097Y-129.1
X89.097Y-132.494
X89.8Y-130.797
X178.0Y-37.7
X178.0Y-130.803
X178.703Y-36.003
X178.703Y-39.397
X178.703Y-129.106
X178.703Y-132.5
X180.4Y-35.3
X180.4Y-40.1
X180.4Y-128.403
X180.4Y-133.203
X182.097Y-36.003
X182.097Y-39.397
X182.097Y-129.106
X182.097Y-132.5
X182.8Y-37.7
X182.8Y-130.803
T3
X40.9Y-65.7
X40.9Y-67.2
X40.9Y-68.7
X40.9Y-70.2
X40.9Y-71.7
X40.9Y-95.2
X40.9Y-96.7
X40.9Y-98.2
X40.9Y-99.7
X40.9Y-101.2
X42.4Y-65.7
X42.4Y-67.2
X42.4Y-68.7
X42.4Y-70.2
X42.4Y-71.7
X42.4Y-95.2
X42.4Y-96.7
X42.4Y-98.2
X42.4Y-99.7
X42.4Y-101.2
X43.9Y-65.7
X43.9Y-67.2
X43.9Y-68.7
X43.9Y-70.2
X43.9Y-71.7
X43.9Y-95.2
X43.9Y-96.7
X43.9Y-98.2
X43.9Y-99.7
X43.9Y-101.2
X45.4Y-65.7
X45.4Y-67.2
X45.4Y-68.7
X45.4Y-70.2
X45.4Y-71.7
X45.4Y-95.2
X45.4Y-96.7
X45.4Y-98.2
X45.4Y-99.7
X45.4Y-101.2
X46.9Y-65.7
X46.9Y-67.2
X46.9Y-68.7
X46.9Y-70.2
X46.9Y-71.7
X46.9Y-95.2
X46.9Y-96.7
X46.9Y-98.2
X46.9Y-99.7
X46.9Y-101.2
X49.4Y-80.2
X49.4Y-81.7
X49.4Y-83.2
X49.4Y-84.7
X49.4Y-86.2
X50.9Y-80.2
X50.9Y-81.7
X50.9Y-83.2
X50.9Y-84.7
X50.9Y-86.2
X51.9Y-98.2
X51.9Y-99.7
X51.9Y-101.2
X51.9Y-102.7
X51.9Y-104.2
X52.4Y-62.7
X52.4Y-64.2
X52.4Y-65.7
X52.4Y-67.2
X52.4Y-68.7
X52.4Y-80.2
X52.4Y-81.7
X52.4Y-83.2
X52.4Y-84.7
X52.4Y-86.2
X53.4Y-98.2
X53.4Y-99.7
X53.4Y-101.2
X53.4Y-102.7
X53.4Y-104.2
X53.9Y-62.7
X53.9Y-64.2
X53.9Y-65.7
X53.9Y-67.2
X53.9Y-68.7
X53.9Y-80.2
X53.9Y-81.7
X53.9Y-83.2
X53.9Y-84.7
X53.9Y-86.2
X54.9Y-98.2
X54.9Y-99.7
X54.9Y-101.2
X54.9Y-102.7
X54.9Y-104.2
X55.4Y-62.7
X55.4Y-64.2
X55.4Y-65.7
X55.4Y-67.2
X55.4Y-68.7
X55.4Y-80.2
X55.4Y-81.7
X55.4Y-83.2
X55.4Y-84.7
X55.4Y-86.2
X56.4Y-98.2
X56.4Y-99.7
X56.4Y-101.2
X56.4Y-102.7
X56.4Y-104.2
X56.9Y-62.7
X56.9Y-64.2
X56.9Y-65.7
X56.9Y-67.2
X56.9Y-68.7
X57.9Y-42.2
X57.9Y-43.7
X57.9Y-45.2
X57.9Y-46.7
X57.9Y-48.2
X57.9Y-98.2
X57.9Y-99.7
X57.9Y-101.2
X57.9Y-102.7
X57.9Y-104.2
X58.4Y-62.7
X58.4Y-64.2
X58.4Y-65.7
X58.4Y-67.2
X58.4Y-68.7
X58.4Y-118.7
X58.4Y-120.2
X58.4Y-121.7
X58.4Y-123.2
X58.4Y-124.7
X59.4Y-42.2
X59.4Y-43.7
X59.4Y-45.2
X59.4Y-46.7
X59.4Y-48.2
X59.9Y-118.7
X59.9Y-120.2
X59.9Y-121.7
X59.9Y-123.2
X59.9Y-124.7
X60.4Y-80.2
X60.4Y-81.7
X60.4Y-83.2
X60.4Y-84.7
X60.4Y-86.2
X60.9Y-42.2
X60.9Y-43.7
X60.9Y-45.2
X60.9Y-46.7
X60.9Y-48.2
X61.4Y-118.7
X61.4Y-120.2
X61.4Y-121.7
X61.4Y-123.2
X61.4Y-124.7
X61.9Y-80.2
X61.9Y-81.7
X61.9Y-83.2
X61.9Y-84.7
X61.9Y-86.2
X62.4Y-42.2
X62.4Y-43.7
X62.4Y-45.2
X62.4Y-46.7
X62.4Y-48.2
X62.9Y-59.7
X62.9Y-61.2
X62.9Y-62.7
X62.9Y-64.2
X62.9Y-65.7
X62.9Y-101.7
X62.9Y-103.2
X62.9Y-104.7
X62.9Y-106.2
X62.9Y-107.7
X62.9Y-118.7
X62.9Y-120.2
X62.9Y-121.7
X62.9Y-123.2
X62.9Y-124.7
X63.4Y-80.2
X63.4Y-81.7
X63.4Y-83.2
X63.4Y-84.7
X63.4Y-86.2
X63.9Y-42.2
X63.9Y-43.7
X63.9Y-45.2
X63.9Y-46.7
X63.9Y-48.2
X64.4Y-59.7
X64.4Y-61.2
X64.4Y-62.7
X64.4Y-64.2
X64.4Y-65.7
X64.4Y-101.7
X64.4Y-103.2
X64.4Y-104.7
X64.4Y-106.2
X64.4Y-107.7
X64.4Y-118.7
X64.4Y-120.2
X64.4Y-121.7
X64.4Y-123.2
X64.4Y-124.7
X64.9Y-80.2
X64.9Y-81.7
X64.9Y-83.2
X64.9Y-84.7
X64.9Y-86.2
X65.9Y-59.7
X65.9Y-61.2
X65.9Y-62.7
X65.9Y-64.2
X65.9Y-65.7
X65.9Y-101.7
X65.9Y-103.2
X65.9Y-104.7
X65.9Y-106.2
X65.9Y-107.7
X66.4Y-80.2
X66.4Y-81.7
X66.4Y-83.2
X66.4Y-84.7
X66.4Y-86.2
X67.4Y-59.7
X67.4Y-61.2
X67.4Y-62.7
X67.4Y-64.2
X67.4Y-65.7
X67.4Y-101.7
X67.4Y-103.2
X67.4Y-104.7
X67.4Y-106.2
X67.4Y-107.7
X68.9Y-59.7
X68.9Y-61.2
X68.9Y-62.7
X68.9Y-64.2
X68.9Y-65.7
X68.9Y-101.7
X68.9Y-103.2
X68.9Y-104.7
X68.9Y-106.2
X68.9Y-107.7
X75.4Y-62.7
X75.4Y-64.2
X75.4Y-65.7
X75.4Y-67.2
X75.4Y-68.7
X75.4Y-70.7
X75.4Y-72.2
X75.4Y-73.7
X75.4Y-75.2
X75.4Y-76.7
X75.4Y-90.2
X75.4Y-91.7
X75.4Y-93.2
X75.4Y-94.7
X75.4Y-96.2
X75.4Y-99.2
X75.4Y-100.7
X75.4Y-102.2
X75.4Y-103.7
X75.4Y-105.2
X76.9Y-62.7
X76.9Y-64.2
X76.9Y-65.7
X76.9Y-67.2
X76.9Y-68.7
X76.9Y-70.7
X76.9Y-72.2
X76.9Y-73.7
X76.9Y-75.2
X76.9Y-76.7
X76.9Y-90.2
X76.9Y-91.7
X76.9Y-93.2
X76.9Y-94.7
X76.9Y-96.2
X76.9Y-99.2
X76.9Y-100.7
X76.9Y-102.2
X76.9Y-103.7
X76.9Y-105.2
X77.4Y-80.2
X77.4Y-81.7
X77.4Y-83.2
X77.4Y-84.7
X77.4Y-86.2
X78.4Y-62.7
X78.4Y-64.2
X78.4Y-65.7
X78.4Y-67.2
X78.4Y-68.7
X78.4Y-70.7
X78.4Y-72.2
X78.4Y-73.7
X78.4Y-75.2
X78.4Y-76.7
X78.4Y-90.2
X78.4Y-91.7
X78.4Y-93.2
X78.4Y-94.7
X78.4Y-96.2
X78.4Y-99.2
X78.4Y-100.7
X78.4Y-102.2
X78.4Y-103.7
X78.4Y-105.2
X78.9Y-80.2
X78.9Y-81.7
X78.9Y-83.2
X78.9Y-84.7
X78.9Y-86.2
X79.9Y-62.7
X79.9Y-64.2
X79.9Y-65.7
X79.9Y-67.2
X79.9Y-68.7
X79.9Y-70.7
X79.9Y-72.2
X79.9Y-73.7
X79.9Y-75.2
X79.9Y-76.7
X79.9Y-90.2
X79.9Y-91.7
X79.9Y-93.2
X79.9Y-94.7
X79.9Y-96.2
X79.9Y-99.2
X79.9Y-100.7
X79.9Y-102.2
X79.9Y-103.7
X79.9Y-105.2
X80.4Y-80.2
X80.4Y-81.7
X80.4Y-83.2
X80.4Y-84.7
X80.4Y-86.2
X81.4Y-62.7
X81.4Y-64.2
X81.4Y-65.7
X81.4Y-67.2
X81.4Y-68.7
X81.4Y-70.7
X81.4Y-72.2
X81.4Y-73.7
X81.4Y-75.2
X81.4Y-76.7
X81.4Y-90.2
X81.4Y-91.7
X81.4Y-93.2
X81.4Y-94.7
X81.4Y-96.2
X81.4Y-99.2
X81.4Y-100.7
X81.4Y-102.2
X81.4Y-103.7
X81.4Y-105.2
X81.9Y-80.2
X81.9Y-81.7
X81.9Y-83.2
X81.9Y-84.7
X81.9Y-86.2
X83.4Y-80.2
X83.4Y-81.7
X83.4Y-83.2
X83.4Y-84.7
X83.4Y-86.2
X152.9Y-119.7
X152.9Y-121.2
X152.9Y-122.7
X152.9Y-124.2
X152.9Y-125.7
X154.4Y-119.7
X154.4Y-121.2
X154.4Y-122.7
X154.4Y-124.2
X154.4Y-125.7
X155.9Y-119.7
X155.9Y-121.2
X155.9Y-122.7
X155.9Y-124.2
X155.9Y-125.7
X157.4Y-119.7
X157.4Y-121.2
X157.4Y-122.7
X157.4Y-124.2
X157.4Y-125.7
X158.9Y-119.7
X158.9Y-121.2
X158.9Y-122.7
X158.9Y-124.2
X158.9Y-125.7
X159.9Y-100.2
X159.9Y-101.7
X161.4Y-100.2
X161.4Y-101.7
X162.9Y-100.2
X162.9Y-101.7
X164.4Y-100.2
X164.4Y-101.7
X165.9Y-100.2
X165.9Y-101.7
T4
X37.024Y-120.552
X37.024Y-122.552
X37.024Y-124.552
X37.449Y-44.302
X37.449Y-46.302
X37.449Y-48.302
X105.434Y-78.902
X105.534Y-82.252
X106.704Y-78.902
X106.804Y-82.252
X107.974Y-78.902
X108.074Y-82.252
X120.449Y-126.652
X122.449Y-126.652
X124.449Y-126.652
X126.449Y-126.652
T5
X123.908Y-84.3
X127.408Y-84.3
T6
X159.125Y-93.975
X166.4Y-83.4
T7
X86.974Y-79.682
X86.974Y-82.222
X86.974Y-84.762
X86.974Y-87.302
X110.044Y-125.037
X110.044Y-127.577
X112.584Y-125.037
X112.584Y-127.577
X115.124Y-125.037
X115.124Y-127.577
X130.664Y-123.002
X133.204Y-123.002
X135.744Y-123.002
X138.284Y-123.002
X139.549Y-44.4
X140.824Y-123.002
X150.549Y-44.4
X153.874Y-44.35
X164.874Y-44.35
T8
X41.4Y-106.7
X41.4Y-114.7
X41.4Y-118.2
X41.4Y-125.7
X41.9Y-42.2
X41.9Y-49.7
X41.9Y-53.2
X41.9Y-61.2
X50.4Y-106.7
X50.4Y-114.7
X50.4Y-118.2
X50.4Y-125.7
X50.9Y-42.2
X50.9Y-49.7
X50.9Y-53.2
X50.9Y-61.2
X73.4Y-48.2
X73.4Y-118.2
X73.4Y-124.675
X73.9Y-42.7
X73.9Y-107.2
X73.9Y-113.7
X74.4Y-54.2
X74.4Y-60.7
X81.9Y-113.952
X82.4Y-54.2
X82.4Y-60.7
X82.4Y-107.2
X82.875Y-49.327
X82.9Y-42.7
X82.9Y-124.675
X83.025Y-118.998
X89.124Y-58.227
X91.724Y-75.677
X145.9Y-119.2
T9
X142.549Y-49.4
X147.549Y-49.4
X156.874Y-49.35
X161.874Y-49.35
T10
X177.899Y-75.2
X177.899Y-80.2
X177.899Y-95.2
X177.899Y-100.2
X177.899Y-115.2
X177.899Y-120.2
T11
X37.4Y-37.7
X37.403Y-130.797
X86.403Y-37.697
X87.4Y-130.797
X180.4Y-37.7
X180.4Y-130.803
T12
X45.874Y-110.702
X45.874Y-121.702
X46.349Y-46.177
X46.349Y-57.177
X78.124Y-110.302
X78.124Y-121.302
X78.399Y-46.277
X78.399Y-57.277
T0
M30
