G04 #@! TF.GenerationSoftware,KiCad,Pcbnew,7.0.1*
G04 #@! TF.CreationDate,2023-09-16T11:04:41-10:00*
G04 #@! TF.ProjectId,rps01,72707330-312e-46b6-9963-61645f706362,1*
G04 #@! TF.SameCoordinates,Original*
G04 #@! TF.FileFunction,Paste,Bot*
G04 #@! TF.FilePolarity,Positive*
%FSLAX46Y46*%
G04 Gerber Fmt 4.6, Leading zero omitted, Abs format (unit mm)*
G04 Created by KiCad (PCBNEW 7.0.1) date 2023-09-16 11:04:41*
%MOMM*%
%LPD*%
G01*
G04 APERTURE LIST*
G04 Aperture macros list*
%AMRoundRect*
0 Rectangle with rounded corners*
0 $1 Rounding radius*
0 $2 $3 $4 $5 $6 $7 $8 $9 X,Y pos of 4 corners*
0 Add a 4 corners polygon primitive as box body*
4,1,4,$2,$3,$4,$5,$6,$7,$8,$9,$2,$3,0*
0 Add four circle primitives for the rounded corners*
1,1,$1+$1,$2,$3*
1,1,$1+$1,$4,$5*
1,1,$1+$1,$6,$7*
1,1,$1+$1,$8,$9*
0 Add four rect primitives between the rounded corners*
20,1,$1+$1,$2,$3,$4,$5,0*
20,1,$1+$1,$4,$5,$6,$7,0*
20,1,$1+$1,$6,$7,$8,$9,0*
20,1,$1+$1,$8,$9,$2,$3,0*%
G04 Aperture macros list end*
%ADD10R,0.812800X3.251200*%
%ADD11R,7.874000X8.305800*%
%ADD12R,1.143000X0.431800*%
%ADD13R,0.965200X0.431800*%
%ADD14RoundRect,0.200000X0.200000X0.275000X-0.200000X0.275000X-0.200000X-0.275000X0.200000X-0.275000X0*%
%ADD15RoundRect,0.200000X-0.200000X-0.275000X0.200000X-0.275000X0.200000X0.275000X-0.200000X0.275000X0*%
%ADD16RoundRect,0.200000X0.275000X-0.200000X0.275000X0.200000X-0.275000X0.200000X-0.275000X-0.200000X0*%
%ADD17R,1.500000X2.000000*%
%ADD18R,3.800000X2.000000*%
%ADD19R,0.431800X1.143000*%
%ADD20R,0.431800X0.965200*%
%ADD21R,2.000000X1.500000*%
%ADD22R,2.000000X3.800000*%
%ADD23RoundRect,0.250000X0.325000X0.650000X-0.325000X0.650000X-0.325000X-0.650000X0.325000X-0.650000X0*%
%ADD24RoundRect,0.250000X-0.625000X0.312500X-0.625000X-0.312500X0.625000X-0.312500X0.625000X0.312500X0*%
%ADD25RoundRect,0.225000X-0.225000X-0.250000X0.225000X-0.250000X0.225000X0.250000X-0.225000X0.250000X0*%
%ADD26RoundRect,0.225000X0.225000X0.250000X-0.225000X0.250000X-0.225000X-0.250000X0.225000X-0.250000X0*%
%ADD27RoundRect,0.200000X-0.275000X0.200000X-0.275000X-0.200000X0.275000X-0.200000X0.275000X0.200000X0*%
%ADD28R,1.917700X2.997200*%
%ADD29RoundRect,0.250000X-0.300000X2.050000X-0.300000X-2.050000X0.300000X-2.050000X0.300000X2.050000X0*%
%ADD30RoundRect,0.250000X-2.375000X2.025000X-2.375000X-2.025000X2.375000X-2.025000X2.375000X2.025000X0*%
%ADD31RoundRect,0.250000X0.650000X-0.325000X0.650000X0.325000X-0.650000X0.325000X-0.650000X-0.325000X0*%
%ADD32RoundRect,0.250000X-0.650000X0.325000X-0.650000X-0.325000X0.650000X-0.325000X0.650000X0.325000X0*%
%ADD33R,1.625600X2.184400*%
%ADD34R,4.000000X7.800000*%
%ADD35RoundRect,0.250000X0.625000X-0.312500X0.625000X0.312500X-0.625000X0.312500X-0.625000X-0.312500X0*%
G04 APERTURE END LIST*
G36*
X144815000Y-70646698D02*
G01*
X144230800Y-70646698D01*
X144230800Y-67573298D01*
X144815000Y-67573298D01*
X144815000Y-70646698D01*
G37*
G36*
X143800600Y-71842098D02*
G01*
X142730600Y-71842098D01*
X142730600Y-70577364D01*
X143800600Y-70577364D01*
X143800600Y-71842098D01*
G37*
G36*
X143800600Y-70377365D02*
G01*
X142730600Y-70377365D01*
X142730600Y-69112631D01*
X143800600Y-69112631D01*
X143800600Y-70377365D01*
G37*
G36*
X143800600Y-68912632D02*
G01*
X142730600Y-68912632D01*
X142730600Y-67647898D01*
X143800600Y-67647898D01*
X143800600Y-68912632D01*
G37*
G36*
X143392600Y-71942098D02*
G01*
X139582600Y-71942098D01*
X139582600Y-67547898D01*
X143392600Y-67547898D01*
X143392600Y-71942098D01*
G37*
G36*
X142530600Y-71842098D02*
G01*
X141460600Y-71842098D01*
X141460600Y-70577364D01*
X142530600Y-70577364D01*
X142530600Y-71842098D01*
G37*
G36*
X142530600Y-70377365D02*
G01*
X141460600Y-70377365D01*
X141460600Y-69112631D01*
X142530600Y-69112631D01*
X142530600Y-70377365D01*
G37*
G36*
X142530600Y-68912632D02*
G01*
X141460600Y-68912632D01*
X141460600Y-67647898D01*
X142530600Y-67647898D01*
X142530600Y-68912632D01*
G37*
G36*
X141260600Y-71842098D02*
G01*
X140190600Y-71842098D01*
X140190600Y-70577364D01*
X141260600Y-70577364D01*
X141260600Y-71842098D01*
G37*
G36*
X141260600Y-70377365D02*
G01*
X140190600Y-70377365D01*
X140190600Y-69112631D01*
X141260600Y-69112631D01*
X141260600Y-70377365D01*
G37*
G36*
X141260600Y-68912632D02*
G01*
X140190600Y-68912632D01*
X140190600Y-67647898D01*
X141260600Y-67647898D01*
X141260600Y-68912632D01*
G37*
G36*
X135096700Y-77269200D02*
G01*
X132023300Y-77269200D01*
X132023300Y-76685000D01*
X135096700Y-76685000D01*
X135096700Y-77269200D01*
G37*
G36*
X136292100Y-78769400D02*
G01*
X135027366Y-78769400D01*
X135027366Y-77699400D01*
X136292100Y-77699400D01*
X136292100Y-78769400D01*
G37*
G36*
X134827367Y-78769400D02*
G01*
X133562633Y-78769400D01*
X133562633Y-77699400D01*
X134827367Y-77699400D01*
X134827367Y-78769400D01*
G37*
G36*
X133362634Y-78769400D02*
G01*
X132097900Y-78769400D01*
X132097900Y-77699400D01*
X133362634Y-77699400D01*
X133362634Y-78769400D01*
G37*
G36*
X136392100Y-81917400D02*
G01*
X131997900Y-81917400D01*
X131997900Y-78107400D01*
X136392100Y-78107400D01*
X136392100Y-81917400D01*
G37*
G36*
X136292100Y-80039400D02*
G01*
X135027366Y-80039400D01*
X135027366Y-78969400D01*
X136292100Y-78969400D01*
X136292100Y-80039400D01*
G37*
G36*
X134827367Y-80039400D02*
G01*
X133562633Y-80039400D01*
X133562633Y-78969400D01*
X134827367Y-78969400D01*
X134827367Y-80039400D01*
G37*
G36*
X133362634Y-80039400D02*
G01*
X132097900Y-80039400D01*
X132097900Y-78969400D01*
X133362634Y-78969400D01*
X133362634Y-80039400D01*
G37*
G36*
X136292100Y-81309400D02*
G01*
X135027366Y-81309400D01*
X135027366Y-80239400D01*
X136292100Y-80239400D01*
X136292100Y-81309400D01*
G37*
G36*
X134827367Y-81309400D02*
G01*
X133562633Y-81309400D01*
X133562633Y-80239400D01*
X134827367Y-80239400D01*
X134827367Y-81309400D01*
G37*
G36*
X133362634Y-81309400D02*
G01*
X132097900Y-81309400D01*
X132097900Y-80239400D01*
X133362634Y-80239400D01*
X133362634Y-81309400D01*
G37*
G36*
X136366700Y-56062698D02*
G01*
X133293300Y-56062698D01*
X133293300Y-55478498D01*
X136366700Y-55478498D01*
X136366700Y-56062698D01*
G37*
G36*
X133362634Y-55048298D02*
G01*
X132097900Y-55048298D01*
X132097900Y-53978298D01*
X133362634Y-53978298D01*
X133362634Y-55048298D01*
G37*
G36*
X134827367Y-55048298D02*
G01*
X133562633Y-55048298D01*
X133562633Y-53978298D01*
X134827367Y-53978298D01*
X134827367Y-55048298D01*
G37*
G36*
X136292100Y-55048298D02*
G01*
X135027366Y-55048298D01*
X135027366Y-53978298D01*
X136292100Y-53978298D01*
X136292100Y-55048298D01*
G37*
G36*
X136392100Y-54640298D02*
G01*
X131997900Y-54640298D01*
X131997900Y-50830298D01*
X136392100Y-50830298D01*
X136392100Y-54640298D01*
G37*
G36*
X133362634Y-53778298D02*
G01*
X132097900Y-53778298D01*
X132097900Y-52708298D01*
X133362634Y-52708298D01*
X133362634Y-53778298D01*
G37*
G36*
X134827367Y-53778298D02*
G01*
X133562633Y-53778298D01*
X133562633Y-52708298D01*
X134827367Y-52708298D01*
X134827367Y-53778298D01*
G37*
G36*
X136292100Y-53778298D02*
G01*
X135027366Y-53778298D01*
X135027366Y-52708298D01*
X136292100Y-52708298D01*
X136292100Y-53778298D01*
G37*
G36*
X133362634Y-52508298D02*
G01*
X132097900Y-52508298D01*
X132097900Y-51438298D01*
X133362634Y-51438298D01*
X133362634Y-52508298D01*
G37*
G36*
X134827367Y-52508298D02*
G01*
X133562633Y-52508298D01*
X133562633Y-51438298D01*
X134827367Y-51438298D01*
X134827367Y-52508298D01*
G37*
G36*
X136292100Y-52508298D02*
G01*
X135027366Y-52508298D01*
X135027366Y-51438298D01*
X136292100Y-51438298D01*
X136292100Y-52508298D01*
G37*
G36*
X144915000Y-60746698D02*
G01*
X144330800Y-60746698D01*
X144330800Y-57673298D01*
X144915000Y-57673298D01*
X144915000Y-60746698D01*
G37*
G36*
X143900600Y-61942098D02*
G01*
X142830600Y-61942098D01*
X142830600Y-60677364D01*
X143900600Y-60677364D01*
X143900600Y-61942098D01*
G37*
G36*
X143900600Y-60477365D02*
G01*
X142830600Y-60477365D01*
X142830600Y-59212631D01*
X143900600Y-59212631D01*
X143900600Y-60477365D01*
G37*
G36*
X143900600Y-59012632D02*
G01*
X142830600Y-59012632D01*
X142830600Y-57747898D01*
X143900600Y-57747898D01*
X143900600Y-59012632D01*
G37*
G36*
X143492600Y-62042098D02*
G01*
X139682600Y-62042098D01*
X139682600Y-57647898D01*
X143492600Y-57647898D01*
X143492600Y-62042098D01*
G37*
G36*
X142630600Y-61942098D02*
G01*
X141560600Y-61942098D01*
X141560600Y-60677364D01*
X142630600Y-60677364D01*
X142630600Y-61942098D01*
G37*
G36*
X142630600Y-60477365D02*
G01*
X141560600Y-60477365D01*
X141560600Y-59212631D01*
X142630600Y-59212631D01*
X142630600Y-60477365D01*
G37*
G36*
X142630600Y-59012632D02*
G01*
X141560600Y-59012632D01*
X141560600Y-57747898D01*
X142630600Y-57747898D01*
X142630600Y-59012632D01*
G37*
G36*
X141360600Y-61942098D02*
G01*
X140290600Y-61942098D01*
X140290600Y-60677364D01*
X141360600Y-60677364D01*
X141360600Y-61942098D01*
G37*
G36*
X141360600Y-60477365D02*
G01*
X140290600Y-60477365D01*
X140290600Y-59212631D01*
X141360600Y-59212631D01*
X141360600Y-60477365D01*
G37*
G36*
X141360600Y-59012632D02*
G01*
X140290600Y-59012632D01*
X140290600Y-57747898D01*
X141360600Y-57747898D01*
X141360600Y-59012632D01*
G37*
D10*
X41359179Y-88153680D03*
X43899179Y-88153680D03*
X46439179Y-88153680D03*
D11*
X43899179Y-98275580D03*
D12*
X144802300Y-67839998D03*
X144802300Y-69109998D03*
X144802300Y-70379998D03*
X144802300Y-71649998D03*
D13*
X139100000Y-71649998D03*
X139100000Y-70379998D03*
X139100000Y-69109998D03*
X139100000Y-67839998D03*
D14*
X169825000Y-76500000D03*
X168175000Y-76500000D03*
D15*
X168175000Y-78040000D03*
X169825000Y-78040000D03*
D10*
X57664179Y-75748880D03*
X55124179Y-75748880D03*
X52584179Y-75748880D03*
D11*
X55124179Y-65626980D03*
D16*
X169010000Y-50500000D03*
X169010000Y-48850000D03*
D17*
X86774179Y-49501680D03*
X89074179Y-49501680D03*
D18*
X89074179Y-55801680D03*
D17*
X91374179Y-49501680D03*
D19*
X132290000Y-76697700D03*
X133560000Y-76697700D03*
X134830000Y-76697700D03*
X136100000Y-76697700D03*
D20*
X136100000Y-82400000D03*
X134830000Y-82400000D03*
X133560000Y-82400000D03*
X132290000Y-82400000D03*
D21*
X84974179Y-125301680D03*
X84974179Y-123001680D03*
D22*
X91274179Y-123001680D03*
D21*
X84974179Y-120701680D03*
D10*
X68514179Y-72698880D03*
X65974179Y-72698880D03*
X63434179Y-72698880D03*
D11*
X65974179Y-62576980D03*
D23*
X166000000Y-61500000D03*
X163050000Y-61500000D03*
D10*
X46639179Y-78999680D03*
X44099179Y-78999680D03*
X41559179Y-78999680D03*
D11*
X44099179Y-68877780D03*
D23*
X161050000Y-38000000D03*
X158100000Y-38000000D03*
D24*
X150400000Y-72200000D03*
X150400000Y-75125000D03*
D25*
X109049179Y-114426680D03*
X110599179Y-114426680D03*
D26*
X109199179Y-112976680D03*
X107649179Y-112976680D03*
D27*
X166500000Y-48850000D03*
X166500000Y-50500000D03*
D24*
X152000000Y-67237500D03*
X152000000Y-70162500D03*
D28*
X141431450Y-75149998D03*
X146168550Y-75149998D03*
D29*
X159175000Y-93975000D03*
X160875000Y-93975000D03*
X162575000Y-93975000D03*
D30*
X165350000Y-100700000D03*
X159800000Y-100700000D03*
X165350000Y-105550000D03*
X159800000Y-105550000D03*
D29*
X164275000Y-93975000D03*
X165975000Y-93975000D03*
D23*
X159250000Y-76600000D03*
X156300000Y-76600000D03*
D15*
X176850000Y-87490000D03*
X178500000Y-87490000D03*
D31*
X152700000Y-75150000D03*
X152700000Y-72200000D03*
D28*
X128162900Y-60000000D03*
X132900000Y-60000000D03*
D32*
X155300000Y-71350000D03*
X155300000Y-74300000D03*
D14*
X178500000Y-90000000D03*
X176850000Y-90000000D03*
D10*
X63359179Y-94628680D03*
X65899179Y-94628680D03*
X68439179Y-94628680D03*
D11*
X65899179Y-104750580D03*
D17*
X168599179Y-115926680D03*
X170899179Y-115926680D03*
D18*
X170899179Y-122226680D03*
D17*
X173199179Y-115926680D03*
D29*
X152500000Y-113050000D03*
X154200000Y-113050000D03*
X155900000Y-113050000D03*
D30*
X158675000Y-119775000D03*
X153125000Y-119775000D03*
X158675000Y-124625000D03*
X153125000Y-124625000D03*
D29*
X157600000Y-113050000D03*
X159300000Y-113050000D03*
D33*
X161000000Y-86454200D03*
X161000000Y-82745800D03*
D19*
X136100000Y-56049998D03*
X134830000Y-56049998D03*
X133560000Y-56049998D03*
X132290000Y-56049998D03*
D20*
X132290000Y-50347698D03*
X133560000Y-50347698D03*
X134830000Y-50347698D03*
X136100000Y-50347698D03*
D10*
X52334179Y-91354780D03*
X54874179Y-91354780D03*
X57414179Y-91354780D03*
D11*
X54874179Y-101476680D03*
D12*
X144902300Y-57939998D03*
X144902300Y-59209998D03*
X144902300Y-60479998D03*
X144902300Y-61749998D03*
D13*
X139200000Y-61749998D03*
X139200000Y-60479998D03*
X139200000Y-59209998D03*
X139200000Y-57939998D03*
D34*
X67524179Y-83351680D03*
X78524179Y-83351680D03*
D23*
X161150000Y-45000000D03*
X158200000Y-45000000D03*
D32*
X158400000Y-61150000D03*
X158400000Y-64100000D03*
D35*
X151800000Y-63200000D03*
X151800000Y-60275000D03*
M02*
