%TF.GenerationSoftware,KiCad,Pcbnew,7.0.2*%
%TF.CreationDate,2023-08-30T13:34:59-07:00*%
%TF.ProjectId,fuse_test,66757365-5f74-4657-9374-2e6b69636164,rev?*%
%TF.SameCoordinates,Original*%
%TF.FileFunction,Copper,L1,Top*%
%TF.FilePolarity,Positive*%
%FSLAX46Y46*%
G04 Gerber Fmt 4.6, Leading zero omitted, Abs format (unit mm)*
G04 Created by KiCad (PCBNEW 7.0.2) date 2023-08-30 13:34:59*
%MOMM*%
%LPD*%
G01*
G04 APERTURE LIST*
%TA.AperFunction,ComponentPad*%
%ADD10R,3.000000X15.000000*%
%TD*%
G04 APERTURE END LIST*
D10*
%TO.P,F1,1,INPUT*%
%TO.N,Net-(F1-INPUT)*%
X140368996Y-85000000D03*
%TO.P,F1,2,OUTPUT*%
%TO.N,GND*%
X155000000Y-85000000D03*
%TD*%
%TA.AperFunction,Conductor*%
%TO.N,GND*%
G36*
X153068662Y-77020185D02*
G01*
X153114417Y-77072989D01*
X153124361Y-77142147D01*
X153100890Y-77198811D01*
X153056647Y-77257911D01*
X153006400Y-77392628D01*
X153000354Y-77448867D01*
X153000000Y-77455481D01*
X153000000Y-84750000D01*
X154225000Y-84750000D01*
X154225000Y-85250000D01*
X153000000Y-85250000D01*
X153000000Y-92544518D01*
X153000354Y-92551132D01*
X153006400Y-92607371D01*
X153056647Y-92742088D01*
X153100890Y-92801189D01*
X153125307Y-92866653D01*
X153110456Y-92934926D01*
X153061051Y-92984332D01*
X153001623Y-92999500D01*
X142367998Y-92999500D01*
X142300959Y-92979815D01*
X142255204Y-92927011D01*
X142245260Y-92857853D01*
X142268731Y-92801190D01*
X142296693Y-92763835D01*
X142312792Y-92742331D01*
X142363087Y-92607483D01*
X142369496Y-92547873D01*
X142369495Y-77452128D01*
X142363087Y-77392517D01*
X142312792Y-77257669D01*
X142312790Y-77257666D01*
X142268731Y-77198810D01*
X142244314Y-77133346D01*
X142259166Y-77065073D01*
X142308571Y-77015668D01*
X142367998Y-77000500D01*
X153001623Y-77000500D01*
X153068662Y-77020185D01*
G37*
%TD.AperFunction*%
%TA.AperFunction,Conductor*%
G36*
X157742539Y-77020185D02*
G01*
X157788294Y-77072989D01*
X157799500Y-77124500D01*
X157799500Y-92875500D01*
X157779815Y-92942539D01*
X157727011Y-92988294D01*
X157675500Y-92999500D01*
X156998377Y-92999500D01*
X156931338Y-92979815D01*
X156885583Y-92927011D01*
X156875639Y-92857853D01*
X156899110Y-92801189D01*
X156943352Y-92742088D01*
X156993599Y-92607371D01*
X156999645Y-92551132D01*
X157000000Y-92544518D01*
X157000000Y-85250000D01*
X155775000Y-85250000D01*
X155775000Y-84750000D01*
X157000000Y-84750000D01*
X157000000Y-77455481D01*
X156999645Y-77448867D01*
X156993599Y-77392628D01*
X156943352Y-77257911D01*
X156899110Y-77198811D01*
X156874693Y-77133347D01*
X156889544Y-77065074D01*
X156938949Y-77015668D01*
X156998377Y-77000500D01*
X157675500Y-77000500D01*
X157742539Y-77020185D01*
G37*
%TD.AperFunction*%
%TD*%
M02*
