%TF.GenerationSoftware,KiCad,Pcbnew,7.0.2*%
%TF.CreationDate,2023-09-05T18:36:46-07:00*%
%TF.ProjectId,fuse_test,66757365-5f74-4657-9374-2e6b69636164,rev?*%
%TF.SameCoordinates,Original*%
%TF.FileFunction,Drillmap*%
%TF.FilePolarity,Positive*%
%FSLAX45Y45*%
G04 Gerber Fmt 4.5, Leading zero omitted, Abs format (unit mm)*
G04 Created by KiCad (PCBNEW 7.0.2) date 2023-09-05 18:36:46*
%MOMM*%
%LPD*%
G01*
G04 APERTURE LIST*
%ADD10C,0.100000*%
%ADD11C,0.200000*%
%ADD12C,0.155000*%
G04 APERTURE END LIST*
D10*
X1253070Y-1238240D02*
X6299200Y-1238240D01*
X6299200Y-4612640D01*
X1253070Y-4612640D01*
X1253070Y-1238240D01*
D11*
D12*
X3000950Y-2045940D02*
X3155950Y-2200940D01*
X3155950Y-2045940D02*
X3000950Y-2200940D01*
D11*
X3000950Y-1590940D02*
X3000950Y-2655940D01*
X3000950Y-2655940D02*
G75*
G03*
X3155950Y-2655940I77500J0D01*
G01*
X3155950Y-2655940D02*
X3155950Y-1590940D01*
X3155950Y-1590940D02*
G75*
G03*
X3000950Y-1590940I-77500J0D01*
G01*
D12*
X4464050Y-2045940D02*
X4619050Y-2200940D01*
X4619050Y-2045940D02*
X4464050Y-2200940D01*
D11*
X4464050Y-1590940D02*
X4464050Y-2655940D01*
X4464050Y-2655940D02*
G75*
G03*
X4619050Y-2655940I77500J0D01*
G01*
X4619050Y-2655940D02*
X4619050Y-1590940D01*
X4619050Y-1590940D02*
G75*
G03*
X4464050Y-1590940I-77500J0D01*
G01*
X1495689Y-4930164D02*
X1495689Y-4730164D01*
X1495689Y-4730164D02*
X1543308Y-4730164D01*
X1543308Y-4730164D02*
X1571880Y-4739688D01*
X1571880Y-4739688D02*
X1590927Y-4758735D01*
X1590927Y-4758735D02*
X1600451Y-4777783D01*
X1600451Y-4777783D02*
X1609975Y-4815878D01*
X1609975Y-4815878D02*
X1609975Y-4844450D01*
X1609975Y-4844450D02*
X1600451Y-4882545D01*
X1600451Y-4882545D02*
X1590927Y-4901592D01*
X1590927Y-4901592D02*
X1571880Y-4920640D01*
X1571880Y-4920640D02*
X1543308Y-4930164D01*
X1543308Y-4930164D02*
X1495689Y-4930164D01*
X1695689Y-4930164D02*
X1695689Y-4796830D01*
X1695689Y-4834926D02*
X1705213Y-4815878D01*
X1705213Y-4815878D02*
X1714737Y-4806354D01*
X1714737Y-4806354D02*
X1733784Y-4796830D01*
X1733784Y-4796830D02*
X1752832Y-4796830D01*
X1819499Y-4930164D02*
X1819499Y-4796830D01*
X1819499Y-4730164D02*
X1809975Y-4739688D01*
X1809975Y-4739688D02*
X1819499Y-4749211D01*
X1819499Y-4749211D02*
X1829022Y-4739688D01*
X1829022Y-4739688D02*
X1819499Y-4730164D01*
X1819499Y-4730164D02*
X1819499Y-4749211D01*
X1943308Y-4930164D02*
X1924261Y-4920640D01*
X1924261Y-4920640D02*
X1914737Y-4901592D01*
X1914737Y-4901592D02*
X1914737Y-4730164D01*
X2048070Y-4930164D02*
X2029022Y-4920640D01*
X2029022Y-4920640D02*
X2019499Y-4901592D01*
X2019499Y-4901592D02*
X2019499Y-4730164D01*
X2276642Y-4930164D02*
X2276642Y-4730164D01*
X2276642Y-4730164D02*
X2343308Y-4873021D01*
X2343308Y-4873021D02*
X2409975Y-4730164D01*
X2409975Y-4730164D02*
X2409975Y-4930164D01*
X2590927Y-4930164D02*
X2590927Y-4825402D01*
X2590927Y-4825402D02*
X2581404Y-4806354D01*
X2581404Y-4806354D02*
X2562356Y-4796830D01*
X2562356Y-4796830D02*
X2524261Y-4796830D01*
X2524261Y-4796830D02*
X2505213Y-4806354D01*
X2590927Y-4920640D02*
X2571880Y-4930164D01*
X2571880Y-4930164D02*
X2524261Y-4930164D01*
X2524261Y-4930164D02*
X2505213Y-4920640D01*
X2505213Y-4920640D02*
X2495689Y-4901592D01*
X2495689Y-4901592D02*
X2495689Y-4882545D01*
X2495689Y-4882545D02*
X2505213Y-4863497D01*
X2505213Y-4863497D02*
X2524261Y-4853973D01*
X2524261Y-4853973D02*
X2571880Y-4853973D01*
X2571880Y-4853973D02*
X2590927Y-4844450D01*
X2686165Y-4796830D02*
X2686165Y-4996830D01*
X2686165Y-4806354D02*
X2705213Y-4796830D01*
X2705213Y-4796830D02*
X2743308Y-4796830D01*
X2743308Y-4796830D02*
X2762356Y-4806354D01*
X2762356Y-4806354D02*
X2771880Y-4815878D01*
X2771880Y-4815878D02*
X2781404Y-4834926D01*
X2781404Y-4834926D02*
X2781404Y-4892069D01*
X2781404Y-4892069D02*
X2771880Y-4911116D01*
X2771880Y-4911116D02*
X2762356Y-4920640D01*
X2762356Y-4920640D02*
X2743308Y-4930164D01*
X2743308Y-4930164D02*
X2705213Y-4930164D01*
X2705213Y-4930164D02*
X2686165Y-4920640D01*
X2867118Y-4911116D02*
X2876642Y-4920640D01*
X2876642Y-4920640D02*
X2867118Y-4930164D01*
X2867118Y-4930164D02*
X2857594Y-4920640D01*
X2857594Y-4920640D02*
X2867118Y-4911116D01*
X2867118Y-4911116D02*
X2867118Y-4930164D01*
X2867118Y-4806354D02*
X2876642Y-4815878D01*
X2876642Y-4815878D02*
X2867118Y-4825402D01*
X2867118Y-4825402D02*
X2857594Y-4815878D01*
X2857594Y-4815878D02*
X2867118Y-4806354D01*
X2867118Y-4806354D02*
X2867118Y-4825402D01*
D12*
X1093070Y-5180140D02*
X1248070Y-5335140D01*
X1248070Y-5180140D02*
X1093070Y-5335140D01*
D11*
X1600451Y-5350164D02*
X1486165Y-5350164D01*
X1543308Y-5350164D02*
X1543308Y-5150164D01*
X1543308Y-5150164D02*
X1524261Y-5178735D01*
X1524261Y-5178735D02*
X1505213Y-5197783D01*
X1505213Y-5197783D02*
X1486165Y-5207307D01*
X1686165Y-5331116D02*
X1695689Y-5340640D01*
X1695689Y-5340640D02*
X1686165Y-5350164D01*
X1686165Y-5350164D02*
X1676642Y-5340640D01*
X1676642Y-5340640D02*
X1686165Y-5331116D01*
X1686165Y-5331116D02*
X1686165Y-5350164D01*
X1876642Y-5150164D02*
X1781403Y-5150164D01*
X1781403Y-5150164D02*
X1771880Y-5245402D01*
X1771880Y-5245402D02*
X1781403Y-5235878D01*
X1781403Y-5235878D02*
X1800451Y-5226354D01*
X1800451Y-5226354D02*
X1848070Y-5226354D01*
X1848070Y-5226354D02*
X1867118Y-5235878D01*
X1867118Y-5235878D02*
X1876642Y-5245402D01*
X1876642Y-5245402D02*
X1886165Y-5264450D01*
X1886165Y-5264450D02*
X1886165Y-5312069D01*
X1886165Y-5312069D02*
X1876642Y-5331116D01*
X1876642Y-5331116D02*
X1867118Y-5340640D01*
X1867118Y-5340640D02*
X1848070Y-5350164D01*
X1848070Y-5350164D02*
X1800451Y-5350164D01*
X1800451Y-5350164D02*
X1781403Y-5340640D01*
X1781403Y-5340640D02*
X1771880Y-5331116D01*
X2067118Y-5150164D02*
X1971880Y-5150164D01*
X1971880Y-5150164D02*
X1962356Y-5245402D01*
X1962356Y-5245402D02*
X1971880Y-5235878D01*
X1971880Y-5235878D02*
X1990927Y-5226354D01*
X1990927Y-5226354D02*
X2038546Y-5226354D01*
X2038546Y-5226354D02*
X2057594Y-5235878D01*
X2057594Y-5235878D02*
X2067118Y-5245402D01*
X2067118Y-5245402D02*
X2076642Y-5264450D01*
X2076642Y-5264450D02*
X2076642Y-5312069D01*
X2076642Y-5312069D02*
X2067118Y-5331116D01*
X2067118Y-5331116D02*
X2057594Y-5340640D01*
X2057594Y-5340640D02*
X2038546Y-5350164D01*
X2038546Y-5350164D02*
X1990927Y-5350164D01*
X1990927Y-5350164D02*
X1971880Y-5340640D01*
X1971880Y-5340640D02*
X1962356Y-5331116D01*
X2200451Y-5150164D02*
X2219499Y-5150164D01*
X2219499Y-5150164D02*
X2238546Y-5159688D01*
X2238546Y-5159688D02*
X2248070Y-5169211D01*
X2248070Y-5169211D02*
X2257594Y-5188259D01*
X2257594Y-5188259D02*
X2267118Y-5226354D01*
X2267118Y-5226354D02*
X2267118Y-5273973D01*
X2267118Y-5273973D02*
X2257594Y-5312069D01*
X2257594Y-5312069D02*
X2248070Y-5331116D01*
X2248070Y-5331116D02*
X2238546Y-5340640D01*
X2238546Y-5340640D02*
X2219499Y-5350164D01*
X2219499Y-5350164D02*
X2200451Y-5350164D01*
X2200451Y-5350164D02*
X2181404Y-5340640D01*
X2181404Y-5340640D02*
X2171880Y-5331116D01*
X2171880Y-5331116D02*
X2162356Y-5312069D01*
X2162356Y-5312069D02*
X2152832Y-5273973D01*
X2152832Y-5273973D02*
X2152832Y-5226354D01*
X2152832Y-5226354D02*
X2162356Y-5188259D01*
X2162356Y-5188259D02*
X2171880Y-5169211D01*
X2171880Y-5169211D02*
X2181404Y-5159688D01*
X2181404Y-5159688D02*
X2200451Y-5150164D01*
X2352832Y-5350164D02*
X2352832Y-5216830D01*
X2352832Y-5235878D02*
X2362356Y-5226354D01*
X2362356Y-5226354D02*
X2381404Y-5216830D01*
X2381404Y-5216830D02*
X2409975Y-5216830D01*
X2409975Y-5216830D02*
X2429023Y-5226354D01*
X2429023Y-5226354D02*
X2438546Y-5245402D01*
X2438546Y-5245402D02*
X2438546Y-5350164D01*
X2438546Y-5245402D02*
X2448070Y-5226354D01*
X2448070Y-5226354D02*
X2467118Y-5216830D01*
X2467118Y-5216830D02*
X2495689Y-5216830D01*
X2495689Y-5216830D02*
X2514737Y-5226354D01*
X2514737Y-5226354D02*
X2524261Y-5245402D01*
X2524261Y-5245402D02*
X2524261Y-5350164D01*
X2619499Y-5350164D02*
X2619499Y-5216830D01*
X2619499Y-5235878D02*
X2629023Y-5226354D01*
X2629023Y-5226354D02*
X2648070Y-5216830D01*
X2648070Y-5216830D02*
X2676642Y-5216830D01*
X2676642Y-5216830D02*
X2695689Y-5226354D01*
X2695689Y-5226354D02*
X2705213Y-5245402D01*
X2705213Y-5245402D02*
X2705213Y-5350164D01*
X2705213Y-5245402D02*
X2714737Y-5226354D01*
X2714737Y-5226354D02*
X2733785Y-5216830D01*
X2733785Y-5216830D02*
X2762356Y-5216830D01*
X2762356Y-5216830D02*
X2781404Y-5226354D01*
X2781404Y-5226354D02*
X2790927Y-5245402D01*
X2790927Y-5245402D02*
X2790927Y-5350164D01*
X3181404Y-5140640D02*
X3009975Y-5397783D01*
X3438546Y-5150164D02*
X3457594Y-5150164D01*
X3457594Y-5150164D02*
X3476642Y-5159688D01*
X3476642Y-5159688D02*
X3486166Y-5169211D01*
X3486166Y-5169211D02*
X3495689Y-5188259D01*
X3495689Y-5188259D02*
X3505213Y-5226354D01*
X3505213Y-5226354D02*
X3505213Y-5273973D01*
X3505213Y-5273973D02*
X3495689Y-5312069D01*
X3495689Y-5312069D02*
X3486166Y-5331116D01*
X3486166Y-5331116D02*
X3476642Y-5340640D01*
X3476642Y-5340640D02*
X3457594Y-5350164D01*
X3457594Y-5350164D02*
X3438546Y-5350164D01*
X3438546Y-5350164D02*
X3419499Y-5340640D01*
X3419499Y-5340640D02*
X3409975Y-5331116D01*
X3409975Y-5331116D02*
X3400451Y-5312069D01*
X3400451Y-5312069D02*
X3390927Y-5273973D01*
X3390927Y-5273973D02*
X3390927Y-5226354D01*
X3390927Y-5226354D02*
X3400451Y-5188259D01*
X3400451Y-5188259D02*
X3409975Y-5169211D01*
X3409975Y-5169211D02*
X3419499Y-5159688D01*
X3419499Y-5159688D02*
X3438546Y-5150164D01*
X3590927Y-5331116D02*
X3600451Y-5340640D01*
X3600451Y-5340640D02*
X3590927Y-5350164D01*
X3590927Y-5350164D02*
X3581404Y-5340640D01*
X3581404Y-5340640D02*
X3590927Y-5331116D01*
X3590927Y-5331116D02*
X3590927Y-5350164D01*
X3724261Y-5150164D02*
X3743308Y-5150164D01*
X3743308Y-5150164D02*
X3762356Y-5159688D01*
X3762356Y-5159688D02*
X3771880Y-5169211D01*
X3771880Y-5169211D02*
X3781404Y-5188259D01*
X3781404Y-5188259D02*
X3790927Y-5226354D01*
X3790927Y-5226354D02*
X3790927Y-5273973D01*
X3790927Y-5273973D02*
X3781404Y-5312069D01*
X3781404Y-5312069D02*
X3771880Y-5331116D01*
X3771880Y-5331116D02*
X3762356Y-5340640D01*
X3762356Y-5340640D02*
X3743308Y-5350164D01*
X3743308Y-5350164D02*
X3724261Y-5350164D01*
X3724261Y-5350164D02*
X3705213Y-5340640D01*
X3705213Y-5340640D02*
X3695689Y-5331116D01*
X3695689Y-5331116D02*
X3686166Y-5312069D01*
X3686166Y-5312069D02*
X3676642Y-5273973D01*
X3676642Y-5273973D02*
X3676642Y-5226354D01*
X3676642Y-5226354D02*
X3686166Y-5188259D01*
X3686166Y-5188259D02*
X3695689Y-5169211D01*
X3695689Y-5169211D02*
X3705213Y-5159688D01*
X3705213Y-5159688D02*
X3724261Y-5150164D01*
X3962356Y-5150164D02*
X3924261Y-5150164D01*
X3924261Y-5150164D02*
X3905213Y-5159688D01*
X3905213Y-5159688D02*
X3895689Y-5169211D01*
X3895689Y-5169211D02*
X3876642Y-5197783D01*
X3876642Y-5197783D02*
X3867118Y-5235878D01*
X3867118Y-5235878D02*
X3867118Y-5312069D01*
X3867118Y-5312069D02*
X3876642Y-5331116D01*
X3876642Y-5331116D02*
X3886166Y-5340640D01*
X3886166Y-5340640D02*
X3905213Y-5350164D01*
X3905213Y-5350164D02*
X3943308Y-5350164D01*
X3943308Y-5350164D02*
X3962356Y-5340640D01*
X3962356Y-5340640D02*
X3971880Y-5331116D01*
X3971880Y-5331116D02*
X3981404Y-5312069D01*
X3981404Y-5312069D02*
X3981404Y-5264450D01*
X3981404Y-5264450D02*
X3971880Y-5245402D01*
X3971880Y-5245402D02*
X3962356Y-5235878D01*
X3962356Y-5235878D02*
X3943308Y-5226354D01*
X3943308Y-5226354D02*
X3905213Y-5226354D01*
X3905213Y-5226354D02*
X3886166Y-5235878D01*
X3886166Y-5235878D02*
X3876642Y-5245402D01*
X3876642Y-5245402D02*
X3867118Y-5264450D01*
X4171880Y-5350164D02*
X4057594Y-5350164D01*
X4114737Y-5350164D02*
X4114737Y-5150164D01*
X4114737Y-5150164D02*
X4095689Y-5178735D01*
X4095689Y-5178735D02*
X4076642Y-5197783D01*
X4076642Y-5197783D02*
X4057594Y-5207307D01*
X4295689Y-5150164D02*
X4314737Y-5150164D01*
X4314737Y-5150164D02*
X4333785Y-5159688D01*
X4333785Y-5159688D02*
X4343309Y-5169211D01*
X4343309Y-5169211D02*
X4352832Y-5188259D01*
X4352832Y-5188259D02*
X4362356Y-5226354D01*
X4362356Y-5226354D02*
X4362356Y-5273973D01*
X4362356Y-5273973D02*
X4352832Y-5312069D01*
X4352832Y-5312069D02*
X4343309Y-5331116D01*
X4343309Y-5331116D02*
X4333785Y-5340640D01*
X4333785Y-5340640D02*
X4314737Y-5350164D01*
X4314737Y-5350164D02*
X4295689Y-5350164D01*
X4295689Y-5350164D02*
X4276642Y-5340640D01*
X4276642Y-5340640D02*
X4267118Y-5331116D01*
X4267118Y-5331116D02*
X4257594Y-5312069D01*
X4257594Y-5312069D02*
X4248070Y-5273973D01*
X4248070Y-5273973D02*
X4248070Y-5226354D01*
X4248070Y-5226354D02*
X4257594Y-5188259D01*
X4257594Y-5188259D02*
X4267118Y-5169211D01*
X4267118Y-5169211D02*
X4276642Y-5159688D01*
X4276642Y-5159688D02*
X4295689Y-5150164D01*
X4438547Y-5150164D02*
X4438547Y-5188259D01*
X4514737Y-5150164D02*
X4514737Y-5188259D01*
X4809975Y-5426354D02*
X4800451Y-5416830D01*
X4800451Y-5416830D02*
X4781404Y-5388259D01*
X4781404Y-5388259D02*
X4771880Y-5369211D01*
X4771880Y-5369211D02*
X4762356Y-5340640D01*
X4762356Y-5340640D02*
X4752832Y-5293021D01*
X4752832Y-5293021D02*
X4752832Y-5254926D01*
X4752832Y-5254926D02*
X4762356Y-5207307D01*
X4762356Y-5207307D02*
X4771880Y-5178735D01*
X4771880Y-5178735D02*
X4781404Y-5159688D01*
X4781404Y-5159688D02*
X4800451Y-5131116D01*
X4800451Y-5131116D02*
X4809975Y-5121592D01*
X4924261Y-5150164D02*
X4943309Y-5150164D01*
X4943309Y-5150164D02*
X4962356Y-5159688D01*
X4962356Y-5159688D02*
X4971880Y-5169211D01*
X4971880Y-5169211D02*
X4981404Y-5188259D01*
X4981404Y-5188259D02*
X4990928Y-5226354D01*
X4990928Y-5226354D02*
X4990928Y-5273973D01*
X4990928Y-5273973D02*
X4981404Y-5312069D01*
X4981404Y-5312069D02*
X4971880Y-5331116D01*
X4971880Y-5331116D02*
X4962356Y-5340640D01*
X4962356Y-5340640D02*
X4943309Y-5350164D01*
X4943309Y-5350164D02*
X4924261Y-5350164D01*
X4924261Y-5350164D02*
X4905213Y-5340640D01*
X4905213Y-5340640D02*
X4895690Y-5331116D01*
X4895690Y-5331116D02*
X4886166Y-5312069D01*
X4886166Y-5312069D02*
X4876642Y-5273973D01*
X4876642Y-5273973D02*
X4876642Y-5226354D01*
X4876642Y-5226354D02*
X4886166Y-5188259D01*
X4886166Y-5188259D02*
X4895690Y-5169211D01*
X4895690Y-5169211D02*
X4905213Y-5159688D01*
X4905213Y-5159688D02*
X4924261Y-5150164D01*
X5229023Y-5350164D02*
X5229023Y-5150164D01*
X5314737Y-5350164D02*
X5314737Y-5245402D01*
X5314737Y-5245402D02*
X5305213Y-5226354D01*
X5305213Y-5226354D02*
X5286166Y-5216830D01*
X5286166Y-5216830D02*
X5257594Y-5216830D01*
X5257594Y-5216830D02*
X5238547Y-5226354D01*
X5238547Y-5226354D02*
X5229023Y-5235878D01*
X5438547Y-5350164D02*
X5419499Y-5340640D01*
X5419499Y-5340640D02*
X5409975Y-5331116D01*
X5409975Y-5331116D02*
X5400452Y-5312069D01*
X5400452Y-5312069D02*
X5400452Y-5254926D01*
X5400452Y-5254926D02*
X5409975Y-5235878D01*
X5409975Y-5235878D02*
X5419499Y-5226354D01*
X5419499Y-5226354D02*
X5438547Y-5216830D01*
X5438547Y-5216830D02*
X5467118Y-5216830D01*
X5467118Y-5216830D02*
X5486166Y-5226354D01*
X5486166Y-5226354D02*
X5495690Y-5235878D01*
X5495690Y-5235878D02*
X5505213Y-5254926D01*
X5505213Y-5254926D02*
X5505213Y-5312069D01*
X5505213Y-5312069D02*
X5495690Y-5331116D01*
X5495690Y-5331116D02*
X5486166Y-5340640D01*
X5486166Y-5340640D02*
X5467118Y-5350164D01*
X5467118Y-5350164D02*
X5438547Y-5350164D01*
X5619499Y-5350164D02*
X5600451Y-5340640D01*
X5600451Y-5340640D02*
X5590928Y-5321592D01*
X5590928Y-5321592D02*
X5590928Y-5150164D01*
X5771880Y-5340640D02*
X5752832Y-5350164D01*
X5752832Y-5350164D02*
X5714737Y-5350164D01*
X5714737Y-5350164D02*
X5695690Y-5340640D01*
X5695690Y-5340640D02*
X5686166Y-5321592D01*
X5686166Y-5321592D02*
X5686166Y-5245402D01*
X5686166Y-5245402D02*
X5695690Y-5226354D01*
X5695690Y-5226354D02*
X5714737Y-5216830D01*
X5714737Y-5216830D02*
X5752832Y-5216830D01*
X5752832Y-5216830D02*
X5771880Y-5226354D01*
X5771880Y-5226354D02*
X5781404Y-5245402D01*
X5781404Y-5245402D02*
X5781404Y-5264450D01*
X5781404Y-5264450D02*
X5686166Y-5283497D01*
X5857594Y-5340640D02*
X5876642Y-5350164D01*
X5876642Y-5350164D02*
X5914737Y-5350164D01*
X5914737Y-5350164D02*
X5933785Y-5340640D01*
X5933785Y-5340640D02*
X5943309Y-5321592D01*
X5943309Y-5321592D02*
X5943309Y-5312069D01*
X5943309Y-5312069D02*
X5933785Y-5293021D01*
X5933785Y-5293021D02*
X5914737Y-5283497D01*
X5914737Y-5283497D02*
X5886166Y-5283497D01*
X5886166Y-5283497D02*
X5867118Y-5273973D01*
X5867118Y-5273973D02*
X5857594Y-5254926D01*
X5857594Y-5254926D02*
X5857594Y-5245402D01*
X5857594Y-5245402D02*
X5867118Y-5226354D01*
X5867118Y-5226354D02*
X5886166Y-5216830D01*
X5886166Y-5216830D02*
X5914737Y-5216830D01*
X5914737Y-5216830D02*
X5933785Y-5226354D01*
X6181404Y-5273973D02*
X6333785Y-5273973D01*
X6257594Y-5350164D02*
X6257594Y-5197783D01*
X6571880Y-5169211D02*
X6581404Y-5159688D01*
X6581404Y-5159688D02*
X6600452Y-5150164D01*
X6600452Y-5150164D02*
X6648071Y-5150164D01*
X6648071Y-5150164D02*
X6667118Y-5159688D01*
X6667118Y-5159688D02*
X6676642Y-5169211D01*
X6676642Y-5169211D02*
X6686166Y-5188259D01*
X6686166Y-5188259D02*
X6686166Y-5207307D01*
X6686166Y-5207307D02*
X6676642Y-5235878D01*
X6676642Y-5235878D02*
X6562356Y-5350164D01*
X6562356Y-5350164D02*
X6686166Y-5350164D01*
X6914737Y-5340640D02*
X6933785Y-5350164D01*
X6933785Y-5350164D02*
X6971880Y-5350164D01*
X6971880Y-5350164D02*
X6990928Y-5340640D01*
X6990928Y-5340640D02*
X7000452Y-5321592D01*
X7000452Y-5321592D02*
X7000452Y-5312069D01*
X7000452Y-5312069D02*
X6990928Y-5293021D01*
X6990928Y-5293021D02*
X6971880Y-5283497D01*
X6971880Y-5283497D02*
X6943309Y-5283497D01*
X6943309Y-5283497D02*
X6924261Y-5273973D01*
X6924261Y-5273973D02*
X6914737Y-5254926D01*
X6914737Y-5254926D02*
X6914737Y-5245402D01*
X6914737Y-5245402D02*
X6924261Y-5226354D01*
X6924261Y-5226354D02*
X6943309Y-5216830D01*
X6943309Y-5216830D02*
X6971880Y-5216830D01*
X6971880Y-5216830D02*
X6990928Y-5226354D01*
X7114737Y-5350164D02*
X7095690Y-5340640D01*
X7095690Y-5340640D02*
X7086166Y-5321592D01*
X7086166Y-5321592D02*
X7086166Y-5150164D01*
X7219499Y-5350164D02*
X7200452Y-5340640D01*
X7200452Y-5340640D02*
X7190928Y-5331116D01*
X7190928Y-5331116D02*
X7181404Y-5312069D01*
X7181404Y-5312069D02*
X7181404Y-5254926D01*
X7181404Y-5254926D02*
X7190928Y-5235878D01*
X7190928Y-5235878D02*
X7200452Y-5226354D01*
X7200452Y-5226354D02*
X7219499Y-5216830D01*
X7219499Y-5216830D02*
X7248071Y-5216830D01*
X7248071Y-5216830D02*
X7267118Y-5226354D01*
X7267118Y-5226354D02*
X7276642Y-5235878D01*
X7276642Y-5235878D02*
X7286166Y-5254926D01*
X7286166Y-5254926D02*
X7286166Y-5312069D01*
X7286166Y-5312069D02*
X7276642Y-5331116D01*
X7276642Y-5331116D02*
X7267118Y-5340640D01*
X7267118Y-5340640D02*
X7248071Y-5350164D01*
X7248071Y-5350164D02*
X7219499Y-5350164D01*
X7343309Y-5216830D02*
X7419499Y-5216830D01*
X7371880Y-5150164D02*
X7371880Y-5321592D01*
X7371880Y-5321592D02*
X7381404Y-5340640D01*
X7381404Y-5340640D02*
X7400452Y-5350164D01*
X7400452Y-5350164D02*
X7419499Y-5350164D01*
X7476642Y-5340640D02*
X7495690Y-5350164D01*
X7495690Y-5350164D02*
X7533785Y-5350164D01*
X7533785Y-5350164D02*
X7552833Y-5340640D01*
X7552833Y-5340640D02*
X7562356Y-5321592D01*
X7562356Y-5321592D02*
X7562356Y-5312069D01*
X7562356Y-5312069D02*
X7552833Y-5293021D01*
X7552833Y-5293021D02*
X7533785Y-5283497D01*
X7533785Y-5283497D02*
X7505214Y-5283497D01*
X7505214Y-5283497D02*
X7486166Y-5273973D01*
X7486166Y-5273973D02*
X7476642Y-5254926D01*
X7476642Y-5254926D02*
X7476642Y-5245402D01*
X7476642Y-5245402D02*
X7486166Y-5226354D01*
X7486166Y-5226354D02*
X7505214Y-5216830D01*
X7505214Y-5216830D02*
X7533785Y-5216830D01*
X7533785Y-5216830D02*
X7552833Y-5226354D01*
X7629023Y-5426354D02*
X7638547Y-5416830D01*
X7638547Y-5416830D02*
X7657595Y-5388259D01*
X7657595Y-5388259D02*
X7667118Y-5369211D01*
X7667118Y-5369211D02*
X7676642Y-5340640D01*
X7676642Y-5340640D02*
X7686166Y-5293021D01*
X7686166Y-5293021D02*
X7686166Y-5254926D01*
X7686166Y-5254926D02*
X7676642Y-5207307D01*
X7676642Y-5207307D02*
X7667118Y-5178735D01*
X7667118Y-5178735D02*
X7657595Y-5159688D01*
X7657595Y-5159688D02*
X7638547Y-5131116D01*
X7638547Y-5131116D02*
X7629023Y-5121592D01*
M02*
