G04 #@! TF.GenerationSoftware,KiCad,Pcbnew,7.0.1*
G04 #@! TF.CreationDate,2023-11-01T02:09:25-07:00*
G04 #@! TF.ProjectId,KENESP32LTC370TEST,4b454e45-5350-4333-924c-544333373054,rev?*
G04 #@! TF.SameCoordinates,Original*
G04 #@! TF.FileFunction,Paste,Top*
G04 #@! TF.FilePolarity,Positive*
%FSLAX46Y46*%
G04 Gerber Fmt 4.6, Leading zero omitted, Abs format (unit mm)*
G04 Created by KiCad (PCBNEW 7.0.1) date 2023-11-01 02:09:25*
%MOMM*%
%LPD*%
G01*
G04 APERTURE LIST*
G04 Aperture macros list*
%AMRoundRect*
0 Rectangle with rounded corners*
0 $1 Rounding radius*
0 $2 $3 $4 $5 $6 $7 $8 $9 X,Y pos of 4 corners*
0 Add a 4 corners polygon primitive as box body*
4,1,4,$2,$3,$4,$5,$6,$7,$8,$9,$2,$3,0*
0 Add four circle primitives for the rounded corners*
1,1,$1+$1,$2,$3*
1,1,$1+$1,$4,$5*
1,1,$1+$1,$6,$7*
1,1,$1+$1,$8,$9*
0 Add four rect primitives between the rounded corners*
20,1,$1+$1,$2,$3,$4,$5,0*
20,1,$1+$1,$4,$5,$6,$7,0*
20,1,$1+$1,$6,$7,$8,$9,0*
20,1,$1+$1,$8,$9,$2,$3,0*%
G04 Aperture macros list end*
%ADD10RoundRect,0.250000X-0.650000X0.412500X-0.650000X-0.412500X0.650000X-0.412500X0.650000X0.412500X0*%
%ADD11RoundRect,0.250000X-0.400000X-0.625000X0.400000X-0.625000X0.400000X0.625000X-0.400000X0.625000X0*%
%ADD12RoundRect,0.250000X-0.625000X0.400000X-0.625000X-0.400000X0.625000X-0.400000X0.625000X0.400000X0*%
%ADD13R,0.249200X0.804800*%
%ADD14R,0.804800X0.249200*%
%ADD15RoundRect,0.250000X0.625000X-0.400000X0.625000X0.400000X-0.625000X0.400000X-0.625000X-0.400000X0*%
%ADD16RoundRect,0.250000X0.400000X0.625000X-0.400000X0.625000X-0.400000X-0.625000X0.400000X-0.625000X0*%
%ADD17R,0.965200X0.431800*%
%ADD18R,1.143000X0.431800*%
%ADD19R,0.431800X1.143000*%
%ADD20R,0.431800X0.965200*%
%ADD21R,4.241800X4.521200*%
%ADD22R,1.625600X2.184400*%
%ADD23R,2.184400X1.625600*%
%ADD24RoundRect,0.225000X0.375000X-0.225000X0.375000X0.225000X-0.375000X0.225000X-0.375000X-0.225000X0*%
%ADD25RoundRect,0.225000X-0.225000X-0.375000X0.225000X-0.375000X0.225000X0.375000X-0.225000X0.375000X0*%
%ADD26RoundRect,0.250000X0.650000X-0.412500X0.650000X0.412500X-0.650000X0.412500X-0.650000X-0.412500X0*%
%ADD27RoundRect,0.250000X-0.412500X-0.650000X0.412500X-0.650000X0.412500X0.650000X-0.412500X0.650000X0*%
%ADD28R,2.499995X2.560396*%
%ADD29RoundRect,0.250000X0.412500X0.650000X-0.412500X0.650000X-0.412500X-0.650000X0.412500X-0.650000X0*%
G04 APERTURE END LIST*
G36*
X120775000Y-141450000D02*
G01*
X119200000Y-141450000D01*
X119200000Y-139875000D01*
X120775000Y-139875000D01*
X120775000Y-141450000D01*
G37*
G36*
X120775000Y-139675000D02*
G01*
X119200000Y-139675000D01*
X119200000Y-138100000D01*
X120775000Y-138100000D01*
X120775000Y-139675000D01*
G37*
G36*
X119000000Y-141450000D02*
G01*
X117425000Y-141450000D01*
X117425000Y-139875000D01*
X119000000Y-139875000D01*
X119000000Y-141450000D01*
G37*
G36*
X119000000Y-139675000D02*
G01*
X117425000Y-139675000D01*
X117425000Y-138100000D01*
X119000000Y-138100000D01*
X119000000Y-139675000D01*
G37*
G36*
X131764800Y-111201700D02*
G01*
X131180600Y-111201700D01*
X131180600Y-108128300D01*
X131764800Y-108128300D01*
X131764800Y-111201700D01*
G37*
G36*
X136413000Y-112497100D02*
G01*
X132603000Y-112497100D01*
X132603000Y-108102900D01*
X136413000Y-108102900D01*
X136413000Y-112497100D01*
G37*
G36*
X135805000Y-112397100D02*
G01*
X134735000Y-112397100D01*
X134735000Y-111132366D01*
X135805000Y-111132366D01*
X135805000Y-112397100D01*
G37*
G36*
X135805000Y-110932367D02*
G01*
X134735000Y-110932367D01*
X134735000Y-109667633D01*
X135805000Y-109667633D01*
X135805000Y-110932367D01*
G37*
G36*
X135805000Y-109467634D02*
G01*
X134735000Y-109467634D01*
X134735000Y-108202900D01*
X135805000Y-108202900D01*
X135805000Y-109467634D01*
G37*
G36*
X134535000Y-112397100D02*
G01*
X133465000Y-112397100D01*
X133465000Y-111132366D01*
X134535000Y-111132366D01*
X134535000Y-112397100D01*
G37*
G36*
X134535000Y-110932367D02*
G01*
X133465000Y-110932367D01*
X133465000Y-109667633D01*
X134535000Y-109667633D01*
X134535000Y-110932367D01*
G37*
G36*
X134535000Y-109467634D02*
G01*
X133465000Y-109467634D01*
X133465000Y-108202900D01*
X134535000Y-108202900D01*
X134535000Y-109467634D01*
G37*
G36*
X133265000Y-112397100D02*
G01*
X132195000Y-112397100D01*
X132195000Y-111132366D01*
X133265000Y-111132366D01*
X133265000Y-112397100D01*
G37*
G36*
X133265000Y-110932367D02*
G01*
X132195000Y-110932367D01*
X132195000Y-109667633D01*
X133265000Y-109667633D01*
X133265000Y-110932367D01*
G37*
G36*
X133265000Y-109467634D02*
G01*
X132195000Y-109467634D01*
X132195000Y-108202900D01*
X133265000Y-108202900D01*
X133265000Y-109467634D01*
G37*
G36*
X121767634Y-118705000D02*
G01*
X120502900Y-118705000D01*
X120502900Y-117635000D01*
X121767634Y-117635000D01*
X121767634Y-118705000D01*
G37*
G36*
X123232367Y-118705000D02*
G01*
X121967633Y-118705000D01*
X121967633Y-117635000D01*
X123232367Y-117635000D01*
X123232367Y-118705000D01*
G37*
G36*
X124697100Y-118705000D02*
G01*
X123432366Y-118705000D01*
X123432366Y-117635000D01*
X124697100Y-117635000D01*
X124697100Y-118705000D01*
G37*
G36*
X121767634Y-117435000D02*
G01*
X120502900Y-117435000D01*
X120502900Y-116365000D01*
X121767634Y-116365000D01*
X121767634Y-117435000D01*
G37*
G36*
X123232367Y-117435000D02*
G01*
X121967633Y-117435000D01*
X121967633Y-116365000D01*
X123232367Y-116365000D01*
X123232367Y-117435000D01*
G37*
G36*
X124697100Y-117435000D02*
G01*
X123432366Y-117435000D01*
X123432366Y-116365000D01*
X124697100Y-116365000D01*
X124697100Y-117435000D01*
G37*
G36*
X121767634Y-116165000D02*
G01*
X120502900Y-116165000D01*
X120502900Y-115095000D01*
X121767634Y-115095000D01*
X121767634Y-116165000D01*
G37*
G36*
X123232367Y-116165000D02*
G01*
X121967633Y-116165000D01*
X121967633Y-115095000D01*
X123232367Y-115095000D01*
X123232367Y-116165000D01*
G37*
G36*
X124697100Y-116165000D02*
G01*
X123432366Y-116165000D01*
X123432366Y-115095000D01*
X124697100Y-115095000D01*
X124697100Y-116165000D01*
G37*
G36*
X124797100Y-118297000D02*
G01*
X120402900Y-118297000D01*
X120402900Y-114487000D01*
X124797100Y-114487000D01*
X124797100Y-118297000D01*
G37*
G36*
X123501700Y-119719400D02*
G01*
X120428300Y-119719400D01*
X120428300Y-119135200D01*
X123501700Y-119135200D01*
X123501700Y-119719400D01*
G37*
G36*
X115601700Y-119719400D02*
G01*
X112528300Y-119719400D01*
X112528300Y-119135200D01*
X115601700Y-119135200D01*
X115601700Y-119719400D01*
G37*
G36*
X116897100Y-118297000D02*
G01*
X112502900Y-118297000D01*
X112502900Y-114487000D01*
X116897100Y-114487000D01*
X116897100Y-118297000D01*
G37*
G36*
X116797100Y-116165000D02*
G01*
X115532366Y-116165000D01*
X115532366Y-115095000D01*
X116797100Y-115095000D01*
X116797100Y-116165000D01*
G37*
G36*
X115332367Y-116165000D02*
G01*
X114067633Y-116165000D01*
X114067633Y-115095000D01*
X115332367Y-115095000D01*
X115332367Y-116165000D01*
G37*
G36*
X113867634Y-116165000D02*
G01*
X112602900Y-116165000D01*
X112602900Y-115095000D01*
X113867634Y-115095000D01*
X113867634Y-116165000D01*
G37*
G36*
X116797100Y-117435000D02*
G01*
X115532366Y-117435000D01*
X115532366Y-116365000D01*
X116797100Y-116365000D01*
X116797100Y-117435000D01*
G37*
G36*
X115332367Y-117435000D02*
G01*
X114067633Y-117435000D01*
X114067633Y-116365000D01*
X115332367Y-116365000D01*
X115332367Y-117435000D01*
G37*
G36*
X113867634Y-117435000D02*
G01*
X112602900Y-117435000D01*
X112602900Y-116365000D01*
X113867634Y-116365000D01*
X113867634Y-117435000D01*
G37*
G36*
X116797100Y-118705000D02*
G01*
X115532366Y-118705000D01*
X115532366Y-117635000D01*
X116797100Y-117635000D01*
X116797100Y-118705000D01*
G37*
G36*
X115332367Y-118705000D02*
G01*
X114067633Y-118705000D01*
X114067633Y-117635000D01*
X115332367Y-117635000D01*
X115332367Y-118705000D01*
G37*
G36*
X113867634Y-118705000D02*
G01*
X112602900Y-118705000D01*
X112602900Y-117635000D01*
X113867634Y-117635000D01*
X113867634Y-118705000D01*
G37*
G36*
X104405000Y-112697100D02*
G01*
X103335000Y-112697100D01*
X103335000Y-111432366D01*
X104405000Y-111432366D01*
X104405000Y-112697100D01*
G37*
G36*
X104405000Y-111232367D02*
G01*
X103335000Y-111232367D01*
X103335000Y-109967633D01*
X104405000Y-109967633D01*
X104405000Y-111232367D01*
G37*
G36*
X104405000Y-109767634D02*
G01*
X103335000Y-109767634D01*
X103335000Y-108502900D01*
X104405000Y-108502900D01*
X104405000Y-109767634D01*
G37*
G36*
X103135000Y-112697100D02*
G01*
X102065000Y-112697100D01*
X102065000Y-111432366D01*
X103135000Y-111432366D01*
X103135000Y-112697100D01*
G37*
G36*
X103135000Y-111232367D02*
G01*
X102065000Y-111232367D01*
X102065000Y-109967633D01*
X103135000Y-109967633D01*
X103135000Y-111232367D01*
G37*
G36*
X103135000Y-109767634D02*
G01*
X102065000Y-109767634D01*
X102065000Y-108502900D01*
X103135000Y-108502900D01*
X103135000Y-109767634D01*
G37*
G36*
X101865000Y-112697100D02*
G01*
X100795000Y-112697100D01*
X100795000Y-111432366D01*
X101865000Y-111432366D01*
X101865000Y-112697100D01*
G37*
G36*
X101865000Y-111232367D02*
G01*
X100795000Y-111232367D01*
X100795000Y-109967633D01*
X101865000Y-109967633D01*
X101865000Y-111232367D01*
G37*
G36*
X101865000Y-109767634D02*
G01*
X100795000Y-109767634D01*
X100795000Y-108502900D01*
X101865000Y-108502900D01*
X101865000Y-109767634D01*
G37*
G36*
X103997000Y-112797100D02*
G01*
X100187000Y-112797100D01*
X100187000Y-108402900D01*
X103997000Y-108402900D01*
X103997000Y-112797100D01*
G37*
G36*
X105419400Y-112771700D02*
G01*
X104835200Y-112771700D01*
X104835200Y-109698300D01*
X105419400Y-109698300D01*
X105419400Y-112771700D01*
G37*
D10*
X121400000Y-131600000D03*
X121400000Y-134725000D03*
D11*
X120750000Y-149637500D03*
X123850000Y-149637500D03*
D12*
X118700000Y-122800000D03*
X118700000Y-125900000D03*
D13*
X117350001Y-137322600D03*
X117850000Y-137322600D03*
X118349999Y-137322600D03*
X118850000Y-137322600D03*
X119350000Y-137322600D03*
X119850001Y-137322600D03*
X120350000Y-137322600D03*
X120849999Y-137322600D03*
D14*
X121552400Y-138025001D03*
X121552400Y-138525000D03*
X121552400Y-139024999D03*
X121552400Y-139525000D03*
X121552400Y-140025000D03*
X121552400Y-140525001D03*
X121552400Y-141025000D03*
X121552400Y-141524999D03*
D13*
X120849999Y-142227400D03*
X120350000Y-142227400D03*
X119850001Y-142227400D03*
X119350000Y-142227400D03*
X118850000Y-142227400D03*
X118349999Y-142227400D03*
X117850000Y-142227400D03*
X117350001Y-142227400D03*
D14*
X116647600Y-141524999D03*
X116647600Y-141025000D03*
X116647600Y-140525001D03*
X116647600Y-140025000D03*
X116647600Y-139525000D03*
X116647600Y-139024999D03*
X116647600Y-138525000D03*
X116647600Y-138025001D03*
D11*
X118650000Y-149637500D03*
X115550000Y-149637500D03*
D15*
X129250000Y-140637500D03*
X129250000Y-143737500D03*
X131725300Y-146937500D03*
X131725300Y-143837500D03*
X131750000Y-141837500D03*
X131750000Y-138737500D03*
X105550000Y-147337500D03*
X105550000Y-144237500D03*
D12*
X105650000Y-136637500D03*
X105650000Y-139737500D03*
D15*
X103250000Y-139737500D03*
X103250000Y-136637500D03*
D16*
X111650000Y-134337500D03*
X108550000Y-134337500D03*
X111500000Y-139575000D03*
X108400000Y-139575000D03*
X111550000Y-136875000D03*
X108450000Y-136875000D03*
D15*
X103250000Y-141737500D03*
X103250000Y-144837500D03*
D12*
X129150000Y-146737500D03*
X129150000Y-149837500D03*
D11*
X110900000Y-149537500D03*
X107800000Y-149537500D03*
D17*
X136895600Y-108395000D03*
X136895600Y-110935000D03*
D18*
X131193300Y-110935000D03*
D17*
X136895600Y-109665000D03*
X136895600Y-112205000D03*
D18*
X131193300Y-112205000D03*
X131193300Y-109665000D03*
X131193300Y-108395000D03*
D19*
X120695000Y-119706700D03*
X121965000Y-119706700D03*
X124505000Y-119706700D03*
D20*
X124505000Y-114004400D03*
X121965000Y-114004400D03*
D19*
X123235000Y-119706700D03*
D20*
X123235000Y-114004400D03*
X120695000Y-114004400D03*
X112795000Y-114004400D03*
X115335000Y-114004400D03*
D19*
X115335000Y-119706700D03*
D20*
X114065000Y-114004400D03*
X116605000Y-114004400D03*
D19*
X116605000Y-119706700D03*
X114065000Y-119706700D03*
X112795000Y-119706700D03*
D18*
X105406700Y-112505000D03*
X105406700Y-111235000D03*
X105406700Y-108695000D03*
D17*
X99704400Y-108695000D03*
X99704400Y-111235000D03*
D18*
X105406700Y-109965000D03*
D17*
X99704400Y-109965000D03*
X99704400Y-112505000D03*
D21*
X113625001Y-109241500D03*
X123774999Y-109241500D03*
D22*
X128450000Y-137791700D03*
X128450000Y-134083300D03*
X108400000Y-116745800D03*
X108400000Y-120454200D03*
D23*
X130191600Y-115700000D03*
X133900000Y-115700000D03*
D22*
X124550000Y-134037500D03*
X124550000Y-137745900D03*
D24*
X110550000Y-144187500D03*
X110550000Y-147487500D03*
D25*
X108750000Y-142037500D03*
X105450000Y-142037500D03*
D10*
X113250000Y-147462500D03*
X113250000Y-144337500D03*
D26*
X118350000Y-144237500D03*
X118350000Y-147362500D03*
X121350000Y-147362500D03*
X121350000Y-144237500D03*
D27*
X114150000Y-142137500D03*
X111025000Y-142137500D03*
D26*
X115850000Y-144337500D03*
X115850000Y-147462500D03*
D28*
X125350000Y-146481888D03*
X125350000Y-141137500D03*
D26*
X118900000Y-131637500D03*
X118900000Y-134762500D03*
X108050000Y-144275000D03*
X108050000Y-147400000D03*
D10*
X114000000Y-134400000D03*
X114000000Y-131275000D03*
D29*
X108511000Y-131982800D03*
X111636000Y-131982800D03*
D26*
X113900000Y-136712500D03*
X113900000Y-139837500D03*
D10*
X116400000Y-134800000D03*
X116400000Y-131675000D03*
D26*
X139800000Y-126162500D03*
X139800000Y-123037500D03*
X137150000Y-126162500D03*
X137150000Y-123037500D03*
X134500000Y-126125000D03*
X134500000Y-123000000D03*
X97500000Y-125862500D03*
X97500000Y-122737500D03*
X102400000Y-125862500D03*
X102400000Y-122737500D03*
X99950000Y-125862500D03*
X99950000Y-122737500D03*
M02*
