G04 #@! TF.GenerationSoftware,KiCad,Pcbnew,7.0.1*
G04 #@! TF.CreationDate,2023-11-01T02:09:25-07:00*
G04 #@! TF.ProjectId,KENESP32LTC370TEST,4b454e45-5350-4333-924c-544333373054,rev?*
G04 #@! TF.SameCoordinates,Original*
G04 #@! TF.FileFunction,Legend,Top*
G04 #@! TF.FilePolarity,Positive*
%FSLAX46Y46*%
G04 Gerber Fmt 4.6, Leading zero omitted, Abs format (unit mm)*
G04 Created by KiCad (PCBNEW 7.0.1) date 2023-11-01 02:09:25*
%MOMM*%
%LPD*%
G01*
G04 APERTURE LIST*
G04 Aperture macros list*
%AMRoundRect*
0 Rectangle with rounded corners*
0 $1 Rounding radius*
0 $2 $3 $4 $5 $6 $7 $8 $9 X,Y pos of 4 corners*
0 Add a 4 corners polygon primitive as box body*
4,1,4,$2,$3,$4,$5,$6,$7,$8,$9,$2,$3,0*
0 Add four circle primitives for the rounded corners*
1,1,$1+$1,$2,$3*
1,1,$1+$1,$4,$5*
1,1,$1+$1,$6,$7*
1,1,$1+$1,$8,$9*
0 Add four rect primitives between the rounded corners*
20,1,$1+$1,$2,$3,$4,$5,0*
20,1,$1+$1,$4,$5,$6,$7,0*
20,1,$1+$1,$6,$7,$8,$9,0*
20,1,$1+$1,$8,$9,$2,$3,0*%
G04 Aperture macros list end*
%ADD10C,0.300000*%
%ADD11C,0.150000*%
%ADD12C,0.120000*%
%ADD13C,0.152400*%
%ADD14C,4.000000*%
%ADD15R,3.800000X3.800000*%
%ADD16C,3.800000*%
%ADD17RoundRect,0.250000X-0.650000X0.412500X-0.650000X-0.412500X0.650000X-0.412500X0.650000X0.412500X0*%
%ADD18RoundRect,0.250000X-0.400000X-0.625000X0.400000X-0.625000X0.400000X0.625000X-0.400000X0.625000X0*%
%ADD19RoundRect,0.250000X-0.625000X0.400000X-0.625000X-0.400000X0.625000X-0.400000X0.625000X0.400000X0*%
%ADD20R,3.550000X3.550000*%
%ADD21R,0.249200X0.804800*%
%ADD22R,0.804800X0.249200*%
%ADD23RoundRect,0.250000X0.625000X-0.400000X0.625000X0.400000X-0.625000X0.400000X-0.625000X-0.400000X0*%
%ADD24RoundRect,0.250000X0.400000X0.625000X-0.400000X0.625000X-0.400000X-0.625000X0.400000X-0.625000X0*%
%ADD25R,0.965200X0.431800*%
%ADD26R,1.143000X0.431800*%
%ADD27R,0.431800X1.143000*%
%ADD28R,0.431800X0.965200*%
%ADD29R,4.241800X4.521200*%
%ADD30O,1.700000X1.700000*%
%ADD31R,1.700000X1.700000*%
%ADD32R,1.625600X2.184400*%
%ADD33R,2.184400X1.625600*%
%ADD34RoundRect,0.225000X0.375000X-0.225000X0.375000X0.225000X-0.375000X0.225000X-0.375000X-0.225000X0*%
%ADD35RoundRect,0.225000X-0.225000X-0.375000X0.225000X-0.375000X0.225000X0.375000X-0.225000X0.375000X0*%
%ADD36RoundRect,0.250000X0.650000X-0.412500X0.650000X0.412500X-0.650000X0.412500X-0.650000X-0.412500X0*%
%ADD37RoundRect,0.250000X-0.412500X-0.650000X0.412500X-0.650000X0.412500X0.650000X-0.412500X0.650000X0*%
%ADD38R,2.499995X2.560396*%
%ADD39RoundRect,0.250000X0.412500X0.650000X-0.412500X0.650000X-0.412500X-0.650000X0.412500X-0.650000X0*%
G04 APERTURE END LIST*
D10*
X91685714Y-131945000D02*
X91900000Y-132016428D01*
X91900000Y-132016428D02*
X92257142Y-132016428D01*
X92257142Y-132016428D02*
X92400000Y-131945000D01*
X92400000Y-131945000D02*
X92471428Y-131873571D01*
X92471428Y-131873571D02*
X92542857Y-131730714D01*
X92542857Y-131730714D02*
X92542857Y-131587857D01*
X92542857Y-131587857D02*
X92471428Y-131445000D01*
X92471428Y-131445000D02*
X92400000Y-131373571D01*
X92400000Y-131373571D02*
X92257142Y-131302142D01*
X92257142Y-131302142D02*
X91971428Y-131230714D01*
X91971428Y-131230714D02*
X91828571Y-131159285D01*
X91828571Y-131159285D02*
X91757142Y-131087857D01*
X91757142Y-131087857D02*
X91685714Y-130945000D01*
X91685714Y-130945000D02*
X91685714Y-130802142D01*
X91685714Y-130802142D02*
X91757142Y-130659285D01*
X91757142Y-130659285D02*
X91828571Y-130587857D01*
X91828571Y-130587857D02*
X91971428Y-130516428D01*
X91971428Y-130516428D02*
X92328571Y-130516428D01*
X92328571Y-130516428D02*
X92542857Y-130587857D01*
X93185713Y-132016428D02*
X93185713Y-130516428D01*
X94685714Y-130587857D02*
X94542857Y-130516428D01*
X94542857Y-130516428D02*
X94328571Y-130516428D01*
X94328571Y-130516428D02*
X94114285Y-130587857D01*
X94114285Y-130587857D02*
X93971428Y-130730714D01*
X93971428Y-130730714D02*
X93899999Y-130873571D01*
X93899999Y-130873571D02*
X93828571Y-131159285D01*
X93828571Y-131159285D02*
X93828571Y-131373571D01*
X93828571Y-131373571D02*
X93899999Y-131659285D01*
X93899999Y-131659285D02*
X93971428Y-131802142D01*
X93971428Y-131802142D02*
X94114285Y-131945000D01*
X94114285Y-131945000D02*
X94328571Y-132016428D01*
X94328571Y-132016428D02*
X94471428Y-132016428D01*
X94471428Y-132016428D02*
X94685714Y-131945000D01*
X94685714Y-131945000D02*
X94757142Y-131873571D01*
X94757142Y-131873571D02*
X94757142Y-131373571D01*
X94757142Y-131373571D02*
X94471428Y-131373571D01*
X95399999Y-132016428D02*
X95399999Y-130516428D01*
X95399999Y-130516428D02*
X96257142Y-132016428D01*
X96257142Y-132016428D02*
X96257142Y-130516428D01*
X96900000Y-131587857D02*
X97614286Y-131587857D01*
X96757143Y-132016428D02*
X97257143Y-130516428D01*
X97257143Y-130516428D02*
X97757143Y-132016428D01*
X98971428Y-132016428D02*
X98257142Y-132016428D01*
X98257142Y-132016428D02*
X98257142Y-130516428D01*
X101400000Y-130587857D02*
X101257143Y-130516428D01*
X101257143Y-130516428D02*
X101042857Y-130516428D01*
X101042857Y-130516428D02*
X100828571Y-130587857D01*
X100828571Y-130587857D02*
X100685714Y-130730714D01*
X100685714Y-130730714D02*
X100614285Y-130873571D01*
X100614285Y-130873571D02*
X100542857Y-131159285D01*
X100542857Y-131159285D02*
X100542857Y-131373571D01*
X100542857Y-131373571D02*
X100614285Y-131659285D01*
X100614285Y-131659285D02*
X100685714Y-131802142D01*
X100685714Y-131802142D02*
X100828571Y-131945000D01*
X100828571Y-131945000D02*
X101042857Y-132016428D01*
X101042857Y-132016428D02*
X101185714Y-132016428D01*
X101185714Y-132016428D02*
X101400000Y-131945000D01*
X101400000Y-131945000D02*
X101471428Y-131873571D01*
X101471428Y-131873571D02*
X101471428Y-131373571D01*
X101471428Y-131373571D02*
X101185714Y-131373571D01*
X102114285Y-132016428D02*
X102114285Y-130516428D01*
X102114285Y-130516428D02*
X102971428Y-132016428D01*
X102971428Y-132016428D02*
X102971428Y-130516428D01*
X103685714Y-132016428D02*
X103685714Y-130516428D01*
X103685714Y-130516428D02*
X104042857Y-130516428D01*
X104042857Y-130516428D02*
X104257143Y-130587857D01*
X104257143Y-130587857D02*
X104400000Y-130730714D01*
X104400000Y-130730714D02*
X104471429Y-130873571D01*
X104471429Y-130873571D02*
X104542857Y-131159285D01*
X104542857Y-131159285D02*
X104542857Y-131373571D01*
X104542857Y-131373571D02*
X104471429Y-131659285D01*
X104471429Y-131659285D02*
X104400000Y-131802142D01*
X104400000Y-131802142D02*
X104257143Y-131945000D01*
X104257143Y-131945000D02*
X104042857Y-132016428D01*
X104042857Y-132016428D02*
X103685714Y-132016428D01*
X91857142Y-128916428D02*
X91857142Y-127416428D01*
X91857142Y-127416428D02*
X92428571Y-127416428D01*
X92428571Y-127416428D02*
X92571428Y-127487857D01*
X92571428Y-127487857D02*
X92642857Y-127559285D01*
X92642857Y-127559285D02*
X92714285Y-127702142D01*
X92714285Y-127702142D02*
X92714285Y-127916428D01*
X92714285Y-127916428D02*
X92642857Y-128059285D01*
X92642857Y-128059285D02*
X92571428Y-128130714D01*
X92571428Y-128130714D02*
X92428571Y-128202142D01*
X92428571Y-128202142D02*
X91857142Y-128202142D01*
X93642857Y-127416428D02*
X93928571Y-127416428D01*
X93928571Y-127416428D02*
X94071428Y-127487857D01*
X94071428Y-127487857D02*
X94214285Y-127630714D01*
X94214285Y-127630714D02*
X94285714Y-127916428D01*
X94285714Y-127916428D02*
X94285714Y-128416428D01*
X94285714Y-128416428D02*
X94214285Y-128702142D01*
X94214285Y-128702142D02*
X94071428Y-128845000D01*
X94071428Y-128845000D02*
X93928571Y-128916428D01*
X93928571Y-128916428D02*
X93642857Y-128916428D01*
X93642857Y-128916428D02*
X93500000Y-128845000D01*
X93500000Y-128845000D02*
X93357142Y-128702142D01*
X93357142Y-128702142D02*
X93285714Y-128416428D01*
X93285714Y-128416428D02*
X93285714Y-127916428D01*
X93285714Y-127916428D02*
X93357142Y-127630714D01*
X93357142Y-127630714D02*
X93500000Y-127487857D01*
X93500000Y-127487857D02*
X93642857Y-127416428D01*
X94785714Y-127416428D02*
X95142857Y-128916428D01*
X95142857Y-128916428D02*
X95428571Y-127845000D01*
X95428571Y-127845000D02*
X95714286Y-128916428D01*
X95714286Y-128916428D02*
X96071429Y-127416428D01*
X96642857Y-128130714D02*
X97142857Y-128130714D01*
X97357143Y-128916428D02*
X96642857Y-128916428D01*
X96642857Y-128916428D02*
X96642857Y-127416428D01*
X96642857Y-127416428D02*
X97357143Y-127416428D01*
X98857143Y-128916428D02*
X98357143Y-128202142D01*
X98000000Y-128916428D02*
X98000000Y-127416428D01*
X98000000Y-127416428D02*
X98571429Y-127416428D01*
X98571429Y-127416428D02*
X98714286Y-127487857D01*
X98714286Y-127487857D02*
X98785715Y-127559285D01*
X98785715Y-127559285D02*
X98857143Y-127702142D01*
X98857143Y-127702142D02*
X98857143Y-127916428D01*
X98857143Y-127916428D02*
X98785715Y-128059285D01*
X98785715Y-128059285D02*
X98714286Y-128130714D01*
X98714286Y-128130714D02*
X98571429Y-128202142D01*
X98571429Y-128202142D02*
X98000000Y-128202142D01*
X101428572Y-127487857D02*
X101285715Y-127416428D01*
X101285715Y-127416428D02*
X101071429Y-127416428D01*
X101071429Y-127416428D02*
X100857143Y-127487857D01*
X100857143Y-127487857D02*
X100714286Y-127630714D01*
X100714286Y-127630714D02*
X100642857Y-127773571D01*
X100642857Y-127773571D02*
X100571429Y-128059285D01*
X100571429Y-128059285D02*
X100571429Y-128273571D01*
X100571429Y-128273571D02*
X100642857Y-128559285D01*
X100642857Y-128559285D02*
X100714286Y-128702142D01*
X100714286Y-128702142D02*
X100857143Y-128845000D01*
X100857143Y-128845000D02*
X101071429Y-128916428D01*
X101071429Y-128916428D02*
X101214286Y-128916428D01*
X101214286Y-128916428D02*
X101428572Y-128845000D01*
X101428572Y-128845000D02*
X101500000Y-128773571D01*
X101500000Y-128773571D02*
X101500000Y-128273571D01*
X101500000Y-128273571D02*
X101214286Y-128273571D01*
X102142857Y-128916428D02*
X102142857Y-127416428D01*
X102142857Y-127416428D02*
X103000000Y-128916428D01*
X103000000Y-128916428D02*
X103000000Y-127416428D01*
X103714286Y-128916428D02*
X103714286Y-127416428D01*
X103714286Y-127416428D02*
X104071429Y-127416428D01*
X104071429Y-127416428D02*
X104285715Y-127487857D01*
X104285715Y-127487857D02*
X104428572Y-127630714D01*
X104428572Y-127630714D02*
X104500001Y-127773571D01*
X104500001Y-127773571D02*
X104571429Y-128059285D01*
X104571429Y-128059285D02*
X104571429Y-128273571D01*
X104571429Y-128273571D02*
X104500001Y-128559285D01*
X104500001Y-128559285D02*
X104428572Y-128702142D01*
X104428572Y-128702142D02*
X104285715Y-128845000D01*
X104285715Y-128845000D02*
X104071429Y-128916428D01*
X104071429Y-128916428D02*
X103714286Y-128916428D01*
D11*
X141966666Y-119962619D02*
X141966666Y-120676904D01*
X141966666Y-120676904D02*
X141919047Y-120819761D01*
X141919047Y-120819761D02*
X141823809Y-120915000D01*
X141823809Y-120915000D02*
X141680952Y-120962619D01*
X141680952Y-120962619D02*
X141585714Y-120962619D01*
X142347619Y-119962619D02*
X142966666Y-119962619D01*
X142966666Y-119962619D02*
X142633333Y-120343571D01*
X142633333Y-120343571D02*
X142776190Y-120343571D01*
X142776190Y-120343571D02*
X142871428Y-120391190D01*
X142871428Y-120391190D02*
X142919047Y-120438809D01*
X142919047Y-120438809D02*
X142966666Y-120534047D01*
X142966666Y-120534047D02*
X142966666Y-120772142D01*
X142966666Y-120772142D02*
X142919047Y-120867380D01*
X142919047Y-120867380D02*
X142871428Y-120915000D01*
X142871428Y-120915000D02*
X142776190Y-120962619D01*
X142776190Y-120962619D02*
X142490476Y-120962619D01*
X142490476Y-120962619D02*
X142395238Y-120915000D01*
X142395238Y-120915000D02*
X142347619Y-120867380D01*
X148228571Y-116622500D02*
X149371429Y-116622500D01*
X135228571Y-116622500D02*
X136371429Y-116622500D01*
X135800000Y-117193928D02*
X135800000Y-116051071D01*
X94966666Y-112262619D02*
X94966666Y-112976904D01*
X94966666Y-112976904D02*
X94919047Y-113119761D01*
X94919047Y-113119761D02*
X94823809Y-113215000D01*
X94823809Y-113215000D02*
X94680952Y-113262619D01*
X94680952Y-113262619D02*
X94585714Y-113262619D01*
X95395238Y-112357857D02*
X95442857Y-112310238D01*
X95442857Y-112310238D02*
X95538095Y-112262619D01*
X95538095Y-112262619D02*
X95776190Y-112262619D01*
X95776190Y-112262619D02*
X95871428Y-112310238D01*
X95871428Y-112310238D02*
X95919047Y-112357857D01*
X95919047Y-112357857D02*
X95966666Y-112453095D01*
X95966666Y-112453095D02*
X95966666Y-112548333D01*
X95966666Y-112548333D02*
X95919047Y-112691190D01*
X95919047Y-112691190D02*
X95347619Y-113262619D01*
X95347619Y-113262619D02*
X95966666Y-113262619D01*
X88228571Y-116922500D02*
X89371429Y-116922500D01*
X101228571Y-116922500D02*
X102371429Y-116922500D01*
X101800000Y-117493928D02*
X101800000Y-116351071D01*
X121133333Y-133467380D02*
X121085714Y-133515000D01*
X121085714Y-133515000D02*
X120942857Y-133562619D01*
X120942857Y-133562619D02*
X120847619Y-133562619D01*
X120847619Y-133562619D02*
X120704762Y-133515000D01*
X120704762Y-133515000D02*
X120609524Y-133419761D01*
X120609524Y-133419761D02*
X120561905Y-133324523D01*
X120561905Y-133324523D02*
X120514286Y-133134047D01*
X120514286Y-133134047D02*
X120514286Y-132991190D01*
X120514286Y-132991190D02*
X120561905Y-132800714D01*
X120561905Y-132800714D02*
X120609524Y-132705476D01*
X120609524Y-132705476D02*
X120704762Y-132610238D01*
X120704762Y-132610238D02*
X120847619Y-132562619D01*
X120847619Y-132562619D02*
X120942857Y-132562619D01*
X120942857Y-132562619D02*
X121085714Y-132610238D01*
X121085714Y-132610238D02*
X121133333Y-132657857D01*
X121990476Y-132895952D02*
X121990476Y-133562619D01*
X121752381Y-132515000D02*
X121514286Y-133229285D01*
X121514286Y-133229285D02*
X122133333Y-133229285D01*
X122762619Y-150280357D02*
X122286428Y-150613690D01*
X122762619Y-150851785D02*
X121762619Y-150851785D01*
X121762619Y-150851785D02*
X121762619Y-150470833D01*
X121762619Y-150470833D02*
X121810238Y-150375595D01*
X121810238Y-150375595D02*
X121857857Y-150327976D01*
X121857857Y-150327976D02*
X121953095Y-150280357D01*
X121953095Y-150280357D02*
X122095952Y-150280357D01*
X122095952Y-150280357D02*
X122191190Y-150327976D01*
X122191190Y-150327976D02*
X122238809Y-150375595D01*
X122238809Y-150375595D02*
X122286428Y-150470833D01*
X122286428Y-150470833D02*
X122286428Y-150851785D01*
X121857857Y-149899404D02*
X121810238Y-149851785D01*
X121810238Y-149851785D02*
X121762619Y-149756547D01*
X121762619Y-149756547D02*
X121762619Y-149518452D01*
X121762619Y-149518452D02*
X121810238Y-149423214D01*
X121810238Y-149423214D02*
X121857857Y-149375595D01*
X121857857Y-149375595D02*
X121953095Y-149327976D01*
X121953095Y-149327976D02*
X122048333Y-149327976D01*
X122048333Y-149327976D02*
X122191190Y-149375595D01*
X122191190Y-149375595D02*
X122762619Y-149947023D01*
X122762619Y-149947023D02*
X122762619Y-149327976D01*
X121762619Y-148470833D02*
X121762619Y-148661309D01*
X121762619Y-148661309D02*
X121810238Y-148756547D01*
X121810238Y-148756547D02*
X121857857Y-148804166D01*
X121857857Y-148804166D02*
X122000714Y-148899404D01*
X122000714Y-148899404D02*
X122191190Y-148947023D01*
X122191190Y-148947023D02*
X122572142Y-148947023D01*
X122572142Y-148947023D02*
X122667380Y-148899404D01*
X122667380Y-148899404D02*
X122715000Y-148851785D01*
X122715000Y-148851785D02*
X122762619Y-148756547D01*
X122762619Y-148756547D02*
X122762619Y-148566071D01*
X122762619Y-148566071D02*
X122715000Y-148470833D01*
X122715000Y-148470833D02*
X122667380Y-148423214D01*
X122667380Y-148423214D02*
X122572142Y-148375595D01*
X122572142Y-148375595D02*
X122334047Y-148375595D01*
X122334047Y-148375595D02*
X122238809Y-148423214D01*
X122238809Y-148423214D02*
X122191190Y-148470833D01*
X122191190Y-148470833D02*
X122143571Y-148566071D01*
X122143571Y-148566071D02*
X122143571Y-148756547D01*
X122143571Y-148756547D02*
X122191190Y-148851785D01*
X122191190Y-148851785D02*
X122238809Y-148899404D01*
X122238809Y-148899404D02*
X122334047Y-148947023D01*
X120657142Y-123862619D02*
X120323809Y-123386428D01*
X120085714Y-123862619D02*
X120085714Y-122862619D01*
X120085714Y-122862619D02*
X120466666Y-122862619D01*
X120466666Y-122862619D02*
X120561904Y-122910238D01*
X120561904Y-122910238D02*
X120609523Y-122957857D01*
X120609523Y-122957857D02*
X120657142Y-123053095D01*
X120657142Y-123053095D02*
X120657142Y-123195952D01*
X120657142Y-123195952D02*
X120609523Y-123291190D01*
X120609523Y-123291190D02*
X120561904Y-123338809D01*
X120561904Y-123338809D02*
X120466666Y-123386428D01*
X120466666Y-123386428D02*
X120085714Y-123386428D01*
X121609523Y-123862619D02*
X121038095Y-123862619D01*
X121323809Y-123862619D02*
X121323809Y-122862619D01*
X121323809Y-122862619D02*
X121228571Y-123005476D01*
X121228571Y-123005476D02*
X121133333Y-123100714D01*
X121133333Y-123100714D02*
X121038095Y-123148333D01*
X122085714Y-123862619D02*
X122276190Y-123862619D01*
X122276190Y-123862619D02*
X122371428Y-123815000D01*
X122371428Y-123815000D02*
X122419047Y-123767380D01*
X122419047Y-123767380D02*
X122514285Y-123624523D01*
X122514285Y-123624523D02*
X122561904Y-123434047D01*
X122561904Y-123434047D02*
X122561904Y-123053095D01*
X122561904Y-123053095D02*
X122514285Y-122957857D01*
X122514285Y-122957857D02*
X122466666Y-122910238D01*
X122466666Y-122910238D02*
X122371428Y-122862619D01*
X122371428Y-122862619D02*
X122180952Y-122862619D01*
X122180952Y-122862619D02*
X122085714Y-122910238D01*
X122085714Y-122910238D02*
X122038095Y-122957857D01*
X122038095Y-122957857D02*
X121990476Y-123053095D01*
X121990476Y-123053095D02*
X121990476Y-123291190D01*
X121990476Y-123291190D02*
X122038095Y-123386428D01*
X122038095Y-123386428D02*
X122085714Y-123434047D01*
X122085714Y-123434047D02*
X122180952Y-123481666D01*
X122180952Y-123481666D02*
X122371428Y-123481666D01*
X122371428Y-123481666D02*
X122466666Y-123434047D01*
X122466666Y-123434047D02*
X122514285Y-123386428D01*
X122514285Y-123386428D02*
X122561904Y-123291190D01*
X118338095Y-139237619D02*
X118338095Y-140047142D01*
X118338095Y-140047142D02*
X118385714Y-140142380D01*
X118385714Y-140142380D02*
X118433333Y-140190000D01*
X118433333Y-140190000D02*
X118528571Y-140237619D01*
X118528571Y-140237619D02*
X118719047Y-140237619D01*
X118719047Y-140237619D02*
X118814285Y-140190000D01*
X118814285Y-140190000D02*
X118861904Y-140142380D01*
X118861904Y-140142380D02*
X118909523Y-140047142D01*
X118909523Y-140047142D02*
X118909523Y-139237619D01*
X119909523Y-140237619D02*
X119338095Y-140237619D01*
X119623809Y-140237619D02*
X119623809Y-139237619D01*
X119623809Y-139237619D02*
X119528571Y-139380476D01*
X119528571Y-139380476D02*
X119433333Y-139475714D01*
X119433333Y-139475714D02*
X119338095Y-139523333D01*
X115610199Y-137237619D02*
X115610199Y-137475714D01*
X115372104Y-137380476D02*
X115610199Y-137475714D01*
X115610199Y-137475714D02*
X115848294Y-137380476D01*
X115467342Y-137666190D02*
X115610199Y-137475714D01*
X115610199Y-137475714D02*
X115753056Y-137666190D01*
X115610199Y-137237619D02*
X115610199Y-137475714D01*
X115372104Y-137380476D02*
X115610199Y-137475714D01*
X115610199Y-137475714D02*
X115848294Y-137380476D01*
X115467342Y-137666190D02*
X115610199Y-137475714D01*
X115610199Y-137475714D02*
X115753056Y-137666190D01*
X116457142Y-148280119D02*
X116123809Y-147803928D01*
X115885714Y-148280119D02*
X115885714Y-147280119D01*
X115885714Y-147280119D02*
X116266666Y-147280119D01*
X116266666Y-147280119D02*
X116361904Y-147327738D01*
X116361904Y-147327738D02*
X116409523Y-147375357D01*
X116409523Y-147375357D02*
X116457142Y-147470595D01*
X116457142Y-147470595D02*
X116457142Y-147613452D01*
X116457142Y-147613452D02*
X116409523Y-147708690D01*
X116409523Y-147708690D02*
X116361904Y-147756309D01*
X116361904Y-147756309D02*
X116266666Y-147803928D01*
X116266666Y-147803928D02*
X115885714Y-147803928D01*
X116838095Y-147375357D02*
X116885714Y-147327738D01*
X116885714Y-147327738D02*
X116980952Y-147280119D01*
X116980952Y-147280119D02*
X117219047Y-147280119D01*
X117219047Y-147280119D02*
X117314285Y-147327738D01*
X117314285Y-147327738D02*
X117361904Y-147375357D01*
X117361904Y-147375357D02*
X117409523Y-147470595D01*
X117409523Y-147470595D02*
X117409523Y-147565833D01*
X117409523Y-147565833D02*
X117361904Y-147708690D01*
X117361904Y-147708690D02*
X116790476Y-148280119D01*
X116790476Y-148280119D02*
X117409523Y-148280119D01*
X118314285Y-147280119D02*
X117838095Y-147280119D01*
X117838095Y-147280119D02*
X117790476Y-147756309D01*
X117790476Y-147756309D02*
X117838095Y-147708690D01*
X117838095Y-147708690D02*
X117933333Y-147661071D01*
X117933333Y-147661071D02*
X118171428Y-147661071D01*
X118171428Y-147661071D02*
X118266666Y-147708690D01*
X118266666Y-147708690D02*
X118314285Y-147756309D01*
X118314285Y-147756309D02*
X118361904Y-147851547D01*
X118361904Y-147851547D02*
X118361904Y-148089642D01*
X118361904Y-148089642D02*
X118314285Y-148184880D01*
X118314285Y-148184880D02*
X118266666Y-148232500D01*
X118266666Y-148232500D02*
X118171428Y-148280119D01*
X118171428Y-148280119D02*
X117933333Y-148280119D01*
X117933333Y-148280119D02*
X117838095Y-148232500D01*
X117838095Y-148232500D02*
X117790476Y-148184880D01*
X128607142Y-142650119D02*
X128273809Y-142173928D01*
X128035714Y-142650119D02*
X128035714Y-141650119D01*
X128035714Y-141650119D02*
X128416666Y-141650119D01*
X128416666Y-141650119D02*
X128511904Y-141697738D01*
X128511904Y-141697738D02*
X128559523Y-141745357D01*
X128559523Y-141745357D02*
X128607142Y-141840595D01*
X128607142Y-141840595D02*
X128607142Y-141983452D01*
X128607142Y-141983452D02*
X128559523Y-142078690D01*
X128559523Y-142078690D02*
X128511904Y-142126309D01*
X128511904Y-142126309D02*
X128416666Y-142173928D01*
X128416666Y-142173928D02*
X128035714Y-142173928D01*
X128988095Y-141745357D02*
X129035714Y-141697738D01*
X129035714Y-141697738D02*
X129130952Y-141650119D01*
X129130952Y-141650119D02*
X129369047Y-141650119D01*
X129369047Y-141650119D02*
X129464285Y-141697738D01*
X129464285Y-141697738D02*
X129511904Y-141745357D01*
X129511904Y-141745357D02*
X129559523Y-141840595D01*
X129559523Y-141840595D02*
X129559523Y-141935833D01*
X129559523Y-141935833D02*
X129511904Y-142078690D01*
X129511904Y-142078690D02*
X128940476Y-142650119D01*
X128940476Y-142650119D02*
X129559523Y-142650119D01*
X130416666Y-141983452D02*
X130416666Y-142650119D01*
X130178571Y-141602500D02*
X129940476Y-142316785D01*
X129940476Y-142316785D02*
X130559523Y-142316785D01*
X130367919Y-146030357D02*
X129891728Y-146363690D01*
X130367919Y-146601785D02*
X129367919Y-146601785D01*
X129367919Y-146601785D02*
X129367919Y-146220833D01*
X129367919Y-146220833D02*
X129415538Y-146125595D01*
X129415538Y-146125595D02*
X129463157Y-146077976D01*
X129463157Y-146077976D02*
X129558395Y-146030357D01*
X129558395Y-146030357D02*
X129701252Y-146030357D01*
X129701252Y-146030357D02*
X129796490Y-146077976D01*
X129796490Y-146077976D02*
X129844109Y-146125595D01*
X129844109Y-146125595D02*
X129891728Y-146220833D01*
X129891728Y-146220833D02*
X129891728Y-146601785D01*
X129463157Y-145649404D02*
X129415538Y-145601785D01*
X129415538Y-145601785D02*
X129367919Y-145506547D01*
X129367919Y-145506547D02*
X129367919Y-145268452D01*
X129367919Y-145268452D02*
X129415538Y-145173214D01*
X129415538Y-145173214D02*
X129463157Y-145125595D01*
X129463157Y-145125595D02*
X129558395Y-145077976D01*
X129558395Y-145077976D02*
X129653633Y-145077976D01*
X129653633Y-145077976D02*
X129796490Y-145125595D01*
X129796490Y-145125595D02*
X130367919Y-145697023D01*
X130367919Y-145697023D02*
X130367919Y-145077976D01*
X129367919Y-144744642D02*
X129367919Y-144125595D01*
X129367919Y-144125595D02*
X129748871Y-144458928D01*
X129748871Y-144458928D02*
X129748871Y-144316071D01*
X129748871Y-144316071D02*
X129796490Y-144220833D01*
X129796490Y-144220833D02*
X129844109Y-144173214D01*
X129844109Y-144173214D02*
X129939347Y-144125595D01*
X129939347Y-144125595D02*
X130177442Y-144125595D01*
X130177442Y-144125595D02*
X130272680Y-144173214D01*
X130272680Y-144173214D02*
X130320300Y-144220833D01*
X130320300Y-144220833D02*
X130367919Y-144316071D01*
X130367919Y-144316071D02*
X130367919Y-144601785D01*
X130367919Y-144601785D02*
X130320300Y-144697023D01*
X130320300Y-144697023D02*
X130272680Y-144744642D01*
X130392619Y-140930357D02*
X129916428Y-141263690D01*
X130392619Y-141501785D02*
X129392619Y-141501785D01*
X129392619Y-141501785D02*
X129392619Y-141120833D01*
X129392619Y-141120833D02*
X129440238Y-141025595D01*
X129440238Y-141025595D02*
X129487857Y-140977976D01*
X129487857Y-140977976D02*
X129583095Y-140930357D01*
X129583095Y-140930357D02*
X129725952Y-140930357D01*
X129725952Y-140930357D02*
X129821190Y-140977976D01*
X129821190Y-140977976D02*
X129868809Y-141025595D01*
X129868809Y-141025595D02*
X129916428Y-141120833D01*
X129916428Y-141120833D02*
X129916428Y-141501785D01*
X129487857Y-140549404D02*
X129440238Y-140501785D01*
X129440238Y-140501785D02*
X129392619Y-140406547D01*
X129392619Y-140406547D02*
X129392619Y-140168452D01*
X129392619Y-140168452D02*
X129440238Y-140073214D01*
X129440238Y-140073214D02*
X129487857Y-140025595D01*
X129487857Y-140025595D02*
X129583095Y-139977976D01*
X129583095Y-139977976D02*
X129678333Y-139977976D01*
X129678333Y-139977976D02*
X129821190Y-140025595D01*
X129821190Y-140025595D02*
X130392619Y-140597023D01*
X130392619Y-140597023D02*
X130392619Y-139977976D01*
X129392619Y-139358928D02*
X129392619Y-139263690D01*
X129392619Y-139263690D02*
X129440238Y-139168452D01*
X129440238Y-139168452D02*
X129487857Y-139120833D01*
X129487857Y-139120833D02*
X129583095Y-139073214D01*
X129583095Y-139073214D02*
X129773571Y-139025595D01*
X129773571Y-139025595D02*
X130011666Y-139025595D01*
X130011666Y-139025595D02*
X130202142Y-139073214D01*
X130202142Y-139073214D02*
X130297380Y-139120833D01*
X130297380Y-139120833D02*
X130345000Y-139168452D01*
X130345000Y-139168452D02*
X130392619Y-139263690D01*
X130392619Y-139263690D02*
X130392619Y-139358928D01*
X130392619Y-139358928D02*
X130345000Y-139454166D01*
X130345000Y-139454166D02*
X130297380Y-139501785D01*
X130297380Y-139501785D02*
X130202142Y-139549404D01*
X130202142Y-139549404D02*
X130011666Y-139597023D01*
X130011666Y-139597023D02*
X129773571Y-139597023D01*
X129773571Y-139597023D02*
X129583095Y-139549404D01*
X129583095Y-139549404D02*
X129487857Y-139501785D01*
X129487857Y-139501785D02*
X129440238Y-139454166D01*
X129440238Y-139454166D02*
X129392619Y-139358928D01*
X97687319Y-136141357D02*
X97211128Y-136474690D01*
X97687319Y-136712785D02*
X96687319Y-136712785D01*
X96687319Y-136712785D02*
X96687319Y-136331833D01*
X96687319Y-136331833D02*
X96734938Y-136236595D01*
X96734938Y-136236595D02*
X96782557Y-136188976D01*
X96782557Y-136188976D02*
X96877795Y-136141357D01*
X96877795Y-136141357D02*
X97020652Y-136141357D01*
X97020652Y-136141357D02*
X97115890Y-136188976D01*
X97115890Y-136188976D02*
X97163509Y-136236595D01*
X97163509Y-136236595D02*
X97211128Y-136331833D01*
X97211128Y-136331833D02*
X97211128Y-136712785D01*
X97687319Y-135188976D02*
X97687319Y-135760404D01*
X97687319Y-135474690D02*
X96687319Y-135474690D01*
X96687319Y-135474690D02*
X96830176Y-135569928D01*
X96830176Y-135569928D02*
X96925414Y-135665166D01*
X96925414Y-135665166D02*
X96973033Y-135760404D01*
X96687319Y-134284214D02*
X96687319Y-134760404D01*
X96687319Y-134760404D02*
X97163509Y-134808023D01*
X97163509Y-134808023D02*
X97115890Y-134760404D01*
X97115890Y-134760404D02*
X97068271Y-134665166D01*
X97068271Y-134665166D02*
X97068271Y-134427071D01*
X97068271Y-134427071D02*
X97115890Y-134331833D01*
X97115890Y-134331833D02*
X97163509Y-134284214D01*
X97163509Y-134284214D02*
X97258747Y-134236595D01*
X97258747Y-134236595D02*
X97496842Y-134236595D01*
X97496842Y-134236595D02*
X97592080Y-134284214D01*
X97592080Y-134284214D02*
X97639700Y-134331833D01*
X97639700Y-134331833D02*
X97687319Y-134427071D01*
X97687319Y-134427071D02*
X97687319Y-134665166D01*
X97687319Y-134665166D02*
X97639700Y-134760404D01*
X97639700Y-134760404D02*
X97592080Y-134808023D01*
X107932619Y-138830357D02*
X107456428Y-139163690D01*
X107932619Y-139401785D02*
X106932619Y-139401785D01*
X106932619Y-139401785D02*
X106932619Y-139020833D01*
X106932619Y-139020833D02*
X106980238Y-138925595D01*
X106980238Y-138925595D02*
X107027857Y-138877976D01*
X107027857Y-138877976D02*
X107123095Y-138830357D01*
X107123095Y-138830357D02*
X107265952Y-138830357D01*
X107265952Y-138830357D02*
X107361190Y-138877976D01*
X107361190Y-138877976D02*
X107408809Y-138925595D01*
X107408809Y-138925595D02*
X107456428Y-139020833D01*
X107456428Y-139020833D02*
X107456428Y-139401785D01*
X107932619Y-137877976D02*
X107932619Y-138449404D01*
X107932619Y-138163690D02*
X106932619Y-138163690D01*
X106932619Y-138163690D02*
X107075476Y-138258928D01*
X107075476Y-138258928D02*
X107170714Y-138354166D01*
X107170714Y-138354166D02*
X107218333Y-138449404D01*
X106932619Y-137544642D02*
X106932619Y-136925595D01*
X106932619Y-136925595D02*
X107313571Y-137258928D01*
X107313571Y-137258928D02*
X107313571Y-137116071D01*
X107313571Y-137116071D02*
X107361190Y-137020833D01*
X107361190Y-137020833D02*
X107408809Y-136973214D01*
X107408809Y-136973214D02*
X107504047Y-136925595D01*
X107504047Y-136925595D02*
X107742142Y-136925595D01*
X107742142Y-136925595D02*
X107837380Y-136973214D01*
X107837380Y-136973214D02*
X107885000Y-137020833D01*
X107885000Y-137020833D02*
X107932619Y-137116071D01*
X107932619Y-137116071D02*
X107932619Y-137401785D01*
X107932619Y-137401785D02*
X107885000Y-137497023D01*
X107885000Y-137497023D02*
X107837380Y-137544642D01*
X101892619Y-138830357D02*
X101416428Y-139163690D01*
X101892619Y-139401785D02*
X100892619Y-139401785D01*
X100892619Y-139401785D02*
X100892619Y-139020833D01*
X100892619Y-139020833D02*
X100940238Y-138925595D01*
X100940238Y-138925595D02*
X100987857Y-138877976D01*
X100987857Y-138877976D02*
X101083095Y-138830357D01*
X101083095Y-138830357D02*
X101225952Y-138830357D01*
X101225952Y-138830357D02*
X101321190Y-138877976D01*
X101321190Y-138877976D02*
X101368809Y-138925595D01*
X101368809Y-138925595D02*
X101416428Y-139020833D01*
X101416428Y-139020833D02*
X101416428Y-139401785D01*
X101892619Y-137877976D02*
X101892619Y-138449404D01*
X101892619Y-138163690D02*
X100892619Y-138163690D01*
X100892619Y-138163690D02*
X101035476Y-138258928D01*
X101035476Y-138258928D02*
X101130714Y-138354166D01*
X101130714Y-138354166D02*
X101178333Y-138449404D01*
X100987857Y-137497023D02*
X100940238Y-137449404D01*
X100940238Y-137449404D02*
X100892619Y-137354166D01*
X100892619Y-137354166D02*
X100892619Y-137116071D01*
X100892619Y-137116071D02*
X100940238Y-137020833D01*
X100940238Y-137020833D02*
X100987857Y-136973214D01*
X100987857Y-136973214D02*
X101083095Y-136925595D01*
X101083095Y-136925595D02*
X101178333Y-136925595D01*
X101178333Y-136925595D02*
X101321190Y-136973214D01*
X101321190Y-136973214D02*
X101892619Y-137544642D01*
X101892619Y-137544642D02*
X101892619Y-136925595D01*
X109457142Y-136620119D02*
X109123809Y-136143928D01*
X108885714Y-136620119D02*
X108885714Y-135620119D01*
X108885714Y-135620119D02*
X109266666Y-135620119D01*
X109266666Y-135620119D02*
X109361904Y-135667738D01*
X109361904Y-135667738D02*
X109409523Y-135715357D01*
X109409523Y-135715357D02*
X109457142Y-135810595D01*
X109457142Y-135810595D02*
X109457142Y-135953452D01*
X109457142Y-135953452D02*
X109409523Y-136048690D01*
X109409523Y-136048690D02*
X109361904Y-136096309D01*
X109361904Y-136096309D02*
X109266666Y-136143928D01*
X109266666Y-136143928D02*
X108885714Y-136143928D01*
X110409523Y-136620119D02*
X109838095Y-136620119D01*
X110123809Y-136620119D02*
X110123809Y-135620119D01*
X110123809Y-135620119D02*
X110028571Y-135762976D01*
X110028571Y-135762976D02*
X109933333Y-135858214D01*
X109933333Y-135858214D02*
X109838095Y-135905833D01*
X111361904Y-136620119D02*
X110790476Y-136620119D01*
X111076190Y-136620119D02*
X111076190Y-135620119D01*
X111076190Y-135620119D02*
X110980952Y-135762976D01*
X110980952Y-135762976D02*
X110885714Y-135858214D01*
X110885714Y-135858214D02*
X110790476Y-135905833D01*
X108057142Y-141937619D02*
X107723809Y-141461428D01*
X107485714Y-141937619D02*
X107485714Y-140937619D01*
X107485714Y-140937619D02*
X107866666Y-140937619D01*
X107866666Y-140937619D02*
X107961904Y-140985238D01*
X107961904Y-140985238D02*
X108009523Y-141032857D01*
X108009523Y-141032857D02*
X108057142Y-141128095D01*
X108057142Y-141128095D02*
X108057142Y-141270952D01*
X108057142Y-141270952D02*
X108009523Y-141366190D01*
X108009523Y-141366190D02*
X107961904Y-141413809D01*
X107961904Y-141413809D02*
X107866666Y-141461428D01*
X107866666Y-141461428D02*
X107485714Y-141461428D01*
X109009523Y-141937619D02*
X108438095Y-141937619D01*
X108723809Y-141937619D02*
X108723809Y-140937619D01*
X108723809Y-140937619D02*
X108628571Y-141080476D01*
X108628571Y-141080476D02*
X108533333Y-141175714D01*
X108533333Y-141175714D02*
X108438095Y-141223333D01*
X109628571Y-140937619D02*
X109723809Y-140937619D01*
X109723809Y-140937619D02*
X109819047Y-140985238D01*
X109819047Y-140985238D02*
X109866666Y-141032857D01*
X109866666Y-141032857D02*
X109914285Y-141128095D01*
X109914285Y-141128095D02*
X109961904Y-141318571D01*
X109961904Y-141318571D02*
X109961904Y-141556666D01*
X109961904Y-141556666D02*
X109914285Y-141747142D01*
X109914285Y-141747142D02*
X109866666Y-141842380D01*
X109866666Y-141842380D02*
X109819047Y-141890000D01*
X109819047Y-141890000D02*
X109723809Y-141937619D01*
X109723809Y-141937619D02*
X109628571Y-141937619D01*
X109628571Y-141937619D02*
X109533333Y-141890000D01*
X109533333Y-141890000D02*
X109485714Y-141842380D01*
X109485714Y-141842380D02*
X109438095Y-141747142D01*
X109438095Y-141747142D02*
X109390476Y-141556666D01*
X109390476Y-141556666D02*
X109390476Y-141318571D01*
X109390476Y-141318571D02*
X109438095Y-141128095D01*
X109438095Y-141128095D02*
X109485714Y-141032857D01*
X109485714Y-141032857D02*
X109533333Y-140985238D01*
X109533333Y-140985238D02*
X109628571Y-140937619D01*
X108183333Y-133837619D02*
X107850000Y-133361428D01*
X107611905Y-133837619D02*
X107611905Y-132837619D01*
X107611905Y-132837619D02*
X107992857Y-132837619D01*
X107992857Y-132837619D02*
X108088095Y-132885238D01*
X108088095Y-132885238D02*
X108135714Y-132932857D01*
X108135714Y-132932857D02*
X108183333Y-133028095D01*
X108183333Y-133028095D02*
X108183333Y-133170952D01*
X108183333Y-133170952D02*
X108135714Y-133266190D01*
X108135714Y-133266190D02*
X108088095Y-133313809D01*
X108088095Y-133313809D02*
X107992857Y-133361428D01*
X107992857Y-133361428D02*
X107611905Y-133361428D01*
X108659524Y-133837619D02*
X108850000Y-133837619D01*
X108850000Y-133837619D02*
X108945238Y-133790000D01*
X108945238Y-133790000D02*
X108992857Y-133742380D01*
X108992857Y-133742380D02*
X109088095Y-133599523D01*
X109088095Y-133599523D02*
X109135714Y-133409047D01*
X109135714Y-133409047D02*
X109135714Y-133028095D01*
X109135714Y-133028095D02*
X109088095Y-132932857D01*
X109088095Y-132932857D02*
X109040476Y-132885238D01*
X109040476Y-132885238D02*
X108945238Y-132837619D01*
X108945238Y-132837619D02*
X108754762Y-132837619D01*
X108754762Y-132837619D02*
X108659524Y-132885238D01*
X108659524Y-132885238D02*
X108611905Y-132932857D01*
X108611905Y-132932857D02*
X108564286Y-133028095D01*
X108564286Y-133028095D02*
X108564286Y-133266190D01*
X108564286Y-133266190D02*
X108611905Y-133361428D01*
X108611905Y-133361428D02*
X108659524Y-133409047D01*
X108659524Y-133409047D02*
X108754762Y-133456666D01*
X108754762Y-133456666D02*
X108945238Y-133456666D01*
X108945238Y-133456666D02*
X109040476Y-133409047D01*
X109040476Y-133409047D02*
X109088095Y-133361428D01*
X109088095Y-133361428D02*
X109135714Y-133266190D01*
X101892619Y-143454166D02*
X101416428Y-143787499D01*
X101892619Y-144025594D02*
X100892619Y-144025594D01*
X100892619Y-144025594D02*
X100892619Y-143644642D01*
X100892619Y-143644642D02*
X100940238Y-143549404D01*
X100940238Y-143549404D02*
X100987857Y-143501785D01*
X100987857Y-143501785D02*
X101083095Y-143454166D01*
X101083095Y-143454166D02*
X101225952Y-143454166D01*
X101225952Y-143454166D02*
X101321190Y-143501785D01*
X101321190Y-143501785D02*
X101368809Y-143549404D01*
X101368809Y-143549404D02*
X101416428Y-143644642D01*
X101416428Y-143644642D02*
X101416428Y-144025594D01*
X101321190Y-142882737D02*
X101273571Y-142977975D01*
X101273571Y-142977975D02*
X101225952Y-143025594D01*
X101225952Y-143025594D02*
X101130714Y-143073213D01*
X101130714Y-143073213D02*
X101083095Y-143073213D01*
X101083095Y-143073213D02*
X100987857Y-143025594D01*
X100987857Y-143025594D02*
X100940238Y-142977975D01*
X100940238Y-142977975D02*
X100892619Y-142882737D01*
X100892619Y-142882737D02*
X100892619Y-142692261D01*
X100892619Y-142692261D02*
X100940238Y-142597023D01*
X100940238Y-142597023D02*
X100987857Y-142549404D01*
X100987857Y-142549404D02*
X101083095Y-142501785D01*
X101083095Y-142501785D02*
X101130714Y-142501785D01*
X101130714Y-142501785D02*
X101225952Y-142549404D01*
X101225952Y-142549404D02*
X101273571Y-142597023D01*
X101273571Y-142597023D02*
X101321190Y-142692261D01*
X101321190Y-142692261D02*
X101321190Y-142882737D01*
X101321190Y-142882737D02*
X101368809Y-142977975D01*
X101368809Y-142977975D02*
X101416428Y-143025594D01*
X101416428Y-143025594D02*
X101511666Y-143073213D01*
X101511666Y-143073213D02*
X101702142Y-143073213D01*
X101702142Y-143073213D02*
X101797380Y-143025594D01*
X101797380Y-143025594D02*
X101845000Y-142977975D01*
X101845000Y-142977975D02*
X101892619Y-142882737D01*
X101892619Y-142882737D02*
X101892619Y-142692261D01*
X101892619Y-142692261D02*
X101845000Y-142597023D01*
X101845000Y-142597023D02*
X101797380Y-142549404D01*
X101797380Y-142549404D02*
X101702142Y-142501785D01*
X101702142Y-142501785D02*
X101511666Y-142501785D01*
X101511666Y-142501785D02*
X101416428Y-142549404D01*
X101416428Y-142549404D02*
X101368809Y-142597023D01*
X101368809Y-142597023D02*
X101321190Y-142692261D01*
X131432619Y-148454166D02*
X130956428Y-148787499D01*
X131432619Y-149025594D02*
X130432619Y-149025594D01*
X130432619Y-149025594D02*
X130432619Y-148644642D01*
X130432619Y-148644642D02*
X130480238Y-148549404D01*
X130480238Y-148549404D02*
X130527857Y-148501785D01*
X130527857Y-148501785D02*
X130623095Y-148454166D01*
X130623095Y-148454166D02*
X130765952Y-148454166D01*
X130765952Y-148454166D02*
X130861190Y-148501785D01*
X130861190Y-148501785D02*
X130908809Y-148549404D01*
X130908809Y-148549404D02*
X130956428Y-148644642D01*
X130956428Y-148644642D02*
X130956428Y-149025594D01*
X130432619Y-148120832D02*
X130432619Y-147454166D01*
X130432619Y-147454166D02*
X131432619Y-147882737D01*
X109183333Y-148180119D02*
X108850000Y-147703928D01*
X108611905Y-148180119D02*
X108611905Y-147180119D01*
X108611905Y-147180119D02*
X108992857Y-147180119D01*
X108992857Y-147180119D02*
X109088095Y-147227738D01*
X109088095Y-147227738D02*
X109135714Y-147275357D01*
X109135714Y-147275357D02*
X109183333Y-147370595D01*
X109183333Y-147370595D02*
X109183333Y-147513452D01*
X109183333Y-147513452D02*
X109135714Y-147608690D01*
X109135714Y-147608690D02*
X109088095Y-147656309D01*
X109088095Y-147656309D02*
X108992857Y-147703928D01*
X108992857Y-147703928D02*
X108611905Y-147703928D01*
X110088095Y-147180119D02*
X109611905Y-147180119D01*
X109611905Y-147180119D02*
X109564286Y-147656309D01*
X109564286Y-147656309D02*
X109611905Y-147608690D01*
X109611905Y-147608690D02*
X109707143Y-147561071D01*
X109707143Y-147561071D02*
X109945238Y-147561071D01*
X109945238Y-147561071D02*
X110040476Y-147608690D01*
X110040476Y-147608690D02*
X110088095Y-147656309D01*
X110088095Y-147656309D02*
X110135714Y-147751547D01*
X110135714Y-147751547D02*
X110135714Y-147989642D01*
X110135714Y-147989642D02*
X110088095Y-148084880D01*
X110088095Y-148084880D02*
X110040476Y-148132500D01*
X110040476Y-148132500D02*
X109945238Y-148180119D01*
X109945238Y-148180119D02*
X109707143Y-148180119D01*
X109707143Y-148180119D02*
X109611905Y-148132500D01*
X109611905Y-148132500D02*
X109564286Y-148084880D01*
X133904761Y-110857857D02*
X133809523Y-110810238D01*
X133809523Y-110810238D02*
X133714285Y-110715000D01*
X133714285Y-110715000D02*
X133571428Y-110572142D01*
X133571428Y-110572142D02*
X133476190Y-110524523D01*
X133476190Y-110524523D02*
X133380952Y-110524523D01*
X133428571Y-110762619D02*
X133333333Y-110715000D01*
X133333333Y-110715000D02*
X133238095Y-110619761D01*
X133238095Y-110619761D02*
X133190476Y-110429285D01*
X133190476Y-110429285D02*
X133190476Y-110095952D01*
X133190476Y-110095952D02*
X133238095Y-109905476D01*
X133238095Y-109905476D02*
X133333333Y-109810238D01*
X133333333Y-109810238D02*
X133428571Y-109762619D01*
X133428571Y-109762619D02*
X133619047Y-109762619D01*
X133619047Y-109762619D02*
X133714285Y-109810238D01*
X133714285Y-109810238D02*
X133809523Y-109905476D01*
X133809523Y-109905476D02*
X133857142Y-110095952D01*
X133857142Y-110095952D02*
X133857142Y-110429285D01*
X133857142Y-110429285D02*
X133809523Y-110619761D01*
X133809523Y-110619761D02*
X133714285Y-110715000D01*
X133714285Y-110715000D02*
X133619047Y-110762619D01*
X133619047Y-110762619D02*
X133428571Y-110762619D01*
X134714285Y-110095952D02*
X134714285Y-110762619D01*
X134476190Y-109715000D02*
X134238095Y-110429285D01*
X134238095Y-110429285D02*
X134857142Y-110429285D01*
X123157857Y-116995238D02*
X123110238Y-117090476D01*
X123110238Y-117090476D02*
X123015000Y-117185714D01*
X123015000Y-117185714D02*
X122872142Y-117328571D01*
X122872142Y-117328571D02*
X122824523Y-117423809D01*
X122824523Y-117423809D02*
X122824523Y-117519047D01*
X123062619Y-117471428D02*
X123015000Y-117566666D01*
X123015000Y-117566666D02*
X122919761Y-117661904D01*
X122919761Y-117661904D02*
X122729285Y-117709523D01*
X122729285Y-117709523D02*
X122395952Y-117709523D01*
X122395952Y-117709523D02*
X122205476Y-117661904D01*
X122205476Y-117661904D02*
X122110238Y-117566666D01*
X122110238Y-117566666D02*
X122062619Y-117471428D01*
X122062619Y-117471428D02*
X122062619Y-117280952D01*
X122062619Y-117280952D02*
X122110238Y-117185714D01*
X122110238Y-117185714D02*
X122205476Y-117090476D01*
X122205476Y-117090476D02*
X122395952Y-117042857D01*
X122395952Y-117042857D02*
X122729285Y-117042857D01*
X122729285Y-117042857D02*
X122919761Y-117090476D01*
X122919761Y-117090476D02*
X123015000Y-117185714D01*
X123015000Y-117185714D02*
X123062619Y-117280952D01*
X123062619Y-117280952D02*
X123062619Y-117471428D01*
X122062619Y-116709523D02*
X122062619Y-116090476D01*
X122062619Y-116090476D02*
X122443571Y-116423809D01*
X122443571Y-116423809D02*
X122443571Y-116280952D01*
X122443571Y-116280952D02*
X122491190Y-116185714D01*
X122491190Y-116185714D02*
X122538809Y-116138095D01*
X122538809Y-116138095D02*
X122634047Y-116090476D01*
X122634047Y-116090476D02*
X122872142Y-116090476D01*
X122872142Y-116090476D02*
X122967380Y-116138095D01*
X122967380Y-116138095D02*
X123015000Y-116185714D01*
X123015000Y-116185714D02*
X123062619Y-116280952D01*
X123062619Y-116280952D02*
X123062619Y-116566666D01*
X123062619Y-116566666D02*
X123015000Y-116661904D01*
X123015000Y-116661904D02*
X122967380Y-116709523D01*
X115257857Y-116995238D02*
X115210238Y-117090476D01*
X115210238Y-117090476D02*
X115115000Y-117185714D01*
X115115000Y-117185714D02*
X114972142Y-117328571D01*
X114972142Y-117328571D02*
X114924523Y-117423809D01*
X114924523Y-117423809D02*
X114924523Y-117519047D01*
X115162619Y-117471428D02*
X115115000Y-117566666D01*
X115115000Y-117566666D02*
X115019761Y-117661904D01*
X115019761Y-117661904D02*
X114829285Y-117709523D01*
X114829285Y-117709523D02*
X114495952Y-117709523D01*
X114495952Y-117709523D02*
X114305476Y-117661904D01*
X114305476Y-117661904D02*
X114210238Y-117566666D01*
X114210238Y-117566666D02*
X114162619Y-117471428D01*
X114162619Y-117471428D02*
X114162619Y-117280952D01*
X114162619Y-117280952D02*
X114210238Y-117185714D01*
X114210238Y-117185714D02*
X114305476Y-117090476D01*
X114305476Y-117090476D02*
X114495952Y-117042857D01*
X114495952Y-117042857D02*
X114829285Y-117042857D01*
X114829285Y-117042857D02*
X115019761Y-117090476D01*
X115019761Y-117090476D02*
X115115000Y-117185714D01*
X115115000Y-117185714D02*
X115162619Y-117280952D01*
X115162619Y-117280952D02*
X115162619Y-117471428D01*
X114257857Y-116661904D02*
X114210238Y-116614285D01*
X114210238Y-116614285D02*
X114162619Y-116519047D01*
X114162619Y-116519047D02*
X114162619Y-116280952D01*
X114162619Y-116280952D02*
X114210238Y-116185714D01*
X114210238Y-116185714D02*
X114257857Y-116138095D01*
X114257857Y-116138095D02*
X114353095Y-116090476D01*
X114353095Y-116090476D02*
X114448333Y-116090476D01*
X114448333Y-116090476D02*
X114591190Y-116138095D01*
X114591190Y-116138095D02*
X115162619Y-116709523D01*
X115162619Y-116709523D02*
X115162619Y-116090476D01*
X102695238Y-110042142D02*
X102790476Y-110089761D01*
X102790476Y-110089761D02*
X102885714Y-110185000D01*
X102885714Y-110185000D02*
X103028571Y-110327857D01*
X103028571Y-110327857D02*
X103123809Y-110375476D01*
X103123809Y-110375476D02*
X103219047Y-110375476D01*
X103171428Y-110137380D02*
X103266666Y-110185000D01*
X103266666Y-110185000D02*
X103361904Y-110280238D01*
X103361904Y-110280238D02*
X103409523Y-110470714D01*
X103409523Y-110470714D02*
X103409523Y-110804047D01*
X103409523Y-110804047D02*
X103361904Y-110994523D01*
X103361904Y-110994523D02*
X103266666Y-111089761D01*
X103266666Y-111089761D02*
X103171428Y-111137380D01*
X103171428Y-111137380D02*
X102980952Y-111137380D01*
X102980952Y-111137380D02*
X102885714Y-111089761D01*
X102885714Y-111089761D02*
X102790476Y-110994523D01*
X102790476Y-110994523D02*
X102742857Y-110804047D01*
X102742857Y-110804047D02*
X102742857Y-110470714D01*
X102742857Y-110470714D02*
X102790476Y-110280238D01*
X102790476Y-110280238D02*
X102885714Y-110185000D01*
X102885714Y-110185000D02*
X102980952Y-110137380D01*
X102980952Y-110137380D02*
X103171428Y-110137380D01*
X101790476Y-110137380D02*
X102361904Y-110137380D01*
X102076190Y-110137380D02*
X102076190Y-111137380D01*
X102076190Y-111137380D02*
X102171428Y-110994523D01*
X102171428Y-110994523D02*
X102266666Y-110899285D01*
X102266666Y-110899285D02*
X102361904Y-110851666D01*
X119162619Y-94866666D02*
X119162619Y-95342856D01*
X119162619Y-95342856D02*
X118162619Y-95342856D01*
X119162619Y-94009523D02*
X119162619Y-94580951D01*
X119162619Y-94295237D02*
X118162619Y-94295237D01*
X118162619Y-94295237D02*
X118305476Y-94390475D01*
X118305476Y-94390475D02*
X118400714Y-94485713D01*
X118400714Y-94485713D02*
X118448333Y-94580951D01*
X107702819Y-109495499D02*
X107940914Y-109495499D01*
X107845676Y-109733594D02*
X107940914Y-109495499D01*
X107940914Y-109495499D02*
X107845676Y-109257404D01*
X108131390Y-109638356D02*
X107940914Y-109495499D01*
X107940914Y-109495499D02*
X108131390Y-109352642D01*
X107702819Y-109495499D02*
X107940914Y-109495499D01*
X107845676Y-109733594D02*
X107940914Y-109495499D01*
X107940914Y-109495499D02*
X107845676Y-109257404D01*
X108131390Y-109638356D02*
X107940914Y-109495499D01*
X107940914Y-109495499D02*
X108131390Y-109352642D01*
X104192619Y-154133333D02*
X104906904Y-154133333D01*
X104906904Y-154133333D02*
X105049761Y-154180952D01*
X105049761Y-154180952D02*
X105145000Y-154276190D01*
X105145000Y-154276190D02*
X105192619Y-154419047D01*
X105192619Y-154419047D02*
X105192619Y-154514285D01*
X105192619Y-153133333D02*
X105192619Y-153704761D01*
X105192619Y-153419047D02*
X104192619Y-153419047D01*
X104192619Y-153419047D02*
X104335476Y-153514285D01*
X104335476Y-153514285D02*
X104430714Y-153609523D01*
X104430714Y-153609523D02*
X104478333Y-153704761D01*
X130487380Y-135445205D02*
X131487380Y-135445205D01*
X131487380Y-135445205D02*
X131487380Y-135683300D01*
X131487380Y-135683300D02*
X131439761Y-135826157D01*
X131439761Y-135826157D02*
X131344523Y-135921395D01*
X131344523Y-135921395D02*
X131249285Y-135969014D01*
X131249285Y-135969014D02*
X131058809Y-136016633D01*
X131058809Y-136016633D02*
X130915952Y-136016633D01*
X130915952Y-136016633D02*
X130725476Y-135969014D01*
X130725476Y-135969014D02*
X130630238Y-135921395D01*
X130630238Y-135921395D02*
X130535000Y-135826157D01*
X130535000Y-135826157D02*
X130487380Y-135683300D01*
X130487380Y-135683300D02*
X130487380Y-135445205D01*
X131487380Y-136349967D02*
X131487380Y-137016633D01*
X131487380Y-137016633D02*
X130487380Y-136588062D01*
X104661905Y-117962619D02*
X104661905Y-116962619D01*
X104661905Y-116962619D02*
X104900000Y-116962619D01*
X104900000Y-116962619D02*
X105042857Y-117010238D01*
X105042857Y-117010238D02*
X105138095Y-117105476D01*
X105138095Y-117105476D02*
X105185714Y-117200714D01*
X105185714Y-117200714D02*
X105233333Y-117391190D01*
X105233333Y-117391190D02*
X105233333Y-117534047D01*
X105233333Y-117534047D02*
X105185714Y-117724523D01*
X105185714Y-117724523D02*
X105138095Y-117819761D01*
X105138095Y-117819761D02*
X105042857Y-117915000D01*
X105042857Y-117915000D02*
X104900000Y-117962619D01*
X104900000Y-117962619D02*
X104661905Y-117962619D01*
X106090476Y-116962619D02*
X105900000Y-116962619D01*
X105900000Y-116962619D02*
X105804762Y-117010238D01*
X105804762Y-117010238D02*
X105757143Y-117057857D01*
X105757143Y-117057857D02*
X105661905Y-117200714D01*
X105661905Y-117200714D02*
X105614286Y-117391190D01*
X105614286Y-117391190D02*
X105614286Y-117772142D01*
X105614286Y-117772142D02*
X105661905Y-117867380D01*
X105661905Y-117867380D02*
X105709524Y-117915000D01*
X105709524Y-117915000D02*
X105804762Y-117962619D01*
X105804762Y-117962619D02*
X105995238Y-117962619D01*
X105995238Y-117962619D02*
X106090476Y-117915000D01*
X106090476Y-117915000D02*
X106138095Y-117867380D01*
X106138095Y-117867380D02*
X106185714Y-117772142D01*
X106185714Y-117772142D02*
X106185714Y-117534047D01*
X106185714Y-117534047D02*
X106138095Y-117438809D01*
X106138095Y-117438809D02*
X106090476Y-117391190D01*
X106090476Y-117391190D02*
X105995238Y-117343571D01*
X105995238Y-117343571D02*
X105804762Y-117343571D01*
X105804762Y-117343571D02*
X105709524Y-117391190D01*
X105709524Y-117391190D02*
X105661905Y-117438809D01*
X105661905Y-117438809D02*
X105614286Y-117534047D01*
X137907705Y-115062619D02*
X137907705Y-114062619D01*
X137907705Y-114062619D02*
X138145800Y-114062619D01*
X138145800Y-114062619D02*
X138288657Y-114110238D01*
X138288657Y-114110238D02*
X138383895Y-114205476D01*
X138383895Y-114205476D02*
X138431514Y-114300714D01*
X138431514Y-114300714D02*
X138479133Y-114491190D01*
X138479133Y-114491190D02*
X138479133Y-114634047D01*
X138479133Y-114634047D02*
X138431514Y-114824523D01*
X138431514Y-114824523D02*
X138383895Y-114919761D01*
X138383895Y-114919761D02*
X138288657Y-115015000D01*
X138288657Y-115015000D02*
X138145800Y-115062619D01*
X138145800Y-115062619D02*
X137907705Y-115062619D01*
X139383895Y-114062619D02*
X138907705Y-114062619D01*
X138907705Y-114062619D02*
X138860086Y-114538809D01*
X138860086Y-114538809D02*
X138907705Y-114491190D01*
X138907705Y-114491190D02*
X139002943Y-114443571D01*
X139002943Y-114443571D02*
X139241038Y-114443571D01*
X139241038Y-114443571D02*
X139336276Y-114491190D01*
X139336276Y-114491190D02*
X139383895Y-114538809D01*
X139383895Y-114538809D02*
X139431514Y-114634047D01*
X139431514Y-114634047D02*
X139431514Y-114872142D01*
X139431514Y-114872142D02*
X139383895Y-114967380D01*
X139383895Y-114967380D02*
X139336276Y-115015000D01*
X139336276Y-115015000D02*
X139241038Y-115062619D01*
X139241038Y-115062619D02*
X139002943Y-115062619D01*
X139002943Y-115062619D02*
X138907705Y-115015000D01*
X138907705Y-115015000D02*
X138860086Y-114967380D01*
X125188094Y-135343280D02*
X125188094Y-136343280D01*
X125188094Y-136343280D02*
X124949999Y-136343280D01*
X124949999Y-136343280D02*
X124807142Y-136295661D01*
X124807142Y-136295661D02*
X124711904Y-136200423D01*
X124711904Y-136200423D02*
X124664285Y-136105185D01*
X124664285Y-136105185D02*
X124616666Y-135914709D01*
X124616666Y-135914709D02*
X124616666Y-135771852D01*
X124616666Y-135771852D02*
X124664285Y-135581376D01*
X124664285Y-135581376D02*
X124711904Y-135486138D01*
X124711904Y-135486138D02*
X124807142Y-135390900D01*
X124807142Y-135390900D02*
X124949999Y-135343280D01*
X124949999Y-135343280D02*
X125188094Y-135343280D01*
X123759523Y-136009947D02*
X123759523Y-135343280D01*
X123997618Y-136390900D02*
X124235713Y-135676614D01*
X124235713Y-135676614D02*
X123616666Y-135676614D01*
X109012619Y-146575594D02*
X108012619Y-146575594D01*
X108012619Y-146575594D02*
X108012619Y-146337499D01*
X108012619Y-146337499D02*
X108060238Y-146194642D01*
X108060238Y-146194642D02*
X108155476Y-146099404D01*
X108155476Y-146099404D02*
X108250714Y-146051785D01*
X108250714Y-146051785D02*
X108441190Y-146004166D01*
X108441190Y-146004166D02*
X108584047Y-146004166D01*
X108584047Y-146004166D02*
X108774523Y-146051785D01*
X108774523Y-146051785D02*
X108869761Y-146099404D01*
X108869761Y-146099404D02*
X108965000Y-146194642D01*
X108965000Y-146194642D02*
X109012619Y-146337499D01*
X109012619Y-146337499D02*
X109012619Y-146575594D01*
X108012619Y-145670832D02*
X108012619Y-145051785D01*
X108012619Y-145051785D02*
X108393571Y-145385118D01*
X108393571Y-145385118D02*
X108393571Y-145242261D01*
X108393571Y-145242261D02*
X108441190Y-145147023D01*
X108441190Y-145147023D02*
X108488809Y-145099404D01*
X108488809Y-145099404D02*
X108584047Y-145051785D01*
X108584047Y-145051785D02*
X108822142Y-145051785D01*
X108822142Y-145051785D02*
X108917380Y-145099404D01*
X108917380Y-145099404D02*
X108965000Y-145147023D01*
X108965000Y-145147023D02*
X109012619Y-145242261D01*
X109012619Y-145242261D02*
X109012619Y-145527975D01*
X109012619Y-145527975D02*
X108965000Y-145623213D01*
X108965000Y-145623213D02*
X108917380Y-145670832D01*
X106361905Y-140500119D02*
X106361905Y-139500119D01*
X106361905Y-139500119D02*
X106600000Y-139500119D01*
X106600000Y-139500119D02*
X106742857Y-139547738D01*
X106742857Y-139547738D02*
X106838095Y-139642976D01*
X106838095Y-139642976D02*
X106885714Y-139738214D01*
X106885714Y-139738214D02*
X106933333Y-139928690D01*
X106933333Y-139928690D02*
X106933333Y-140071547D01*
X106933333Y-140071547D02*
X106885714Y-140262023D01*
X106885714Y-140262023D02*
X106838095Y-140357261D01*
X106838095Y-140357261D02*
X106742857Y-140452500D01*
X106742857Y-140452500D02*
X106600000Y-140500119D01*
X106600000Y-140500119D02*
X106361905Y-140500119D01*
X107885714Y-140500119D02*
X107314286Y-140500119D01*
X107600000Y-140500119D02*
X107600000Y-139500119D01*
X107600000Y-139500119D02*
X107504762Y-139642976D01*
X107504762Y-139642976D02*
X107409524Y-139738214D01*
X107409524Y-139738214D02*
X107314286Y-139785833D01*
X115467380Y-146542857D02*
X115515000Y-146590476D01*
X115515000Y-146590476D02*
X115562619Y-146733333D01*
X115562619Y-146733333D02*
X115562619Y-146828571D01*
X115562619Y-146828571D02*
X115515000Y-146971428D01*
X115515000Y-146971428D02*
X115419761Y-147066666D01*
X115419761Y-147066666D02*
X115324523Y-147114285D01*
X115324523Y-147114285D02*
X115134047Y-147161904D01*
X115134047Y-147161904D02*
X114991190Y-147161904D01*
X114991190Y-147161904D02*
X114800714Y-147114285D01*
X114800714Y-147114285D02*
X114705476Y-147066666D01*
X114705476Y-147066666D02*
X114610238Y-146971428D01*
X114610238Y-146971428D02*
X114562619Y-146828571D01*
X114562619Y-146828571D02*
X114562619Y-146733333D01*
X114562619Y-146733333D02*
X114610238Y-146590476D01*
X114610238Y-146590476D02*
X114657857Y-146542857D01*
X114657857Y-146161904D02*
X114610238Y-146114285D01*
X114610238Y-146114285D02*
X114562619Y-146019047D01*
X114562619Y-146019047D02*
X114562619Y-145780952D01*
X114562619Y-145780952D02*
X114610238Y-145685714D01*
X114610238Y-145685714D02*
X114657857Y-145638095D01*
X114657857Y-145638095D02*
X114753095Y-145590476D01*
X114753095Y-145590476D02*
X114848333Y-145590476D01*
X114848333Y-145590476D02*
X114991190Y-145638095D01*
X114991190Y-145638095D02*
X115562619Y-146209523D01*
X115562619Y-146209523D02*
X115562619Y-145590476D01*
X114895952Y-144733333D02*
X115562619Y-144733333D01*
X114515000Y-144971428D02*
X115229285Y-145209523D01*
X115229285Y-145209523D02*
X115229285Y-144590476D01*
X116867380Y-146442857D02*
X116915000Y-146490476D01*
X116915000Y-146490476D02*
X116962619Y-146633333D01*
X116962619Y-146633333D02*
X116962619Y-146728571D01*
X116962619Y-146728571D02*
X116915000Y-146871428D01*
X116915000Y-146871428D02*
X116819761Y-146966666D01*
X116819761Y-146966666D02*
X116724523Y-147014285D01*
X116724523Y-147014285D02*
X116534047Y-147061904D01*
X116534047Y-147061904D02*
X116391190Y-147061904D01*
X116391190Y-147061904D02*
X116200714Y-147014285D01*
X116200714Y-147014285D02*
X116105476Y-146966666D01*
X116105476Y-146966666D02*
X116010238Y-146871428D01*
X116010238Y-146871428D02*
X115962619Y-146728571D01*
X115962619Y-146728571D02*
X115962619Y-146633333D01*
X115962619Y-146633333D02*
X116010238Y-146490476D01*
X116010238Y-146490476D02*
X116057857Y-146442857D01*
X116057857Y-146061904D02*
X116010238Y-146014285D01*
X116010238Y-146014285D02*
X115962619Y-145919047D01*
X115962619Y-145919047D02*
X115962619Y-145680952D01*
X115962619Y-145680952D02*
X116010238Y-145585714D01*
X116010238Y-145585714D02*
X116057857Y-145538095D01*
X116057857Y-145538095D02*
X116153095Y-145490476D01*
X116153095Y-145490476D02*
X116248333Y-145490476D01*
X116248333Y-145490476D02*
X116391190Y-145538095D01*
X116391190Y-145538095D02*
X116962619Y-146109523D01*
X116962619Y-146109523D02*
X116962619Y-145490476D01*
X115962619Y-145157142D02*
X115962619Y-144538095D01*
X115962619Y-144538095D02*
X116343571Y-144871428D01*
X116343571Y-144871428D02*
X116343571Y-144728571D01*
X116343571Y-144728571D02*
X116391190Y-144633333D01*
X116391190Y-144633333D02*
X116438809Y-144585714D01*
X116438809Y-144585714D02*
X116534047Y-144538095D01*
X116534047Y-144538095D02*
X116772142Y-144538095D01*
X116772142Y-144538095D02*
X116867380Y-144585714D01*
X116867380Y-144585714D02*
X116915000Y-144633333D01*
X116915000Y-144633333D02*
X116962619Y-144728571D01*
X116962619Y-144728571D02*
X116962619Y-145014285D01*
X116962619Y-145014285D02*
X116915000Y-145109523D01*
X116915000Y-145109523D02*
X116867380Y-145157142D01*
X123717380Y-146542857D02*
X123765000Y-146590476D01*
X123765000Y-146590476D02*
X123812619Y-146733333D01*
X123812619Y-146733333D02*
X123812619Y-146828571D01*
X123812619Y-146828571D02*
X123765000Y-146971428D01*
X123765000Y-146971428D02*
X123669761Y-147066666D01*
X123669761Y-147066666D02*
X123574523Y-147114285D01*
X123574523Y-147114285D02*
X123384047Y-147161904D01*
X123384047Y-147161904D02*
X123241190Y-147161904D01*
X123241190Y-147161904D02*
X123050714Y-147114285D01*
X123050714Y-147114285D02*
X122955476Y-147066666D01*
X122955476Y-147066666D02*
X122860238Y-146971428D01*
X122860238Y-146971428D02*
X122812619Y-146828571D01*
X122812619Y-146828571D02*
X122812619Y-146733333D01*
X122812619Y-146733333D02*
X122860238Y-146590476D01*
X122860238Y-146590476D02*
X122907857Y-146542857D01*
X122907857Y-146161904D02*
X122860238Y-146114285D01*
X122860238Y-146114285D02*
X122812619Y-146019047D01*
X122812619Y-146019047D02*
X122812619Y-145780952D01*
X122812619Y-145780952D02*
X122860238Y-145685714D01*
X122860238Y-145685714D02*
X122907857Y-145638095D01*
X122907857Y-145638095D02*
X123003095Y-145590476D01*
X123003095Y-145590476D02*
X123098333Y-145590476D01*
X123098333Y-145590476D02*
X123241190Y-145638095D01*
X123241190Y-145638095D02*
X123812619Y-146209523D01*
X123812619Y-146209523D02*
X123812619Y-145590476D01*
X122907857Y-145209523D02*
X122860238Y-145161904D01*
X122860238Y-145161904D02*
X122812619Y-145066666D01*
X122812619Y-145066666D02*
X122812619Y-144828571D01*
X122812619Y-144828571D02*
X122860238Y-144733333D01*
X122860238Y-144733333D02*
X122907857Y-144685714D01*
X122907857Y-144685714D02*
X123003095Y-144638095D01*
X123003095Y-144638095D02*
X123098333Y-144638095D01*
X123098333Y-144638095D02*
X123241190Y-144685714D01*
X123241190Y-144685714D02*
X123812619Y-145257142D01*
X123812619Y-145257142D02*
X123812619Y-144638095D01*
X112954880Y-142680357D02*
X113002500Y-142727976D01*
X113002500Y-142727976D02*
X113050119Y-142870833D01*
X113050119Y-142870833D02*
X113050119Y-142966071D01*
X113050119Y-142966071D02*
X113002500Y-143108928D01*
X113002500Y-143108928D02*
X112907261Y-143204166D01*
X112907261Y-143204166D02*
X112812023Y-143251785D01*
X112812023Y-143251785D02*
X112621547Y-143299404D01*
X112621547Y-143299404D02*
X112478690Y-143299404D01*
X112478690Y-143299404D02*
X112288214Y-143251785D01*
X112288214Y-143251785D02*
X112192976Y-143204166D01*
X112192976Y-143204166D02*
X112097738Y-143108928D01*
X112097738Y-143108928D02*
X112050119Y-142966071D01*
X112050119Y-142966071D02*
X112050119Y-142870833D01*
X112050119Y-142870833D02*
X112097738Y-142727976D01*
X112097738Y-142727976D02*
X112145357Y-142680357D01*
X112145357Y-142299404D02*
X112097738Y-142251785D01*
X112097738Y-142251785D02*
X112050119Y-142156547D01*
X112050119Y-142156547D02*
X112050119Y-141918452D01*
X112050119Y-141918452D02*
X112097738Y-141823214D01*
X112097738Y-141823214D02*
X112145357Y-141775595D01*
X112145357Y-141775595D02*
X112240595Y-141727976D01*
X112240595Y-141727976D02*
X112335833Y-141727976D01*
X112335833Y-141727976D02*
X112478690Y-141775595D01*
X112478690Y-141775595D02*
X113050119Y-142347023D01*
X113050119Y-142347023D02*
X113050119Y-141727976D01*
X113050119Y-140775595D02*
X113050119Y-141347023D01*
X113050119Y-141061309D02*
X112050119Y-141061309D01*
X112050119Y-141061309D02*
X112192976Y-141156547D01*
X112192976Y-141156547D02*
X112288214Y-141251785D01*
X112288214Y-141251785D02*
X112335833Y-141347023D01*
X114367380Y-146542857D02*
X114415000Y-146590476D01*
X114415000Y-146590476D02*
X114462619Y-146733333D01*
X114462619Y-146733333D02*
X114462619Y-146828571D01*
X114462619Y-146828571D02*
X114415000Y-146971428D01*
X114415000Y-146971428D02*
X114319761Y-147066666D01*
X114319761Y-147066666D02*
X114224523Y-147114285D01*
X114224523Y-147114285D02*
X114034047Y-147161904D01*
X114034047Y-147161904D02*
X113891190Y-147161904D01*
X113891190Y-147161904D02*
X113700714Y-147114285D01*
X113700714Y-147114285D02*
X113605476Y-147066666D01*
X113605476Y-147066666D02*
X113510238Y-146971428D01*
X113510238Y-146971428D02*
X113462619Y-146828571D01*
X113462619Y-146828571D02*
X113462619Y-146733333D01*
X113462619Y-146733333D02*
X113510238Y-146590476D01*
X113510238Y-146590476D02*
X113557857Y-146542857D01*
X114462619Y-145590476D02*
X114462619Y-146161904D01*
X114462619Y-145876190D02*
X113462619Y-145876190D01*
X113462619Y-145876190D02*
X113605476Y-145971428D01*
X113605476Y-145971428D02*
X113700714Y-146066666D01*
X113700714Y-146066666D02*
X113748333Y-146161904D01*
X114462619Y-145114285D02*
X114462619Y-144923809D01*
X114462619Y-144923809D02*
X114415000Y-144828571D01*
X114415000Y-144828571D02*
X114367380Y-144780952D01*
X114367380Y-144780952D02*
X114224523Y-144685714D01*
X114224523Y-144685714D02*
X114034047Y-144638095D01*
X114034047Y-144638095D02*
X113653095Y-144638095D01*
X113653095Y-144638095D02*
X113557857Y-144685714D01*
X113557857Y-144685714D02*
X113510238Y-144733333D01*
X113510238Y-144733333D02*
X113462619Y-144828571D01*
X113462619Y-144828571D02*
X113462619Y-145019047D01*
X113462619Y-145019047D02*
X113510238Y-145114285D01*
X113510238Y-145114285D02*
X113557857Y-145161904D01*
X113557857Y-145161904D02*
X113653095Y-145209523D01*
X113653095Y-145209523D02*
X113891190Y-145209523D01*
X113891190Y-145209523D02*
X113986428Y-145161904D01*
X113986428Y-145161904D02*
X114034047Y-145114285D01*
X114034047Y-145114285D02*
X114081666Y-145019047D01*
X114081666Y-145019047D02*
X114081666Y-144828571D01*
X114081666Y-144828571D02*
X114034047Y-144733333D01*
X114034047Y-144733333D02*
X113986428Y-144685714D01*
X113986428Y-144685714D02*
X113891190Y-144638095D01*
X124707142Y-144177074D02*
X124659523Y-144224694D01*
X124659523Y-144224694D02*
X124516666Y-144272313D01*
X124516666Y-144272313D02*
X124421428Y-144272313D01*
X124421428Y-144272313D02*
X124278571Y-144224694D01*
X124278571Y-144224694D02*
X124183333Y-144129455D01*
X124183333Y-144129455D02*
X124135714Y-144034217D01*
X124135714Y-144034217D02*
X124088095Y-143843741D01*
X124088095Y-143843741D02*
X124088095Y-143700884D01*
X124088095Y-143700884D02*
X124135714Y-143510408D01*
X124135714Y-143510408D02*
X124183333Y-143415170D01*
X124183333Y-143415170D02*
X124278571Y-143319932D01*
X124278571Y-143319932D02*
X124421428Y-143272313D01*
X124421428Y-143272313D02*
X124516666Y-143272313D01*
X124516666Y-143272313D02*
X124659523Y-143319932D01*
X124659523Y-143319932D02*
X124707142Y-143367551D01*
X125659523Y-144272313D02*
X125088095Y-144272313D01*
X125373809Y-144272313D02*
X125373809Y-143272313D01*
X125373809Y-143272313D02*
X125278571Y-143415170D01*
X125278571Y-143415170D02*
X125183333Y-143510408D01*
X125183333Y-143510408D02*
X125088095Y-143558027D01*
X126230952Y-143700884D02*
X126135714Y-143653265D01*
X126135714Y-143653265D02*
X126088095Y-143605646D01*
X126088095Y-143605646D02*
X126040476Y-143510408D01*
X126040476Y-143510408D02*
X126040476Y-143462789D01*
X126040476Y-143462789D02*
X126088095Y-143367551D01*
X126088095Y-143367551D02*
X126135714Y-143319932D01*
X126135714Y-143319932D02*
X126230952Y-143272313D01*
X126230952Y-143272313D02*
X126421428Y-143272313D01*
X126421428Y-143272313D02*
X126516666Y-143319932D01*
X126516666Y-143319932D02*
X126564285Y-143367551D01*
X126564285Y-143367551D02*
X126611904Y-143462789D01*
X126611904Y-143462789D02*
X126611904Y-143510408D01*
X126611904Y-143510408D02*
X126564285Y-143605646D01*
X126564285Y-143605646D02*
X126516666Y-143653265D01*
X126516666Y-143653265D02*
X126421428Y-143700884D01*
X126421428Y-143700884D02*
X126230952Y-143700884D01*
X126230952Y-143700884D02*
X126135714Y-143748503D01*
X126135714Y-143748503D02*
X126088095Y-143796122D01*
X126088095Y-143796122D02*
X126040476Y-143891360D01*
X126040476Y-143891360D02*
X126040476Y-144081836D01*
X126040476Y-144081836D02*
X126088095Y-144177074D01*
X126088095Y-144177074D02*
X126135714Y-144224694D01*
X126135714Y-144224694D02*
X126230952Y-144272313D01*
X126230952Y-144272313D02*
X126421428Y-144272313D01*
X126421428Y-144272313D02*
X126516666Y-144224694D01*
X126516666Y-144224694D02*
X126564285Y-144177074D01*
X126564285Y-144177074D02*
X126611904Y-144081836D01*
X126611904Y-144081836D02*
X126611904Y-143891360D01*
X126611904Y-143891360D02*
X126564285Y-143796122D01*
X126564285Y-143796122D02*
X126516666Y-143748503D01*
X126516666Y-143748503D02*
X126421428Y-143700884D01*
X117417380Y-133842857D02*
X117465000Y-133890476D01*
X117465000Y-133890476D02*
X117512619Y-134033333D01*
X117512619Y-134033333D02*
X117512619Y-134128571D01*
X117512619Y-134128571D02*
X117465000Y-134271428D01*
X117465000Y-134271428D02*
X117369761Y-134366666D01*
X117369761Y-134366666D02*
X117274523Y-134414285D01*
X117274523Y-134414285D02*
X117084047Y-134461904D01*
X117084047Y-134461904D02*
X116941190Y-134461904D01*
X116941190Y-134461904D02*
X116750714Y-134414285D01*
X116750714Y-134414285D02*
X116655476Y-134366666D01*
X116655476Y-134366666D02*
X116560238Y-134271428D01*
X116560238Y-134271428D02*
X116512619Y-134128571D01*
X116512619Y-134128571D02*
X116512619Y-134033333D01*
X116512619Y-134033333D02*
X116560238Y-133890476D01*
X116560238Y-133890476D02*
X116607857Y-133842857D01*
X117512619Y-132890476D02*
X117512619Y-133461904D01*
X117512619Y-133176190D02*
X116512619Y-133176190D01*
X116512619Y-133176190D02*
X116655476Y-133271428D01*
X116655476Y-133271428D02*
X116750714Y-133366666D01*
X116750714Y-133366666D02*
X116798333Y-133461904D01*
X116512619Y-131985714D02*
X116512619Y-132461904D01*
X116512619Y-132461904D02*
X116988809Y-132509523D01*
X116988809Y-132509523D02*
X116941190Y-132461904D01*
X116941190Y-132461904D02*
X116893571Y-132366666D01*
X116893571Y-132366666D02*
X116893571Y-132128571D01*
X116893571Y-132128571D02*
X116941190Y-132033333D01*
X116941190Y-132033333D02*
X116988809Y-131985714D01*
X116988809Y-131985714D02*
X117084047Y-131938095D01*
X117084047Y-131938095D02*
X117322142Y-131938095D01*
X117322142Y-131938095D02*
X117417380Y-131985714D01*
X117417380Y-131985714D02*
X117465000Y-132033333D01*
X117465000Y-132033333D02*
X117512619Y-132128571D01*
X117512619Y-132128571D02*
X117512619Y-132366666D01*
X117512619Y-132366666D02*
X117465000Y-132461904D01*
X117465000Y-132461904D02*
X117417380Y-132509523D01*
X106567380Y-146480357D02*
X106615000Y-146527976D01*
X106615000Y-146527976D02*
X106662619Y-146670833D01*
X106662619Y-146670833D02*
X106662619Y-146766071D01*
X106662619Y-146766071D02*
X106615000Y-146908928D01*
X106615000Y-146908928D02*
X106519761Y-147004166D01*
X106519761Y-147004166D02*
X106424523Y-147051785D01*
X106424523Y-147051785D02*
X106234047Y-147099404D01*
X106234047Y-147099404D02*
X106091190Y-147099404D01*
X106091190Y-147099404D02*
X105900714Y-147051785D01*
X105900714Y-147051785D02*
X105805476Y-147004166D01*
X105805476Y-147004166D02*
X105710238Y-146908928D01*
X105710238Y-146908928D02*
X105662619Y-146766071D01*
X105662619Y-146766071D02*
X105662619Y-146670833D01*
X105662619Y-146670833D02*
X105710238Y-146527976D01*
X105710238Y-146527976D02*
X105757857Y-146480357D01*
X106662619Y-145527976D02*
X106662619Y-146099404D01*
X106662619Y-145813690D02*
X105662619Y-145813690D01*
X105662619Y-145813690D02*
X105805476Y-145908928D01*
X105805476Y-145908928D02*
X105900714Y-146004166D01*
X105900714Y-146004166D02*
X105948333Y-146099404D01*
X105995952Y-144670833D02*
X106662619Y-144670833D01*
X105615000Y-144908928D02*
X106329285Y-145147023D01*
X106329285Y-145147023D02*
X106329285Y-144527976D01*
X116217380Y-133480357D02*
X116265000Y-133527976D01*
X116265000Y-133527976D02*
X116312619Y-133670833D01*
X116312619Y-133670833D02*
X116312619Y-133766071D01*
X116312619Y-133766071D02*
X116265000Y-133908928D01*
X116265000Y-133908928D02*
X116169761Y-134004166D01*
X116169761Y-134004166D02*
X116074523Y-134051785D01*
X116074523Y-134051785D02*
X115884047Y-134099404D01*
X115884047Y-134099404D02*
X115741190Y-134099404D01*
X115741190Y-134099404D02*
X115550714Y-134051785D01*
X115550714Y-134051785D02*
X115455476Y-134004166D01*
X115455476Y-134004166D02*
X115360238Y-133908928D01*
X115360238Y-133908928D02*
X115312619Y-133766071D01*
X115312619Y-133766071D02*
X115312619Y-133670833D01*
X115312619Y-133670833D02*
X115360238Y-133527976D01*
X115360238Y-133527976D02*
X115407857Y-133480357D01*
X116312619Y-132527976D02*
X116312619Y-133099404D01*
X116312619Y-132813690D02*
X115312619Y-132813690D01*
X115312619Y-132813690D02*
X115455476Y-132908928D01*
X115455476Y-132908928D02*
X115550714Y-133004166D01*
X115550714Y-133004166D02*
X115598333Y-133099404D01*
X115312619Y-132194642D02*
X115312619Y-131575595D01*
X115312619Y-131575595D02*
X115693571Y-131908928D01*
X115693571Y-131908928D02*
X115693571Y-131766071D01*
X115693571Y-131766071D02*
X115741190Y-131670833D01*
X115741190Y-131670833D02*
X115788809Y-131623214D01*
X115788809Y-131623214D02*
X115884047Y-131575595D01*
X115884047Y-131575595D02*
X116122142Y-131575595D01*
X116122142Y-131575595D02*
X116217380Y-131623214D01*
X116217380Y-131623214D02*
X116265000Y-131670833D01*
X116265000Y-131670833D02*
X116312619Y-131766071D01*
X116312619Y-131766071D02*
X116312619Y-132051785D01*
X116312619Y-132051785D02*
X116265000Y-132147023D01*
X116265000Y-132147023D02*
X116217380Y-132194642D01*
X109430642Y-134200180D02*
X109383023Y-134247800D01*
X109383023Y-134247800D02*
X109240166Y-134295419D01*
X109240166Y-134295419D02*
X109144928Y-134295419D01*
X109144928Y-134295419D02*
X109002071Y-134247800D01*
X109002071Y-134247800D02*
X108906833Y-134152561D01*
X108906833Y-134152561D02*
X108859214Y-134057323D01*
X108859214Y-134057323D02*
X108811595Y-133866847D01*
X108811595Y-133866847D02*
X108811595Y-133723990D01*
X108811595Y-133723990D02*
X108859214Y-133533514D01*
X108859214Y-133533514D02*
X108906833Y-133438276D01*
X108906833Y-133438276D02*
X109002071Y-133343038D01*
X109002071Y-133343038D02*
X109144928Y-133295419D01*
X109144928Y-133295419D02*
X109240166Y-133295419D01*
X109240166Y-133295419D02*
X109383023Y-133343038D01*
X109383023Y-133343038D02*
X109430642Y-133390657D01*
X110383023Y-134295419D02*
X109811595Y-134295419D01*
X110097309Y-134295419D02*
X110097309Y-133295419D01*
X110097309Y-133295419D02*
X110002071Y-133438276D01*
X110002071Y-133438276D02*
X109906833Y-133533514D01*
X109906833Y-133533514D02*
X109811595Y-133581133D01*
X110763976Y-133390657D02*
X110811595Y-133343038D01*
X110811595Y-133343038D02*
X110906833Y-133295419D01*
X110906833Y-133295419D02*
X111144928Y-133295419D01*
X111144928Y-133295419D02*
X111240166Y-133343038D01*
X111240166Y-133343038D02*
X111287785Y-133390657D01*
X111287785Y-133390657D02*
X111335404Y-133485895D01*
X111335404Y-133485895D02*
X111335404Y-133581133D01*
X111335404Y-133581133D02*
X111287785Y-133723990D01*
X111287785Y-133723990D02*
X110716357Y-134295419D01*
X110716357Y-134295419D02*
X111335404Y-134295419D01*
X111907142Y-133504880D02*
X111859523Y-133552500D01*
X111859523Y-133552500D02*
X111716666Y-133600119D01*
X111716666Y-133600119D02*
X111621428Y-133600119D01*
X111621428Y-133600119D02*
X111478571Y-133552500D01*
X111478571Y-133552500D02*
X111383333Y-133457261D01*
X111383333Y-133457261D02*
X111335714Y-133362023D01*
X111335714Y-133362023D02*
X111288095Y-133171547D01*
X111288095Y-133171547D02*
X111288095Y-133028690D01*
X111288095Y-133028690D02*
X111335714Y-132838214D01*
X111335714Y-132838214D02*
X111383333Y-132742976D01*
X111383333Y-132742976D02*
X111478571Y-132647738D01*
X111478571Y-132647738D02*
X111621428Y-132600119D01*
X111621428Y-132600119D02*
X111716666Y-132600119D01*
X111716666Y-132600119D02*
X111859523Y-132647738D01*
X111859523Y-132647738D02*
X111907142Y-132695357D01*
X112859523Y-133600119D02*
X112288095Y-133600119D01*
X112573809Y-133600119D02*
X112573809Y-132600119D01*
X112573809Y-132600119D02*
X112478571Y-132742976D01*
X112478571Y-132742976D02*
X112383333Y-132838214D01*
X112383333Y-132838214D02*
X112288095Y-132885833D01*
X113811904Y-133600119D02*
X113240476Y-133600119D01*
X113526190Y-133600119D02*
X113526190Y-132600119D01*
X113526190Y-132600119D02*
X113430952Y-132742976D01*
X113430952Y-132742976D02*
X113335714Y-132838214D01*
X113335714Y-132838214D02*
X113240476Y-132885833D01*
X118617380Y-133880357D02*
X118665000Y-133927976D01*
X118665000Y-133927976D02*
X118712619Y-134070833D01*
X118712619Y-134070833D02*
X118712619Y-134166071D01*
X118712619Y-134166071D02*
X118665000Y-134308928D01*
X118665000Y-134308928D02*
X118569761Y-134404166D01*
X118569761Y-134404166D02*
X118474523Y-134451785D01*
X118474523Y-134451785D02*
X118284047Y-134499404D01*
X118284047Y-134499404D02*
X118141190Y-134499404D01*
X118141190Y-134499404D02*
X117950714Y-134451785D01*
X117950714Y-134451785D02*
X117855476Y-134404166D01*
X117855476Y-134404166D02*
X117760238Y-134308928D01*
X117760238Y-134308928D02*
X117712619Y-134166071D01*
X117712619Y-134166071D02*
X117712619Y-134070833D01*
X117712619Y-134070833D02*
X117760238Y-133927976D01*
X117760238Y-133927976D02*
X117807857Y-133880357D01*
X118712619Y-132927976D02*
X118712619Y-133499404D01*
X118712619Y-133213690D02*
X117712619Y-133213690D01*
X117712619Y-133213690D02*
X117855476Y-133308928D01*
X117855476Y-133308928D02*
X117950714Y-133404166D01*
X117950714Y-133404166D02*
X117998333Y-133499404D01*
X117712619Y-132308928D02*
X117712619Y-132213690D01*
X117712619Y-132213690D02*
X117760238Y-132118452D01*
X117760238Y-132118452D02*
X117807857Y-132070833D01*
X117807857Y-132070833D02*
X117903095Y-132023214D01*
X117903095Y-132023214D02*
X118093571Y-131975595D01*
X118093571Y-131975595D02*
X118331666Y-131975595D01*
X118331666Y-131975595D02*
X118522142Y-132023214D01*
X118522142Y-132023214D02*
X118617380Y-132070833D01*
X118617380Y-132070833D02*
X118665000Y-132118452D01*
X118665000Y-132118452D02*
X118712619Y-132213690D01*
X118712619Y-132213690D02*
X118712619Y-132308928D01*
X118712619Y-132308928D02*
X118665000Y-132404166D01*
X118665000Y-132404166D02*
X118617380Y-132451785D01*
X118617380Y-132451785D02*
X118522142Y-132499404D01*
X118522142Y-132499404D02*
X118331666Y-132547023D01*
X118331666Y-132547023D02*
X118093571Y-132547023D01*
X118093571Y-132547023D02*
X117903095Y-132499404D01*
X117903095Y-132499404D02*
X117807857Y-132451785D01*
X117807857Y-132451785D02*
X117760238Y-132404166D01*
X117760238Y-132404166D02*
X117712619Y-132308928D01*
X139633333Y-121629880D02*
X139585714Y-121677500D01*
X139585714Y-121677500D02*
X139442857Y-121725119D01*
X139442857Y-121725119D02*
X139347619Y-121725119D01*
X139347619Y-121725119D02*
X139204762Y-121677500D01*
X139204762Y-121677500D02*
X139109524Y-121582261D01*
X139109524Y-121582261D02*
X139061905Y-121487023D01*
X139061905Y-121487023D02*
X139014286Y-121296547D01*
X139014286Y-121296547D02*
X139014286Y-121153690D01*
X139014286Y-121153690D02*
X139061905Y-120963214D01*
X139061905Y-120963214D02*
X139109524Y-120867976D01*
X139109524Y-120867976D02*
X139204762Y-120772738D01*
X139204762Y-120772738D02*
X139347619Y-120725119D01*
X139347619Y-120725119D02*
X139442857Y-120725119D01*
X139442857Y-120725119D02*
X139585714Y-120772738D01*
X139585714Y-120772738D02*
X139633333Y-120820357D01*
X140109524Y-121725119D02*
X140300000Y-121725119D01*
X140300000Y-121725119D02*
X140395238Y-121677500D01*
X140395238Y-121677500D02*
X140442857Y-121629880D01*
X140442857Y-121629880D02*
X140538095Y-121487023D01*
X140538095Y-121487023D02*
X140585714Y-121296547D01*
X140585714Y-121296547D02*
X140585714Y-120915595D01*
X140585714Y-120915595D02*
X140538095Y-120820357D01*
X140538095Y-120820357D02*
X140490476Y-120772738D01*
X140490476Y-120772738D02*
X140395238Y-120725119D01*
X140395238Y-120725119D02*
X140204762Y-120725119D01*
X140204762Y-120725119D02*
X140109524Y-120772738D01*
X140109524Y-120772738D02*
X140061905Y-120820357D01*
X140061905Y-120820357D02*
X140014286Y-120915595D01*
X140014286Y-120915595D02*
X140014286Y-121153690D01*
X140014286Y-121153690D02*
X140061905Y-121248928D01*
X140061905Y-121248928D02*
X140109524Y-121296547D01*
X140109524Y-121296547D02*
X140204762Y-121344166D01*
X140204762Y-121344166D02*
X140395238Y-121344166D01*
X140395238Y-121344166D02*
X140490476Y-121296547D01*
X140490476Y-121296547D02*
X140538095Y-121248928D01*
X140538095Y-121248928D02*
X140585714Y-121153690D01*
X136933333Y-121529880D02*
X136885714Y-121577500D01*
X136885714Y-121577500D02*
X136742857Y-121625119D01*
X136742857Y-121625119D02*
X136647619Y-121625119D01*
X136647619Y-121625119D02*
X136504762Y-121577500D01*
X136504762Y-121577500D02*
X136409524Y-121482261D01*
X136409524Y-121482261D02*
X136361905Y-121387023D01*
X136361905Y-121387023D02*
X136314286Y-121196547D01*
X136314286Y-121196547D02*
X136314286Y-121053690D01*
X136314286Y-121053690D02*
X136361905Y-120863214D01*
X136361905Y-120863214D02*
X136409524Y-120767976D01*
X136409524Y-120767976D02*
X136504762Y-120672738D01*
X136504762Y-120672738D02*
X136647619Y-120625119D01*
X136647619Y-120625119D02*
X136742857Y-120625119D01*
X136742857Y-120625119D02*
X136885714Y-120672738D01*
X136885714Y-120672738D02*
X136933333Y-120720357D01*
X137790476Y-120625119D02*
X137600000Y-120625119D01*
X137600000Y-120625119D02*
X137504762Y-120672738D01*
X137504762Y-120672738D02*
X137457143Y-120720357D01*
X137457143Y-120720357D02*
X137361905Y-120863214D01*
X137361905Y-120863214D02*
X137314286Y-121053690D01*
X137314286Y-121053690D02*
X137314286Y-121434642D01*
X137314286Y-121434642D02*
X137361905Y-121529880D01*
X137361905Y-121529880D02*
X137409524Y-121577500D01*
X137409524Y-121577500D02*
X137504762Y-121625119D01*
X137504762Y-121625119D02*
X137695238Y-121625119D01*
X137695238Y-121625119D02*
X137790476Y-121577500D01*
X137790476Y-121577500D02*
X137838095Y-121529880D01*
X137838095Y-121529880D02*
X137885714Y-121434642D01*
X137885714Y-121434642D02*
X137885714Y-121196547D01*
X137885714Y-121196547D02*
X137838095Y-121101309D01*
X137838095Y-121101309D02*
X137790476Y-121053690D01*
X137790476Y-121053690D02*
X137695238Y-121006071D01*
X137695238Y-121006071D02*
X137504762Y-121006071D01*
X137504762Y-121006071D02*
X137409524Y-121053690D01*
X137409524Y-121053690D02*
X137361905Y-121101309D01*
X137361905Y-121101309D02*
X137314286Y-121196547D01*
X134233333Y-121529880D02*
X134185714Y-121577500D01*
X134185714Y-121577500D02*
X134042857Y-121625119D01*
X134042857Y-121625119D02*
X133947619Y-121625119D01*
X133947619Y-121625119D02*
X133804762Y-121577500D01*
X133804762Y-121577500D02*
X133709524Y-121482261D01*
X133709524Y-121482261D02*
X133661905Y-121387023D01*
X133661905Y-121387023D02*
X133614286Y-121196547D01*
X133614286Y-121196547D02*
X133614286Y-121053690D01*
X133614286Y-121053690D02*
X133661905Y-120863214D01*
X133661905Y-120863214D02*
X133709524Y-120767976D01*
X133709524Y-120767976D02*
X133804762Y-120672738D01*
X133804762Y-120672738D02*
X133947619Y-120625119D01*
X133947619Y-120625119D02*
X134042857Y-120625119D01*
X134042857Y-120625119D02*
X134185714Y-120672738D01*
X134185714Y-120672738D02*
X134233333Y-120720357D01*
X135138095Y-120625119D02*
X134661905Y-120625119D01*
X134661905Y-120625119D02*
X134614286Y-121101309D01*
X134614286Y-121101309D02*
X134661905Y-121053690D01*
X134661905Y-121053690D02*
X134757143Y-121006071D01*
X134757143Y-121006071D02*
X134995238Y-121006071D01*
X134995238Y-121006071D02*
X135090476Y-121053690D01*
X135090476Y-121053690D02*
X135138095Y-121101309D01*
X135138095Y-121101309D02*
X135185714Y-121196547D01*
X135185714Y-121196547D02*
X135185714Y-121434642D01*
X135185714Y-121434642D02*
X135138095Y-121529880D01*
X135138095Y-121529880D02*
X135090476Y-121577500D01*
X135090476Y-121577500D02*
X134995238Y-121625119D01*
X134995238Y-121625119D02*
X134757143Y-121625119D01*
X134757143Y-121625119D02*
X134661905Y-121577500D01*
X134661905Y-121577500D02*
X134614286Y-121529880D01*
X97233333Y-121129880D02*
X97185714Y-121177500D01*
X97185714Y-121177500D02*
X97042857Y-121225119D01*
X97042857Y-121225119D02*
X96947619Y-121225119D01*
X96947619Y-121225119D02*
X96804762Y-121177500D01*
X96804762Y-121177500D02*
X96709524Y-121082261D01*
X96709524Y-121082261D02*
X96661905Y-120987023D01*
X96661905Y-120987023D02*
X96614286Y-120796547D01*
X96614286Y-120796547D02*
X96614286Y-120653690D01*
X96614286Y-120653690D02*
X96661905Y-120463214D01*
X96661905Y-120463214D02*
X96709524Y-120367976D01*
X96709524Y-120367976D02*
X96804762Y-120272738D01*
X96804762Y-120272738D02*
X96947619Y-120225119D01*
X96947619Y-120225119D02*
X97042857Y-120225119D01*
X97042857Y-120225119D02*
X97185714Y-120272738D01*
X97185714Y-120272738D02*
X97233333Y-120320357D01*
X97566667Y-120225119D02*
X98185714Y-120225119D01*
X98185714Y-120225119D02*
X97852381Y-120606071D01*
X97852381Y-120606071D02*
X97995238Y-120606071D01*
X97995238Y-120606071D02*
X98090476Y-120653690D01*
X98090476Y-120653690D02*
X98138095Y-120701309D01*
X98138095Y-120701309D02*
X98185714Y-120796547D01*
X98185714Y-120796547D02*
X98185714Y-121034642D01*
X98185714Y-121034642D02*
X98138095Y-121129880D01*
X98138095Y-121129880D02*
X98090476Y-121177500D01*
X98090476Y-121177500D02*
X97995238Y-121225119D01*
X97995238Y-121225119D02*
X97709524Y-121225119D01*
X97709524Y-121225119D02*
X97614286Y-121177500D01*
X97614286Y-121177500D02*
X97566667Y-121129880D01*
X102383333Y-121167380D02*
X102335714Y-121215000D01*
X102335714Y-121215000D02*
X102192857Y-121262619D01*
X102192857Y-121262619D02*
X102097619Y-121262619D01*
X102097619Y-121262619D02*
X101954762Y-121215000D01*
X101954762Y-121215000D02*
X101859524Y-121119761D01*
X101859524Y-121119761D02*
X101811905Y-121024523D01*
X101811905Y-121024523D02*
X101764286Y-120834047D01*
X101764286Y-120834047D02*
X101764286Y-120691190D01*
X101764286Y-120691190D02*
X101811905Y-120500714D01*
X101811905Y-120500714D02*
X101859524Y-120405476D01*
X101859524Y-120405476D02*
X101954762Y-120310238D01*
X101954762Y-120310238D02*
X102097619Y-120262619D01*
X102097619Y-120262619D02*
X102192857Y-120262619D01*
X102192857Y-120262619D02*
X102335714Y-120310238D01*
X102335714Y-120310238D02*
X102383333Y-120357857D01*
X102764286Y-120357857D02*
X102811905Y-120310238D01*
X102811905Y-120310238D02*
X102907143Y-120262619D01*
X102907143Y-120262619D02*
X103145238Y-120262619D01*
X103145238Y-120262619D02*
X103240476Y-120310238D01*
X103240476Y-120310238D02*
X103288095Y-120357857D01*
X103288095Y-120357857D02*
X103335714Y-120453095D01*
X103335714Y-120453095D02*
X103335714Y-120548333D01*
X103335714Y-120548333D02*
X103288095Y-120691190D01*
X103288095Y-120691190D02*
X102716667Y-121262619D01*
X102716667Y-121262619D02*
X103335714Y-121262619D01*
X99683333Y-121167380D02*
X99635714Y-121215000D01*
X99635714Y-121215000D02*
X99492857Y-121262619D01*
X99492857Y-121262619D02*
X99397619Y-121262619D01*
X99397619Y-121262619D02*
X99254762Y-121215000D01*
X99254762Y-121215000D02*
X99159524Y-121119761D01*
X99159524Y-121119761D02*
X99111905Y-121024523D01*
X99111905Y-121024523D02*
X99064286Y-120834047D01*
X99064286Y-120834047D02*
X99064286Y-120691190D01*
X99064286Y-120691190D02*
X99111905Y-120500714D01*
X99111905Y-120500714D02*
X99159524Y-120405476D01*
X99159524Y-120405476D02*
X99254762Y-120310238D01*
X99254762Y-120310238D02*
X99397619Y-120262619D01*
X99397619Y-120262619D02*
X99492857Y-120262619D01*
X99492857Y-120262619D02*
X99635714Y-120310238D01*
X99635714Y-120310238D02*
X99683333Y-120357857D01*
X100635714Y-121262619D02*
X100064286Y-121262619D01*
X100350000Y-121262619D02*
X100350000Y-120262619D01*
X100350000Y-120262619D02*
X100254762Y-120405476D01*
X100254762Y-120405476D02*
X100159524Y-120500714D01*
X100159524Y-120500714D02*
X100064286Y-120548333D01*
D12*
X145810000Y-119210000D02*
X137090000Y-119210000D01*
X145810000Y-113790000D02*
X137090000Y-113790000D01*
X137090000Y-119210000D02*
X137090000Y-113790000D01*
X147510000Y-117910000D02*
X147510000Y-115090000D01*
X147510000Y-115090000D02*
X145810000Y-113790000D01*
X147510000Y-117910000D02*
X145810000Y-119210000D01*
X100510000Y-114090000D02*
X100510000Y-119510000D01*
X91790000Y-114090000D02*
X100510000Y-114090000D01*
X91790000Y-119510000D02*
X100510000Y-119510000D01*
X90090000Y-115390000D02*
X91790000Y-114090000D01*
X90090000Y-118210000D02*
X91790000Y-119510000D01*
X90090000Y-115390000D02*
X90090000Y-118210000D01*
X120490000Y-132451248D02*
X120490000Y-133873752D01*
X122310000Y-132451248D02*
X122310000Y-133873752D01*
X121572936Y-148727500D02*
X123027064Y-148727500D01*
X121572936Y-150547500D02*
X123027064Y-150547500D01*
X119610000Y-123622936D02*
X119610000Y-125077064D01*
X117790000Y-123622936D02*
X117790000Y-125077064D01*
D13*
X116892661Y-137098000D02*
X116423000Y-137098000D01*
X121777000Y-137567661D02*
X121777000Y-137098000D01*
X121307339Y-142452000D02*
X121777000Y-142452000D01*
X116423000Y-141982339D02*
X116423000Y-142452000D01*
X116423000Y-137098000D02*
X116423000Y-137567661D01*
X121777000Y-137098000D02*
X121307339Y-137098000D01*
X121777000Y-142452000D02*
X121777000Y-141982339D01*
X116423000Y-142452000D02*
X116892661Y-142452000D01*
G36*
X118540499Y-136666200D02*
G01*
X118159499Y-136666200D01*
X118159499Y-136412200D01*
X118540499Y-136412200D01*
X118540499Y-136666200D01*
G37*
G36*
X122462800Y-140215500D02*
G01*
X122208800Y-140215500D01*
X122208800Y-139834499D01*
X122462800Y-139834499D01*
X122462800Y-140215500D01*
G37*
G36*
X118040500Y-143137800D02*
G01*
X117659500Y-143137800D01*
X117659500Y-142883800D01*
X118040500Y-142883800D01*
X118040500Y-143137800D01*
G37*
D12*
X116372936Y-150547500D02*
X117827064Y-150547500D01*
X116372936Y-148727500D02*
X117827064Y-148727500D01*
X130160000Y-142914564D02*
X130160000Y-141460436D01*
X128340000Y-142914564D02*
X128340000Y-141460436D01*
X130815300Y-146114564D02*
X130815300Y-144660436D01*
X132635300Y-146114564D02*
X132635300Y-144660436D01*
X130840000Y-141014564D02*
X130840000Y-139560436D01*
X132660000Y-141014564D02*
X132660000Y-139560436D01*
X104640000Y-146514564D02*
X104640000Y-145060436D01*
X106460000Y-146514564D02*
X106460000Y-145060436D01*
X106560000Y-137460436D02*
X106560000Y-138914564D01*
X104740000Y-137460436D02*
X104740000Y-138914564D01*
X102340000Y-138914564D02*
X102340000Y-137460436D01*
X104160000Y-138914564D02*
X104160000Y-137460436D01*
X110827064Y-135247500D02*
X109372936Y-135247500D01*
X110827064Y-133427500D02*
X109372936Y-133427500D01*
X110677064Y-140485000D02*
X109222936Y-140485000D01*
X110677064Y-138665000D02*
X109222936Y-138665000D01*
X110727064Y-137785000D02*
X109272936Y-137785000D01*
X110727064Y-135965000D02*
X109272936Y-135965000D01*
X104160000Y-144014564D02*
X104160000Y-142560436D01*
X102340000Y-144014564D02*
X102340000Y-142560436D01*
X130060000Y-147560436D02*
X130060000Y-149014564D01*
X128240000Y-147560436D02*
X128240000Y-149014564D01*
X108622936Y-150447500D02*
X110077064Y-150447500D01*
X108622936Y-148627500D02*
X110077064Y-148627500D01*
D13*
X137124200Y-107846360D02*
X137124200Y-107671100D01*
X137124200Y-109116360D02*
X137124200Y-108943640D01*
X137124200Y-110386360D02*
X137124200Y-110213640D01*
X137124200Y-111656360D02*
X137124200Y-111483640D01*
X130875800Y-112753640D02*
X130875800Y-112928900D01*
X130875800Y-111483640D02*
X130875800Y-111656360D01*
X130875800Y-110213640D02*
X130875800Y-110386360D01*
X130875800Y-108943640D02*
X130875800Y-109116360D01*
X130875800Y-107671100D02*
X130875800Y-107846360D01*
X137124200Y-107671100D02*
X130875800Y-107671100D01*
X137124200Y-112928900D02*
X137124200Y-112753640D01*
X130875800Y-112928900D02*
X137124200Y-112928900D01*
X125228900Y-120024200D02*
X125228900Y-113775800D01*
X125228900Y-113775800D02*
X125053640Y-113775800D01*
X119971100Y-113775800D02*
X119971100Y-120024200D01*
X119971100Y-120024200D02*
X120146360Y-120024200D01*
X121243640Y-120024200D02*
X121416360Y-120024200D01*
X122513640Y-120024200D02*
X122686360Y-120024200D01*
X123783640Y-120024200D02*
X123956360Y-120024200D01*
X125053640Y-120024200D02*
X125228900Y-120024200D01*
X123956360Y-113775800D02*
X123783640Y-113775800D01*
X122686360Y-113775800D02*
X122513640Y-113775800D01*
X121416360Y-113775800D02*
X121243640Y-113775800D01*
X120146360Y-113775800D02*
X119971100Y-113775800D01*
X112246360Y-113775800D02*
X112071100Y-113775800D01*
X113516360Y-113775800D02*
X113343640Y-113775800D01*
X114786360Y-113775800D02*
X114613640Y-113775800D01*
X116056360Y-113775800D02*
X115883640Y-113775800D01*
X117153640Y-120024200D02*
X117328900Y-120024200D01*
X115883640Y-120024200D02*
X116056360Y-120024200D01*
X114613640Y-120024200D02*
X114786360Y-120024200D01*
X113343640Y-120024200D02*
X113516360Y-120024200D01*
X112071100Y-120024200D02*
X112246360Y-120024200D01*
X112071100Y-113775800D02*
X112071100Y-120024200D01*
X117328900Y-113775800D02*
X117153640Y-113775800D01*
X117328900Y-120024200D02*
X117328900Y-113775800D01*
X105724200Y-107971100D02*
X99475800Y-107971100D01*
X99475800Y-107971100D02*
X99475800Y-108146360D01*
X99475800Y-113228900D02*
X105724200Y-113228900D01*
X105724200Y-113228900D02*
X105724200Y-113053640D01*
X105724200Y-111956360D02*
X105724200Y-111783640D01*
X105724200Y-110686360D02*
X105724200Y-110513640D01*
X105724200Y-109416360D02*
X105724200Y-109243640D01*
X105724200Y-108146360D02*
X105724200Y-107971100D01*
X99475800Y-109243640D02*
X99475800Y-109416360D01*
X99475800Y-110513640D02*
X99475800Y-110686360D01*
X99475800Y-111783640D02*
X99475800Y-111956360D01*
X99475800Y-113053640D02*
X99475800Y-113228900D01*
X132822400Y-104529800D02*
X132822400Y-84870200D01*
X132822400Y-84870200D02*
X104577600Y-84870200D01*
X104577600Y-84870200D02*
X104577600Y-104529800D01*
X104577600Y-104529800D02*
X132822400Y-104529800D01*
D12*
X107060000Y-155130000D02*
X105730000Y-155130000D01*
X108330000Y-152470000D02*
X131250000Y-152470000D01*
X108330000Y-155130000D02*
X131250000Y-155130000D01*
X105730000Y-155130000D02*
X105730000Y-153800000D01*
X108330000Y-155130000D02*
X108330000Y-152470000D01*
X131250000Y-155130000D02*
X131250000Y-152470000D01*
D13*
X129595540Y-138858500D02*
X130037500Y-138858500D01*
X127304460Y-133016500D02*
X126862500Y-133016500D01*
X130037500Y-133016500D02*
X129595540Y-133016500D01*
X130037500Y-138858500D02*
X130037500Y-133016500D01*
X126862500Y-138858500D02*
X127304460Y-138858500D01*
X126862500Y-133016500D02*
X126862500Y-138858500D01*
X129085000Y-132381500D02*
X127815000Y-132381500D01*
X128450000Y-131619500D02*
X128323000Y-132381500D01*
X128450000Y-131619500D02*
X128196000Y-132381500D01*
X128450000Y-131619500D02*
X128069000Y-132381500D01*
X128450000Y-131619500D02*
X127942000Y-132381500D01*
X128450000Y-131619500D02*
X127815000Y-132381500D01*
X128450000Y-131619500D02*
X128577000Y-132381500D01*
X128450000Y-131619500D02*
X128704000Y-132381500D01*
X128450000Y-131619500D02*
X128831000Y-132381500D01*
X128450000Y-131619500D02*
X128958000Y-132381500D01*
X128450000Y-131619500D02*
X129085000Y-132381500D01*
X129085000Y-131619500D02*
X127815000Y-131619500D01*
X128450000Y-132635500D02*
X128450000Y-131365500D01*
X108400000Y-115298000D02*
X108400000Y-114028000D01*
X109035000Y-114282000D02*
X107765000Y-114282000D01*
X108400000Y-114282000D02*
X109035000Y-115044000D01*
X108400000Y-114282000D02*
X108908000Y-115044000D01*
X108400000Y-114282000D02*
X108781000Y-115044000D01*
X108400000Y-114282000D02*
X108654000Y-115044000D01*
X108400000Y-114282000D02*
X108527000Y-115044000D01*
X108400000Y-114282000D02*
X107765000Y-115044000D01*
X108400000Y-114282000D02*
X107892000Y-115044000D01*
X108400000Y-114282000D02*
X108019000Y-115044000D01*
X108400000Y-114282000D02*
X108146000Y-115044000D01*
X108400000Y-114282000D02*
X108273000Y-115044000D01*
X109035000Y-115044000D02*
X107765000Y-115044000D01*
X106812500Y-115679000D02*
X106812500Y-121521000D01*
X106812500Y-121521000D02*
X107254460Y-121521000D01*
X109987500Y-121521000D02*
X109987500Y-115679000D01*
X109987500Y-115679000D02*
X109545540Y-115679000D01*
X107254460Y-115679000D02*
X106812500Y-115679000D01*
X109545540Y-121521000D02*
X109987500Y-121521000D01*
X129124800Y-116845540D02*
X129124800Y-117287500D01*
X134966800Y-114554460D02*
X134966800Y-114112500D01*
X134966800Y-117287500D02*
X134966800Y-116845540D01*
X129124800Y-117287500D02*
X134966800Y-117287500D01*
X129124800Y-114112500D02*
X129124800Y-114554460D01*
X134966800Y-114112500D02*
X129124800Y-114112500D01*
X135601800Y-116335000D02*
X135601800Y-115065000D01*
X136363800Y-115700000D02*
X135601800Y-115573000D01*
X136363800Y-115700000D02*
X135601800Y-115446000D01*
X136363800Y-115700000D02*
X135601800Y-115319000D01*
X136363800Y-115700000D02*
X135601800Y-115192000D01*
X136363800Y-115700000D02*
X135601800Y-115065000D01*
X136363800Y-115700000D02*
X135601800Y-115827000D01*
X136363800Y-115700000D02*
X135601800Y-115954000D01*
X136363800Y-115700000D02*
X135601800Y-116081000D01*
X136363800Y-115700000D02*
X135601800Y-116208000D01*
X136363800Y-115700000D02*
X135601800Y-116335000D01*
X136363800Y-116335000D02*
X136363800Y-115065000D01*
X135347800Y-115700000D02*
X136617800Y-115700000D01*
X124550000Y-132589700D02*
X124550000Y-131319700D01*
X125185000Y-131573700D02*
X123915000Y-131573700D01*
X124550000Y-131573700D02*
X125185000Y-132335700D01*
X124550000Y-131573700D02*
X125058000Y-132335700D01*
X124550000Y-131573700D02*
X124931000Y-132335700D01*
X124550000Y-131573700D02*
X124804000Y-132335700D01*
X124550000Y-131573700D02*
X124677000Y-132335700D01*
X124550000Y-131573700D02*
X123915000Y-132335700D01*
X124550000Y-131573700D02*
X124042000Y-132335700D01*
X124550000Y-131573700D02*
X124169000Y-132335700D01*
X124550000Y-131573700D02*
X124296000Y-132335700D01*
X124550000Y-131573700D02*
X124423000Y-132335700D01*
X125185000Y-132335700D02*
X123915000Y-132335700D01*
X122962500Y-132970700D02*
X122962500Y-138812700D01*
X122962500Y-138812700D02*
X123404460Y-138812700D01*
X126137500Y-138812700D02*
X126137500Y-132970700D01*
X126137500Y-132970700D02*
X125695540Y-132970700D01*
X123404460Y-132970700D02*
X122962500Y-132970700D01*
X125695540Y-138812700D02*
X126137500Y-138812700D01*
D12*
X109550000Y-148197500D02*
X111550000Y-148197500D01*
X109550000Y-148197500D02*
X109550000Y-144187500D01*
X111550000Y-148197500D02*
X111550000Y-144187500D01*
X104740000Y-141037500D02*
X104740000Y-143037500D01*
X104740000Y-141037500D02*
X108750000Y-141037500D01*
X104740000Y-143037500D02*
X108750000Y-143037500D01*
X114160000Y-145188748D02*
X114160000Y-146611252D01*
X112340000Y-145188748D02*
X112340000Y-146611252D01*
X117440000Y-146511252D02*
X117440000Y-145088748D01*
X119260000Y-146511252D02*
X119260000Y-145088748D01*
X122260000Y-146511252D02*
X122260000Y-145088748D01*
X120440000Y-146511252D02*
X120440000Y-145088748D01*
X111876248Y-141227500D02*
X113298752Y-141227500D01*
X111876248Y-143047500D02*
X113298752Y-143047500D01*
X114940000Y-146611252D02*
X114940000Y-145188748D01*
X116760000Y-146611252D02*
X116760000Y-145188748D01*
D13*
X126932738Y-147736686D02*
X127626996Y-147736686D01*
X123767262Y-139882702D02*
X123073004Y-139882702D01*
X127626996Y-139882702D02*
X126932738Y-139882702D01*
X127626996Y-147736686D02*
X127626996Y-139882702D01*
X123073004Y-147736686D02*
X123767262Y-147736686D01*
X123073004Y-139882702D02*
X123073004Y-147736686D01*
X125731000Y-138239703D02*
X124969000Y-138239703D01*
X125350000Y-138620703D02*
X125350000Y-137858703D01*
D12*
X117990000Y-133911252D02*
X117990000Y-132488748D01*
X119810000Y-133911252D02*
X119810000Y-132488748D01*
X107140000Y-146548752D02*
X107140000Y-145126248D01*
X108960000Y-146548752D02*
X108960000Y-145126248D01*
X114910000Y-132126248D02*
X114910000Y-133548752D01*
X113090000Y-132126248D02*
X113090000Y-133548752D01*
X110784752Y-132892800D02*
X109362248Y-132892800D01*
X110784752Y-131072800D02*
X109362248Y-131072800D01*
X112990000Y-138986252D02*
X112990000Y-137563748D01*
X114810000Y-138986252D02*
X114810000Y-137563748D01*
X117310000Y-132526248D02*
X117310000Y-133948752D01*
X115490000Y-132526248D02*
X115490000Y-133948752D01*
X140710000Y-125311252D02*
X140710000Y-123888748D01*
X138890000Y-125311252D02*
X138890000Y-123888748D01*
X138060000Y-125311252D02*
X138060000Y-123888748D01*
X136240000Y-125311252D02*
X136240000Y-123888748D01*
X135410000Y-125273752D02*
X135410000Y-123851248D01*
X133590000Y-125273752D02*
X133590000Y-123851248D01*
X98410000Y-125011252D02*
X98410000Y-123588748D01*
X96590000Y-125011252D02*
X96590000Y-123588748D01*
X103310000Y-125011252D02*
X103310000Y-123588748D01*
X101490000Y-125011252D02*
X101490000Y-123588748D01*
X100860000Y-125011252D02*
X100860000Y-123588748D01*
X99040000Y-125011252D02*
X99040000Y-123588748D01*
%LPC*%
G36*
X131764800Y-111201700D02*
G01*
X131180600Y-111201700D01*
X131180600Y-108128300D01*
X131764800Y-108128300D01*
X131764800Y-111201700D01*
G37*
G36*
X136413000Y-112497100D02*
G01*
X132603000Y-112497100D01*
X132603000Y-108102900D01*
X136413000Y-108102900D01*
X136413000Y-112497100D01*
G37*
G36*
X124797100Y-118297000D02*
G01*
X120402900Y-118297000D01*
X120402900Y-114487000D01*
X124797100Y-114487000D01*
X124797100Y-118297000D01*
G37*
G36*
X123501700Y-119719400D02*
G01*
X120428300Y-119719400D01*
X120428300Y-119135200D01*
X123501700Y-119135200D01*
X123501700Y-119719400D01*
G37*
G36*
X115601700Y-119719400D02*
G01*
X112528300Y-119719400D01*
X112528300Y-119135200D01*
X115601700Y-119135200D01*
X115601700Y-119719400D01*
G37*
G36*
X116897100Y-118297000D02*
G01*
X112502900Y-118297000D01*
X112502900Y-114487000D01*
X116897100Y-114487000D01*
X116897100Y-118297000D01*
G37*
G36*
X103997000Y-112797100D02*
G01*
X100187000Y-112797100D01*
X100187000Y-108402900D01*
X103997000Y-108402900D01*
X103997000Y-112797100D01*
G37*
G36*
X105419400Y-112771700D02*
G01*
X104835200Y-112771700D01*
X104835200Y-109698300D01*
X105419400Y-109698300D01*
X105419400Y-112771700D01*
G37*
D14*
X139800000Y-116500000D03*
D15*
X144800000Y-116500000D03*
D16*
X97800000Y-116800000D03*
D15*
X92800000Y-116800000D03*
D17*
X121400000Y-131600000D03*
X121400000Y-134725000D03*
D18*
X120750000Y-149637500D03*
X123850000Y-149637500D03*
D19*
X118700000Y-122800000D03*
X118700000Y-125900000D03*
D20*
X119100000Y-139775000D03*
D21*
X117350001Y-137322600D03*
X117850000Y-137322600D03*
X118349999Y-137322600D03*
X118850000Y-137322600D03*
X119350000Y-137322600D03*
X119850001Y-137322600D03*
X120350000Y-137322600D03*
X120849999Y-137322600D03*
D22*
X121552400Y-138025001D03*
X121552400Y-138525000D03*
X121552400Y-139024999D03*
X121552400Y-139525000D03*
X121552400Y-140025000D03*
X121552400Y-140525001D03*
X121552400Y-141025000D03*
X121552400Y-141524999D03*
D21*
X120849999Y-142227400D03*
X120350000Y-142227400D03*
X119850001Y-142227400D03*
X119350000Y-142227400D03*
X118850000Y-142227400D03*
X118349999Y-142227400D03*
X117850000Y-142227400D03*
X117350001Y-142227400D03*
D22*
X116647600Y-141524999D03*
X116647600Y-141025000D03*
X116647600Y-140525001D03*
X116647600Y-140025000D03*
X116647600Y-139525000D03*
X116647600Y-139024999D03*
X116647600Y-138525000D03*
X116647600Y-138025001D03*
D18*
X118650000Y-149637500D03*
X115550000Y-149637500D03*
D23*
X129250000Y-140637500D03*
X129250000Y-143737500D03*
X131725300Y-146937500D03*
X131725300Y-143837500D03*
X131750000Y-141837500D03*
X131750000Y-138737500D03*
X105550000Y-147337500D03*
X105550000Y-144237500D03*
D19*
X105650000Y-136637500D03*
X105650000Y-139737500D03*
D23*
X103250000Y-139737500D03*
X103250000Y-136637500D03*
D24*
X111650000Y-134337500D03*
X108550000Y-134337500D03*
X111500000Y-139575000D03*
X108400000Y-139575000D03*
X111550000Y-136875000D03*
X108450000Y-136875000D03*
D23*
X103250000Y-141737500D03*
X103250000Y-144837500D03*
D19*
X129150000Y-146737500D03*
X129150000Y-149837500D03*
D18*
X110900000Y-149537500D03*
X107800000Y-149537500D03*
D25*
X136895600Y-108395000D03*
X136895600Y-110935000D03*
D26*
X131193300Y-110935000D03*
D25*
X136895600Y-109665000D03*
X136895600Y-112205000D03*
D26*
X131193300Y-112205000D03*
X131193300Y-109665000D03*
X131193300Y-108395000D03*
D27*
X120695000Y-119706700D03*
X121965000Y-119706700D03*
X124505000Y-119706700D03*
D28*
X124505000Y-114004400D03*
X121965000Y-114004400D03*
D27*
X123235000Y-119706700D03*
D28*
X123235000Y-114004400D03*
X120695000Y-114004400D03*
X112795000Y-114004400D03*
X115335000Y-114004400D03*
D27*
X115335000Y-119706700D03*
D28*
X114065000Y-114004400D03*
X116605000Y-114004400D03*
D27*
X116605000Y-119706700D03*
X114065000Y-119706700D03*
X112795000Y-119706700D03*
D26*
X105406700Y-112505000D03*
X105406700Y-111235000D03*
X105406700Y-108695000D03*
D25*
X99704400Y-108695000D03*
X99704400Y-111235000D03*
D26*
X105406700Y-109965000D03*
D25*
X99704400Y-109965000D03*
X99704400Y-112505000D03*
D29*
X113625001Y-109241500D03*
X123774999Y-109241500D03*
D30*
X129920000Y-153800000D03*
X127380000Y-153800000D03*
X124840000Y-153800000D03*
X122300000Y-153800000D03*
X119760000Y-153800000D03*
X117220000Y-153800000D03*
X114680000Y-153800000D03*
X112140000Y-153800000D03*
X109600000Y-153800000D03*
D31*
X107060000Y-153800000D03*
D32*
X128450000Y-137791700D03*
X128450000Y-134083300D03*
X108400000Y-116745800D03*
X108400000Y-120454200D03*
D33*
X130191600Y-115700000D03*
X133900000Y-115700000D03*
D32*
X124550000Y-134037500D03*
X124550000Y-137745900D03*
D34*
X110550000Y-144187500D03*
X110550000Y-147487500D03*
D35*
X108750000Y-142037500D03*
X105450000Y-142037500D03*
D17*
X113250000Y-147462500D03*
X113250000Y-144337500D03*
D36*
X118350000Y-144237500D03*
X118350000Y-147362500D03*
X121350000Y-147362500D03*
X121350000Y-144237500D03*
D37*
X114150000Y-142137500D03*
X111025000Y-142137500D03*
D36*
X115850000Y-144337500D03*
X115850000Y-147462500D03*
D38*
X125350000Y-146481888D03*
X125350000Y-141137500D03*
D36*
X118900000Y-131637500D03*
X118900000Y-134762500D03*
X108050000Y-144275000D03*
X108050000Y-147400000D03*
D17*
X114000000Y-134400000D03*
X114000000Y-131275000D03*
D39*
X108511000Y-131982800D03*
X111636000Y-131982800D03*
D36*
X113900000Y-136712500D03*
X113900000Y-139837500D03*
D17*
X116400000Y-134800000D03*
X116400000Y-131675000D03*
D36*
X139800000Y-126162500D03*
X139800000Y-123037500D03*
X137150000Y-126162500D03*
X137150000Y-123037500D03*
X134500000Y-126125000D03*
X134500000Y-123000000D03*
X97500000Y-125862500D03*
X97500000Y-122737500D03*
X102400000Y-125862500D03*
X102400000Y-122737500D03*
X99950000Y-125862500D03*
X99950000Y-122737500D03*
M02*
