G04 #@! TF.GenerationSoftware,KiCad,Pcbnew,7.0.1*
G04 #@! TF.CreationDate,2023-11-01T02:09:25-07:00*
G04 #@! TF.ProjectId,KENESP32LTC370TEST,4b454e45-5350-4333-924c-544333373054,rev?*
G04 #@! TF.SameCoordinates,Original*
G04 #@! TF.FileFunction,Copper,L2,Bot*
G04 #@! TF.FilePolarity,Positive*
%FSLAX46Y46*%
G04 Gerber Fmt 4.6, Leading zero omitted, Abs format (unit mm)*
G04 Created by KiCad (PCBNEW 7.0.1) date 2023-11-01 02:09:25*
%MOMM*%
%LPD*%
G01*
G04 APERTURE LIST*
G04 #@! TA.AperFunction,ComponentPad*
%ADD10C,4.000000*%
G04 #@! TD*
G04 #@! TA.AperFunction,ComponentPad*
%ADD11R,3.800000X3.800000*%
G04 #@! TD*
G04 #@! TA.AperFunction,ComponentPad*
%ADD12C,3.800000*%
G04 #@! TD*
G04 #@! TA.AperFunction,ComponentPad*
%ADD13O,1.700000X1.700000*%
G04 #@! TD*
G04 #@! TA.AperFunction,ComponentPad*
%ADD14R,1.700000X1.700000*%
G04 #@! TD*
G04 #@! TA.AperFunction,ViaPad*
%ADD15C,0.800000*%
G04 #@! TD*
G04 #@! TA.AperFunction,ViaPad*
%ADD16C,1.500000*%
G04 #@! TD*
G04 #@! TA.AperFunction,Conductor*
%ADD17C,0.250000*%
G04 #@! TD*
G04 #@! TA.AperFunction,Conductor*
%ADD18C,0.200000*%
G04 #@! TD*
G04 APERTURE END LIST*
D10*
X139800000Y-116500000D03*
D11*
X144800000Y-116500000D03*
D12*
X97800000Y-116800000D03*
D11*
X92800000Y-116800000D03*
D13*
X129920000Y-153800000D03*
X127380000Y-153800000D03*
X124840000Y-153800000D03*
X122300000Y-153800000D03*
X119760000Y-153800000D03*
X117220000Y-153800000D03*
X114680000Y-153800000D03*
X112140000Y-153800000D03*
X109600000Y-153800000D03*
D14*
X107060000Y-153800000D03*
D15*
X134625500Y-150800000D03*
X127150000Y-150150000D03*
X124500000Y-147400000D03*
X132500000Y-152800000D03*
X111000000Y-151400000D03*
X113200000Y-151324500D03*
X110200000Y-135800000D03*
X132000000Y-148400000D03*
X101300000Y-140700000D03*
X118800000Y-140700000D03*
X106500000Y-141000000D03*
X103500000Y-138100000D03*
X131158097Y-149284609D03*
X127850000Y-147725402D03*
X111600000Y-136800000D03*
X126400000Y-135900000D03*
X106100000Y-131300000D03*
X130500000Y-130600000D03*
X115900000Y-136400000D03*
X113600000Y-148725999D03*
X145100000Y-141300000D03*
X95900000Y-142300000D03*
X115800000Y-147200000D03*
X118400000Y-147300000D03*
X103199999Y-147600001D03*
X103200000Y-152900000D03*
X102824500Y-143109964D03*
X106200000Y-148725999D03*
X117100000Y-146000000D03*
X130412299Y-147912299D03*
X131289018Y-150275500D03*
X121100000Y-134400000D03*
X126058700Y-149618988D03*
X103250002Y-144837499D03*
X121344240Y-146100000D03*
X119222740Y-149122740D03*
X135153105Y-135246895D03*
X134573502Y-138432779D03*
X130800000Y-124500000D03*
X134725500Y-136943770D03*
X133000000Y-134500000D03*
X105800000Y-134000000D03*
X105700000Y-124500000D03*
X105600000Y-135100000D03*
D16*
X129400000Y-127300000D03*
X143000000Y-127200000D03*
X107000000Y-126500000D03*
X114800000Y-127600000D03*
X94200000Y-125900000D03*
X97000000Y-112000000D03*
X139700000Y-111800000D03*
X127100000Y-112400000D03*
X108800000Y-112100000D03*
X111100000Y-122500000D03*
X129200000Y-121800000D03*
X118700000Y-120700000D03*
X137200000Y-120500000D03*
X99900000Y-120600000D03*
X113600000Y-109300000D03*
X123800000Y-109200000D03*
D15*
X114100000Y-142600000D03*
X131700000Y-141800000D03*
X120256600Y-138702793D03*
X111500000Y-132000000D03*
X114000000Y-131200000D03*
X118900000Y-131500000D03*
X116300000Y-131600000D03*
X110600000Y-144100000D03*
X107524077Y-143263594D03*
X113200000Y-144300000D03*
X106224500Y-139700000D03*
X108800000Y-142000000D03*
X111000000Y-142100000D03*
X131800000Y-138700000D03*
X106224500Y-136700000D03*
X118900000Y-134800000D03*
X128223502Y-130876498D03*
X128300000Y-134600000D03*
X131608202Y-136889816D03*
X122793304Y-140368369D03*
X122831166Y-138919369D03*
X123000000Y-131700000D03*
X120588054Y-136111946D03*
X115400000Y-140100000D03*
X114000000Y-134900000D03*
X114040574Y-138497904D03*
X115575250Y-143050652D03*
X115500000Y-141549000D03*
X131200000Y-112200000D03*
X116600000Y-119700000D03*
D17*
X105000000Y-124500000D02*
X105700000Y-124500000D01*
X135450000Y-135543790D02*
X135153105Y-135246895D01*
X113764501Y-155424501D02*
X134375499Y-155424501D01*
X135450000Y-154350000D02*
X135450000Y-135543790D01*
X112140000Y-153800000D02*
X113764501Y-155424501D01*
X134375499Y-155424501D02*
X135450000Y-154350000D01*
X134631632Y-136943770D02*
X134725500Y-136943770D01*
X131175402Y-140400000D02*
X134631632Y-136943770D01*
X122824935Y-140400000D02*
X131175402Y-140400000D01*
X122793304Y-140368369D02*
X122824935Y-140400000D01*
X122043576Y-137567468D02*
X122043576Y-140643240D01*
X131092995Y-141118097D02*
X133778313Y-138432779D01*
X122043576Y-140643240D02*
X122518433Y-141118097D01*
X133778313Y-138432779D02*
X134573502Y-138432779D01*
X122518433Y-141118097D02*
X131092995Y-141118097D01*
X120588054Y-136111946D02*
X122043576Y-137567468D01*
X114000000Y-138457330D02*
X114000000Y-134900000D01*
X114040574Y-138497904D02*
X114000000Y-138457330D01*
D18*
X127380000Y-153800000D02*
X128043095Y-153800000D01*
X130377537Y-150065169D02*
X131158097Y-149284609D01*
X128043095Y-153800000D02*
X130377537Y-151465558D01*
D17*
X132275500Y-150275500D02*
X131289018Y-150275500D01*
X134200000Y-154400000D02*
X134200000Y-152200000D01*
X133625000Y-154975000D02*
X134200000Y-154400000D01*
X114680000Y-153800000D02*
X115855000Y-154975000D01*
X115855000Y-154975000D02*
X133625000Y-154975000D01*
D18*
X130377537Y-151465558D02*
X130377537Y-150065169D01*
D17*
X134200000Y-152200000D02*
X132275500Y-150275500D01*
X129387701Y-147912299D02*
X130412299Y-147912299D01*
X128400000Y-149400000D02*
X128400000Y-148900000D01*
X128744756Y-152498004D02*
X129953036Y-151289724D01*
X129953036Y-151289724D02*
X129953036Y-150953036D01*
X129953036Y-150953036D02*
X128400000Y-149400000D01*
X126141996Y-152498004D02*
X128744756Y-152498004D01*
X124840000Y-153800000D02*
X126141996Y-152498004D01*
X128400000Y-148900000D02*
X129387701Y-147912299D01*
X124051497Y-152048503D02*
X122300000Y-153800000D01*
X128558567Y-152048503D02*
X124051497Y-152048503D01*
X129485690Y-151121380D02*
X128558567Y-152048503D01*
X123464310Y-145100000D02*
X129485690Y-151121380D01*
X113200000Y-142800000D02*
X115500000Y-145100000D01*
X113200000Y-141900000D02*
X113200000Y-142800000D01*
X115500000Y-145100000D02*
X123464310Y-145100000D01*
X113551000Y-141549000D02*
X113200000Y-141900000D01*
X115500000Y-141549000D02*
X113551000Y-141549000D01*
D18*
X127425402Y-147725402D02*
X127850000Y-147725402D01*
X119100000Y-139400000D02*
X127425402Y-147725402D01*
X113953426Y-139400000D02*
X119100000Y-139400000D01*
X111600000Y-137046574D02*
X113953426Y-139400000D01*
X111600000Y-136800000D02*
X111600000Y-137046574D01*
D17*
X123724165Y-144624501D02*
X116124501Y-144624501D01*
X128050000Y-148550000D02*
X127649664Y-148550000D01*
X116124501Y-144624501D02*
X114100000Y-142600000D01*
X131700000Y-141800000D02*
X131700000Y-144900000D01*
X131700000Y-144900000D02*
X128050000Y-148550000D01*
X127649664Y-148550000D02*
X123724165Y-144624501D01*
X118894981Y-149450499D02*
X119222740Y-149122740D01*
X106111896Y-149450499D02*
X118894981Y-149450499D01*
X105012395Y-150550000D02*
X106111896Y-149450499D01*
X104013604Y-150550000D02*
X105012395Y-150550000D01*
X103750000Y-150286396D02*
X104013604Y-150550000D01*
X104013604Y-149650000D02*
X103750000Y-149913604D01*
X105273003Y-149016600D02*
X104639603Y-149650000D01*
X103750000Y-149913604D02*
X103750000Y-150286396D01*
X105273003Y-135426997D02*
X105273003Y-149016600D01*
X105600000Y-135100000D02*
X105273003Y-135426997D01*
X104639603Y-149650000D02*
X104013604Y-149650000D01*
X121344240Y-146100000D02*
X121344240Y-147001240D01*
X121344240Y-147001240D02*
X119222740Y-149122740D01*
X125777688Y-149900000D02*
X126058700Y-149618988D01*
X106298085Y-149900000D02*
X125777688Y-149900000D01*
X105142015Y-151056070D02*
X106298085Y-149900000D01*
X103049000Y-151056070D02*
X105142015Y-151056070D01*
X103795479Y-149200499D02*
X103049000Y-149946978D01*
X103895481Y-149200499D02*
X103795479Y-149200499D01*
X104823502Y-148272476D02*
X103895481Y-149200499D01*
X102610787Y-141235963D02*
X104823502Y-143448678D01*
X102610787Y-134117050D02*
X102610787Y-141235963D01*
X103077337Y-133650500D02*
X102610787Y-134117050D01*
X105450500Y-133650500D02*
X103077337Y-133650500D01*
X104823502Y-143448678D02*
X104823502Y-148272476D01*
X105800000Y-134000000D02*
X105450500Y-133650500D01*
X101475942Y-145875944D02*
X103199999Y-147600001D01*
X102824500Y-143109964D02*
X101475942Y-144458522D01*
X102149000Y-133942441D02*
X102890941Y-133200500D01*
X102149000Y-141409866D02*
X102149000Y-133942441D01*
X117300500Y-133200500D02*
X118900000Y-134800000D01*
X103549000Y-143410062D02*
X103549000Y-142809866D01*
X102924598Y-143834464D02*
X103124598Y-143834464D01*
X101925443Y-145600845D02*
X101925443Y-144833619D01*
X106200000Y-148456267D02*
X106200000Y-148725999D01*
X103924500Y-147900098D02*
X103924500Y-147199902D01*
X102024500Y-149700098D02*
X103400096Y-148324502D01*
X101925443Y-144833619D02*
X102924598Y-143834464D01*
X103049000Y-149946978D02*
X103049000Y-151056070D01*
X102024500Y-154595880D02*
X102024500Y-149700098D01*
X103432032Y-148324502D02*
X103455037Y-148301497D01*
X102827622Y-155399002D02*
X102024500Y-154595880D01*
X105171380Y-153800000D02*
X103572378Y-155399002D01*
X117100000Y-146000000D02*
X108656267Y-146000000D01*
X107060000Y-153800000D02*
X105171380Y-153800000D01*
X101475942Y-144458522D02*
X101475942Y-145875944D01*
X103709291Y-148750998D02*
X104374001Y-148086287D01*
X103641226Y-148750998D02*
X103709291Y-148750998D01*
X102474001Y-154037313D02*
X102474001Y-149886287D01*
X103386189Y-154949501D02*
X102474001Y-154037313D01*
X103572378Y-155399002D02*
X102827622Y-155399002D01*
X103124598Y-143834464D02*
X103549000Y-143410062D01*
X110965000Y-152625000D02*
X105710690Y-152625000D01*
X105710690Y-152625000D02*
X103386189Y-154949501D01*
X112140000Y-153800000D02*
X110965000Y-152625000D01*
X104374001Y-145961498D02*
X103250002Y-144837499D01*
X102890941Y-133200500D02*
X117300500Y-133200500D01*
X103400096Y-148324502D02*
X103432032Y-148324502D01*
X103586285Y-148774003D02*
X103618221Y-148774003D01*
X103523102Y-148301497D02*
X103924500Y-147900098D01*
X104374001Y-148086287D02*
X104374001Y-145961498D01*
X103924500Y-147199902D02*
X103500098Y-146775500D01*
X103100098Y-146775500D02*
X101925443Y-145600845D01*
X103618221Y-148774003D02*
X103641226Y-148750998D01*
X103455037Y-148301497D02*
X103523102Y-148301497D01*
X108656267Y-146000000D02*
X106200000Y-148456267D01*
X103500098Y-146775500D02*
X103100098Y-146775500D01*
X102474001Y-149886287D02*
X103586285Y-148774003D01*
X103549000Y-142809866D02*
X102149000Y-141409866D01*
X122831166Y-137330459D02*
X122831166Y-138919369D01*
X118900000Y-134800000D02*
X120300707Y-134800000D01*
X120300707Y-134800000D02*
X122831166Y-137330459D01*
X127400000Y-131700000D02*
X123000000Y-131700000D01*
X128223502Y-130876498D02*
X127400000Y-131700000D01*
X103924501Y-152175499D02*
X103200000Y-152900000D01*
X117220000Y-153800000D02*
X115595499Y-152175499D01*
X115595499Y-152175499D02*
X103924501Y-152175499D01*
X132375000Y-133875000D02*
X133000000Y-134500000D01*
X121625000Y-133875000D02*
X132375000Y-133875000D01*
X121100000Y-134400000D02*
X121625000Y-133875000D01*
X109000000Y-140100000D02*
X106224500Y-137324500D01*
X115400000Y-140100000D02*
X109000000Y-140100000D01*
X106224500Y-137324500D02*
X106224500Y-136700000D01*
X130589816Y-136889816D02*
X131608202Y-136889816D01*
X128300000Y-134600000D02*
X130589816Y-136889816D01*
X132000000Y-124500000D02*
X130800000Y-124500000D01*
X132200000Y-124300000D02*
X132000000Y-124500000D01*
X132200000Y-113200000D02*
X132200000Y-124300000D01*
X131200000Y-112200000D02*
X132200000Y-113200000D01*
X104600000Y-119400000D02*
X104600000Y-124100000D01*
X115800000Y-118900000D02*
X105100000Y-118900000D01*
X104600000Y-124100000D02*
X105000000Y-124500000D01*
X116600000Y-119700000D02*
X115800000Y-118900000D01*
X105100000Y-118900000D02*
X104600000Y-119400000D01*
X115500000Y-142975402D02*
X115575250Y-143050652D01*
X115500000Y-141549000D02*
X115500000Y-142975402D01*
G04 #@! TA.AperFunction,Conductor*
G36*
X118538000Y-106916613D02*
G01*
X118583387Y-106962000D01*
X118600000Y-107024000D01*
X118600000Y-118476000D01*
X118583387Y-118538000D01*
X118538000Y-118583387D01*
X118476000Y-118600000D01*
X116435953Y-118600000D01*
X116388500Y-118590561D01*
X116348272Y-118563681D01*
X116300802Y-118516211D01*
X116287906Y-118500113D01*
X116236775Y-118452098D01*
X116233978Y-118449387D01*
X116214470Y-118429879D01*
X116211290Y-118427412D01*
X116202424Y-118419839D01*
X116170582Y-118389938D01*
X116153024Y-118380285D01*
X116136764Y-118369604D01*
X116120936Y-118357327D01*
X116080851Y-118339980D01*
X116070361Y-118334841D01*
X116032091Y-118313802D01*
X116012691Y-118308821D01*
X115994284Y-118302519D01*
X115975897Y-118294562D01*
X115932758Y-118287729D01*
X115921324Y-118285361D01*
X115879019Y-118274500D01*
X115858984Y-118274500D01*
X115839586Y-118272973D01*
X115832162Y-118271797D01*
X115819805Y-118269840D01*
X115819804Y-118269840D01*
X115794468Y-118272235D01*
X115776325Y-118273950D01*
X115764656Y-118274500D01*
X105182744Y-118274500D01*
X105162237Y-118272235D01*
X105092127Y-118274439D01*
X105088232Y-118274500D01*
X105060650Y-118274500D01*
X105056665Y-118275003D01*
X105045033Y-118275918D01*
X105001369Y-118277290D01*
X104982129Y-118282880D01*
X104963081Y-118286825D01*
X104943209Y-118289335D01*
X104902599Y-118305413D01*
X104891554Y-118309194D01*
X104849610Y-118321381D01*
X104832365Y-118331579D01*
X104814904Y-118340133D01*
X104796267Y-118347512D01*
X104760931Y-118373185D01*
X104751174Y-118379595D01*
X104713580Y-118401829D01*
X104711681Y-118403729D01*
X104662318Y-118433979D01*
X104604602Y-118438521D01*
X104551115Y-118416366D01*
X104513515Y-118372343D01*
X104500000Y-118316048D01*
X104500000Y-107024000D01*
X104516613Y-106962000D01*
X104562000Y-106916613D01*
X104624000Y-106900000D01*
X118476000Y-106900000D01*
X118538000Y-106916613D01*
G37*
G04 #@! TD.AperFunction*
G04 #@! TA.AperFunction,Conductor*
G36*
X131832500Y-106916613D02*
G01*
X131877887Y-106962000D01*
X131894500Y-107024000D01*
X131894500Y-111348141D01*
X131876227Y-111412931D01*
X131826795Y-111458626D01*
X131760771Y-111471759D01*
X131697614Y-111448459D01*
X131652727Y-111415847D01*
X131479802Y-111338855D01*
X131294648Y-111299500D01*
X131294646Y-111299500D01*
X131105354Y-111299500D01*
X131105352Y-111299500D01*
X130920197Y-111338855D01*
X130747269Y-111415848D01*
X130594129Y-111527110D01*
X130467466Y-111667783D01*
X130372820Y-111831715D01*
X130314326Y-112011742D01*
X130294540Y-112200000D01*
X130314326Y-112388257D01*
X130372820Y-112568284D01*
X130467466Y-112732216D01*
X130594129Y-112872889D01*
X130747269Y-112984151D01*
X130920197Y-113061144D01*
X131105352Y-113100500D01*
X131105354Y-113100500D01*
X131164548Y-113100500D01*
X131212001Y-113109939D01*
X131252229Y-113136819D01*
X131538181Y-113422771D01*
X131565061Y-113462999D01*
X131574500Y-113510452D01*
X131574500Y-118476000D01*
X131557887Y-118538000D01*
X131512500Y-118583387D01*
X131450500Y-118600000D01*
X119229500Y-118600000D01*
X119167500Y-118583387D01*
X119122113Y-118538000D01*
X119105500Y-118476000D01*
X119105500Y-107024000D01*
X119122113Y-106962000D01*
X119167500Y-106916613D01*
X119229500Y-106900000D01*
X131770500Y-106900000D01*
X131832500Y-106916613D01*
G37*
G04 #@! TD.AperFunction*
G04 #@! TA.AperFunction,Conductor*
G36*
X141938000Y-106916613D02*
G01*
X141983387Y-106962000D01*
X142000000Y-107024000D01*
X142000000Y-124176000D01*
X141983387Y-124238000D01*
X141938000Y-124283387D01*
X141876000Y-124300000D01*
X132949500Y-124300000D01*
X132887500Y-124283387D01*
X132842113Y-124238000D01*
X132825500Y-124176000D01*
X132825500Y-113282744D01*
X132827764Y-113262236D01*
X132825561Y-113192113D01*
X132825500Y-113188219D01*
X132825500Y-113160654D01*
X132825500Y-113160650D01*
X132824997Y-113156670D01*
X132824081Y-113145028D01*
X132822710Y-113101373D01*
X132817118Y-113082126D01*
X132813174Y-113063085D01*
X132810664Y-113043208D01*
X132794579Y-113002583D01*
X132790808Y-112991568D01*
X132778618Y-112949610D01*
X132768414Y-112932355D01*
X132759861Y-112914895D01*
X132752486Y-112896269D01*
X132752486Y-112896268D01*
X132726808Y-112860925D01*
X132720401Y-112851171D01*
X132698169Y-112813579D01*
X132684006Y-112799416D01*
X132671367Y-112784617D01*
X132659595Y-112768413D01*
X132625941Y-112740573D01*
X132617299Y-112732709D01*
X132436319Y-112551729D01*
X132409439Y-112511501D01*
X132400000Y-112464048D01*
X132400000Y-107024000D01*
X132416613Y-106962000D01*
X132462000Y-106916613D01*
X132524000Y-106900000D01*
X141876000Y-106900000D01*
X141938000Y-106916613D01*
G37*
G04 #@! TD.AperFunction*
G04 #@! TA.AperFunction,Conductor*
G36*
X103932500Y-106916613D02*
G01*
X103977887Y-106962000D01*
X103994500Y-107024000D01*
X103994500Y-118316052D01*
X104008466Y-118434048D01*
X104021981Y-118490347D01*
X104063112Y-118601837D01*
X104129132Y-118700643D01*
X104170289Y-118748829D01*
X104192335Y-118786442D01*
X104200000Y-118829362D01*
X104200000Y-118863119D01*
X104191291Y-118908769D01*
X104166388Y-118948007D01*
X104152095Y-118963226D01*
X104149392Y-118966016D01*
X104129874Y-118985534D01*
X104127415Y-118988705D01*
X104119842Y-118997572D01*
X104089935Y-119029420D01*
X104080285Y-119046974D01*
X104069609Y-119063228D01*
X104057326Y-119079063D01*
X104039975Y-119119158D01*
X104034838Y-119129644D01*
X104013802Y-119167907D01*
X104008821Y-119187309D01*
X104002520Y-119205711D01*
X103994561Y-119224102D01*
X103987728Y-119267242D01*
X103985360Y-119278674D01*
X103974500Y-119320978D01*
X103974500Y-119341016D01*
X103972973Y-119360415D01*
X103969840Y-119380194D01*
X103973950Y-119423675D01*
X103974500Y-119435344D01*
X103974500Y-124017256D01*
X103972235Y-124037762D01*
X103974439Y-124107873D01*
X103974500Y-124111768D01*
X103974500Y-124139349D01*
X103975003Y-124143334D01*
X103975918Y-124154966D01*
X103976457Y-124172102D01*
X103961181Y-124235735D01*
X103915640Y-124282731D01*
X103852518Y-124300000D01*
X95724000Y-124300000D01*
X95662000Y-124283387D01*
X95616613Y-124238000D01*
X95600000Y-124176000D01*
X95600000Y-107024000D01*
X95616613Y-106962000D01*
X95662000Y-106916613D01*
X95724000Y-106900000D01*
X103870500Y-106900000D01*
X103932500Y-106916613D01*
G37*
G04 #@! TD.AperFunction*
G04 #@! TA.AperFunction,Conductor*
G36*
X118900203Y-119015137D02*
G01*
X118914748Y-119021161D01*
X118914750Y-119021163D01*
X119036666Y-119071662D01*
X119098666Y-119088275D01*
X119196791Y-119101193D01*
X119229499Y-119105500D01*
X131450500Y-119105500D01*
X131512500Y-119122113D01*
X131557887Y-119167500D01*
X131574500Y-119229500D01*
X131574500Y-123706265D01*
X131556227Y-123771055D01*
X131506795Y-123816750D01*
X131440771Y-123829883D01*
X131377616Y-123806583D01*
X131252730Y-123715849D01*
X131252729Y-123715848D01*
X131252727Y-123715847D01*
X131079802Y-123638855D01*
X130894648Y-123599500D01*
X130894646Y-123599500D01*
X130705354Y-123599500D01*
X130705352Y-123599500D01*
X130520197Y-123638855D01*
X130347269Y-123715848D01*
X130194129Y-123827110D01*
X130067466Y-123967783D01*
X129972820Y-124131715D01*
X129945982Y-124214318D01*
X129920201Y-124258972D01*
X129878486Y-124289280D01*
X129828051Y-124300000D01*
X106671949Y-124300000D01*
X106621514Y-124289280D01*
X106579799Y-124258972D01*
X106554018Y-124214318D01*
X106527179Y-124131715D01*
X106432533Y-123967783D01*
X106305870Y-123827110D01*
X106152730Y-123715848D01*
X105979802Y-123638855D01*
X105794648Y-123599500D01*
X105794646Y-123599500D01*
X105605354Y-123599500D01*
X105605352Y-123599500D01*
X105420199Y-123638854D01*
X105399935Y-123647877D01*
X105339771Y-123658215D01*
X105281965Y-123638592D01*
X105240527Y-123593765D01*
X105225500Y-123534597D01*
X105225500Y-119710452D01*
X105234939Y-119662999D01*
X105261819Y-119622771D01*
X105322771Y-119561819D01*
X105362999Y-119534939D01*
X105410452Y-119525500D01*
X115489547Y-119525500D01*
X115537000Y-119534939D01*
X115577229Y-119561819D01*
X115661039Y-119645630D01*
X115685278Y-119679928D01*
X115696678Y-119720349D01*
X115714326Y-119888257D01*
X115772820Y-120068284D01*
X115867466Y-120232216D01*
X115994129Y-120372889D01*
X116147269Y-120484151D01*
X116320197Y-120561144D01*
X116505352Y-120600500D01*
X116505354Y-120600500D01*
X116694646Y-120600500D01*
X116694648Y-120600500D01*
X116818084Y-120574262D01*
X116879803Y-120561144D01*
X117052730Y-120484151D01*
X117205871Y-120372888D01*
X117332533Y-120232216D01*
X117427179Y-120068284D01*
X117485674Y-119888256D01*
X117505460Y-119700000D01*
X117485674Y-119511744D01*
X117427179Y-119331716D01*
X117427179Y-119331715D01*
X117403961Y-119291500D01*
X117387348Y-119229500D01*
X117403961Y-119167500D01*
X117449348Y-119122113D01*
X117511348Y-119105500D01*
X118476001Y-119105500D01*
X118502166Y-119102054D01*
X118606834Y-119088275D01*
X118668834Y-119071662D01*
X118790750Y-119021163D01*
X118790751Y-119021161D01*
X118805297Y-119015137D01*
X118852750Y-119005698D01*
X118900203Y-119015137D01*
G37*
G04 #@! TD.AperFunction*
G04 #@! TA.AperFunction,Conductor*
G36*
X148537500Y-102417113D02*
G01*
X148582887Y-102462500D01*
X148599500Y-102524500D01*
X148599500Y-129376000D01*
X148582887Y-129438000D01*
X148537500Y-129483387D01*
X148475500Y-129500000D01*
X89124500Y-129500000D01*
X89062500Y-129483387D01*
X89017113Y-129438000D01*
X89000500Y-129376000D01*
X89000500Y-124176001D01*
X95094500Y-124176001D01*
X95111724Y-124306830D01*
X95128339Y-124368838D01*
X95178836Y-124490749D01*
X95259170Y-124595442D01*
X95304557Y-124640829D01*
X95409250Y-124721163D01*
X95508450Y-124762253D01*
X95531166Y-124771662D01*
X95593166Y-124788275D01*
X95688354Y-124800807D01*
X95723999Y-124805500D01*
X95724000Y-124805500D01*
X103852518Y-124805500D01*
X103852520Y-124805500D01*
X103985906Y-124787583D01*
X103985908Y-124787582D01*
X103985911Y-124787582D01*
X104049033Y-124770313D01*
X104172966Y-124717833D01*
X104176053Y-124715399D01*
X104230219Y-124690853D01*
X104289591Y-124694352D01*
X104340504Y-124725094D01*
X104499194Y-124883784D01*
X104512094Y-124899886D01*
X104563223Y-124947900D01*
X104566019Y-124950610D01*
X104585529Y-124970120D01*
X104588711Y-124972588D01*
X104597571Y-124980155D01*
X104629418Y-125010062D01*
X104646970Y-125019711D01*
X104663238Y-125030397D01*
X104679064Y-125042673D01*
X104719146Y-125060017D01*
X104729633Y-125065155D01*
X104767907Y-125086197D01*
X104776410Y-125088379D01*
X104787308Y-125091178D01*
X104805713Y-125097478D01*
X104824104Y-125105437D01*
X104867250Y-125112270D01*
X104878668Y-125114635D01*
X104920981Y-125125500D01*
X104941016Y-125125500D01*
X104960415Y-125127027D01*
X104980196Y-125130160D01*
X104987650Y-125129455D01*
X105044362Y-125137375D01*
X105091467Y-125169931D01*
X105094129Y-125172888D01*
X105247270Y-125284151D01*
X105247271Y-125284151D01*
X105247272Y-125284152D01*
X105420197Y-125361144D01*
X105605352Y-125400500D01*
X105605354Y-125400500D01*
X105794646Y-125400500D01*
X105794648Y-125400500D01*
X105918084Y-125374262D01*
X105979803Y-125361144D01*
X106152730Y-125284151D01*
X106305871Y-125172888D01*
X106432533Y-125032216D01*
X106527179Y-124868284D01*
X106527178Y-124868284D01*
X106529373Y-124864484D01*
X106560418Y-124828770D01*
X106602582Y-124807287D01*
X106649717Y-124803163D01*
X106671949Y-124805500D01*
X129828045Y-124805500D01*
X129828051Y-124805500D01*
X129850282Y-124803163D01*
X129897418Y-124807287D01*
X129939582Y-124828770D01*
X129970627Y-124864484D01*
X130067466Y-125032216D01*
X130194129Y-125172889D01*
X130347269Y-125284151D01*
X130520197Y-125361144D01*
X130705352Y-125400500D01*
X130705354Y-125400500D01*
X130894646Y-125400500D01*
X130894648Y-125400500D01*
X131018084Y-125374262D01*
X131079803Y-125361144D01*
X131252730Y-125284151D01*
X131405871Y-125172888D01*
X131411598Y-125166526D01*
X131453312Y-125136220D01*
X131503747Y-125125500D01*
X131917256Y-125125500D01*
X131937762Y-125127764D01*
X131940665Y-125127672D01*
X131940667Y-125127673D01*
X132007872Y-125125561D01*
X132011768Y-125125500D01*
X132039349Y-125125500D01*
X132039350Y-125125500D01*
X132043319Y-125124998D01*
X132054965Y-125124080D01*
X132098627Y-125122709D01*
X132117859Y-125117120D01*
X132136918Y-125113174D01*
X132144099Y-125112267D01*
X132156792Y-125110664D01*
X132197407Y-125094582D01*
X132208444Y-125090803D01*
X132250390Y-125078618D01*
X132267629Y-125068422D01*
X132285102Y-125059862D01*
X132303732Y-125052486D01*
X132339064Y-125026814D01*
X132348830Y-125020400D01*
X132386418Y-124998171D01*
X132386417Y-124998171D01*
X132386420Y-124998170D01*
X132400585Y-124984004D01*
X132415373Y-124971373D01*
X132431587Y-124959594D01*
X132459438Y-124925926D01*
X132467279Y-124917309D01*
X132583786Y-124800802D01*
X132605031Y-124783784D01*
X132615112Y-124777388D01*
X132615598Y-124778155D01*
X132636646Y-124763277D01*
X132685193Y-124752821D01*
X132733950Y-124762253D01*
X132753409Y-124770313D01*
X132756666Y-124771662D01*
X132818666Y-124788275D01*
X132913854Y-124800807D01*
X132949499Y-124805500D01*
X132949500Y-124805500D01*
X141876000Y-124805500D01*
X141876001Y-124805500D01*
X141911646Y-124800807D01*
X142006834Y-124788275D01*
X142068834Y-124771662D01*
X142190750Y-124721163D01*
X142295442Y-124640829D01*
X142340829Y-124595442D01*
X142421163Y-124490750D01*
X142471662Y-124368834D01*
X142488275Y-124306834D01*
X142505500Y-124176000D01*
X142505500Y-107024000D01*
X142488275Y-106893166D01*
X142471662Y-106831166D01*
X142421163Y-106709250D01*
X142340829Y-106604557D01*
X142295442Y-106559170D01*
X142190749Y-106478836D01*
X142068838Y-106428339D01*
X142006830Y-106411724D01*
X141876001Y-106394500D01*
X141876000Y-106394500D01*
X132524000Y-106394500D01*
X132523999Y-106394500D01*
X132393169Y-106411724D01*
X132366964Y-106418745D01*
X132331166Y-106428338D01*
X132258345Y-106458501D01*
X132194701Y-106484863D01*
X132147249Y-106494301D01*
X132099797Y-106484862D01*
X131963338Y-106428339D01*
X131901330Y-106411724D01*
X131770501Y-106394500D01*
X131770500Y-106394500D01*
X119229500Y-106394500D01*
X119229499Y-106394500D01*
X119098669Y-106411724D01*
X119072464Y-106418745D01*
X119036666Y-106428338D01*
X118963845Y-106458501D01*
X118900201Y-106484863D01*
X118852749Y-106494301D01*
X118805297Y-106484862D01*
X118668838Y-106428339D01*
X118606830Y-106411724D01*
X118476001Y-106394500D01*
X118476000Y-106394500D01*
X104624000Y-106394500D01*
X104623999Y-106394500D01*
X104493169Y-106411724D01*
X104466964Y-106418745D01*
X104431166Y-106428338D01*
X104358345Y-106458501D01*
X104294701Y-106484863D01*
X104247249Y-106494301D01*
X104199797Y-106484862D01*
X104063338Y-106428339D01*
X104001330Y-106411724D01*
X103870501Y-106394500D01*
X103870500Y-106394500D01*
X95724000Y-106394500D01*
X95723999Y-106394500D01*
X95593169Y-106411724D01*
X95531161Y-106428339D01*
X95409250Y-106478836D01*
X95304557Y-106559170D01*
X95259170Y-106604557D01*
X95178836Y-106709250D01*
X95128339Y-106831161D01*
X95111724Y-106893169D01*
X95094500Y-107023999D01*
X95094500Y-124176001D01*
X89000500Y-124176001D01*
X89000500Y-102524500D01*
X89017113Y-102462500D01*
X89062500Y-102417113D01*
X89124500Y-102400500D01*
X148475500Y-102400500D01*
X148537500Y-102417113D01*
G37*
G04 #@! TD.AperFunction*
G04 #@! TA.AperFunction,Conductor*
G36*
X132095343Y-150710439D02*
G01*
X132135571Y-150737319D01*
X133738181Y-152339929D01*
X133765061Y-152380157D01*
X133774500Y-152427610D01*
X133774500Y-154172390D01*
X133765061Y-154219843D01*
X133738181Y-154260071D01*
X133485071Y-154513181D01*
X133444843Y-154540061D01*
X133397390Y-154549500D01*
X131032301Y-154549500D01*
X130971962Y-154533829D01*
X130926874Y-154490778D01*
X130908433Y-154431227D01*
X130921301Y-154370229D01*
X130975282Y-154261819D01*
X130997405Y-154217389D01*
X131055756Y-154012310D01*
X131075429Y-153800000D01*
X131055756Y-153587690D01*
X130997405Y-153382611D01*
X130978036Y-153343712D01*
X130902368Y-153191747D01*
X130773873Y-153021594D01*
X130616301Y-152877947D01*
X130501662Y-152806966D01*
X130435019Y-152765702D01*
X130435017Y-152765701D01*
X130375576Y-152742674D01*
X130236198Y-152688679D01*
X130033215Y-152650734D01*
X129973527Y-152621441D01*
X129937551Y-152565526D01*
X129935632Y-152499064D01*
X129968319Y-152441167D01*
X130558544Y-151850944D01*
X130697250Y-151712239D01*
X130697254Y-151712231D01*
X130705587Y-151703900D01*
X130715645Y-151684158D01*
X130725804Y-151667579D01*
X130738834Y-151649647D01*
X130745681Y-151628569D01*
X130753128Y-151610595D01*
X130763182Y-151590864D01*
X130763182Y-151590863D01*
X130763183Y-151590862D01*
X130766649Y-151568974D01*
X130771188Y-151550068D01*
X130778037Y-151528991D01*
X130778037Y-151402125D01*
X130778037Y-151003555D01*
X130794031Y-150942639D01*
X130837888Y-150897438D01*
X130898293Y-150879612D01*
X130959662Y-150893758D01*
X131038793Y-150935290D01*
X131203962Y-150976000D01*
X131374073Y-150976000D01*
X131374074Y-150976000D01*
X131539243Y-150935290D01*
X131689870Y-150856234D01*
X131817201Y-150743429D01*
X131817202Y-150743427D01*
X131828471Y-150733444D01*
X131830616Y-150735866D01*
X131853951Y-150715199D01*
X131911568Y-150701000D01*
X132047890Y-150701000D01*
X132095343Y-150710439D01*
G37*
G04 #@! TD.AperFunction*
G04 #@! TA.AperFunction,Conductor*
G36*
X126771680Y-149030033D02*
G01*
X126823665Y-149061103D01*
X128796261Y-151033699D01*
X128828355Y-151089286D01*
X128828355Y-151153474D01*
X128796261Y-151209061D01*
X128418638Y-151586684D01*
X128378410Y-151613564D01*
X128330957Y-151623003D01*
X123984103Y-151623003D01*
X123961130Y-151630466D01*
X123942219Y-151635006D01*
X123918370Y-151638783D01*
X123896859Y-151649744D01*
X123878883Y-151657190D01*
X123855916Y-151664652D01*
X123836378Y-151678847D01*
X123819795Y-151689009D01*
X123798277Y-151699974D01*
X123715721Y-151782526D01*
X123715716Y-151782535D01*
X122812709Y-152685541D01*
X122773362Y-152712052D01*
X122726938Y-152721845D01*
X122680236Y-152713487D01*
X122654441Y-152703494D01*
X122616199Y-152688679D01*
X122530879Y-152672730D01*
X122406610Y-152649500D01*
X122193390Y-152649500D01*
X122069121Y-152672730D01*
X121983801Y-152688679D01*
X121784982Y-152765701D01*
X121603698Y-152877947D01*
X121446126Y-153021594D01*
X121317631Y-153191747D01*
X121222595Y-153382609D01*
X121164243Y-153587689D01*
X121144571Y-153800000D01*
X121164243Y-154012310D01*
X121222595Y-154217390D01*
X121298699Y-154370229D01*
X121311567Y-154431227D01*
X121293126Y-154490778D01*
X121248038Y-154533829D01*
X121187699Y-154549500D01*
X118332301Y-154549500D01*
X118271962Y-154533829D01*
X118226874Y-154490778D01*
X118208433Y-154431227D01*
X118221301Y-154370229D01*
X118275282Y-154261819D01*
X118297405Y-154217389D01*
X118355756Y-154012310D01*
X118375429Y-153800000D01*
X118355756Y-153587690D01*
X118297405Y-153382611D01*
X118278036Y-153343712D01*
X118202368Y-153191747D01*
X118073873Y-153021594D01*
X117916301Y-152877947D01*
X117801662Y-152806966D01*
X117735019Y-152765702D01*
X117735017Y-152765701D01*
X117536198Y-152688679D01*
X117519411Y-152685541D01*
X117326610Y-152649500D01*
X117113390Y-152649500D01*
X116903802Y-152688679D01*
X116903800Y-152688679D01*
X116903798Y-152688680D01*
X116839762Y-152713487D01*
X116793059Y-152721845D01*
X116746636Y-152712052D01*
X116707289Y-152685541D01*
X115872692Y-151850944D01*
X115848719Y-151826970D01*
X115827202Y-151816007D01*
X115810610Y-151805839D01*
X115791081Y-151791650D01*
X115768115Y-151784188D01*
X115750137Y-151776741D01*
X115728627Y-151765781D01*
X115728626Y-151765780D01*
X115728625Y-151765780D01*
X115704769Y-151762001D01*
X115685858Y-151757461D01*
X115662892Y-151749999D01*
X115628987Y-151749999D01*
X103991894Y-151749999D01*
X103857108Y-151749999D01*
X103857107Y-151749999D01*
X103834140Y-151757461D01*
X103815224Y-151762002D01*
X103791375Y-151765779D01*
X103769857Y-151776743D01*
X103751888Y-151784186D01*
X103728920Y-151791649D01*
X103709385Y-151805842D01*
X103692802Y-151816004D01*
X103671282Y-151826969D01*
X103647308Y-151850944D01*
X103575973Y-151922279D01*
X103335071Y-152163181D01*
X103294843Y-152190061D01*
X103247390Y-152199500D01*
X103114944Y-152199500D01*
X103053175Y-152214724D01*
X102997475Y-152215565D01*
X102947027Y-152191937D01*
X102912014Y-152148610D01*
X102899501Y-152094327D01*
X102899501Y-151608381D01*
X102910891Y-151556467D01*
X102942970Y-151514090D01*
X102989844Y-151489036D01*
X103042901Y-151485908D01*
X103049000Y-151486874D01*
X103072847Y-151483097D01*
X103092246Y-151481570D01*
X105209406Y-151481570D01*
X105209408Y-151481570D01*
X105232378Y-151474105D01*
X105251281Y-151469567D01*
X105275141Y-151465789D01*
X105296662Y-151454822D01*
X105314631Y-151447379D01*
X105337596Y-151439919D01*
X105357126Y-151425728D01*
X105373719Y-151415559D01*
X105395235Y-151404598D01*
X105490543Y-151309290D01*
X106438013Y-150361819D01*
X106478242Y-150334939D01*
X106525695Y-150325500D01*
X125845080Y-150325500D01*
X125845081Y-150325500D01*
X125868045Y-150318037D01*
X125886958Y-150313496D01*
X125900197Y-150311400D01*
X125949260Y-150313477D01*
X125973644Y-150319488D01*
X126143755Y-150319488D01*
X126143756Y-150319488D01*
X126308925Y-150278778D01*
X126459552Y-150199722D01*
X126586883Y-150086917D01*
X126683518Y-149946918D01*
X126743840Y-149787860D01*
X126764345Y-149618988D01*
X126743840Y-149450116D01*
X126683518Y-149291058D01*
X126633932Y-149219222D01*
X126612744Y-149162491D01*
X126620951Y-149102488D01*
X126656597Y-149053528D01*
X126711181Y-149027290D01*
X126771680Y-149030033D01*
G37*
G04 #@! TD.AperFunction*
G04 #@! TA.AperFunction,Conductor*
G36*
X134062065Y-138915544D02*
G01*
X134172650Y-139013513D01*
X134323277Y-139092569D01*
X134488446Y-139133279D01*
X134658557Y-139133279D01*
X134658558Y-139133279D01*
X134823727Y-139092569D01*
X134842874Y-139082519D01*
X134904244Y-139068373D01*
X134964649Y-139086199D01*
X135008506Y-139131400D01*
X135024500Y-139192316D01*
X135024500Y-154122390D01*
X135015061Y-154169843D01*
X134988181Y-154210071D01*
X134837181Y-154361071D01*
X134787818Y-154391321D01*
X134730102Y-154395863D01*
X134676615Y-154373708D01*
X134639015Y-154329685D01*
X134625500Y-154273390D01*
X134625500Y-152132608D01*
X134618039Y-152109648D01*
X134613495Y-152090719D01*
X134609719Y-152066874D01*
X134598756Y-152045359D01*
X134591309Y-152027379D01*
X134588698Y-152019344D01*
X134583849Y-152004419D01*
X134569654Y-151984882D01*
X134559490Y-151968295D01*
X134548527Y-151946779D01*
X132552693Y-149950945D01*
X132528720Y-149926971D01*
X132507203Y-149916008D01*
X132490611Y-149905840D01*
X132471082Y-149891651D01*
X132448116Y-149884189D01*
X132430138Y-149876742D01*
X132408628Y-149865782D01*
X132408627Y-149865781D01*
X132408626Y-149865781D01*
X132384770Y-149862002D01*
X132365859Y-149857462D01*
X132342893Y-149850000D01*
X132308988Y-149850000D01*
X131911568Y-149850000D01*
X131853951Y-149835801D01*
X131830615Y-149815132D01*
X131828470Y-149817555D01*
X131817201Y-149807572D01*
X131817201Y-149807571D01*
X131794613Y-149787560D01*
X131760900Y-149738716D01*
X131753746Y-149679797D01*
X131774793Y-149624305D01*
X131782915Y-149612539D01*
X131843237Y-149453481D01*
X131863742Y-149284609D01*
X131843237Y-149115737D01*
X131782915Y-148956679D01*
X131686280Y-148816680D01*
X131558949Y-148703875D01*
X131544685Y-148696389D01*
X131408321Y-148624818D01*
X131283862Y-148594142D01*
X131243153Y-148584109D01*
X131073041Y-148584109D01*
X131073039Y-148584109D01*
X131059012Y-148587566D01*
X130993878Y-148585990D01*
X130938534Y-148551611D01*
X130908259Y-148493919D01*
X130911411Y-148428843D01*
X130934144Y-148394148D01*
X130931929Y-148392619D01*
X130959968Y-148351998D01*
X131037117Y-148240229D01*
X131097439Y-148081171D01*
X131117944Y-147912299D01*
X131097439Y-147743427D01*
X131037117Y-147584369D01*
X130940482Y-147444370D01*
X130813151Y-147331565D01*
X130798887Y-147324079D01*
X130662523Y-147252508D01*
X130515807Y-147216347D01*
X130497355Y-147211799D01*
X130327243Y-147211799D01*
X130319476Y-147213713D01*
X130311500Y-147215679D01*
X130247807Y-147214523D01*
X130193092Y-147181895D01*
X130161798Y-147126407D01*
X130162184Y-147062705D01*
X130194145Y-147007602D01*
X132024554Y-145177194D01*
X132041995Y-145159753D01*
X132041995Y-145159752D01*
X132048528Y-145153220D01*
X132059493Y-145131698D01*
X132069656Y-145115115D01*
X132083850Y-145095580D01*
X132091313Y-145072609D01*
X132098751Y-145054650D01*
X132109719Y-145033126D01*
X132113495Y-145009278D01*
X132118036Y-144990360D01*
X132125500Y-144967393D01*
X132125500Y-144832607D01*
X132125500Y-142414706D01*
X132136424Y-142363815D01*
X132167273Y-142321891D01*
X132228182Y-142267930D01*
X132228183Y-142267929D01*
X132324818Y-142127930D01*
X132385140Y-141968872D01*
X132405645Y-141800000D01*
X132385140Y-141631128D01*
X132324818Y-141472070D01*
X132255273Y-141371317D01*
X132228184Y-141332072D01*
X132228183Y-141332071D01*
X132100852Y-141219266D01*
X132085097Y-141210997D01*
X131950222Y-141140208D01*
X131940987Y-141137932D01*
X131884317Y-141106530D01*
X131851219Y-141050833D01*
X131850730Y-140986045D01*
X131882982Y-140929857D01*
X133892161Y-138920677D01*
X133945341Y-138889256D01*
X134007085Y-138887390D01*
X134062065Y-138915544D01*
G37*
G04 #@! TD.AperFunction*
G04 #@! TA.AperFunction,Conductor*
G36*
X123284153Y-145534939D02*
G01*
X123324381Y-145561819D01*
X126601660Y-148839098D01*
X126635058Y-148900022D01*
X126630444Y-148969346D01*
X126589267Y-149025307D01*
X126524454Y-149050336D01*
X126456353Y-149036575D01*
X126339986Y-148975500D01*
X126308924Y-148959197D01*
X126184465Y-148928521D01*
X126143756Y-148918488D01*
X125973644Y-148918488D01*
X125940984Y-148926537D01*
X125808475Y-148959197D01*
X125657849Y-149038253D01*
X125530515Y-149151060D01*
X125433881Y-149291057D01*
X125394663Y-149394471D01*
X125368150Y-149436398D01*
X125327325Y-149464577D01*
X125278721Y-149474500D01*
X120018165Y-149474500D01*
X119960540Y-149460297D01*
X119916115Y-149420941D01*
X119895069Y-149365448D01*
X119902223Y-149306530D01*
X119907879Y-149291614D01*
X119907878Y-149291614D01*
X119907880Y-149291612D01*
X119928385Y-149122740D01*
X119924412Y-149090024D01*
X119930290Y-149034632D01*
X119959825Y-148987401D01*
X121583231Y-147363996D01*
X121583234Y-147363994D01*
X121692766Y-147254462D01*
X121692766Y-147254461D01*
X121692768Y-147254460D01*
X121703731Y-147232942D01*
X121713897Y-147216353D01*
X121728089Y-147196821D01*
X121735550Y-147173854D01*
X121742993Y-147155885D01*
X121753959Y-147134366D01*
X121757737Y-147110506D01*
X121762275Y-147091603D01*
X121769740Y-147068633D01*
X121769740Y-146933847D01*
X121769740Y-146714706D01*
X121780664Y-146663815D01*
X121811513Y-146621891D01*
X121872422Y-146567930D01*
X121941448Y-146467929D01*
X121969058Y-146427930D01*
X122029380Y-146268872D01*
X122049885Y-146100000D01*
X122029380Y-145931128D01*
X121969058Y-145772070D01*
X121933074Y-145719939D01*
X121911351Y-145656987D01*
X121925328Y-145591875D01*
X121970975Y-145543383D01*
X122035125Y-145525500D01*
X123236700Y-145525500D01*
X123284153Y-145534939D01*
G37*
G04 #@! TD.AperFunction*
G04 #@! TA.AperFunction,Conductor*
G36*
X120717505Y-145543383D02*
G01*
X120763152Y-145591875D01*
X120777129Y-145656987D01*
X120755405Y-145719940D01*
X120719422Y-145772069D01*
X120659100Y-145931127D01*
X120638594Y-146100000D01*
X120659100Y-146268872D01*
X120719422Y-146427930D01*
X120816057Y-146567930D01*
X120876967Y-146621891D01*
X120907816Y-146663815D01*
X120918740Y-146714706D01*
X120918740Y-146773631D01*
X120909301Y-146821084D01*
X120882421Y-146861311D01*
X120491224Y-147252508D01*
X119357810Y-148385921D01*
X119317582Y-148412801D01*
X119270129Y-148422240D01*
X119137684Y-148422240D01*
X119110894Y-148428843D01*
X118972515Y-148462949D01*
X118821889Y-148542005D01*
X118694555Y-148654812D01*
X118597921Y-148794810D01*
X118540975Y-148944969D01*
X118514462Y-148986896D01*
X118473637Y-149015076D01*
X118425033Y-149024999D01*
X107009307Y-149024999D01*
X106943033Y-149005803D01*
X106897279Y-148954157D01*
X106886211Y-148886052D01*
X106905645Y-148725999D01*
X106902959Y-148703875D01*
X106885140Y-148557127D01*
X106862905Y-148498498D01*
X106854872Y-148452030D01*
X106864770Y-148405923D01*
X106891163Y-148366849D01*
X108796194Y-146461819D01*
X108836423Y-146434939D01*
X108883876Y-146425500D01*
X116477450Y-146425500D01*
X116535067Y-146439699D01*
X116558401Y-146460366D01*
X116560547Y-146457944D01*
X116571815Y-146467927D01*
X116571817Y-146467929D01*
X116699148Y-146580734D01*
X116849775Y-146659790D01*
X117014944Y-146700500D01*
X117185055Y-146700500D01*
X117185056Y-146700500D01*
X117350225Y-146659790D01*
X117500852Y-146580734D01*
X117628183Y-146467929D01*
X117724818Y-146327930D01*
X117785140Y-146168872D01*
X117805645Y-146000000D01*
X117785140Y-145831128D01*
X117732933Y-145693470D01*
X117725780Y-145634553D01*
X117746826Y-145579060D01*
X117791250Y-145539703D01*
X117848876Y-145525500D01*
X120653355Y-145525500D01*
X120717505Y-145543383D01*
G37*
G04 #@! TD.AperFunction*
G04 #@! TA.AperFunction,Conductor*
G36*
X105860821Y-137581682D02*
G01*
X105910184Y-137611932D01*
X108651472Y-140353220D01*
X108746780Y-140448528D01*
X108768288Y-140459487D01*
X108784876Y-140469652D01*
X108804417Y-140483849D01*
X108804418Y-140483849D01*
X108804419Y-140483850D01*
X108827381Y-140491310D01*
X108845362Y-140498758D01*
X108855939Y-140504147D01*
X108866874Y-140509719D01*
X108890724Y-140513496D01*
X108909641Y-140518038D01*
X108932607Y-140525500D01*
X108966512Y-140525500D01*
X109067393Y-140525500D01*
X114777450Y-140525500D01*
X114835067Y-140539699D01*
X114858401Y-140560366D01*
X114860547Y-140557944D01*
X114871815Y-140567927D01*
X114871817Y-140567929D01*
X114999148Y-140680734D01*
X114999150Y-140680735D01*
X115113871Y-140740946D01*
X115162362Y-140786592D01*
X115180245Y-140850740D01*
X115162363Y-140914890D01*
X115113873Y-140960537D01*
X115099148Y-140968266D01*
X114971817Y-141081071D01*
X114971815Y-141081072D01*
X114960547Y-141091056D01*
X114958401Y-141088633D01*
X114935067Y-141109301D01*
X114877450Y-141123500D01*
X113483606Y-141123500D01*
X113460639Y-141130962D01*
X113441723Y-141135503D01*
X113417874Y-141139280D01*
X113396356Y-141150244D01*
X113378387Y-141157687D01*
X113355419Y-141165150D01*
X113335880Y-141179346D01*
X113319293Y-141189510D01*
X113297781Y-141200470D01*
X113256364Y-141241887D01*
X112946780Y-141551472D01*
X112851471Y-141646780D01*
X112840509Y-141668294D01*
X112830347Y-141684877D01*
X112816151Y-141704417D01*
X112808687Y-141727387D01*
X112801244Y-141745356D01*
X112790280Y-141766874D01*
X112786503Y-141790723D01*
X112781962Y-141809639D01*
X112774500Y-141832606D01*
X112774500Y-142867393D01*
X112781962Y-142890359D01*
X112786502Y-142909270D01*
X112790281Y-142933126D01*
X112790281Y-142933127D01*
X112790282Y-142933128D01*
X112801242Y-142954638D01*
X112808689Y-142972616D01*
X112816151Y-142995582D01*
X112830340Y-143015111D01*
X112840508Y-143031703D01*
X112851471Y-143053220D01*
X112875445Y-143077193D01*
X115161071Y-145362819D01*
X115191321Y-145412182D01*
X115195863Y-145469898D01*
X115173708Y-145523385D01*
X115129685Y-145560985D01*
X115073390Y-145574500D01*
X108588873Y-145574500D01*
X108565906Y-145581962D01*
X108546990Y-145586503D01*
X108523141Y-145590280D01*
X108501623Y-145601244D01*
X108483654Y-145608687D01*
X108460686Y-145616150D01*
X108441151Y-145630343D01*
X108424568Y-145640505D01*
X108403045Y-145651472D01*
X108321968Y-145732550D01*
X108321962Y-145732554D01*
X106025357Y-148029160D01*
X105967356Y-148061875D01*
X105949773Y-148066209D01*
X105880129Y-148102762D01*
X105818758Y-148116909D01*
X105758353Y-148099083D01*
X105714497Y-148053882D01*
X105698503Y-147992966D01*
X105698503Y-137699613D01*
X105712018Y-137643318D01*
X105749618Y-137599295D01*
X105803105Y-137577140D01*
X105860821Y-137581682D01*
G37*
G04 #@! TD.AperFunction*
G04 #@! TA.AperFunction,Conductor*
G36*
X117120343Y-133635439D02*
G01*
X117160571Y-133662319D01*
X118162911Y-134664659D01*
X118192447Y-134711890D01*
X118198326Y-134767284D01*
X118194354Y-134799997D01*
X118214860Y-134968872D01*
X118275182Y-135127930D01*
X118371815Y-135267927D01*
X118371816Y-135267928D01*
X118371817Y-135267929D01*
X118499148Y-135380734D01*
X118649775Y-135459790D01*
X118814944Y-135500500D01*
X118985055Y-135500500D01*
X118985056Y-135500500D01*
X119150225Y-135459790D01*
X119300852Y-135380734D01*
X119428183Y-135267929D01*
X119428184Y-135267927D01*
X119439453Y-135257944D01*
X119441598Y-135260366D01*
X119464933Y-135239699D01*
X119522550Y-135225500D01*
X120073097Y-135225500D01*
X120120550Y-135234939D01*
X120160778Y-135261819D01*
X120227380Y-135328421D01*
X120257513Y-135377426D01*
X120262288Y-135434757D01*
X120240676Y-135488072D01*
X120197330Y-135525896D01*
X120187204Y-135531210D01*
X120059869Y-135644018D01*
X119963236Y-135784015D01*
X119902914Y-135943073D01*
X119882408Y-136111946D01*
X119902914Y-136280818D01*
X119963236Y-136439876D01*
X120059869Y-136579873D01*
X120059870Y-136579874D01*
X120059871Y-136579875D01*
X120187202Y-136692680D01*
X120337829Y-136771736D01*
X120502998Y-136812446D01*
X120502999Y-136812446D01*
X120635444Y-136812446D01*
X120682897Y-136821885D01*
X120723125Y-136848765D01*
X121581757Y-137707397D01*
X121608637Y-137747625D01*
X121618076Y-137795078D01*
X121618076Y-140710633D01*
X121625538Y-140733599D01*
X121630078Y-140752510D01*
X121633857Y-140776366D01*
X121633857Y-140776367D01*
X121633858Y-140776368D01*
X121644818Y-140797878D01*
X121652265Y-140815856D01*
X121659727Y-140838822D01*
X121673916Y-140858351D01*
X121684084Y-140874943D01*
X121695047Y-140896460D01*
X121713478Y-140914890D01*
X121719021Y-140920433D01*
X121719022Y-140920434D01*
X121938798Y-141140210D01*
X122155674Y-141357085D01*
X122155679Y-141357092D01*
X122265209Y-141466622D01*
X122265211Y-141466623D01*
X122265213Y-141466625D01*
X122286737Y-141477592D01*
X122303316Y-141487752D01*
X122320483Y-141500225D01*
X122322852Y-141501946D01*
X122345810Y-141509405D01*
X122363794Y-141516854D01*
X122385307Y-141527816D01*
X122409152Y-141531592D01*
X122428075Y-141536134D01*
X122451040Y-141543597D01*
X122484945Y-141543597D01*
X122585826Y-141543597D01*
X130885521Y-141543597D01*
X130951795Y-141562793D01*
X130997549Y-141614439D01*
X131008617Y-141682544D01*
X130994354Y-141799999D01*
X131014860Y-141968872D01*
X131075182Y-142127930D01*
X131171817Y-142267930D01*
X131232727Y-142321891D01*
X131263576Y-142363815D01*
X131274500Y-142414706D01*
X131274500Y-144672390D01*
X131265061Y-144719843D01*
X131238181Y-144760071D01*
X128631466Y-147366784D01*
X128586000Y-147395696D01*
X128532563Y-147402594D01*
X128481246Y-147386177D01*
X128441735Y-147349544D01*
X128429325Y-147331565D01*
X128378183Y-147257473D01*
X128250852Y-147144668D01*
X128206748Y-147121520D01*
X128100224Y-147065611D01*
X127975765Y-147034935D01*
X127935056Y-147024902D01*
X127764944Y-147024902D01*
X127682359Y-147045257D01*
X127599774Y-147065612D01*
X127504958Y-147115375D01*
X127454820Y-147129352D01*
X127403362Y-147121520D01*
X127359652Y-147093259D01*
X119354690Y-139088296D01*
X119354675Y-139088283D01*
X119338342Y-139071950D01*
X119338341Y-139071949D01*
X119338339Y-139071947D01*
X119318599Y-139061889D01*
X119302014Y-139051726D01*
X119284090Y-139038704D01*
X119263020Y-139031858D01*
X119245044Y-139024412D01*
X119225302Y-139014353D01*
X119203418Y-139010886D01*
X119184507Y-139006346D01*
X119163435Y-138999500D01*
X119163433Y-138999500D01*
X119131519Y-138999500D01*
X114779174Y-138999500D01*
X114721548Y-138985297D01*
X114677124Y-138945940D01*
X114656078Y-138890447D01*
X114663232Y-138831529D01*
X114693963Y-138750497D01*
X114725714Y-138666776D01*
X114746219Y-138497904D01*
X114725714Y-138329032D01*
X114665392Y-138169974D01*
X114568757Y-138029975D01*
X114467273Y-137940068D01*
X114436424Y-137898144D01*
X114425500Y-137847253D01*
X114425500Y-135514706D01*
X114436424Y-135463815D01*
X114467273Y-135421891D01*
X114528182Y-135367930D01*
X114547416Y-135340065D01*
X114624818Y-135227930D01*
X114685140Y-135068872D01*
X114705645Y-134900000D01*
X114685140Y-134731128D01*
X114624818Y-134572070D01*
X114575069Y-134499997D01*
X114528184Y-134432072D01*
X114528183Y-134432071D01*
X114400852Y-134319266D01*
X114298310Y-134265447D01*
X114250224Y-134240209D01*
X114125764Y-134209533D01*
X114085056Y-134199500D01*
X113914944Y-134199500D01*
X113882284Y-134207549D01*
X113749775Y-134240209D01*
X113599149Y-134319265D01*
X113471815Y-134432072D01*
X113375182Y-134572069D01*
X113314860Y-134731127D01*
X113294354Y-134900000D01*
X113314860Y-135068872D01*
X113375182Y-135227930D01*
X113471817Y-135367930D01*
X113532727Y-135421891D01*
X113563576Y-135463815D01*
X113574500Y-135514706D01*
X113574500Y-137919144D01*
X113563575Y-137970036D01*
X113532726Y-138011960D01*
X113512389Y-138029975D01*
X113448836Y-138122047D01*
X113409326Y-138158680D01*
X113358008Y-138175097D01*
X113304572Y-138168199D01*
X113259106Y-138139287D01*
X112287813Y-137167994D01*
X112261417Y-137128917D01*
X112251519Y-137082810D01*
X112259552Y-137036342D01*
X112262742Y-137027930D01*
X112285140Y-136968872D01*
X112305645Y-136800000D01*
X112285140Y-136631128D01*
X112224818Y-136472070D01*
X112128183Y-136332071D01*
X112000852Y-136219266D01*
X111986588Y-136211780D01*
X111850224Y-136140209D01*
X111702376Y-136103769D01*
X111685056Y-136099500D01*
X111514944Y-136099500D01*
X111497624Y-136103769D01*
X111349775Y-136140209D01*
X111199149Y-136219265D01*
X111071815Y-136332072D01*
X110975182Y-136472069D01*
X110914860Y-136631127D01*
X110894354Y-136800000D01*
X110914860Y-136968872D01*
X110975182Y-137127930D01*
X111071815Y-137267927D01*
X111071816Y-137267928D01*
X111071817Y-137267929D01*
X111199148Y-137380734D01*
X111349775Y-137459790D01*
X111445001Y-137483260D01*
X111503009Y-137515976D01*
X113449852Y-139462819D01*
X113480102Y-139512182D01*
X113484644Y-139569898D01*
X113462489Y-139623385D01*
X113418466Y-139660985D01*
X113362171Y-139674500D01*
X109227610Y-139674500D01*
X109180157Y-139665061D01*
X109139929Y-139638181D01*
X106791858Y-137290110D01*
X106761920Y-137241695D01*
X106756769Y-137185006D01*
X106777488Y-137131992D01*
X106849318Y-137027930D01*
X106909640Y-136868872D01*
X106930145Y-136700000D01*
X106909640Y-136531128D01*
X106849318Y-136372070D01*
X106801000Y-136302070D01*
X106752684Y-136232072D01*
X106752683Y-136232071D01*
X106625352Y-136119266D01*
X106595825Y-136103769D01*
X106474724Y-136040209D01*
X106350264Y-136009533D01*
X106309556Y-135999500D01*
X106139444Y-135999500D01*
X106106784Y-136007549D01*
X105974275Y-136040209D01*
X105905043Y-136076545D01*
X105880128Y-136089622D01*
X105818759Y-136103769D01*
X105758354Y-136085943D01*
X105714497Y-136040742D01*
X105698503Y-135979826D01*
X105698503Y-135894334D01*
X105710475Y-135841176D01*
X105744080Y-135798283D01*
X105792828Y-135773937D01*
X105850225Y-135759790D01*
X106000852Y-135680734D01*
X106128183Y-135567929D01*
X106224818Y-135427930D01*
X106285140Y-135268872D01*
X106305645Y-135100000D01*
X106285140Y-134931128D01*
X106224818Y-134772070D01*
X106196174Y-134730572D01*
X106175128Y-134675079D01*
X106182282Y-134616161D01*
X106215995Y-134567317D01*
X106328183Y-134467929D01*
X106424818Y-134327930D01*
X106485140Y-134168872D01*
X106505645Y-134000000D01*
X106485140Y-133831128D01*
X106471047Y-133793969D01*
X106463894Y-133735054D01*
X106484940Y-133679560D01*
X106529364Y-133640203D01*
X106586990Y-133626000D01*
X117072890Y-133626000D01*
X117120343Y-133635439D01*
G37*
G04 #@! TD.AperFunction*
G04 #@! TA.AperFunction,Conductor*
G36*
X118930198Y-139809939D02*
G01*
X118970426Y-139836819D01*
X121125990Y-141992383D01*
X123120928Y-143987320D01*
X123151178Y-144036683D01*
X123155720Y-144094399D01*
X123133565Y-144147886D01*
X123089542Y-144185486D01*
X123033247Y-144199001D01*
X116352111Y-144199001D01*
X116304658Y-144189562D01*
X116264430Y-144162682D01*
X115935923Y-143834175D01*
X115905789Y-143785167D01*
X115901016Y-143727834D01*
X115922632Y-143674518D01*
X115965974Y-143636701D01*
X115976102Y-143631386D01*
X116103433Y-143518581D01*
X116200068Y-143378582D01*
X116260390Y-143219524D01*
X116280895Y-143050652D01*
X116260390Y-142881780D01*
X116200068Y-142722722D01*
X116103433Y-142582723D01*
X115976102Y-142469918D01*
X115976099Y-142469916D01*
X115967273Y-142462097D01*
X115936424Y-142420172D01*
X115925500Y-142369281D01*
X115925500Y-142163706D01*
X115936424Y-142112815D01*
X115967273Y-142070891D01*
X116028182Y-142016930D01*
X116033403Y-142009366D01*
X116124818Y-141876930D01*
X116185140Y-141717872D01*
X116205645Y-141549000D01*
X116185140Y-141380128D01*
X116124818Y-141221070D01*
X116040904Y-141099500D01*
X116028184Y-141081072D01*
X116004077Y-141059715D01*
X115900852Y-140968266D01*
X115786127Y-140908053D01*
X115737636Y-140862406D01*
X115719754Y-140798256D01*
X115737638Y-140734106D01*
X115786128Y-140688461D01*
X115800852Y-140680734D01*
X115928183Y-140567929D01*
X116024818Y-140427930D01*
X116085140Y-140268872D01*
X116105645Y-140100000D01*
X116086150Y-139939446D01*
X116097218Y-139871342D01*
X116142972Y-139819696D01*
X116209246Y-139800500D01*
X118882745Y-139800500D01*
X118930198Y-139809939D01*
G37*
G04 #@! TD.AperFunction*
G04 #@! TA.AperFunction,Conductor*
G36*
X105042651Y-134085923D02*
G01*
X105083476Y-134114102D01*
X105109989Y-134156029D01*
X105175182Y-134327930D01*
X105203825Y-134369427D01*
X105224871Y-134424920D01*
X105217717Y-134483838D01*
X105184003Y-134532682D01*
X105071816Y-134632071D01*
X104975182Y-134772069D01*
X104914860Y-134931127D01*
X104894354Y-135100000D01*
X104901406Y-135158071D01*
X104898344Y-135204129D01*
X104894405Y-135212476D01*
X104895222Y-135212742D01*
X104881690Y-135254384D01*
X104874247Y-135272353D01*
X104863283Y-135293871D01*
X104859506Y-135317720D01*
X104854965Y-135336636D01*
X104847503Y-135359603D01*
X104847503Y-142571569D01*
X104833988Y-142627864D01*
X104796388Y-142671887D01*
X104742901Y-142694042D01*
X104685185Y-142689500D01*
X104635822Y-142659250D01*
X103072606Y-141096034D01*
X103045726Y-141055806D01*
X103036287Y-141008353D01*
X103036287Y-134344660D01*
X103045726Y-134297207D01*
X103072606Y-134256979D01*
X103217266Y-134112319D01*
X103257494Y-134085439D01*
X103304947Y-134076000D01*
X104994047Y-134076000D01*
X105042651Y-134085923D01*
G37*
G04 #@! TD.AperFunction*
G04 #@! TA.AperFunction,Conductor*
G36*
X148537500Y-129816613D02*
G01*
X148582887Y-129862000D01*
X148599500Y-129924000D01*
X148599500Y-156275500D01*
X148582887Y-156337500D01*
X148537500Y-156382887D01*
X148475500Y-156399500D01*
X89124500Y-156399500D01*
X89062500Y-156382887D01*
X89017113Y-156337500D01*
X89000500Y-156275500D01*
X89000500Y-145943337D01*
X101050442Y-145943337D01*
X101057904Y-145966303D01*
X101062444Y-145985214D01*
X101066223Y-146009070D01*
X101066223Y-146009071D01*
X101066224Y-146009072D01*
X101077184Y-146030582D01*
X101084631Y-146048560D01*
X101092093Y-146071526D01*
X101106282Y-146091055D01*
X101116450Y-146107647D01*
X101127413Y-146129164D01*
X101151387Y-146153137D01*
X102462910Y-147464660D01*
X102492446Y-147511891D01*
X102498325Y-147567285D01*
X102494353Y-147599998D01*
X102514859Y-147768873D01*
X102575181Y-147927931D01*
X102671814Y-148067928D01*
X102671815Y-148067929D01*
X102671816Y-148067930D01*
X102776356Y-148160544D01*
X102812513Y-148216467D01*
X102814525Y-148283033D01*
X102781809Y-148341039D01*
X101771280Y-149351570D01*
X101675971Y-149446878D01*
X101665009Y-149468392D01*
X101654847Y-149484975D01*
X101640651Y-149504515D01*
X101633187Y-149527485D01*
X101625744Y-149545454D01*
X101614780Y-149566972D01*
X101611003Y-149590821D01*
X101606462Y-149609737D01*
X101599000Y-149632704D01*
X101599000Y-154663273D01*
X101606462Y-154686239D01*
X101611002Y-154705150D01*
X101614781Y-154729006D01*
X101614781Y-154729007D01*
X101614782Y-154729008D01*
X101625742Y-154750518D01*
X101633189Y-154768496D01*
X101640651Y-154791462D01*
X101654840Y-154810991D01*
X101665008Y-154827583D01*
X101675971Y-154849100D01*
X101699945Y-154873073D01*
X101699946Y-154873074D01*
X102479094Y-155652222D01*
X102574402Y-155747530D01*
X102592154Y-155756575D01*
X102595917Y-155758492D01*
X102612504Y-155768656D01*
X102632041Y-155782851D01*
X102646966Y-155787700D01*
X102655001Y-155790311D01*
X102672981Y-155797758D01*
X102694496Y-155808721D01*
X102718341Y-155812497D01*
X102737264Y-155817039D01*
X102760229Y-155824502D01*
X102794134Y-155824502D01*
X102895015Y-155824502D01*
X103504985Y-155824502D01*
X103605866Y-155824502D01*
X103639769Y-155824502D01*
X103639771Y-155824502D01*
X103662741Y-155817037D01*
X103681644Y-155812499D01*
X103705504Y-155808721D01*
X103727025Y-155797754D01*
X103744994Y-155790311D01*
X103767959Y-155782851D01*
X103787493Y-155768658D01*
X103804082Y-155758491D01*
X103825598Y-155747530D01*
X103920906Y-155652222D01*
X105311308Y-154261819D01*
X105351537Y-154234939D01*
X105398990Y-154225500D01*
X105785501Y-154225500D01*
X105847501Y-154242113D01*
X105892888Y-154287500D01*
X105909501Y-154349500D01*
X105909501Y-154694867D01*
X105912414Y-154719988D01*
X105912414Y-154719990D01*
X105912415Y-154719991D01*
X105952595Y-154810991D01*
X105957795Y-154822767D01*
X106037232Y-154902204D01*
X106037233Y-154902204D01*
X106037235Y-154902206D01*
X106140009Y-154947585D01*
X106165135Y-154950500D01*
X107954864Y-154950499D01*
X107954867Y-154950499D01*
X107967427Y-154949041D01*
X107979991Y-154947585D01*
X108082765Y-154902206D01*
X108162206Y-154822765D01*
X108207585Y-154719991D01*
X108210500Y-154694865D01*
X108210499Y-153956046D01*
X108226170Y-153895710D01*
X108269221Y-153850622D01*
X108328772Y-153832181D01*
X108389770Y-153845049D01*
X108436799Y-153885972D01*
X108457970Y-153944607D01*
X108464243Y-154012310D01*
X108522595Y-154217390D01*
X108617631Y-154408252D01*
X108746126Y-154578405D01*
X108746128Y-154578407D01*
X108903698Y-154722052D01*
X109084981Y-154834298D01*
X109283802Y-154911321D01*
X109493390Y-154950500D01*
X109706608Y-154950500D01*
X109706610Y-154950500D01*
X109916198Y-154911321D01*
X110115019Y-154834298D01*
X110296302Y-154722052D01*
X110453872Y-154578407D01*
X110582366Y-154408255D01*
X110582366Y-154408253D01*
X110582368Y-154408252D01*
X110642494Y-154287500D01*
X110677405Y-154217389D01*
X110735756Y-154012310D01*
X110746529Y-153896047D01*
X110766633Y-153838996D01*
X110809410Y-153799999D01*
X110766633Y-153761003D01*
X110746529Y-153703951D01*
X110735756Y-153587689D01*
X110705324Y-153480734D01*
X110677405Y-153382611D01*
X110601301Y-153229771D01*
X110588433Y-153168773D01*
X110606874Y-153109222D01*
X110651962Y-153066171D01*
X110712301Y-153050500D01*
X110737390Y-153050500D01*
X110784843Y-153059939D01*
X110825071Y-153086819D01*
X111023974Y-153285722D01*
X111056311Y-153342233D01*
X111055559Y-153407338D01*
X111004243Y-153587689D01*
X110993471Y-153703951D01*
X110973367Y-153761003D01*
X110930589Y-153799999D01*
X110973367Y-153838996D01*
X110993471Y-153896048D01*
X111004243Y-154012310D01*
X111062595Y-154217390D01*
X111157631Y-154408252D01*
X111286126Y-154578405D01*
X111286128Y-154578407D01*
X111443698Y-154722052D01*
X111624981Y-154834298D01*
X111823802Y-154911321D01*
X112033390Y-154950500D01*
X112246608Y-154950500D01*
X112246610Y-154950500D01*
X112456198Y-154911321D01*
X112520241Y-154886510D01*
X112566936Y-154878153D01*
X112613361Y-154887945D01*
X112652709Y-154914457D01*
X113415973Y-155677721D01*
X113511281Y-155773029D01*
X113532789Y-155783988D01*
X113532793Y-155783990D01*
X113549381Y-155794155D01*
X113568918Y-155808349D01*
X113568919Y-155808349D01*
X113568920Y-155808350D01*
X113591882Y-155815810D01*
X113609862Y-155823258D01*
X113631375Y-155834220D01*
X113655220Y-155837996D01*
X113674143Y-155842538D01*
X113697108Y-155850001D01*
X113731013Y-155850001D01*
X113831894Y-155850001D01*
X134308106Y-155850001D01*
X134408987Y-155850001D01*
X134442890Y-155850001D01*
X134442892Y-155850001D01*
X134465862Y-155842536D01*
X134484765Y-155837998D01*
X134508625Y-155834220D01*
X134530146Y-155823253D01*
X134548115Y-155815810D01*
X134571080Y-155808350D01*
X134590610Y-155794159D01*
X134607203Y-155783990D01*
X134628719Y-155773029D01*
X134724027Y-155677721D01*
X135774554Y-154627194D01*
X135798528Y-154603220D01*
X135809489Y-154581704D01*
X135819658Y-154565112D01*
X135831001Y-154549500D01*
X135833849Y-154545581D01*
X135841309Y-154522616D01*
X135848752Y-154504647D01*
X135859719Y-154483126D01*
X135863497Y-154459266D01*
X135868035Y-154440363D01*
X135875500Y-154417393D01*
X135875500Y-154282607D01*
X135875500Y-135510302D01*
X135875500Y-135476397D01*
X135868037Y-135453432D01*
X135863495Y-135434509D01*
X135859618Y-135410027D01*
X135848430Y-135376628D01*
X135847436Y-135340065D01*
X135858750Y-135246895D01*
X135838245Y-135078023D01*
X135777923Y-134918965D01*
X135681288Y-134778966D01*
X135553957Y-134666161D01*
X135539693Y-134658675D01*
X135403329Y-134587104D01*
X135278869Y-134556428D01*
X135238161Y-134546395D01*
X135068049Y-134546395D01*
X135035389Y-134554444D01*
X134902880Y-134587104D01*
X134752254Y-134666160D01*
X134624920Y-134778967D01*
X134528287Y-134918964D01*
X134467965Y-135078022D01*
X134447459Y-135246894D01*
X134467965Y-135415767D01*
X134528287Y-135574825D01*
X134624920Y-135714822D01*
X134624921Y-135714823D01*
X134624922Y-135714824D01*
X134752253Y-135827629D01*
X134902879Y-135906684D01*
X134902880Y-135906685D01*
X134930175Y-135913413D01*
X134978923Y-135937759D01*
X135012528Y-135980652D01*
X135024500Y-136033810D01*
X135024500Y-136137728D01*
X135011987Y-136192011D01*
X134976973Y-136235339D01*
X134926526Y-136258966D01*
X134870825Y-136258125D01*
X134810556Y-136243270D01*
X134640444Y-136243270D01*
X134607784Y-136251319D01*
X134475275Y-136283979D01*
X134324649Y-136363035D01*
X134197315Y-136475842D01*
X134100682Y-136615839D01*
X134040360Y-136774897D01*
X134023626Y-136912707D01*
X134012017Y-136952044D01*
X133988211Y-136985441D01*
X131035473Y-139938181D01*
X130995245Y-139965061D01*
X130947792Y-139974500D01*
X123437687Y-139974500D01*
X123380061Y-139960297D01*
X123335637Y-139920940D01*
X123321488Y-139900441D01*
X123249673Y-139836819D01*
X123194156Y-139787635D01*
X123148360Y-139763599D01*
X123099871Y-139717952D01*
X123081989Y-139653803D01*
X123099872Y-139589654D01*
X123148358Y-139544011D01*
X123232018Y-139500103D01*
X123359349Y-139387298D01*
X123455984Y-139247299D01*
X123516306Y-139088241D01*
X123536811Y-138919369D01*
X123516306Y-138750497D01*
X123455984Y-138591439D01*
X123359349Y-138451440D01*
X123359348Y-138451438D01*
X123298439Y-138397478D01*
X123267590Y-138355554D01*
X123256666Y-138304663D01*
X123256666Y-137263067D01*
X123255498Y-137259472D01*
X123249203Y-137240101D01*
X123244661Y-137221178D01*
X123240885Y-137197333D01*
X123229923Y-137175820D01*
X123222474Y-137157837D01*
X123215015Y-137134878D01*
X123215014Y-137134876D01*
X123200820Y-137115339D01*
X123190655Y-137098751D01*
X123179694Y-137077239D01*
X123084386Y-136981931D01*
X121346108Y-135243653D01*
X121315974Y-135194646D01*
X121311201Y-135137315D01*
X121332814Y-135083999D01*
X121376161Y-135046177D01*
X121500852Y-134980734D01*
X121628183Y-134867929D01*
X121724818Y-134727930D01*
X121785140Y-134568872D01*
X121804485Y-134409552D01*
X121825531Y-134354060D01*
X121869955Y-134314703D01*
X121927581Y-134300500D01*
X127490754Y-134300500D01*
X127557028Y-134319696D01*
X127602782Y-134371342D01*
X127613850Y-134439447D01*
X127594354Y-134599999D01*
X127614860Y-134768872D01*
X127675182Y-134927930D01*
X127771815Y-135067927D01*
X127771816Y-135067928D01*
X127771817Y-135067929D01*
X127899148Y-135180734D01*
X128049775Y-135259790D01*
X128214944Y-135300500D01*
X128214945Y-135300500D01*
X128347390Y-135300500D01*
X128394843Y-135309939D01*
X128435071Y-135336819D01*
X130241288Y-137143036D01*
X130336596Y-137238344D01*
X130354348Y-137247389D01*
X130358111Y-137249306D01*
X130374698Y-137259470D01*
X130394235Y-137273665D01*
X130409160Y-137278514D01*
X130417195Y-137281125D01*
X130435175Y-137288572D01*
X130456690Y-137299535D01*
X130480535Y-137303311D01*
X130499458Y-137307853D01*
X130522423Y-137315316D01*
X130556328Y-137315316D01*
X130657209Y-137315316D01*
X130985652Y-137315316D01*
X131043269Y-137329515D01*
X131066603Y-137350182D01*
X131068749Y-137347760D01*
X131080017Y-137357743D01*
X131080019Y-137357745D01*
X131207350Y-137470550D01*
X131357977Y-137549606D01*
X131523146Y-137590316D01*
X131693257Y-137590316D01*
X131693258Y-137590316D01*
X131858427Y-137549606D01*
X132009054Y-137470550D01*
X132136385Y-137357745D01*
X132233020Y-137217746D01*
X132293342Y-137058688D01*
X132313847Y-136889816D01*
X132293342Y-136720944D01*
X132233020Y-136561886D01*
X132141605Y-136429449D01*
X132136386Y-136421888D01*
X132080153Y-136372070D01*
X132009054Y-136309082D01*
X131955202Y-136280818D01*
X131858426Y-136230025D01*
X131733967Y-136199349D01*
X131693258Y-136189316D01*
X131523146Y-136189316D01*
X131512212Y-136192011D01*
X131357977Y-136230025D01*
X131207351Y-136309081D01*
X131207349Y-136309082D01*
X131207350Y-136309082D01*
X131080019Y-136421887D01*
X131080017Y-136421888D01*
X131068749Y-136431872D01*
X131066603Y-136429449D01*
X131043269Y-136450117D01*
X130985652Y-136464316D01*
X130817426Y-136464316D01*
X130769973Y-136454877D01*
X130729745Y-136427997D01*
X129037087Y-134735339D01*
X129007550Y-134688106D01*
X129001672Y-134632713D01*
X129005645Y-134600000D01*
X128986150Y-134439446D01*
X128997218Y-134371342D01*
X129042972Y-134319696D01*
X129109246Y-134300500D01*
X132147390Y-134300500D01*
X132194843Y-134309939D01*
X132235071Y-134336819D01*
X132262911Y-134364659D01*
X132292447Y-134411890D01*
X132298326Y-134467284D01*
X132294354Y-134499997D01*
X132314860Y-134668872D01*
X132375182Y-134827930D01*
X132471815Y-134967927D01*
X132471816Y-134967928D01*
X132471817Y-134967929D01*
X132599148Y-135080734D01*
X132749775Y-135159790D01*
X132914944Y-135200500D01*
X133085055Y-135200500D01*
X133085056Y-135200500D01*
X133250225Y-135159790D01*
X133400852Y-135080734D01*
X133528183Y-134967929D01*
X133624818Y-134827930D01*
X133685140Y-134668872D01*
X133705645Y-134500000D01*
X133685140Y-134331128D01*
X133624818Y-134172070D01*
X133528183Y-134032071D01*
X133400852Y-133919266D01*
X133316601Y-133875047D01*
X133250224Y-133840209D01*
X133125765Y-133809533D01*
X133085056Y-133799500D01*
X132952610Y-133799500D01*
X132905157Y-133790061D01*
X132864929Y-133763181D01*
X132652193Y-133550445D01*
X132628220Y-133526471D01*
X132606703Y-133515508D01*
X132590111Y-133505340D01*
X132570582Y-133491151D01*
X132547616Y-133483689D01*
X132529638Y-133476242D01*
X132508128Y-133465282D01*
X132508127Y-133465281D01*
X132508126Y-133465281D01*
X132484270Y-133461502D01*
X132465359Y-133456962D01*
X132442393Y-133449500D01*
X132408488Y-133449500D01*
X121692393Y-133449500D01*
X121557607Y-133449500D01*
X121557606Y-133449500D01*
X121534639Y-133456962D01*
X121515723Y-133461503D01*
X121491874Y-133465280D01*
X121470356Y-133476244D01*
X121452387Y-133483687D01*
X121429419Y-133491150D01*
X121409884Y-133505343D01*
X121393301Y-133515505D01*
X121371781Y-133526470D01*
X121347807Y-133550445D01*
X121276472Y-133621780D01*
X121235071Y-133663181D01*
X121194843Y-133690061D01*
X121147390Y-133699500D01*
X121014944Y-133699500D01*
X120982284Y-133707549D01*
X120849775Y-133740209D01*
X120699149Y-133819265D01*
X120571815Y-133932072D01*
X120475182Y-134072069D01*
X120414860Y-134231127D01*
X120410693Y-134265447D01*
X120389647Y-134320940D01*
X120345223Y-134360297D01*
X120287597Y-134374500D01*
X119522550Y-134374500D01*
X119464933Y-134360301D01*
X119441598Y-134339633D01*
X119439453Y-134342056D01*
X119428184Y-134332072D01*
X119428183Y-134332071D01*
X119300852Y-134219266D01*
X119286588Y-134211779D01*
X119150224Y-134140209D01*
X119025765Y-134109533D01*
X118985056Y-134099500D01*
X118852610Y-134099500D01*
X118805157Y-134090061D01*
X118764929Y-134063181D01*
X117577693Y-132875945D01*
X117553720Y-132851971D01*
X117532203Y-132841008D01*
X117515611Y-132830840D01*
X117496082Y-132816651D01*
X117473116Y-132809189D01*
X117455138Y-132801742D01*
X117433628Y-132790782D01*
X117433627Y-132790781D01*
X117433626Y-132790781D01*
X117409770Y-132787002D01*
X117390859Y-132782462D01*
X117367893Y-132775000D01*
X117333988Y-132775000D01*
X102958334Y-132775000D01*
X102823548Y-132775000D01*
X102823547Y-132775000D01*
X102800580Y-132782462D01*
X102781664Y-132787003D01*
X102757815Y-132790780D01*
X102736297Y-132801744D01*
X102718328Y-132809187D01*
X102695360Y-132816650D01*
X102675821Y-132830846D01*
X102659234Y-132841010D01*
X102637720Y-132851971D01*
X102555165Y-132934523D01*
X102555160Y-132934532D01*
X101837195Y-133652495D01*
X101837193Y-133652499D01*
X101800471Y-133689221D01*
X101789509Y-133710735D01*
X101779347Y-133727318D01*
X101765151Y-133746858D01*
X101757687Y-133769828D01*
X101750244Y-133787797D01*
X101739280Y-133809315D01*
X101735503Y-133833164D01*
X101730962Y-133852080D01*
X101723500Y-133875047D01*
X101723500Y-141477259D01*
X101730962Y-141500225D01*
X101735502Y-141519136D01*
X101739281Y-141542992D01*
X101739281Y-141542993D01*
X101739282Y-141542994D01*
X101750242Y-141564504D01*
X101757689Y-141582482D01*
X101765151Y-141605448D01*
X101779340Y-141624977D01*
X101789508Y-141641569D01*
X101800471Y-141663086D01*
X101824445Y-141687059D01*
X102463826Y-142326440D01*
X102493960Y-142375446D01*
X102498733Y-142432778D01*
X102477120Y-142486093D01*
X102433773Y-142523915D01*
X102428376Y-142526748D01*
X102423649Y-142529229D01*
X102296315Y-142642036D01*
X102199682Y-142782033D01*
X102139360Y-142941091D01*
X102118854Y-143109966D01*
X102122826Y-143142677D01*
X102116947Y-143198072D01*
X102087411Y-143245303D01*
X101222722Y-144109994D01*
X101127413Y-144205302D01*
X101116451Y-144226816D01*
X101106289Y-144243399D01*
X101092093Y-144262939D01*
X101084629Y-144285909D01*
X101077186Y-144303878D01*
X101066222Y-144325396D01*
X101062445Y-144349245D01*
X101057904Y-144368161D01*
X101050442Y-144391128D01*
X101050442Y-145943337D01*
X89000500Y-145943337D01*
X89000500Y-131700000D01*
X122294354Y-131700000D01*
X122314860Y-131868872D01*
X122375182Y-132027930D01*
X122471815Y-132167927D01*
X122471816Y-132167928D01*
X122471817Y-132167929D01*
X122599148Y-132280734D01*
X122749775Y-132359790D01*
X122914944Y-132400500D01*
X123085055Y-132400500D01*
X123085056Y-132400500D01*
X123250225Y-132359790D01*
X123400852Y-132280734D01*
X123528183Y-132167929D01*
X123528184Y-132167927D01*
X123539453Y-132157944D01*
X123541598Y-132160366D01*
X123564933Y-132139699D01*
X123622550Y-132125500D01*
X127467391Y-132125500D01*
X127467393Y-132125500D01*
X127490363Y-132118035D01*
X127509266Y-132113497D01*
X127533126Y-132109719D01*
X127554647Y-132098752D01*
X127572616Y-132091309D01*
X127595581Y-132083849D01*
X127615111Y-132069658D01*
X127631704Y-132059489D01*
X127653220Y-132048528D01*
X127748528Y-131953220D01*
X128088430Y-131613316D01*
X128128658Y-131586437D01*
X128176111Y-131576998D01*
X128308557Y-131576998D01*
X128308558Y-131576998D01*
X128473727Y-131536288D01*
X128624354Y-131457232D01*
X128751685Y-131344427D01*
X128848320Y-131204428D01*
X128908642Y-131045370D01*
X128929147Y-130876498D01*
X128908642Y-130707626D01*
X128848320Y-130548568D01*
X128751685Y-130408569D01*
X128624354Y-130295764D01*
X128610090Y-130288277D01*
X128473726Y-130216707D01*
X128349267Y-130186031D01*
X128308558Y-130175998D01*
X128138446Y-130175998D01*
X128105786Y-130184047D01*
X127973277Y-130216707D01*
X127822651Y-130295763D01*
X127695317Y-130408570D01*
X127598684Y-130548567D01*
X127538362Y-130707625D01*
X127517856Y-130876500D01*
X127521828Y-130909211D01*
X127515949Y-130964606D01*
X127486413Y-131011837D01*
X127260068Y-131238183D01*
X127219843Y-131265061D01*
X127172390Y-131274500D01*
X123622550Y-131274500D01*
X123564933Y-131260301D01*
X123541598Y-131239633D01*
X123539453Y-131242056D01*
X123528184Y-131232072D01*
X123528183Y-131232071D01*
X123400852Y-131119266D01*
X123386588Y-131111780D01*
X123250224Y-131040209D01*
X123125764Y-131009533D01*
X123085056Y-130999500D01*
X122914944Y-130999500D01*
X122882284Y-131007549D01*
X122749775Y-131040209D01*
X122599149Y-131119265D01*
X122471815Y-131232072D01*
X122375182Y-131372069D01*
X122314860Y-131531127D01*
X122294354Y-131700000D01*
X89000500Y-131700000D01*
X89000500Y-129924000D01*
X89017113Y-129862000D01*
X89062500Y-129816613D01*
X89124500Y-129800000D01*
X148475500Y-129800000D01*
X148537500Y-129816613D01*
G37*
G04 #@! TD.AperFunction*
M02*
