G04 #@! TF.GenerationSoftware,KiCad,Pcbnew,7.0.1*
G04 #@! TF.CreationDate,2023-11-01T02:09:25-07:00*
G04 #@! TF.ProjectId,KENESP32LTC370TEST,4b454e45-5350-4333-924c-544333373054,rev?*
G04 #@! TF.SameCoordinates,Original*
G04 #@! TF.FileFunction,Soldermask,Top*
G04 #@! TF.FilePolarity,Negative*
%FSLAX46Y46*%
G04 Gerber Fmt 4.6, Leading zero omitted, Abs format (unit mm)*
G04 Created by KiCad (PCBNEW 7.0.1) date 2023-11-01 02:09:25*
%MOMM*%
%LPD*%
G01*
G04 APERTURE LIST*
G04 Aperture macros list*
%AMRoundRect*
0 Rectangle with rounded corners*
0 $1 Rounding radius*
0 $2 $3 $4 $5 $6 $7 $8 $9 X,Y pos of 4 corners*
0 Add a 4 corners polygon primitive as box body*
4,1,4,$2,$3,$4,$5,$6,$7,$8,$9,$2,$3,0*
0 Add four circle primitives for the rounded corners*
1,1,$1+$1,$2,$3*
1,1,$1+$1,$4,$5*
1,1,$1+$1,$6,$7*
1,1,$1+$1,$8,$9*
0 Add four rect primitives between the rounded corners*
20,1,$1+$1,$2,$3,$4,$5,0*
20,1,$1+$1,$4,$5,$6,$7,0*
20,1,$1+$1,$6,$7,$8,$9,0*
20,1,$1+$1,$8,$9,$2,$3,0*%
G04 Aperture macros list end*
%ADD10C,4.000000*%
%ADD11R,3.800000X3.800000*%
%ADD12C,3.800000*%
%ADD13RoundRect,0.250000X-0.650000X0.412500X-0.650000X-0.412500X0.650000X-0.412500X0.650000X0.412500X0*%
%ADD14RoundRect,0.250000X-0.400000X-0.625000X0.400000X-0.625000X0.400000X0.625000X-0.400000X0.625000X0*%
%ADD15RoundRect,0.250000X-0.625000X0.400000X-0.625000X-0.400000X0.625000X-0.400000X0.625000X0.400000X0*%
%ADD16R,3.550000X3.550000*%
%ADD17R,0.249200X0.804800*%
%ADD18R,0.804800X0.249200*%
%ADD19RoundRect,0.250000X0.625000X-0.400000X0.625000X0.400000X-0.625000X0.400000X-0.625000X-0.400000X0*%
%ADD20RoundRect,0.250000X0.400000X0.625000X-0.400000X0.625000X-0.400000X-0.625000X0.400000X-0.625000X0*%
%ADD21R,0.965200X0.431800*%
%ADD22R,1.143000X0.431800*%
%ADD23R,0.431800X1.143000*%
%ADD24R,0.431800X0.965200*%
%ADD25R,4.241800X4.521200*%
%ADD26O,1.700000X1.700000*%
%ADD27R,1.700000X1.700000*%
%ADD28R,1.625600X2.184400*%
%ADD29R,2.184400X1.625600*%
%ADD30RoundRect,0.225000X0.375000X-0.225000X0.375000X0.225000X-0.375000X0.225000X-0.375000X-0.225000X0*%
%ADD31RoundRect,0.225000X-0.225000X-0.375000X0.225000X-0.375000X0.225000X0.375000X-0.225000X0.375000X0*%
%ADD32RoundRect,0.250000X0.650000X-0.412500X0.650000X0.412500X-0.650000X0.412500X-0.650000X-0.412500X0*%
%ADD33RoundRect,0.250000X-0.412500X-0.650000X0.412500X-0.650000X0.412500X0.650000X-0.412500X0.650000X0*%
%ADD34R,2.499995X2.560396*%
%ADD35RoundRect,0.250000X0.412500X0.650000X-0.412500X0.650000X-0.412500X-0.650000X0.412500X-0.650000X0*%
G04 APERTURE END LIST*
G36*
X131764800Y-111201700D02*
G01*
X131180600Y-111201700D01*
X131180600Y-108128300D01*
X131764800Y-108128300D01*
X131764800Y-111201700D01*
G37*
G36*
X136413000Y-112497100D02*
G01*
X132603000Y-112497100D01*
X132603000Y-108102900D01*
X136413000Y-108102900D01*
X136413000Y-112497100D01*
G37*
G36*
X124797100Y-118297000D02*
G01*
X120402900Y-118297000D01*
X120402900Y-114487000D01*
X124797100Y-114487000D01*
X124797100Y-118297000D01*
G37*
G36*
X123501700Y-119719400D02*
G01*
X120428300Y-119719400D01*
X120428300Y-119135200D01*
X123501700Y-119135200D01*
X123501700Y-119719400D01*
G37*
G36*
X115601700Y-119719400D02*
G01*
X112528300Y-119719400D01*
X112528300Y-119135200D01*
X115601700Y-119135200D01*
X115601700Y-119719400D01*
G37*
G36*
X116897100Y-118297000D02*
G01*
X112502900Y-118297000D01*
X112502900Y-114487000D01*
X116897100Y-114487000D01*
X116897100Y-118297000D01*
G37*
G36*
X103997000Y-112797100D02*
G01*
X100187000Y-112797100D01*
X100187000Y-108402900D01*
X103997000Y-108402900D01*
X103997000Y-112797100D01*
G37*
G36*
X105419400Y-112771700D02*
G01*
X104835200Y-112771700D01*
X104835200Y-109698300D01*
X105419400Y-109698300D01*
X105419400Y-112771700D01*
G37*
D10*
X139800000Y-116500000D03*
D11*
X144800000Y-116500000D03*
D12*
X97800000Y-116800000D03*
D11*
X92800000Y-116800000D03*
D13*
X121400000Y-131600000D03*
X121400000Y-134725000D03*
D14*
X120750000Y-149637500D03*
X123850000Y-149637500D03*
D15*
X118700000Y-122800000D03*
X118700000Y-125900000D03*
D16*
X119100000Y-139775000D03*
D17*
X117350001Y-137322600D03*
X117850000Y-137322600D03*
X118349999Y-137322600D03*
X118850000Y-137322600D03*
X119350000Y-137322600D03*
X119850001Y-137322600D03*
X120350000Y-137322600D03*
X120849999Y-137322600D03*
D18*
X121552400Y-138025001D03*
X121552400Y-138525000D03*
X121552400Y-139024999D03*
X121552400Y-139525000D03*
X121552400Y-140025000D03*
X121552400Y-140525001D03*
X121552400Y-141025000D03*
X121552400Y-141524999D03*
D17*
X120849999Y-142227400D03*
X120350000Y-142227400D03*
X119850001Y-142227400D03*
X119350000Y-142227400D03*
X118850000Y-142227400D03*
X118349999Y-142227400D03*
X117850000Y-142227400D03*
X117350001Y-142227400D03*
D18*
X116647600Y-141524999D03*
X116647600Y-141025000D03*
X116647600Y-140525001D03*
X116647600Y-140025000D03*
X116647600Y-139525000D03*
X116647600Y-139024999D03*
X116647600Y-138525000D03*
X116647600Y-138025001D03*
D14*
X118650000Y-149637500D03*
X115550000Y-149637500D03*
D19*
X129250000Y-140637500D03*
X129250000Y-143737500D03*
X131725300Y-146937500D03*
X131725300Y-143837500D03*
X131750000Y-141837500D03*
X131750000Y-138737500D03*
X105550000Y-147337500D03*
X105550000Y-144237500D03*
D15*
X105650000Y-136637500D03*
X105650000Y-139737500D03*
D19*
X103250000Y-139737500D03*
X103250000Y-136637500D03*
D20*
X111650000Y-134337500D03*
X108550000Y-134337500D03*
X111500000Y-139575000D03*
X108400000Y-139575000D03*
X111550000Y-136875000D03*
X108450000Y-136875000D03*
D19*
X103250000Y-141737500D03*
X103250000Y-144837500D03*
D15*
X129150000Y-146737500D03*
X129150000Y-149837500D03*
D14*
X110900000Y-149537500D03*
X107800000Y-149537500D03*
D21*
X136895600Y-108395000D03*
X136895600Y-110935000D03*
D22*
X131193300Y-110935000D03*
D21*
X136895600Y-109665000D03*
X136895600Y-112205000D03*
D22*
X131193300Y-112205000D03*
X131193300Y-109665000D03*
X131193300Y-108395000D03*
D23*
X120695000Y-119706700D03*
X121965000Y-119706700D03*
X124505000Y-119706700D03*
D24*
X124505000Y-114004400D03*
X121965000Y-114004400D03*
D23*
X123235000Y-119706700D03*
D24*
X123235000Y-114004400D03*
X120695000Y-114004400D03*
X112795000Y-114004400D03*
X115335000Y-114004400D03*
D23*
X115335000Y-119706700D03*
D24*
X114065000Y-114004400D03*
X116605000Y-114004400D03*
D23*
X116605000Y-119706700D03*
X114065000Y-119706700D03*
X112795000Y-119706700D03*
D22*
X105406700Y-112505000D03*
X105406700Y-111235000D03*
X105406700Y-108695000D03*
D21*
X99704400Y-108695000D03*
X99704400Y-111235000D03*
D22*
X105406700Y-109965000D03*
D21*
X99704400Y-109965000D03*
X99704400Y-112505000D03*
D25*
X113625001Y-109241500D03*
X123774999Y-109241500D03*
D26*
X129920000Y-153800000D03*
X127380000Y-153800000D03*
X124840000Y-153800000D03*
X122300000Y-153800000D03*
X119760000Y-153800000D03*
X117220000Y-153800000D03*
X114680000Y-153800000D03*
X112140000Y-153800000D03*
X109600000Y-153800000D03*
D27*
X107060000Y-153800000D03*
D28*
X128450000Y-137791700D03*
X128450000Y-134083300D03*
X108400000Y-116745800D03*
X108400000Y-120454200D03*
D29*
X130191600Y-115700000D03*
X133900000Y-115700000D03*
D28*
X124550000Y-134037500D03*
X124550000Y-137745900D03*
D30*
X110550000Y-144187500D03*
X110550000Y-147487500D03*
D31*
X108750000Y-142037500D03*
X105450000Y-142037500D03*
D13*
X113250000Y-147462500D03*
X113250000Y-144337500D03*
D32*
X118350000Y-144237500D03*
X118350000Y-147362500D03*
X121350000Y-147362500D03*
X121350000Y-144237500D03*
D33*
X114150000Y-142137500D03*
X111025000Y-142137500D03*
D32*
X115850000Y-144337500D03*
X115850000Y-147462500D03*
D34*
X125350000Y-146481888D03*
X125350000Y-141137500D03*
D32*
X118900000Y-131637500D03*
X118900000Y-134762500D03*
X108050000Y-144275000D03*
X108050000Y-147400000D03*
D13*
X114000000Y-134400000D03*
X114000000Y-131275000D03*
D35*
X108511000Y-131982800D03*
X111636000Y-131982800D03*
D32*
X113900000Y-136712500D03*
X113900000Y-139837500D03*
D13*
X116400000Y-134800000D03*
X116400000Y-131675000D03*
D32*
X139800000Y-126162500D03*
X139800000Y-123037500D03*
X137150000Y-126162500D03*
X137150000Y-123037500D03*
X134500000Y-126125000D03*
X134500000Y-123000000D03*
X97500000Y-125862500D03*
X97500000Y-122737500D03*
X102400000Y-125862500D03*
X102400000Y-122737500D03*
X99950000Y-125862500D03*
X99950000Y-122737500D03*
M02*
