M48
; DRILL file {KiCad 7.0.1} date Wed Nov  1 02:10:28 2023
; FORMAT={-:-/ absolute / metric / decimal}
; #@! TF.CreationDate,2023-11-01T02:10:28-07:00
; #@! TF.GenerationSoftware,Kicad,Pcbnew,7.0.1
; #@! TF.FileFunction,Plated,1,2,PTH
FMAT,2
METRIC
; #@! TA.AperFunction,Plated,PTH,ViaDrill
T1C0.400
; #@! TA.AperFunction,Plated,PTH,ViaDrill
T2C1.000
; #@! TA.AperFunction,Plated,PTH,ComponentDrill
T3C1.000
; #@! TA.AperFunction,Plated,PTH,ComponentDrill
T4C2.700
%
G90
G05
T1
X95.9Y-142.3
X101.3Y-140.7
X102.825Y-143.11
X103.2Y-147.6
X103.2Y-152.9
X103.25Y-144.837
X103.5Y-138.1
X105.6Y-135.1
X105.7Y-124.5
X105.8Y-134.0
X106.1Y-131.3
X106.2Y-148.726
X106.224Y-136.7
X106.224Y-139.7
X106.5Y-141.0
X107.524Y-143.264
X108.8Y-142.0
X110.2Y-135.8
X110.6Y-144.1
X111.0Y-142.1
X111.0Y-151.4
X111.5Y-132.0
X111.6Y-136.8
X113.2Y-144.3
X113.2Y-151.325
X113.6Y-148.726
X114.0Y-131.2
X114.0Y-134.9
X114.041Y-138.498
X114.1Y-142.6
X115.4Y-140.1
X115.5Y-141.549
X115.575Y-143.051
X115.8Y-147.2
X115.9Y-136.4
X116.3Y-131.6
X116.6Y-119.7
X117.1Y-146.0
X118.4Y-147.3
X118.8Y-140.7
X118.9Y-131.5
X118.9Y-134.8
X119.223Y-149.123
X120.257Y-138.703
X120.588Y-136.112
X121.1Y-134.4
X121.344Y-146.1
X122.793Y-140.368
X122.831Y-138.919
X123.0Y-131.7
X124.5Y-147.4
X126.059Y-149.619
X126.4Y-135.9
X127.15Y-150.15
X127.85Y-147.725
X128.224Y-130.876
X128.3Y-134.6
X130.412Y-147.912
X130.5Y-130.6
X130.8Y-124.5
X131.158Y-149.285
X131.2Y-112.2
X131.289Y-150.275
X131.608Y-136.89
X131.7Y-141.8
X131.8Y-138.7
X132.0Y-148.4
X132.5Y-152.8
X133.0Y-134.5
X134.574Y-138.433
X134.625Y-150.8
X134.725Y-136.944
X135.153Y-135.247
X145.1Y-141.3
T2
X94.2Y-125.9
X97.0Y-112.0
X99.9Y-120.6
X107.0Y-126.5
X108.8Y-112.1
X111.1Y-122.5
X113.6Y-109.3
X114.8Y-127.6
X118.7Y-120.7
X123.8Y-109.2
X127.1Y-112.4
X129.2Y-121.8
X129.4Y-127.3
X137.2Y-120.5
X139.7Y-111.8
X143.0Y-127.2
T3
X107.06Y-153.8
X109.6Y-153.8
X112.14Y-153.8
X114.68Y-153.8
X117.22Y-153.8
X119.76Y-153.8
X122.3Y-153.8
X124.84Y-153.8
X127.38Y-153.8
X129.92Y-153.8
T4
X92.8Y-116.8
X97.8Y-116.8
X139.8Y-116.5
X144.8Y-116.5
T0
M30
