G04 #@! TF.GenerationSoftware,KiCad,Pcbnew,(6.0.11)*
G04 #@! TF.CreationDate,2023-04-02T15:36:06-07:00*
G04 #@! TF.ProjectId,M_MUC,4d5f4d55-432e-46b6-9963-61645f706362,rev?*
G04 #@! TF.SameCoordinates,Original*
G04 #@! TF.FileFunction,Copper,L1,Top*
G04 #@! TF.FilePolarity,Positive*
%FSLAX46Y46*%
G04 Gerber Fmt 4.6, Leading zero omitted, Abs format (unit mm)*
G04 Created by KiCad (PCBNEW (6.0.11)) date 2023-04-02 15:36:06*
%MOMM*%
%LPD*%
G01*
G04 APERTURE LIST*
G04 #@! TA.AperFunction,ComponentPad*
%ADD10C,1.600000*%
G04 #@! TD*
G04 #@! TA.AperFunction,ComponentPad*
%ADD11C,1.500000*%
G04 #@! TD*
G04 #@! TA.AperFunction,ComponentPad*
%ADD12C,1.400000*%
G04 #@! TD*
G04 #@! TA.AperFunction,ComponentPad*
%ADD13O,1.400000X1.400000*%
G04 #@! TD*
G04 #@! TA.AperFunction,SMDPad,CuDef*
%ADD14R,1.600000X0.550000*%
G04 #@! TD*
G04 #@! TA.AperFunction,SMDPad,CuDef*
%ADD15R,0.550000X1.600000*%
G04 #@! TD*
G04 #@! TA.AperFunction,ComponentPad*
%ADD16R,1.700000X1.700000*%
G04 #@! TD*
G04 #@! TA.AperFunction,ComponentPad*
%ADD17O,1.700000X1.700000*%
G04 #@! TD*
G04 #@! TA.AperFunction,ComponentPad*
%ADD18R,1.800000X1.800000*%
G04 #@! TD*
G04 #@! TA.AperFunction,ComponentPad*
%ADD19C,1.800000*%
G04 #@! TD*
G04 #@! TA.AperFunction,ComponentPad*
%ADD20C,2.000000*%
G04 #@! TD*
G04 #@! TA.AperFunction,ViaPad*
%ADD21C,0.800000*%
G04 #@! TD*
G04 #@! TA.AperFunction,Conductor*
%ADD22C,0.250000*%
G04 #@! TD*
G04 #@! TA.AperFunction,Conductor*
%ADD23C,0.200000*%
G04 #@! TD*
G04 APERTURE END LIST*
D10*
X112560000Y-101600000D03*
X112560000Y-99100000D03*
D11*
X106680000Y-101600000D03*
X106680000Y-96720000D03*
D12*
X129540000Y-81280000D03*
D13*
X129540000Y-83180000D03*
D10*
X112560000Y-96520000D03*
X112560000Y-94020000D03*
D12*
X110820000Y-86360000D03*
D13*
X112720000Y-86360000D03*
D14*
X117670000Y-88640000D03*
X117670000Y-89440000D03*
X117670000Y-90240000D03*
X117670000Y-91040000D03*
X117670000Y-91840000D03*
X117670000Y-92640000D03*
X117670000Y-93440000D03*
X117670000Y-94240000D03*
D15*
X119120000Y-95690000D03*
X119920000Y-95690000D03*
X120720000Y-95690000D03*
X121520000Y-95690000D03*
X122320000Y-95690000D03*
X123120000Y-95690000D03*
X123920000Y-95690000D03*
X124720000Y-95690000D03*
D14*
X126170000Y-94240000D03*
X126170000Y-93440000D03*
X126170000Y-92640000D03*
X126170000Y-91840000D03*
X126170000Y-91040000D03*
X126170000Y-90240000D03*
X126170000Y-89440000D03*
X126170000Y-88640000D03*
D15*
X124720000Y-87190000D03*
X123920000Y-87190000D03*
X123120000Y-87190000D03*
X122320000Y-87190000D03*
X121520000Y-87190000D03*
X120720000Y-87190000D03*
X119920000Y-87190000D03*
X119120000Y-87190000D03*
D16*
X139730000Y-101600000D03*
D17*
X137190000Y-101600000D03*
X139730000Y-99060000D03*
X137190000Y-99060000D03*
X139730000Y-96520000D03*
X137190000Y-96520000D03*
D18*
X106680000Y-86360000D03*
D19*
X104140000Y-86360000D03*
D20*
X139410000Y-80570000D03*
X139410000Y-87070000D03*
X134910000Y-80570000D03*
X134910000Y-87070000D03*
D10*
X121880000Y-78740000D03*
X119380000Y-78740000D03*
D16*
X127610000Y-71580000D03*
D17*
X125070000Y-71580000D03*
X122530000Y-71580000D03*
X119990000Y-71580000D03*
X117450000Y-71580000D03*
X114910000Y-71580000D03*
X112370000Y-71580000D03*
X109830000Y-71580000D03*
X107290000Y-71580000D03*
X104750000Y-71580000D03*
D21*
X132842000Y-101600000D03*
X127000000Y-84582000D03*
X115570000Y-89916000D03*
X130048000Y-92964000D03*
X128524000Y-97790000D03*
X114530000Y-93420000D03*
X111252000Y-89662000D03*
X122428000Y-82296000D03*
X115330000Y-96790000D03*
X115800000Y-88160000D03*
X115290000Y-81510000D03*
X115930000Y-85150000D03*
X115900000Y-79070000D03*
X110240000Y-76730000D03*
X131572000Y-96774000D03*
X121820000Y-89740000D03*
X113990000Y-90100000D03*
X120650000Y-80772000D03*
X131826000Y-91186000D03*
X116400000Y-76590000D03*
X126990000Y-80160000D03*
X124460000Y-81280000D03*
X109220000Y-91948000D03*
D22*
X115640000Y-93440000D02*
X112560000Y-96520000D01*
X117670000Y-93440000D02*
X115640000Y-93440000D01*
X112560000Y-94020000D02*
X109380000Y-94020000D01*
X109380000Y-94020000D02*
X106680000Y-96720000D01*
X117670000Y-94240000D02*
X117670000Y-98230000D01*
X114300000Y-101600000D02*
X112560000Y-101600000D01*
X117670000Y-98230000D02*
X114300000Y-101600000D01*
X112560000Y-99100000D02*
X109180000Y-99100000D01*
X109180000Y-99100000D02*
X106680000Y-101600000D01*
X137190000Y-101600000D02*
X132842000Y-101600000D01*
X129540000Y-79470000D02*
X128810000Y-78740000D01*
X134910000Y-80570000D02*
X134910000Y-87070000D01*
X121520000Y-81680000D02*
X121880000Y-81320000D01*
X121880000Y-81320000D02*
X121880000Y-78740000D01*
X129540000Y-81280000D02*
X129540000Y-79470000D01*
X121520000Y-87190000D02*
X121520000Y-81680000D01*
X134910000Y-80570000D02*
X130250000Y-80570000D01*
X130250000Y-80570000D02*
X129540000Y-81280000D01*
X128810000Y-78740000D02*
X121880000Y-78740000D01*
X129540000Y-83180000D02*
X129540000Y-86360000D01*
D23*
X115570000Y-90932000D02*
X108712000Y-90932000D01*
X115570000Y-89916000D02*
X115570000Y-90932000D01*
X115570000Y-90932000D02*
X117562000Y-90932000D01*
X128138000Y-84582000D02*
X129540000Y-83180000D01*
D22*
X138938000Y-96520000D02*
X139730000Y-96520000D01*
X129540000Y-87122000D02*
X138938000Y-96520000D01*
D23*
X117562000Y-90932000D02*
X117670000Y-91040000D01*
D22*
X129540000Y-86360000D02*
X129540000Y-87122000D01*
D23*
X127000000Y-84582000D02*
X128138000Y-84582000D01*
X108712000Y-90932000D02*
X104140000Y-86360000D01*
D22*
X126820000Y-97790000D02*
X128524000Y-97790000D01*
X136906000Y-96520000D02*
X133350000Y-92964000D01*
X133350000Y-92964000D02*
X130048000Y-92964000D01*
X124720000Y-95690000D02*
X126820000Y-97790000D01*
X137190000Y-96520000D02*
X136906000Y-96520000D01*
X137190000Y-96520000D02*
X136652000Y-96520000D01*
X123120000Y-91040000D02*
X121820000Y-89740000D01*
X126170000Y-91040000D02*
X123120000Y-91040000D01*
X117670000Y-91840000D02*
X119720000Y-91840000D01*
X119720000Y-91840000D02*
X121820000Y-89740000D01*
X137190000Y-99060000D02*
X132370000Y-94240000D01*
X132370000Y-94240000D02*
X126170000Y-94240000D01*
X117300000Y-76660000D02*
X117300000Y-74270000D01*
X117300000Y-74270000D02*
X119990000Y-71580000D01*
X119380000Y-78740000D02*
X117300000Y-76660000D01*
X110820000Y-86360000D02*
X106680000Y-86360000D01*
X140462000Y-99060000D02*
X143002000Y-101600000D01*
X139730000Y-99060000D02*
X140462000Y-99060000D01*
X123920000Y-99282000D02*
X123920000Y-95690000D01*
X143002000Y-105156000D02*
X129794000Y-105156000D01*
X143002000Y-101600000D02*
X143002000Y-105156000D01*
X129794000Y-105156000D02*
X123920000Y-99282000D01*
X123920000Y-87190000D02*
X123920000Y-83230000D01*
X123920000Y-83230000D02*
X126990000Y-80160000D01*
X123120000Y-87190000D02*
X123120000Y-82620000D01*
X123120000Y-82620000D02*
X124460000Y-81280000D01*
X120720000Y-82620000D02*
X115300000Y-77200000D01*
X115300000Y-77200000D02*
X115300000Y-73730000D01*
X115300000Y-73730000D02*
X117450000Y-71580000D01*
X120720000Y-87190000D02*
X120720000Y-82620000D01*
X119920000Y-84360000D02*
X113300000Y-77740000D01*
X113300000Y-77740000D02*
X113300000Y-73190000D01*
X119920000Y-87190000D02*
X119920000Y-84360000D01*
X113300000Y-73190000D02*
X114910000Y-71580000D01*
X111300000Y-72650000D02*
X112370000Y-71580000D01*
X111300000Y-79370000D02*
X111300000Y-72650000D01*
X119120000Y-87190000D02*
X111300000Y-79370000D01*
X117670000Y-88640000D02*
X109300000Y-80270000D01*
X109300000Y-80270000D02*
X109300000Y-72110000D01*
X109300000Y-72110000D02*
X109830000Y-71580000D01*
X117670000Y-92640000D02*
X109912000Y-92640000D01*
X109912000Y-92640000D02*
X109220000Y-91948000D01*
G04 #@! TA.AperFunction,Conductor*
G36*
X144213621Y-69108502D02*
G01*
X144260114Y-69162158D01*
X144271500Y-69214500D01*
X144271500Y-106045500D01*
X144251498Y-106113621D01*
X144197842Y-106160114D01*
X144145500Y-106171500D01*
X102234500Y-106171500D01*
X102166379Y-106151498D01*
X102119886Y-106097842D01*
X102108500Y-106045500D01*
X102108500Y-86325469D01*
X102727095Y-86325469D01*
X102727392Y-86330622D01*
X102727392Y-86330625D01*
X102728040Y-86341866D01*
X102740427Y-86556697D01*
X102741564Y-86561743D01*
X102741565Y-86561749D01*
X102756394Y-86627548D01*
X102791346Y-86782642D01*
X102793288Y-86787424D01*
X102793289Y-86787428D01*
X102876540Y-86992450D01*
X102878484Y-86997237D01*
X102999501Y-87194719D01*
X103151147Y-87369784D01*
X103272089Y-87470192D01*
X103315865Y-87506535D01*
X103329349Y-87517730D01*
X103529322Y-87634584D01*
X103745694Y-87717209D01*
X103750760Y-87718240D01*
X103750761Y-87718240D01*
X103803846Y-87729040D01*
X103972656Y-87763385D01*
X104102089Y-87768131D01*
X104198949Y-87771683D01*
X104198953Y-87771683D01*
X104204113Y-87771872D01*
X104209233Y-87771216D01*
X104209235Y-87771216D01*
X104283166Y-87761745D01*
X104433847Y-87742442D01*
X104438801Y-87740956D01*
X104438809Y-87740954D01*
X104537179Y-87711441D01*
X104608174Y-87711023D01*
X104662482Y-87743031D01*
X108247685Y-91328234D01*
X108258552Y-91340625D01*
X108278013Y-91365987D01*
X108284563Y-91371013D01*
X108309925Y-91390474D01*
X108309928Y-91390477D01*
X108349710Y-91421003D01*
X108391577Y-91478341D01*
X108395799Y-91549212D01*
X108388382Y-91571405D01*
X108385473Y-91576444D01*
X108383433Y-91582724D01*
X108383432Y-91582725D01*
X108381037Y-91590097D01*
X108326458Y-91758072D01*
X108306496Y-91948000D01*
X108307186Y-91954565D01*
X108324395Y-92118295D01*
X108326458Y-92137928D01*
X108385473Y-92319556D01*
X108388776Y-92325278D01*
X108388777Y-92325279D01*
X108414773Y-92370305D01*
X108480960Y-92484944D01*
X108485378Y-92489851D01*
X108485379Y-92489852D01*
X108545823Y-92556982D01*
X108608747Y-92626866D01*
X108763248Y-92739118D01*
X108769276Y-92741802D01*
X108769278Y-92741803D01*
X108841756Y-92774072D01*
X108937712Y-92816794D01*
X109031113Y-92836647D01*
X109118056Y-92855128D01*
X109118061Y-92855128D01*
X109124513Y-92856500D01*
X109180405Y-92856500D01*
X109248526Y-92876502D01*
X109269500Y-92893405D01*
X109408348Y-93032253D01*
X109415888Y-93040539D01*
X109420000Y-93047018D01*
X109425777Y-93052443D01*
X109469651Y-93093643D01*
X109472493Y-93096398D01*
X109492230Y-93116135D01*
X109495427Y-93118615D01*
X109504447Y-93126318D01*
X109536679Y-93156586D01*
X109541692Y-93159342D01*
X109584446Y-93214788D01*
X109590520Y-93285525D01*
X109557387Y-93348316D01*
X109495566Y-93383226D01*
X109467030Y-93386500D01*
X109458768Y-93386500D01*
X109447585Y-93385973D01*
X109440092Y-93384298D01*
X109432166Y-93384547D01*
X109432165Y-93384547D01*
X109372002Y-93386438D01*
X109368044Y-93386500D01*
X109340144Y-93386500D01*
X109336154Y-93387004D01*
X109324320Y-93387936D01*
X109280111Y-93389326D01*
X109272495Y-93391539D01*
X109272493Y-93391539D01*
X109260652Y-93394979D01*
X109241293Y-93398988D01*
X109239983Y-93399154D01*
X109221203Y-93401526D01*
X109213837Y-93404442D01*
X109213831Y-93404444D01*
X109180098Y-93417800D01*
X109168868Y-93421645D01*
X109134017Y-93431770D01*
X109126407Y-93433981D01*
X109119584Y-93438016D01*
X109108966Y-93444295D01*
X109091213Y-93452992D01*
X109083568Y-93456019D01*
X109072383Y-93460448D01*
X109065968Y-93465109D01*
X109036612Y-93486437D01*
X109026695Y-93492951D01*
X108988638Y-93515458D01*
X108974317Y-93529779D01*
X108959284Y-93542619D01*
X108942893Y-93554528D01*
X108916445Y-93586498D01*
X108914702Y-93588605D01*
X108906712Y-93597384D01*
X107052423Y-95451672D01*
X106990111Y-95485698D01*
X106930717Y-95484284D01*
X106904685Y-95477309D01*
X106904686Y-95477309D01*
X106899371Y-95475885D01*
X106680000Y-95456693D01*
X106460629Y-95475885D01*
X106247924Y-95532880D01*
X106206518Y-95552188D01*
X106053334Y-95623618D01*
X106053329Y-95623621D01*
X106048347Y-95625944D01*
X106043840Y-95629100D01*
X106043838Y-95629101D01*
X105872473Y-95749092D01*
X105872470Y-95749094D01*
X105867962Y-95752251D01*
X105712251Y-95907962D01*
X105709094Y-95912470D01*
X105709092Y-95912473D01*
X105591297Y-96080702D01*
X105585944Y-96088347D01*
X105583621Y-96093329D01*
X105583618Y-96093334D01*
X105553705Y-96157483D01*
X105492880Y-96287924D01*
X105435885Y-96500629D01*
X105416693Y-96720000D01*
X105435885Y-96939371D01*
X105492880Y-97152076D01*
X105512963Y-97195144D01*
X105583618Y-97346666D01*
X105583621Y-97346671D01*
X105585944Y-97351653D01*
X105589100Y-97356160D01*
X105589101Y-97356162D01*
X105708162Y-97526198D01*
X105712251Y-97532038D01*
X105867962Y-97687749D01*
X106048346Y-97814056D01*
X106247924Y-97907120D01*
X106460629Y-97964115D01*
X106680000Y-97983307D01*
X106899371Y-97964115D01*
X107112076Y-97907120D01*
X107311654Y-97814056D01*
X107492038Y-97687749D01*
X107647749Y-97532038D01*
X107651839Y-97526198D01*
X107770899Y-97356162D01*
X107770900Y-97356160D01*
X107774056Y-97351653D01*
X107776379Y-97346671D01*
X107776382Y-97346666D01*
X107847037Y-97195144D01*
X107867120Y-97152076D01*
X107924115Y-96939371D01*
X107943307Y-96720000D01*
X107924115Y-96500629D01*
X107922692Y-96495319D01*
X107922691Y-96495312D01*
X107915716Y-96469281D01*
X107917406Y-96398304D01*
X107948328Y-96347576D01*
X109605499Y-94690405D01*
X109667811Y-94656379D01*
X109694594Y-94653500D01*
X111340606Y-94653500D01*
X111408727Y-94673502D01*
X111443819Y-94707229D01*
X111550643Y-94859789D01*
X111553802Y-94864300D01*
X111715700Y-95026198D01*
X111720208Y-95029355D01*
X111720211Y-95029357D01*
X111794506Y-95081379D01*
X111903251Y-95157523D01*
X111908233Y-95159846D01*
X111910027Y-95160882D01*
X111959019Y-95212266D01*
X111972454Y-95281979D01*
X111946066Y-95347890D01*
X111910027Y-95379118D01*
X111908233Y-95380154D01*
X111903251Y-95382477D01*
X111898747Y-95385631D01*
X111720211Y-95510643D01*
X111720208Y-95510645D01*
X111715700Y-95513802D01*
X111553802Y-95675700D01*
X111550645Y-95680208D01*
X111550643Y-95680211D01*
X111502412Y-95749092D01*
X111422477Y-95863251D01*
X111420154Y-95868233D01*
X111420151Y-95868238D01*
X111328039Y-96065775D01*
X111325716Y-96070757D01*
X111324294Y-96076065D01*
X111324293Y-96076067D01*
X111267883Y-96286591D01*
X111266457Y-96291913D01*
X111246502Y-96520000D01*
X111266457Y-96748087D01*
X111267881Y-96753400D01*
X111267881Y-96753402D01*
X111319135Y-96944681D01*
X111325716Y-96969243D01*
X111328039Y-96974224D01*
X111328039Y-96974225D01*
X111420151Y-97171762D01*
X111420154Y-97171767D01*
X111422477Y-97176749D01*
X111450968Y-97217438D01*
X111548104Y-97356162D01*
X111553802Y-97364300D01*
X111715700Y-97526198D01*
X111720208Y-97529355D01*
X111720211Y-97529357D01*
X111760445Y-97557529D01*
X111903251Y-97657523D01*
X111908236Y-97659847D01*
X111908242Y-97659851D01*
X111985347Y-97695805D01*
X112038633Y-97742722D01*
X112058094Y-97810999D01*
X112037553Y-97878959D01*
X111985347Y-97924195D01*
X111908242Y-97960149D01*
X111908236Y-97960153D01*
X111903251Y-97962477D01*
X111874187Y-97982828D01*
X111720211Y-98090643D01*
X111720208Y-98090645D01*
X111715700Y-98093802D01*
X111553802Y-98255700D01*
X111550645Y-98260208D01*
X111550643Y-98260211D01*
X111443819Y-98412771D01*
X111388362Y-98457099D01*
X111340606Y-98466500D01*
X109258767Y-98466500D01*
X109247584Y-98465973D01*
X109240091Y-98464298D01*
X109232165Y-98464547D01*
X109232164Y-98464547D01*
X109172001Y-98466438D01*
X109168043Y-98466500D01*
X109140144Y-98466500D01*
X109136154Y-98467004D01*
X109124320Y-98467936D01*
X109080111Y-98469326D01*
X109072497Y-98471538D01*
X109072492Y-98471539D01*
X109060659Y-98474977D01*
X109041296Y-98478988D01*
X109021203Y-98481526D01*
X109013836Y-98484443D01*
X109013831Y-98484444D01*
X108980092Y-98497802D01*
X108968865Y-98501646D01*
X108926407Y-98513982D01*
X108919581Y-98518019D01*
X108908972Y-98524293D01*
X108891224Y-98532988D01*
X108872383Y-98540448D01*
X108865967Y-98545110D01*
X108865966Y-98545110D01*
X108836613Y-98566436D01*
X108826693Y-98572952D01*
X108795465Y-98591420D01*
X108795462Y-98591422D01*
X108788638Y-98595458D01*
X108774317Y-98609779D01*
X108759284Y-98622619D01*
X108742893Y-98634528D01*
X108725040Y-98656109D01*
X108714702Y-98668605D01*
X108706712Y-98677384D01*
X107052423Y-100331672D01*
X106990111Y-100365698D01*
X106930717Y-100364284D01*
X106904685Y-100357309D01*
X106904686Y-100357309D01*
X106899371Y-100355885D01*
X106680000Y-100336693D01*
X106460629Y-100355885D01*
X106247924Y-100412880D01*
X106169152Y-100449612D01*
X106053334Y-100503618D01*
X106053329Y-100503621D01*
X106048347Y-100505944D01*
X106043840Y-100509100D01*
X106043838Y-100509101D01*
X105872473Y-100629092D01*
X105872470Y-100629094D01*
X105867962Y-100632251D01*
X105712251Y-100787962D01*
X105709094Y-100792470D01*
X105709092Y-100792473D01*
X105594234Y-100956507D01*
X105585944Y-100968347D01*
X105583621Y-100973329D01*
X105583618Y-100973334D01*
X105544069Y-101058148D01*
X105492880Y-101167924D01*
X105435885Y-101380629D01*
X105416693Y-101600000D01*
X105435885Y-101819371D01*
X105492880Y-102032076D01*
X105524055Y-102098931D01*
X105583618Y-102226666D01*
X105583621Y-102226671D01*
X105585944Y-102231653D01*
X105589100Y-102236160D01*
X105589101Y-102236162D01*
X105707385Y-102405088D01*
X105712251Y-102412038D01*
X105867962Y-102567749D01*
X105872471Y-102570906D01*
X105872473Y-102570908D01*
X105927384Y-102609357D01*
X106048346Y-102694056D01*
X106247924Y-102787120D01*
X106460629Y-102844115D01*
X106680000Y-102863307D01*
X106899371Y-102844115D01*
X107112076Y-102787120D01*
X107311654Y-102694056D01*
X107432616Y-102609357D01*
X107487527Y-102570908D01*
X107487529Y-102570906D01*
X107492038Y-102567749D01*
X107647749Y-102412038D01*
X107652616Y-102405088D01*
X107770899Y-102236162D01*
X107770900Y-102236160D01*
X107774056Y-102231653D01*
X107776379Y-102226671D01*
X107776382Y-102226666D01*
X107835945Y-102098931D01*
X107867120Y-102032076D01*
X107924115Y-101819371D01*
X107943307Y-101600000D01*
X107924115Y-101380629D01*
X107915716Y-101349283D01*
X107917406Y-101278306D01*
X107948328Y-101227577D01*
X109405500Y-99770405D01*
X109467812Y-99736379D01*
X109494595Y-99733500D01*
X111340606Y-99733500D01*
X111408727Y-99753502D01*
X111443819Y-99787229D01*
X111498337Y-99865088D01*
X111553802Y-99944300D01*
X111715700Y-100106198D01*
X111720208Y-100109355D01*
X111720211Y-100109357D01*
X111808876Y-100171441D01*
X111903251Y-100237523D01*
X111908233Y-100239846D01*
X111910027Y-100240882D01*
X111959019Y-100292266D01*
X111972454Y-100361979D01*
X111946066Y-100427890D01*
X111910027Y-100459118D01*
X111908233Y-100460154D01*
X111903251Y-100462477D01*
X111898747Y-100465631D01*
X111720211Y-100590643D01*
X111720208Y-100590645D01*
X111715700Y-100593802D01*
X111553802Y-100755700D01*
X111550645Y-100760208D01*
X111550643Y-100760211D01*
X111495902Y-100838389D01*
X111422477Y-100943251D01*
X111420154Y-100948233D01*
X111420151Y-100948238D01*
X111334962Y-101130928D01*
X111325716Y-101150757D01*
X111324294Y-101156065D01*
X111324293Y-101156067D01*
X111267881Y-101366598D01*
X111266457Y-101371913D01*
X111246502Y-101600000D01*
X111266457Y-101828087D01*
X111267881Y-101833400D01*
X111267881Y-101833402D01*
X111320934Y-102031395D01*
X111325716Y-102049243D01*
X111328039Y-102054224D01*
X111328039Y-102054225D01*
X111420151Y-102251762D01*
X111420154Y-102251767D01*
X111422477Y-102256749D01*
X111448326Y-102293665D01*
X111533941Y-102415935D01*
X111553802Y-102444300D01*
X111715700Y-102606198D01*
X111720208Y-102609355D01*
X111720211Y-102609357D01*
X111760445Y-102637529D01*
X111903251Y-102737523D01*
X111908233Y-102739846D01*
X111908238Y-102739849D01*
X112105775Y-102831961D01*
X112110757Y-102834284D01*
X112116065Y-102835706D01*
X112116067Y-102835707D01*
X112326598Y-102892119D01*
X112326600Y-102892119D01*
X112331913Y-102893543D01*
X112560000Y-102913498D01*
X112788087Y-102893543D01*
X112793400Y-102892119D01*
X112793402Y-102892119D01*
X113003933Y-102835707D01*
X113003935Y-102835706D01*
X113009243Y-102834284D01*
X113014225Y-102831961D01*
X113211762Y-102739849D01*
X113211767Y-102739846D01*
X113216749Y-102737523D01*
X113359555Y-102637529D01*
X113399789Y-102609357D01*
X113399792Y-102609355D01*
X113404300Y-102606198D01*
X113566198Y-102444300D01*
X113569357Y-102439789D01*
X113676181Y-102287229D01*
X113731638Y-102242901D01*
X113779394Y-102233500D01*
X114221233Y-102233500D01*
X114232416Y-102234027D01*
X114239909Y-102235702D01*
X114247835Y-102235453D01*
X114247836Y-102235453D01*
X114307986Y-102233562D01*
X114311945Y-102233500D01*
X114339856Y-102233500D01*
X114343791Y-102233003D01*
X114343856Y-102232995D01*
X114355693Y-102232062D01*
X114387951Y-102231048D01*
X114391970Y-102230922D01*
X114399889Y-102230673D01*
X114419343Y-102225021D01*
X114438700Y-102221013D01*
X114450930Y-102219468D01*
X114450931Y-102219468D01*
X114458797Y-102218474D01*
X114466168Y-102215555D01*
X114466170Y-102215555D01*
X114499912Y-102202196D01*
X114511142Y-102198351D01*
X114545983Y-102188229D01*
X114545984Y-102188229D01*
X114553593Y-102186018D01*
X114560412Y-102181985D01*
X114560417Y-102181983D01*
X114571028Y-102175707D01*
X114588776Y-102167012D01*
X114607617Y-102159552D01*
X114643387Y-102133564D01*
X114653307Y-102127048D01*
X114684535Y-102108580D01*
X114684538Y-102108578D01*
X114691362Y-102104542D01*
X114705683Y-102090221D01*
X114720717Y-102077380D01*
X114730694Y-102070131D01*
X114737107Y-102065472D01*
X114765298Y-102031395D01*
X114773288Y-102022616D01*
X118062247Y-98733657D01*
X118070537Y-98726113D01*
X118077018Y-98722000D01*
X118123659Y-98672332D01*
X118126413Y-98669491D01*
X118146135Y-98649769D01*
X118148619Y-98646567D01*
X118156317Y-98637555D01*
X118181161Y-98611098D01*
X118186586Y-98605321D01*
X118196347Y-98587566D01*
X118207198Y-98571047D01*
X118219614Y-98555041D01*
X118229155Y-98532994D01*
X118237174Y-98514463D01*
X118242391Y-98503813D01*
X118263695Y-98465060D01*
X118268733Y-98445437D01*
X118275137Y-98426734D01*
X118280033Y-98415420D01*
X118280033Y-98415419D01*
X118283181Y-98408145D01*
X118284420Y-98400322D01*
X118284423Y-98400312D01*
X118290099Y-98364476D01*
X118292505Y-98352856D01*
X118301528Y-98317711D01*
X118301528Y-98317710D01*
X118303500Y-98310030D01*
X118303500Y-98289776D01*
X118305051Y-98270065D01*
X118306980Y-98257886D01*
X118308220Y-98250057D01*
X118304059Y-98206038D01*
X118303500Y-98194181D01*
X118303500Y-96971569D01*
X118323502Y-96903448D01*
X118377158Y-96856955D01*
X118447432Y-96846851D01*
X118505065Y-96870743D01*
X118598295Y-96940615D01*
X118734684Y-96991745D01*
X118796866Y-96998500D01*
X119443134Y-96998500D01*
X119463819Y-96996253D01*
X119505316Y-96991745D01*
X119505580Y-96994174D01*
X119534420Y-96994174D01*
X119534684Y-96991745D01*
X119576182Y-96996253D01*
X119596866Y-96998500D01*
X120243134Y-96998500D01*
X120263819Y-96996253D01*
X120305316Y-96991745D01*
X120305580Y-96994174D01*
X120334420Y-96994174D01*
X120334684Y-96991745D01*
X120376182Y-96996253D01*
X120396866Y-96998500D01*
X121043134Y-96998500D01*
X121063819Y-96996253D01*
X121105316Y-96991745D01*
X121105580Y-96994174D01*
X121134420Y-96994174D01*
X121134684Y-96991745D01*
X121176182Y-96996253D01*
X121196866Y-96998500D01*
X121843134Y-96998500D01*
X121863819Y-96996253D01*
X121905316Y-96991745D01*
X121905580Y-96994174D01*
X121934420Y-96994174D01*
X121934684Y-96991745D01*
X121976182Y-96996253D01*
X121996866Y-96998500D01*
X122643134Y-96998500D01*
X122663819Y-96996253D01*
X122705316Y-96991745D01*
X122705580Y-96994174D01*
X122734420Y-96994174D01*
X122734684Y-96991745D01*
X122776182Y-96996253D01*
X122796866Y-96998500D01*
X123160500Y-96998500D01*
X123228621Y-97018502D01*
X123275114Y-97072158D01*
X123286500Y-97124500D01*
X123286500Y-99203233D01*
X123285973Y-99214416D01*
X123284298Y-99221909D01*
X123284547Y-99229835D01*
X123284547Y-99229836D01*
X123286438Y-99289986D01*
X123286500Y-99293945D01*
X123286500Y-99321856D01*
X123286997Y-99325790D01*
X123286997Y-99325791D01*
X123287005Y-99325856D01*
X123287938Y-99337693D01*
X123289327Y-99381889D01*
X123294978Y-99401339D01*
X123298987Y-99420700D01*
X123301526Y-99440797D01*
X123304445Y-99448168D01*
X123304445Y-99448170D01*
X123317804Y-99481912D01*
X123321649Y-99493142D01*
X123333982Y-99535593D01*
X123338015Y-99542412D01*
X123338017Y-99542417D01*
X123344293Y-99553028D01*
X123352988Y-99570776D01*
X123360448Y-99589617D01*
X123365110Y-99596033D01*
X123365110Y-99596034D01*
X123386436Y-99625387D01*
X123392952Y-99635307D01*
X123415458Y-99673362D01*
X123429779Y-99687683D01*
X123442619Y-99702716D01*
X123454528Y-99719107D01*
X123475406Y-99736379D01*
X123488605Y-99747298D01*
X123497384Y-99755288D01*
X129290343Y-105548247D01*
X129297887Y-105556537D01*
X129302000Y-105563018D01*
X129307777Y-105568443D01*
X129351667Y-105609658D01*
X129354509Y-105612413D01*
X129374230Y-105632134D01*
X129377425Y-105634612D01*
X129386447Y-105642318D01*
X129418679Y-105672586D01*
X129429858Y-105678732D01*
X129436432Y-105682346D01*
X129452956Y-105693199D01*
X129468959Y-105705613D01*
X129509543Y-105723176D01*
X129520173Y-105728383D01*
X129558940Y-105749695D01*
X129566617Y-105751666D01*
X129566622Y-105751668D01*
X129578558Y-105754732D01*
X129597266Y-105761137D01*
X129615855Y-105769181D01*
X129623680Y-105770420D01*
X129623682Y-105770421D01*
X129659519Y-105776097D01*
X129671140Y-105778504D01*
X129706289Y-105787528D01*
X129713970Y-105789500D01*
X129734231Y-105789500D01*
X129753940Y-105791051D01*
X129773943Y-105794219D01*
X129781835Y-105793473D01*
X129787062Y-105792979D01*
X129817954Y-105790059D01*
X129829811Y-105789500D01*
X142930207Y-105789500D01*
X142953816Y-105791732D01*
X142954119Y-105791790D01*
X142954123Y-105791790D01*
X142961906Y-105793275D01*
X143017951Y-105789749D01*
X143025862Y-105789500D01*
X143041856Y-105789500D01*
X143057730Y-105787494D01*
X143065590Y-105786752D01*
X143093049Y-105785024D01*
X143113737Y-105783723D01*
X143113738Y-105783723D01*
X143121650Y-105783225D01*
X143129191Y-105780775D01*
X143129487Y-105780679D01*
X143152631Y-105775506D01*
X143152935Y-105775468D01*
X143152940Y-105775467D01*
X143160797Y-105774474D01*
X143168162Y-105771558D01*
X143168166Y-105771557D01*
X143213011Y-105753801D01*
X143220430Y-105751129D01*
X143273875Y-105733764D01*
X143280572Y-105729514D01*
X143280831Y-105729350D01*
X143301958Y-105718585D01*
X143302246Y-105718471D01*
X143302251Y-105718468D01*
X143309617Y-105715552D01*
X143316025Y-105710896D01*
X143316031Y-105710893D01*
X143355052Y-105682542D01*
X143361589Y-105678099D01*
X143409018Y-105648000D01*
X143414659Y-105641993D01*
X143432446Y-105626312D01*
X143432691Y-105626134D01*
X143432693Y-105626132D01*
X143439107Y-105621472D01*
X143444162Y-105615362D01*
X143474903Y-105578204D01*
X143480134Y-105572270D01*
X143513158Y-105537102D01*
X143513160Y-105537099D01*
X143518586Y-105531321D01*
X143522558Y-105524097D01*
X143535881Y-105504494D01*
X143536080Y-105504254D01*
X143536084Y-105504247D01*
X143541133Y-105498144D01*
X143565047Y-105447324D01*
X143568629Y-105440292D01*
X143595695Y-105391060D01*
X143597665Y-105383385D01*
X143597668Y-105383379D01*
X143597744Y-105383081D01*
X143605776Y-105360772D01*
X143605906Y-105360497D01*
X143605909Y-105360489D01*
X143609283Y-105353318D01*
X143619806Y-105298151D01*
X143621532Y-105290429D01*
X143633529Y-105243707D01*
X143633529Y-105243706D01*
X143635500Y-105236030D01*
X143635500Y-105227793D01*
X143637732Y-105204184D01*
X143637790Y-105203881D01*
X143637790Y-105203877D01*
X143639275Y-105196094D01*
X143635749Y-105140049D01*
X143635500Y-105132138D01*
X143635500Y-101678763D01*
X143636027Y-101667579D01*
X143637701Y-101660091D01*
X143635562Y-101592032D01*
X143635500Y-101588075D01*
X143635500Y-101560144D01*
X143634994Y-101556138D01*
X143634061Y-101544292D01*
X143632922Y-101508037D01*
X143632673Y-101500110D01*
X143627022Y-101480658D01*
X143623014Y-101461306D01*
X143621468Y-101449068D01*
X143621467Y-101449066D01*
X143620474Y-101441203D01*
X143604194Y-101400086D01*
X143600359Y-101388885D01*
X143588018Y-101346406D01*
X143583985Y-101339587D01*
X143583983Y-101339582D01*
X143577707Y-101328971D01*
X143569010Y-101311221D01*
X143561552Y-101292383D01*
X143551325Y-101278306D01*
X143535572Y-101256625D01*
X143529053Y-101246701D01*
X143510578Y-101215460D01*
X143510574Y-101215455D01*
X143506542Y-101208637D01*
X143492218Y-101194313D01*
X143479376Y-101179278D01*
X143467472Y-101162893D01*
X143433406Y-101134711D01*
X143424627Y-101126722D01*
X141079213Y-98781308D01*
X141046104Y-98722909D01*
X141029709Y-98657641D01*
X141020431Y-98620702D01*
X140931354Y-98415840D01*
X140873845Y-98326944D01*
X140812822Y-98232617D01*
X140812820Y-98232614D01*
X140810014Y-98228277D01*
X140659670Y-98063051D01*
X140655619Y-98059852D01*
X140655615Y-98059848D01*
X140488414Y-97927800D01*
X140488410Y-97927798D01*
X140484359Y-97924598D01*
X140443053Y-97901796D01*
X140393084Y-97851364D01*
X140378312Y-97781921D01*
X140403428Y-97715516D01*
X140430780Y-97688909D01*
X140479207Y-97654366D01*
X140609860Y-97561173D01*
X140635187Y-97535935D01*
X140691209Y-97480107D01*
X140768096Y-97403489D01*
X140799498Y-97359789D01*
X140895435Y-97226277D01*
X140898453Y-97222077D01*
X140918628Y-97181257D01*
X140995136Y-97026453D01*
X140995137Y-97026451D01*
X140997430Y-97021811D01*
X141062370Y-96808069D01*
X141091529Y-96586590D01*
X141091611Y-96583240D01*
X141093074Y-96523365D01*
X141093074Y-96523361D01*
X141093156Y-96520000D01*
X141074852Y-96297361D01*
X141020431Y-96080702D01*
X140931354Y-95875840D01*
X140810014Y-95688277D01*
X140659670Y-95523051D01*
X140655619Y-95519852D01*
X140655615Y-95519848D01*
X140488414Y-95387800D01*
X140488410Y-95387798D01*
X140484359Y-95384598D01*
X140288789Y-95276638D01*
X140283920Y-95274914D01*
X140283916Y-95274912D01*
X140083087Y-95203795D01*
X140083083Y-95203794D01*
X140078212Y-95202069D01*
X140073119Y-95201162D01*
X140073116Y-95201161D01*
X139863373Y-95163800D01*
X139863367Y-95163799D01*
X139858284Y-95162894D01*
X139784452Y-95161992D01*
X139640081Y-95160228D01*
X139640079Y-95160228D01*
X139634911Y-95160165D01*
X139414091Y-95193955D01*
X139201756Y-95263357D01*
X139003607Y-95366507D01*
X138999474Y-95369610D01*
X138999471Y-95369612D01*
X138906445Y-95439458D01*
X138839960Y-95464364D01*
X138770564Y-95449372D01*
X138741697Y-95427793D01*
X130210405Y-86896500D01*
X130176379Y-86834188D01*
X130173500Y-86807405D01*
X130173500Y-84277315D01*
X130193502Y-84209194D01*
X130227230Y-84174102D01*
X130315264Y-84112460D01*
X130319776Y-84109301D01*
X130469301Y-83959776D01*
X130590589Y-83786558D01*
X130625434Y-83711834D01*
X130677633Y-83599892D01*
X130677634Y-83599891D01*
X130679956Y-83594910D01*
X130707423Y-83492404D01*
X130733262Y-83395970D01*
X130733262Y-83395968D01*
X130734686Y-83390655D01*
X130753116Y-83180000D01*
X130734686Y-82969345D01*
X130733262Y-82964030D01*
X130681379Y-82770400D01*
X130681378Y-82770398D01*
X130679956Y-82765090D01*
X130629002Y-82655819D01*
X130592912Y-82578423D01*
X130592910Y-82578420D01*
X130590589Y-82573442D01*
X130469301Y-82400224D01*
X130388172Y-82319095D01*
X130354146Y-82256783D01*
X130359211Y-82185968D01*
X130388172Y-82140905D01*
X130469301Y-82059776D01*
X130590589Y-81886558D01*
X130626140Y-81810320D01*
X130677633Y-81699892D01*
X130677634Y-81699891D01*
X130679956Y-81694910D01*
X130684604Y-81677566D01*
X130733262Y-81495970D01*
X130733262Y-81495968D01*
X130734686Y-81490655D01*
X130749746Y-81318518D01*
X130775610Y-81252400D01*
X130833113Y-81210761D01*
X130875267Y-81203500D01*
X133458434Y-81203500D01*
X133526555Y-81223502D01*
X133565867Y-81263665D01*
X133683241Y-81455202D01*
X133683245Y-81455208D01*
X133685824Y-81459416D01*
X133840031Y-81639969D01*
X133843787Y-81643177D01*
X133853299Y-81651301D01*
X134020584Y-81794176D01*
X134024792Y-81796755D01*
X134024798Y-81796759D01*
X134216335Y-81914133D01*
X134263966Y-81966781D01*
X134276500Y-82021566D01*
X134276500Y-85618434D01*
X134256498Y-85686555D01*
X134216335Y-85725867D01*
X134024798Y-85843241D01*
X134024792Y-85843245D01*
X134020584Y-85845824D01*
X133840031Y-86000031D01*
X133685824Y-86180584D01*
X133683245Y-86184792D01*
X133683241Y-86184798D01*
X133629629Y-86272285D01*
X133561760Y-86383037D01*
X133559867Y-86387607D01*
X133559865Y-86387611D01*
X133472789Y-86597833D01*
X133470895Y-86602406D01*
X133464859Y-86627548D01*
X133428835Y-86777600D01*
X133415465Y-86833289D01*
X133396835Y-87070000D01*
X133415465Y-87306711D01*
X133416619Y-87311518D01*
X133416620Y-87311524D01*
X133443202Y-87422246D01*
X133470895Y-87537594D01*
X133472788Y-87542165D01*
X133472789Y-87542167D01*
X133559772Y-87752163D01*
X133561760Y-87756963D01*
X133564346Y-87761183D01*
X133683241Y-87955202D01*
X133683245Y-87955208D01*
X133685824Y-87959416D01*
X133840031Y-88139969D01*
X134020584Y-88294176D01*
X134024792Y-88296755D01*
X134024798Y-88296759D01*
X134218084Y-88415205D01*
X134223037Y-88418240D01*
X134227607Y-88420133D01*
X134227611Y-88420135D01*
X134437833Y-88507211D01*
X134442406Y-88509105D01*
X134522609Y-88528360D01*
X134668476Y-88563380D01*
X134668482Y-88563381D01*
X134673289Y-88564535D01*
X134910000Y-88583165D01*
X135146711Y-88564535D01*
X135151518Y-88563381D01*
X135151524Y-88563380D01*
X135297391Y-88528360D01*
X135377594Y-88509105D01*
X135382167Y-88507211D01*
X135592389Y-88420135D01*
X135592393Y-88420133D01*
X135596963Y-88418240D01*
X135601916Y-88415205D01*
X135785556Y-88302670D01*
X138542160Y-88302670D01*
X138547887Y-88310320D01*
X138719042Y-88415205D01*
X138727837Y-88419687D01*
X138937988Y-88506734D01*
X138947373Y-88509783D01*
X139168554Y-88562885D01*
X139178301Y-88564428D01*
X139405070Y-88582275D01*
X139414930Y-88582275D01*
X139641699Y-88564428D01*
X139651446Y-88562885D01*
X139872627Y-88509783D01*
X139882012Y-88506734D01*
X140092163Y-88419687D01*
X140100958Y-88415205D01*
X140268445Y-88312568D01*
X140277907Y-88302110D01*
X140274124Y-88293334D01*
X139422812Y-87442022D01*
X139408868Y-87434408D01*
X139407035Y-87434539D01*
X139400420Y-87438790D01*
X138548920Y-88290290D01*
X138542160Y-88302670D01*
X135785556Y-88302670D01*
X135795202Y-88296759D01*
X135795208Y-88296755D01*
X135799416Y-88294176D01*
X135979969Y-88139969D01*
X136134176Y-87959416D01*
X136136755Y-87955208D01*
X136136759Y-87955202D01*
X136255654Y-87761183D01*
X136258240Y-87756963D01*
X136260229Y-87752163D01*
X136347211Y-87542167D01*
X136347212Y-87542165D01*
X136349105Y-87537594D01*
X136376798Y-87422246D01*
X136403380Y-87311524D01*
X136403381Y-87311518D01*
X136404535Y-87306711D01*
X136422777Y-87074930D01*
X137897725Y-87074930D01*
X137915572Y-87301699D01*
X137917115Y-87311446D01*
X137970217Y-87532627D01*
X137973266Y-87542012D01*
X138060313Y-87752163D01*
X138064795Y-87760958D01*
X138167432Y-87928445D01*
X138177890Y-87937907D01*
X138186666Y-87934124D01*
X139037978Y-87082812D01*
X139044356Y-87071132D01*
X139774408Y-87071132D01*
X139774539Y-87072965D01*
X139778790Y-87079580D01*
X140630290Y-87931080D01*
X140642670Y-87937840D01*
X140650320Y-87932113D01*
X140755205Y-87760958D01*
X140759687Y-87752163D01*
X140846734Y-87542012D01*
X140849783Y-87532627D01*
X140902885Y-87311446D01*
X140904428Y-87301699D01*
X140922275Y-87074930D01*
X140922275Y-87065070D01*
X140904428Y-86838301D01*
X140902885Y-86828554D01*
X140849783Y-86607373D01*
X140846734Y-86597988D01*
X140759687Y-86387837D01*
X140755205Y-86379042D01*
X140652568Y-86211555D01*
X140642110Y-86202093D01*
X140633334Y-86205876D01*
X139782022Y-87057188D01*
X139774408Y-87071132D01*
X139044356Y-87071132D01*
X139045592Y-87068868D01*
X139045461Y-87067035D01*
X139041210Y-87060420D01*
X138189710Y-86208920D01*
X138177330Y-86202160D01*
X138169680Y-86207887D01*
X138064795Y-86379042D01*
X138060313Y-86387837D01*
X137973266Y-86597988D01*
X137970217Y-86607373D01*
X137917115Y-86828554D01*
X137915572Y-86838301D01*
X137897725Y-87065070D01*
X137897725Y-87074930D01*
X136422777Y-87074930D01*
X136423165Y-87070000D01*
X136404535Y-86833289D01*
X136391166Y-86777600D01*
X136355141Y-86627548D01*
X136349105Y-86602406D01*
X136347211Y-86597833D01*
X136260135Y-86387611D01*
X136260133Y-86387607D01*
X136258240Y-86383037D01*
X136190371Y-86272285D01*
X136136759Y-86184798D01*
X136136755Y-86184792D01*
X136134176Y-86180584D01*
X135979969Y-86000031D01*
X135799416Y-85845824D01*
X135795208Y-85843245D01*
X135795202Y-85843241D01*
X135786470Y-85837890D01*
X138542093Y-85837890D01*
X138545876Y-85846666D01*
X139397188Y-86697978D01*
X139411132Y-86705592D01*
X139412965Y-86705461D01*
X139419580Y-86701210D01*
X140271080Y-85849710D01*
X140277840Y-85837330D01*
X140272113Y-85829680D01*
X140100958Y-85724795D01*
X140092163Y-85720313D01*
X139882012Y-85633266D01*
X139872627Y-85630217D01*
X139651446Y-85577115D01*
X139641699Y-85575572D01*
X139414930Y-85557725D01*
X139405070Y-85557725D01*
X139178301Y-85575572D01*
X139168554Y-85577115D01*
X138947373Y-85630217D01*
X138937988Y-85633266D01*
X138727837Y-85720313D01*
X138719042Y-85724795D01*
X138551555Y-85827432D01*
X138542093Y-85837890D01*
X135786470Y-85837890D01*
X135603665Y-85725867D01*
X135556034Y-85673219D01*
X135543500Y-85618434D01*
X135543500Y-82021566D01*
X135563502Y-81953445D01*
X135603665Y-81914133D01*
X135785556Y-81802670D01*
X138542160Y-81802670D01*
X138547887Y-81810320D01*
X138719042Y-81915205D01*
X138727837Y-81919687D01*
X138937988Y-82006734D01*
X138947373Y-82009783D01*
X139168554Y-82062885D01*
X139178301Y-82064428D01*
X139405070Y-82082275D01*
X139414930Y-82082275D01*
X139641699Y-82064428D01*
X139651446Y-82062885D01*
X139872627Y-82009783D01*
X139882012Y-82006734D01*
X140092163Y-81919687D01*
X140100958Y-81915205D01*
X140268445Y-81812568D01*
X140277907Y-81802110D01*
X140274124Y-81793334D01*
X139422812Y-80942022D01*
X139408868Y-80934408D01*
X139407035Y-80934539D01*
X139400420Y-80938790D01*
X138548920Y-81790290D01*
X138542160Y-81802670D01*
X135785556Y-81802670D01*
X135795202Y-81796759D01*
X135795208Y-81796755D01*
X135799416Y-81794176D01*
X135966701Y-81651301D01*
X135976213Y-81643177D01*
X135979969Y-81639969D01*
X136134176Y-81459416D01*
X136136755Y-81455208D01*
X136136759Y-81455202D01*
X136255654Y-81261183D01*
X136258240Y-81256963D01*
X136260229Y-81252163D01*
X136347211Y-81042167D01*
X136347212Y-81042165D01*
X136349105Y-81037594D01*
X136389245Y-80870400D01*
X136403380Y-80811524D01*
X136403381Y-80811518D01*
X136404535Y-80806711D01*
X136422777Y-80574930D01*
X137897725Y-80574930D01*
X137915572Y-80801699D01*
X137917115Y-80811446D01*
X137970217Y-81032627D01*
X137973266Y-81042012D01*
X138060313Y-81252163D01*
X138064795Y-81260958D01*
X138167432Y-81428445D01*
X138177890Y-81437907D01*
X138186666Y-81434124D01*
X139037978Y-80582812D01*
X139044356Y-80571132D01*
X139774408Y-80571132D01*
X139774539Y-80572965D01*
X139778790Y-80579580D01*
X140630290Y-81431080D01*
X140642670Y-81437840D01*
X140650320Y-81432113D01*
X140755205Y-81260958D01*
X140759687Y-81252163D01*
X140846734Y-81042012D01*
X140849783Y-81032627D01*
X140902885Y-80811446D01*
X140904428Y-80801699D01*
X140922275Y-80574930D01*
X140922275Y-80565070D01*
X140904428Y-80338301D01*
X140902885Y-80328554D01*
X140849783Y-80107373D01*
X140846734Y-80097988D01*
X140759687Y-79887837D01*
X140755205Y-79879042D01*
X140652568Y-79711555D01*
X140642110Y-79702093D01*
X140633334Y-79705876D01*
X139782022Y-80557188D01*
X139774408Y-80571132D01*
X139044356Y-80571132D01*
X139045592Y-80568868D01*
X139045461Y-80567035D01*
X139041210Y-80560420D01*
X138189710Y-79708920D01*
X138177330Y-79702160D01*
X138169680Y-79707887D01*
X138064795Y-79879042D01*
X138060313Y-79887837D01*
X137973266Y-80097988D01*
X137970217Y-80107373D01*
X137917115Y-80328554D01*
X137915572Y-80338301D01*
X137897725Y-80565070D01*
X137897725Y-80574930D01*
X136422777Y-80574930D01*
X136423165Y-80570000D01*
X136404535Y-80333289D01*
X136398910Y-80309856D01*
X136350260Y-80107218D01*
X136349105Y-80102406D01*
X136328847Y-80053498D01*
X136260135Y-79887611D01*
X136260133Y-79887607D01*
X136258240Y-79883037D01*
X136231301Y-79839077D01*
X136136759Y-79684798D01*
X136136755Y-79684792D01*
X136134176Y-79680584D01*
X135979969Y-79500031D01*
X135799416Y-79345824D01*
X135795208Y-79343245D01*
X135795202Y-79343241D01*
X135786470Y-79337890D01*
X138542093Y-79337890D01*
X138545876Y-79346666D01*
X139397188Y-80197978D01*
X139411132Y-80205592D01*
X139412965Y-80205461D01*
X139419580Y-80201210D01*
X140271080Y-79349710D01*
X140277840Y-79337330D01*
X140272113Y-79329680D01*
X140100958Y-79224795D01*
X140092163Y-79220313D01*
X139882012Y-79133266D01*
X139872627Y-79130217D01*
X139651446Y-79077115D01*
X139641699Y-79075572D01*
X139414930Y-79057725D01*
X139405070Y-79057725D01*
X139178301Y-79075572D01*
X139168554Y-79077115D01*
X138947373Y-79130217D01*
X138937988Y-79133266D01*
X138727837Y-79220313D01*
X138719042Y-79224795D01*
X138551555Y-79327432D01*
X138542093Y-79337890D01*
X135786470Y-79337890D01*
X135601183Y-79224346D01*
X135596963Y-79221760D01*
X135592393Y-79219867D01*
X135592389Y-79219865D01*
X135382167Y-79132789D01*
X135382165Y-79132788D01*
X135377594Y-79130895D01*
X135297391Y-79111640D01*
X135151524Y-79076620D01*
X135151518Y-79076619D01*
X135146711Y-79075465D01*
X134910000Y-79056835D01*
X134673289Y-79075465D01*
X134668482Y-79076619D01*
X134668476Y-79076620D01*
X134522609Y-79111640D01*
X134442406Y-79130895D01*
X134437835Y-79132788D01*
X134437833Y-79132789D01*
X134227611Y-79219865D01*
X134227607Y-79219867D01*
X134223037Y-79221760D01*
X134218817Y-79224346D01*
X134024798Y-79343241D01*
X134024792Y-79343245D01*
X134020584Y-79345824D01*
X133840031Y-79500031D01*
X133685824Y-79680584D01*
X133683245Y-79684792D01*
X133683241Y-79684798D01*
X133565867Y-79876335D01*
X133513219Y-79923966D01*
X133458434Y-79936500D01*
X130328768Y-79936500D01*
X130317585Y-79935973D01*
X130310092Y-79934298D01*
X130302165Y-79934547D01*
X130294274Y-79933801D01*
X130294429Y-79932162D01*
X130234735Y-79916649D01*
X130186583Y-79864476D01*
X130173500Y-79808568D01*
X130173500Y-79548767D01*
X130174027Y-79537584D01*
X130175702Y-79530091D01*
X130174721Y-79498861D01*
X130173562Y-79462001D01*
X130173500Y-79458043D01*
X130173500Y-79430144D01*
X130172996Y-79426153D01*
X130172063Y-79414311D01*
X130171941Y-79410405D01*
X130170674Y-79370111D01*
X130168462Y-79362497D01*
X130168461Y-79362492D01*
X130165023Y-79350659D01*
X130161012Y-79331295D01*
X130160539Y-79327546D01*
X130158474Y-79311203D01*
X130155557Y-79303836D01*
X130155556Y-79303831D01*
X130142198Y-79270092D01*
X130138354Y-79258865D01*
X130128455Y-79224795D01*
X130126018Y-79216407D01*
X130115707Y-79198972D01*
X130107012Y-79181224D01*
X130099552Y-79162383D01*
X130086560Y-79144500D01*
X130073564Y-79126613D01*
X130067048Y-79116693D01*
X130048580Y-79085465D01*
X130048578Y-79085462D01*
X130044542Y-79078638D01*
X130030221Y-79064317D01*
X130017380Y-79049283D01*
X130010132Y-79039307D01*
X130005472Y-79032893D01*
X129971407Y-79004712D01*
X129962626Y-78996722D01*
X129313647Y-78347742D01*
X129306113Y-78339463D01*
X129302000Y-78332982D01*
X129252348Y-78286356D01*
X129249507Y-78283602D01*
X129229770Y-78263865D01*
X129226573Y-78261385D01*
X129217551Y-78253680D01*
X129191100Y-78228841D01*
X129185321Y-78223414D01*
X129178375Y-78219595D01*
X129178372Y-78219593D01*
X129167566Y-78213652D01*
X129151047Y-78202801D01*
X129150583Y-78202441D01*
X129135041Y-78190386D01*
X129127772Y-78187241D01*
X129127768Y-78187238D01*
X129094463Y-78172826D01*
X129083813Y-78167609D01*
X129045060Y-78146305D01*
X129025437Y-78141267D01*
X129006734Y-78134863D01*
X128995420Y-78129967D01*
X128995419Y-78129967D01*
X128988145Y-78126819D01*
X128980322Y-78125580D01*
X128980312Y-78125577D01*
X128944476Y-78119901D01*
X128932856Y-78117495D01*
X128897711Y-78108472D01*
X128897710Y-78108472D01*
X128890030Y-78106500D01*
X128869776Y-78106500D01*
X128850065Y-78104949D01*
X128837886Y-78103020D01*
X128830057Y-78101780D01*
X128822165Y-78102526D01*
X128786039Y-78105941D01*
X128774181Y-78106500D01*
X123099394Y-78106500D01*
X123031273Y-78086498D01*
X122996181Y-78052771D01*
X122889357Y-77900211D01*
X122889355Y-77900208D01*
X122886198Y-77895700D01*
X122724300Y-77733802D01*
X122719792Y-77730645D01*
X122719789Y-77730643D01*
X122593419Y-77642158D01*
X122536749Y-77602477D01*
X122531767Y-77600154D01*
X122531762Y-77600151D01*
X122334225Y-77508039D01*
X122334224Y-77508039D01*
X122329243Y-77505716D01*
X122323935Y-77504294D01*
X122323933Y-77504293D01*
X122113402Y-77447881D01*
X122113400Y-77447881D01*
X122108087Y-77446457D01*
X121880000Y-77426502D01*
X121651913Y-77446457D01*
X121646600Y-77447881D01*
X121646598Y-77447881D01*
X121436067Y-77504293D01*
X121436065Y-77504294D01*
X121430757Y-77505716D01*
X121425776Y-77508039D01*
X121425775Y-77508039D01*
X121228238Y-77600151D01*
X121228233Y-77600154D01*
X121223251Y-77602477D01*
X121166581Y-77642158D01*
X121040211Y-77730643D01*
X121040208Y-77730645D01*
X121035700Y-77733802D01*
X120873802Y-77895700D01*
X120870645Y-77900208D01*
X120870643Y-77900211D01*
X120842844Y-77939912D01*
X120742477Y-78083251D01*
X120740154Y-78088233D01*
X120739118Y-78090027D01*
X120687734Y-78139019D01*
X120618021Y-78152454D01*
X120552110Y-78126066D01*
X120520882Y-78090027D01*
X120519846Y-78088233D01*
X120517523Y-78083251D01*
X120417156Y-77939912D01*
X120389357Y-77900211D01*
X120389355Y-77900208D01*
X120386198Y-77895700D01*
X120224300Y-77733802D01*
X120219792Y-77730645D01*
X120219789Y-77730643D01*
X120093419Y-77642158D01*
X120036749Y-77602477D01*
X120031767Y-77600154D01*
X120031762Y-77600151D01*
X119834225Y-77508039D01*
X119834224Y-77508039D01*
X119829243Y-77505716D01*
X119823935Y-77504294D01*
X119823933Y-77504293D01*
X119613402Y-77447881D01*
X119613400Y-77447881D01*
X119608087Y-77446457D01*
X119380000Y-77426502D01*
X119151913Y-77446457D01*
X119088458Y-77463460D01*
X119017482Y-77461770D01*
X118966753Y-77430848D01*
X117970405Y-76434500D01*
X117936379Y-76372188D01*
X117933500Y-76345405D01*
X117933500Y-74584594D01*
X117953502Y-74516473D01*
X117970405Y-74495499D01*
X119534549Y-72931355D01*
X119596861Y-72897329D01*
X119648762Y-72896979D01*
X119828597Y-72933567D01*
X119833772Y-72933757D01*
X119833774Y-72933757D01*
X120046673Y-72941564D01*
X120046677Y-72941564D01*
X120051837Y-72941753D01*
X120056957Y-72941097D01*
X120056959Y-72941097D01*
X120268288Y-72914025D01*
X120268289Y-72914025D01*
X120273416Y-72913368D01*
X120278366Y-72911883D01*
X120482429Y-72850661D01*
X120482434Y-72850659D01*
X120487384Y-72849174D01*
X120687994Y-72750896D01*
X120869860Y-72621173D01*
X121028096Y-72463489D01*
X121158453Y-72282077D01*
X121159776Y-72283028D01*
X121206645Y-72239857D01*
X121276580Y-72227625D01*
X121342026Y-72255144D01*
X121369875Y-72286994D01*
X121429987Y-72385088D01*
X121576250Y-72553938D01*
X121748126Y-72696632D01*
X121941000Y-72809338D01*
X122149692Y-72889030D01*
X122154760Y-72890061D01*
X122154763Y-72890062D01*
X122244618Y-72908343D01*
X122368597Y-72933567D01*
X122373772Y-72933757D01*
X122373774Y-72933757D01*
X122586673Y-72941564D01*
X122586677Y-72941564D01*
X122591837Y-72941753D01*
X122596957Y-72941097D01*
X122596959Y-72941097D01*
X122808288Y-72914025D01*
X122808289Y-72914025D01*
X122813416Y-72913368D01*
X122818366Y-72911883D01*
X123022429Y-72850661D01*
X123022434Y-72850659D01*
X123027384Y-72849174D01*
X123227994Y-72750896D01*
X123409860Y-72621173D01*
X123568096Y-72463489D01*
X123698453Y-72282077D01*
X123699776Y-72283028D01*
X123746645Y-72239857D01*
X123816580Y-72227625D01*
X123882026Y-72255144D01*
X123909875Y-72286994D01*
X123969987Y-72385088D01*
X124116250Y-72553938D01*
X124288126Y-72696632D01*
X124481000Y-72809338D01*
X124689692Y-72889030D01*
X124694760Y-72890061D01*
X124694763Y-72890062D01*
X124784618Y-72908343D01*
X124908597Y-72933567D01*
X124913772Y-72933757D01*
X124913774Y-72933757D01*
X125126673Y-72941564D01*
X125126677Y-72941564D01*
X125131837Y-72941753D01*
X125136957Y-72941097D01*
X125136959Y-72941097D01*
X125348288Y-72914025D01*
X125348289Y-72914025D01*
X125353416Y-72913368D01*
X125358366Y-72911883D01*
X125562429Y-72850661D01*
X125562434Y-72850659D01*
X125567384Y-72849174D01*
X125767994Y-72750896D01*
X125949860Y-72621173D01*
X126058091Y-72513319D01*
X126120462Y-72479404D01*
X126191268Y-72484592D01*
X126248030Y-72527238D01*
X126265012Y-72558341D01*
X126309385Y-72676705D01*
X126396739Y-72793261D01*
X126513295Y-72880615D01*
X126649684Y-72931745D01*
X126711866Y-72938500D01*
X128508134Y-72938500D01*
X128570316Y-72931745D01*
X128706705Y-72880615D01*
X128823261Y-72793261D01*
X128910615Y-72676705D01*
X128961745Y-72540316D01*
X128968500Y-72478134D01*
X128968500Y-70681866D01*
X128961745Y-70619684D01*
X128910615Y-70483295D01*
X128823261Y-70366739D01*
X128706705Y-70279385D01*
X128570316Y-70228255D01*
X128508134Y-70221500D01*
X126711866Y-70221500D01*
X126649684Y-70228255D01*
X126513295Y-70279385D01*
X126396739Y-70366739D01*
X126309385Y-70483295D01*
X126306233Y-70491703D01*
X126264919Y-70601907D01*
X126222277Y-70658671D01*
X126155716Y-70683371D01*
X126086367Y-70668163D01*
X126053743Y-70642476D01*
X126003151Y-70586875D01*
X126003142Y-70586866D01*
X125999670Y-70583051D01*
X125995619Y-70579852D01*
X125995615Y-70579848D01*
X125828414Y-70447800D01*
X125828410Y-70447798D01*
X125824359Y-70444598D01*
X125788028Y-70424542D01*
X125772136Y-70415769D01*
X125628789Y-70336638D01*
X125623920Y-70334914D01*
X125623916Y-70334912D01*
X125423087Y-70263795D01*
X125423083Y-70263794D01*
X125418212Y-70262069D01*
X125413119Y-70261162D01*
X125413116Y-70261161D01*
X125203373Y-70223800D01*
X125203367Y-70223799D01*
X125198284Y-70222894D01*
X125124452Y-70221992D01*
X124980081Y-70220228D01*
X124980079Y-70220228D01*
X124974911Y-70220165D01*
X124754091Y-70253955D01*
X124541756Y-70323357D01*
X124343607Y-70426507D01*
X124339474Y-70429610D01*
X124339471Y-70429612D01*
X124169100Y-70557530D01*
X124164965Y-70560635D01*
X124139541Y-70587240D01*
X124071280Y-70658671D01*
X124010629Y-70722138D01*
X123903201Y-70879621D01*
X123848293Y-70924621D01*
X123777768Y-70932792D01*
X123714021Y-70901538D01*
X123693324Y-70877054D01*
X123612822Y-70752617D01*
X123612820Y-70752614D01*
X123610014Y-70748277D01*
X123459670Y-70583051D01*
X123455619Y-70579852D01*
X123455615Y-70579848D01*
X123288414Y-70447800D01*
X123288410Y-70447798D01*
X123284359Y-70444598D01*
X123248028Y-70424542D01*
X123232136Y-70415769D01*
X123088789Y-70336638D01*
X123083920Y-70334914D01*
X123083916Y-70334912D01*
X122883087Y-70263795D01*
X122883083Y-70263794D01*
X122878212Y-70262069D01*
X122873119Y-70261162D01*
X122873116Y-70261161D01*
X122663373Y-70223800D01*
X122663367Y-70223799D01*
X122658284Y-70222894D01*
X122584452Y-70221992D01*
X122440081Y-70220228D01*
X122440079Y-70220228D01*
X122434911Y-70220165D01*
X122214091Y-70253955D01*
X122001756Y-70323357D01*
X121803607Y-70426507D01*
X121799474Y-70429610D01*
X121799471Y-70429612D01*
X121629100Y-70557530D01*
X121624965Y-70560635D01*
X121599541Y-70587240D01*
X121531280Y-70658671D01*
X121470629Y-70722138D01*
X121363201Y-70879621D01*
X121308293Y-70924621D01*
X121237768Y-70932792D01*
X121174021Y-70901538D01*
X121153324Y-70877054D01*
X121072822Y-70752617D01*
X121072820Y-70752614D01*
X121070014Y-70748277D01*
X120919670Y-70583051D01*
X120915619Y-70579852D01*
X120915615Y-70579848D01*
X120748414Y-70447800D01*
X120748410Y-70447798D01*
X120744359Y-70444598D01*
X120708028Y-70424542D01*
X120692136Y-70415769D01*
X120548789Y-70336638D01*
X120543920Y-70334914D01*
X120543916Y-70334912D01*
X120343087Y-70263795D01*
X120343083Y-70263794D01*
X120338212Y-70262069D01*
X120333119Y-70261162D01*
X120333116Y-70261161D01*
X120123373Y-70223800D01*
X120123367Y-70223799D01*
X120118284Y-70222894D01*
X120044452Y-70221992D01*
X119900081Y-70220228D01*
X119900079Y-70220228D01*
X119894911Y-70220165D01*
X119674091Y-70253955D01*
X119461756Y-70323357D01*
X119263607Y-70426507D01*
X119259474Y-70429610D01*
X119259471Y-70429612D01*
X119089100Y-70557530D01*
X119084965Y-70560635D01*
X119059541Y-70587240D01*
X118991280Y-70658671D01*
X118930629Y-70722138D01*
X118823201Y-70879621D01*
X118768293Y-70924621D01*
X118697768Y-70932792D01*
X118634021Y-70901538D01*
X118613324Y-70877054D01*
X118532822Y-70752617D01*
X118532820Y-70752614D01*
X118530014Y-70748277D01*
X118379670Y-70583051D01*
X118375619Y-70579852D01*
X118375615Y-70579848D01*
X118208414Y-70447800D01*
X118208410Y-70447798D01*
X118204359Y-70444598D01*
X118168028Y-70424542D01*
X118152136Y-70415769D01*
X118008789Y-70336638D01*
X118003920Y-70334914D01*
X118003916Y-70334912D01*
X117803087Y-70263795D01*
X117803083Y-70263794D01*
X117798212Y-70262069D01*
X117793119Y-70261162D01*
X117793116Y-70261161D01*
X117583373Y-70223800D01*
X117583367Y-70223799D01*
X117578284Y-70222894D01*
X117504452Y-70221992D01*
X117360081Y-70220228D01*
X117360079Y-70220228D01*
X117354911Y-70220165D01*
X117134091Y-70253955D01*
X116921756Y-70323357D01*
X116723607Y-70426507D01*
X116719474Y-70429610D01*
X116719471Y-70429612D01*
X116549100Y-70557530D01*
X116544965Y-70560635D01*
X116519541Y-70587240D01*
X116451280Y-70658671D01*
X116390629Y-70722138D01*
X116283201Y-70879621D01*
X116228293Y-70924621D01*
X116157768Y-70932792D01*
X116094021Y-70901538D01*
X116073324Y-70877054D01*
X115992822Y-70752617D01*
X115992820Y-70752614D01*
X115990014Y-70748277D01*
X115839670Y-70583051D01*
X115835619Y-70579852D01*
X115835615Y-70579848D01*
X115668414Y-70447800D01*
X115668410Y-70447798D01*
X115664359Y-70444598D01*
X115628028Y-70424542D01*
X115612136Y-70415769D01*
X115468789Y-70336638D01*
X115463920Y-70334914D01*
X115463916Y-70334912D01*
X115263087Y-70263795D01*
X115263083Y-70263794D01*
X115258212Y-70262069D01*
X115253119Y-70261162D01*
X115253116Y-70261161D01*
X115043373Y-70223800D01*
X115043367Y-70223799D01*
X115038284Y-70222894D01*
X114964452Y-70221992D01*
X114820081Y-70220228D01*
X114820079Y-70220228D01*
X114814911Y-70220165D01*
X114594091Y-70253955D01*
X114381756Y-70323357D01*
X114183607Y-70426507D01*
X114179474Y-70429610D01*
X114179471Y-70429612D01*
X114009100Y-70557530D01*
X114004965Y-70560635D01*
X113979541Y-70587240D01*
X113911280Y-70658671D01*
X113850629Y-70722138D01*
X113743201Y-70879621D01*
X113688293Y-70924621D01*
X113617768Y-70932792D01*
X113554021Y-70901538D01*
X113533324Y-70877054D01*
X113452822Y-70752617D01*
X113452820Y-70752614D01*
X113450014Y-70748277D01*
X113299670Y-70583051D01*
X113295619Y-70579852D01*
X113295615Y-70579848D01*
X113128414Y-70447800D01*
X113128410Y-70447798D01*
X113124359Y-70444598D01*
X113088028Y-70424542D01*
X113072136Y-70415769D01*
X112928789Y-70336638D01*
X112923920Y-70334914D01*
X112923916Y-70334912D01*
X112723087Y-70263795D01*
X112723083Y-70263794D01*
X112718212Y-70262069D01*
X112713119Y-70261162D01*
X112713116Y-70261161D01*
X112503373Y-70223800D01*
X112503367Y-70223799D01*
X112498284Y-70222894D01*
X112424452Y-70221992D01*
X112280081Y-70220228D01*
X112280079Y-70220228D01*
X112274911Y-70220165D01*
X112054091Y-70253955D01*
X111841756Y-70323357D01*
X111643607Y-70426507D01*
X111639474Y-70429610D01*
X111639471Y-70429612D01*
X111469100Y-70557530D01*
X111464965Y-70560635D01*
X111439541Y-70587240D01*
X111371280Y-70658671D01*
X111310629Y-70722138D01*
X111203201Y-70879621D01*
X111148293Y-70924621D01*
X111077768Y-70932792D01*
X111014021Y-70901538D01*
X110993324Y-70877054D01*
X110912822Y-70752617D01*
X110912820Y-70752614D01*
X110910014Y-70748277D01*
X110759670Y-70583051D01*
X110755619Y-70579852D01*
X110755615Y-70579848D01*
X110588414Y-70447800D01*
X110588410Y-70447798D01*
X110584359Y-70444598D01*
X110548028Y-70424542D01*
X110532136Y-70415769D01*
X110388789Y-70336638D01*
X110383920Y-70334914D01*
X110383916Y-70334912D01*
X110183087Y-70263795D01*
X110183083Y-70263794D01*
X110178212Y-70262069D01*
X110173119Y-70261162D01*
X110173116Y-70261161D01*
X109963373Y-70223800D01*
X109963367Y-70223799D01*
X109958284Y-70222894D01*
X109884452Y-70221992D01*
X109740081Y-70220228D01*
X109740079Y-70220228D01*
X109734911Y-70220165D01*
X109514091Y-70253955D01*
X109301756Y-70323357D01*
X109103607Y-70426507D01*
X109099474Y-70429610D01*
X109099471Y-70429612D01*
X108929100Y-70557530D01*
X108924965Y-70560635D01*
X108899541Y-70587240D01*
X108831280Y-70658671D01*
X108770629Y-70722138D01*
X108663201Y-70879621D01*
X108608293Y-70924621D01*
X108537768Y-70932792D01*
X108474021Y-70901538D01*
X108453324Y-70877054D01*
X108372822Y-70752617D01*
X108372820Y-70752614D01*
X108370014Y-70748277D01*
X108219670Y-70583051D01*
X108215619Y-70579852D01*
X108215615Y-70579848D01*
X108048414Y-70447800D01*
X108048410Y-70447798D01*
X108044359Y-70444598D01*
X108008028Y-70424542D01*
X107992136Y-70415769D01*
X107848789Y-70336638D01*
X107843920Y-70334914D01*
X107843916Y-70334912D01*
X107643087Y-70263795D01*
X107643083Y-70263794D01*
X107638212Y-70262069D01*
X107633119Y-70261162D01*
X107633116Y-70261161D01*
X107423373Y-70223800D01*
X107423367Y-70223799D01*
X107418284Y-70222894D01*
X107344452Y-70221992D01*
X107200081Y-70220228D01*
X107200079Y-70220228D01*
X107194911Y-70220165D01*
X106974091Y-70253955D01*
X106761756Y-70323357D01*
X106563607Y-70426507D01*
X106559474Y-70429610D01*
X106559471Y-70429612D01*
X106389100Y-70557530D01*
X106384965Y-70560635D01*
X106359541Y-70587240D01*
X106291280Y-70658671D01*
X106230629Y-70722138D01*
X106227720Y-70726403D01*
X106227714Y-70726411D01*
X106215404Y-70744457D01*
X106123204Y-70879618D01*
X106122898Y-70880066D01*
X106067987Y-70925069D01*
X105997462Y-70933240D01*
X105933715Y-70901986D01*
X105913018Y-70877502D01*
X105832426Y-70752926D01*
X105826136Y-70744757D01*
X105682806Y-70587240D01*
X105675273Y-70580215D01*
X105508139Y-70448222D01*
X105499552Y-70442517D01*
X105313117Y-70339599D01*
X105303705Y-70335369D01*
X105102959Y-70264280D01*
X105092988Y-70261646D01*
X105021837Y-70248972D01*
X105008540Y-70250432D01*
X105004000Y-70264989D01*
X105004000Y-72898517D01*
X105008064Y-72912359D01*
X105021478Y-72914393D01*
X105028184Y-72913534D01*
X105038262Y-72911392D01*
X105242255Y-72850191D01*
X105251842Y-72846433D01*
X105443095Y-72752739D01*
X105451945Y-72747464D01*
X105625328Y-72623792D01*
X105633200Y-72617139D01*
X105784052Y-72466812D01*
X105790730Y-72458965D01*
X105918022Y-72281819D01*
X105919279Y-72282722D01*
X105966373Y-72239362D01*
X106036311Y-72227145D01*
X106101751Y-72254678D01*
X106129579Y-72286511D01*
X106189987Y-72385088D01*
X106336250Y-72553938D01*
X106508126Y-72696632D01*
X106701000Y-72809338D01*
X106909692Y-72889030D01*
X106914760Y-72890061D01*
X106914763Y-72890062D01*
X107004618Y-72908343D01*
X107128597Y-72933567D01*
X107133772Y-72933757D01*
X107133774Y-72933757D01*
X107346673Y-72941564D01*
X107346677Y-72941564D01*
X107351837Y-72941753D01*
X107356957Y-72941097D01*
X107356959Y-72941097D01*
X107568288Y-72914025D01*
X107568289Y-72914025D01*
X107573416Y-72913368D01*
X107578366Y-72911883D01*
X107782429Y-72850661D01*
X107782434Y-72850659D01*
X107787384Y-72849174D01*
X107987994Y-72750896D01*
X108169860Y-72621173D01*
X108328096Y-72463489D01*
X108438177Y-72310294D01*
X108494172Y-72266646D01*
X108564875Y-72260200D01*
X108627840Y-72293003D01*
X108663074Y-72354639D01*
X108666500Y-72383820D01*
X108666500Y-80191233D01*
X108665973Y-80202416D01*
X108664298Y-80209909D01*
X108664547Y-80217835D01*
X108664547Y-80217836D01*
X108666438Y-80277986D01*
X108666500Y-80281945D01*
X108666500Y-80309856D01*
X108666997Y-80313790D01*
X108666997Y-80313791D01*
X108667005Y-80313856D01*
X108667938Y-80325693D01*
X108669327Y-80369889D01*
X108674978Y-80389339D01*
X108678987Y-80408700D01*
X108681526Y-80428797D01*
X108684445Y-80436168D01*
X108684445Y-80436170D01*
X108697804Y-80469912D01*
X108701649Y-80481142D01*
X108713982Y-80523593D01*
X108718015Y-80530412D01*
X108718017Y-80530417D01*
X108724293Y-80541028D01*
X108732988Y-80558776D01*
X108740448Y-80577617D01*
X108745110Y-80584033D01*
X108745110Y-80584034D01*
X108766436Y-80613387D01*
X108772952Y-80623307D01*
X108795458Y-80661362D01*
X108809779Y-80675683D01*
X108822619Y-80690716D01*
X108834528Y-80707107D01*
X108840634Y-80712158D01*
X108868605Y-80735298D01*
X108877384Y-80743288D01*
X113102583Y-84968487D01*
X113136609Y-85030799D01*
X113131544Y-85101614D01*
X113088997Y-85158450D01*
X113022477Y-85183261D01*
X113006853Y-85181769D01*
X112977401Y-85182470D01*
X112974000Y-85190412D01*
X112974000Y-86087885D01*
X112978475Y-86103124D01*
X112979865Y-86104329D01*
X112987548Y-86106000D01*
X113884439Y-86106000D01*
X113897970Y-86102027D01*
X113901173Y-86079745D01*
X113902399Y-86028152D01*
X113942191Y-85969354D01*
X114007454Y-85941404D01*
X114077468Y-85953174D01*
X114111513Y-85977417D01*
X116327579Y-88193483D01*
X116361605Y-88255795D01*
X116363747Y-88296184D01*
X116361500Y-88316866D01*
X116361500Y-88963134D01*
X116361869Y-88966531D01*
X116368255Y-89025316D01*
X116365826Y-89025580D01*
X116365826Y-89054420D01*
X116368255Y-89054684D01*
X116361500Y-89116866D01*
X116361500Y-89120802D01*
X116361466Y-89120919D01*
X116361316Y-89123680D01*
X116360665Y-89123645D01*
X116341498Y-89188923D01*
X116287842Y-89235416D01*
X116217568Y-89245520D01*
X116161439Y-89222738D01*
X116032094Y-89128763D01*
X116032093Y-89128762D01*
X116026752Y-89124882D01*
X116020724Y-89122198D01*
X116020722Y-89122197D01*
X115858319Y-89049891D01*
X115858318Y-89049891D01*
X115852288Y-89047206D01*
X115749304Y-89025316D01*
X115671944Y-89008872D01*
X115671939Y-89008872D01*
X115665487Y-89007500D01*
X115474513Y-89007500D01*
X115468061Y-89008872D01*
X115468056Y-89008872D01*
X115390696Y-89025316D01*
X115287712Y-89047206D01*
X115281682Y-89049891D01*
X115281681Y-89049891D01*
X115119278Y-89122197D01*
X115119276Y-89122198D01*
X115113248Y-89124882D01*
X114958747Y-89237134D01*
X114830960Y-89379056D01*
X114735473Y-89544444D01*
X114676458Y-89726072D01*
X114675768Y-89732633D01*
X114675768Y-89732635D01*
X114666027Y-89825316D01*
X114656496Y-89916000D01*
X114676458Y-90105928D01*
X114693561Y-90158565D01*
X114695589Y-90229530D01*
X114658927Y-90290329D01*
X114595215Y-90321654D01*
X114573728Y-90323500D01*
X109016239Y-90323500D01*
X108948118Y-90303498D01*
X108927144Y-90286595D01*
X106624144Y-87983595D01*
X106590118Y-87921283D01*
X106595183Y-87850468D01*
X106637730Y-87793632D01*
X106704250Y-87768821D01*
X106713239Y-87768500D01*
X107628134Y-87768500D01*
X107690316Y-87761745D01*
X107826705Y-87710615D01*
X107943261Y-87623261D01*
X108030615Y-87506705D01*
X108081745Y-87370316D01*
X108088500Y-87308134D01*
X108088500Y-87119500D01*
X108108502Y-87051379D01*
X108162158Y-87004886D01*
X108214500Y-86993500D01*
X109722685Y-86993500D01*
X109790806Y-87013502D01*
X109825898Y-87047230D01*
X109890699Y-87139776D01*
X110040224Y-87289301D01*
X110213442Y-87410589D01*
X110218420Y-87412910D01*
X110218423Y-87412912D01*
X110400108Y-87497633D01*
X110405090Y-87499956D01*
X110410398Y-87501378D01*
X110410400Y-87501379D01*
X110604030Y-87553262D01*
X110604032Y-87553262D01*
X110609345Y-87554686D01*
X110820000Y-87573116D01*
X111030655Y-87554686D01*
X111035968Y-87553262D01*
X111035970Y-87553262D01*
X111229600Y-87501379D01*
X111229602Y-87501378D01*
X111234910Y-87499956D01*
X111239892Y-87497633D01*
X111421577Y-87412912D01*
X111421580Y-87412910D01*
X111426558Y-87410589D01*
X111599776Y-87289301D01*
X111681259Y-87207818D01*
X111743571Y-87173792D01*
X111814386Y-87178857D01*
X111859449Y-87207818D01*
X111936650Y-87285019D01*
X111945058Y-87292075D01*
X112109189Y-87407002D01*
X112118677Y-87412479D01*
X112300273Y-87497158D01*
X112310577Y-87500908D01*
X112448503Y-87537866D01*
X112462599Y-87537530D01*
X112466000Y-87529588D01*
X112466000Y-87524439D01*
X112974000Y-87524439D01*
X112977973Y-87537970D01*
X112986522Y-87539199D01*
X113129423Y-87500908D01*
X113139727Y-87497158D01*
X113321323Y-87412479D01*
X113330811Y-87407002D01*
X113494942Y-87292075D01*
X113503350Y-87285019D01*
X113645019Y-87143350D01*
X113652075Y-87134942D01*
X113767002Y-86970811D01*
X113772479Y-86961323D01*
X113857158Y-86779727D01*
X113860908Y-86769423D01*
X113897866Y-86631497D01*
X113897530Y-86617401D01*
X113889588Y-86614000D01*
X112992115Y-86614000D01*
X112976876Y-86618475D01*
X112975671Y-86619865D01*
X112974000Y-86627548D01*
X112974000Y-87524439D01*
X112466000Y-87524439D01*
X112466000Y-85195561D01*
X112462027Y-85182030D01*
X112453478Y-85180801D01*
X112310577Y-85219092D01*
X112300273Y-85222842D01*
X112118677Y-85307521D01*
X112109189Y-85312998D01*
X111945058Y-85427925D01*
X111936650Y-85434981D01*
X111859449Y-85512182D01*
X111797137Y-85546208D01*
X111726322Y-85541143D01*
X111681259Y-85512182D01*
X111599776Y-85430699D01*
X111426558Y-85309411D01*
X111421580Y-85307090D01*
X111421577Y-85307088D01*
X111239892Y-85222367D01*
X111239891Y-85222366D01*
X111234910Y-85220044D01*
X111229602Y-85218622D01*
X111229600Y-85218621D01*
X111035970Y-85166738D01*
X111035968Y-85166738D01*
X111030655Y-85165314D01*
X110820000Y-85146884D01*
X110609345Y-85165314D01*
X110604032Y-85166738D01*
X110604030Y-85166738D01*
X110410400Y-85218621D01*
X110410398Y-85218622D01*
X110405090Y-85220044D01*
X110400109Y-85222366D01*
X110400108Y-85222367D01*
X110218423Y-85307088D01*
X110218420Y-85307090D01*
X110213442Y-85309411D01*
X110040224Y-85430699D01*
X109890699Y-85580224D01*
X109887540Y-85584736D01*
X109825898Y-85672770D01*
X109770441Y-85717099D01*
X109722685Y-85726500D01*
X108214500Y-85726500D01*
X108146379Y-85706498D01*
X108099886Y-85652842D01*
X108088500Y-85600500D01*
X108088500Y-85411866D01*
X108081745Y-85349684D01*
X108030615Y-85213295D01*
X107943261Y-85096739D01*
X107826705Y-85009385D01*
X107690316Y-84958255D01*
X107628134Y-84951500D01*
X105731866Y-84951500D01*
X105669684Y-84958255D01*
X105533295Y-85009385D01*
X105416739Y-85096739D01*
X105329385Y-85213295D01*
X105326233Y-85221703D01*
X105326232Y-85221705D01*
X105305538Y-85276906D01*
X105262897Y-85333671D01*
X105196335Y-85358371D01*
X105126986Y-85343164D01*
X105104167Y-85326666D01*
X105103887Y-85326358D01*
X105041270Y-85276906D01*
X104926177Y-85186011D01*
X104926172Y-85186008D01*
X104922123Y-85182810D01*
X104917607Y-85180317D01*
X104917604Y-85180315D01*
X104723879Y-85073373D01*
X104723875Y-85073371D01*
X104719355Y-85070876D01*
X104714486Y-85069152D01*
X104714482Y-85069150D01*
X104505903Y-84995288D01*
X104505899Y-84995287D01*
X104501028Y-84993562D01*
X104495935Y-84992655D01*
X104495932Y-84992654D01*
X104278095Y-84953851D01*
X104278089Y-84953850D01*
X104273006Y-84952945D01*
X104200096Y-84952054D01*
X104046581Y-84950179D01*
X104046579Y-84950179D01*
X104041411Y-84950116D01*
X103812464Y-84985150D01*
X103592314Y-85057106D01*
X103587726Y-85059494D01*
X103587722Y-85059496D01*
X103418931Y-85147363D01*
X103386872Y-85164052D01*
X103382739Y-85167155D01*
X103382736Y-85167157D01*
X103205790Y-85300012D01*
X103201655Y-85303117D01*
X103195640Y-85309411D01*
X103059221Y-85452166D01*
X103041639Y-85470564D01*
X103038725Y-85474836D01*
X103038724Y-85474837D01*
X103023152Y-85497665D01*
X102911119Y-85661899D01*
X102813602Y-85871981D01*
X102751707Y-86095169D01*
X102727095Y-86325469D01*
X102108500Y-86325469D01*
X102108500Y-71847966D01*
X103418257Y-71847966D01*
X103448565Y-71982446D01*
X103451645Y-71992275D01*
X103531770Y-72189603D01*
X103536413Y-72198794D01*
X103647694Y-72380388D01*
X103653777Y-72388699D01*
X103793213Y-72549667D01*
X103800580Y-72556883D01*
X103964434Y-72692916D01*
X103972881Y-72698831D01*
X104156756Y-72806279D01*
X104166042Y-72810729D01*
X104365001Y-72886703D01*
X104374899Y-72889579D01*
X104478250Y-72910606D01*
X104492299Y-72909410D01*
X104496000Y-72899065D01*
X104496000Y-71852115D01*
X104491525Y-71836876D01*
X104490135Y-71835671D01*
X104482452Y-71834000D01*
X103433225Y-71834000D01*
X103419694Y-71837973D01*
X103418257Y-71847966D01*
X102108500Y-71847966D01*
X102108500Y-71314183D01*
X103414389Y-71314183D01*
X103415912Y-71322607D01*
X103428292Y-71326000D01*
X104477885Y-71326000D01*
X104493124Y-71321525D01*
X104494329Y-71320135D01*
X104496000Y-71312452D01*
X104496000Y-70263102D01*
X104492082Y-70249758D01*
X104477806Y-70247771D01*
X104439324Y-70253660D01*
X104429288Y-70256051D01*
X104226868Y-70322212D01*
X104217359Y-70326209D01*
X104028463Y-70424542D01*
X104019738Y-70430036D01*
X103849433Y-70557905D01*
X103841726Y-70564748D01*
X103694590Y-70718717D01*
X103688104Y-70726727D01*
X103568098Y-70902649D01*
X103563000Y-70911623D01*
X103473338Y-71104783D01*
X103469775Y-71114470D01*
X103414389Y-71314183D01*
X102108500Y-71314183D01*
X102108500Y-69214500D01*
X102128502Y-69146379D01*
X102182158Y-69099886D01*
X102234500Y-69088500D01*
X144145500Y-69088500D01*
X144213621Y-69108502D01*
G37*
G04 #@! TD.AperFunction*
G04 #@! TA.AperFunction,Conductor*
G36*
X132123527Y-94893502D02*
G01*
X132144501Y-94910405D01*
X135839778Y-98605682D01*
X135873804Y-98667994D01*
X135872100Y-98728448D01*
X135850989Y-98804570D01*
X135850441Y-98809700D01*
X135850440Y-98809704D01*
X135840654Y-98901281D01*
X135827251Y-99026695D01*
X135827548Y-99031848D01*
X135827548Y-99031851D01*
X135831793Y-99105475D01*
X135840110Y-99249715D01*
X135841247Y-99254761D01*
X135841248Y-99254767D01*
X135856368Y-99321856D01*
X135889222Y-99467639D01*
X135950673Y-99618976D01*
X135969985Y-99666535D01*
X135973266Y-99674616D01*
X136011114Y-99736379D01*
X136087291Y-99860688D01*
X136089987Y-99865088D01*
X136236250Y-100033938D01*
X136408126Y-100176632D01*
X136478595Y-100217811D01*
X136481445Y-100219476D01*
X136530169Y-100271114D01*
X136543240Y-100340897D01*
X136516509Y-100406669D01*
X136476055Y-100440027D01*
X136463607Y-100446507D01*
X136459474Y-100449610D01*
X136459471Y-100449612D01*
X136387542Y-100503618D01*
X136284965Y-100580635D01*
X136130629Y-100742138D01*
X136127715Y-100746410D01*
X136127714Y-100746411D01*
X136015095Y-100911504D01*
X135960184Y-100956507D01*
X135911007Y-100966500D01*
X133550200Y-100966500D01*
X133482079Y-100946498D01*
X133462853Y-100930157D01*
X133462580Y-100930460D01*
X133457668Y-100926037D01*
X133453253Y-100921134D01*
X133405023Y-100886093D01*
X133304094Y-100812763D01*
X133304093Y-100812762D01*
X133298752Y-100808882D01*
X133292724Y-100806198D01*
X133292722Y-100806197D01*
X133130319Y-100733891D01*
X133130318Y-100733891D01*
X133124288Y-100731206D01*
X133030888Y-100711353D01*
X132943944Y-100692872D01*
X132943939Y-100692872D01*
X132937487Y-100691500D01*
X132746513Y-100691500D01*
X132740061Y-100692872D01*
X132740056Y-100692872D01*
X132653112Y-100711353D01*
X132559712Y-100731206D01*
X132553682Y-100733891D01*
X132553681Y-100733891D01*
X132391278Y-100806197D01*
X132391276Y-100806198D01*
X132385248Y-100808882D01*
X132379907Y-100812762D01*
X132379906Y-100812763D01*
X132329843Y-100849136D01*
X132230747Y-100921134D01*
X132226326Y-100926044D01*
X132226325Y-100926045D01*
X132192492Y-100963621D01*
X132102960Y-101063056D01*
X132099659Y-101068774D01*
X132018909Y-101208637D01*
X132007473Y-101228444D01*
X131948458Y-101410072D01*
X131947768Y-101416633D01*
X131947768Y-101416635D01*
X131934351Y-101544292D01*
X131928496Y-101600000D01*
X131948458Y-101789928D01*
X132007473Y-101971556D01*
X132102960Y-102136944D01*
X132107378Y-102141851D01*
X132107379Y-102141852D01*
X132189452Y-102233003D01*
X132230747Y-102278866D01*
X132385248Y-102391118D01*
X132391276Y-102393802D01*
X132391278Y-102393803D01*
X132416625Y-102405088D01*
X132559712Y-102468794D01*
X132653113Y-102488647D01*
X132740056Y-102507128D01*
X132740061Y-102507128D01*
X132746513Y-102508500D01*
X132937487Y-102508500D01*
X132943939Y-102507128D01*
X132943944Y-102507128D01*
X133030888Y-102488647D01*
X133124288Y-102468794D01*
X133267375Y-102405088D01*
X133292722Y-102393803D01*
X133292724Y-102393802D01*
X133298752Y-102391118D01*
X133453253Y-102278866D01*
X133457668Y-102273963D01*
X133462580Y-102269540D01*
X133463705Y-102270789D01*
X133517014Y-102237949D01*
X133550200Y-102233500D01*
X135914274Y-102233500D01*
X135982395Y-102253502D01*
X136021707Y-102293665D01*
X136089987Y-102405088D01*
X136236250Y-102573938D01*
X136408126Y-102716632D01*
X136601000Y-102829338D01*
X136605825Y-102831180D01*
X136605826Y-102831181D01*
X136639697Y-102844115D01*
X136809692Y-102909030D01*
X136814760Y-102910061D01*
X136814763Y-102910062D01*
X136922017Y-102931883D01*
X137028597Y-102953567D01*
X137033772Y-102953757D01*
X137033774Y-102953757D01*
X137246673Y-102961564D01*
X137246677Y-102961564D01*
X137251837Y-102961753D01*
X137256957Y-102961097D01*
X137256959Y-102961097D01*
X137468288Y-102934025D01*
X137468289Y-102934025D01*
X137473416Y-102933368D01*
X137539646Y-102913498D01*
X137682429Y-102870661D01*
X137682434Y-102870659D01*
X137687384Y-102869174D01*
X137887994Y-102770896D01*
X138069860Y-102641173D01*
X138101788Y-102609357D01*
X138178479Y-102532933D01*
X138240851Y-102499017D01*
X138311658Y-102504205D01*
X138368419Y-102546851D01*
X138385401Y-102577954D01*
X138426676Y-102688054D01*
X138435214Y-102703649D01*
X138511715Y-102805724D01*
X138524276Y-102818285D01*
X138626351Y-102894786D01*
X138641946Y-102903324D01*
X138762394Y-102948478D01*
X138777649Y-102952105D01*
X138828514Y-102957631D01*
X138835328Y-102958000D01*
X139457885Y-102958000D01*
X139473124Y-102953525D01*
X139474329Y-102952135D01*
X139476000Y-102944452D01*
X139476000Y-102939884D01*
X139984000Y-102939884D01*
X139988475Y-102955123D01*
X139989865Y-102956328D01*
X139997548Y-102957999D01*
X140624669Y-102957999D01*
X140631490Y-102957629D01*
X140682352Y-102952105D01*
X140697604Y-102948479D01*
X140818054Y-102903324D01*
X140833649Y-102894786D01*
X140935724Y-102818285D01*
X140948285Y-102805724D01*
X141024786Y-102703649D01*
X141033324Y-102688054D01*
X141078478Y-102567606D01*
X141082105Y-102552351D01*
X141087631Y-102501486D01*
X141088000Y-102494672D01*
X141088000Y-101872115D01*
X141083525Y-101856876D01*
X141082135Y-101855671D01*
X141074452Y-101854000D01*
X140002115Y-101854000D01*
X139986876Y-101858475D01*
X139985671Y-101859865D01*
X139984000Y-101867548D01*
X139984000Y-102939884D01*
X139476000Y-102939884D01*
X139476000Y-101472000D01*
X139496002Y-101403879D01*
X139549658Y-101357386D01*
X139602000Y-101346000D01*
X141069884Y-101346000D01*
X141085123Y-101341525D01*
X141086328Y-101340135D01*
X141087999Y-101332452D01*
X141087999Y-100886093D01*
X141108001Y-100817972D01*
X141161657Y-100771479D01*
X141231931Y-100761375D01*
X141296511Y-100790869D01*
X141303094Y-100796998D01*
X142331595Y-101825499D01*
X142365621Y-101887811D01*
X142368500Y-101914594D01*
X142368500Y-104396500D01*
X142348498Y-104464621D01*
X142294842Y-104511114D01*
X142242500Y-104522500D01*
X130108595Y-104522500D01*
X130040474Y-104502498D01*
X130019500Y-104485595D01*
X124590405Y-99056500D01*
X124556379Y-98994188D01*
X124553500Y-98967405D01*
X124553500Y-97124500D01*
X124573502Y-97056379D01*
X124627158Y-97009886D01*
X124679500Y-96998500D01*
X125043134Y-96998500D01*
X125063814Y-96996253D01*
X125133694Y-97008780D01*
X125166517Y-97032421D01*
X126316343Y-98182247D01*
X126323887Y-98190537D01*
X126328000Y-98197018D01*
X126333777Y-98202443D01*
X126377667Y-98243658D01*
X126380509Y-98246413D01*
X126400230Y-98266134D01*
X126403425Y-98268612D01*
X126412447Y-98276318D01*
X126444679Y-98306586D01*
X126451628Y-98310406D01*
X126462432Y-98316346D01*
X126478956Y-98327199D01*
X126494959Y-98339613D01*
X126535543Y-98357176D01*
X126546173Y-98362383D01*
X126584940Y-98383695D01*
X126592617Y-98385666D01*
X126592622Y-98385668D01*
X126604558Y-98388732D01*
X126623266Y-98395137D01*
X126641855Y-98403181D01*
X126649680Y-98404420D01*
X126649682Y-98404421D01*
X126685519Y-98410097D01*
X126697140Y-98412504D01*
X126732289Y-98421528D01*
X126739970Y-98423500D01*
X126760231Y-98423500D01*
X126779940Y-98425051D01*
X126799943Y-98428219D01*
X126807835Y-98427473D01*
X126813062Y-98426979D01*
X126843954Y-98424059D01*
X126855811Y-98423500D01*
X127815800Y-98423500D01*
X127883921Y-98443502D01*
X127903147Y-98459843D01*
X127903420Y-98459540D01*
X127908332Y-98463963D01*
X127912747Y-98468866D01*
X127921158Y-98474977D01*
X128056009Y-98572952D01*
X128067248Y-98581118D01*
X128073276Y-98583802D01*
X128073278Y-98583803D01*
X128227755Y-98652580D01*
X128241712Y-98658794D01*
X128329171Y-98677384D01*
X128422056Y-98697128D01*
X128422061Y-98697128D01*
X128428513Y-98698500D01*
X128619487Y-98698500D01*
X128625939Y-98697128D01*
X128625944Y-98697128D01*
X128718829Y-98677384D01*
X128806288Y-98658794D01*
X128820245Y-98652580D01*
X128974722Y-98583803D01*
X128974724Y-98583802D01*
X128980752Y-98581118D01*
X128991992Y-98572952D01*
X129052017Y-98529341D01*
X129135253Y-98468866D01*
X129143650Y-98459540D01*
X129258621Y-98331852D01*
X129258622Y-98331851D01*
X129263040Y-98326944D01*
X129336259Y-98200125D01*
X129355223Y-98167279D01*
X129355224Y-98167278D01*
X129358527Y-98161556D01*
X129417542Y-97979928D01*
X129419045Y-97965634D01*
X129436814Y-97796565D01*
X129437504Y-97790000D01*
X129423580Y-97657523D01*
X129418232Y-97606635D01*
X129418232Y-97606633D01*
X129417542Y-97600072D01*
X129358527Y-97418444D01*
X129263040Y-97253056D01*
X129235147Y-97222077D01*
X129139675Y-97116045D01*
X129139674Y-97116044D01*
X129135253Y-97111134D01*
X129007757Y-97018502D01*
X128986094Y-97002763D01*
X128986093Y-97002762D01*
X128980752Y-96998882D01*
X128974724Y-96996198D01*
X128974722Y-96996197D01*
X128812319Y-96923891D01*
X128812318Y-96923891D01*
X128806288Y-96921206D01*
X128712888Y-96901353D01*
X128625944Y-96882872D01*
X128625939Y-96882872D01*
X128619487Y-96881500D01*
X128428513Y-96881500D01*
X128422061Y-96882872D01*
X128422056Y-96882872D01*
X128335112Y-96901353D01*
X128241712Y-96921206D01*
X128235682Y-96923891D01*
X128235681Y-96923891D01*
X128073278Y-96996197D01*
X128073276Y-96996198D01*
X128067248Y-96998882D01*
X128061907Y-97002762D01*
X128061906Y-97002763D01*
X128040243Y-97018502D01*
X127912747Y-97111134D01*
X127908332Y-97116037D01*
X127903420Y-97120460D01*
X127902295Y-97119211D01*
X127848986Y-97152051D01*
X127815800Y-97156500D01*
X127134595Y-97156500D01*
X127066474Y-97136498D01*
X127045500Y-97119595D01*
X125540405Y-95614500D01*
X125506379Y-95552188D01*
X125503500Y-95525405D01*
X125503500Y-95149500D01*
X125523502Y-95081379D01*
X125577158Y-95034886D01*
X125629500Y-95023500D01*
X127018134Y-95023500D01*
X127080316Y-95016745D01*
X127216705Y-94965615D01*
X127306024Y-94898674D01*
X127372530Y-94873826D01*
X127381589Y-94873500D01*
X132055406Y-94873500D01*
X132123527Y-94893502D01*
G37*
G04 #@! TD.AperFunction*
G04 #@! TA.AperFunction,Conductor*
G36*
X116303621Y-94093502D02*
G01*
X116350114Y-94147158D01*
X116361500Y-94199500D01*
X116361500Y-94563134D01*
X116368255Y-94625316D01*
X116419385Y-94761705D01*
X116506739Y-94878261D01*
X116623295Y-94965615D01*
X116759684Y-95016745D01*
X116821866Y-95023500D01*
X116910500Y-95023500D01*
X116978621Y-95043502D01*
X117025114Y-95097158D01*
X117036500Y-95149500D01*
X117036500Y-97915406D01*
X117016498Y-97983527D01*
X116999595Y-98004501D01*
X114074500Y-100929595D01*
X114012188Y-100963621D01*
X113985405Y-100966500D01*
X113779394Y-100966500D01*
X113711273Y-100946498D01*
X113676181Y-100912771D01*
X113569357Y-100760211D01*
X113569355Y-100760208D01*
X113566198Y-100755700D01*
X113404300Y-100593802D01*
X113399792Y-100590645D01*
X113399789Y-100590643D01*
X113221253Y-100465631D01*
X113216749Y-100462477D01*
X113211767Y-100460154D01*
X113209973Y-100459118D01*
X113160981Y-100407734D01*
X113147546Y-100338021D01*
X113173934Y-100272110D01*
X113209973Y-100240882D01*
X113211767Y-100239846D01*
X113216749Y-100237523D01*
X113311124Y-100171441D01*
X113399789Y-100109357D01*
X113399792Y-100109355D01*
X113404300Y-100106198D01*
X113566198Y-99944300D01*
X113697523Y-99756749D01*
X113699846Y-99751767D01*
X113699849Y-99751762D01*
X113791961Y-99554225D01*
X113791961Y-99554224D01*
X113794284Y-99549243D01*
X113809317Y-99493142D01*
X113852119Y-99333402D01*
X113852119Y-99333400D01*
X113853543Y-99328087D01*
X113873498Y-99100000D01*
X113853543Y-98871913D01*
X113836874Y-98809704D01*
X113795707Y-98656067D01*
X113795706Y-98656065D01*
X113794284Y-98650757D01*
X113791961Y-98645775D01*
X113699849Y-98448238D01*
X113699846Y-98448233D01*
X113697523Y-98443251D01*
X113604504Y-98310406D01*
X113569357Y-98260211D01*
X113569355Y-98260208D01*
X113566198Y-98255700D01*
X113404300Y-98093802D01*
X113399792Y-98090645D01*
X113399789Y-98090643D01*
X113245813Y-97982828D01*
X113216749Y-97962477D01*
X113211764Y-97960153D01*
X113211758Y-97960149D01*
X113134653Y-97924195D01*
X113081367Y-97877278D01*
X113061906Y-97809001D01*
X113082447Y-97741041D01*
X113134653Y-97695805D01*
X113211758Y-97659851D01*
X113211764Y-97659847D01*
X113216749Y-97657523D01*
X113359555Y-97557529D01*
X113399789Y-97529357D01*
X113399792Y-97529355D01*
X113404300Y-97526198D01*
X113566198Y-97364300D01*
X113571897Y-97356162D01*
X113669032Y-97217438D01*
X113697523Y-97176749D01*
X113699846Y-97171767D01*
X113699849Y-97171762D01*
X113791961Y-96974225D01*
X113791961Y-96974224D01*
X113794284Y-96969243D01*
X113800866Y-96944681D01*
X113852119Y-96753402D01*
X113852119Y-96753400D01*
X113853543Y-96748087D01*
X113873498Y-96520000D01*
X113853543Y-96291913D01*
X113852119Y-96286598D01*
X113852118Y-96286591D01*
X113836541Y-96228459D01*
X113838230Y-96157483D01*
X113869152Y-96106752D01*
X115865500Y-94110405D01*
X115927812Y-94076379D01*
X115954595Y-94073500D01*
X116235500Y-94073500D01*
X116303621Y-94093502D01*
G37*
G04 #@! TD.AperFunction*
G04 #@! TA.AperFunction,Conductor*
G36*
X124396866Y-88498500D02*
G01*
X124735500Y-88498500D01*
X124803621Y-88518502D01*
X124850114Y-88572158D01*
X124861500Y-88624500D01*
X124861500Y-88963134D01*
X124861869Y-88966531D01*
X124868255Y-89025316D01*
X124865826Y-89025580D01*
X124865826Y-89054420D01*
X124868255Y-89054684D01*
X124861500Y-89116866D01*
X124861500Y-89763134D01*
X124861869Y-89766531D01*
X124868255Y-89825316D01*
X124865826Y-89825580D01*
X124865826Y-89854420D01*
X124868255Y-89854684D01*
X124861500Y-89916866D01*
X124861500Y-90563134D01*
X124861869Y-90566531D01*
X124868255Y-90625316D01*
X124866116Y-90625548D01*
X124866166Y-90654512D01*
X124868748Y-90654793D01*
X124862369Y-90713514D01*
X124862000Y-90720328D01*
X124862000Y-90767885D01*
X124866475Y-90783124D01*
X124867865Y-90784329D01*
X124888783Y-90788879D01*
X124888518Y-90790097D01*
X124942687Y-90806002D01*
X124975392Y-90836435D01*
X125006739Y-90878261D01*
X125013919Y-90883642D01*
X125088015Y-90939174D01*
X125130530Y-90996033D01*
X125135556Y-91066852D01*
X125101496Y-91129145D01*
X125088016Y-91140825D01*
X125006739Y-91201739D01*
X125001358Y-91208919D01*
X125001357Y-91208920D01*
X124975392Y-91243565D01*
X124918533Y-91286080D01*
X124888926Y-91291413D01*
X124864877Y-91298475D01*
X124863672Y-91299865D01*
X124862001Y-91307548D01*
X124862001Y-91359669D01*
X124862371Y-91366490D01*
X124868748Y-91425207D01*
X124866002Y-91425505D01*
X124866060Y-91454446D01*
X124868255Y-91454684D01*
X124861500Y-91516866D01*
X124861500Y-92163134D01*
X124861869Y-92166531D01*
X124868255Y-92225316D01*
X124865826Y-92225580D01*
X124865826Y-92254420D01*
X124868255Y-92254684D01*
X124861500Y-92316866D01*
X124861500Y-92963134D01*
X124861869Y-92966531D01*
X124868255Y-93025316D01*
X124865826Y-93025580D01*
X124865826Y-93054420D01*
X124868255Y-93054684D01*
X124861500Y-93116866D01*
X124861500Y-93763134D01*
X124861869Y-93766531D01*
X124868255Y-93825316D01*
X124865826Y-93825580D01*
X124865826Y-93854420D01*
X124868255Y-93854684D01*
X124861500Y-93916866D01*
X124861500Y-94255500D01*
X124841498Y-94323621D01*
X124787842Y-94370114D01*
X124735500Y-94381500D01*
X124396866Y-94381500D01*
X124334684Y-94388255D01*
X124334420Y-94385826D01*
X124305580Y-94385826D01*
X124305316Y-94388255D01*
X124246531Y-94381869D01*
X124243134Y-94381500D01*
X123596866Y-94381500D01*
X123534684Y-94388255D01*
X123534420Y-94385826D01*
X123505580Y-94385826D01*
X123505316Y-94388255D01*
X123446531Y-94381869D01*
X123443134Y-94381500D01*
X122796866Y-94381500D01*
X122734684Y-94388255D01*
X122734420Y-94385826D01*
X122705580Y-94385826D01*
X122705316Y-94388255D01*
X122646531Y-94381869D01*
X122643134Y-94381500D01*
X121996866Y-94381500D01*
X121934684Y-94388255D01*
X121934420Y-94385826D01*
X121905580Y-94385826D01*
X121905316Y-94388255D01*
X121846531Y-94381869D01*
X121843134Y-94381500D01*
X121196866Y-94381500D01*
X121134684Y-94388255D01*
X121134420Y-94385826D01*
X121105580Y-94385826D01*
X121105316Y-94388255D01*
X121046531Y-94381869D01*
X121043134Y-94381500D01*
X120396866Y-94381500D01*
X120334684Y-94388255D01*
X120334420Y-94385826D01*
X120305580Y-94385826D01*
X120305316Y-94388255D01*
X120246531Y-94381869D01*
X120243134Y-94381500D01*
X119596866Y-94381500D01*
X119534684Y-94388255D01*
X119534420Y-94385826D01*
X119505580Y-94385826D01*
X119505316Y-94388255D01*
X119446531Y-94381869D01*
X119443134Y-94381500D01*
X119104500Y-94381500D01*
X119036379Y-94361498D01*
X118989886Y-94307842D01*
X118978500Y-94255500D01*
X118978500Y-93916866D01*
X118971745Y-93854684D01*
X118974174Y-93854420D01*
X118974174Y-93825580D01*
X118971745Y-93825316D01*
X118978131Y-93766531D01*
X118978500Y-93763134D01*
X118978500Y-93116866D01*
X118971745Y-93054684D01*
X118974174Y-93054420D01*
X118974174Y-93025580D01*
X118971745Y-93025316D01*
X118978131Y-92966531D01*
X118978500Y-92963134D01*
X118978500Y-92316866D01*
X118971745Y-92254684D01*
X118973884Y-92254452D01*
X118973834Y-92225488D01*
X118971252Y-92225207D01*
X118977631Y-92166486D01*
X118978000Y-92159672D01*
X118978000Y-92112115D01*
X118973525Y-92096876D01*
X118972135Y-92095671D01*
X118951217Y-92091121D01*
X118951482Y-92089903D01*
X118897313Y-92073998D01*
X118864608Y-92043565D01*
X118838643Y-92008920D01*
X118838642Y-92008919D01*
X118833261Y-92001739D01*
X118751985Y-91940826D01*
X118709470Y-91883967D01*
X118704444Y-91813148D01*
X118738504Y-91750855D01*
X118751985Y-91739174D01*
X118826081Y-91683642D01*
X118833261Y-91678261D01*
X118864608Y-91636435D01*
X118921467Y-91593920D01*
X118951074Y-91588587D01*
X118975123Y-91581525D01*
X118976328Y-91580135D01*
X118977999Y-91572452D01*
X118977999Y-91520331D01*
X118977629Y-91513510D01*
X118971252Y-91454793D01*
X118973998Y-91454495D01*
X118973940Y-91425554D01*
X118971745Y-91425316D01*
X118978131Y-91366531D01*
X118978500Y-91363134D01*
X118978500Y-90716866D01*
X118971745Y-90654684D01*
X118974174Y-90654420D01*
X118974174Y-90625580D01*
X118971745Y-90625316D01*
X118978131Y-90566531D01*
X118978500Y-90563134D01*
X118978500Y-89916866D01*
X118971745Y-89854684D01*
X118974174Y-89854420D01*
X118974174Y-89825580D01*
X118971745Y-89825316D01*
X118978131Y-89766531D01*
X118978500Y-89763134D01*
X118978500Y-89116866D01*
X118971745Y-89054684D01*
X118974174Y-89054420D01*
X118974174Y-89025580D01*
X118971745Y-89025316D01*
X118978131Y-88966531D01*
X118978500Y-88963134D01*
X118978500Y-88624500D01*
X118998502Y-88556379D01*
X119052158Y-88509886D01*
X119104500Y-88498500D01*
X119443134Y-88498500D01*
X119505316Y-88491745D01*
X119505580Y-88494174D01*
X119534420Y-88494174D01*
X119534684Y-88491745D01*
X119596866Y-88498500D01*
X120243134Y-88498500D01*
X120305316Y-88491745D01*
X120305580Y-88494174D01*
X120334420Y-88494174D01*
X120334684Y-88491745D01*
X120396866Y-88498500D01*
X121043134Y-88498500D01*
X121105316Y-88491745D01*
X121105580Y-88494174D01*
X121134420Y-88494174D01*
X121134684Y-88491745D01*
X121196866Y-88498500D01*
X121843134Y-88498500D01*
X121905316Y-88491745D01*
X121905580Y-88494174D01*
X121934420Y-88494174D01*
X121934684Y-88491745D01*
X121996866Y-88498500D01*
X122643134Y-88498500D01*
X122705316Y-88491745D01*
X122705580Y-88494174D01*
X122734420Y-88494174D01*
X122734684Y-88491745D01*
X122796866Y-88498500D01*
X123443134Y-88498500D01*
X123505316Y-88491745D01*
X123505580Y-88494174D01*
X123534420Y-88494174D01*
X123534684Y-88491745D01*
X123596866Y-88498500D01*
X124243134Y-88498500D01*
X124305316Y-88491745D01*
X124305580Y-88494174D01*
X124334420Y-88494174D01*
X124334684Y-88491745D01*
X124396866Y-88498500D01*
G37*
G04 #@! TD.AperFunction*
G04 #@! TA.AperFunction,Conductor*
G36*
X114674527Y-93293502D02*
G01*
X114721020Y-93347158D01*
X114731124Y-93417432D01*
X114701630Y-93482012D01*
X114695517Y-93488579D01*
X114087940Y-94096155D01*
X114025630Y-94130179D01*
X113954814Y-94125114D01*
X113897979Y-94082567D01*
X113873326Y-94018039D01*
X113854023Y-93797394D01*
X113854022Y-93797389D01*
X113853543Y-93791913D01*
X113826339Y-93690386D01*
X113795707Y-93576067D01*
X113795706Y-93576065D01*
X113794284Y-93570757D01*
X113789564Y-93560634D01*
X113739257Y-93452749D01*
X113728596Y-93382558D01*
X113757576Y-93317745D01*
X113816996Y-93278889D01*
X113853452Y-93273500D01*
X114606406Y-93273500D01*
X114674527Y-93293502D01*
G37*
G04 #@! TD.AperFunction*
G04 #@! TA.AperFunction,Conductor*
G36*
X128563526Y-79393502D02*
G01*
X128584501Y-79410405D01*
X128869596Y-79695501D01*
X128903621Y-79757813D01*
X128906500Y-79784596D01*
X128906500Y-80182685D01*
X128886498Y-80250806D01*
X128852770Y-80285898D01*
X128760224Y-80350699D01*
X128610699Y-80500224D01*
X128489411Y-80673442D01*
X128487090Y-80678420D01*
X128487088Y-80678423D01*
X128402367Y-80860108D01*
X128400044Y-80865090D01*
X128398622Y-80870398D01*
X128398621Y-80870400D01*
X128355111Y-81032782D01*
X128345314Y-81069345D01*
X128326884Y-81280000D01*
X128345314Y-81490655D01*
X128346738Y-81495968D01*
X128346738Y-81495970D01*
X128395397Y-81677566D01*
X128400044Y-81694910D01*
X128402366Y-81699891D01*
X128402367Y-81699892D01*
X128453861Y-81810320D01*
X128489411Y-81886558D01*
X128610699Y-82059776D01*
X128691828Y-82140905D01*
X128725854Y-82203217D01*
X128720789Y-82274032D01*
X128691828Y-82319095D01*
X128610699Y-82400224D01*
X128489411Y-82573442D01*
X128487090Y-82578420D01*
X128487088Y-82578423D01*
X128450998Y-82655819D01*
X128400044Y-82765090D01*
X128398622Y-82770398D01*
X128398621Y-82770400D01*
X128346738Y-82964030D01*
X128345314Y-82969345D01*
X128326884Y-83180000D01*
X128345314Y-83390655D01*
X128346738Y-83395968D01*
X128346738Y-83395970D01*
X128352581Y-83417776D01*
X128350891Y-83488753D01*
X128319969Y-83539482D01*
X127922856Y-83936595D01*
X127860544Y-83970621D01*
X127833761Y-83973500D01*
X127730710Y-83973500D01*
X127662589Y-83953498D01*
X127637074Y-83931811D01*
X127615668Y-83908037D01*
X127615666Y-83908036D01*
X127611253Y-83903134D01*
X127456752Y-83790882D01*
X127450724Y-83788198D01*
X127450722Y-83788197D01*
X127288319Y-83715891D01*
X127288318Y-83715891D01*
X127282288Y-83713206D01*
X127188888Y-83693353D01*
X127101944Y-83674872D01*
X127101939Y-83674872D01*
X127095487Y-83673500D01*
X126904513Y-83673500D01*
X126898061Y-83674872D01*
X126898056Y-83674872D01*
X126811112Y-83693353D01*
X126717712Y-83713206D01*
X126711682Y-83715891D01*
X126711681Y-83715891D01*
X126549278Y-83788197D01*
X126549276Y-83788198D01*
X126543248Y-83790882D01*
X126388747Y-83903134D01*
X126384326Y-83908044D01*
X126384325Y-83908045D01*
X126327982Y-83970621D01*
X126260960Y-84045056D01*
X126165473Y-84210444D01*
X126106458Y-84392072D01*
X126086496Y-84582000D01*
X126106458Y-84771928D01*
X126165473Y-84953556D01*
X126168776Y-84959278D01*
X126168777Y-84959279D01*
X126189567Y-84995288D01*
X126260960Y-85118944D01*
X126265378Y-85123851D01*
X126265379Y-85123852D01*
X126353486Y-85221705D01*
X126388747Y-85260866D01*
X126452045Y-85306855D01*
X126522951Y-85358371D01*
X126543248Y-85373118D01*
X126549276Y-85375802D01*
X126549278Y-85375803D01*
X126681326Y-85434594D01*
X126717712Y-85450794D01*
X126793141Y-85466827D01*
X126898056Y-85489128D01*
X126898061Y-85489128D01*
X126904513Y-85490500D01*
X127095487Y-85490500D01*
X127101939Y-85489128D01*
X127101944Y-85489128D01*
X127206859Y-85466827D01*
X127282288Y-85450794D01*
X127318674Y-85434594D01*
X127450722Y-85375803D01*
X127450724Y-85375802D01*
X127456752Y-85373118D01*
X127477050Y-85358371D01*
X127589671Y-85276546D01*
X127611253Y-85260866D01*
X127637074Y-85232189D01*
X127697520Y-85194950D01*
X127730710Y-85190500D01*
X128089864Y-85190500D01*
X128106307Y-85191578D01*
X128138000Y-85195750D01*
X128146189Y-85194672D01*
X128177874Y-85190501D01*
X128177884Y-85190500D01*
X128177885Y-85190500D01*
X128178554Y-85190412D01*
X128277457Y-85177391D01*
X128288664Y-85175916D01*
X128288666Y-85175915D01*
X128296851Y-85174838D01*
X128444876Y-85113524D01*
X128457394Y-85103919D01*
X128540072Y-85040477D01*
X128540075Y-85040474D01*
X128571987Y-85015987D01*
X128579472Y-85006233D01*
X128591452Y-84990621D01*
X128602319Y-84978230D01*
X128691405Y-84889144D01*
X128753717Y-84855118D01*
X128824532Y-84860183D01*
X128881368Y-84902730D01*
X128906179Y-84969250D01*
X128906500Y-84978239D01*
X128906500Y-87043233D01*
X128905973Y-87054416D01*
X128904298Y-87061909D01*
X128904547Y-87069835D01*
X128904547Y-87069836D01*
X128906438Y-87129986D01*
X128906500Y-87133945D01*
X128906500Y-87161856D01*
X128906997Y-87165790D01*
X128906997Y-87165791D01*
X128907005Y-87165856D01*
X128907938Y-87177693D01*
X128909327Y-87221889D01*
X128914978Y-87241339D01*
X128918987Y-87260700D01*
X128921526Y-87280797D01*
X128924445Y-87288168D01*
X128924445Y-87288170D01*
X128937804Y-87321912D01*
X128941649Y-87333142D01*
X128951159Y-87365877D01*
X128953982Y-87375593D01*
X128958015Y-87382412D01*
X128958017Y-87382417D01*
X128964293Y-87393028D01*
X128972988Y-87410776D01*
X128980448Y-87429617D01*
X128985110Y-87436033D01*
X128985110Y-87436034D01*
X129006436Y-87465387D01*
X129012952Y-87475307D01*
X129028093Y-87500908D01*
X129035458Y-87513362D01*
X129049779Y-87527683D01*
X129062619Y-87542716D01*
X129074528Y-87559107D01*
X129080634Y-87564158D01*
X129108605Y-87587298D01*
X129117384Y-87595288D01*
X133668872Y-92146776D01*
X133702897Y-92209087D01*
X133697832Y-92279902D01*
X133655285Y-92336738D01*
X133588765Y-92361549D01*
X133543694Y-92353888D01*
X133543029Y-92356178D01*
X133535419Y-92353967D01*
X133528145Y-92350819D01*
X133520322Y-92349580D01*
X133520312Y-92349577D01*
X133484476Y-92343901D01*
X133472856Y-92341495D01*
X133437711Y-92332472D01*
X133437710Y-92332472D01*
X133430030Y-92330500D01*
X133409776Y-92330500D01*
X133390065Y-92328949D01*
X133377886Y-92327020D01*
X133370057Y-92325780D01*
X133362165Y-92326526D01*
X133326039Y-92329941D01*
X133314181Y-92330500D01*
X130756200Y-92330500D01*
X130688079Y-92310498D01*
X130668853Y-92294157D01*
X130668580Y-92294460D01*
X130663668Y-92290037D01*
X130659253Y-92285134D01*
X130504752Y-92172882D01*
X130498724Y-92170198D01*
X130498722Y-92170197D01*
X130336319Y-92097891D01*
X130336318Y-92097891D01*
X130330288Y-92095206D01*
X130230513Y-92073998D01*
X130149944Y-92056872D01*
X130149939Y-92056872D01*
X130143487Y-92055500D01*
X129952513Y-92055500D01*
X129946061Y-92056872D01*
X129946056Y-92056872D01*
X129865487Y-92073998D01*
X129765712Y-92095206D01*
X129759682Y-92097891D01*
X129759681Y-92097891D01*
X129597278Y-92170197D01*
X129597276Y-92170198D01*
X129591248Y-92172882D01*
X129436747Y-92285134D01*
X129432326Y-92290044D01*
X129432325Y-92290045D01*
X129384669Y-92342973D01*
X129308960Y-92427056D01*
X129213473Y-92592444D01*
X129154458Y-92774072D01*
X129153768Y-92780633D01*
X129153768Y-92780635D01*
X129143692Y-92876502D01*
X129134496Y-92964000D01*
X129135186Y-92970565D01*
X129150741Y-93118559D01*
X129154458Y-93153928D01*
X129213473Y-93335556D01*
X129216776Y-93341278D01*
X129216777Y-93341279D01*
X129260783Y-93417500D01*
X129277521Y-93486496D01*
X129254300Y-93553588D01*
X129198493Y-93597475D01*
X129151664Y-93606500D01*
X127604500Y-93606500D01*
X127536379Y-93586498D01*
X127489886Y-93532842D01*
X127478500Y-93480500D01*
X127478500Y-93116866D01*
X127471745Y-93054684D01*
X127474174Y-93054420D01*
X127474174Y-93025580D01*
X127471745Y-93025316D01*
X127478131Y-92966531D01*
X127478500Y-92963134D01*
X127478500Y-92316866D01*
X127471745Y-92254684D01*
X127474174Y-92254420D01*
X127474174Y-92225580D01*
X127471745Y-92225316D01*
X127478131Y-92166531D01*
X127478500Y-92163134D01*
X127478500Y-91516866D01*
X127471745Y-91454684D01*
X127473884Y-91454452D01*
X127473834Y-91425488D01*
X127471252Y-91425207D01*
X127477631Y-91366486D01*
X127478000Y-91359672D01*
X127478000Y-91312115D01*
X127473525Y-91296876D01*
X127472135Y-91295671D01*
X127451217Y-91291121D01*
X127451482Y-91289903D01*
X127397313Y-91273998D01*
X127364608Y-91243565D01*
X127338643Y-91208920D01*
X127338642Y-91208919D01*
X127333261Y-91201739D01*
X127251985Y-91140826D01*
X127209470Y-91083967D01*
X127204444Y-91013148D01*
X127238504Y-90950855D01*
X127251985Y-90939174D01*
X127326081Y-90883642D01*
X127333261Y-90878261D01*
X127364608Y-90836435D01*
X127421467Y-90793920D01*
X127451074Y-90788587D01*
X127475123Y-90781525D01*
X127476328Y-90780135D01*
X127477999Y-90772452D01*
X127477999Y-90720331D01*
X127477629Y-90713510D01*
X127471252Y-90654793D01*
X127473998Y-90654495D01*
X127473940Y-90625554D01*
X127471745Y-90625316D01*
X127478131Y-90566531D01*
X127478500Y-90563134D01*
X127478500Y-89916866D01*
X127471745Y-89854684D01*
X127474174Y-89854420D01*
X127474174Y-89825580D01*
X127471745Y-89825316D01*
X127478131Y-89766531D01*
X127478500Y-89763134D01*
X127478500Y-89116866D01*
X127471745Y-89054684D01*
X127474174Y-89054420D01*
X127474174Y-89025580D01*
X127471745Y-89025316D01*
X127478131Y-88966531D01*
X127478500Y-88963134D01*
X127478500Y-88316866D01*
X127471745Y-88254684D01*
X127420615Y-88118295D01*
X127333261Y-88001739D01*
X127216705Y-87914385D01*
X127080316Y-87863255D01*
X127018134Y-87856500D01*
X125629500Y-87856500D01*
X125561379Y-87836498D01*
X125514886Y-87782842D01*
X125503500Y-87730500D01*
X125503500Y-86341866D01*
X125496745Y-86279684D01*
X125445615Y-86143295D01*
X125358261Y-86026739D01*
X125241705Y-85939385D01*
X125105316Y-85888255D01*
X125043134Y-85881500D01*
X124679500Y-85881500D01*
X124611379Y-85861498D01*
X124564886Y-85807842D01*
X124553500Y-85755500D01*
X124553500Y-83544594D01*
X124573502Y-83476473D01*
X124590405Y-83455499D01*
X126940499Y-81105405D01*
X127002811Y-81071379D01*
X127029594Y-81068500D01*
X127085487Y-81068500D01*
X127091939Y-81067128D01*
X127091944Y-81067128D01*
X127209373Y-81042167D01*
X127272288Y-81028794D01*
X127324821Y-81005405D01*
X127440722Y-80953803D01*
X127440724Y-80953802D01*
X127446752Y-80951118D01*
X127452378Y-80947031D01*
X127573856Y-80858771D01*
X127601253Y-80838866D01*
X127625942Y-80811446D01*
X127724621Y-80701852D01*
X127724622Y-80701851D01*
X127729040Y-80696944D01*
X127799485Y-80574930D01*
X127821223Y-80537279D01*
X127821224Y-80537278D01*
X127824527Y-80531556D01*
X127883542Y-80349928D01*
X127885789Y-80328554D01*
X127902814Y-80166565D01*
X127903504Y-80160000D01*
X127897973Y-80107373D01*
X127884232Y-79976635D01*
X127884232Y-79976633D01*
X127883542Y-79970072D01*
X127824527Y-79788444D01*
X127817160Y-79775683D01*
X127760541Y-79677617D01*
X127729040Y-79623056D01*
X127693701Y-79583808D01*
X127662985Y-79519802D01*
X127671750Y-79449349D01*
X127717213Y-79394818D01*
X127787339Y-79373500D01*
X128495405Y-79373500D01*
X128563526Y-79393502D01*
G37*
G04 #@! TD.AperFunction*
G04 #@! TA.AperFunction,Conductor*
G36*
X110620399Y-72787648D02*
G01*
X110660389Y-72846311D01*
X110666500Y-72885076D01*
X110666500Y-79291233D01*
X110665973Y-79302416D01*
X110664298Y-79309909D01*
X110664547Y-79317835D01*
X110664547Y-79317836D01*
X110666438Y-79377986D01*
X110666500Y-79381945D01*
X110666500Y-79409856D01*
X110666997Y-79413790D01*
X110666997Y-79413791D01*
X110667005Y-79413856D01*
X110667938Y-79425693D01*
X110669327Y-79469889D01*
X110674978Y-79489339D01*
X110678987Y-79508700D01*
X110681526Y-79528797D01*
X110684445Y-79536168D01*
X110684445Y-79536170D01*
X110697804Y-79569912D01*
X110701649Y-79581142D01*
X110703699Y-79588197D01*
X110713982Y-79623593D01*
X110718015Y-79630412D01*
X110718017Y-79630417D01*
X110724293Y-79641028D01*
X110732988Y-79658776D01*
X110740448Y-79677617D01*
X110745110Y-79684033D01*
X110745110Y-79684034D01*
X110766436Y-79713387D01*
X110772952Y-79723307D01*
X110778333Y-79732405D01*
X110795458Y-79761362D01*
X110809779Y-79775683D01*
X110822619Y-79790716D01*
X110834528Y-79807107D01*
X110840634Y-79812158D01*
X110868605Y-79835298D01*
X110877384Y-79843288D01*
X118299595Y-87265500D01*
X118333621Y-87327812D01*
X118336500Y-87354595D01*
X118336500Y-87730500D01*
X118316498Y-87798621D01*
X118262842Y-87845114D01*
X118210500Y-87856500D01*
X117834594Y-87856500D01*
X117766473Y-87836498D01*
X117745499Y-87819595D01*
X109970405Y-80044500D01*
X109936379Y-79982188D01*
X109933500Y-79955405D01*
X109933500Y-73047305D01*
X109953502Y-72979184D01*
X110007158Y-72932691D01*
X110043489Y-72922326D01*
X110108290Y-72914025D01*
X110108294Y-72914024D01*
X110113416Y-72913368D01*
X110118366Y-72911883D01*
X110322429Y-72850661D01*
X110322434Y-72850659D01*
X110327384Y-72849174D01*
X110485069Y-72771925D01*
X110555041Y-72759918D01*
X110620399Y-72787648D01*
G37*
G04 #@! TD.AperFunction*
G04 #@! TA.AperFunction,Conductor*
G36*
X112084605Y-72908340D02*
G01*
X112208597Y-72933567D01*
X112213772Y-72933757D01*
X112213774Y-72933757D01*
X112426673Y-72941564D01*
X112426677Y-72941564D01*
X112431837Y-72941753D01*
X112436957Y-72941097D01*
X112436959Y-72941097D01*
X112513006Y-72931355D01*
X112534894Y-72928551D01*
X112605004Y-72939735D01*
X112657938Y-72987049D01*
X112676889Y-73055469D01*
X112672946Y-73084863D01*
X112666500Y-73109970D01*
X112666500Y-73130224D01*
X112664949Y-73149934D01*
X112661780Y-73169943D01*
X112662526Y-73177835D01*
X112665941Y-73213961D01*
X112666500Y-73225819D01*
X112666500Y-77661233D01*
X112665973Y-77672416D01*
X112664298Y-77679909D01*
X112664547Y-77687835D01*
X112664547Y-77687836D01*
X112666438Y-77747986D01*
X112666500Y-77751945D01*
X112666500Y-77779856D01*
X112666997Y-77783790D01*
X112666997Y-77783791D01*
X112667005Y-77783856D01*
X112667938Y-77795693D01*
X112669327Y-77839889D01*
X112674978Y-77859339D01*
X112678987Y-77878700D01*
X112681526Y-77898797D01*
X112684445Y-77906168D01*
X112684445Y-77906170D01*
X112697804Y-77939912D01*
X112701649Y-77951142D01*
X112713982Y-77993593D01*
X112718015Y-78000412D01*
X112718017Y-78000417D01*
X112724293Y-78011028D01*
X112732988Y-78028776D01*
X112740448Y-78047617D01*
X112745110Y-78054033D01*
X112745110Y-78054034D01*
X112766436Y-78083387D01*
X112772952Y-78093307D01*
X112788680Y-78119901D01*
X112795458Y-78131362D01*
X112809779Y-78145683D01*
X112822619Y-78160716D01*
X112834528Y-78177107D01*
X112865587Y-78202801D01*
X112868605Y-78205298D01*
X112877384Y-78213288D01*
X119249595Y-84585500D01*
X119283621Y-84647812D01*
X119286500Y-84674595D01*
X119286500Y-85755500D01*
X119266498Y-85823621D01*
X119212842Y-85870114D01*
X119160500Y-85881500D01*
X118796866Y-85881500D01*
X118793476Y-85881868D01*
X118793462Y-85881869D01*
X118776183Y-85883746D01*
X118706300Y-85871216D01*
X118673483Y-85847578D01*
X111970405Y-79144500D01*
X111936379Y-79082188D01*
X111933500Y-79055405D01*
X111933500Y-73031814D01*
X111953502Y-72963693D01*
X112007158Y-72917200D01*
X112077432Y-72907096D01*
X112084605Y-72908340D01*
G37*
G04 #@! TD.AperFunction*
G04 #@! TA.AperFunction,Conductor*
G36*
X126260782Y-79393502D02*
G01*
X126307275Y-79447158D01*
X126317379Y-79517432D01*
X126286299Y-79583808D01*
X126250960Y-79623056D01*
X126219459Y-79677617D01*
X126162841Y-79775683D01*
X126155473Y-79788444D01*
X126096458Y-79970072D01*
X126095768Y-79976633D01*
X126095768Y-79976635D01*
X126079093Y-80135293D01*
X126052080Y-80200950D01*
X126042878Y-80211218D01*
X125429351Y-80824745D01*
X125367039Y-80858771D01*
X125296224Y-80853706D01*
X125239388Y-80811159D01*
X125231137Y-80798650D01*
X125202341Y-80748774D01*
X125199040Y-80743056D01*
X125171220Y-80712158D01*
X125075675Y-80606045D01*
X125075674Y-80606044D01*
X125071253Y-80601134D01*
X124916752Y-80488882D01*
X124910724Y-80486198D01*
X124910722Y-80486197D01*
X124748319Y-80413891D01*
X124748318Y-80413891D01*
X124742288Y-80411206D01*
X124648888Y-80391353D01*
X124561944Y-80372872D01*
X124561939Y-80372872D01*
X124555487Y-80371500D01*
X124364513Y-80371500D01*
X124358061Y-80372872D01*
X124358056Y-80372872D01*
X124271112Y-80391353D01*
X124177712Y-80411206D01*
X124171682Y-80413891D01*
X124171681Y-80413891D01*
X124009278Y-80486197D01*
X124009276Y-80486198D01*
X124003248Y-80488882D01*
X123848747Y-80601134D01*
X123844326Y-80606044D01*
X123844325Y-80606045D01*
X123748781Y-80712158D01*
X123720960Y-80743056D01*
X123625473Y-80908444D01*
X123566458Y-81090072D01*
X123565768Y-81096633D01*
X123565768Y-81096635D01*
X123549093Y-81255292D01*
X123522080Y-81320949D01*
X123512878Y-81331217D01*
X122727747Y-82116348D01*
X122719461Y-82123888D01*
X122712982Y-82128000D01*
X122707557Y-82133777D01*
X122666357Y-82177651D01*
X122663602Y-82180493D01*
X122643865Y-82200230D01*
X122641385Y-82203427D01*
X122633682Y-82212447D01*
X122603414Y-82244679D01*
X122599595Y-82251625D01*
X122599593Y-82251628D01*
X122593652Y-82262434D01*
X122582801Y-82278953D01*
X122570386Y-82294959D01*
X122567241Y-82302228D01*
X122567238Y-82302232D01*
X122552826Y-82335537D01*
X122547609Y-82346187D01*
X122526305Y-82384940D01*
X122524334Y-82392615D01*
X122524334Y-82392616D01*
X122521267Y-82404562D01*
X122514863Y-82423266D01*
X122506819Y-82441855D01*
X122505580Y-82449678D01*
X122505577Y-82449688D01*
X122499901Y-82485524D01*
X122497495Y-82497144D01*
X122486500Y-82539970D01*
X122486500Y-82560224D01*
X122484949Y-82579934D01*
X122481780Y-82599943D01*
X122482526Y-82607835D01*
X122485941Y-82643961D01*
X122486500Y-82655819D01*
X122486500Y-85755500D01*
X122466498Y-85823621D01*
X122412842Y-85870114D01*
X122360500Y-85881500D01*
X122279500Y-85881500D01*
X122211379Y-85861498D01*
X122164886Y-85807842D01*
X122153500Y-85755500D01*
X122153500Y-81994595D01*
X122173502Y-81926474D01*
X122190405Y-81905500D01*
X122272253Y-81823652D01*
X122280539Y-81816112D01*
X122287018Y-81812000D01*
X122333645Y-81762347D01*
X122336399Y-81759506D01*
X122356135Y-81739770D01*
X122358615Y-81736573D01*
X122366320Y-81727551D01*
X122391159Y-81701100D01*
X122396586Y-81695321D01*
X122400405Y-81688375D01*
X122400407Y-81688372D01*
X122406348Y-81677566D01*
X122417199Y-81661047D01*
X122424758Y-81651301D01*
X122429614Y-81645041D01*
X122432759Y-81637772D01*
X122432762Y-81637768D01*
X122447174Y-81604463D01*
X122452391Y-81593813D01*
X122473695Y-81555060D01*
X122476144Y-81545524D01*
X122478733Y-81535438D01*
X122485137Y-81516734D01*
X122490033Y-81505420D01*
X122490033Y-81505419D01*
X122493181Y-81498145D01*
X122494420Y-81490322D01*
X122494423Y-81490312D01*
X122500099Y-81454476D01*
X122502505Y-81442856D01*
X122511528Y-81407711D01*
X122511528Y-81407710D01*
X122513500Y-81400030D01*
X122513500Y-81379776D01*
X122515051Y-81360065D01*
X122516980Y-81347886D01*
X122518220Y-81340057D01*
X122514059Y-81296038D01*
X122513500Y-81284181D01*
X122513500Y-79959394D01*
X122533502Y-79891273D01*
X122567229Y-79856181D01*
X122719789Y-79749357D01*
X122719792Y-79749355D01*
X122724300Y-79746198D01*
X122886198Y-79584300D01*
X122889357Y-79579789D01*
X122996181Y-79427229D01*
X123051638Y-79382901D01*
X123099394Y-79373500D01*
X126192661Y-79373500D01*
X126260782Y-79393502D01*
G37*
G04 #@! TD.AperFunction*
G04 #@! TA.AperFunction,Conductor*
G36*
X114748597Y-72933567D02*
G01*
X114753771Y-72933757D01*
X114753773Y-72933757D01*
X114821293Y-72936233D01*
X114895649Y-72938959D01*
X114962990Y-72961443D01*
X115007486Y-73016767D01*
X115015008Y-73087364D01*
X114980126Y-73153969D01*
X114907747Y-73226348D01*
X114899461Y-73233888D01*
X114892982Y-73238000D01*
X114887557Y-73243777D01*
X114846357Y-73287651D01*
X114843602Y-73290493D01*
X114823865Y-73310230D01*
X114821385Y-73313427D01*
X114813682Y-73322447D01*
X114783414Y-73354679D01*
X114779595Y-73361625D01*
X114779593Y-73361628D01*
X114773652Y-73372434D01*
X114762801Y-73388953D01*
X114750386Y-73404959D01*
X114747241Y-73412228D01*
X114747238Y-73412232D01*
X114732826Y-73445537D01*
X114727609Y-73456187D01*
X114706305Y-73494940D01*
X114704334Y-73502615D01*
X114704334Y-73502616D01*
X114701267Y-73514562D01*
X114694863Y-73533266D01*
X114686819Y-73551855D01*
X114685580Y-73559678D01*
X114685577Y-73559688D01*
X114679901Y-73595524D01*
X114677495Y-73607144D01*
X114666500Y-73649970D01*
X114666500Y-73670224D01*
X114664949Y-73689934D01*
X114661780Y-73709943D01*
X114662526Y-73717835D01*
X114665941Y-73753961D01*
X114666500Y-73765819D01*
X114666500Y-77121233D01*
X114665973Y-77132416D01*
X114664298Y-77139909D01*
X114664547Y-77147835D01*
X114664547Y-77147836D01*
X114666438Y-77207986D01*
X114666500Y-77211945D01*
X114666500Y-77239856D01*
X114666997Y-77243790D01*
X114666997Y-77243791D01*
X114667005Y-77243856D01*
X114667938Y-77255693D01*
X114669327Y-77299889D01*
X114674978Y-77319339D01*
X114678987Y-77338700D01*
X114681526Y-77358797D01*
X114684445Y-77366168D01*
X114684445Y-77366170D01*
X114697804Y-77399912D01*
X114701649Y-77411142D01*
X114706251Y-77426981D01*
X114713982Y-77453593D01*
X114718015Y-77460412D01*
X114718017Y-77460417D01*
X114724293Y-77471028D01*
X114732988Y-77488776D01*
X114740448Y-77507617D01*
X114745110Y-77514033D01*
X114745110Y-77514034D01*
X114766436Y-77543387D01*
X114772952Y-77553307D01*
X114795458Y-77591362D01*
X114809779Y-77605683D01*
X114822619Y-77620716D01*
X114834528Y-77637107D01*
X114840634Y-77642158D01*
X114868605Y-77665298D01*
X114877384Y-77673288D01*
X120049595Y-82845499D01*
X120083621Y-82907811D01*
X120086500Y-82934594D01*
X120086500Y-83326406D01*
X120066498Y-83394527D01*
X120012842Y-83441020D01*
X119942568Y-83451124D01*
X119877988Y-83421630D01*
X119871405Y-83415501D01*
X117005468Y-80549563D01*
X113970405Y-77514500D01*
X113936379Y-77452188D01*
X113933500Y-77425405D01*
X113933500Y-73504594D01*
X113953502Y-73436473D01*
X113970405Y-73415499D01*
X114454549Y-72931355D01*
X114516861Y-72897329D01*
X114568762Y-72896979D01*
X114748597Y-72933567D01*
G37*
G04 #@! TD.AperFunction*
G04 #@! TA.AperFunction,Conductor*
G36*
X120707890Y-79353934D02*
G01*
X120739118Y-79389973D01*
X120740154Y-79391767D01*
X120742477Y-79396749D01*
X120873802Y-79584300D01*
X121035700Y-79746198D01*
X121040208Y-79749355D01*
X121040211Y-79749357D01*
X121192771Y-79856181D01*
X121237099Y-79911638D01*
X121246500Y-79959394D01*
X121246500Y-81005405D01*
X121226498Y-81073526D01*
X121209595Y-81094500D01*
X121127747Y-81176348D01*
X121119461Y-81183888D01*
X121112982Y-81188000D01*
X121107557Y-81193777D01*
X121066356Y-81237652D01*
X121063601Y-81240494D01*
X121043865Y-81260230D01*
X121041385Y-81263427D01*
X121033682Y-81272447D01*
X121003414Y-81304679D01*
X120999595Y-81311625D01*
X120999593Y-81311628D01*
X120993652Y-81322434D01*
X120982801Y-81338953D01*
X120970386Y-81354959D01*
X120967241Y-81362228D01*
X120967238Y-81362232D01*
X120952826Y-81395537D01*
X120947609Y-81406187D01*
X120926305Y-81444940D01*
X120924334Y-81452615D01*
X120924334Y-81452616D01*
X120921267Y-81464562D01*
X120914863Y-81483266D01*
X120911666Y-81490655D01*
X120906819Y-81501855D01*
X120905580Y-81509678D01*
X120905577Y-81509688D01*
X120899901Y-81545524D01*
X120897495Y-81557144D01*
X120886500Y-81599970D01*
X120886500Y-81604927D01*
X120858645Y-81668796D01*
X120799586Y-81708197D01*
X120728600Y-81709414D01*
X120672926Y-81677022D01*
X119262493Y-80266589D01*
X119228467Y-80204277D01*
X119233532Y-80133462D01*
X119276079Y-80076626D01*
X119342599Y-80051815D01*
X119362570Y-80051974D01*
X119374514Y-80053019D01*
X119374525Y-80053019D01*
X119380000Y-80053498D01*
X119608087Y-80033543D01*
X119613400Y-80032119D01*
X119613402Y-80032119D01*
X119823933Y-79975707D01*
X119823935Y-79975706D01*
X119829243Y-79974284D01*
X119861175Y-79959394D01*
X120031762Y-79879849D01*
X120031767Y-79879846D01*
X120036749Y-79877523D01*
X120154991Y-79794729D01*
X120219789Y-79749357D01*
X120219792Y-79749355D01*
X120224300Y-79746198D01*
X120386198Y-79584300D01*
X120517523Y-79396749D01*
X120519846Y-79391767D01*
X120520882Y-79389973D01*
X120572266Y-79340981D01*
X120641979Y-79327546D01*
X120707890Y-79353934D01*
G37*
G04 #@! TD.AperFunction*
G04 #@! TA.AperFunction,Conductor*
G36*
X117288597Y-72933567D02*
G01*
X117293771Y-72933757D01*
X117293773Y-72933757D01*
X117361293Y-72936233D01*
X117435649Y-72938959D01*
X117502990Y-72961443D01*
X117547486Y-73016767D01*
X117555008Y-73087364D01*
X117520126Y-73153969D01*
X116907747Y-73766348D01*
X116899461Y-73773888D01*
X116892982Y-73778000D01*
X116887557Y-73783777D01*
X116846357Y-73827651D01*
X116843602Y-73830493D01*
X116823865Y-73850230D01*
X116821385Y-73853427D01*
X116813682Y-73862447D01*
X116783414Y-73894679D01*
X116779595Y-73901625D01*
X116779593Y-73901628D01*
X116773652Y-73912434D01*
X116762801Y-73928953D01*
X116750386Y-73944959D01*
X116747241Y-73952228D01*
X116747238Y-73952232D01*
X116732826Y-73985537D01*
X116727609Y-73996187D01*
X116706305Y-74034940D01*
X116704334Y-74042615D01*
X116704334Y-74042616D01*
X116701267Y-74054562D01*
X116694863Y-74073266D01*
X116686819Y-74091855D01*
X116685580Y-74099678D01*
X116685577Y-74099688D01*
X116679901Y-74135524D01*
X116677495Y-74147144D01*
X116666500Y-74189970D01*
X116666500Y-74210224D01*
X116664949Y-74229934D01*
X116661780Y-74249943D01*
X116662526Y-74257835D01*
X116665941Y-74293961D01*
X116666500Y-74305819D01*
X116666500Y-76581233D01*
X116665973Y-76592416D01*
X116664298Y-76599909D01*
X116664547Y-76607835D01*
X116664547Y-76607836D01*
X116666438Y-76667986D01*
X116666500Y-76671945D01*
X116666500Y-76699856D01*
X116666997Y-76703790D01*
X116666997Y-76703791D01*
X116667005Y-76703856D01*
X116667938Y-76715693D01*
X116669327Y-76759889D01*
X116674978Y-76779339D01*
X116678987Y-76798700D01*
X116681526Y-76818797D01*
X116684445Y-76826168D01*
X116684445Y-76826170D01*
X116697804Y-76859912D01*
X116701649Y-76871142D01*
X116713982Y-76913593D01*
X116718015Y-76920412D01*
X116718017Y-76920417D01*
X116724293Y-76931028D01*
X116732988Y-76948776D01*
X116740448Y-76967617D01*
X116745110Y-76974033D01*
X116745110Y-76974034D01*
X116766436Y-77003387D01*
X116772952Y-77013307D01*
X116795458Y-77051362D01*
X116809779Y-77065683D01*
X116822619Y-77080716D01*
X116834528Y-77097107D01*
X116840634Y-77102158D01*
X116868605Y-77125298D01*
X116877384Y-77133288D01*
X118070848Y-78326752D01*
X118104874Y-78389064D01*
X118103459Y-78448459D01*
X118087882Y-78506591D01*
X118087880Y-78506602D01*
X118086457Y-78511913D01*
X118066502Y-78740000D01*
X118066981Y-78745475D01*
X118066981Y-78745485D01*
X118068026Y-78757428D01*
X118054038Y-78827033D01*
X118004639Y-78878026D01*
X117935514Y-78894217D01*
X117868608Y-78870465D01*
X117853411Y-78857506D01*
X115970405Y-76974500D01*
X115936379Y-76912188D01*
X115933500Y-76885405D01*
X115933500Y-74044594D01*
X115953502Y-73976473D01*
X115970405Y-73955499D01*
X116994549Y-72931355D01*
X117056861Y-72897329D01*
X117108762Y-72896979D01*
X117288597Y-72933567D01*
G37*
G04 #@! TD.AperFunction*
M02*
