M48
; DRILL file {KiCad (6.0.11)} date Sun Apr  2 15:36:54 2023
; FORMAT={-:-/ absolute / metric / decimal}
; #@! TF.CreationDate,2023-04-02T15:36:54-07:00
; #@! TF.GenerationSoftware,Kicad,Pcbnew,(6.0.11)
; #@! TF.FileFunction,Plated,1,2,PTH
FMAT,2
METRIC
; #@! TA.AperFunction,Plated,PTH,ViaDrill
T1C0.400
; #@! TA.AperFunction,Plated,PTH,ComponentDrill
T2C0.700
; #@! TA.AperFunction,Plated,PTH,ComponentDrill
T3C0.800
; #@! TA.AperFunction,Plated,PTH,ComponentDrill
T4C0.900
; #@! TA.AperFunction,Plated,PTH,ComponentDrill
T5C1.000
; #@! TA.AperFunction,Plated,PTH,ComponentDrill
T6C1.100
%
G90
G05
T1
X109.22Y-91.948
X110.24Y-76.73
X111.252Y-89.662
X113.99Y-90.1
X114.53Y-93.42
X115.29Y-81.51
X115.33Y-96.79
X115.57Y-89.916
X115.8Y-88.16
X115.9Y-79.07
X115.93Y-85.15
X116.4Y-76.59
X120.65Y-80.772
X121.82Y-89.74
X122.428Y-82.296
X124.46Y-81.28
X126.99Y-80.16
X127.0Y-84.582
X128.524Y-97.79
X130.048Y-92.964
X131.572Y-96.774
X131.826Y-91.186
X132.842Y-101.6
T2
X110.82Y-86.36
X112.72Y-86.36
X129.54Y-81.28
X129.54Y-83.18
T3
X106.68Y-96.72
X106.68Y-101.6
X112.56Y-94.02
X112.56Y-96.52
X112.56Y-99.1
X112.56Y-101.6
X119.38Y-78.74
X121.88Y-78.74
T4
X104.14Y-86.36
X106.68Y-86.36
T5
X104.75Y-71.58
X107.29Y-71.58
X109.83Y-71.58
X112.37Y-71.58
X114.91Y-71.58
X117.45Y-71.58
X119.99Y-71.58
X122.53Y-71.58
X125.07Y-71.58
X127.61Y-71.58
X137.19Y-96.52
X137.19Y-99.06
X137.19Y-101.6
X139.73Y-96.52
X139.73Y-99.06
X139.73Y-101.6
T6
X134.91Y-80.57
X134.91Y-87.07
X139.41Y-80.57
X139.41Y-87.07
T0
M30
