%TF.GenerationSoftware,KiCad,Pcbnew,(6.0.11)*%
%TF.CreationDate,2023-04-02T15:37:20-07:00*%
%TF.ProjectId,M_MUC,4d5f4d55-432e-46b6-9963-61645f706362,rev?*%
%TF.SameCoordinates,Original*%
%TF.FileFunction,Drillmap*%
%TF.FilePolarity,Positive*%
%FSLAX45Y45*%
G04 Gerber Fmt 4.5, Leading zero omitted, Abs format (unit mm)*
G04 Created by KiCad (PCBNEW (6.0.11)) date 2023-04-02 15:37:20*
%MOMM*%
%LPD*%
G01*
G04 APERTURE LIST*
%ADD10C,0.100000*%
%ADD11C,0.200000*%
%ADD12C,0.040000*%
%ADD13C,0.070000*%
%ADD14C,0.080000*%
%ADD15C,0.090000*%
%ADD16C,0.110000*%
G04 APERTURE END LIST*
D10*
X10160000Y-6858000D02*
X14478000Y-6858000D01*
X14478000Y-6858000D02*
X14478000Y-10668000D01*
X14478000Y-10668000D02*
X10160000Y-10668000D01*
X10160000Y-10668000D02*
X10160000Y-6858000D01*
D11*
D12*
X10902000Y-9174800D02*
X10942000Y-9214800D01*
X10942000Y-9174800D02*
X10902000Y-9214800D01*
X11004000Y-7653000D02*
X11044000Y-7693000D01*
X11044000Y-7653000D02*
X11004000Y-7693000D01*
X11105200Y-8946200D02*
X11145200Y-8986200D01*
X11145200Y-8946200D02*
X11105200Y-8986200D01*
X11379000Y-8990000D02*
X11419000Y-9030000D01*
X11419000Y-8990000D02*
X11379000Y-9030000D01*
X11433000Y-9322000D02*
X11473000Y-9362000D01*
X11473000Y-9322000D02*
X11433000Y-9362000D01*
X11509000Y-8131000D02*
X11549000Y-8171000D01*
X11549000Y-8131000D02*
X11509000Y-8171000D01*
X11513000Y-9659000D02*
X11553000Y-9699000D01*
X11553000Y-9659000D02*
X11513000Y-9699000D01*
X11537000Y-8971600D02*
X11577000Y-9011600D01*
X11577000Y-8971600D02*
X11537000Y-9011600D01*
X11560000Y-8796000D02*
X11600000Y-8836000D01*
X11600000Y-8796000D02*
X11560000Y-8836000D01*
X11570000Y-7887000D02*
X11610000Y-7927000D01*
X11610000Y-7887000D02*
X11570000Y-7927000D01*
X11573000Y-8495000D02*
X11613000Y-8535000D01*
X11613000Y-8495000D02*
X11573000Y-8535000D01*
X11620000Y-7639000D02*
X11660000Y-7679000D01*
X11660000Y-7639000D02*
X11620000Y-7679000D01*
X12045000Y-8057200D02*
X12085000Y-8097200D01*
X12085000Y-8057200D02*
X12045000Y-8097200D01*
X12162000Y-8954000D02*
X12202000Y-8994000D01*
X12202000Y-8954000D02*
X12162000Y-8994000D01*
X12222800Y-8209600D02*
X12262800Y-8249600D01*
X12262800Y-8209600D02*
X12222800Y-8249600D01*
X12426000Y-8108000D02*
X12466000Y-8148000D01*
X12466000Y-8108000D02*
X12426000Y-8148000D01*
X12679000Y-7996000D02*
X12719000Y-8036000D01*
X12719000Y-7996000D02*
X12679000Y-8036000D01*
X12680000Y-8438200D02*
X12720000Y-8478200D01*
X12720000Y-8438200D02*
X12680000Y-8478200D01*
X12832400Y-9759000D02*
X12872400Y-9799000D01*
X12872400Y-9759000D02*
X12832400Y-9799000D01*
X12984800Y-9276400D02*
X13024800Y-9316400D01*
X13024800Y-9276400D02*
X12984800Y-9316400D01*
X13137200Y-9657400D02*
X13177200Y-9697400D01*
X13177200Y-9657400D02*
X13137200Y-9697400D01*
X13162600Y-9098600D02*
X13202600Y-9138600D01*
X13202600Y-9098600D02*
X13162600Y-9138600D01*
X13264200Y-10140000D02*
X13304200Y-10180000D01*
X13304200Y-10140000D02*
X13264200Y-10180000D01*
D13*
X11117000Y-8636000D02*
G75*
G03*
X11117000Y-8636000I-35000J0D01*
G01*
X11307000Y-8636000D02*
G75*
G03*
X11307000Y-8636000I-35000J0D01*
G01*
X12989000Y-8128000D02*
G75*
G03*
X12989000Y-8128000I-35000J0D01*
G01*
X12989000Y-8318000D02*
G75*
G03*
X12989000Y-8318000I-35000J0D01*
G01*
D14*
X10668000Y-9632000D02*
X10668000Y-9712000D01*
X10628000Y-9672000D02*
X10708000Y-9672000D01*
X10668000Y-10120000D02*
X10668000Y-10200000D01*
X10628000Y-10160000D02*
X10708000Y-10160000D01*
X11256000Y-9362000D02*
X11256000Y-9442000D01*
X11216000Y-9402000D02*
X11296000Y-9402000D01*
X11256000Y-9612000D02*
X11256000Y-9692000D01*
X11216000Y-9652000D02*
X11296000Y-9652000D01*
X11256000Y-9870000D02*
X11256000Y-9950000D01*
X11216000Y-9910000D02*
X11296000Y-9910000D01*
X11256000Y-10120000D02*
X11256000Y-10200000D01*
X11216000Y-10160000D02*
X11296000Y-10160000D01*
X11938000Y-7834000D02*
X11938000Y-7914000D01*
X11898000Y-7874000D02*
X11978000Y-7874000D01*
X12188000Y-7834000D02*
X12188000Y-7914000D01*
X12148000Y-7874000D02*
X12228000Y-7874000D01*
D15*
X10445820Y-8667820D02*
X10445820Y-8604180D01*
X10382180Y-8604180D01*
X10382180Y-8667820D01*
X10445820Y-8667820D01*
X10699820Y-8667820D02*
X10699820Y-8604180D01*
X10636180Y-8604180D01*
X10636180Y-8667820D01*
X10699820Y-8667820D01*
D10*
X10475000Y-7208000D02*
X10525000Y-7158000D01*
X10475000Y-7108000D01*
X10425000Y-7158000D01*
X10475000Y-7208000D01*
X10729000Y-7208000D02*
X10779000Y-7158000D01*
X10729000Y-7108000D01*
X10679000Y-7158000D01*
X10729000Y-7208000D01*
X10983000Y-7208000D02*
X11033000Y-7158000D01*
X10983000Y-7108000D01*
X10933000Y-7158000D01*
X10983000Y-7208000D01*
X11237000Y-7208000D02*
X11287000Y-7158000D01*
X11237000Y-7108000D01*
X11187000Y-7158000D01*
X11237000Y-7208000D01*
X11491000Y-7208000D02*
X11541000Y-7158000D01*
X11491000Y-7108000D01*
X11441000Y-7158000D01*
X11491000Y-7208000D01*
X11745000Y-7208000D02*
X11795000Y-7158000D01*
X11745000Y-7108000D01*
X11695000Y-7158000D01*
X11745000Y-7208000D01*
X11999000Y-7208000D02*
X12049000Y-7158000D01*
X11999000Y-7108000D01*
X11949000Y-7158000D01*
X11999000Y-7208000D01*
X12253000Y-7208000D02*
X12303000Y-7158000D01*
X12253000Y-7108000D01*
X12203000Y-7158000D01*
X12253000Y-7208000D01*
X12507000Y-7208000D02*
X12557000Y-7158000D01*
X12507000Y-7108000D01*
X12457000Y-7158000D01*
X12507000Y-7208000D01*
X12761000Y-7208000D02*
X12811000Y-7158000D01*
X12761000Y-7108000D01*
X12711000Y-7158000D01*
X12761000Y-7208000D01*
X13719000Y-9702000D02*
X13769000Y-9652000D01*
X13719000Y-9602000D01*
X13669000Y-9652000D01*
X13719000Y-9702000D01*
X13719000Y-9956000D02*
X13769000Y-9906000D01*
X13719000Y-9856000D01*
X13669000Y-9906000D01*
X13719000Y-9956000D01*
X13719000Y-10210000D02*
X13769000Y-10160000D01*
X13719000Y-10110000D01*
X13669000Y-10160000D01*
X13719000Y-10210000D01*
X13973000Y-9702000D02*
X14023000Y-9652000D01*
X13973000Y-9602000D01*
X13923000Y-9652000D01*
X13973000Y-9702000D01*
X13973000Y-9956000D02*
X14023000Y-9906000D01*
X13973000Y-9856000D01*
X13923000Y-9906000D01*
X13973000Y-9956000D01*
X13973000Y-10210000D02*
X14023000Y-10160000D01*
X13973000Y-10110000D01*
X13923000Y-10160000D01*
X13973000Y-10210000D01*
D16*
X13436000Y-8002000D02*
X13546000Y-8112000D01*
X13546000Y-8002000D02*
X13436000Y-8112000D01*
X13546000Y-8057000D02*
G75*
G03*
X13546000Y-8057000I-55000J0D01*
G01*
X13436000Y-8652000D02*
X13546000Y-8762000D01*
X13546000Y-8652000D02*
X13436000Y-8762000D01*
X13546000Y-8707000D02*
G75*
G03*
X13546000Y-8707000I-55000J0D01*
G01*
X13886000Y-8002000D02*
X13996000Y-8112000D01*
X13996000Y-8002000D02*
X13886000Y-8112000D01*
X13996000Y-8057000D02*
G75*
G03*
X13996000Y-8057000I-55000J0D01*
G01*
X13886000Y-8652000D02*
X13996000Y-8762000D01*
X13996000Y-8652000D02*
X13886000Y-8762000D01*
X13996000Y-8707000D02*
G75*
G03*
X13996000Y-8707000I-55000J0D01*
G01*
D11*
X10412619Y-10983476D02*
X10412619Y-10783476D01*
X10460238Y-10783476D01*
X10488810Y-10793000D01*
X10507857Y-10812048D01*
X10517381Y-10831095D01*
X10526905Y-10869190D01*
X10526905Y-10897762D01*
X10517381Y-10935857D01*
X10507857Y-10954905D01*
X10488810Y-10973952D01*
X10460238Y-10983476D01*
X10412619Y-10983476D01*
X10612619Y-10983476D02*
X10612619Y-10850143D01*
X10612619Y-10888238D02*
X10622143Y-10869190D01*
X10631667Y-10859667D01*
X10650714Y-10850143D01*
X10669762Y-10850143D01*
X10736429Y-10983476D02*
X10736429Y-10850143D01*
X10736429Y-10783476D02*
X10726905Y-10793000D01*
X10736429Y-10802524D01*
X10745952Y-10793000D01*
X10736429Y-10783476D01*
X10736429Y-10802524D01*
X10860238Y-10983476D02*
X10841190Y-10973952D01*
X10831667Y-10954905D01*
X10831667Y-10783476D01*
X10965000Y-10983476D02*
X10945952Y-10973952D01*
X10936429Y-10954905D01*
X10936429Y-10783476D01*
X11193571Y-10983476D02*
X11193571Y-10783476D01*
X11260238Y-10926333D01*
X11326905Y-10783476D01*
X11326905Y-10983476D01*
X11507857Y-10983476D02*
X11507857Y-10878714D01*
X11498333Y-10859667D01*
X11479286Y-10850143D01*
X11441190Y-10850143D01*
X11422143Y-10859667D01*
X11507857Y-10973952D02*
X11488809Y-10983476D01*
X11441190Y-10983476D01*
X11422143Y-10973952D01*
X11412619Y-10954905D01*
X11412619Y-10935857D01*
X11422143Y-10916810D01*
X11441190Y-10907286D01*
X11488809Y-10907286D01*
X11507857Y-10897762D01*
X11603095Y-10850143D02*
X11603095Y-11050143D01*
X11603095Y-10859667D02*
X11622143Y-10850143D01*
X11660238Y-10850143D01*
X11679286Y-10859667D01*
X11688809Y-10869190D01*
X11698333Y-10888238D01*
X11698333Y-10945381D01*
X11688809Y-10964429D01*
X11679286Y-10973952D01*
X11660238Y-10983476D01*
X11622143Y-10983476D01*
X11603095Y-10973952D01*
X11784048Y-10964429D02*
X11793571Y-10973952D01*
X11784048Y-10983476D01*
X11774524Y-10973952D01*
X11784048Y-10964429D01*
X11784048Y-10983476D01*
X11784048Y-10859667D02*
X11793571Y-10869190D01*
X11784048Y-10878714D01*
X11774524Y-10869190D01*
X11784048Y-10859667D01*
X11784048Y-10878714D01*
D12*
X10115000Y-11293000D02*
X10155000Y-11333000D01*
X10155000Y-11293000D02*
X10115000Y-11333000D01*
D11*
X10450714Y-11203476D02*
X10469762Y-11203476D01*
X10488810Y-11213000D01*
X10498333Y-11222524D01*
X10507857Y-11241571D01*
X10517381Y-11279667D01*
X10517381Y-11327286D01*
X10507857Y-11365381D01*
X10498333Y-11384428D01*
X10488810Y-11393952D01*
X10469762Y-11403476D01*
X10450714Y-11403476D01*
X10431667Y-11393952D01*
X10422143Y-11384428D01*
X10412619Y-11365381D01*
X10403095Y-11327286D01*
X10403095Y-11279667D01*
X10412619Y-11241571D01*
X10422143Y-11222524D01*
X10431667Y-11213000D01*
X10450714Y-11203476D01*
X10603095Y-11384428D02*
X10612619Y-11393952D01*
X10603095Y-11403476D01*
X10593571Y-11393952D01*
X10603095Y-11384428D01*
X10603095Y-11403476D01*
X10784048Y-11270143D02*
X10784048Y-11403476D01*
X10736429Y-11193952D02*
X10688810Y-11336809D01*
X10812619Y-11336809D01*
X10926905Y-11203476D02*
X10945952Y-11203476D01*
X10965000Y-11213000D01*
X10974524Y-11222524D01*
X10984048Y-11241571D01*
X10993571Y-11279667D01*
X10993571Y-11327286D01*
X10984048Y-11365381D01*
X10974524Y-11384428D01*
X10965000Y-11393952D01*
X10945952Y-11403476D01*
X10926905Y-11403476D01*
X10907857Y-11393952D01*
X10898333Y-11384428D01*
X10888810Y-11365381D01*
X10879286Y-11327286D01*
X10879286Y-11279667D01*
X10888810Y-11241571D01*
X10898333Y-11222524D01*
X10907857Y-11213000D01*
X10926905Y-11203476D01*
X11117381Y-11203476D02*
X11136429Y-11203476D01*
X11155476Y-11213000D01*
X11165000Y-11222524D01*
X11174524Y-11241571D01*
X11184048Y-11279667D01*
X11184048Y-11327286D01*
X11174524Y-11365381D01*
X11165000Y-11384428D01*
X11155476Y-11393952D01*
X11136429Y-11403476D01*
X11117381Y-11403476D01*
X11098333Y-11393952D01*
X11088810Y-11384428D01*
X11079286Y-11365381D01*
X11069762Y-11327286D01*
X11069762Y-11279667D01*
X11079286Y-11241571D01*
X11088810Y-11222524D01*
X11098333Y-11213000D01*
X11117381Y-11203476D01*
X11269762Y-11403476D02*
X11269762Y-11270143D01*
X11269762Y-11289190D02*
X11279286Y-11279667D01*
X11298333Y-11270143D01*
X11326905Y-11270143D01*
X11345952Y-11279667D01*
X11355476Y-11298714D01*
X11355476Y-11403476D01*
X11355476Y-11298714D02*
X11365000Y-11279667D01*
X11384048Y-11270143D01*
X11412619Y-11270143D01*
X11431667Y-11279667D01*
X11441190Y-11298714D01*
X11441190Y-11403476D01*
X11536428Y-11403476D02*
X11536428Y-11270143D01*
X11536428Y-11289190D02*
X11545952Y-11279667D01*
X11565000Y-11270143D01*
X11593571Y-11270143D01*
X11612619Y-11279667D01*
X11622143Y-11298714D01*
X11622143Y-11403476D01*
X11622143Y-11298714D02*
X11631667Y-11279667D01*
X11650714Y-11270143D01*
X11679286Y-11270143D01*
X11698333Y-11279667D01*
X11707857Y-11298714D01*
X11707857Y-11403476D01*
X12098333Y-11193952D02*
X11926905Y-11451095D01*
X12355476Y-11203476D02*
X12374524Y-11203476D01*
X12393571Y-11213000D01*
X12403095Y-11222524D01*
X12412619Y-11241571D01*
X12422143Y-11279667D01*
X12422143Y-11327286D01*
X12412619Y-11365381D01*
X12403095Y-11384428D01*
X12393571Y-11393952D01*
X12374524Y-11403476D01*
X12355476Y-11403476D01*
X12336428Y-11393952D01*
X12326905Y-11384428D01*
X12317381Y-11365381D01*
X12307857Y-11327286D01*
X12307857Y-11279667D01*
X12317381Y-11241571D01*
X12326905Y-11222524D01*
X12336428Y-11213000D01*
X12355476Y-11203476D01*
X12507857Y-11384428D02*
X12517381Y-11393952D01*
X12507857Y-11403476D01*
X12498333Y-11393952D01*
X12507857Y-11384428D01*
X12507857Y-11403476D01*
X12641190Y-11203476D02*
X12660238Y-11203476D01*
X12679286Y-11213000D01*
X12688809Y-11222524D01*
X12698333Y-11241571D01*
X12707857Y-11279667D01*
X12707857Y-11327286D01*
X12698333Y-11365381D01*
X12688809Y-11384428D01*
X12679286Y-11393952D01*
X12660238Y-11403476D01*
X12641190Y-11403476D01*
X12622143Y-11393952D01*
X12612619Y-11384428D01*
X12603095Y-11365381D01*
X12593571Y-11327286D01*
X12593571Y-11279667D01*
X12603095Y-11241571D01*
X12612619Y-11222524D01*
X12622143Y-11213000D01*
X12641190Y-11203476D01*
X12898333Y-11403476D02*
X12784048Y-11403476D01*
X12841190Y-11403476D02*
X12841190Y-11203476D01*
X12822143Y-11232048D01*
X12803095Y-11251095D01*
X12784048Y-11260619D01*
X13079286Y-11203476D02*
X12984048Y-11203476D01*
X12974524Y-11298714D01*
X12984048Y-11289190D01*
X13003095Y-11279667D01*
X13050714Y-11279667D01*
X13069762Y-11289190D01*
X13079286Y-11298714D01*
X13088809Y-11317762D01*
X13088809Y-11365381D01*
X13079286Y-11384428D01*
X13069762Y-11393952D01*
X13050714Y-11403476D01*
X13003095Y-11403476D01*
X12984048Y-11393952D01*
X12974524Y-11384428D01*
X13155476Y-11203476D02*
X13288809Y-11203476D01*
X13203095Y-11403476D01*
X13355476Y-11203476D02*
X13355476Y-11241571D01*
X13431667Y-11203476D02*
X13431667Y-11241571D01*
X13726905Y-11479667D02*
X13717381Y-11470143D01*
X13698333Y-11441571D01*
X13688809Y-11422524D01*
X13679286Y-11393952D01*
X13669762Y-11346333D01*
X13669762Y-11308238D01*
X13679286Y-11260619D01*
X13688809Y-11232048D01*
X13698333Y-11213000D01*
X13717381Y-11184429D01*
X13726905Y-11174905D01*
X13793571Y-11222524D02*
X13803095Y-11213000D01*
X13822143Y-11203476D01*
X13869762Y-11203476D01*
X13888809Y-11213000D01*
X13898333Y-11222524D01*
X13907857Y-11241571D01*
X13907857Y-11260619D01*
X13898333Y-11289190D01*
X13784048Y-11403476D01*
X13907857Y-11403476D01*
X13974524Y-11203476D02*
X14098333Y-11203476D01*
X14031667Y-11279667D01*
X14060238Y-11279667D01*
X14079286Y-11289190D01*
X14088809Y-11298714D01*
X14098333Y-11317762D01*
X14098333Y-11365381D01*
X14088809Y-11384428D01*
X14079286Y-11393952D01*
X14060238Y-11403476D01*
X14003095Y-11403476D01*
X13984048Y-11393952D01*
X13974524Y-11384428D01*
X14336428Y-11403476D02*
X14336428Y-11203476D01*
X14422143Y-11403476D02*
X14422143Y-11298714D01*
X14412619Y-11279667D01*
X14393571Y-11270143D01*
X14365000Y-11270143D01*
X14345952Y-11279667D01*
X14336428Y-11289190D01*
X14545952Y-11403476D02*
X14526905Y-11393952D01*
X14517381Y-11384428D01*
X14507857Y-11365381D01*
X14507857Y-11308238D01*
X14517381Y-11289190D01*
X14526905Y-11279667D01*
X14545952Y-11270143D01*
X14574524Y-11270143D01*
X14593571Y-11279667D01*
X14603095Y-11289190D01*
X14612619Y-11308238D01*
X14612619Y-11365381D01*
X14603095Y-11384428D01*
X14593571Y-11393952D01*
X14574524Y-11403476D01*
X14545952Y-11403476D01*
X14726905Y-11403476D02*
X14707857Y-11393952D01*
X14698333Y-11374905D01*
X14698333Y-11203476D01*
X14879286Y-11393952D02*
X14860238Y-11403476D01*
X14822143Y-11403476D01*
X14803095Y-11393952D01*
X14793571Y-11374905D01*
X14793571Y-11298714D01*
X14803095Y-11279667D01*
X14822143Y-11270143D01*
X14860238Y-11270143D01*
X14879286Y-11279667D01*
X14888809Y-11298714D01*
X14888809Y-11317762D01*
X14793571Y-11336809D01*
X14965000Y-11393952D02*
X14984048Y-11403476D01*
X15022143Y-11403476D01*
X15041190Y-11393952D01*
X15050714Y-11374905D01*
X15050714Y-11365381D01*
X15041190Y-11346333D01*
X15022143Y-11336809D01*
X14993571Y-11336809D01*
X14974524Y-11327286D01*
X14965000Y-11308238D01*
X14965000Y-11298714D01*
X14974524Y-11279667D01*
X14993571Y-11270143D01*
X15022143Y-11270143D01*
X15041190Y-11279667D01*
X15117381Y-11479667D02*
X15126905Y-11470143D01*
X15145952Y-11441571D01*
X15155476Y-11422524D01*
X15165000Y-11393952D01*
X15174524Y-11346333D01*
X15174524Y-11308238D01*
X15165000Y-11260619D01*
X15155476Y-11232048D01*
X15145952Y-11213000D01*
X15126905Y-11184429D01*
X15117381Y-11174905D01*
D13*
X10155000Y-11577000D02*
G75*
G03*
X10155000Y-11577000I-35000J0D01*
G01*
D11*
X10450714Y-11467476D02*
X10469762Y-11467476D01*
X10488810Y-11477000D01*
X10498333Y-11486524D01*
X10507857Y-11505571D01*
X10517381Y-11543667D01*
X10517381Y-11591286D01*
X10507857Y-11629381D01*
X10498333Y-11648428D01*
X10488810Y-11657952D01*
X10469762Y-11667476D01*
X10450714Y-11667476D01*
X10431667Y-11657952D01*
X10422143Y-11648428D01*
X10412619Y-11629381D01*
X10403095Y-11591286D01*
X10403095Y-11543667D01*
X10412619Y-11505571D01*
X10422143Y-11486524D01*
X10431667Y-11477000D01*
X10450714Y-11467476D01*
X10603095Y-11648428D02*
X10612619Y-11657952D01*
X10603095Y-11667476D01*
X10593571Y-11657952D01*
X10603095Y-11648428D01*
X10603095Y-11667476D01*
X10679286Y-11467476D02*
X10812619Y-11467476D01*
X10726905Y-11667476D01*
X10926905Y-11467476D02*
X10945952Y-11467476D01*
X10965000Y-11477000D01*
X10974524Y-11486524D01*
X10984048Y-11505571D01*
X10993571Y-11543667D01*
X10993571Y-11591286D01*
X10984048Y-11629381D01*
X10974524Y-11648428D01*
X10965000Y-11657952D01*
X10945952Y-11667476D01*
X10926905Y-11667476D01*
X10907857Y-11657952D01*
X10898333Y-11648428D01*
X10888810Y-11629381D01*
X10879286Y-11591286D01*
X10879286Y-11543667D01*
X10888810Y-11505571D01*
X10898333Y-11486524D01*
X10907857Y-11477000D01*
X10926905Y-11467476D01*
X11117381Y-11467476D02*
X11136429Y-11467476D01*
X11155476Y-11477000D01*
X11165000Y-11486524D01*
X11174524Y-11505571D01*
X11184048Y-11543667D01*
X11184048Y-11591286D01*
X11174524Y-11629381D01*
X11165000Y-11648428D01*
X11155476Y-11657952D01*
X11136429Y-11667476D01*
X11117381Y-11667476D01*
X11098333Y-11657952D01*
X11088810Y-11648428D01*
X11079286Y-11629381D01*
X11069762Y-11591286D01*
X11069762Y-11543667D01*
X11079286Y-11505571D01*
X11088810Y-11486524D01*
X11098333Y-11477000D01*
X11117381Y-11467476D01*
X11269762Y-11667476D02*
X11269762Y-11534143D01*
X11269762Y-11553190D02*
X11279286Y-11543667D01*
X11298333Y-11534143D01*
X11326905Y-11534143D01*
X11345952Y-11543667D01*
X11355476Y-11562714D01*
X11355476Y-11667476D01*
X11355476Y-11562714D02*
X11365000Y-11543667D01*
X11384048Y-11534143D01*
X11412619Y-11534143D01*
X11431667Y-11543667D01*
X11441190Y-11562714D01*
X11441190Y-11667476D01*
X11536428Y-11667476D02*
X11536428Y-11534143D01*
X11536428Y-11553190D02*
X11545952Y-11543667D01*
X11565000Y-11534143D01*
X11593571Y-11534143D01*
X11612619Y-11543667D01*
X11622143Y-11562714D01*
X11622143Y-11667476D01*
X11622143Y-11562714D02*
X11631667Y-11543667D01*
X11650714Y-11534143D01*
X11679286Y-11534143D01*
X11698333Y-11543667D01*
X11707857Y-11562714D01*
X11707857Y-11667476D01*
X12098333Y-11457952D02*
X11926905Y-11715095D01*
X12355476Y-11467476D02*
X12374524Y-11467476D01*
X12393571Y-11477000D01*
X12403095Y-11486524D01*
X12412619Y-11505571D01*
X12422143Y-11543667D01*
X12422143Y-11591286D01*
X12412619Y-11629381D01*
X12403095Y-11648428D01*
X12393571Y-11657952D01*
X12374524Y-11667476D01*
X12355476Y-11667476D01*
X12336428Y-11657952D01*
X12326905Y-11648428D01*
X12317381Y-11629381D01*
X12307857Y-11591286D01*
X12307857Y-11543667D01*
X12317381Y-11505571D01*
X12326905Y-11486524D01*
X12336428Y-11477000D01*
X12355476Y-11467476D01*
X12507857Y-11648428D02*
X12517381Y-11657952D01*
X12507857Y-11667476D01*
X12498333Y-11657952D01*
X12507857Y-11648428D01*
X12507857Y-11667476D01*
X12641190Y-11467476D02*
X12660238Y-11467476D01*
X12679286Y-11477000D01*
X12688809Y-11486524D01*
X12698333Y-11505571D01*
X12707857Y-11543667D01*
X12707857Y-11591286D01*
X12698333Y-11629381D01*
X12688809Y-11648428D01*
X12679286Y-11657952D01*
X12660238Y-11667476D01*
X12641190Y-11667476D01*
X12622143Y-11657952D01*
X12612619Y-11648428D01*
X12603095Y-11629381D01*
X12593571Y-11591286D01*
X12593571Y-11543667D01*
X12603095Y-11505571D01*
X12612619Y-11486524D01*
X12622143Y-11477000D01*
X12641190Y-11467476D01*
X12784048Y-11486524D02*
X12793571Y-11477000D01*
X12812619Y-11467476D01*
X12860238Y-11467476D01*
X12879286Y-11477000D01*
X12888809Y-11486524D01*
X12898333Y-11505571D01*
X12898333Y-11524619D01*
X12888809Y-11553190D01*
X12774524Y-11667476D01*
X12898333Y-11667476D01*
X12965000Y-11467476D02*
X13098333Y-11467476D01*
X13012619Y-11667476D01*
X13260238Y-11467476D02*
X13222143Y-11467476D01*
X13203095Y-11477000D01*
X13193571Y-11486524D01*
X13174524Y-11515095D01*
X13165000Y-11553190D01*
X13165000Y-11629381D01*
X13174524Y-11648428D01*
X13184048Y-11657952D01*
X13203095Y-11667476D01*
X13241190Y-11667476D01*
X13260238Y-11657952D01*
X13269762Y-11648428D01*
X13279286Y-11629381D01*
X13279286Y-11581762D01*
X13269762Y-11562714D01*
X13260238Y-11553190D01*
X13241190Y-11543667D01*
X13203095Y-11543667D01*
X13184048Y-11553190D01*
X13174524Y-11562714D01*
X13165000Y-11581762D01*
X13355476Y-11467476D02*
X13355476Y-11505571D01*
X13431667Y-11467476D02*
X13431667Y-11505571D01*
X13726905Y-11743667D02*
X13717381Y-11734143D01*
X13698333Y-11705571D01*
X13688809Y-11686524D01*
X13679286Y-11657952D01*
X13669762Y-11610333D01*
X13669762Y-11572238D01*
X13679286Y-11524619D01*
X13688809Y-11496048D01*
X13698333Y-11477000D01*
X13717381Y-11448428D01*
X13726905Y-11438905D01*
X13888809Y-11534143D02*
X13888809Y-11667476D01*
X13841190Y-11457952D02*
X13793571Y-11600809D01*
X13917381Y-11600809D01*
X14145952Y-11667476D02*
X14145952Y-11467476D01*
X14231667Y-11667476D02*
X14231667Y-11562714D01*
X14222143Y-11543667D01*
X14203095Y-11534143D01*
X14174524Y-11534143D01*
X14155476Y-11543667D01*
X14145952Y-11553190D01*
X14355476Y-11667476D02*
X14336428Y-11657952D01*
X14326905Y-11648428D01*
X14317381Y-11629381D01*
X14317381Y-11572238D01*
X14326905Y-11553190D01*
X14336428Y-11543667D01*
X14355476Y-11534143D01*
X14384048Y-11534143D01*
X14403095Y-11543667D01*
X14412619Y-11553190D01*
X14422143Y-11572238D01*
X14422143Y-11629381D01*
X14412619Y-11648428D01*
X14403095Y-11657952D01*
X14384048Y-11667476D01*
X14355476Y-11667476D01*
X14536428Y-11667476D02*
X14517381Y-11657952D01*
X14507857Y-11638905D01*
X14507857Y-11467476D01*
X14688809Y-11657952D02*
X14669762Y-11667476D01*
X14631667Y-11667476D01*
X14612619Y-11657952D01*
X14603095Y-11638905D01*
X14603095Y-11562714D01*
X14612619Y-11543667D01*
X14631667Y-11534143D01*
X14669762Y-11534143D01*
X14688809Y-11543667D01*
X14698333Y-11562714D01*
X14698333Y-11581762D01*
X14603095Y-11600809D01*
X14774524Y-11657952D02*
X14793571Y-11667476D01*
X14831667Y-11667476D01*
X14850714Y-11657952D01*
X14860238Y-11638905D01*
X14860238Y-11629381D01*
X14850714Y-11610333D01*
X14831667Y-11600809D01*
X14803095Y-11600809D01*
X14784048Y-11591286D01*
X14774524Y-11572238D01*
X14774524Y-11562714D01*
X14784048Y-11543667D01*
X14803095Y-11534143D01*
X14831667Y-11534143D01*
X14850714Y-11543667D01*
X14926905Y-11743667D02*
X14936428Y-11734143D01*
X14955476Y-11705571D01*
X14965000Y-11686524D01*
X14974524Y-11657952D01*
X14984048Y-11610333D01*
X14984048Y-11572238D01*
X14974524Y-11524619D01*
X14965000Y-11496048D01*
X14955476Y-11477000D01*
X14936428Y-11448428D01*
X14926905Y-11438905D01*
D14*
X10115000Y-11801000D02*
X10115000Y-11881000D01*
X10075000Y-11841000D02*
X10155000Y-11841000D01*
D11*
X10450714Y-11731476D02*
X10469762Y-11731476D01*
X10488810Y-11741000D01*
X10498333Y-11750524D01*
X10507857Y-11769571D01*
X10517381Y-11807667D01*
X10517381Y-11855286D01*
X10507857Y-11893381D01*
X10498333Y-11912428D01*
X10488810Y-11921952D01*
X10469762Y-11931476D01*
X10450714Y-11931476D01*
X10431667Y-11921952D01*
X10422143Y-11912428D01*
X10412619Y-11893381D01*
X10403095Y-11855286D01*
X10403095Y-11807667D01*
X10412619Y-11769571D01*
X10422143Y-11750524D01*
X10431667Y-11741000D01*
X10450714Y-11731476D01*
X10603095Y-11912428D02*
X10612619Y-11921952D01*
X10603095Y-11931476D01*
X10593571Y-11921952D01*
X10603095Y-11912428D01*
X10603095Y-11931476D01*
X10726905Y-11817190D02*
X10707857Y-11807667D01*
X10698333Y-11798143D01*
X10688810Y-11779095D01*
X10688810Y-11769571D01*
X10698333Y-11750524D01*
X10707857Y-11741000D01*
X10726905Y-11731476D01*
X10765000Y-11731476D01*
X10784048Y-11741000D01*
X10793571Y-11750524D01*
X10803095Y-11769571D01*
X10803095Y-11779095D01*
X10793571Y-11798143D01*
X10784048Y-11807667D01*
X10765000Y-11817190D01*
X10726905Y-11817190D01*
X10707857Y-11826714D01*
X10698333Y-11836238D01*
X10688810Y-11855286D01*
X10688810Y-11893381D01*
X10698333Y-11912428D01*
X10707857Y-11921952D01*
X10726905Y-11931476D01*
X10765000Y-11931476D01*
X10784048Y-11921952D01*
X10793571Y-11912428D01*
X10803095Y-11893381D01*
X10803095Y-11855286D01*
X10793571Y-11836238D01*
X10784048Y-11826714D01*
X10765000Y-11817190D01*
X10926905Y-11731476D02*
X10945952Y-11731476D01*
X10965000Y-11741000D01*
X10974524Y-11750524D01*
X10984048Y-11769571D01*
X10993571Y-11807667D01*
X10993571Y-11855286D01*
X10984048Y-11893381D01*
X10974524Y-11912428D01*
X10965000Y-11921952D01*
X10945952Y-11931476D01*
X10926905Y-11931476D01*
X10907857Y-11921952D01*
X10898333Y-11912428D01*
X10888810Y-11893381D01*
X10879286Y-11855286D01*
X10879286Y-11807667D01*
X10888810Y-11769571D01*
X10898333Y-11750524D01*
X10907857Y-11741000D01*
X10926905Y-11731476D01*
X11117381Y-11731476D02*
X11136429Y-11731476D01*
X11155476Y-11741000D01*
X11165000Y-11750524D01*
X11174524Y-11769571D01*
X11184048Y-11807667D01*
X11184048Y-11855286D01*
X11174524Y-11893381D01*
X11165000Y-11912428D01*
X11155476Y-11921952D01*
X11136429Y-11931476D01*
X11117381Y-11931476D01*
X11098333Y-11921952D01*
X11088810Y-11912428D01*
X11079286Y-11893381D01*
X11069762Y-11855286D01*
X11069762Y-11807667D01*
X11079286Y-11769571D01*
X11088810Y-11750524D01*
X11098333Y-11741000D01*
X11117381Y-11731476D01*
X11269762Y-11931476D02*
X11269762Y-11798143D01*
X11269762Y-11817190D02*
X11279286Y-11807667D01*
X11298333Y-11798143D01*
X11326905Y-11798143D01*
X11345952Y-11807667D01*
X11355476Y-11826714D01*
X11355476Y-11931476D01*
X11355476Y-11826714D02*
X11365000Y-11807667D01*
X11384048Y-11798143D01*
X11412619Y-11798143D01*
X11431667Y-11807667D01*
X11441190Y-11826714D01*
X11441190Y-11931476D01*
X11536428Y-11931476D02*
X11536428Y-11798143D01*
X11536428Y-11817190D02*
X11545952Y-11807667D01*
X11565000Y-11798143D01*
X11593571Y-11798143D01*
X11612619Y-11807667D01*
X11622143Y-11826714D01*
X11622143Y-11931476D01*
X11622143Y-11826714D02*
X11631667Y-11807667D01*
X11650714Y-11798143D01*
X11679286Y-11798143D01*
X11698333Y-11807667D01*
X11707857Y-11826714D01*
X11707857Y-11931476D01*
X12098333Y-11721952D02*
X11926905Y-11979095D01*
X12355476Y-11731476D02*
X12374524Y-11731476D01*
X12393571Y-11741000D01*
X12403095Y-11750524D01*
X12412619Y-11769571D01*
X12422143Y-11807667D01*
X12422143Y-11855286D01*
X12412619Y-11893381D01*
X12403095Y-11912428D01*
X12393571Y-11921952D01*
X12374524Y-11931476D01*
X12355476Y-11931476D01*
X12336428Y-11921952D01*
X12326905Y-11912428D01*
X12317381Y-11893381D01*
X12307857Y-11855286D01*
X12307857Y-11807667D01*
X12317381Y-11769571D01*
X12326905Y-11750524D01*
X12336428Y-11741000D01*
X12355476Y-11731476D01*
X12507857Y-11912428D02*
X12517381Y-11921952D01*
X12507857Y-11931476D01*
X12498333Y-11921952D01*
X12507857Y-11912428D01*
X12507857Y-11931476D01*
X12641190Y-11731476D02*
X12660238Y-11731476D01*
X12679286Y-11741000D01*
X12688809Y-11750524D01*
X12698333Y-11769571D01*
X12707857Y-11807667D01*
X12707857Y-11855286D01*
X12698333Y-11893381D01*
X12688809Y-11912428D01*
X12679286Y-11921952D01*
X12660238Y-11931476D01*
X12641190Y-11931476D01*
X12622143Y-11921952D01*
X12612619Y-11912428D01*
X12603095Y-11893381D01*
X12593571Y-11855286D01*
X12593571Y-11807667D01*
X12603095Y-11769571D01*
X12612619Y-11750524D01*
X12622143Y-11741000D01*
X12641190Y-11731476D01*
X12774524Y-11731476D02*
X12898333Y-11731476D01*
X12831667Y-11807667D01*
X12860238Y-11807667D01*
X12879286Y-11817190D01*
X12888809Y-11826714D01*
X12898333Y-11845762D01*
X12898333Y-11893381D01*
X12888809Y-11912428D01*
X12879286Y-11921952D01*
X12860238Y-11931476D01*
X12803095Y-11931476D01*
X12784048Y-11921952D01*
X12774524Y-11912428D01*
X13088809Y-11931476D02*
X12974524Y-11931476D01*
X13031667Y-11931476D02*
X13031667Y-11731476D01*
X13012619Y-11760048D01*
X12993571Y-11779095D01*
X12974524Y-11788619D01*
X13269762Y-11731476D02*
X13174524Y-11731476D01*
X13165000Y-11826714D01*
X13174524Y-11817190D01*
X13193571Y-11807667D01*
X13241190Y-11807667D01*
X13260238Y-11817190D01*
X13269762Y-11826714D01*
X13279286Y-11845762D01*
X13279286Y-11893381D01*
X13269762Y-11912428D01*
X13260238Y-11921952D01*
X13241190Y-11931476D01*
X13193571Y-11931476D01*
X13174524Y-11921952D01*
X13165000Y-11912428D01*
X13355476Y-11731476D02*
X13355476Y-11769571D01*
X13431667Y-11731476D02*
X13431667Y-11769571D01*
X13726905Y-12007667D02*
X13717381Y-11998143D01*
X13698333Y-11969571D01*
X13688809Y-11950524D01*
X13679286Y-11921952D01*
X13669762Y-11874333D01*
X13669762Y-11836238D01*
X13679286Y-11788619D01*
X13688809Y-11760048D01*
X13698333Y-11741000D01*
X13717381Y-11712428D01*
X13726905Y-11702905D01*
X13831667Y-11817190D02*
X13812619Y-11807667D01*
X13803095Y-11798143D01*
X13793571Y-11779095D01*
X13793571Y-11769571D01*
X13803095Y-11750524D01*
X13812619Y-11741000D01*
X13831667Y-11731476D01*
X13869762Y-11731476D01*
X13888809Y-11741000D01*
X13898333Y-11750524D01*
X13907857Y-11769571D01*
X13907857Y-11779095D01*
X13898333Y-11798143D01*
X13888809Y-11807667D01*
X13869762Y-11817190D01*
X13831667Y-11817190D01*
X13812619Y-11826714D01*
X13803095Y-11836238D01*
X13793571Y-11855286D01*
X13793571Y-11893381D01*
X13803095Y-11912428D01*
X13812619Y-11921952D01*
X13831667Y-11931476D01*
X13869762Y-11931476D01*
X13888809Y-11921952D01*
X13898333Y-11912428D01*
X13907857Y-11893381D01*
X13907857Y-11855286D01*
X13898333Y-11836238D01*
X13888809Y-11826714D01*
X13869762Y-11817190D01*
X14145952Y-11931476D02*
X14145952Y-11731476D01*
X14231667Y-11931476D02*
X14231667Y-11826714D01*
X14222143Y-11807667D01*
X14203095Y-11798143D01*
X14174524Y-11798143D01*
X14155476Y-11807667D01*
X14145952Y-11817190D01*
X14355476Y-11931476D02*
X14336428Y-11921952D01*
X14326905Y-11912428D01*
X14317381Y-11893381D01*
X14317381Y-11836238D01*
X14326905Y-11817190D01*
X14336428Y-11807667D01*
X14355476Y-11798143D01*
X14384048Y-11798143D01*
X14403095Y-11807667D01*
X14412619Y-11817190D01*
X14422143Y-11836238D01*
X14422143Y-11893381D01*
X14412619Y-11912428D01*
X14403095Y-11921952D01*
X14384048Y-11931476D01*
X14355476Y-11931476D01*
X14536428Y-11931476D02*
X14517381Y-11921952D01*
X14507857Y-11902905D01*
X14507857Y-11731476D01*
X14688809Y-11921952D02*
X14669762Y-11931476D01*
X14631667Y-11931476D01*
X14612619Y-11921952D01*
X14603095Y-11902905D01*
X14603095Y-11826714D01*
X14612619Y-11807667D01*
X14631667Y-11798143D01*
X14669762Y-11798143D01*
X14688809Y-11807667D01*
X14698333Y-11826714D01*
X14698333Y-11845762D01*
X14603095Y-11864809D01*
X14774524Y-11921952D02*
X14793571Y-11931476D01*
X14831667Y-11931476D01*
X14850714Y-11921952D01*
X14860238Y-11902905D01*
X14860238Y-11893381D01*
X14850714Y-11874333D01*
X14831667Y-11864809D01*
X14803095Y-11864809D01*
X14784048Y-11855286D01*
X14774524Y-11836238D01*
X14774524Y-11826714D01*
X14784048Y-11807667D01*
X14803095Y-11798143D01*
X14831667Y-11798143D01*
X14850714Y-11807667D01*
X14926905Y-12007667D02*
X14936428Y-11998143D01*
X14955476Y-11969571D01*
X14965000Y-11950524D01*
X14974524Y-11921952D01*
X14984048Y-11874333D01*
X14984048Y-11836238D01*
X14974524Y-11788619D01*
X14965000Y-11760048D01*
X14955476Y-11741000D01*
X14936428Y-11712428D01*
X14926905Y-11702905D01*
D15*
X10141820Y-12136820D02*
X10141820Y-12073180D01*
X10078180Y-12073180D01*
X10078180Y-12136820D01*
X10141820Y-12136820D01*
D11*
X10450714Y-11995476D02*
X10469762Y-11995476D01*
X10488810Y-12005000D01*
X10498333Y-12014524D01*
X10507857Y-12033571D01*
X10517381Y-12071667D01*
X10517381Y-12119286D01*
X10507857Y-12157381D01*
X10498333Y-12176428D01*
X10488810Y-12185952D01*
X10469762Y-12195476D01*
X10450714Y-12195476D01*
X10431667Y-12185952D01*
X10422143Y-12176428D01*
X10412619Y-12157381D01*
X10403095Y-12119286D01*
X10403095Y-12071667D01*
X10412619Y-12033571D01*
X10422143Y-12014524D01*
X10431667Y-12005000D01*
X10450714Y-11995476D01*
X10603095Y-12176428D02*
X10612619Y-12185952D01*
X10603095Y-12195476D01*
X10593571Y-12185952D01*
X10603095Y-12176428D01*
X10603095Y-12195476D01*
X10707857Y-12195476D02*
X10745952Y-12195476D01*
X10765000Y-12185952D01*
X10774524Y-12176428D01*
X10793571Y-12147857D01*
X10803095Y-12109762D01*
X10803095Y-12033571D01*
X10793571Y-12014524D01*
X10784048Y-12005000D01*
X10765000Y-11995476D01*
X10726905Y-11995476D01*
X10707857Y-12005000D01*
X10698333Y-12014524D01*
X10688810Y-12033571D01*
X10688810Y-12081190D01*
X10698333Y-12100238D01*
X10707857Y-12109762D01*
X10726905Y-12119286D01*
X10765000Y-12119286D01*
X10784048Y-12109762D01*
X10793571Y-12100238D01*
X10803095Y-12081190D01*
X10926905Y-11995476D02*
X10945952Y-11995476D01*
X10965000Y-12005000D01*
X10974524Y-12014524D01*
X10984048Y-12033571D01*
X10993571Y-12071667D01*
X10993571Y-12119286D01*
X10984048Y-12157381D01*
X10974524Y-12176428D01*
X10965000Y-12185952D01*
X10945952Y-12195476D01*
X10926905Y-12195476D01*
X10907857Y-12185952D01*
X10898333Y-12176428D01*
X10888810Y-12157381D01*
X10879286Y-12119286D01*
X10879286Y-12071667D01*
X10888810Y-12033571D01*
X10898333Y-12014524D01*
X10907857Y-12005000D01*
X10926905Y-11995476D01*
X11117381Y-11995476D02*
X11136429Y-11995476D01*
X11155476Y-12005000D01*
X11165000Y-12014524D01*
X11174524Y-12033571D01*
X11184048Y-12071667D01*
X11184048Y-12119286D01*
X11174524Y-12157381D01*
X11165000Y-12176428D01*
X11155476Y-12185952D01*
X11136429Y-12195476D01*
X11117381Y-12195476D01*
X11098333Y-12185952D01*
X11088810Y-12176428D01*
X11079286Y-12157381D01*
X11069762Y-12119286D01*
X11069762Y-12071667D01*
X11079286Y-12033571D01*
X11088810Y-12014524D01*
X11098333Y-12005000D01*
X11117381Y-11995476D01*
X11269762Y-12195476D02*
X11269762Y-12062143D01*
X11269762Y-12081190D02*
X11279286Y-12071667D01*
X11298333Y-12062143D01*
X11326905Y-12062143D01*
X11345952Y-12071667D01*
X11355476Y-12090714D01*
X11355476Y-12195476D01*
X11355476Y-12090714D02*
X11365000Y-12071667D01*
X11384048Y-12062143D01*
X11412619Y-12062143D01*
X11431667Y-12071667D01*
X11441190Y-12090714D01*
X11441190Y-12195476D01*
X11536428Y-12195476D02*
X11536428Y-12062143D01*
X11536428Y-12081190D02*
X11545952Y-12071667D01*
X11565000Y-12062143D01*
X11593571Y-12062143D01*
X11612619Y-12071667D01*
X11622143Y-12090714D01*
X11622143Y-12195476D01*
X11622143Y-12090714D02*
X11631667Y-12071667D01*
X11650714Y-12062143D01*
X11679286Y-12062143D01*
X11698333Y-12071667D01*
X11707857Y-12090714D01*
X11707857Y-12195476D01*
X12098333Y-11985952D02*
X11926905Y-12243095D01*
X12355476Y-11995476D02*
X12374524Y-11995476D01*
X12393571Y-12005000D01*
X12403095Y-12014524D01*
X12412619Y-12033571D01*
X12422143Y-12071667D01*
X12422143Y-12119286D01*
X12412619Y-12157381D01*
X12403095Y-12176428D01*
X12393571Y-12185952D01*
X12374524Y-12195476D01*
X12355476Y-12195476D01*
X12336428Y-12185952D01*
X12326905Y-12176428D01*
X12317381Y-12157381D01*
X12307857Y-12119286D01*
X12307857Y-12071667D01*
X12317381Y-12033571D01*
X12326905Y-12014524D01*
X12336428Y-12005000D01*
X12355476Y-11995476D01*
X12507857Y-12176428D02*
X12517381Y-12185952D01*
X12507857Y-12195476D01*
X12498333Y-12185952D01*
X12507857Y-12176428D01*
X12507857Y-12195476D01*
X12641190Y-11995476D02*
X12660238Y-11995476D01*
X12679286Y-12005000D01*
X12688809Y-12014524D01*
X12698333Y-12033571D01*
X12707857Y-12071667D01*
X12707857Y-12119286D01*
X12698333Y-12157381D01*
X12688809Y-12176428D01*
X12679286Y-12185952D01*
X12660238Y-12195476D01*
X12641190Y-12195476D01*
X12622143Y-12185952D01*
X12612619Y-12176428D01*
X12603095Y-12157381D01*
X12593571Y-12119286D01*
X12593571Y-12071667D01*
X12603095Y-12033571D01*
X12612619Y-12014524D01*
X12622143Y-12005000D01*
X12641190Y-11995476D01*
X12774524Y-11995476D02*
X12898333Y-11995476D01*
X12831667Y-12071667D01*
X12860238Y-12071667D01*
X12879286Y-12081190D01*
X12888809Y-12090714D01*
X12898333Y-12109762D01*
X12898333Y-12157381D01*
X12888809Y-12176428D01*
X12879286Y-12185952D01*
X12860238Y-12195476D01*
X12803095Y-12195476D01*
X12784048Y-12185952D01*
X12774524Y-12176428D01*
X13079286Y-11995476D02*
X12984048Y-11995476D01*
X12974524Y-12090714D01*
X12984048Y-12081190D01*
X13003095Y-12071667D01*
X13050714Y-12071667D01*
X13069762Y-12081190D01*
X13079286Y-12090714D01*
X13088809Y-12109762D01*
X13088809Y-12157381D01*
X13079286Y-12176428D01*
X13069762Y-12185952D01*
X13050714Y-12195476D01*
X13003095Y-12195476D01*
X12984048Y-12185952D01*
X12974524Y-12176428D01*
X13260238Y-12062143D02*
X13260238Y-12195476D01*
X13212619Y-11985952D02*
X13165000Y-12128809D01*
X13288809Y-12128809D01*
X13355476Y-11995476D02*
X13355476Y-12033571D01*
X13431667Y-11995476D02*
X13431667Y-12033571D01*
X13726905Y-12271667D02*
X13717381Y-12262143D01*
X13698333Y-12233571D01*
X13688809Y-12214524D01*
X13679286Y-12185952D01*
X13669762Y-12138333D01*
X13669762Y-12100238D01*
X13679286Y-12052619D01*
X13688809Y-12024048D01*
X13698333Y-12005000D01*
X13717381Y-11976428D01*
X13726905Y-11966905D01*
X13793571Y-12014524D02*
X13803095Y-12005000D01*
X13822143Y-11995476D01*
X13869762Y-11995476D01*
X13888809Y-12005000D01*
X13898333Y-12014524D01*
X13907857Y-12033571D01*
X13907857Y-12052619D01*
X13898333Y-12081190D01*
X13784048Y-12195476D01*
X13907857Y-12195476D01*
X14145952Y-12195476D02*
X14145952Y-11995476D01*
X14231667Y-12195476D02*
X14231667Y-12090714D01*
X14222143Y-12071667D01*
X14203095Y-12062143D01*
X14174524Y-12062143D01*
X14155476Y-12071667D01*
X14145952Y-12081190D01*
X14355476Y-12195476D02*
X14336428Y-12185952D01*
X14326905Y-12176428D01*
X14317381Y-12157381D01*
X14317381Y-12100238D01*
X14326905Y-12081190D01*
X14336428Y-12071667D01*
X14355476Y-12062143D01*
X14384048Y-12062143D01*
X14403095Y-12071667D01*
X14412619Y-12081190D01*
X14422143Y-12100238D01*
X14422143Y-12157381D01*
X14412619Y-12176428D01*
X14403095Y-12185952D01*
X14384048Y-12195476D01*
X14355476Y-12195476D01*
X14536428Y-12195476D02*
X14517381Y-12185952D01*
X14507857Y-12166905D01*
X14507857Y-11995476D01*
X14688809Y-12185952D02*
X14669762Y-12195476D01*
X14631667Y-12195476D01*
X14612619Y-12185952D01*
X14603095Y-12166905D01*
X14603095Y-12090714D01*
X14612619Y-12071667D01*
X14631667Y-12062143D01*
X14669762Y-12062143D01*
X14688809Y-12071667D01*
X14698333Y-12090714D01*
X14698333Y-12109762D01*
X14603095Y-12128809D01*
X14774524Y-12185952D02*
X14793571Y-12195476D01*
X14831667Y-12195476D01*
X14850714Y-12185952D01*
X14860238Y-12166905D01*
X14860238Y-12157381D01*
X14850714Y-12138333D01*
X14831667Y-12128809D01*
X14803095Y-12128809D01*
X14784048Y-12119286D01*
X14774524Y-12100238D01*
X14774524Y-12090714D01*
X14784048Y-12071667D01*
X14803095Y-12062143D01*
X14831667Y-12062143D01*
X14850714Y-12071667D01*
X14926905Y-12271667D02*
X14936428Y-12262143D01*
X14955476Y-12233571D01*
X14965000Y-12214524D01*
X14974524Y-12185952D01*
X14984048Y-12138333D01*
X14984048Y-12100238D01*
X14974524Y-12052619D01*
X14965000Y-12024048D01*
X14955476Y-12005000D01*
X14936428Y-11976428D01*
X14926905Y-11966905D01*
D10*
X10105000Y-12419000D02*
X10155000Y-12369000D01*
X10105000Y-12319000D01*
X10055000Y-12369000D01*
X10105000Y-12419000D01*
D11*
X10517381Y-12459476D02*
X10403095Y-12459476D01*
X10460238Y-12459476D02*
X10460238Y-12259476D01*
X10441190Y-12288048D01*
X10422143Y-12307095D01*
X10403095Y-12316619D01*
X10603095Y-12440428D02*
X10612619Y-12449952D01*
X10603095Y-12459476D01*
X10593571Y-12449952D01*
X10603095Y-12440428D01*
X10603095Y-12459476D01*
X10736429Y-12259476D02*
X10755476Y-12259476D01*
X10774524Y-12269000D01*
X10784048Y-12278524D01*
X10793571Y-12297571D01*
X10803095Y-12335667D01*
X10803095Y-12383286D01*
X10793571Y-12421381D01*
X10784048Y-12440428D01*
X10774524Y-12449952D01*
X10755476Y-12459476D01*
X10736429Y-12459476D01*
X10717381Y-12449952D01*
X10707857Y-12440428D01*
X10698333Y-12421381D01*
X10688810Y-12383286D01*
X10688810Y-12335667D01*
X10698333Y-12297571D01*
X10707857Y-12278524D01*
X10717381Y-12269000D01*
X10736429Y-12259476D01*
X10926905Y-12259476D02*
X10945952Y-12259476D01*
X10965000Y-12269000D01*
X10974524Y-12278524D01*
X10984048Y-12297571D01*
X10993571Y-12335667D01*
X10993571Y-12383286D01*
X10984048Y-12421381D01*
X10974524Y-12440428D01*
X10965000Y-12449952D01*
X10945952Y-12459476D01*
X10926905Y-12459476D01*
X10907857Y-12449952D01*
X10898333Y-12440428D01*
X10888810Y-12421381D01*
X10879286Y-12383286D01*
X10879286Y-12335667D01*
X10888810Y-12297571D01*
X10898333Y-12278524D01*
X10907857Y-12269000D01*
X10926905Y-12259476D01*
X11117381Y-12259476D02*
X11136429Y-12259476D01*
X11155476Y-12269000D01*
X11165000Y-12278524D01*
X11174524Y-12297571D01*
X11184048Y-12335667D01*
X11184048Y-12383286D01*
X11174524Y-12421381D01*
X11165000Y-12440428D01*
X11155476Y-12449952D01*
X11136429Y-12459476D01*
X11117381Y-12459476D01*
X11098333Y-12449952D01*
X11088810Y-12440428D01*
X11079286Y-12421381D01*
X11069762Y-12383286D01*
X11069762Y-12335667D01*
X11079286Y-12297571D01*
X11088810Y-12278524D01*
X11098333Y-12269000D01*
X11117381Y-12259476D01*
X11269762Y-12459476D02*
X11269762Y-12326143D01*
X11269762Y-12345190D02*
X11279286Y-12335667D01*
X11298333Y-12326143D01*
X11326905Y-12326143D01*
X11345952Y-12335667D01*
X11355476Y-12354714D01*
X11355476Y-12459476D01*
X11355476Y-12354714D02*
X11365000Y-12335667D01*
X11384048Y-12326143D01*
X11412619Y-12326143D01*
X11431667Y-12335667D01*
X11441190Y-12354714D01*
X11441190Y-12459476D01*
X11536428Y-12459476D02*
X11536428Y-12326143D01*
X11536428Y-12345190D02*
X11545952Y-12335667D01*
X11565000Y-12326143D01*
X11593571Y-12326143D01*
X11612619Y-12335667D01*
X11622143Y-12354714D01*
X11622143Y-12459476D01*
X11622143Y-12354714D02*
X11631667Y-12335667D01*
X11650714Y-12326143D01*
X11679286Y-12326143D01*
X11698333Y-12335667D01*
X11707857Y-12354714D01*
X11707857Y-12459476D01*
X12098333Y-12249952D02*
X11926905Y-12507095D01*
X12355476Y-12259476D02*
X12374524Y-12259476D01*
X12393571Y-12269000D01*
X12403095Y-12278524D01*
X12412619Y-12297571D01*
X12422143Y-12335667D01*
X12422143Y-12383286D01*
X12412619Y-12421381D01*
X12403095Y-12440428D01*
X12393571Y-12449952D01*
X12374524Y-12459476D01*
X12355476Y-12459476D01*
X12336428Y-12449952D01*
X12326905Y-12440428D01*
X12317381Y-12421381D01*
X12307857Y-12383286D01*
X12307857Y-12335667D01*
X12317381Y-12297571D01*
X12326905Y-12278524D01*
X12336428Y-12269000D01*
X12355476Y-12259476D01*
X12507857Y-12440428D02*
X12517381Y-12449952D01*
X12507857Y-12459476D01*
X12498333Y-12449952D01*
X12507857Y-12440428D01*
X12507857Y-12459476D01*
X12641190Y-12259476D02*
X12660238Y-12259476D01*
X12679286Y-12269000D01*
X12688809Y-12278524D01*
X12698333Y-12297571D01*
X12707857Y-12335667D01*
X12707857Y-12383286D01*
X12698333Y-12421381D01*
X12688809Y-12440428D01*
X12679286Y-12449952D01*
X12660238Y-12459476D01*
X12641190Y-12459476D01*
X12622143Y-12449952D01*
X12612619Y-12440428D01*
X12603095Y-12421381D01*
X12593571Y-12383286D01*
X12593571Y-12335667D01*
X12603095Y-12297571D01*
X12612619Y-12278524D01*
X12622143Y-12269000D01*
X12641190Y-12259476D01*
X12774524Y-12259476D02*
X12898333Y-12259476D01*
X12831667Y-12335667D01*
X12860238Y-12335667D01*
X12879286Y-12345190D01*
X12888809Y-12354714D01*
X12898333Y-12373762D01*
X12898333Y-12421381D01*
X12888809Y-12440428D01*
X12879286Y-12449952D01*
X12860238Y-12459476D01*
X12803095Y-12459476D01*
X12784048Y-12449952D01*
X12774524Y-12440428D01*
X12993571Y-12459476D02*
X13031667Y-12459476D01*
X13050714Y-12449952D01*
X13060238Y-12440428D01*
X13079286Y-12411857D01*
X13088809Y-12373762D01*
X13088809Y-12297571D01*
X13079286Y-12278524D01*
X13069762Y-12269000D01*
X13050714Y-12259476D01*
X13012619Y-12259476D01*
X12993571Y-12269000D01*
X12984048Y-12278524D01*
X12974524Y-12297571D01*
X12974524Y-12345190D01*
X12984048Y-12364238D01*
X12993571Y-12373762D01*
X13012619Y-12383286D01*
X13050714Y-12383286D01*
X13069762Y-12373762D01*
X13079286Y-12364238D01*
X13088809Y-12345190D01*
X13260238Y-12326143D02*
X13260238Y-12459476D01*
X13212619Y-12249952D02*
X13165000Y-12392809D01*
X13288809Y-12392809D01*
X13355476Y-12259476D02*
X13355476Y-12297571D01*
X13431667Y-12259476D02*
X13431667Y-12297571D01*
X13726905Y-12535667D02*
X13717381Y-12526143D01*
X13698333Y-12497571D01*
X13688809Y-12478524D01*
X13679286Y-12449952D01*
X13669762Y-12402333D01*
X13669762Y-12364238D01*
X13679286Y-12316619D01*
X13688809Y-12288048D01*
X13698333Y-12269000D01*
X13717381Y-12240428D01*
X13726905Y-12230905D01*
X13907857Y-12459476D02*
X13793571Y-12459476D01*
X13850714Y-12459476D02*
X13850714Y-12259476D01*
X13831667Y-12288048D01*
X13812619Y-12307095D01*
X13793571Y-12316619D01*
X14079286Y-12259476D02*
X14041190Y-12259476D01*
X14022143Y-12269000D01*
X14012619Y-12278524D01*
X13993571Y-12307095D01*
X13984048Y-12345190D01*
X13984048Y-12421381D01*
X13993571Y-12440428D01*
X14003095Y-12449952D01*
X14022143Y-12459476D01*
X14060238Y-12459476D01*
X14079286Y-12449952D01*
X14088809Y-12440428D01*
X14098333Y-12421381D01*
X14098333Y-12373762D01*
X14088809Y-12354714D01*
X14079286Y-12345190D01*
X14060238Y-12335667D01*
X14022143Y-12335667D01*
X14003095Y-12345190D01*
X13993571Y-12354714D01*
X13984048Y-12373762D01*
X14336428Y-12459476D02*
X14336428Y-12259476D01*
X14422143Y-12459476D02*
X14422143Y-12354714D01*
X14412619Y-12335667D01*
X14393571Y-12326143D01*
X14365000Y-12326143D01*
X14345952Y-12335667D01*
X14336428Y-12345190D01*
X14545952Y-12459476D02*
X14526905Y-12449952D01*
X14517381Y-12440428D01*
X14507857Y-12421381D01*
X14507857Y-12364238D01*
X14517381Y-12345190D01*
X14526905Y-12335667D01*
X14545952Y-12326143D01*
X14574524Y-12326143D01*
X14593571Y-12335667D01*
X14603095Y-12345190D01*
X14612619Y-12364238D01*
X14612619Y-12421381D01*
X14603095Y-12440428D01*
X14593571Y-12449952D01*
X14574524Y-12459476D01*
X14545952Y-12459476D01*
X14726905Y-12459476D02*
X14707857Y-12449952D01*
X14698333Y-12430905D01*
X14698333Y-12259476D01*
X14879286Y-12449952D02*
X14860238Y-12459476D01*
X14822143Y-12459476D01*
X14803095Y-12449952D01*
X14793571Y-12430905D01*
X14793571Y-12354714D01*
X14803095Y-12335667D01*
X14822143Y-12326143D01*
X14860238Y-12326143D01*
X14879286Y-12335667D01*
X14888809Y-12354714D01*
X14888809Y-12373762D01*
X14793571Y-12392809D01*
X14965000Y-12449952D02*
X14984048Y-12459476D01*
X15022143Y-12459476D01*
X15041190Y-12449952D01*
X15050714Y-12430905D01*
X15050714Y-12421381D01*
X15041190Y-12402333D01*
X15022143Y-12392809D01*
X14993571Y-12392809D01*
X14974524Y-12383286D01*
X14965000Y-12364238D01*
X14965000Y-12354714D01*
X14974524Y-12335667D01*
X14993571Y-12326143D01*
X15022143Y-12326143D01*
X15041190Y-12335667D01*
X15117381Y-12535667D02*
X15126905Y-12526143D01*
X15145952Y-12497571D01*
X15155476Y-12478524D01*
X15165000Y-12449952D01*
X15174524Y-12402333D01*
X15174524Y-12364238D01*
X15165000Y-12316619D01*
X15155476Y-12288048D01*
X15145952Y-12269000D01*
X15126905Y-12240428D01*
X15117381Y-12230905D01*
D16*
X10045000Y-12578000D02*
X10155000Y-12688000D01*
X10155000Y-12578000D02*
X10045000Y-12688000D01*
X10155000Y-12633000D02*
G75*
G03*
X10155000Y-12633000I-55000J0D01*
G01*
D11*
X10517381Y-12723476D02*
X10403095Y-12723476D01*
X10460238Y-12723476D02*
X10460238Y-12523476D01*
X10441190Y-12552048D01*
X10422143Y-12571095D01*
X10403095Y-12580619D01*
X10603095Y-12704428D02*
X10612619Y-12713952D01*
X10603095Y-12723476D01*
X10593571Y-12713952D01*
X10603095Y-12704428D01*
X10603095Y-12723476D01*
X10803095Y-12723476D02*
X10688810Y-12723476D01*
X10745952Y-12723476D02*
X10745952Y-12523476D01*
X10726905Y-12552048D01*
X10707857Y-12571095D01*
X10688810Y-12580619D01*
X10926905Y-12523476D02*
X10945952Y-12523476D01*
X10965000Y-12533000D01*
X10974524Y-12542524D01*
X10984048Y-12561571D01*
X10993571Y-12599667D01*
X10993571Y-12647286D01*
X10984048Y-12685381D01*
X10974524Y-12704428D01*
X10965000Y-12713952D01*
X10945952Y-12723476D01*
X10926905Y-12723476D01*
X10907857Y-12713952D01*
X10898333Y-12704428D01*
X10888810Y-12685381D01*
X10879286Y-12647286D01*
X10879286Y-12599667D01*
X10888810Y-12561571D01*
X10898333Y-12542524D01*
X10907857Y-12533000D01*
X10926905Y-12523476D01*
X11117381Y-12523476D02*
X11136429Y-12523476D01*
X11155476Y-12533000D01*
X11165000Y-12542524D01*
X11174524Y-12561571D01*
X11184048Y-12599667D01*
X11184048Y-12647286D01*
X11174524Y-12685381D01*
X11165000Y-12704428D01*
X11155476Y-12713952D01*
X11136429Y-12723476D01*
X11117381Y-12723476D01*
X11098333Y-12713952D01*
X11088810Y-12704428D01*
X11079286Y-12685381D01*
X11069762Y-12647286D01*
X11069762Y-12599667D01*
X11079286Y-12561571D01*
X11088810Y-12542524D01*
X11098333Y-12533000D01*
X11117381Y-12523476D01*
X11269762Y-12723476D02*
X11269762Y-12590143D01*
X11269762Y-12609190D02*
X11279286Y-12599667D01*
X11298333Y-12590143D01*
X11326905Y-12590143D01*
X11345952Y-12599667D01*
X11355476Y-12618714D01*
X11355476Y-12723476D01*
X11355476Y-12618714D02*
X11365000Y-12599667D01*
X11384048Y-12590143D01*
X11412619Y-12590143D01*
X11431667Y-12599667D01*
X11441190Y-12618714D01*
X11441190Y-12723476D01*
X11536428Y-12723476D02*
X11536428Y-12590143D01*
X11536428Y-12609190D02*
X11545952Y-12599667D01*
X11565000Y-12590143D01*
X11593571Y-12590143D01*
X11612619Y-12599667D01*
X11622143Y-12618714D01*
X11622143Y-12723476D01*
X11622143Y-12618714D02*
X11631667Y-12599667D01*
X11650714Y-12590143D01*
X11679286Y-12590143D01*
X11698333Y-12599667D01*
X11707857Y-12618714D01*
X11707857Y-12723476D01*
X12098333Y-12513952D02*
X11926905Y-12771095D01*
X12355476Y-12523476D02*
X12374524Y-12523476D01*
X12393571Y-12533000D01*
X12403095Y-12542524D01*
X12412619Y-12561571D01*
X12422143Y-12599667D01*
X12422143Y-12647286D01*
X12412619Y-12685381D01*
X12403095Y-12704428D01*
X12393571Y-12713952D01*
X12374524Y-12723476D01*
X12355476Y-12723476D01*
X12336428Y-12713952D01*
X12326905Y-12704428D01*
X12317381Y-12685381D01*
X12307857Y-12647286D01*
X12307857Y-12599667D01*
X12317381Y-12561571D01*
X12326905Y-12542524D01*
X12336428Y-12533000D01*
X12355476Y-12523476D01*
X12507857Y-12704428D02*
X12517381Y-12713952D01*
X12507857Y-12723476D01*
X12498333Y-12713952D01*
X12507857Y-12704428D01*
X12507857Y-12723476D01*
X12641190Y-12523476D02*
X12660238Y-12523476D01*
X12679286Y-12533000D01*
X12688809Y-12542524D01*
X12698333Y-12561571D01*
X12707857Y-12599667D01*
X12707857Y-12647286D01*
X12698333Y-12685381D01*
X12688809Y-12704428D01*
X12679286Y-12713952D01*
X12660238Y-12723476D01*
X12641190Y-12723476D01*
X12622143Y-12713952D01*
X12612619Y-12704428D01*
X12603095Y-12685381D01*
X12593571Y-12647286D01*
X12593571Y-12599667D01*
X12603095Y-12561571D01*
X12612619Y-12542524D01*
X12622143Y-12533000D01*
X12641190Y-12523476D01*
X12879286Y-12590143D02*
X12879286Y-12723476D01*
X12831667Y-12513952D02*
X12784048Y-12656809D01*
X12907857Y-12656809D01*
X12965000Y-12523476D02*
X13088809Y-12523476D01*
X13022143Y-12599667D01*
X13050714Y-12599667D01*
X13069762Y-12609190D01*
X13079286Y-12618714D01*
X13088809Y-12637762D01*
X13088809Y-12685381D01*
X13079286Y-12704428D01*
X13069762Y-12713952D01*
X13050714Y-12723476D01*
X12993571Y-12723476D01*
X12974524Y-12713952D01*
X12965000Y-12704428D01*
X13155476Y-12523476D02*
X13279286Y-12523476D01*
X13212619Y-12599667D01*
X13241190Y-12599667D01*
X13260238Y-12609190D01*
X13269762Y-12618714D01*
X13279286Y-12637762D01*
X13279286Y-12685381D01*
X13269762Y-12704428D01*
X13260238Y-12713952D01*
X13241190Y-12723476D01*
X13184048Y-12723476D01*
X13165000Y-12713952D01*
X13155476Y-12704428D01*
X13355476Y-12523476D02*
X13355476Y-12561571D01*
X13431667Y-12523476D02*
X13431667Y-12561571D01*
X13726905Y-12799667D02*
X13717381Y-12790143D01*
X13698333Y-12761571D01*
X13688809Y-12742524D01*
X13679286Y-12713952D01*
X13669762Y-12666333D01*
X13669762Y-12628238D01*
X13679286Y-12580619D01*
X13688809Y-12552048D01*
X13698333Y-12533000D01*
X13717381Y-12504428D01*
X13726905Y-12494905D01*
X13888809Y-12590143D02*
X13888809Y-12723476D01*
X13841190Y-12513952D02*
X13793571Y-12656809D01*
X13917381Y-12656809D01*
X14145952Y-12723476D02*
X14145952Y-12523476D01*
X14231667Y-12723476D02*
X14231667Y-12618714D01*
X14222143Y-12599667D01*
X14203095Y-12590143D01*
X14174524Y-12590143D01*
X14155476Y-12599667D01*
X14145952Y-12609190D01*
X14355476Y-12723476D02*
X14336428Y-12713952D01*
X14326905Y-12704428D01*
X14317381Y-12685381D01*
X14317381Y-12628238D01*
X14326905Y-12609190D01*
X14336428Y-12599667D01*
X14355476Y-12590143D01*
X14384048Y-12590143D01*
X14403095Y-12599667D01*
X14412619Y-12609190D01*
X14422143Y-12628238D01*
X14422143Y-12685381D01*
X14412619Y-12704428D01*
X14403095Y-12713952D01*
X14384048Y-12723476D01*
X14355476Y-12723476D01*
X14536428Y-12723476D02*
X14517381Y-12713952D01*
X14507857Y-12694905D01*
X14507857Y-12523476D01*
X14688809Y-12713952D02*
X14669762Y-12723476D01*
X14631667Y-12723476D01*
X14612619Y-12713952D01*
X14603095Y-12694905D01*
X14603095Y-12618714D01*
X14612619Y-12599667D01*
X14631667Y-12590143D01*
X14669762Y-12590143D01*
X14688809Y-12599667D01*
X14698333Y-12618714D01*
X14698333Y-12637762D01*
X14603095Y-12656809D01*
X14774524Y-12713952D02*
X14793571Y-12723476D01*
X14831667Y-12723476D01*
X14850714Y-12713952D01*
X14860238Y-12694905D01*
X14860238Y-12685381D01*
X14850714Y-12666333D01*
X14831667Y-12656809D01*
X14803095Y-12656809D01*
X14784048Y-12647286D01*
X14774524Y-12628238D01*
X14774524Y-12618714D01*
X14784048Y-12599667D01*
X14803095Y-12590143D01*
X14831667Y-12590143D01*
X14850714Y-12599667D01*
X14926905Y-12799667D02*
X14936428Y-12790143D01*
X14955476Y-12761571D01*
X14965000Y-12742524D01*
X14974524Y-12713952D01*
X14984048Y-12666333D01*
X14984048Y-12628238D01*
X14974524Y-12580619D01*
X14965000Y-12552048D01*
X14955476Y-12533000D01*
X14936428Y-12504428D01*
X14926905Y-12494905D01*
M02*
