%TF.GenerationSoftware,KiCad,Pcbnew,7.0.2*%
%TF.CreationDate,2023-08-26T08:56:58-07:00*%
%TF.ProjectId,Current Sense Standalone,43757272-656e-4742-9053-656e73652053,rev?*%
%TF.SameCoordinates,Original*%
%TF.FileFunction,Drillmap*%
%TF.FilePolarity,Positive*%
%FSLAX45Y45*%
G04 Gerber Fmt 4.5, Leading zero omitted, Abs format (unit mm)*
G04 Created by KiCad (PCBNEW 7.0.2) date 2023-08-26 08:56:58*
%MOMM*%
%LPD*%
G01*
G04 APERTURE LIST*
%ADD10C,0.200000*%
%ADD11C,0.100000*%
%ADD12C,0.450000*%
G04 APERTURE END LIST*
D10*
X1260615Y-1270000D02*
X7493000Y-1270000D01*
X7493000Y-3702648D01*
X1260615Y-3702648D01*
X1260615Y-1270000D01*
D11*
X3760000Y-1728000D02*
X3860000Y-1828000D01*
X3860000Y-1728000D02*
X3760000Y-1828000D01*
X4014000Y-1728000D02*
X4114000Y-1828000D01*
X4114000Y-1728000D02*
X4014000Y-1828000D01*
X4776000Y-1982000D02*
X4876000Y-2082000D01*
X4876000Y-1982000D02*
X4776000Y-2082000D01*
X5030000Y-1982000D02*
X5130000Y-2082000D01*
X5130000Y-1982000D02*
X5030000Y-2082000D01*
X5665000Y-1982000D02*
X5765000Y-2082000D01*
X5765000Y-1982000D02*
X5665000Y-2082000D01*
X5919000Y-1982000D02*
X6019000Y-2082000D01*
X6019000Y-1982000D02*
X5919000Y-2082000D01*
D12*
X2090094Y-2201000D02*
G75*
G03*
X2090094Y-2201000I-225000J0D01*
G01*
X2090094Y-2921000D02*
G75*
G03*
X2090094Y-2921000I-225000J0D01*
G01*
X7059404Y-2201000D02*
G75*
G03*
X7059404Y-2201000I-225000J0D01*
G01*
X7059404Y-2921000D02*
G75*
G03*
X7059404Y-2921000I-225000J0D01*
G01*
D10*
X1498234Y-4025172D02*
X1498234Y-3825172D01*
X1498234Y-3825172D02*
X1545853Y-3825172D01*
X1545853Y-3825172D02*
X1574425Y-3834695D01*
X1574425Y-3834695D02*
X1593472Y-3853743D01*
X1593472Y-3853743D02*
X1602996Y-3872791D01*
X1602996Y-3872791D02*
X1612520Y-3910886D01*
X1612520Y-3910886D02*
X1612520Y-3939457D01*
X1612520Y-3939457D02*
X1602996Y-3977552D01*
X1602996Y-3977552D02*
X1593472Y-3996600D01*
X1593472Y-3996600D02*
X1574425Y-4015648D01*
X1574425Y-4015648D02*
X1545853Y-4025172D01*
X1545853Y-4025172D02*
X1498234Y-4025172D01*
X1698234Y-4025172D02*
X1698234Y-3891838D01*
X1698234Y-3929933D02*
X1707758Y-3910886D01*
X1707758Y-3910886D02*
X1717282Y-3901362D01*
X1717282Y-3901362D02*
X1736329Y-3891838D01*
X1736329Y-3891838D02*
X1755377Y-3891838D01*
X1822044Y-4025172D02*
X1822044Y-3891838D01*
X1822044Y-3825172D02*
X1812520Y-3834695D01*
X1812520Y-3834695D02*
X1822044Y-3844219D01*
X1822044Y-3844219D02*
X1831568Y-3834695D01*
X1831568Y-3834695D02*
X1822044Y-3825172D01*
X1822044Y-3825172D02*
X1822044Y-3844219D01*
X1945853Y-4025172D02*
X1926806Y-4015648D01*
X1926806Y-4015648D02*
X1917282Y-3996600D01*
X1917282Y-3996600D02*
X1917282Y-3825172D01*
X2050615Y-4025172D02*
X2031568Y-4015648D01*
X2031568Y-4015648D02*
X2022044Y-3996600D01*
X2022044Y-3996600D02*
X2022044Y-3825172D01*
X2279187Y-4025172D02*
X2279187Y-3825172D01*
X2279187Y-3825172D02*
X2345853Y-3968029D01*
X2345853Y-3968029D02*
X2412520Y-3825172D01*
X2412520Y-3825172D02*
X2412520Y-4025172D01*
X2593472Y-4025172D02*
X2593472Y-3920410D01*
X2593472Y-3920410D02*
X2583949Y-3901362D01*
X2583949Y-3901362D02*
X2564901Y-3891838D01*
X2564901Y-3891838D02*
X2526806Y-3891838D01*
X2526806Y-3891838D02*
X2507758Y-3901362D01*
X2593472Y-4015648D02*
X2574425Y-4025172D01*
X2574425Y-4025172D02*
X2526806Y-4025172D01*
X2526806Y-4025172D02*
X2507758Y-4015648D01*
X2507758Y-4015648D02*
X2498234Y-3996600D01*
X2498234Y-3996600D02*
X2498234Y-3977552D01*
X2498234Y-3977552D02*
X2507758Y-3958505D01*
X2507758Y-3958505D02*
X2526806Y-3948981D01*
X2526806Y-3948981D02*
X2574425Y-3948981D01*
X2574425Y-3948981D02*
X2593472Y-3939457D01*
X2688711Y-3891838D02*
X2688711Y-4091838D01*
X2688711Y-3901362D02*
X2707758Y-3891838D01*
X2707758Y-3891838D02*
X2745853Y-3891838D01*
X2745853Y-3891838D02*
X2764901Y-3901362D01*
X2764901Y-3901362D02*
X2774425Y-3910886D01*
X2774425Y-3910886D02*
X2783949Y-3929933D01*
X2783949Y-3929933D02*
X2783949Y-3987076D01*
X2783949Y-3987076D02*
X2774425Y-4006124D01*
X2774425Y-4006124D02*
X2764901Y-4015648D01*
X2764901Y-4015648D02*
X2745853Y-4025172D01*
X2745853Y-4025172D02*
X2707758Y-4025172D01*
X2707758Y-4025172D02*
X2688711Y-4015648D01*
X2869663Y-4006124D02*
X2879187Y-4015648D01*
X2879187Y-4015648D02*
X2869663Y-4025172D01*
X2869663Y-4025172D02*
X2860139Y-4015648D01*
X2860139Y-4015648D02*
X2869663Y-4006124D01*
X2869663Y-4006124D02*
X2869663Y-4025172D01*
X2869663Y-3901362D02*
X2879187Y-3910886D01*
X2879187Y-3910886D02*
X2869663Y-3920410D01*
X2869663Y-3920410D02*
X2860139Y-3910886D01*
X2860139Y-3910886D02*
X2869663Y-3901362D01*
X2869663Y-3901362D02*
X2869663Y-3920410D01*
D11*
X1150615Y-4302648D02*
X1250615Y-4402648D01*
X1250615Y-4302648D02*
X1150615Y-4402648D01*
D10*
X1602996Y-4445172D02*
X1488710Y-4445172D01*
X1545853Y-4445172D02*
X1545853Y-4245172D01*
X1545853Y-4245172D02*
X1526806Y-4273743D01*
X1526806Y-4273743D02*
X1507758Y-4292791D01*
X1507758Y-4292791D02*
X1488710Y-4302314D01*
X1688710Y-4426124D02*
X1698234Y-4435648D01*
X1698234Y-4435648D02*
X1688710Y-4445172D01*
X1688710Y-4445172D02*
X1679187Y-4435648D01*
X1679187Y-4435648D02*
X1688710Y-4426124D01*
X1688710Y-4426124D02*
X1688710Y-4445172D01*
X1822044Y-4245172D02*
X1841091Y-4245172D01*
X1841091Y-4245172D02*
X1860139Y-4254695D01*
X1860139Y-4254695D02*
X1869663Y-4264219D01*
X1869663Y-4264219D02*
X1879187Y-4283267D01*
X1879187Y-4283267D02*
X1888710Y-4321362D01*
X1888710Y-4321362D02*
X1888710Y-4368981D01*
X1888710Y-4368981D02*
X1879187Y-4407076D01*
X1879187Y-4407076D02*
X1869663Y-4426124D01*
X1869663Y-4426124D02*
X1860139Y-4435648D01*
X1860139Y-4435648D02*
X1841091Y-4445172D01*
X1841091Y-4445172D02*
X1822044Y-4445172D01*
X1822044Y-4445172D02*
X1802996Y-4435648D01*
X1802996Y-4435648D02*
X1793472Y-4426124D01*
X1793472Y-4426124D02*
X1783949Y-4407076D01*
X1783949Y-4407076D02*
X1774425Y-4368981D01*
X1774425Y-4368981D02*
X1774425Y-4321362D01*
X1774425Y-4321362D02*
X1783949Y-4283267D01*
X1783949Y-4283267D02*
X1793472Y-4264219D01*
X1793472Y-4264219D02*
X1802996Y-4254695D01*
X1802996Y-4254695D02*
X1822044Y-4245172D01*
X2012520Y-4245172D02*
X2031568Y-4245172D01*
X2031568Y-4245172D02*
X2050615Y-4254695D01*
X2050615Y-4254695D02*
X2060139Y-4264219D01*
X2060139Y-4264219D02*
X2069663Y-4283267D01*
X2069663Y-4283267D02*
X2079187Y-4321362D01*
X2079187Y-4321362D02*
X2079187Y-4368981D01*
X2079187Y-4368981D02*
X2069663Y-4407076D01*
X2069663Y-4407076D02*
X2060139Y-4426124D01*
X2060139Y-4426124D02*
X2050615Y-4435648D01*
X2050615Y-4435648D02*
X2031568Y-4445172D01*
X2031568Y-4445172D02*
X2012520Y-4445172D01*
X2012520Y-4445172D02*
X1993472Y-4435648D01*
X1993472Y-4435648D02*
X1983949Y-4426124D01*
X1983949Y-4426124D02*
X1974425Y-4407076D01*
X1974425Y-4407076D02*
X1964901Y-4368981D01*
X1964901Y-4368981D02*
X1964901Y-4321362D01*
X1964901Y-4321362D02*
X1974425Y-4283267D01*
X1974425Y-4283267D02*
X1983949Y-4264219D01*
X1983949Y-4264219D02*
X1993472Y-4254695D01*
X1993472Y-4254695D02*
X2012520Y-4245172D01*
X2202996Y-4245172D02*
X2222044Y-4245172D01*
X2222044Y-4245172D02*
X2241092Y-4254695D01*
X2241092Y-4254695D02*
X2250615Y-4264219D01*
X2250615Y-4264219D02*
X2260139Y-4283267D01*
X2260139Y-4283267D02*
X2269663Y-4321362D01*
X2269663Y-4321362D02*
X2269663Y-4368981D01*
X2269663Y-4368981D02*
X2260139Y-4407076D01*
X2260139Y-4407076D02*
X2250615Y-4426124D01*
X2250615Y-4426124D02*
X2241092Y-4435648D01*
X2241092Y-4435648D02*
X2222044Y-4445172D01*
X2222044Y-4445172D02*
X2202996Y-4445172D01*
X2202996Y-4445172D02*
X2183949Y-4435648D01*
X2183949Y-4435648D02*
X2174425Y-4426124D01*
X2174425Y-4426124D02*
X2164901Y-4407076D01*
X2164901Y-4407076D02*
X2155377Y-4368981D01*
X2155377Y-4368981D02*
X2155377Y-4321362D01*
X2155377Y-4321362D02*
X2164901Y-4283267D01*
X2164901Y-4283267D02*
X2174425Y-4264219D01*
X2174425Y-4264219D02*
X2183949Y-4254695D01*
X2183949Y-4254695D02*
X2202996Y-4245172D01*
X2355377Y-4445172D02*
X2355377Y-4311838D01*
X2355377Y-4330886D02*
X2364901Y-4321362D01*
X2364901Y-4321362D02*
X2383949Y-4311838D01*
X2383949Y-4311838D02*
X2412520Y-4311838D01*
X2412520Y-4311838D02*
X2431568Y-4321362D01*
X2431568Y-4321362D02*
X2441092Y-4340410D01*
X2441092Y-4340410D02*
X2441092Y-4445172D01*
X2441092Y-4340410D02*
X2450615Y-4321362D01*
X2450615Y-4321362D02*
X2469663Y-4311838D01*
X2469663Y-4311838D02*
X2498234Y-4311838D01*
X2498234Y-4311838D02*
X2517282Y-4321362D01*
X2517282Y-4321362D02*
X2526806Y-4340410D01*
X2526806Y-4340410D02*
X2526806Y-4445172D01*
X2622044Y-4445172D02*
X2622044Y-4311838D01*
X2622044Y-4330886D02*
X2631568Y-4321362D01*
X2631568Y-4321362D02*
X2650615Y-4311838D01*
X2650615Y-4311838D02*
X2679187Y-4311838D01*
X2679187Y-4311838D02*
X2698234Y-4321362D01*
X2698234Y-4321362D02*
X2707758Y-4340410D01*
X2707758Y-4340410D02*
X2707758Y-4445172D01*
X2707758Y-4340410D02*
X2717282Y-4321362D01*
X2717282Y-4321362D02*
X2736330Y-4311838D01*
X2736330Y-4311838D02*
X2764901Y-4311838D01*
X2764901Y-4311838D02*
X2783949Y-4321362D01*
X2783949Y-4321362D02*
X2793473Y-4340410D01*
X2793473Y-4340410D02*
X2793473Y-4445172D01*
X3183949Y-4235648D02*
X3012520Y-4492791D01*
X3441092Y-4245172D02*
X3460139Y-4245172D01*
X3460139Y-4245172D02*
X3479187Y-4254695D01*
X3479187Y-4254695D02*
X3488711Y-4264219D01*
X3488711Y-4264219D02*
X3498234Y-4283267D01*
X3498234Y-4283267D02*
X3507758Y-4321362D01*
X3507758Y-4321362D02*
X3507758Y-4368981D01*
X3507758Y-4368981D02*
X3498234Y-4407076D01*
X3498234Y-4407076D02*
X3488711Y-4426124D01*
X3488711Y-4426124D02*
X3479187Y-4435648D01*
X3479187Y-4435648D02*
X3460139Y-4445172D01*
X3460139Y-4445172D02*
X3441092Y-4445172D01*
X3441092Y-4445172D02*
X3422044Y-4435648D01*
X3422044Y-4435648D02*
X3412520Y-4426124D01*
X3412520Y-4426124D02*
X3402996Y-4407076D01*
X3402996Y-4407076D02*
X3393473Y-4368981D01*
X3393473Y-4368981D02*
X3393473Y-4321362D01*
X3393473Y-4321362D02*
X3402996Y-4283267D01*
X3402996Y-4283267D02*
X3412520Y-4264219D01*
X3412520Y-4264219D02*
X3422044Y-4254695D01*
X3422044Y-4254695D02*
X3441092Y-4245172D01*
X3593473Y-4426124D02*
X3602996Y-4435648D01*
X3602996Y-4435648D02*
X3593473Y-4445172D01*
X3593473Y-4445172D02*
X3583949Y-4435648D01*
X3583949Y-4435648D02*
X3593473Y-4426124D01*
X3593473Y-4426124D02*
X3593473Y-4445172D01*
X3726806Y-4245172D02*
X3745854Y-4245172D01*
X3745854Y-4245172D02*
X3764901Y-4254695D01*
X3764901Y-4254695D02*
X3774425Y-4264219D01*
X3774425Y-4264219D02*
X3783949Y-4283267D01*
X3783949Y-4283267D02*
X3793473Y-4321362D01*
X3793473Y-4321362D02*
X3793473Y-4368981D01*
X3793473Y-4368981D02*
X3783949Y-4407076D01*
X3783949Y-4407076D02*
X3774425Y-4426124D01*
X3774425Y-4426124D02*
X3764901Y-4435648D01*
X3764901Y-4435648D02*
X3745854Y-4445172D01*
X3745854Y-4445172D02*
X3726806Y-4445172D01*
X3726806Y-4445172D02*
X3707758Y-4435648D01*
X3707758Y-4435648D02*
X3698234Y-4426124D01*
X3698234Y-4426124D02*
X3688711Y-4407076D01*
X3688711Y-4407076D02*
X3679187Y-4368981D01*
X3679187Y-4368981D02*
X3679187Y-4321362D01*
X3679187Y-4321362D02*
X3688711Y-4283267D01*
X3688711Y-4283267D02*
X3698234Y-4264219D01*
X3698234Y-4264219D02*
X3707758Y-4254695D01*
X3707758Y-4254695D02*
X3726806Y-4245172D01*
X3860139Y-4245172D02*
X3983949Y-4245172D01*
X3983949Y-4245172D02*
X3917282Y-4321362D01*
X3917282Y-4321362D02*
X3945854Y-4321362D01*
X3945854Y-4321362D02*
X3964901Y-4330886D01*
X3964901Y-4330886D02*
X3974425Y-4340410D01*
X3974425Y-4340410D02*
X3983949Y-4359457D01*
X3983949Y-4359457D02*
X3983949Y-4407076D01*
X3983949Y-4407076D02*
X3974425Y-4426124D01*
X3974425Y-4426124D02*
X3964901Y-4435648D01*
X3964901Y-4435648D02*
X3945854Y-4445172D01*
X3945854Y-4445172D02*
X3888711Y-4445172D01*
X3888711Y-4445172D02*
X3869663Y-4435648D01*
X3869663Y-4435648D02*
X3860139Y-4426124D01*
X4079187Y-4445172D02*
X4117282Y-4445172D01*
X4117282Y-4445172D02*
X4136330Y-4435648D01*
X4136330Y-4435648D02*
X4145854Y-4426124D01*
X4145854Y-4426124D02*
X4164901Y-4397553D01*
X4164901Y-4397553D02*
X4174425Y-4359457D01*
X4174425Y-4359457D02*
X4174425Y-4283267D01*
X4174425Y-4283267D02*
X4164901Y-4264219D01*
X4164901Y-4264219D02*
X4155377Y-4254695D01*
X4155377Y-4254695D02*
X4136330Y-4245172D01*
X4136330Y-4245172D02*
X4098234Y-4245172D01*
X4098234Y-4245172D02*
X4079187Y-4254695D01*
X4079187Y-4254695D02*
X4069663Y-4264219D01*
X4069663Y-4264219D02*
X4060139Y-4283267D01*
X4060139Y-4283267D02*
X4060139Y-4330886D01*
X4060139Y-4330886D02*
X4069663Y-4349934D01*
X4069663Y-4349934D02*
X4079187Y-4359457D01*
X4079187Y-4359457D02*
X4098234Y-4368981D01*
X4098234Y-4368981D02*
X4136330Y-4368981D01*
X4136330Y-4368981D02*
X4155377Y-4359457D01*
X4155377Y-4359457D02*
X4164901Y-4349934D01*
X4164901Y-4349934D02*
X4174425Y-4330886D01*
X4345854Y-4311838D02*
X4345854Y-4445172D01*
X4298235Y-4235648D02*
X4250616Y-4378505D01*
X4250616Y-4378505D02*
X4374425Y-4378505D01*
X4441092Y-4245172D02*
X4441092Y-4283267D01*
X4517282Y-4245172D02*
X4517282Y-4283267D01*
X4812520Y-4521362D02*
X4802997Y-4511838D01*
X4802997Y-4511838D02*
X4783949Y-4483267D01*
X4783949Y-4483267D02*
X4774425Y-4464219D01*
X4774425Y-4464219D02*
X4764901Y-4435648D01*
X4764901Y-4435648D02*
X4755378Y-4388029D01*
X4755378Y-4388029D02*
X4755378Y-4349934D01*
X4755378Y-4349934D02*
X4764901Y-4302314D01*
X4764901Y-4302314D02*
X4774425Y-4273743D01*
X4774425Y-4273743D02*
X4783949Y-4254695D01*
X4783949Y-4254695D02*
X4802997Y-4226124D01*
X4802997Y-4226124D02*
X4812520Y-4216600D01*
X4974425Y-4245172D02*
X4936330Y-4245172D01*
X4936330Y-4245172D02*
X4917282Y-4254695D01*
X4917282Y-4254695D02*
X4907758Y-4264219D01*
X4907758Y-4264219D02*
X4888711Y-4292791D01*
X4888711Y-4292791D02*
X4879187Y-4330886D01*
X4879187Y-4330886D02*
X4879187Y-4407076D01*
X4879187Y-4407076D02*
X4888711Y-4426124D01*
X4888711Y-4426124D02*
X4898235Y-4435648D01*
X4898235Y-4435648D02*
X4917282Y-4445172D01*
X4917282Y-4445172D02*
X4955378Y-4445172D01*
X4955378Y-4445172D02*
X4974425Y-4435648D01*
X4974425Y-4435648D02*
X4983949Y-4426124D01*
X4983949Y-4426124D02*
X4993473Y-4407076D01*
X4993473Y-4407076D02*
X4993473Y-4359457D01*
X4993473Y-4359457D02*
X4983949Y-4340410D01*
X4983949Y-4340410D02*
X4974425Y-4330886D01*
X4974425Y-4330886D02*
X4955378Y-4321362D01*
X4955378Y-4321362D02*
X4917282Y-4321362D01*
X4917282Y-4321362D02*
X4898235Y-4330886D01*
X4898235Y-4330886D02*
X4888711Y-4340410D01*
X4888711Y-4340410D02*
X4879187Y-4359457D01*
X5231568Y-4445172D02*
X5231568Y-4245172D01*
X5317282Y-4445172D02*
X5317282Y-4340410D01*
X5317282Y-4340410D02*
X5307759Y-4321362D01*
X5307759Y-4321362D02*
X5288711Y-4311838D01*
X5288711Y-4311838D02*
X5260139Y-4311838D01*
X5260139Y-4311838D02*
X5241092Y-4321362D01*
X5241092Y-4321362D02*
X5231568Y-4330886D01*
X5441092Y-4445172D02*
X5422044Y-4435648D01*
X5422044Y-4435648D02*
X5412520Y-4426124D01*
X5412520Y-4426124D02*
X5402997Y-4407076D01*
X5402997Y-4407076D02*
X5402997Y-4349934D01*
X5402997Y-4349934D02*
X5412520Y-4330886D01*
X5412520Y-4330886D02*
X5422044Y-4321362D01*
X5422044Y-4321362D02*
X5441092Y-4311838D01*
X5441092Y-4311838D02*
X5469663Y-4311838D01*
X5469663Y-4311838D02*
X5488711Y-4321362D01*
X5488711Y-4321362D02*
X5498235Y-4330886D01*
X5498235Y-4330886D02*
X5507759Y-4349934D01*
X5507759Y-4349934D02*
X5507759Y-4407076D01*
X5507759Y-4407076D02*
X5498235Y-4426124D01*
X5498235Y-4426124D02*
X5488711Y-4435648D01*
X5488711Y-4435648D02*
X5469663Y-4445172D01*
X5469663Y-4445172D02*
X5441092Y-4445172D01*
X5622044Y-4445172D02*
X5602997Y-4435648D01*
X5602997Y-4435648D02*
X5593473Y-4416600D01*
X5593473Y-4416600D02*
X5593473Y-4245172D01*
X5774425Y-4435648D02*
X5755378Y-4445172D01*
X5755378Y-4445172D02*
X5717282Y-4445172D01*
X5717282Y-4445172D02*
X5698235Y-4435648D01*
X5698235Y-4435648D02*
X5688711Y-4416600D01*
X5688711Y-4416600D02*
X5688711Y-4340410D01*
X5688711Y-4340410D02*
X5698235Y-4321362D01*
X5698235Y-4321362D02*
X5717282Y-4311838D01*
X5717282Y-4311838D02*
X5755378Y-4311838D01*
X5755378Y-4311838D02*
X5774425Y-4321362D01*
X5774425Y-4321362D02*
X5783949Y-4340410D01*
X5783949Y-4340410D02*
X5783949Y-4359457D01*
X5783949Y-4359457D02*
X5688711Y-4378505D01*
X5860139Y-4435648D02*
X5879187Y-4445172D01*
X5879187Y-4445172D02*
X5917282Y-4445172D01*
X5917282Y-4445172D02*
X5936330Y-4435648D01*
X5936330Y-4435648D02*
X5945854Y-4416600D01*
X5945854Y-4416600D02*
X5945854Y-4407076D01*
X5945854Y-4407076D02*
X5936330Y-4388029D01*
X5936330Y-4388029D02*
X5917282Y-4378505D01*
X5917282Y-4378505D02*
X5888711Y-4378505D01*
X5888711Y-4378505D02*
X5869663Y-4368981D01*
X5869663Y-4368981D02*
X5860139Y-4349934D01*
X5860139Y-4349934D02*
X5860139Y-4340410D01*
X5860139Y-4340410D02*
X5869663Y-4321362D01*
X5869663Y-4321362D02*
X5888711Y-4311838D01*
X5888711Y-4311838D02*
X5917282Y-4311838D01*
X5917282Y-4311838D02*
X5936330Y-4321362D01*
X6012520Y-4521362D02*
X6022044Y-4511838D01*
X6022044Y-4511838D02*
X6041092Y-4483267D01*
X6041092Y-4483267D02*
X6050616Y-4464219D01*
X6050616Y-4464219D02*
X6060139Y-4435648D01*
X6060139Y-4435648D02*
X6069663Y-4388029D01*
X6069663Y-4388029D02*
X6069663Y-4349934D01*
X6069663Y-4349934D02*
X6060139Y-4302314D01*
X6060139Y-4302314D02*
X6050616Y-4273743D01*
X6050616Y-4273743D02*
X6041092Y-4254695D01*
X6041092Y-4254695D02*
X6022044Y-4226124D01*
X6022044Y-4226124D02*
X6012520Y-4216600D01*
X1250615Y-4616648D02*
G75*
G03*
X1250615Y-4616648I-100000J0D01*
G01*
X1583949Y-4575838D02*
X1583949Y-4709172D01*
X1536329Y-4499648D02*
X1488710Y-4642505D01*
X1488710Y-4642505D02*
X1612520Y-4642505D01*
X1688710Y-4690124D02*
X1698234Y-4699648D01*
X1698234Y-4699648D02*
X1688710Y-4709172D01*
X1688710Y-4709172D02*
X1679187Y-4699648D01*
X1679187Y-4699648D02*
X1688710Y-4690124D01*
X1688710Y-4690124D02*
X1688710Y-4709172D01*
X1879187Y-4509172D02*
X1783949Y-4509172D01*
X1783949Y-4509172D02*
X1774425Y-4604410D01*
X1774425Y-4604410D02*
X1783949Y-4594886D01*
X1783949Y-4594886D02*
X1802996Y-4585362D01*
X1802996Y-4585362D02*
X1850615Y-4585362D01*
X1850615Y-4585362D02*
X1869663Y-4594886D01*
X1869663Y-4594886D02*
X1879187Y-4604410D01*
X1879187Y-4604410D02*
X1888710Y-4623457D01*
X1888710Y-4623457D02*
X1888710Y-4671076D01*
X1888710Y-4671076D02*
X1879187Y-4690124D01*
X1879187Y-4690124D02*
X1869663Y-4699648D01*
X1869663Y-4699648D02*
X1850615Y-4709172D01*
X1850615Y-4709172D02*
X1802996Y-4709172D01*
X1802996Y-4709172D02*
X1783949Y-4699648D01*
X1783949Y-4699648D02*
X1774425Y-4690124D01*
X2012520Y-4509172D02*
X2031568Y-4509172D01*
X2031568Y-4509172D02*
X2050615Y-4518695D01*
X2050615Y-4518695D02*
X2060139Y-4528219D01*
X2060139Y-4528219D02*
X2069663Y-4547267D01*
X2069663Y-4547267D02*
X2079187Y-4585362D01*
X2079187Y-4585362D02*
X2079187Y-4632981D01*
X2079187Y-4632981D02*
X2069663Y-4671076D01*
X2069663Y-4671076D02*
X2060139Y-4690124D01*
X2060139Y-4690124D02*
X2050615Y-4699648D01*
X2050615Y-4699648D02*
X2031568Y-4709172D01*
X2031568Y-4709172D02*
X2012520Y-4709172D01*
X2012520Y-4709172D02*
X1993472Y-4699648D01*
X1993472Y-4699648D02*
X1983949Y-4690124D01*
X1983949Y-4690124D02*
X1974425Y-4671076D01*
X1974425Y-4671076D02*
X1964901Y-4632981D01*
X1964901Y-4632981D02*
X1964901Y-4585362D01*
X1964901Y-4585362D02*
X1974425Y-4547267D01*
X1974425Y-4547267D02*
X1983949Y-4528219D01*
X1983949Y-4528219D02*
X1993472Y-4518695D01*
X1993472Y-4518695D02*
X2012520Y-4509172D01*
X2202996Y-4509172D02*
X2222044Y-4509172D01*
X2222044Y-4509172D02*
X2241092Y-4518695D01*
X2241092Y-4518695D02*
X2250615Y-4528219D01*
X2250615Y-4528219D02*
X2260139Y-4547267D01*
X2260139Y-4547267D02*
X2269663Y-4585362D01*
X2269663Y-4585362D02*
X2269663Y-4632981D01*
X2269663Y-4632981D02*
X2260139Y-4671076D01*
X2260139Y-4671076D02*
X2250615Y-4690124D01*
X2250615Y-4690124D02*
X2241092Y-4699648D01*
X2241092Y-4699648D02*
X2222044Y-4709172D01*
X2222044Y-4709172D02*
X2202996Y-4709172D01*
X2202996Y-4709172D02*
X2183949Y-4699648D01*
X2183949Y-4699648D02*
X2174425Y-4690124D01*
X2174425Y-4690124D02*
X2164901Y-4671076D01*
X2164901Y-4671076D02*
X2155377Y-4632981D01*
X2155377Y-4632981D02*
X2155377Y-4585362D01*
X2155377Y-4585362D02*
X2164901Y-4547267D01*
X2164901Y-4547267D02*
X2174425Y-4528219D01*
X2174425Y-4528219D02*
X2183949Y-4518695D01*
X2183949Y-4518695D02*
X2202996Y-4509172D01*
X2355377Y-4709172D02*
X2355377Y-4575838D01*
X2355377Y-4594886D02*
X2364901Y-4585362D01*
X2364901Y-4585362D02*
X2383949Y-4575838D01*
X2383949Y-4575838D02*
X2412520Y-4575838D01*
X2412520Y-4575838D02*
X2431568Y-4585362D01*
X2431568Y-4585362D02*
X2441092Y-4604410D01*
X2441092Y-4604410D02*
X2441092Y-4709172D01*
X2441092Y-4604410D02*
X2450615Y-4585362D01*
X2450615Y-4585362D02*
X2469663Y-4575838D01*
X2469663Y-4575838D02*
X2498234Y-4575838D01*
X2498234Y-4575838D02*
X2517282Y-4585362D01*
X2517282Y-4585362D02*
X2526806Y-4604410D01*
X2526806Y-4604410D02*
X2526806Y-4709172D01*
X2622044Y-4709172D02*
X2622044Y-4575838D01*
X2622044Y-4594886D02*
X2631568Y-4585362D01*
X2631568Y-4585362D02*
X2650615Y-4575838D01*
X2650615Y-4575838D02*
X2679187Y-4575838D01*
X2679187Y-4575838D02*
X2698234Y-4585362D01*
X2698234Y-4585362D02*
X2707758Y-4604410D01*
X2707758Y-4604410D02*
X2707758Y-4709172D01*
X2707758Y-4604410D02*
X2717282Y-4585362D01*
X2717282Y-4585362D02*
X2736330Y-4575838D01*
X2736330Y-4575838D02*
X2764901Y-4575838D01*
X2764901Y-4575838D02*
X2783949Y-4585362D01*
X2783949Y-4585362D02*
X2793473Y-4604410D01*
X2793473Y-4604410D02*
X2793473Y-4709172D01*
X3183949Y-4499648D02*
X3012520Y-4756791D01*
X3441092Y-4509172D02*
X3460139Y-4509172D01*
X3460139Y-4509172D02*
X3479187Y-4518695D01*
X3479187Y-4518695D02*
X3488711Y-4528219D01*
X3488711Y-4528219D02*
X3498234Y-4547267D01*
X3498234Y-4547267D02*
X3507758Y-4585362D01*
X3507758Y-4585362D02*
X3507758Y-4632981D01*
X3507758Y-4632981D02*
X3498234Y-4671076D01*
X3498234Y-4671076D02*
X3488711Y-4690124D01*
X3488711Y-4690124D02*
X3479187Y-4699648D01*
X3479187Y-4699648D02*
X3460139Y-4709172D01*
X3460139Y-4709172D02*
X3441092Y-4709172D01*
X3441092Y-4709172D02*
X3422044Y-4699648D01*
X3422044Y-4699648D02*
X3412520Y-4690124D01*
X3412520Y-4690124D02*
X3402996Y-4671076D01*
X3402996Y-4671076D02*
X3393473Y-4632981D01*
X3393473Y-4632981D02*
X3393473Y-4585362D01*
X3393473Y-4585362D02*
X3402996Y-4547267D01*
X3402996Y-4547267D02*
X3412520Y-4528219D01*
X3412520Y-4528219D02*
X3422044Y-4518695D01*
X3422044Y-4518695D02*
X3441092Y-4509172D01*
X3593473Y-4690124D02*
X3602996Y-4699648D01*
X3602996Y-4699648D02*
X3593473Y-4709172D01*
X3593473Y-4709172D02*
X3583949Y-4699648D01*
X3583949Y-4699648D02*
X3593473Y-4690124D01*
X3593473Y-4690124D02*
X3593473Y-4709172D01*
X3793473Y-4709172D02*
X3679187Y-4709172D01*
X3736330Y-4709172D02*
X3736330Y-4509172D01*
X3736330Y-4509172D02*
X3717282Y-4537743D01*
X3717282Y-4537743D02*
X3698234Y-4556791D01*
X3698234Y-4556791D02*
X3679187Y-4566314D01*
X3860139Y-4509172D02*
X3993473Y-4509172D01*
X3993473Y-4509172D02*
X3907758Y-4709172D01*
X4050615Y-4509172D02*
X4183949Y-4509172D01*
X4183949Y-4509172D02*
X4098234Y-4709172D01*
X4250616Y-4528219D02*
X4260139Y-4518695D01*
X4260139Y-4518695D02*
X4279187Y-4509172D01*
X4279187Y-4509172D02*
X4326806Y-4509172D01*
X4326806Y-4509172D02*
X4345854Y-4518695D01*
X4345854Y-4518695D02*
X4355377Y-4528219D01*
X4355377Y-4528219D02*
X4364901Y-4547267D01*
X4364901Y-4547267D02*
X4364901Y-4566314D01*
X4364901Y-4566314D02*
X4355377Y-4594886D01*
X4355377Y-4594886D02*
X4241092Y-4709172D01*
X4241092Y-4709172D02*
X4364901Y-4709172D01*
X4441092Y-4509172D02*
X4441092Y-4547267D01*
X4517282Y-4509172D02*
X4517282Y-4547267D01*
X4812520Y-4785362D02*
X4802997Y-4775838D01*
X4802997Y-4775838D02*
X4783949Y-4747267D01*
X4783949Y-4747267D02*
X4774425Y-4728219D01*
X4774425Y-4728219D02*
X4764901Y-4699648D01*
X4764901Y-4699648D02*
X4755378Y-4652029D01*
X4755378Y-4652029D02*
X4755378Y-4613934D01*
X4755378Y-4613934D02*
X4764901Y-4566314D01*
X4764901Y-4566314D02*
X4774425Y-4537743D01*
X4774425Y-4537743D02*
X4783949Y-4518695D01*
X4783949Y-4518695D02*
X4802997Y-4490124D01*
X4802997Y-4490124D02*
X4812520Y-4480600D01*
X4974425Y-4575838D02*
X4974425Y-4709172D01*
X4926806Y-4499648D02*
X4879187Y-4642505D01*
X4879187Y-4642505D02*
X5002997Y-4642505D01*
X5231568Y-4709172D02*
X5231568Y-4509172D01*
X5317282Y-4709172D02*
X5317282Y-4604410D01*
X5317282Y-4604410D02*
X5307759Y-4585362D01*
X5307759Y-4585362D02*
X5288711Y-4575838D01*
X5288711Y-4575838D02*
X5260139Y-4575838D01*
X5260139Y-4575838D02*
X5241092Y-4585362D01*
X5241092Y-4585362D02*
X5231568Y-4594886D01*
X5441092Y-4709172D02*
X5422044Y-4699648D01*
X5422044Y-4699648D02*
X5412520Y-4690124D01*
X5412520Y-4690124D02*
X5402997Y-4671076D01*
X5402997Y-4671076D02*
X5402997Y-4613934D01*
X5402997Y-4613934D02*
X5412520Y-4594886D01*
X5412520Y-4594886D02*
X5422044Y-4585362D01*
X5422044Y-4585362D02*
X5441092Y-4575838D01*
X5441092Y-4575838D02*
X5469663Y-4575838D01*
X5469663Y-4575838D02*
X5488711Y-4585362D01*
X5488711Y-4585362D02*
X5498235Y-4594886D01*
X5498235Y-4594886D02*
X5507759Y-4613934D01*
X5507759Y-4613934D02*
X5507759Y-4671076D01*
X5507759Y-4671076D02*
X5498235Y-4690124D01*
X5498235Y-4690124D02*
X5488711Y-4699648D01*
X5488711Y-4699648D02*
X5469663Y-4709172D01*
X5469663Y-4709172D02*
X5441092Y-4709172D01*
X5622044Y-4709172D02*
X5602997Y-4699648D01*
X5602997Y-4699648D02*
X5593473Y-4680600D01*
X5593473Y-4680600D02*
X5593473Y-4509172D01*
X5774425Y-4699648D02*
X5755378Y-4709172D01*
X5755378Y-4709172D02*
X5717282Y-4709172D01*
X5717282Y-4709172D02*
X5698235Y-4699648D01*
X5698235Y-4699648D02*
X5688711Y-4680600D01*
X5688711Y-4680600D02*
X5688711Y-4604410D01*
X5688711Y-4604410D02*
X5698235Y-4585362D01*
X5698235Y-4585362D02*
X5717282Y-4575838D01*
X5717282Y-4575838D02*
X5755378Y-4575838D01*
X5755378Y-4575838D02*
X5774425Y-4585362D01*
X5774425Y-4585362D02*
X5783949Y-4604410D01*
X5783949Y-4604410D02*
X5783949Y-4623457D01*
X5783949Y-4623457D02*
X5688711Y-4642505D01*
X5860139Y-4699648D02*
X5879187Y-4709172D01*
X5879187Y-4709172D02*
X5917282Y-4709172D01*
X5917282Y-4709172D02*
X5936330Y-4699648D01*
X5936330Y-4699648D02*
X5945854Y-4680600D01*
X5945854Y-4680600D02*
X5945854Y-4671076D01*
X5945854Y-4671076D02*
X5936330Y-4652029D01*
X5936330Y-4652029D02*
X5917282Y-4642505D01*
X5917282Y-4642505D02*
X5888711Y-4642505D01*
X5888711Y-4642505D02*
X5869663Y-4632981D01*
X5869663Y-4632981D02*
X5860139Y-4613934D01*
X5860139Y-4613934D02*
X5860139Y-4604410D01*
X5860139Y-4604410D02*
X5869663Y-4585362D01*
X5869663Y-4585362D02*
X5888711Y-4575838D01*
X5888711Y-4575838D02*
X5917282Y-4575838D01*
X5917282Y-4575838D02*
X5936330Y-4585362D01*
X6012520Y-4785362D02*
X6022044Y-4775838D01*
X6022044Y-4775838D02*
X6041092Y-4747267D01*
X6041092Y-4747267D02*
X6050616Y-4728219D01*
X6050616Y-4728219D02*
X6060139Y-4699648D01*
X6060139Y-4699648D02*
X6069663Y-4652029D01*
X6069663Y-4652029D02*
X6069663Y-4613934D01*
X6069663Y-4613934D02*
X6060139Y-4566314D01*
X6060139Y-4566314D02*
X6050616Y-4537743D01*
X6050616Y-4537743D02*
X6041092Y-4518695D01*
X6041092Y-4518695D02*
X6022044Y-4490124D01*
X6022044Y-4490124D02*
X6012520Y-4480600D01*
M02*
