%TF.GenerationSoftware,KiCad,Pcbnew,7.0.2*%
%TF.CreationDate,2023-06-26T21:49:35-07:00*%
%TF.ProjectId,Current Sense Standalone,43757272-656e-4742-9053-656e73652053,rev?*%
%TF.SameCoordinates,Original*%
%TF.FileFunction,Legend,Top*%
%TF.FilePolarity,Positive*%
%FSLAX46Y46*%
G04 Gerber Fmt 4.6, Leading zero omitted, Abs format (unit mm)*
G04 Created by KiCad (PCBNEW 7.0.2) date 2023-06-26 21:49:35*
%MOMM*%
%LPD*%
G01*
G04 APERTURE LIST*
G04 Aperture macros list*
%AMRoundRect*
0 Rectangle with rounded corners*
0 $1 Rounding radius*
0 $2 $3 $4 $5 $6 $7 $8 $9 X,Y pos of 4 corners*
0 Add a 4 corners polygon primitive as box body*
4,1,4,$2,$3,$4,$5,$6,$7,$8,$9,$2,$3,0*
0 Add four circle primitives for the rounded corners*
1,1,$1+$1,$2,$3*
1,1,$1+$1,$4,$5*
1,1,$1+$1,$6,$7*
1,1,$1+$1,$8,$9*
0 Add four rect primitives between the rounded corners*
20,1,$1+$1,$2,$3,$4,$5,0*
20,1,$1+$1,$4,$5,$6,$7,0*
20,1,$1+$1,$6,$7,$8,$9,0*
20,1,$1+$1,$8,$9,$2,$3,0*%
G04 Aperture macros list end*
%ADD10C,0.150000*%
%ADD11C,0.152400*%
%ADD12C,0.127000*%
%ADD13C,0.120000*%
%ADD14R,1.473200X0.355600*%
%ADD15R,6.200000X2.700000*%
%ADD16R,1.800000X1.600000*%
%ADD17C,6.000000*%
%ADD18RoundRect,1.500000X-1.500000X1.500000X-1.500000X-1.500000X1.500000X-1.500000X1.500000X1.500000X0*%
%ADD19R,1.700000X1.700000*%
%ADD20O,1.700000X1.700000*%
%ADD21RoundRect,0.250000X-0.650000X0.325000X-0.650000X-0.325000X0.650000X-0.325000X0.650000X0.325000X0*%
G04 APERTURE END LIST*
D10*
X141097095Y-91877618D02*
X141097095Y-92687141D01*
X141097095Y-92687141D02*
X141144714Y-92782379D01*
X141144714Y-92782379D02*
X141192333Y-92829999D01*
X141192333Y-92829999D02*
X141287571Y-92877618D01*
X141287571Y-92877618D02*
X141478047Y-92877618D01*
X141478047Y-92877618D02*
X141573285Y-92829999D01*
X141573285Y-92829999D02*
X141620904Y-92782379D01*
X141620904Y-92782379D02*
X141668523Y-92687141D01*
X141668523Y-92687141D02*
X141668523Y-91877618D01*
X142668523Y-92877618D02*
X142097095Y-92877618D01*
X142382809Y-92877618D02*
X142382809Y-91877618D01*
X142382809Y-91877618D02*
X142287571Y-92020475D01*
X142287571Y-92020475D02*
X142192333Y-92115713D01*
X142192333Y-92115713D02*
X142097095Y-92163332D01*
X137160000Y-91944018D02*
X137160000Y-92182113D01*
X136921905Y-92086875D02*
X137160000Y-92182113D01*
X137160000Y-92182113D02*
X137398095Y-92086875D01*
X137017143Y-92372589D02*
X137160000Y-92182113D01*
X137160000Y-92182113D02*
X137302857Y-92372589D01*
X138684000Y-91944018D02*
X138684000Y-92182113D01*
X138445905Y-92086875D02*
X138684000Y-92182113D01*
X138684000Y-92182113D02*
X138922095Y-92086875D01*
X138541143Y-92372589D02*
X138684000Y-92182113D01*
X138684000Y-92182113D02*
X138826857Y-92372589D01*
X129581691Y-90121481D02*
X129248358Y-89645290D01*
X129010263Y-90121481D02*
X129010263Y-89121481D01*
X129010263Y-89121481D02*
X129391215Y-89121481D01*
X129391215Y-89121481D02*
X129486453Y-89169100D01*
X129486453Y-89169100D02*
X129534072Y-89216719D01*
X129534072Y-89216719D02*
X129581691Y-89311957D01*
X129581691Y-89311957D02*
X129581691Y-89454814D01*
X129581691Y-89454814D02*
X129534072Y-89550052D01*
X129534072Y-89550052D02*
X129486453Y-89597671D01*
X129486453Y-89597671D02*
X129391215Y-89645290D01*
X129391215Y-89645290D02*
X129010263Y-89645290D01*
X129962644Y-90073862D02*
X130057882Y-90121481D01*
X130057882Y-90121481D02*
X130248358Y-90121481D01*
X130248358Y-90121481D02*
X130343596Y-90073862D01*
X130343596Y-90073862D02*
X130391215Y-89978623D01*
X130391215Y-89978623D02*
X130391215Y-89931004D01*
X130391215Y-89931004D02*
X130343596Y-89835766D01*
X130343596Y-89835766D02*
X130248358Y-89788147D01*
X130248358Y-89788147D02*
X130105501Y-89788147D01*
X130105501Y-89788147D02*
X130010263Y-89740528D01*
X130010263Y-89740528D02*
X129962644Y-89645290D01*
X129962644Y-89645290D02*
X129962644Y-89597671D01*
X129962644Y-89597671D02*
X130010263Y-89502433D01*
X130010263Y-89502433D02*
X130105501Y-89454814D01*
X130105501Y-89454814D02*
X130248358Y-89454814D01*
X130248358Y-89454814D02*
X130343596Y-89502433D01*
X131343596Y-90121481D02*
X130772168Y-90121481D01*
X131057882Y-90121481D02*
X131057882Y-89121481D01*
X131057882Y-89121481D02*
X130962644Y-89264338D01*
X130962644Y-89264338D02*
X130867406Y-89359576D01*
X130867406Y-89359576D02*
X130772168Y-89407195D01*
X154213731Y-92111420D02*
X153880398Y-91635229D01*
X153642303Y-92111420D02*
X153642303Y-91111420D01*
X153642303Y-91111420D02*
X154023255Y-91111420D01*
X154023255Y-91111420D02*
X154118493Y-91159039D01*
X154118493Y-91159039D02*
X154166112Y-91206658D01*
X154166112Y-91206658D02*
X154213731Y-91301896D01*
X154213731Y-91301896D02*
X154213731Y-91444753D01*
X154213731Y-91444753D02*
X154166112Y-91539991D01*
X154166112Y-91539991D02*
X154118493Y-91587610D01*
X154118493Y-91587610D02*
X154023255Y-91635229D01*
X154023255Y-91635229D02*
X153642303Y-91635229D01*
X155118493Y-92111420D02*
X154642303Y-92111420D01*
X154642303Y-92111420D02*
X154642303Y-91111420D01*
X155975636Y-92111420D02*
X155404208Y-92111420D01*
X155689922Y-92111420D02*
X155689922Y-91111420D01*
X155689922Y-91111420D02*
X155594684Y-91254277D01*
X155594684Y-91254277D02*
X155499446Y-91349515D01*
X155499446Y-91349515D02*
X155404208Y-91397134D01*
X168344871Y-82143479D02*
X168344871Y-82857764D01*
X168344871Y-82857764D02*
X168297252Y-83000621D01*
X168297252Y-83000621D02*
X168202014Y-83095860D01*
X168202014Y-83095860D02*
X168059157Y-83143479D01*
X168059157Y-83143479D02*
X167963919Y-83143479D01*
X168725824Y-82143479D02*
X169392490Y-82143479D01*
X169392490Y-82143479D02*
X168963919Y-83143479D01*
X155816435Y-85843331D02*
X155816435Y-86557616D01*
X155816435Y-86557616D02*
X155768816Y-86700473D01*
X155768816Y-86700473D02*
X155673578Y-86795712D01*
X155673578Y-86795712D02*
X155530721Y-86843331D01*
X155530721Y-86843331D02*
X155435483Y-86843331D01*
X156721197Y-85843331D02*
X156530721Y-85843331D01*
X156530721Y-85843331D02*
X156435483Y-85890950D01*
X156435483Y-85890950D02*
X156387864Y-85938569D01*
X156387864Y-85938569D02*
X156292626Y-86081426D01*
X156292626Y-86081426D02*
X156245007Y-86271902D01*
X156245007Y-86271902D02*
X156245007Y-86652854D01*
X156245007Y-86652854D02*
X156292626Y-86748092D01*
X156292626Y-86748092D02*
X156340245Y-86795712D01*
X156340245Y-86795712D02*
X156435483Y-86843331D01*
X156435483Y-86843331D02*
X156625959Y-86843331D01*
X156625959Y-86843331D02*
X156721197Y-86795712D01*
X156721197Y-86795712D02*
X156768816Y-86748092D01*
X156768816Y-86748092D02*
X156816435Y-86652854D01*
X156816435Y-86652854D02*
X156816435Y-86414759D01*
X156816435Y-86414759D02*
X156768816Y-86319521D01*
X156768816Y-86319521D02*
X156721197Y-86271902D01*
X156721197Y-86271902D02*
X156625959Y-86224283D01*
X156625959Y-86224283D02*
X156435483Y-86224283D01*
X156435483Y-86224283D02*
X156340245Y-86271902D01*
X156340245Y-86271902D02*
X156292626Y-86319521D01*
X156292626Y-86319521D02*
X156245007Y-86414759D01*
X143116267Y-99674322D02*
X143116267Y-100388607D01*
X143116267Y-100388607D02*
X143068648Y-100531464D01*
X143068648Y-100531464D02*
X142973410Y-100626703D01*
X142973410Y-100626703D02*
X142830553Y-100674322D01*
X142830553Y-100674322D02*
X142735315Y-100674322D01*
X144068648Y-99674322D02*
X143592458Y-99674322D01*
X143592458Y-99674322D02*
X143544839Y-100150512D01*
X143544839Y-100150512D02*
X143592458Y-100102893D01*
X143592458Y-100102893D02*
X143687696Y-100055274D01*
X143687696Y-100055274D02*
X143925791Y-100055274D01*
X143925791Y-100055274D02*
X144021029Y-100102893D01*
X144021029Y-100102893D02*
X144068648Y-100150512D01*
X144068648Y-100150512D02*
X144116267Y-100245750D01*
X144116267Y-100245750D02*
X144116267Y-100483845D01*
X144116267Y-100483845D02*
X144068648Y-100579083D01*
X144068648Y-100579083D02*
X144021029Y-100626703D01*
X144021029Y-100626703D02*
X143925791Y-100674322D01*
X143925791Y-100674322D02*
X143687696Y-100674322D01*
X143687696Y-100674322D02*
X143592458Y-100626703D01*
X143592458Y-100626703D02*
X143544839Y-100579083D01*
X135480817Y-85894944D02*
X135480817Y-86609229D01*
X135480817Y-86609229D02*
X135433198Y-86752086D01*
X135433198Y-86752086D02*
X135337960Y-86847325D01*
X135337960Y-86847325D02*
X135195103Y-86894944D01*
X135195103Y-86894944D02*
X135099865Y-86894944D01*
X136385579Y-86228277D02*
X136385579Y-86894944D01*
X136147484Y-85847325D02*
X135909389Y-86561610D01*
X135909389Y-86561610D02*
X136528436Y-86561610D01*
X145622819Y-85946557D02*
X145622819Y-86660842D01*
X145622819Y-86660842D02*
X145575200Y-86803699D01*
X145575200Y-86803699D02*
X145479962Y-86898938D01*
X145479962Y-86898938D02*
X145337105Y-86946557D01*
X145337105Y-86946557D02*
X145241867Y-86946557D01*
X146003772Y-85946557D02*
X146622819Y-85946557D01*
X146622819Y-85946557D02*
X146289486Y-86327509D01*
X146289486Y-86327509D02*
X146432343Y-86327509D01*
X146432343Y-86327509D02*
X146527581Y-86375128D01*
X146527581Y-86375128D02*
X146575200Y-86422747D01*
X146575200Y-86422747D02*
X146622819Y-86517985D01*
X146622819Y-86517985D02*
X146622819Y-86756080D01*
X146622819Y-86756080D02*
X146575200Y-86851318D01*
X146575200Y-86851318D02*
X146527581Y-86898938D01*
X146527581Y-86898938D02*
X146432343Y-86946557D01*
X146432343Y-86946557D02*
X146146629Y-86946557D01*
X146146629Y-86946557D02*
X146051391Y-86898938D01*
X146051391Y-86898938D02*
X146003772Y-86851318D01*
X118647602Y-82673592D02*
X118647602Y-83387877D01*
X118647602Y-83387877D02*
X118599983Y-83530734D01*
X118599983Y-83530734D02*
X118504745Y-83625973D01*
X118504745Y-83625973D02*
X118361888Y-83673592D01*
X118361888Y-83673592D02*
X118266650Y-83673592D01*
X119647602Y-83673592D02*
X119076174Y-83673592D01*
X119361888Y-83673592D02*
X119361888Y-82673592D01*
X119361888Y-82673592D02*
X119266650Y-82816449D01*
X119266650Y-82816449D02*
X119171412Y-82911687D01*
X119171412Y-82911687D02*
X119076174Y-82959306D01*
X150558449Y-91994118D02*
X150510830Y-92041738D01*
X150510830Y-92041738D02*
X150367973Y-92089357D01*
X150367973Y-92089357D02*
X150272735Y-92089357D01*
X150272735Y-92089357D02*
X150129878Y-92041738D01*
X150129878Y-92041738D02*
X150034640Y-91946499D01*
X150034640Y-91946499D02*
X149987021Y-91851261D01*
X149987021Y-91851261D02*
X149939402Y-91660785D01*
X149939402Y-91660785D02*
X149939402Y-91517928D01*
X149939402Y-91517928D02*
X149987021Y-91327452D01*
X149987021Y-91327452D02*
X150034640Y-91232214D01*
X150034640Y-91232214D02*
X150129878Y-91136976D01*
X150129878Y-91136976D02*
X150272735Y-91089357D01*
X150272735Y-91089357D02*
X150367973Y-91089357D01*
X150367973Y-91089357D02*
X150510830Y-91136976D01*
X150510830Y-91136976D02*
X150558449Y-91184595D01*
X150939402Y-91184595D02*
X150987021Y-91136976D01*
X150987021Y-91136976D02*
X151082259Y-91089357D01*
X151082259Y-91089357D02*
X151320354Y-91089357D01*
X151320354Y-91089357D02*
X151415592Y-91136976D01*
X151415592Y-91136976D02*
X151463211Y-91184595D01*
X151463211Y-91184595D02*
X151510830Y-91279833D01*
X151510830Y-91279833D02*
X151510830Y-91375071D01*
X151510830Y-91375071D02*
X151463211Y-91517928D01*
X151463211Y-91517928D02*
X150891783Y-92089357D01*
X150891783Y-92089357D02*
X151510830Y-92089357D01*
X158521713Y-92205269D02*
X158474094Y-92252889D01*
X158474094Y-92252889D02*
X158331237Y-92300508D01*
X158331237Y-92300508D02*
X158235999Y-92300508D01*
X158235999Y-92300508D02*
X158093142Y-92252889D01*
X158093142Y-92252889D02*
X157997904Y-92157650D01*
X157997904Y-92157650D02*
X157950285Y-92062412D01*
X157950285Y-92062412D02*
X157902666Y-91871936D01*
X157902666Y-91871936D02*
X157902666Y-91729079D01*
X157902666Y-91729079D02*
X157950285Y-91538603D01*
X157950285Y-91538603D02*
X157997904Y-91443365D01*
X157997904Y-91443365D02*
X158093142Y-91348127D01*
X158093142Y-91348127D02*
X158235999Y-91300508D01*
X158235999Y-91300508D02*
X158331237Y-91300508D01*
X158331237Y-91300508D02*
X158474094Y-91348127D01*
X158474094Y-91348127D02*
X158521713Y-91395746D01*
X159474094Y-92300508D02*
X158902666Y-92300508D01*
X159188380Y-92300508D02*
X159188380Y-91300508D01*
X159188380Y-91300508D02*
X159093142Y-91443365D01*
X159093142Y-91443365D02*
X158997904Y-91538603D01*
X158997904Y-91538603D02*
X158902666Y-91586222D01*
D11*
X139611100Y-96504399D02*
X144106900Y-96504399D01*
X144106900Y-93405599D02*
X139611100Y-93405599D01*
X141554200Y-93405599D02*
G75*
G03*
X142163800Y-93405599I304800J0D01*
G01*
D10*
X127209273Y-98523011D02*
X127209273Y-93673011D01*
X132709273Y-98523011D02*
X132709273Y-93673011D01*
D12*
X155583375Y-94509624D02*
X155583375Y-95309624D01*
X153983375Y-94509624D02*
X153983375Y-95309624D01*
D13*
X172824045Y-99911822D02*
X172824045Y-87061822D01*
X170274045Y-84211822D02*
X167124045Y-84211822D01*
X164524045Y-87061822D02*
X164524045Y-99911822D01*
X164524045Y-99911822D02*
X172824045Y-99911822D01*
X172824045Y-87061822D02*
X170274045Y-84211822D01*
X167124045Y-84211822D02*
X164524045Y-87061822D01*
X154940000Y-85150000D02*
X153610000Y-85150000D01*
X158810000Y-85150000D02*
X158810000Y-82490000D01*
X156210000Y-85150000D02*
X158810000Y-85150000D01*
X156210000Y-85150000D02*
X156210000Y-82490000D01*
X153610000Y-85150000D02*
X153610000Y-83820000D01*
X156210000Y-82490000D02*
X158810000Y-82490000D01*
X141928963Y-104068800D02*
X140598963Y-104068800D01*
X145798963Y-104068800D02*
X145798963Y-101408800D01*
X143198963Y-104068800D02*
X145798963Y-104068800D01*
X143198963Y-104068800D02*
X143198963Y-101408800D01*
X140598963Y-104068800D02*
X140598963Y-102738800D01*
X143198963Y-101408800D02*
X145798963Y-101408800D01*
X134620000Y-85150000D02*
X133290000Y-85150000D01*
X138490000Y-85150000D02*
X138490000Y-82490000D01*
X135890000Y-85150000D02*
X138490000Y-85150000D01*
X135890000Y-85150000D02*
X135890000Y-82490000D01*
X133290000Y-85150000D02*
X133290000Y-83820000D01*
X135890000Y-82490000D02*
X138490000Y-82490000D01*
X144765000Y-85150000D02*
X143435000Y-85150000D01*
X148635000Y-85150000D02*
X148635000Y-82490000D01*
X146035000Y-85150000D02*
X148635000Y-85150000D01*
X146035000Y-85150000D02*
X146035000Y-82490000D01*
X143435000Y-85150000D02*
X143435000Y-83820000D01*
X146035000Y-82490000D02*
X148635000Y-82490000D01*
X123130936Y-100160973D02*
X123130936Y-87310973D01*
X120580936Y-84460973D02*
X117430936Y-84460973D01*
X114830936Y-87310973D02*
X114830936Y-100160973D01*
X114830936Y-100160973D02*
X123130936Y-100160973D01*
X123130936Y-87310973D02*
X120580936Y-84460973D01*
X117430936Y-84460973D02*
X114830936Y-87310973D01*
X151651329Y-94027614D02*
X151651329Y-95450118D01*
X149831329Y-94027614D02*
X149831329Y-95450118D01*
X159603078Y-94118532D02*
X159603078Y-95541036D01*
X157783078Y-94118532D02*
X157783078Y-95541036D01*
%LPC*%
D14*
X138938000Y-93980000D03*
X138938000Y-94629998D03*
X138938000Y-95280000D03*
X138938000Y-95929998D03*
X144780000Y-95929998D03*
X144780000Y-95280000D03*
X144780000Y-94629998D03*
X144780000Y-93980000D03*
D15*
X129959273Y-100248011D03*
X129959273Y-91948011D03*
D16*
X154783375Y-93509624D03*
X154783375Y-96309624D03*
D17*
X168674045Y-95661822D03*
D18*
X168674045Y-88461822D03*
D19*
X154940000Y-83820000D03*
D20*
X157480000Y-83820000D03*
D19*
X141928963Y-102738800D03*
D20*
X144468963Y-102738800D03*
D19*
X134620000Y-83820000D03*
D20*
X137160000Y-83820000D03*
D19*
X144765000Y-83820000D03*
D20*
X147305000Y-83820000D03*
D18*
X118980936Y-88710973D03*
D17*
X118980936Y-95910973D03*
D21*
X150741329Y-93263866D03*
X150741329Y-96213866D03*
X158693078Y-93354784D03*
X158693078Y-96304784D03*
%LPD*%
M02*
