%TF.GenerationSoftware,KiCad,Pcbnew,7.0.2*%
%TF.CreationDate,2023-06-26T22:07:46-07:00*%
%TF.ProjectId,19V 10A Standalone,31395620-3130-4412-9053-74616e64616c,rev?*%
%TF.SameCoordinates,Original*%
%TF.FileFunction,Soldermask,Top*%
%TF.FilePolarity,Negative*%
%FSLAX46Y46*%
G04 Gerber Fmt 4.6, Leading zero omitted, Abs format (unit mm)*
G04 Created by KiCad (PCBNEW 7.0.2) date 2023-06-26 22:07:46*
%MOMM*%
%LPD*%
G01*
G04 APERTURE LIST*
G04 Aperture macros list*
%AMRoundRect*
0 Rectangle with rounded corners*
0 $1 Rounding radius*
0 $2 $3 $4 $5 $6 $7 $8 $9 X,Y pos of 4 corners*
0 Add a 4 corners polygon primitive as box body*
4,1,4,$2,$3,$4,$5,$6,$7,$8,$9,$2,$3,0*
0 Add four circle primitives for the rounded corners*
1,1,$1+$1,$2,$3*
1,1,$1+$1,$4,$5*
1,1,$1+$1,$6,$7*
1,1,$1+$1,$8,$9*
0 Add four rect primitives between the rounded corners*
20,1,$1+$1,$2,$3,$4,$5,0*
20,1,$1+$1,$4,$5,$6,$7,0*
20,1,$1+$1,$6,$7,$8,$9,0*
20,1,$1+$1,$8,$9,$2,$3,0*%
G04 Aperture macros list end*
%ADD10R,2.184400X1.625600*%
%ADD11RoundRect,0.250000X-0.625000X0.312500X-0.625000X-0.312500X0.625000X-0.312500X0.625000X0.312500X0*%
%ADD12R,2.000000X4.100000*%
%ADD13RoundRect,0.250000X-0.375000X-0.625000X0.375000X-0.625000X0.375000X0.625000X-0.375000X0.625000X0*%
%ADD14RoundRect,0.250000X0.650000X-0.325000X0.650000X0.325000X-0.650000X0.325000X-0.650000X-0.325000X0*%
%ADD15RoundRect,0.250000X0.625000X-0.312500X0.625000X0.312500X-0.625000X0.312500X-0.625000X-0.312500X0*%
%ADD16R,4.521200X4.241800*%
%ADD17R,1.143000X0.431800*%
%ADD18R,0.965200X0.431800*%
%ADD19R,4.700600X4.241800*%
%ADD20RoundRect,0.250000X-0.650000X0.325000X-0.650000X-0.325000X0.650000X-0.325000X0.650000X0.325000X0*%
%ADD21R,1.917700X2.997200*%
%ADD22RoundRect,0.250000X-0.362500X-1.425000X0.362500X-1.425000X0.362500X1.425000X-0.362500X1.425000X0*%
%ADD23R,2.560396X2.499995*%
%ADD24R,0.804800X0.249200*%
%ADD25R,0.249200X0.804800*%
%ADD26R,3.550000X3.550000*%
%ADD27R,1.200000X1.200000*%
%ADD28C,1.200000*%
%ADD29RoundRect,0.250000X-0.312500X-0.625000X0.312500X-0.625000X0.312500X0.625000X-0.312500X0.625000X0*%
%ADD30RoundRect,1.500000X1.500000X-1.500000X1.500000X1.500000X-1.500000X1.500000X-1.500000X-1.500000X0*%
%ADD31C,6.000000*%
%ADD32RoundRect,1.500000X-1.500000X-1.500000X1.500000X-1.500000X1.500000X1.500000X-1.500000X1.500000X0*%
%ADD33RoundRect,0.250000X0.325000X0.650000X-0.325000X0.650000X-0.325000X-0.650000X0.325000X-0.650000X0*%
%ADD34RoundRect,0.250000X-0.325000X-0.650000X0.325000X-0.650000X0.325000X0.650000X-0.325000X0.650000X0*%
%ADD35R,0.600800X1.111200*%
G04 APERTURE END LIST*
D10*
X112445800Y-45720000D03*
X116154200Y-45720000D03*
D11*
X116840000Y-82357500D03*
X116840000Y-85282500D03*
D12*
X147320000Y-50070000D03*
X147320000Y-41370000D03*
D13*
X120520000Y-53340000D03*
X123320000Y-53340000D03*
D14*
X99253339Y-85351580D03*
X99253339Y-82401580D03*
D15*
X105326697Y-85185046D03*
X105326697Y-82260046D03*
D10*
X120065800Y-91440000D03*
X123774200Y-91440000D03*
D16*
X165798500Y-66045001D03*
X165798500Y-76194999D03*
D15*
X111044840Y-78641718D03*
X111044840Y-75716718D03*
D17*
X139966700Y-75565000D03*
X139966700Y-74295000D03*
X139966700Y-73025000D03*
X139966700Y-71755000D03*
D18*
X134264400Y-71755000D03*
X134264400Y-73025000D03*
X134264400Y-74295000D03*
D19*
X136614700Y-73660000D03*
D18*
X134264400Y-75565000D03*
D20*
X101600000Y-44245000D03*
X101600000Y-47195000D03*
D17*
X139966700Y-100965000D03*
X139966700Y-99695000D03*
X139966700Y-98425000D03*
X139966700Y-97155000D03*
D18*
X134264400Y-97155000D03*
X134264400Y-98425000D03*
X134264400Y-99695000D03*
D19*
X136614700Y-99060000D03*
D18*
X134264400Y-100965000D03*
D20*
X111131291Y-82167392D03*
X111131291Y-85117392D03*
D21*
X152148950Y-101600000D03*
X156886050Y-101600000D03*
D22*
X162137500Y-99060000D03*
X168062500Y-99060000D03*
D11*
X106680000Y-62037500D03*
X106680000Y-64962500D03*
D22*
X162137500Y-91440000D03*
X168062500Y-91440000D03*
D23*
X129407806Y-45720000D03*
X134752194Y-45720000D03*
D21*
X152571450Y-68580000D03*
X157308550Y-68580000D03*
D24*
X119467600Y-71910001D03*
X119467600Y-72410000D03*
X119467600Y-72909999D03*
X119467600Y-73410000D03*
X119467600Y-73910000D03*
X119467600Y-74410001D03*
X119467600Y-74910000D03*
X119467600Y-75409999D03*
D25*
X120170001Y-76112400D03*
X120670000Y-76112400D03*
X121169999Y-76112400D03*
X121670000Y-76112400D03*
X122170000Y-76112400D03*
X122670001Y-76112400D03*
X123170000Y-76112400D03*
X123669999Y-76112400D03*
D24*
X124372400Y-75409999D03*
X124372400Y-74910000D03*
X124372400Y-74410001D03*
X124372400Y-73910000D03*
X124372400Y-73410000D03*
X124372400Y-72909999D03*
X124372400Y-72410000D03*
X124372400Y-71910001D03*
D25*
X123669999Y-71207600D03*
X123170000Y-71207600D03*
X122670001Y-71207600D03*
X122170000Y-71207600D03*
X121670000Y-71207600D03*
X121169999Y-71207600D03*
X120670000Y-71207600D03*
X120170001Y-71207600D03*
D26*
X121920000Y-73660000D03*
D27*
X96520000Y-67790000D03*
D28*
X96520000Y-64290000D03*
D29*
X153477500Y-76200000D03*
X156402500Y-76200000D03*
D12*
X165100000Y-50070000D03*
X165100000Y-41370000D03*
D30*
X180340000Y-102660000D03*
D31*
X180340000Y-95460000D03*
D20*
X121920000Y-59485000D03*
X121920000Y-62435000D03*
D17*
X139966700Y-88265000D03*
X139966700Y-86995000D03*
X139966700Y-85725000D03*
X139966700Y-84455000D03*
D18*
X134264400Y-84455000D03*
X134264400Y-85725000D03*
X134264400Y-86995000D03*
D19*
X136614700Y-86360000D03*
D18*
X134264400Y-88265000D03*
D14*
X105213005Y-78638651D03*
X105213005Y-75688651D03*
X152400000Y-87835000D03*
X152400000Y-84885000D03*
D32*
X96940000Y-101600000D03*
D31*
X104140000Y-101600000D03*
D15*
X99210897Y-78630716D03*
X99210897Y-75705716D03*
D17*
X139700000Y-62865000D03*
X139700000Y-61595000D03*
X139700000Y-60325000D03*
X139700000Y-59055000D03*
D18*
X133997700Y-59055000D03*
X133997700Y-60325000D03*
X133997700Y-61595000D03*
D19*
X136348000Y-60960000D03*
D18*
X133997700Y-62865000D03*
D33*
X125935000Y-83820000D03*
X122985000Y-83820000D03*
D34*
X153465000Y-58420000D03*
X156415000Y-58420000D03*
D33*
X108155000Y-91440000D03*
X105205000Y-91440000D03*
D35*
X114300000Y-61775000D03*
X114300000Y-65225000D03*
M02*
