%TF.GenerationSoftware,KiCad,Pcbnew,7.0.2*%
%TF.CreationDate,2023-06-26T22:07:46-07:00*%
%TF.ProjectId,19V 10A Standalone,31395620-3130-4412-9053-74616e64616c,rev?*%
%TF.SameCoordinates,Original*%
%TF.FileFunction,Legend,Top*%
%TF.FilePolarity,Positive*%
%FSLAX46Y46*%
G04 Gerber Fmt 4.6, Leading zero omitted, Abs format (unit mm)*
G04 Created by KiCad (PCBNEW 7.0.2) date 2023-06-26 22:07:46*
%MOMM*%
%LPD*%
G01*
G04 APERTURE LIST*
G04 Aperture macros list*
%AMRoundRect*
0 Rectangle with rounded corners*
0 $1 Rounding radius*
0 $2 $3 $4 $5 $6 $7 $8 $9 X,Y pos of 4 corners*
0 Add a 4 corners polygon primitive as box body*
4,1,4,$2,$3,$4,$5,$6,$7,$8,$9,$2,$3,0*
0 Add four circle primitives for the rounded corners*
1,1,$1+$1,$2,$3*
1,1,$1+$1,$4,$5*
1,1,$1+$1,$6,$7*
1,1,$1+$1,$8,$9*
0 Add four rect primitives between the rounded corners*
20,1,$1+$1,$2,$3,$4,$5,0*
20,1,$1+$1,$4,$5,$6,$7,0*
20,1,$1+$1,$6,$7,$8,$9,0*
20,1,$1+$1,$8,$9,$2,$3,0*%
G04 Aperture macros list end*
%ADD10C,0.150000*%
%ADD11C,0.152400*%
%ADD12C,0.120000*%
%ADD13C,0.127000*%
%ADD14C,0.200000*%
%ADD15R,2.184400X1.625600*%
%ADD16RoundRect,0.250000X-0.625000X0.312500X-0.625000X-0.312500X0.625000X-0.312500X0.625000X0.312500X0*%
%ADD17R,2.000000X4.100000*%
%ADD18RoundRect,0.250000X-0.375000X-0.625000X0.375000X-0.625000X0.375000X0.625000X-0.375000X0.625000X0*%
%ADD19RoundRect,0.250000X0.650000X-0.325000X0.650000X0.325000X-0.650000X0.325000X-0.650000X-0.325000X0*%
%ADD20RoundRect,0.250000X0.625000X-0.312500X0.625000X0.312500X-0.625000X0.312500X-0.625000X-0.312500X0*%
%ADD21R,4.521200X4.241800*%
%ADD22R,1.143000X0.431800*%
%ADD23R,0.965200X0.431800*%
%ADD24R,4.700600X4.241800*%
%ADD25RoundRect,0.250000X-0.650000X0.325000X-0.650000X-0.325000X0.650000X-0.325000X0.650000X0.325000X0*%
%ADD26R,1.917700X2.997200*%
%ADD27RoundRect,0.250000X-0.362500X-1.425000X0.362500X-1.425000X0.362500X1.425000X-0.362500X1.425000X0*%
%ADD28R,2.560396X2.499995*%
%ADD29R,0.804800X0.249200*%
%ADD30R,0.249200X0.804800*%
%ADD31R,3.550000X3.550000*%
%ADD32R,1.200000X1.200000*%
%ADD33C,1.200000*%
%ADD34RoundRect,0.250000X-0.312500X-0.625000X0.312500X-0.625000X0.312500X0.625000X-0.312500X0.625000X0*%
%ADD35RoundRect,1.500000X1.500000X-1.500000X1.500000X1.500000X-1.500000X1.500000X-1.500000X-1.500000X0*%
%ADD36C,6.000000*%
%ADD37RoundRect,1.500000X-1.500000X-1.500000X1.500000X-1.500000X1.500000X1.500000X-1.500000X1.500000X0*%
%ADD38RoundRect,0.250000X0.325000X0.650000X-0.325000X0.650000X-0.325000X-0.650000X0.325000X-0.650000X0*%
%ADD39RoundRect,0.250000X-0.325000X-0.650000X0.325000X-0.650000X0.325000X0.650000X-0.325000X0.650000X0*%
%ADD40R,0.600800X1.111200*%
G04 APERTURE END LIST*
D10*
X111323809Y-43642619D02*
X111323809Y-42642619D01*
X111323809Y-42642619D02*
X111561904Y-42642619D01*
X111561904Y-42642619D02*
X111704761Y-42690238D01*
X111704761Y-42690238D02*
X111799999Y-42785476D01*
X111799999Y-42785476D02*
X111847618Y-42880714D01*
X111847618Y-42880714D02*
X111895237Y-43071190D01*
X111895237Y-43071190D02*
X111895237Y-43214047D01*
X111895237Y-43214047D02*
X111847618Y-43404523D01*
X111847618Y-43404523D02*
X111799999Y-43499761D01*
X111799999Y-43499761D02*
X111704761Y-43595000D01*
X111704761Y-43595000D02*
X111561904Y-43642619D01*
X111561904Y-43642619D02*
X111323809Y-43642619D01*
X112752380Y-42975952D02*
X112752380Y-43642619D01*
X112514285Y-42595000D02*
X112276190Y-43309285D01*
X112276190Y-43309285D02*
X112895237Y-43309285D01*
X113038095Y-43737857D02*
X113799999Y-43737857D01*
X114561904Y-43642619D02*
X113990476Y-43642619D01*
X114276190Y-43642619D02*
X114276190Y-42642619D01*
X114276190Y-42642619D02*
X114180952Y-42785476D01*
X114180952Y-42785476D02*
X114085714Y-42880714D01*
X114085714Y-42880714D02*
X113990476Y-42928333D01*
X115038095Y-43642619D02*
X115228571Y-43642619D01*
X115228571Y-43642619D02*
X115323809Y-43595000D01*
X115323809Y-43595000D02*
X115371428Y-43547380D01*
X115371428Y-43547380D02*
X115466666Y-43404523D01*
X115466666Y-43404523D02*
X115514285Y-43214047D01*
X115514285Y-43214047D02*
X115514285Y-42833095D01*
X115514285Y-42833095D02*
X115466666Y-42737857D01*
X115466666Y-42737857D02*
X115419047Y-42690238D01*
X115419047Y-42690238D02*
X115323809Y-42642619D01*
X115323809Y-42642619D02*
X115133333Y-42642619D01*
X115133333Y-42642619D02*
X115038095Y-42690238D01*
X115038095Y-42690238D02*
X114990476Y-42737857D01*
X114990476Y-42737857D02*
X114942857Y-42833095D01*
X114942857Y-42833095D02*
X114942857Y-43071190D01*
X114942857Y-43071190D02*
X114990476Y-43166428D01*
X114990476Y-43166428D02*
X115038095Y-43214047D01*
X115038095Y-43214047D02*
X115133333Y-43261666D01*
X115133333Y-43261666D02*
X115323809Y-43261666D01*
X115323809Y-43261666D02*
X115419047Y-43214047D01*
X115419047Y-43214047D02*
X115466666Y-43166428D01*
X115466666Y-43166428D02*
X115514285Y-43071190D01*
X115800000Y-42642619D02*
X116133333Y-43642619D01*
X116133333Y-43642619D02*
X116466666Y-42642619D01*
X117323809Y-43642619D02*
X116752381Y-43642619D01*
X117038095Y-43642619D02*
X117038095Y-42642619D01*
X117038095Y-42642619D02*
X116942857Y-42785476D01*
X116942857Y-42785476D02*
X116847619Y-42880714D01*
X116847619Y-42880714D02*
X116752381Y-42928333D01*
X115488781Y-84494059D02*
X115012590Y-84827392D01*
X115488781Y-85065487D02*
X114488781Y-85065487D01*
X114488781Y-85065487D02*
X114488781Y-84684535D01*
X114488781Y-84684535D02*
X114536400Y-84589297D01*
X114536400Y-84589297D02*
X114584019Y-84541678D01*
X114584019Y-84541678D02*
X114679257Y-84494059D01*
X114679257Y-84494059D02*
X114822114Y-84494059D01*
X114822114Y-84494059D02*
X114917352Y-84541678D01*
X114917352Y-84541678D02*
X114964971Y-84589297D01*
X114964971Y-84589297D02*
X115012590Y-84684535D01*
X115012590Y-84684535D02*
X115012590Y-85065487D01*
X115488781Y-84065487D02*
X114488781Y-84065487D01*
X114869733Y-84065487D02*
X114822114Y-83970249D01*
X114822114Y-83970249D02*
X114822114Y-83779773D01*
X114822114Y-83779773D02*
X114869733Y-83684535D01*
X114869733Y-83684535D02*
X114917352Y-83636916D01*
X114917352Y-83636916D02*
X115012590Y-83589297D01*
X115012590Y-83589297D02*
X115298304Y-83589297D01*
X115298304Y-83589297D02*
X115393542Y-83636916D01*
X115393542Y-83636916D02*
X115441162Y-83684535D01*
X115441162Y-83684535D02*
X115488781Y-83779773D01*
X115488781Y-83779773D02*
X115488781Y-83970249D01*
X115488781Y-83970249D02*
X115441162Y-84065487D01*
X115488781Y-82636916D02*
X115488781Y-83208344D01*
X115488781Y-82922630D02*
X114488781Y-82922630D01*
X114488781Y-82922630D02*
X114631638Y-83017868D01*
X114631638Y-83017868D02*
X114726876Y-83113106D01*
X114726876Y-83113106D02*
X114774495Y-83208344D01*
X135399046Y-38467380D02*
X135351427Y-38515000D01*
X135351427Y-38515000D02*
X135208570Y-38562619D01*
X135208570Y-38562619D02*
X135113332Y-38562619D01*
X135113332Y-38562619D02*
X134970475Y-38515000D01*
X134970475Y-38515000D02*
X134875237Y-38419761D01*
X134875237Y-38419761D02*
X134827618Y-38324523D01*
X134827618Y-38324523D02*
X134779999Y-38134047D01*
X134779999Y-38134047D02*
X134779999Y-37991190D01*
X134779999Y-37991190D02*
X134827618Y-37800714D01*
X134827618Y-37800714D02*
X134875237Y-37705476D01*
X134875237Y-37705476D02*
X134970475Y-37610238D01*
X134970475Y-37610238D02*
X135113332Y-37562619D01*
X135113332Y-37562619D02*
X135208570Y-37562619D01*
X135208570Y-37562619D02*
X135351427Y-37610238D01*
X135351427Y-37610238D02*
X135399046Y-37657857D01*
X135970475Y-38562619D02*
X135875237Y-38515000D01*
X135875237Y-38515000D02*
X135827618Y-38467380D01*
X135827618Y-38467380D02*
X135779999Y-38372142D01*
X135779999Y-38372142D02*
X135779999Y-38086428D01*
X135779999Y-38086428D02*
X135827618Y-37991190D01*
X135827618Y-37991190D02*
X135875237Y-37943571D01*
X135875237Y-37943571D02*
X135970475Y-37895952D01*
X135970475Y-37895952D02*
X136113332Y-37895952D01*
X136113332Y-37895952D02*
X136208570Y-37943571D01*
X136208570Y-37943571D02*
X136256189Y-37991190D01*
X136256189Y-37991190D02*
X136303808Y-38086428D01*
X136303808Y-38086428D02*
X136303808Y-38372142D01*
X136303808Y-38372142D02*
X136256189Y-38467380D01*
X136256189Y-38467380D02*
X136208570Y-38515000D01*
X136208570Y-38515000D02*
X136113332Y-38562619D01*
X136113332Y-38562619D02*
X135970475Y-38562619D01*
X137160951Y-37895952D02*
X137160951Y-38562619D01*
X136732380Y-37895952D02*
X136732380Y-38419761D01*
X136732380Y-38419761D02*
X136779999Y-38515000D01*
X136779999Y-38515000D02*
X136875237Y-38562619D01*
X136875237Y-38562619D02*
X137018094Y-38562619D01*
X137018094Y-38562619D02*
X137113332Y-38515000D01*
X137113332Y-38515000D02*
X137160951Y-38467380D01*
X137494285Y-37895952D02*
X137875237Y-37895952D01*
X137637142Y-37562619D02*
X137637142Y-38419761D01*
X137637142Y-38419761D02*
X137684761Y-38515000D01*
X137684761Y-38515000D02*
X137779999Y-38562619D01*
X137779999Y-38562619D02*
X137875237Y-38562619D01*
X137970476Y-38657857D02*
X138732380Y-38657857D01*
X139494285Y-38562619D02*
X138922857Y-38562619D01*
X139208571Y-38562619D02*
X139208571Y-37562619D01*
X139208571Y-37562619D02*
X139113333Y-37705476D01*
X139113333Y-37705476D02*
X139018095Y-37800714D01*
X139018095Y-37800714D02*
X138922857Y-37848333D01*
X139970476Y-38562619D02*
X140160952Y-38562619D01*
X140160952Y-38562619D02*
X140256190Y-38515000D01*
X140256190Y-38515000D02*
X140303809Y-38467380D01*
X140303809Y-38467380D02*
X140399047Y-38324523D01*
X140399047Y-38324523D02*
X140446666Y-38134047D01*
X140446666Y-38134047D02*
X140446666Y-37753095D01*
X140446666Y-37753095D02*
X140399047Y-37657857D01*
X140399047Y-37657857D02*
X140351428Y-37610238D01*
X140351428Y-37610238D02*
X140256190Y-37562619D01*
X140256190Y-37562619D02*
X140065714Y-37562619D01*
X140065714Y-37562619D02*
X139970476Y-37610238D01*
X139970476Y-37610238D02*
X139922857Y-37657857D01*
X139922857Y-37657857D02*
X139875238Y-37753095D01*
X139875238Y-37753095D02*
X139875238Y-37991190D01*
X139875238Y-37991190D02*
X139922857Y-38086428D01*
X139922857Y-38086428D02*
X139970476Y-38134047D01*
X139970476Y-38134047D02*
X140065714Y-38181666D01*
X140065714Y-38181666D02*
X140256190Y-38181666D01*
X140256190Y-38181666D02*
X140351428Y-38134047D01*
X140351428Y-38134047D02*
X140399047Y-38086428D01*
X140399047Y-38086428D02*
X140446666Y-37991190D01*
X140732381Y-37562619D02*
X141065714Y-38562619D01*
X141065714Y-38562619D02*
X141399047Y-37562619D01*
X141494286Y-38657857D02*
X142256190Y-38657857D01*
X142494286Y-38038809D02*
X142827619Y-38038809D01*
X142970476Y-38562619D02*
X142494286Y-38562619D01*
X142494286Y-38562619D02*
X142494286Y-37562619D01*
X142494286Y-37562619D02*
X142970476Y-37562619D01*
X143399048Y-38038809D02*
X143732381Y-38038809D01*
X143875238Y-38562619D02*
X143399048Y-38562619D01*
X143399048Y-38562619D02*
X143399048Y-37562619D01*
X143399048Y-37562619D02*
X143875238Y-37562619D01*
X144303810Y-38562619D02*
X144303810Y-37562619D01*
X144303810Y-38038809D02*
X144875238Y-38038809D01*
X144875238Y-38562619D02*
X144875238Y-37562619D01*
X145351429Y-38181666D02*
X146113334Y-38181666D01*
X146494286Y-37562619D02*
X147160952Y-37562619D01*
X147160952Y-37562619D02*
X146494286Y-38562619D01*
X146494286Y-38562619D02*
X147160952Y-38562619D01*
X147541905Y-37562619D02*
X147541905Y-38372142D01*
X147541905Y-38372142D02*
X147589524Y-38467380D01*
X147589524Y-38467380D02*
X147637143Y-38515000D01*
X147637143Y-38515000D02*
X147732381Y-38562619D01*
X147732381Y-38562619D02*
X147922857Y-38562619D01*
X147922857Y-38562619D02*
X148018095Y-38515000D01*
X148018095Y-38515000D02*
X148065714Y-38467380D01*
X148065714Y-38467380D02*
X148113333Y-38372142D01*
X148113333Y-38372142D02*
X148113333Y-37562619D01*
X149113333Y-38562619D02*
X148541905Y-38562619D01*
X148827619Y-38562619D02*
X148827619Y-37562619D01*
X148827619Y-37562619D02*
X148732381Y-37705476D01*
X148732381Y-37705476D02*
X148637143Y-37800714D01*
X148637143Y-37800714D02*
X148541905Y-37848333D01*
X149399048Y-37562619D02*
X149732381Y-38562619D01*
X149732381Y-38562619D02*
X150065714Y-37562619D01*
X150303810Y-37562619D02*
X150922857Y-37562619D01*
X150922857Y-37562619D02*
X150589524Y-37943571D01*
X150589524Y-37943571D02*
X150732381Y-37943571D01*
X150732381Y-37943571D02*
X150827619Y-37991190D01*
X150827619Y-37991190D02*
X150875238Y-38038809D01*
X150875238Y-38038809D02*
X150922857Y-38134047D01*
X150922857Y-38134047D02*
X150922857Y-38372142D01*
X150922857Y-38372142D02*
X150875238Y-38467380D01*
X150875238Y-38467380D02*
X150827619Y-38515000D01*
X150827619Y-38515000D02*
X150732381Y-38562619D01*
X150732381Y-38562619D02*
X150446667Y-38562619D01*
X150446667Y-38562619D02*
X150351429Y-38515000D01*
X150351429Y-38515000D02*
X150303810Y-38467380D01*
X151256191Y-37562619D02*
X151875238Y-37562619D01*
X151875238Y-37562619D02*
X151541905Y-37943571D01*
X151541905Y-37943571D02*
X151684762Y-37943571D01*
X151684762Y-37943571D02*
X151780000Y-37991190D01*
X151780000Y-37991190D02*
X151827619Y-38038809D01*
X151827619Y-38038809D02*
X151875238Y-38134047D01*
X151875238Y-38134047D02*
X151875238Y-38372142D01*
X151875238Y-38372142D02*
X151827619Y-38467380D01*
X151827619Y-38467380D02*
X151780000Y-38515000D01*
X151780000Y-38515000D02*
X151684762Y-38562619D01*
X151684762Y-38562619D02*
X151399048Y-38562619D01*
X151399048Y-38562619D02*
X151303810Y-38515000D01*
X151303810Y-38515000D02*
X151256191Y-38467380D01*
X152827619Y-38562619D02*
X152256191Y-38562619D01*
X152541905Y-38562619D02*
X152541905Y-37562619D01*
X152541905Y-37562619D02*
X152446667Y-37705476D01*
X152446667Y-37705476D02*
X152351429Y-37800714D01*
X152351429Y-37800714D02*
X152256191Y-37848333D01*
X153256191Y-38562619D02*
X153256191Y-37562619D01*
X153256191Y-37562619D02*
X153637143Y-37562619D01*
X153637143Y-37562619D02*
X153732381Y-37610238D01*
X153732381Y-37610238D02*
X153780000Y-37657857D01*
X153780000Y-37657857D02*
X153827619Y-37753095D01*
X153827619Y-37753095D02*
X153827619Y-37895952D01*
X153827619Y-37895952D02*
X153780000Y-37991190D01*
X153780000Y-37991190D02*
X153732381Y-38038809D01*
X153732381Y-38038809D02*
X153637143Y-38086428D01*
X153637143Y-38086428D02*
X153256191Y-38086428D01*
X154780000Y-38562619D02*
X154208572Y-38562619D01*
X154494286Y-38562619D02*
X154494286Y-37562619D01*
X154494286Y-37562619D02*
X154399048Y-37705476D01*
X154399048Y-37705476D02*
X154303810Y-37800714D01*
X154303810Y-37800714D02*
X154208572Y-37848333D01*
X118924066Y-57092049D02*
X118447875Y-57425382D01*
X118924066Y-57663477D02*
X117924066Y-57663477D01*
X117924066Y-57663477D02*
X117924066Y-57282525D01*
X117924066Y-57282525D02*
X117971685Y-57187287D01*
X117971685Y-57187287D02*
X118019304Y-57139668D01*
X118019304Y-57139668D02*
X118114542Y-57092049D01*
X118114542Y-57092049D02*
X118257399Y-57092049D01*
X118257399Y-57092049D02*
X118352637Y-57139668D01*
X118352637Y-57139668D02*
X118400256Y-57187287D01*
X118400256Y-57187287D02*
X118447875Y-57282525D01*
X118447875Y-57282525D02*
X118447875Y-57663477D01*
X119305018Y-56377763D02*
X119257399Y-56425382D01*
X119257399Y-56425382D02*
X119114542Y-56520620D01*
X119114542Y-56520620D02*
X119019304Y-56568239D01*
X119019304Y-56568239D02*
X118876447Y-56615858D01*
X118876447Y-56615858D02*
X118638351Y-56663477D01*
X118638351Y-56663477D02*
X118447875Y-56663477D01*
X118447875Y-56663477D02*
X118209780Y-56615858D01*
X118209780Y-56615858D02*
X118066923Y-56568239D01*
X118066923Y-56568239D02*
X117971685Y-56520620D01*
X117971685Y-56520620D02*
X117828827Y-56425382D01*
X117828827Y-56425382D02*
X117781208Y-56377763D01*
X118257399Y-55996810D02*
X119257399Y-55996810D01*
X118305018Y-55996810D02*
X118257399Y-55901572D01*
X118257399Y-55901572D02*
X118257399Y-55711096D01*
X118257399Y-55711096D02*
X118305018Y-55615858D01*
X118305018Y-55615858D02*
X118352637Y-55568239D01*
X118352637Y-55568239D02*
X118447875Y-55520620D01*
X118447875Y-55520620D02*
X118733589Y-55520620D01*
X118733589Y-55520620D02*
X118828827Y-55568239D01*
X118828827Y-55568239D02*
X118876447Y-55615858D01*
X118876447Y-55615858D02*
X118924066Y-55711096D01*
X118924066Y-55711096D02*
X118924066Y-55901572D01*
X118924066Y-55901572D02*
X118876447Y-55996810D01*
X118257399Y-54663477D02*
X119066923Y-54663477D01*
X119066923Y-54663477D02*
X119162161Y-54711096D01*
X119162161Y-54711096D02*
X119209780Y-54758715D01*
X119209780Y-54758715D02*
X119257399Y-54853953D01*
X119257399Y-54853953D02*
X119257399Y-54996810D01*
X119257399Y-54996810D02*
X119209780Y-55092048D01*
X118876447Y-54663477D02*
X118924066Y-54758715D01*
X118924066Y-54758715D02*
X118924066Y-54949191D01*
X118924066Y-54949191D02*
X118876447Y-55044429D01*
X118876447Y-55044429D02*
X118828827Y-55092048D01*
X118828827Y-55092048D02*
X118733589Y-55139667D01*
X118733589Y-55139667D02*
X118447875Y-55139667D01*
X118447875Y-55139667D02*
X118352637Y-55092048D01*
X118352637Y-55092048D02*
X118305018Y-55044429D01*
X118305018Y-55044429D02*
X118257399Y-54949191D01*
X118257399Y-54949191D02*
X118257399Y-54758715D01*
X118257399Y-54758715D02*
X118305018Y-54663477D01*
X118924066Y-54044429D02*
X118876447Y-54139667D01*
X118876447Y-54139667D02*
X118828827Y-54187286D01*
X118828827Y-54187286D02*
X118733589Y-54234905D01*
X118733589Y-54234905D02*
X118447875Y-54234905D01*
X118447875Y-54234905D02*
X118352637Y-54187286D01*
X118352637Y-54187286D02*
X118305018Y-54139667D01*
X118305018Y-54139667D02*
X118257399Y-54044429D01*
X118257399Y-54044429D02*
X118257399Y-53901572D01*
X118257399Y-53901572D02*
X118305018Y-53806334D01*
X118305018Y-53806334D02*
X118352637Y-53758715D01*
X118352637Y-53758715D02*
X118447875Y-53711096D01*
X118447875Y-53711096D02*
X118733589Y-53711096D01*
X118733589Y-53711096D02*
X118828827Y-53758715D01*
X118828827Y-53758715D02*
X118876447Y-53806334D01*
X118876447Y-53806334D02*
X118924066Y-53901572D01*
X118924066Y-53901572D02*
X118924066Y-54044429D01*
X118924066Y-53139667D02*
X118876447Y-53234905D01*
X118876447Y-53234905D02*
X118828827Y-53282524D01*
X118828827Y-53282524D02*
X118733589Y-53330143D01*
X118733589Y-53330143D02*
X118447875Y-53330143D01*
X118447875Y-53330143D02*
X118352637Y-53282524D01*
X118352637Y-53282524D02*
X118305018Y-53234905D01*
X118305018Y-53234905D02*
X118257399Y-53139667D01*
X118257399Y-53139667D02*
X118257399Y-52996810D01*
X118257399Y-52996810D02*
X118305018Y-52901572D01*
X118305018Y-52901572D02*
X118352637Y-52853953D01*
X118352637Y-52853953D02*
X118447875Y-52806334D01*
X118447875Y-52806334D02*
X118733589Y-52806334D01*
X118733589Y-52806334D02*
X118828827Y-52853953D01*
X118828827Y-52853953D02*
X118876447Y-52901572D01*
X118876447Y-52901572D02*
X118924066Y-52996810D01*
X118924066Y-52996810D02*
X118924066Y-53139667D01*
X118924066Y-51949191D02*
X117924066Y-51949191D01*
X118876447Y-51949191D02*
X118924066Y-52044429D01*
X118924066Y-52044429D02*
X118924066Y-52234905D01*
X118924066Y-52234905D02*
X118876447Y-52330143D01*
X118876447Y-52330143D02*
X118828827Y-52377762D01*
X118828827Y-52377762D02*
X118733589Y-52425381D01*
X118733589Y-52425381D02*
X118447875Y-52425381D01*
X118447875Y-52425381D02*
X118352637Y-52377762D01*
X118352637Y-52377762D02*
X118305018Y-52330143D01*
X118305018Y-52330143D02*
X118257399Y-52234905D01*
X118257399Y-52234905D02*
X118257399Y-52044429D01*
X118257399Y-52044429D02*
X118305018Y-51949191D01*
X119305018Y-51568238D02*
X119257399Y-51520619D01*
X119257399Y-51520619D02*
X119114542Y-51425381D01*
X119114542Y-51425381D02*
X119019304Y-51377762D01*
X119019304Y-51377762D02*
X118876447Y-51330143D01*
X118876447Y-51330143D02*
X118638351Y-51282524D01*
X118638351Y-51282524D02*
X118447875Y-51282524D01*
X118447875Y-51282524D02*
X118209780Y-51330143D01*
X118209780Y-51330143D02*
X118066923Y-51377762D01*
X118066923Y-51377762D02*
X117971685Y-51425381D01*
X117971685Y-51425381D02*
X117828827Y-51520619D01*
X117828827Y-51520619D02*
X117781208Y-51568238D01*
X118924066Y-50282524D02*
X118924066Y-50853952D01*
X118924066Y-50568238D02*
X117924066Y-50568238D01*
X117924066Y-50568238D02*
X118066923Y-50663476D01*
X118066923Y-50663476D02*
X118162161Y-50758714D01*
X118162161Y-50758714D02*
X118209780Y-50853952D01*
X97734384Y-84836700D02*
X97782004Y-84884319D01*
X97782004Y-84884319D02*
X97829623Y-85027176D01*
X97829623Y-85027176D02*
X97829623Y-85122414D01*
X97829623Y-85122414D02*
X97782004Y-85265271D01*
X97782004Y-85265271D02*
X97686765Y-85360509D01*
X97686765Y-85360509D02*
X97591527Y-85408128D01*
X97591527Y-85408128D02*
X97401051Y-85455747D01*
X97401051Y-85455747D02*
X97258194Y-85455747D01*
X97258194Y-85455747D02*
X97067718Y-85408128D01*
X97067718Y-85408128D02*
X96972480Y-85360509D01*
X96972480Y-85360509D02*
X96877242Y-85265271D01*
X96877242Y-85265271D02*
X96829623Y-85122414D01*
X96829623Y-85122414D02*
X96829623Y-85027176D01*
X96829623Y-85027176D02*
X96877242Y-84884319D01*
X96877242Y-84884319D02*
X96924861Y-84836700D01*
X97162956Y-84550985D02*
X97162956Y-84170033D01*
X96829623Y-84408128D02*
X97686765Y-84408128D01*
X97686765Y-84408128D02*
X97782004Y-84360509D01*
X97782004Y-84360509D02*
X97829623Y-84265271D01*
X97829623Y-84265271D02*
X97829623Y-84170033D01*
X97829623Y-83836699D02*
X96829623Y-83836699D01*
X97829623Y-83408128D02*
X97305813Y-83408128D01*
X97305813Y-83408128D02*
X97210575Y-83455747D01*
X97210575Y-83455747D02*
X97162956Y-83550985D01*
X97162956Y-83550985D02*
X97162956Y-83693842D01*
X97162956Y-83693842D02*
X97210575Y-83789080D01*
X97210575Y-83789080D02*
X97258194Y-83836699D01*
X97829623Y-82408128D02*
X97829623Y-82979556D01*
X97829623Y-82693842D02*
X96829623Y-82693842D01*
X96829623Y-82693842D02*
X96972480Y-82789080D01*
X96972480Y-82789080D02*
X97067718Y-82884318D01*
X97067718Y-82884318D02*
X97115337Y-82979556D01*
X103969316Y-84627308D02*
X103493125Y-84960641D01*
X103969316Y-85198736D02*
X102969316Y-85198736D01*
X102969316Y-85198736D02*
X102969316Y-84817784D01*
X102969316Y-84817784D02*
X103016935Y-84722546D01*
X103016935Y-84722546D02*
X103064554Y-84674927D01*
X103064554Y-84674927D02*
X103159792Y-84627308D01*
X103159792Y-84627308D02*
X103302649Y-84627308D01*
X103302649Y-84627308D02*
X103397887Y-84674927D01*
X103397887Y-84674927D02*
X103445506Y-84722546D01*
X103445506Y-84722546D02*
X103493125Y-84817784D01*
X103493125Y-84817784D02*
X103493125Y-85198736D01*
X103302649Y-84341593D02*
X103302649Y-83960641D01*
X102969316Y-84198736D02*
X103826458Y-84198736D01*
X103826458Y-84198736D02*
X103921697Y-84151117D01*
X103921697Y-84151117D02*
X103969316Y-84055879D01*
X103969316Y-84055879D02*
X103969316Y-83960641D01*
X103969316Y-83627307D02*
X102969316Y-83627307D01*
X103969316Y-83198736D02*
X103445506Y-83198736D01*
X103445506Y-83198736D02*
X103350268Y-83246355D01*
X103350268Y-83246355D02*
X103302649Y-83341593D01*
X103302649Y-83341593D02*
X103302649Y-83484450D01*
X103302649Y-83484450D02*
X103350268Y-83579688D01*
X103350268Y-83579688D02*
X103397887Y-83627307D01*
X103969316Y-82198736D02*
X103969316Y-82770164D01*
X103969316Y-82484450D02*
X102969316Y-82484450D01*
X102969316Y-82484450D02*
X103112173Y-82579688D01*
X103112173Y-82579688D02*
X103207411Y-82674926D01*
X103207411Y-82674926D02*
X103255030Y-82770164D01*
X118943809Y-89362619D02*
X118943809Y-88362619D01*
X118943809Y-88362619D02*
X119181904Y-88362619D01*
X119181904Y-88362619D02*
X119324761Y-88410238D01*
X119324761Y-88410238D02*
X119419999Y-88505476D01*
X119419999Y-88505476D02*
X119467618Y-88600714D01*
X119467618Y-88600714D02*
X119515237Y-88791190D01*
X119515237Y-88791190D02*
X119515237Y-88934047D01*
X119515237Y-88934047D02*
X119467618Y-89124523D01*
X119467618Y-89124523D02*
X119419999Y-89219761D01*
X119419999Y-89219761D02*
X119324761Y-89315000D01*
X119324761Y-89315000D02*
X119181904Y-89362619D01*
X119181904Y-89362619D02*
X118943809Y-89362619D01*
X120419999Y-88362619D02*
X119943809Y-88362619D01*
X119943809Y-88362619D02*
X119896190Y-88838809D01*
X119896190Y-88838809D02*
X119943809Y-88791190D01*
X119943809Y-88791190D02*
X120039047Y-88743571D01*
X120039047Y-88743571D02*
X120277142Y-88743571D01*
X120277142Y-88743571D02*
X120372380Y-88791190D01*
X120372380Y-88791190D02*
X120419999Y-88838809D01*
X120419999Y-88838809D02*
X120467618Y-88934047D01*
X120467618Y-88934047D02*
X120467618Y-89172142D01*
X120467618Y-89172142D02*
X120419999Y-89267380D01*
X120419999Y-89267380D02*
X120372380Y-89315000D01*
X120372380Y-89315000D02*
X120277142Y-89362619D01*
X120277142Y-89362619D02*
X120039047Y-89362619D01*
X120039047Y-89362619D02*
X119943809Y-89315000D01*
X119943809Y-89315000D02*
X119896190Y-89267380D01*
X120658095Y-89457857D02*
X121419999Y-89457857D01*
X122181904Y-89362619D02*
X121610476Y-89362619D01*
X121896190Y-89362619D02*
X121896190Y-88362619D01*
X121896190Y-88362619D02*
X121800952Y-88505476D01*
X121800952Y-88505476D02*
X121705714Y-88600714D01*
X121705714Y-88600714D02*
X121610476Y-88648333D01*
X122658095Y-89362619D02*
X122848571Y-89362619D01*
X122848571Y-89362619D02*
X122943809Y-89315000D01*
X122943809Y-89315000D02*
X122991428Y-89267380D01*
X122991428Y-89267380D02*
X123086666Y-89124523D01*
X123086666Y-89124523D02*
X123134285Y-88934047D01*
X123134285Y-88934047D02*
X123134285Y-88553095D01*
X123134285Y-88553095D02*
X123086666Y-88457857D01*
X123086666Y-88457857D02*
X123039047Y-88410238D01*
X123039047Y-88410238D02*
X122943809Y-88362619D01*
X122943809Y-88362619D02*
X122753333Y-88362619D01*
X122753333Y-88362619D02*
X122658095Y-88410238D01*
X122658095Y-88410238D02*
X122610476Y-88457857D01*
X122610476Y-88457857D02*
X122562857Y-88553095D01*
X122562857Y-88553095D02*
X122562857Y-88791190D01*
X122562857Y-88791190D02*
X122610476Y-88886428D01*
X122610476Y-88886428D02*
X122658095Y-88934047D01*
X122658095Y-88934047D02*
X122753333Y-88981666D01*
X122753333Y-88981666D02*
X122943809Y-88981666D01*
X122943809Y-88981666D02*
X123039047Y-88934047D01*
X123039047Y-88934047D02*
X123086666Y-88886428D01*
X123086666Y-88886428D02*
X123134285Y-88791190D01*
X123420000Y-88362619D02*
X123753333Y-89362619D01*
X123753333Y-89362619D02*
X124086666Y-88362619D01*
X124943809Y-89362619D02*
X124372381Y-89362619D01*
X124658095Y-89362619D02*
X124658095Y-88362619D01*
X124658095Y-88362619D02*
X124562857Y-88505476D01*
X124562857Y-88505476D02*
X124467619Y-88600714D01*
X124467619Y-88600714D02*
X124372381Y-88648333D01*
X177935237Y-71582619D02*
X177459047Y-71582619D01*
X177459047Y-71582619D02*
X177459047Y-70582619D01*
X178792380Y-71582619D02*
X178220952Y-71582619D01*
X178506666Y-71582619D02*
X178506666Y-70582619D01*
X178506666Y-70582619D02*
X178411428Y-70725476D01*
X178411428Y-70725476D02*
X178316190Y-70820714D01*
X178316190Y-70820714D02*
X178220952Y-70868333D01*
X178982857Y-71677857D02*
X179744761Y-71677857D01*
X180506666Y-71582619D02*
X179935238Y-71582619D01*
X180220952Y-71582619D02*
X180220952Y-70582619D01*
X180220952Y-70582619D02*
X180125714Y-70725476D01*
X180125714Y-70725476D02*
X180030476Y-70820714D01*
X180030476Y-70820714D02*
X179935238Y-70868333D01*
X180982857Y-71582619D02*
X181173333Y-71582619D01*
X181173333Y-71582619D02*
X181268571Y-71535000D01*
X181268571Y-71535000D02*
X181316190Y-71487380D01*
X181316190Y-71487380D02*
X181411428Y-71344523D01*
X181411428Y-71344523D02*
X181459047Y-71154047D01*
X181459047Y-71154047D02*
X181459047Y-70773095D01*
X181459047Y-70773095D02*
X181411428Y-70677857D01*
X181411428Y-70677857D02*
X181363809Y-70630238D01*
X181363809Y-70630238D02*
X181268571Y-70582619D01*
X181268571Y-70582619D02*
X181078095Y-70582619D01*
X181078095Y-70582619D02*
X180982857Y-70630238D01*
X180982857Y-70630238D02*
X180935238Y-70677857D01*
X180935238Y-70677857D02*
X180887619Y-70773095D01*
X180887619Y-70773095D02*
X180887619Y-71011190D01*
X180887619Y-71011190D02*
X180935238Y-71106428D01*
X180935238Y-71106428D02*
X180982857Y-71154047D01*
X180982857Y-71154047D02*
X181078095Y-71201666D01*
X181078095Y-71201666D02*
X181268571Y-71201666D01*
X181268571Y-71201666D02*
X181363809Y-71154047D01*
X181363809Y-71154047D02*
X181411428Y-71106428D01*
X181411428Y-71106428D02*
X181459047Y-71011190D01*
X181744762Y-70582619D02*
X182078095Y-71582619D01*
X182078095Y-71582619D02*
X182411428Y-70582619D01*
X183268571Y-71582619D02*
X182697143Y-71582619D01*
X182982857Y-71582619D02*
X182982857Y-70582619D01*
X182982857Y-70582619D02*
X182887619Y-70725476D01*
X182887619Y-70725476D02*
X182792381Y-70820714D01*
X182792381Y-70820714D02*
X182697143Y-70868333D01*
X167640000Y-60122819D02*
X167640000Y-60360914D01*
X167401905Y-60265676D02*
X167640000Y-60360914D01*
X167640000Y-60360914D02*
X167878095Y-60265676D01*
X167497143Y-60551390D02*
X167640000Y-60360914D01*
X167640000Y-60360914D02*
X167782857Y-60551390D01*
X165544500Y-60122819D02*
X165544500Y-60360914D01*
X165306405Y-60265676D02*
X165544500Y-60360914D01*
X165544500Y-60360914D02*
X165782595Y-60265676D01*
X165401643Y-60551390D02*
X165544500Y-60360914D01*
X165544500Y-60360914D02*
X165687357Y-60551390D01*
X109765137Y-77289304D02*
X109288946Y-77622637D01*
X109765137Y-77860732D02*
X108765137Y-77860732D01*
X108765137Y-77860732D02*
X108765137Y-77479780D01*
X108765137Y-77479780D02*
X108812756Y-77384542D01*
X108812756Y-77384542D02*
X108860375Y-77336923D01*
X108860375Y-77336923D02*
X108955613Y-77289304D01*
X108955613Y-77289304D02*
X109098470Y-77289304D01*
X109098470Y-77289304D02*
X109193708Y-77336923D01*
X109193708Y-77336923D02*
X109241327Y-77384542D01*
X109241327Y-77384542D02*
X109288946Y-77479780D01*
X109288946Y-77479780D02*
X109288946Y-77860732D01*
X109765137Y-76336923D02*
X109765137Y-76908351D01*
X109765137Y-76622637D02*
X108765137Y-76622637D01*
X108765137Y-76622637D02*
X108907994Y-76717875D01*
X108907994Y-76717875D02*
X109003232Y-76813113D01*
X109003232Y-76813113D02*
X109050851Y-76908351D01*
X133298721Y-70357502D02*
X133203483Y-70309883D01*
X133203483Y-70309883D02*
X133108245Y-70214645D01*
X133108245Y-70214645D02*
X132965388Y-70071787D01*
X132965388Y-70071787D02*
X132870150Y-70024168D01*
X132870150Y-70024168D02*
X132774912Y-70024168D01*
X132822531Y-70262264D02*
X132727293Y-70214645D01*
X132727293Y-70214645D02*
X132632055Y-70119406D01*
X132632055Y-70119406D02*
X132584436Y-69928930D01*
X132584436Y-69928930D02*
X132584436Y-69595597D01*
X132584436Y-69595597D02*
X132632055Y-69405121D01*
X132632055Y-69405121D02*
X132727293Y-69309883D01*
X132727293Y-69309883D02*
X132822531Y-69262264D01*
X132822531Y-69262264D02*
X133013007Y-69262264D01*
X133013007Y-69262264D02*
X133108245Y-69309883D01*
X133108245Y-69309883D02*
X133203483Y-69405121D01*
X133203483Y-69405121D02*
X133251102Y-69595597D01*
X133251102Y-69595597D02*
X133251102Y-69928930D01*
X133251102Y-69928930D02*
X133203483Y-70119406D01*
X133203483Y-70119406D02*
X133108245Y-70214645D01*
X133108245Y-70214645D02*
X133013007Y-70262264D01*
X133013007Y-70262264D02*
X132822531Y-70262264D01*
X134251102Y-70167025D02*
X134203483Y-70214645D01*
X134203483Y-70214645D02*
X134060626Y-70262264D01*
X134060626Y-70262264D02*
X133965388Y-70262264D01*
X133965388Y-70262264D02*
X133822531Y-70214645D01*
X133822531Y-70214645D02*
X133727293Y-70119406D01*
X133727293Y-70119406D02*
X133679674Y-70024168D01*
X133679674Y-70024168D02*
X133632055Y-69833692D01*
X133632055Y-69833692D02*
X133632055Y-69690835D01*
X133632055Y-69690835D02*
X133679674Y-69500359D01*
X133679674Y-69500359D02*
X133727293Y-69405121D01*
X133727293Y-69405121D02*
X133822531Y-69309883D01*
X133822531Y-69309883D02*
X133965388Y-69262264D01*
X133965388Y-69262264D02*
X134060626Y-69262264D01*
X134060626Y-69262264D02*
X134203483Y-69309883D01*
X134203483Y-69309883D02*
X134251102Y-69357502D01*
X134965388Y-70643216D02*
X134917769Y-70595597D01*
X134917769Y-70595597D02*
X134822531Y-70452740D01*
X134822531Y-70452740D02*
X134774912Y-70357502D01*
X134774912Y-70357502D02*
X134727293Y-70214645D01*
X134727293Y-70214645D02*
X134679674Y-69976549D01*
X134679674Y-69976549D02*
X134679674Y-69786073D01*
X134679674Y-69786073D02*
X134727293Y-69547978D01*
X134727293Y-69547978D02*
X134774912Y-69405121D01*
X134774912Y-69405121D02*
X134822531Y-69309883D01*
X134822531Y-69309883D02*
X134917769Y-69167025D01*
X134917769Y-69167025D02*
X134965388Y-69119406D01*
X135774912Y-69595597D02*
X135774912Y-70262264D01*
X135536817Y-69214645D02*
X135298722Y-69928930D01*
X135298722Y-69928930D02*
X135917769Y-69928930D01*
X136203484Y-70643216D02*
X136251103Y-70595597D01*
X136251103Y-70595597D02*
X136346341Y-70452740D01*
X136346341Y-70452740D02*
X136393960Y-70357502D01*
X136393960Y-70357502D02*
X136441579Y-70214645D01*
X136441579Y-70214645D02*
X136489198Y-69976549D01*
X136489198Y-69976549D02*
X136489198Y-69786073D01*
X136489198Y-69786073D02*
X136441579Y-69547978D01*
X136441579Y-69547978D02*
X136393960Y-69405121D01*
X136393960Y-69405121D02*
X136346341Y-69309883D01*
X136346341Y-69309883D02*
X136251103Y-69167025D01*
X136251103Y-69167025D02*
X136203484Y-69119406D01*
X136727294Y-70357502D02*
X137489198Y-70357502D01*
X138251103Y-70262264D02*
X137679675Y-70262264D01*
X137965389Y-70262264D02*
X137965389Y-69262264D01*
X137965389Y-69262264D02*
X137870151Y-69405121D01*
X137870151Y-69405121D02*
X137774913Y-69500359D01*
X137774913Y-69500359D02*
X137679675Y-69547978D01*
X138727294Y-70262264D02*
X138917770Y-70262264D01*
X138917770Y-70262264D02*
X139013008Y-70214645D01*
X139013008Y-70214645D02*
X139060627Y-70167025D01*
X139060627Y-70167025D02*
X139155865Y-70024168D01*
X139155865Y-70024168D02*
X139203484Y-69833692D01*
X139203484Y-69833692D02*
X139203484Y-69452740D01*
X139203484Y-69452740D02*
X139155865Y-69357502D01*
X139155865Y-69357502D02*
X139108246Y-69309883D01*
X139108246Y-69309883D02*
X139013008Y-69262264D01*
X139013008Y-69262264D02*
X138822532Y-69262264D01*
X138822532Y-69262264D02*
X138727294Y-69309883D01*
X138727294Y-69309883D02*
X138679675Y-69357502D01*
X138679675Y-69357502D02*
X138632056Y-69452740D01*
X138632056Y-69452740D02*
X138632056Y-69690835D01*
X138632056Y-69690835D02*
X138679675Y-69786073D01*
X138679675Y-69786073D02*
X138727294Y-69833692D01*
X138727294Y-69833692D02*
X138822532Y-69881311D01*
X138822532Y-69881311D02*
X139013008Y-69881311D01*
X139013008Y-69881311D02*
X139108246Y-69833692D01*
X139108246Y-69833692D02*
X139155865Y-69786073D01*
X139155865Y-69786073D02*
X139203484Y-69690835D01*
X139489199Y-69262264D02*
X139822532Y-70262264D01*
X139822532Y-70262264D02*
X140155865Y-69262264D01*
X140251104Y-70357502D02*
X141013008Y-70357502D01*
X141774913Y-70262264D02*
X141203485Y-70262264D01*
X141489199Y-70262264D02*
X141489199Y-69262264D01*
X141489199Y-69262264D02*
X141393961Y-69405121D01*
X141393961Y-69405121D02*
X141298723Y-69500359D01*
X141298723Y-69500359D02*
X141203485Y-69547978D01*
X99427380Y-48529524D02*
X99475000Y-48577143D01*
X99475000Y-48577143D02*
X99522619Y-48720000D01*
X99522619Y-48720000D02*
X99522619Y-48815238D01*
X99522619Y-48815238D02*
X99475000Y-48958095D01*
X99475000Y-48958095D02*
X99379761Y-49053333D01*
X99379761Y-49053333D02*
X99284523Y-49100952D01*
X99284523Y-49100952D02*
X99094047Y-49148571D01*
X99094047Y-49148571D02*
X98951190Y-49148571D01*
X98951190Y-49148571D02*
X98760714Y-49100952D01*
X98760714Y-49100952D02*
X98665476Y-49053333D01*
X98665476Y-49053333D02*
X98570238Y-48958095D01*
X98570238Y-48958095D02*
X98522619Y-48815238D01*
X98522619Y-48815238D02*
X98522619Y-48720000D01*
X98522619Y-48720000D02*
X98570238Y-48577143D01*
X98570238Y-48577143D02*
X98617857Y-48529524D01*
X99522619Y-47672381D02*
X98998809Y-47672381D01*
X98998809Y-47672381D02*
X98903571Y-47720000D01*
X98903571Y-47720000D02*
X98855952Y-47815238D01*
X98855952Y-47815238D02*
X98855952Y-48005714D01*
X98855952Y-48005714D02*
X98903571Y-48100952D01*
X99475000Y-47672381D02*
X99522619Y-47767619D01*
X99522619Y-47767619D02*
X99522619Y-48005714D01*
X99522619Y-48005714D02*
X99475000Y-48100952D01*
X99475000Y-48100952D02*
X99379761Y-48148571D01*
X99379761Y-48148571D02*
X99284523Y-48148571D01*
X99284523Y-48148571D02*
X99189285Y-48100952D01*
X99189285Y-48100952D02*
X99141666Y-48005714D01*
X99141666Y-48005714D02*
X99141666Y-47767619D01*
X99141666Y-47767619D02*
X99094047Y-47672381D01*
X99903571Y-46910476D02*
X99855952Y-46958095D01*
X99855952Y-46958095D02*
X99713095Y-47053333D01*
X99713095Y-47053333D02*
X99617857Y-47100952D01*
X99617857Y-47100952D02*
X99475000Y-47148571D01*
X99475000Y-47148571D02*
X99236904Y-47196190D01*
X99236904Y-47196190D02*
X99046428Y-47196190D01*
X99046428Y-47196190D02*
X98808333Y-47148571D01*
X98808333Y-47148571D02*
X98665476Y-47100952D01*
X98665476Y-47100952D02*
X98570238Y-47053333D01*
X98570238Y-47053333D02*
X98427380Y-46958095D01*
X98427380Y-46958095D02*
X98379761Y-46910476D01*
X99475000Y-46577142D02*
X99522619Y-46434285D01*
X99522619Y-46434285D02*
X99522619Y-46196190D01*
X99522619Y-46196190D02*
X99475000Y-46100952D01*
X99475000Y-46100952D02*
X99427380Y-46053333D01*
X99427380Y-46053333D02*
X99332142Y-46005714D01*
X99332142Y-46005714D02*
X99236904Y-46005714D01*
X99236904Y-46005714D02*
X99141666Y-46053333D01*
X99141666Y-46053333D02*
X99094047Y-46100952D01*
X99094047Y-46100952D02*
X99046428Y-46196190D01*
X99046428Y-46196190D02*
X98998809Y-46386666D01*
X98998809Y-46386666D02*
X98951190Y-46481904D01*
X98951190Y-46481904D02*
X98903571Y-46529523D01*
X98903571Y-46529523D02*
X98808333Y-46577142D01*
X98808333Y-46577142D02*
X98713095Y-46577142D01*
X98713095Y-46577142D02*
X98617857Y-46529523D01*
X98617857Y-46529523D02*
X98570238Y-46481904D01*
X98570238Y-46481904D02*
X98522619Y-46386666D01*
X98522619Y-46386666D02*
X98522619Y-46148571D01*
X98522619Y-46148571D02*
X98570238Y-46005714D01*
X98522619Y-45672380D02*
X99522619Y-45434285D01*
X99522619Y-45434285D02*
X98808333Y-45243809D01*
X98808333Y-45243809D02*
X99522619Y-45053333D01*
X99522619Y-45053333D02*
X98522619Y-44815238D01*
X99522619Y-43910476D02*
X99522619Y-44481904D01*
X99522619Y-44196190D02*
X98522619Y-44196190D01*
X98522619Y-44196190D02*
X98665476Y-44291428D01*
X98665476Y-44291428D02*
X98760714Y-44386666D01*
X98760714Y-44386666D02*
X98808333Y-44481904D01*
X99903571Y-43577142D02*
X99855952Y-43529523D01*
X99855952Y-43529523D02*
X99713095Y-43434285D01*
X99713095Y-43434285D02*
X99617857Y-43386666D01*
X99617857Y-43386666D02*
X99475000Y-43339047D01*
X99475000Y-43339047D02*
X99236904Y-43291428D01*
X99236904Y-43291428D02*
X99046428Y-43291428D01*
X99046428Y-43291428D02*
X98808333Y-43339047D01*
X98808333Y-43339047D02*
X98665476Y-43386666D01*
X98665476Y-43386666D02*
X98570238Y-43434285D01*
X98570238Y-43434285D02*
X98427380Y-43529523D01*
X98427380Y-43529523D02*
X98379761Y-43577142D01*
X99522619Y-42291428D02*
X99522619Y-42862856D01*
X99522619Y-42577142D02*
X98522619Y-42577142D01*
X98522619Y-42577142D02*
X98665476Y-42672380D01*
X98665476Y-42672380D02*
X98760714Y-42767618D01*
X98760714Y-42767618D02*
X98808333Y-42862856D01*
X133357809Y-95808906D02*
X133262571Y-95761287D01*
X133262571Y-95761287D02*
X133167333Y-95666049D01*
X133167333Y-95666049D02*
X133024476Y-95523191D01*
X133024476Y-95523191D02*
X132929238Y-95475572D01*
X132929238Y-95475572D02*
X132834000Y-95475572D01*
X132881619Y-95713668D02*
X132786381Y-95666049D01*
X132786381Y-95666049D02*
X132691143Y-95570810D01*
X132691143Y-95570810D02*
X132643524Y-95380334D01*
X132643524Y-95380334D02*
X132643524Y-95047001D01*
X132643524Y-95047001D02*
X132691143Y-94856525D01*
X132691143Y-94856525D02*
X132786381Y-94761287D01*
X132786381Y-94761287D02*
X132881619Y-94713668D01*
X132881619Y-94713668D02*
X133072095Y-94713668D01*
X133072095Y-94713668D02*
X133167333Y-94761287D01*
X133167333Y-94761287D02*
X133262571Y-94856525D01*
X133262571Y-94856525D02*
X133310190Y-95047001D01*
X133310190Y-95047001D02*
X133310190Y-95380334D01*
X133310190Y-95380334D02*
X133262571Y-95570810D01*
X133262571Y-95570810D02*
X133167333Y-95666049D01*
X133167333Y-95666049D02*
X133072095Y-95713668D01*
X133072095Y-95713668D02*
X132881619Y-95713668D01*
X133691143Y-95427953D02*
X134167333Y-95427953D01*
X133595905Y-95713668D02*
X133929238Y-94713668D01*
X133929238Y-94713668D02*
X134262571Y-95713668D01*
X134881619Y-96094620D02*
X134834000Y-96047001D01*
X134834000Y-96047001D02*
X134738762Y-95904144D01*
X134738762Y-95904144D02*
X134691143Y-95808906D01*
X134691143Y-95808906D02*
X134643524Y-95666049D01*
X134643524Y-95666049D02*
X134595905Y-95427953D01*
X134595905Y-95427953D02*
X134595905Y-95237477D01*
X134595905Y-95237477D02*
X134643524Y-94999382D01*
X134643524Y-94999382D02*
X134691143Y-94856525D01*
X134691143Y-94856525D02*
X134738762Y-94761287D01*
X134738762Y-94761287D02*
X134834000Y-94618429D01*
X134834000Y-94618429D02*
X134881619Y-94570810D01*
X135786381Y-95713668D02*
X135214953Y-95713668D01*
X135500667Y-95713668D02*
X135500667Y-94713668D01*
X135500667Y-94713668D02*
X135405429Y-94856525D01*
X135405429Y-94856525D02*
X135310191Y-94951763D01*
X135310191Y-94951763D02*
X135214953Y-94999382D01*
X136119715Y-96094620D02*
X136167334Y-96047001D01*
X136167334Y-96047001D02*
X136262572Y-95904144D01*
X136262572Y-95904144D02*
X136310191Y-95808906D01*
X136310191Y-95808906D02*
X136357810Y-95666049D01*
X136357810Y-95666049D02*
X136405429Y-95427953D01*
X136405429Y-95427953D02*
X136405429Y-95237477D01*
X136405429Y-95237477D02*
X136357810Y-94999382D01*
X136357810Y-94999382D02*
X136310191Y-94856525D01*
X136310191Y-94856525D02*
X136262572Y-94761287D01*
X136262572Y-94761287D02*
X136167334Y-94618429D01*
X136167334Y-94618429D02*
X136119715Y-94570810D01*
X136643525Y-95808906D02*
X137405429Y-95808906D01*
X138167334Y-95713668D02*
X137595906Y-95713668D01*
X137881620Y-95713668D02*
X137881620Y-94713668D01*
X137881620Y-94713668D02*
X137786382Y-94856525D01*
X137786382Y-94856525D02*
X137691144Y-94951763D01*
X137691144Y-94951763D02*
X137595906Y-94999382D01*
X138643525Y-95713668D02*
X138834001Y-95713668D01*
X138834001Y-95713668D02*
X138929239Y-95666049D01*
X138929239Y-95666049D02*
X138976858Y-95618429D01*
X138976858Y-95618429D02*
X139072096Y-95475572D01*
X139072096Y-95475572D02*
X139119715Y-95285096D01*
X139119715Y-95285096D02*
X139119715Y-94904144D01*
X139119715Y-94904144D02*
X139072096Y-94808906D01*
X139072096Y-94808906D02*
X139024477Y-94761287D01*
X139024477Y-94761287D02*
X138929239Y-94713668D01*
X138929239Y-94713668D02*
X138738763Y-94713668D01*
X138738763Y-94713668D02*
X138643525Y-94761287D01*
X138643525Y-94761287D02*
X138595906Y-94808906D01*
X138595906Y-94808906D02*
X138548287Y-94904144D01*
X138548287Y-94904144D02*
X138548287Y-95142239D01*
X138548287Y-95142239D02*
X138595906Y-95237477D01*
X138595906Y-95237477D02*
X138643525Y-95285096D01*
X138643525Y-95285096D02*
X138738763Y-95332715D01*
X138738763Y-95332715D02*
X138929239Y-95332715D01*
X138929239Y-95332715D02*
X139024477Y-95285096D01*
X139024477Y-95285096D02*
X139072096Y-95237477D01*
X139072096Y-95237477D02*
X139119715Y-95142239D01*
X139405430Y-94713668D02*
X139738763Y-95713668D01*
X139738763Y-95713668D02*
X140072096Y-94713668D01*
X140167335Y-95808906D02*
X140929239Y-95808906D01*
X141691144Y-95713668D02*
X141119716Y-95713668D01*
X141405430Y-95713668D02*
X141405430Y-94713668D01*
X141405430Y-94713668D02*
X141310192Y-94856525D01*
X141310192Y-94856525D02*
X141214954Y-94951763D01*
X141214954Y-94951763D02*
X141119716Y-94999382D01*
X113348671Y-84999535D02*
X113396291Y-85047154D01*
X113396291Y-85047154D02*
X113443910Y-85190011D01*
X113443910Y-85190011D02*
X113443910Y-85285249D01*
X113443910Y-85285249D02*
X113396291Y-85428106D01*
X113396291Y-85428106D02*
X113301052Y-85523344D01*
X113301052Y-85523344D02*
X113205814Y-85570963D01*
X113205814Y-85570963D02*
X113015338Y-85618582D01*
X113015338Y-85618582D02*
X112872481Y-85618582D01*
X112872481Y-85618582D02*
X112682005Y-85570963D01*
X112682005Y-85570963D02*
X112586767Y-85523344D01*
X112586767Y-85523344D02*
X112491529Y-85428106D01*
X112491529Y-85428106D02*
X112443910Y-85285249D01*
X112443910Y-85285249D02*
X112443910Y-85190011D01*
X112443910Y-85190011D02*
X112491529Y-85047154D01*
X112491529Y-85047154D02*
X112539148Y-84999535D01*
X112777243Y-84713820D02*
X112777243Y-84332868D01*
X112443910Y-84570963D02*
X113301052Y-84570963D01*
X113301052Y-84570963D02*
X113396291Y-84523344D01*
X113396291Y-84523344D02*
X113443910Y-84428106D01*
X113443910Y-84428106D02*
X113443910Y-84332868D01*
X113443910Y-83999534D02*
X112443910Y-83999534D01*
X113443910Y-83570963D02*
X112920100Y-83570963D01*
X112920100Y-83570963D02*
X112824862Y-83618582D01*
X112824862Y-83618582D02*
X112777243Y-83713820D01*
X112777243Y-83713820D02*
X112777243Y-83856677D01*
X112777243Y-83856677D02*
X112824862Y-83951915D01*
X112824862Y-83951915D02*
X112872481Y-83999534D01*
X112777243Y-83094772D02*
X113777243Y-83094772D01*
X112824862Y-83094772D02*
X112777243Y-82999534D01*
X112777243Y-82999534D02*
X112777243Y-82809058D01*
X112777243Y-82809058D02*
X112824862Y-82713820D01*
X112824862Y-82713820D02*
X112872481Y-82666201D01*
X112872481Y-82666201D02*
X112967719Y-82618582D01*
X112967719Y-82618582D02*
X113253433Y-82618582D01*
X113253433Y-82618582D02*
X113348671Y-82666201D01*
X113348671Y-82666201D02*
X113396291Y-82713820D01*
X113396291Y-82713820D02*
X113443910Y-82809058D01*
X113443910Y-82809058D02*
X113443910Y-82999534D01*
X113443910Y-82999534D02*
X113396291Y-83094772D01*
X113443910Y-81666201D02*
X113443910Y-82237629D01*
X113443910Y-81951915D02*
X112443910Y-81951915D01*
X112443910Y-81951915D02*
X112586767Y-82047153D01*
X112586767Y-82047153D02*
X112682005Y-82142391D01*
X112682005Y-82142391D02*
X112729624Y-82237629D01*
X150325841Y-98892342D02*
X150325841Y-97892342D01*
X150325841Y-97892342D02*
X150563936Y-97892342D01*
X150563936Y-97892342D02*
X150706793Y-97939961D01*
X150706793Y-97939961D02*
X150802031Y-98035199D01*
X150802031Y-98035199D02*
X150849650Y-98130437D01*
X150849650Y-98130437D02*
X150897269Y-98320913D01*
X150897269Y-98320913D02*
X150897269Y-98463770D01*
X150897269Y-98463770D02*
X150849650Y-98654246D01*
X150849650Y-98654246D02*
X150802031Y-98749484D01*
X150802031Y-98749484D02*
X150706793Y-98844723D01*
X150706793Y-98844723D02*
X150563936Y-98892342D01*
X150563936Y-98892342D02*
X150325841Y-98892342D01*
X151849650Y-98892342D02*
X151278222Y-98892342D01*
X151563936Y-98892342D02*
X151563936Y-97892342D01*
X151563936Y-97892342D02*
X151468698Y-98035199D01*
X151468698Y-98035199D02*
X151373460Y-98130437D01*
X151373460Y-98130437D02*
X151278222Y-98178056D01*
X152563936Y-99273294D02*
X152516317Y-99225675D01*
X152516317Y-99225675D02*
X152421079Y-99082818D01*
X152421079Y-99082818D02*
X152373460Y-98987580D01*
X152373460Y-98987580D02*
X152325841Y-98844723D01*
X152325841Y-98844723D02*
X152278222Y-98606627D01*
X152278222Y-98606627D02*
X152278222Y-98416151D01*
X152278222Y-98416151D02*
X152325841Y-98178056D01*
X152325841Y-98178056D02*
X152373460Y-98035199D01*
X152373460Y-98035199D02*
X152421079Y-97939961D01*
X152421079Y-97939961D02*
X152516317Y-97797103D01*
X152516317Y-97797103D02*
X152563936Y-97749484D01*
X152897270Y-97987580D02*
X152944889Y-97939961D01*
X152944889Y-97939961D02*
X153040127Y-97892342D01*
X153040127Y-97892342D02*
X153278222Y-97892342D01*
X153278222Y-97892342D02*
X153373460Y-97939961D01*
X153373460Y-97939961D02*
X153421079Y-97987580D01*
X153421079Y-97987580D02*
X153468698Y-98082818D01*
X153468698Y-98082818D02*
X153468698Y-98178056D01*
X153468698Y-98178056D02*
X153421079Y-98320913D01*
X153421079Y-98320913D02*
X152849651Y-98892342D01*
X152849651Y-98892342D02*
X153468698Y-98892342D01*
X153802032Y-99273294D02*
X153849651Y-99225675D01*
X153849651Y-99225675D02*
X153944889Y-99082818D01*
X153944889Y-99082818D02*
X153992508Y-98987580D01*
X153992508Y-98987580D02*
X154040127Y-98844723D01*
X154040127Y-98844723D02*
X154087746Y-98606627D01*
X154087746Y-98606627D02*
X154087746Y-98416151D01*
X154087746Y-98416151D02*
X154040127Y-98178056D01*
X154040127Y-98178056D02*
X153992508Y-98035199D01*
X153992508Y-98035199D02*
X153944889Y-97939961D01*
X153944889Y-97939961D02*
X153849651Y-97797103D01*
X153849651Y-97797103D02*
X153802032Y-97749484D01*
X154325842Y-98987580D02*
X155087746Y-98987580D01*
X155849651Y-98892342D02*
X155278223Y-98892342D01*
X155563937Y-98892342D02*
X155563937Y-97892342D01*
X155563937Y-97892342D02*
X155468699Y-98035199D01*
X155468699Y-98035199D02*
X155373461Y-98130437D01*
X155373461Y-98130437D02*
X155278223Y-98178056D01*
X156325842Y-98892342D02*
X156516318Y-98892342D01*
X156516318Y-98892342D02*
X156611556Y-98844723D01*
X156611556Y-98844723D02*
X156659175Y-98797103D01*
X156659175Y-98797103D02*
X156754413Y-98654246D01*
X156754413Y-98654246D02*
X156802032Y-98463770D01*
X156802032Y-98463770D02*
X156802032Y-98082818D01*
X156802032Y-98082818D02*
X156754413Y-97987580D01*
X156754413Y-97987580D02*
X156706794Y-97939961D01*
X156706794Y-97939961D02*
X156611556Y-97892342D01*
X156611556Y-97892342D02*
X156421080Y-97892342D01*
X156421080Y-97892342D02*
X156325842Y-97939961D01*
X156325842Y-97939961D02*
X156278223Y-97987580D01*
X156278223Y-97987580D02*
X156230604Y-98082818D01*
X156230604Y-98082818D02*
X156230604Y-98320913D01*
X156230604Y-98320913D02*
X156278223Y-98416151D01*
X156278223Y-98416151D02*
X156325842Y-98463770D01*
X156325842Y-98463770D02*
X156421080Y-98511389D01*
X156421080Y-98511389D02*
X156611556Y-98511389D01*
X156611556Y-98511389D02*
X156706794Y-98463770D01*
X156706794Y-98463770D02*
X156754413Y-98416151D01*
X156754413Y-98416151D02*
X156802032Y-98320913D01*
X157087747Y-97892342D02*
X157421080Y-98892342D01*
X157421080Y-98892342D02*
X157754413Y-97892342D01*
X158611556Y-98892342D02*
X158040128Y-98892342D01*
X158325842Y-98892342D02*
X158325842Y-97892342D01*
X158325842Y-97892342D02*
X158230604Y-98035199D01*
X158230604Y-98035199D02*
X158135366Y-98130437D01*
X158135366Y-98130437D02*
X158040128Y-98178056D01*
X163647618Y-96902619D02*
X163314285Y-96426428D01*
X163076190Y-96902619D02*
X163076190Y-95902619D01*
X163076190Y-95902619D02*
X163457142Y-95902619D01*
X163457142Y-95902619D02*
X163552380Y-95950238D01*
X163552380Y-95950238D02*
X163599999Y-95997857D01*
X163599999Y-95997857D02*
X163647618Y-96093095D01*
X163647618Y-96093095D02*
X163647618Y-96235952D01*
X163647618Y-96235952D02*
X163599999Y-96331190D01*
X163599999Y-96331190D02*
X163552380Y-96378809D01*
X163552380Y-96378809D02*
X163457142Y-96426428D01*
X163457142Y-96426428D02*
X163076190Y-96426428D01*
X164028571Y-96855000D02*
X164123809Y-96902619D01*
X164123809Y-96902619D02*
X164314285Y-96902619D01*
X164314285Y-96902619D02*
X164409523Y-96855000D01*
X164409523Y-96855000D02*
X164457142Y-96759761D01*
X164457142Y-96759761D02*
X164457142Y-96712142D01*
X164457142Y-96712142D02*
X164409523Y-96616904D01*
X164409523Y-96616904D02*
X164314285Y-96569285D01*
X164314285Y-96569285D02*
X164171428Y-96569285D01*
X164171428Y-96569285D02*
X164076190Y-96521666D01*
X164076190Y-96521666D02*
X164028571Y-96426428D01*
X164028571Y-96426428D02*
X164028571Y-96378809D01*
X164028571Y-96378809D02*
X164076190Y-96283571D01*
X164076190Y-96283571D02*
X164171428Y-96235952D01*
X164171428Y-96235952D02*
X164314285Y-96235952D01*
X164314285Y-96235952D02*
X164409523Y-96283571D01*
X165266666Y-96855000D02*
X165171428Y-96902619D01*
X165171428Y-96902619D02*
X164980952Y-96902619D01*
X164980952Y-96902619D02*
X164885714Y-96855000D01*
X164885714Y-96855000D02*
X164838095Y-96759761D01*
X164838095Y-96759761D02*
X164838095Y-96378809D01*
X164838095Y-96378809D02*
X164885714Y-96283571D01*
X164885714Y-96283571D02*
X164980952Y-96235952D01*
X164980952Y-96235952D02*
X165171428Y-96235952D01*
X165171428Y-96235952D02*
X165266666Y-96283571D01*
X165266666Y-96283571D02*
X165314285Y-96378809D01*
X165314285Y-96378809D02*
X165314285Y-96474047D01*
X165314285Y-96474047D02*
X164838095Y-96569285D01*
X165742857Y-96235952D02*
X165742857Y-96902619D01*
X165742857Y-96331190D02*
X165790476Y-96283571D01*
X165790476Y-96283571D02*
X165885714Y-96235952D01*
X165885714Y-96235952D02*
X166028571Y-96235952D01*
X166028571Y-96235952D02*
X166123809Y-96283571D01*
X166123809Y-96283571D02*
X166171428Y-96378809D01*
X166171428Y-96378809D02*
X166171428Y-96902619D01*
X167171428Y-96902619D02*
X166600000Y-96902619D01*
X166885714Y-96902619D02*
X166885714Y-95902619D01*
X166885714Y-95902619D02*
X166790476Y-96045476D01*
X166790476Y-96045476D02*
X166695238Y-96140714D01*
X166695238Y-96140714D02*
X166600000Y-96188333D01*
X105009944Y-66316556D02*
X104533753Y-66649889D01*
X105009944Y-66887984D02*
X104009944Y-66887984D01*
X104009944Y-66887984D02*
X104009944Y-66507032D01*
X104009944Y-66507032D02*
X104057563Y-66411794D01*
X104057563Y-66411794D02*
X104105182Y-66364175D01*
X104105182Y-66364175D02*
X104200420Y-66316556D01*
X104200420Y-66316556D02*
X104343277Y-66316556D01*
X104343277Y-66316556D02*
X104438515Y-66364175D01*
X104438515Y-66364175D02*
X104486134Y-66411794D01*
X104486134Y-66411794D02*
X104533753Y-66507032D01*
X104533753Y-66507032D02*
X104533753Y-66887984D01*
X105009944Y-65887984D02*
X104343277Y-65887984D01*
X104009944Y-65887984D02*
X104057563Y-65935603D01*
X104057563Y-65935603D02*
X104105182Y-65887984D01*
X104105182Y-65887984D02*
X104057563Y-65840365D01*
X104057563Y-65840365D02*
X104009944Y-65887984D01*
X104009944Y-65887984D02*
X104105182Y-65887984D01*
X104343277Y-65411794D02*
X105009944Y-65411794D01*
X104438515Y-65411794D02*
X104390896Y-65364175D01*
X104390896Y-65364175D02*
X104343277Y-65268937D01*
X104343277Y-65268937D02*
X104343277Y-65126080D01*
X104343277Y-65126080D02*
X104390896Y-65030842D01*
X104390896Y-65030842D02*
X104486134Y-64983223D01*
X104486134Y-64983223D02*
X105009944Y-64983223D01*
X105390896Y-64221318D02*
X105343277Y-64268937D01*
X105343277Y-64268937D02*
X105200420Y-64364175D01*
X105200420Y-64364175D02*
X105105182Y-64411794D01*
X105105182Y-64411794D02*
X104962325Y-64459413D01*
X104962325Y-64459413D02*
X104724229Y-64507032D01*
X104724229Y-64507032D02*
X104533753Y-64507032D01*
X104533753Y-64507032D02*
X104295658Y-64459413D01*
X104295658Y-64459413D02*
X104152801Y-64411794D01*
X104152801Y-64411794D02*
X104057563Y-64364175D01*
X104057563Y-64364175D02*
X103914705Y-64268937D01*
X103914705Y-64268937D02*
X103867086Y-64221318D01*
X105009944Y-63268937D02*
X104533753Y-63602270D01*
X105009944Y-63840365D02*
X104009944Y-63840365D01*
X104009944Y-63840365D02*
X104009944Y-63459413D01*
X104009944Y-63459413D02*
X104057563Y-63364175D01*
X104057563Y-63364175D02*
X104105182Y-63316556D01*
X104105182Y-63316556D02*
X104200420Y-63268937D01*
X104200420Y-63268937D02*
X104343277Y-63268937D01*
X104343277Y-63268937D02*
X104438515Y-63316556D01*
X104438515Y-63316556D02*
X104486134Y-63364175D01*
X104486134Y-63364175D02*
X104533753Y-63459413D01*
X104533753Y-63459413D02*
X104533753Y-63840365D01*
X104343277Y-62411794D02*
X105009944Y-62411794D01*
X104343277Y-62840365D02*
X104867086Y-62840365D01*
X104867086Y-62840365D02*
X104962325Y-62792746D01*
X104962325Y-62792746D02*
X105009944Y-62697508D01*
X105009944Y-62697508D02*
X105009944Y-62554651D01*
X105009944Y-62554651D02*
X104962325Y-62459413D01*
X104962325Y-62459413D02*
X104914705Y-62411794D01*
X104343277Y-61935603D02*
X105009944Y-61935603D01*
X104438515Y-61935603D02*
X104390896Y-61887984D01*
X104390896Y-61887984D02*
X104343277Y-61792746D01*
X104343277Y-61792746D02*
X104343277Y-61649889D01*
X104343277Y-61649889D02*
X104390896Y-61554651D01*
X104390896Y-61554651D02*
X104486134Y-61507032D01*
X104486134Y-61507032D02*
X105009944Y-61507032D01*
X105390896Y-61126079D02*
X105343277Y-61078460D01*
X105343277Y-61078460D02*
X105200420Y-60983222D01*
X105200420Y-60983222D02*
X105105182Y-60935603D01*
X105105182Y-60935603D02*
X104962325Y-60887984D01*
X104962325Y-60887984D02*
X104724229Y-60840365D01*
X104724229Y-60840365D02*
X104533753Y-60840365D01*
X104533753Y-60840365D02*
X104295658Y-60887984D01*
X104295658Y-60887984D02*
X104152801Y-60935603D01*
X104152801Y-60935603D02*
X104057563Y-60983222D01*
X104057563Y-60983222D02*
X103914705Y-61078460D01*
X103914705Y-61078460D02*
X103867086Y-61126079D01*
X105009944Y-59840365D02*
X105009944Y-60411793D01*
X105009944Y-60126079D02*
X104009944Y-60126079D01*
X104009944Y-60126079D02*
X104152801Y-60221317D01*
X104152801Y-60221317D02*
X104248039Y-60316555D01*
X104248039Y-60316555D02*
X104295658Y-60411793D01*
X164528571Y-89282619D02*
X164195238Y-88806428D01*
X163957143Y-89282619D02*
X163957143Y-88282619D01*
X163957143Y-88282619D02*
X164338095Y-88282619D01*
X164338095Y-88282619D02*
X164433333Y-88330238D01*
X164433333Y-88330238D02*
X164480952Y-88377857D01*
X164480952Y-88377857D02*
X164528571Y-88473095D01*
X164528571Y-88473095D02*
X164528571Y-88615952D01*
X164528571Y-88615952D02*
X164480952Y-88711190D01*
X164480952Y-88711190D02*
X164433333Y-88758809D01*
X164433333Y-88758809D02*
X164338095Y-88806428D01*
X164338095Y-88806428D02*
X163957143Y-88806428D01*
X164909524Y-89235000D02*
X165004762Y-89282619D01*
X165004762Y-89282619D02*
X165195238Y-89282619D01*
X165195238Y-89282619D02*
X165290476Y-89235000D01*
X165290476Y-89235000D02*
X165338095Y-89139761D01*
X165338095Y-89139761D02*
X165338095Y-89092142D01*
X165338095Y-89092142D02*
X165290476Y-88996904D01*
X165290476Y-88996904D02*
X165195238Y-88949285D01*
X165195238Y-88949285D02*
X165052381Y-88949285D01*
X165052381Y-88949285D02*
X164957143Y-88901666D01*
X164957143Y-88901666D02*
X164909524Y-88806428D01*
X164909524Y-88806428D02*
X164909524Y-88758809D01*
X164909524Y-88758809D02*
X164957143Y-88663571D01*
X164957143Y-88663571D02*
X165052381Y-88615952D01*
X165052381Y-88615952D02*
X165195238Y-88615952D01*
X165195238Y-88615952D02*
X165290476Y-88663571D01*
X166290476Y-89282619D02*
X165719048Y-89282619D01*
X166004762Y-89282619D02*
X166004762Y-88282619D01*
X166004762Y-88282619D02*
X165909524Y-88425476D01*
X165909524Y-88425476D02*
X165814286Y-88520714D01*
X165814286Y-88520714D02*
X165719048Y-88568333D01*
X128601469Y-42020803D02*
X128553850Y-42068423D01*
X128553850Y-42068423D02*
X128410993Y-42116042D01*
X128410993Y-42116042D02*
X128315755Y-42116042D01*
X128315755Y-42116042D02*
X128172898Y-42068423D01*
X128172898Y-42068423D02*
X128077660Y-41973184D01*
X128077660Y-41973184D02*
X128030041Y-41877946D01*
X128030041Y-41877946D02*
X127982422Y-41687470D01*
X127982422Y-41687470D02*
X127982422Y-41544613D01*
X127982422Y-41544613D02*
X128030041Y-41354137D01*
X128030041Y-41354137D02*
X128077660Y-41258899D01*
X128077660Y-41258899D02*
X128172898Y-41163661D01*
X128172898Y-41163661D02*
X128315755Y-41116042D01*
X128315755Y-41116042D02*
X128410993Y-41116042D01*
X128410993Y-41116042D02*
X128553850Y-41163661D01*
X128553850Y-41163661D02*
X128601469Y-41211280D01*
X129315755Y-42496994D02*
X129268136Y-42449375D01*
X129268136Y-42449375D02*
X129172898Y-42306518D01*
X129172898Y-42306518D02*
X129125279Y-42211280D01*
X129125279Y-42211280D02*
X129077660Y-42068423D01*
X129077660Y-42068423D02*
X129030041Y-41830327D01*
X129030041Y-41830327D02*
X129030041Y-41639851D01*
X129030041Y-41639851D02*
X129077660Y-41401756D01*
X129077660Y-41401756D02*
X129125279Y-41258899D01*
X129125279Y-41258899D02*
X129172898Y-41163661D01*
X129172898Y-41163661D02*
X129268136Y-41020803D01*
X129268136Y-41020803D02*
X129315755Y-40973184D01*
X129839565Y-42116042D02*
X129744327Y-42068423D01*
X129744327Y-42068423D02*
X129696708Y-41973184D01*
X129696708Y-41973184D02*
X129696708Y-41116042D01*
X130363375Y-42116042D02*
X130268137Y-42068423D01*
X130268137Y-42068423D02*
X130220518Y-42020803D01*
X130220518Y-42020803D02*
X130172899Y-41925565D01*
X130172899Y-41925565D02*
X130172899Y-41639851D01*
X130172899Y-41639851D02*
X130220518Y-41544613D01*
X130220518Y-41544613D02*
X130268137Y-41496994D01*
X130268137Y-41496994D02*
X130363375Y-41449375D01*
X130363375Y-41449375D02*
X130506232Y-41449375D01*
X130506232Y-41449375D02*
X130601470Y-41496994D01*
X130601470Y-41496994D02*
X130649089Y-41544613D01*
X130649089Y-41544613D02*
X130696708Y-41639851D01*
X130696708Y-41639851D02*
X130696708Y-41925565D01*
X130696708Y-41925565D02*
X130649089Y-42020803D01*
X130649089Y-42020803D02*
X130601470Y-42068423D01*
X130601470Y-42068423D02*
X130506232Y-42116042D01*
X130506232Y-42116042D02*
X130363375Y-42116042D01*
X131030042Y-41449375D02*
X131220518Y-42116042D01*
X131220518Y-42116042D02*
X131410994Y-41639851D01*
X131410994Y-41639851D02*
X131601470Y-42116042D01*
X131601470Y-42116042D02*
X131791946Y-41449375D01*
X132172899Y-41592232D02*
X132506232Y-41592232D01*
X132649089Y-42116042D02*
X132172899Y-42116042D01*
X132172899Y-42116042D02*
X132172899Y-41116042D01*
X132172899Y-41116042D02*
X132649089Y-41116042D01*
X133030042Y-42068423D02*
X133172899Y-42116042D01*
X133172899Y-42116042D02*
X133410994Y-42116042D01*
X133410994Y-42116042D02*
X133506232Y-42068423D01*
X133506232Y-42068423D02*
X133553851Y-42020803D01*
X133553851Y-42020803D02*
X133601470Y-41925565D01*
X133601470Y-41925565D02*
X133601470Y-41830327D01*
X133601470Y-41830327D02*
X133553851Y-41735089D01*
X133553851Y-41735089D02*
X133506232Y-41687470D01*
X133506232Y-41687470D02*
X133410994Y-41639851D01*
X133410994Y-41639851D02*
X133220518Y-41592232D01*
X133220518Y-41592232D02*
X133125280Y-41544613D01*
X133125280Y-41544613D02*
X133077661Y-41496994D01*
X133077661Y-41496994D02*
X133030042Y-41401756D01*
X133030042Y-41401756D02*
X133030042Y-41306518D01*
X133030042Y-41306518D02*
X133077661Y-41211280D01*
X133077661Y-41211280D02*
X133125280Y-41163661D01*
X133125280Y-41163661D02*
X133220518Y-41116042D01*
X133220518Y-41116042D02*
X133458613Y-41116042D01*
X133458613Y-41116042D02*
X133601470Y-41163661D01*
X134601470Y-42116042D02*
X134268137Y-41639851D01*
X134030042Y-42116042D02*
X134030042Y-41116042D01*
X134030042Y-41116042D02*
X134410994Y-41116042D01*
X134410994Y-41116042D02*
X134506232Y-41163661D01*
X134506232Y-41163661D02*
X134553851Y-41211280D01*
X134553851Y-41211280D02*
X134601470Y-41306518D01*
X134601470Y-41306518D02*
X134601470Y-41449375D01*
X134601470Y-41449375D02*
X134553851Y-41544613D01*
X134553851Y-41544613D02*
X134506232Y-41592232D01*
X134506232Y-41592232D02*
X134410994Y-41639851D01*
X134410994Y-41639851D02*
X134030042Y-41639851D01*
X134934804Y-42496994D02*
X134982423Y-42449375D01*
X134982423Y-42449375D02*
X135077661Y-42306518D01*
X135077661Y-42306518D02*
X135125280Y-42211280D01*
X135125280Y-42211280D02*
X135172899Y-42068423D01*
X135172899Y-42068423D02*
X135220518Y-41830327D01*
X135220518Y-41830327D02*
X135220518Y-41639851D01*
X135220518Y-41639851D02*
X135172899Y-41401756D01*
X135172899Y-41401756D02*
X135125280Y-41258899D01*
X135125280Y-41258899D02*
X135077661Y-41163661D01*
X135077661Y-41163661D02*
X134982423Y-41020803D01*
X134982423Y-41020803D02*
X134934804Y-40973184D01*
X136220518Y-42116042D02*
X135649090Y-42116042D01*
X135934804Y-42116042D02*
X135934804Y-41116042D01*
X135934804Y-41116042D02*
X135839566Y-41258899D01*
X135839566Y-41258899D02*
X135744328Y-41354137D01*
X135744328Y-41354137D02*
X135649090Y-41401756D01*
X150855117Y-65740312D02*
X150855117Y-64740312D01*
X150855117Y-64740312D02*
X151093212Y-64740312D01*
X151093212Y-64740312D02*
X151236069Y-64787931D01*
X151236069Y-64787931D02*
X151331307Y-64883169D01*
X151331307Y-64883169D02*
X151378926Y-64978407D01*
X151378926Y-64978407D02*
X151426545Y-65168883D01*
X151426545Y-65168883D02*
X151426545Y-65311740D01*
X151426545Y-65311740D02*
X151378926Y-65502216D01*
X151378926Y-65502216D02*
X151331307Y-65597454D01*
X151331307Y-65597454D02*
X151236069Y-65692693D01*
X151236069Y-65692693D02*
X151093212Y-65740312D01*
X151093212Y-65740312D02*
X150855117Y-65740312D01*
X151807498Y-64835550D02*
X151855117Y-64787931D01*
X151855117Y-64787931D02*
X151950355Y-64740312D01*
X151950355Y-64740312D02*
X152188450Y-64740312D01*
X152188450Y-64740312D02*
X152283688Y-64787931D01*
X152283688Y-64787931D02*
X152331307Y-64835550D01*
X152331307Y-64835550D02*
X152378926Y-64930788D01*
X152378926Y-64930788D02*
X152378926Y-65026026D01*
X152378926Y-65026026D02*
X152331307Y-65168883D01*
X152331307Y-65168883D02*
X151759879Y-65740312D01*
X151759879Y-65740312D02*
X152378926Y-65740312D01*
X153093212Y-66121264D02*
X153045593Y-66073645D01*
X153045593Y-66073645D02*
X152950355Y-65930788D01*
X152950355Y-65930788D02*
X152902736Y-65835550D01*
X152902736Y-65835550D02*
X152855117Y-65692693D01*
X152855117Y-65692693D02*
X152807498Y-65454597D01*
X152807498Y-65454597D02*
X152807498Y-65264121D01*
X152807498Y-65264121D02*
X152855117Y-65026026D01*
X152855117Y-65026026D02*
X152902736Y-64883169D01*
X152902736Y-64883169D02*
X152950355Y-64787931D01*
X152950355Y-64787931D02*
X153045593Y-64645073D01*
X153045593Y-64645073D02*
X153093212Y-64597454D01*
X153997974Y-65740312D02*
X153426546Y-65740312D01*
X153712260Y-65740312D02*
X153712260Y-64740312D01*
X153712260Y-64740312D02*
X153617022Y-64883169D01*
X153617022Y-64883169D02*
X153521784Y-64978407D01*
X153521784Y-64978407D02*
X153426546Y-65026026D01*
X154331308Y-66121264D02*
X154378927Y-66073645D01*
X154378927Y-66073645D02*
X154474165Y-65930788D01*
X154474165Y-65930788D02*
X154521784Y-65835550D01*
X154521784Y-65835550D02*
X154569403Y-65692693D01*
X154569403Y-65692693D02*
X154617022Y-65454597D01*
X154617022Y-65454597D02*
X154617022Y-65264121D01*
X154617022Y-65264121D02*
X154569403Y-65026026D01*
X154569403Y-65026026D02*
X154521784Y-64883169D01*
X154521784Y-64883169D02*
X154474165Y-64787931D01*
X154474165Y-64787931D02*
X154378927Y-64645073D01*
X154378927Y-64645073D02*
X154331308Y-64597454D01*
X154855118Y-65835550D02*
X155617022Y-65835550D01*
X156378927Y-65740312D02*
X155807499Y-65740312D01*
X156093213Y-65740312D02*
X156093213Y-64740312D01*
X156093213Y-64740312D02*
X155997975Y-64883169D01*
X155997975Y-64883169D02*
X155902737Y-64978407D01*
X155902737Y-64978407D02*
X155807499Y-65026026D01*
X156855118Y-65740312D02*
X157045594Y-65740312D01*
X157045594Y-65740312D02*
X157140832Y-65692693D01*
X157140832Y-65692693D02*
X157188451Y-65645073D01*
X157188451Y-65645073D02*
X157283689Y-65502216D01*
X157283689Y-65502216D02*
X157331308Y-65311740D01*
X157331308Y-65311740D02*
X157331308Y-64930788D01*
X157331308Y-64930788D02*
X157283689Y-64835550D01*
X157283689Y-64835550D02*
X157236070Y-64787931D01*
X157236070Y-64787931D02*
X157140832Y-64740312D01*
X157140832Y-64740312D02*
X156950356Y-64740312D01*
X156950356Y-64740312D02*
X156855118Y-64787931D01*
X156855118Y-64787931D02*
X156807499Y-64835550D01*
X156807499Y-64835550D02*
X156759880Y-64930788D01*
X156759880Y-64930788D02*
X156759880Y-65168883D01*
X156759880Y-65168883D02*
X156807499Y-65264121D01*
X156807499Y-65264121D02*
X156855118Y-65311740D01*
X156855118Y-65311740D02*
X156950356Y-65359359D01*
X156950356Y-65359359D02*
X157140832Y-65359359D01*
X157140832Y-65359359D02*
X157236070Y-65311740D01*
X157236070Y-65311740D02*
X157283689Y-65264121D01*
X157283689Y-65264121D02*
X157331308Y-65168883D01*
X157617023Y-64740312D02*
X157950356Y-65740312D01*
X157950356Y-65740312D02*
X158283689Y-64740312D01*
X159140832Y-65740312D02*
X158569404Y-65740312D01*
X158855118Y-65740312D02*
X158855118Y-64740312D01*
X158855118Y-64740312D02*
X158759880Y-64883169D01*
X158759880Y-64883169D02*
X158664642Y-64978407D01*
X158664642Y-64978407D02*
X158569404Y-65026026D01*
X125480832Y-76197233D02*
X125480832Y-77006756D01*
X125480832Y-77006756D02*
X125528451Y-77101994D01*
X125528451Y-77101994D02*
X125576070Y-77149614D01*
X125576070Y-77149614D02*
X125671308Y-77197233D01*
X125671308Y-77197233D02*
X125861784Y-77197233D01*
X125861784Y-77197233D02*
X125957022Y-77149614D01*
X125957022Y-77149614D02*
X126004641Y-77101994D01*
X126004641Y-77101994D02*
X126052260Y-77006756D01*
X126052260Y-77006756D02*
X126052260Y-76197233D01*
X126480832Y-76292471D02*
X126528451Y-76244852D01*
X126528451Y-76244852D02*
X126623689Y-76197233D01*
X126623689Y-76197233D02*
X126861784Y-76197233D01*
X126861784Y-76197233D02*
X126957022Y-76244852D01*
X126957022Y-76244852D02*
X127004641Y-76292471D01*
X127004641Y-76292471D02*
X127052260Y-76387709D01*
X127052260Y-76387709D02*
X127052260Y-76482947D01*
X127052260Y-76482947D02*
X127004641Y-76625804D01*
X127004641Y-76625804D02*
X126433213Y-77197233D01*
X126433213Y-77197233D02*
X127052260Y-77197233D01*
X118823322Y-69869800D02*
X118823322Y-70107895D01*
X118585227Y-70012657D02*
X118823322Y-70107895D01*
X118823322Y-70107895D02*
X119061417Y-70012657D01*
X118680465Y-70298371D02*
X118823322Y-70107895D01*
X118823322Y-70107895D02*
X118966179Y-70298371D01*
X119380000Y-68042619D02*
X119380000Y-68280714D01*
X119141905Y-68185476D02*
X119380000Y-68280714D01*
X119380000Y-68280714D02*
X119618095Y-68185476D01*
X119237143Y-68471190D02*
X119380000Y-68280714D01*
X119380000Y-68280714D02*
X119522857Y-68471190D01*
X94543809Y-61327380D02*
X94496190Y-61375000D01*
X94496190Y-61375000D02*
X94353333Y-61422619D01*
X94353333Y-61422619D02*
X94258095Y-61422619D01*
X94258095Y-61422619D02*
X94115238Y-61375000D01*
X94115238Y-61375000D02*
X94020000Y-61279761D01*
X94020000Y-61279761D02*
X93972381Y-61184523D01*
X93972381Y-61184523D02*
X93924762Y-60994047D01*
X93924762Y-60994047D02*
X93924762Y-60851190D01*
X93924762Y-60851190D02*
X93972381Y-60660714D01*
X93972381Y-60660714D02*
X94020000Y-60565476D01*
X94020000Y-60565476D02*
X94115238Y-60470238D01*
X94115238Y-60470238D02*
X94258095Y-60422619D01*
X94258095Y-60422619D02*
X94353333Y-60422619D01*
X94353333Y-60422619D02*
X94496190Y-60470238D01*
X94496190Y-60470238D02*
X94543809Y-60517857D01*
X94972381Y-61422619D02*
X94972381Y-60755952D01*
X94972381Y-60422619D02*
X94924762Y-60470238D01*
X94924762Y-60470238D02*
X94972381Y-60517857D01*
X94972381Y-60517857D02*
X95020000Y-60470238D01*
X95020000Y-60470238D02*
X94972381Y-60422619D01*
X94972381Y-60422619D02*
X94972381Y-60517857D01*
X95448571Y-60755952D02*
X95448571Y-61422619D01*
X95448571Y-60851190D02*
X95496190Y-60803571D01*
X95496190Y-60803571D02*
X95591428Y-60755952D01*
X95591428Y-60755952D02*
X95734285Y-60755952D01*
X95734285Y-60755952D02*
X95829523Y-60803571D01*
X95829523Y-60803571D02*
X95877142Y-60898809D01*
X95877142Y-60898809D02*
X95877142Y-61422619D01*
X96639047Y-61803571D02*
X96591428Y-61755952D01*
X96591428Y-61755952D02*
X96496190Y-61613095D01*
X96496190Y-61613095D02*
X96448571Y-61517857D01*
X96448571Y-61517857D02*
X96400952Y-61375000D01*
X96400952Y-61375000D02*
X96353333Y-61136904D01*
X96353333Y-61136904D02*
X96353333Y-60946428D01*
X96353333Y-60946428D02*
X96400952Y-60708333D01*
X96400952Y-60708333D02*
X96448571Y-60565476D01*
X96448571Y-60565476D02*
X96496190Y-60470238D01*
X96496190Y-60470238D02*
X96591428Y-60327380D01*
X96591428Y-60327380D02*
X96639047Y-60279761D01*
X97020000Y-61422619D02*
X97020000Y-60422619D01*
X97020000Y-60803571D02*
X97115238Y-60755952D01*
X97115238Y-60755952D02*
X97305714Y-60755952D01*
X97305714Y-60755952D02*
X97400952Y-60803571D01*
X97400952Y-60803571D02*
X97448571Y-60851190D01*
X97448571Y-60851190D02*
X97496190Y-60946428D01*
X97496190Y-60946428D02*
X97496190Y-61232142D01*
X97496190Y-61232142D02*
X97448571Y-61327380D01*
X97448571Y-61327380D02*
X97400952Y-61375000D01*
X97400952Y-61375000D02*
X97305714Y-61422619D01*
X97305714Y-61422619D02*
X97115238Y-61422619D01*
X97115238Y-61422619D02*
X97020000Y-61375000D01*
X97829524Y-61803571D02*
X97877143Y-61755952D01*
X97877143Y-61755952D02*
X97972381Y-61613095D01*
X97972381Y-61613095D02*
X98020000Y-61517857D01*
X98020000Y-61517857D02*
X98067619Y-61375000D01*
X98067619Y-61375000D02*
X98115238Y-61136904D01*
X98115238Y-61136904D02*
X98115238Y-60946428D01*
X98115238Y-60946428D02*
X98067619Y-60708333D01*
X98067619Y-60708333D02*
X98020000Y-60565476D01*
X98020000Y-60565476D02*
X97972381Y-60470238D01*
X97972381Y-60470238D02*
X97877143Y-60327380D01*
X97877143Y-60327380D02*
X97829524Y-60279761D01*
X99115238Y-61422619D02*
X98543810Y-61422619D01*
X98829524Y-61422619D02*
X98829524Y-60422619D01*
X98829524Y-60422619D02*
X98734286Y-60565476D01*
X98734286Y-60565476D02*
X98639048Y-60660714D01*
X98639048Y-60660714D02*
X98543810Y-60708333D01*
X151884071Y-76574654D02*
X151407880Y-76907987D01*
X151884071Y-77146082D02*
X150884071Y-77146082D01*
X150884071Y-77146082D02*
X150884071Y-76765130D01*
X150884071Y-76765130D02*
X150931690Y-76669892D01*
X150931690Y-76669892D02*
X150979309Y-76622273D01*
X150979309Y-76622273D02*
X151074547Y-76574654D01*
X151074547Y-76574654D02*
X151217404Y-76574654D01*
X151217404Y-76574654D02*
X151312642Y-76622273D01*
X151312642Y-76622273D02*
X151360261Y-76669892D01*
X151360261Y-76669892D02*
X151407880Y-76765130D01*
X151407880Y-76765130D02*
X151407880Y-77146082D01*
X151217404Y-76288939D02*
X151217404Y-75907987D01*
X150884071Y-76146082D02*
X151741213Y-76146082D01*
X151741213Y-76146082D02*
X151836452Y-76098463D01*
X151836452Y-76098463D02*
X151884071Y-76003225D01*
X151884071Y-76003225D02*
X151884071Y-75907987D01*
X151884071Y-75050844D02*
X151884071Y-75622272D01*
X151884071Y-75336558D02*
X150884071Y-75336558D01*
X150884071Y-75336558D02*
X151026928Y-75431796D01*
X151026928Y-75431796D02*
X151122166Y-75527034D01*
X151122166Y-75527034D02*
X151169785Y-75622272D01*
X157425713Y-38467380D02*
X157378094Y-38515000D01*
X157378094Y-38515000D02*
X157235237Y-38562619D01*
X157235237Y-38562619D02*
X157139999Y-38562619D01*
X157139999Y-38562619D02*
X156997142Y-38515000D01*
X156997142Y-38515000D02*
X156901904Y-38419761D01*
X156901904Y-38419761D02*
X156854285Y-38324523D01*
X156854285Y-38324523D02*
X156806666Y-38134047D01*
X156806666Y-38134047D02*
X156806666Y-37991190D01*
X156806666Y-37991190D02*
X156854285Y-37800714D01*
X156854285Y-37800714D02*
X156901904Y-37705476D01*
X156901904Y-37705476D02*
X156997142Y-37610238D01*
X156997142Y-37610238D02*
X157139999Y-37562619D01*
X157139999Y-37562619D02*
X157235237Y-37562619D01*
X157235237Y-37562619D02*
X157378094Y-37610238D01*
X157378094Y-37610238D02*
X157425713Y-37657857D01*
X157997142Y-38562619D02*
X157901904Y-38515000D01*
X157901904Y-38515000D02*
X157854285Y-38467380D01*
X157854285Y-38467380D02*
X157806666Y-38372142D01*
X157806666Y-38372142D02*
X157806666Y-38086428D01*
X157806666Y-38086428D02*
X157854285Y-37991190D01*
X157854285Y-37991190D02*
X157901904Y-37943571D01*
X157901904Y-37943571D02*
X157997142Y-37895952D01*
X157997142Y-37895952D02*
X158139999Y-37895952D01*
X158139999Y-37895952D02*
X158235237Y-37943571D01*
X158235237Y-37943571D02*
X158282856Y-37991190D01*
X158282856Y-37991190D02*
X158330475Y-38086428D01*
X158330475Y-38086428D02*
X158330475Y-38372142D01*
X158330475Y-38372142D02*
X158282856Y-38467380D01*
X158282856Y-38467380D02*
X158235237Y-38515000D01*
X158235237Y-38515000D02*
X158139999Y-38562619D01*
X158139999Y-38562619D02*
X157997142Y-38562619D01*
X159187618Y-37895952D02*
X159187618Y-38562619D01*
X158759047Y-37895952D02*
X158759047Y-38419761D01*
X158759047Y-38419761D02*
X158806666Y-38515000D01*
X158806666Y-38515000D02*
X158901904Y-38562619D01*
X158901904Y-38562619D02*
X159044761Y-38562619D01*
X159044761Y-38562619D02*
X159139999Y-38515000D01*
X159139999Y-38515000D02*
X159187618Y-38467380D01*
X159520952Y-37895952D02*
X159901904Y-37895952D01*
X159663809Y-37562619D02*
X159663809Y-38419761D01*
X159663809Y-38419761D02*
X159711428Y-38515000D01*
X159711428Y-38515000D02*
X159806666Y-38562619D01*
X159806666Y-38562619D02*
X159901904Y-38562619D01*
X159997143Y-38657857D02*
X160759047Y-38657857D01*
X160997143Y-38562619D02*
X160997143Y-37562619D01*
X160997143Y-37943571D02*
X161092381Y-37895952D01*
X161092381Y-37895952D02*
X161282857Y-37895952D01*
X161282857Y-37895952D02*
X161378095Y-37943571D01*
X161378095Y-37943571D02*
X161425714Y-37991190D01*
X161425714Y-37991190D02*
X161473333Y-38086428D01*
X161473333Y-38086428D02*
X161473333Y-38372142D01*
X161473333Y-38372142D02*
X161425714Y-38467380D01*
X161425714Y-38467380D02*
X161378095Y-38515000D01*
X161378095Y-38515000D02*
X161282857Y-38562619D01*
X161282857Y-38562619D02*
X161092381Y-38562619D01*
X161092381Y-38562619D02*
X160997143Y-38515000D01*
X161663810Y-38657857D02*
X162425714Y-38657857D01*
X163187619Y-38562619D02*
X162616191Y-38562619D01*
X162901905Y-38562619D02*
X162901905Y-37562619D01*
X162901905Y-37562619D02*
X162806667Y-37705476D01*
X162806667Y-37705476D02*
X162711429Y-37800714D01*
X162711429Y-37800714D02*
X162616191Y-37848333D01*
X163663810Y-38562619D02*
X163854286Y-38562619D01*
X163854286Y-38562619D02*
X163949524Y-38515000D01*
X163949524Y-38515000D02*
X163997143Y-38467380D01*
X163997143Y-38467380D02*
X164092381Y-38324523D01*
X164092381Y-38324523D02*
X164140000Y-38134047D01*
X164140000Y-38134047D02*
X164140000Y-37753095D01*
X164140000Y-37753095D02*
X164092381Y-37657857D01*
X164092381Y-37657857D02*
X164044762Y-37610238D01*
X164044762Y-37610238D02*
X163949524Y-37562619D01*
X163949524Y-37562619D02*
X163759048Y-37562619D01*
X163759048Y-37562619D02*
X163663810Y-37610238D01*
X163663810Y-37610238D02*
X163616191Y-37657857D01*
X163616191Y-37657857D02*
X163568572Y-37753095D01*
X163568572Y-37753095D02*
X163568572Y-37991190D01*
X163568572Y-37991190D02*
X163616191Y-38086428D01*
X163616191Y-38086428D02*
X163663810Y-38134047D01*
X163663810Y-38134047D02*
X163759048Y-38181666D01*
X163759048Y-38181666D02*
X163949524Y-38181666D01*
X163949524Y-38181666D02*
X164044762Y-38134047D01*
X164044762Y-38134047D02*
X164092381Y-38086428D01*
X164092381Y-38086428D02*
X164140000Y-37991190D01*
X164425715Y-37562619D02*
X164759048Y-38562619D01*
X164759048Y-38562619D02*
X165092381Y-37562619D01*
X165187620Y-38657857D02*
X165949524Y-38657857D01*
X166187620Y-38038809D02*
X166520953Y-38038809D01*
X166663810Y-38562619D02*
X166187620Y-38562619D01*
X166187620Y-38562619D02*
X166187620Y-37562619D01*
X166187620Y-37562619D02*
X166663810Y-37562619D01*
X167092382Y-38038809D02*
X167425715Y-38038809D01*
X167568572Y-38562619D02*
X167092382Y-38562619D01*
X167092382Y-38562619D02*
X167092382Y-37562619D01*
X167092382Y-37562619D02*
X167568572Y-37562619D01*
X167997144Y-38562619D02*
X167997144Y-37562619D01*
X167997144Y-38038809D02*
X168568572Y-38038809D01*
X168568572Y-38562619D02*
X168568572Y-37562619D01*
X169044763Y-38181666D02*
X169806668Y-38181666D01*
X170187620Y-37562619D02*
X170854286Y-37562619D01*
X170854286Y-37562619D02*
X170187620Y-38562619D01*
X170187620Y-38562619D02*
X170854286Y-38562619D01*
X171235239Y-37562619D02*
X171235239Y-38372142D01*
X171235239Y-38372142D02*
X171282858Y-38467380D01*
X171282858Y-38467380D02*
X171330477Y-38515000D01*
X171330477Y-38515000D02*
X171425715Y-38562619D01*
X171425715Y-38562619D02*
X171616191Y-38562619D01*
X171616191Y-38562619D02*
X171711429Y-38515000D01*
X171711429Y-38515000D02*
X171759048Y-38467380D01*
X171759048Y-38467380D02*
X171806667Y-38372142D01*
X171806667Y-38372142D02*
X171806667Y-37562619D01*
X172806667Y-38562619D02*
X172235239Y-38562619D01*
X172520953Y-38562619D02*
X172520953Y-37562619D01*
X172520953Y-37562619D02*
X172425715Y-37705476D01*
X172425715Y-37705476D02*
X172330477Y-37800714D01*
X172330477Y-37800714D02*
X172235239Y-37848333D01*
X173092382Y-37562619D02*
X173425715Y-38562619D01*
X173425715Y-38562619D02*
X173759048Y-37562619D01*
X173997144Y-37562619D02*
X174616191Y-37562619D01*
X174616191Y-37562619D02*
X174282858Y-37943571D01*
X174282858Y-37943571D02*
X174425715Y-37943571D01*
X174425715Y-37943571D02*
X174520953Y-37991190D01*
X174520953Y-37991190D02*
X174568572Y-38038809D01*
X174568572Y-38038809D02*
X174616191Y-38134047D01*
X174616191Y-38134047D02*
X174616191Y-38372142D01*
X174616191Y-38372142D02*
X174568572Y-38467380D01*
X174568572Y-38467380D02*
X174520953Y-38515000D01*
X174520953Y-38515000D02*
X174425715Y-38562619D01*
X174425715Y-38562619D02*
X174140001Y-38562619D01*
X174140001Y-38562619D02*
X174044763Y-38515000D01*
X174044763Y-38515000D02*
X173997144Y-38467380D01*
X174949525Y-37562619D02*
X175568572Y-37562619D01*
X175568572Y-37562619D02*
X175235239Y-37943571D01*
X175235239Y-37943571D02*
X175378096Y-37943571D01*
X175378096Y-37943571D02*
X175473334Y-37991190D01*
X175473334Y-37991190D02*
X175520953Y-38038809D01*
X175520953Y-38038809D02*
X175568572Y-38134047D01*
X175568572Y-38134047D02*
X175568572Y-38372142D01*
X175568572Y-38372142D02*
X175520953Y-38467380D01*
X175520953Y-38467380D02*
X175473334Y-38515000D01*
X175473334Y-38515000D02*
X175378096Y-38562619D01*
X175378096Y-38562619D02*
X175092382Y-38562619D01*
X175092382Y-38562619D02*
X174997144Y-38515000D01*
X174997144Y-38515000D02*
X174949525Y-38467380D01*
X176520953Y-38562619D02*
X175949525Y-38562619D01*
X176235239Y-38562619D02*
X176235239Y-37562619D01*
X176235239Y-37562619D02*
X176140001Y-37705476D01*
X176140001Y-37705476D02*
X176044763Y-37800714D01*
X176044763Y-37800714D02*
X175949525Y-37848333D01*
X176949525Y-38562619D02*
X176949525Y-37562619D01*
X176949525Y-37562619D02*
X177330477Y-37562619D01*
X177330477Y-37562619D02*
X177425715Y-37610238D01*
X177425715Y-37610238D02*
X177473334Y-37657857D01*
X177473334Y-37657857D02*
X177520953Y-37753095D01*
X177520953Y-37753095D02*
X177520953Y-37895952D01*
X177520953Y-37895952D02*
X177473334Y-37991190D01*
X177473334Y-37991190D02*
X177425715Y-38038809D01*
X177425715Y-38038809D02*
X177330477Y-38086428D01*
X177330477Y-38086428D02*
X176949525Y-38086428D01*
X178473334Y-38562619D02*
X177901906Y-38562619D01*
X178187620Y-38562619D02*
X178187620Y-37562619D01*
X178187620Y-37562619D02*
X178092382Y-37705476D01*
X178092382Y-37705476D02*
X177997144Y-37800714D01*
X177997144Y-37800714D02*
X177901906Y-37848333D01*
X174502619Y-99393333D02*
X175216904Y-99393333D01*
X175216904Y-99393333D02*
X175359761Y-99440952D01*
X175359761Y-99440952D02*
X175455000Y-99536190D01*
X175455000Y-99536190D02*
X175502619Y-99679047D01*
X175502619Y-99679047D02*
X175502619Y-99774285D01*
X174597857Y-98964761D02*
X174550238Y-98917142D01*
X174550238Y-98917142D02*
X174502619Y-98821904D01*
X174502619Y-98821904D02*
X174502619Y-98583809D01*
X174502619Y-98583809D02*
X174550238Y-98488571D01*
X174550238Y-98488571D02*
X174597857Y-98440952D01*
X174597857Y-98440952D02*
X174693095Y-98393333D01*
X174693095Y-98393333D02*
X174788333Y-98393333D01*
X174788333Y-98393333D02*
X174931190Y-98440952D01*
X174931190Y-98440952D02*
X175502619Y-99012380D01*
X175502619Y-99012380D02*
X175502619Y-98393333D01*
X120222592Y-61942978D02*
X120270212Y-61990597D01*
X120270212Y-61990597D02*
X120317831Y-62133454D01*
X120317831Y-62133454D02*
X120317831Y-62228692D01*
X120317831Y-62228692D02*
X120270212Y-62371549D01*
X120270212Y-62371549D02*
X120174973Y-62466787D01*
X120174973Y-62466787D02*
X120079735Y-62514406D01*
X120079735Y-62514406D02*
X119889259Y-62562025D01*
X119889259Y-62562025D02*
X119746402Y-62562025D01*
X119746402Y-62562025D02*
X119555926Y-62514406D01*
X119555926Y-62514406D02*
X119460688Y-62466787D01*
X119460688Y-62466787D02*
X119365450Y-62371549D01*
X119365450Y-62371549D02*
X119317831Y-62228692D01*
X119317831Y-62228692D02*
X119317831Y-62133454D01*
X119317831Y-62133454D02*
X119365450Y-61990597D01*
X119365450Y-61990597D02*
X119413069Y-61942978D01*
X120270212Y-61562025D02*
X120317831Y-61466787D01*
X120317831Y-61466787D02*
X120317831Y-61276311D01*
X120317831Y-61276311D02*
X120270212Y-61181073D01*
X120270212Y-61181073D02*
X120174973Y-61133454D01*
X120174973Y-61133454D02*
X120127354Y-61133454D01*
X120127354Y-61133454D02*
X120032116Y-61181073D01*
X120032116Y-61181073D02*
X119984497Y-61276311D01*
X119984497Y-61276311D02*
X119984497Y-61419168D01*
X119984497Y-61419168D02*
X119936878Y-61514406D01*
X119936878Y-61514406D02*
X119841640Y-61562025D01*
X119841640Y-61562025D02*
X119794021Y-61562025D01*
X119794021Y-61562025D02*
X119698783Y-61514406D01*
X119698783Y-61514406D02*
X119651164Y-61419168D01*
X119651164Y-61419168D02*
X119651164Y-61276311D01*
X119651164Y-61276311D02*
X119698783Y-61181073D01*
X120270212Y-60752501D02*
X120317831Y-60657263D01*
X120317831Y-60657263D02*
X120317831Y-60466787D01*
X120317831Y-60466787D02*
X120270212Y-60371549D01*
X120270212Y-60371549D02*
X120174973Y-60323930D01*
X120174973Y-60323930D02*
X120127354Y-60323930D01*
X120127354Y-60323930D02*
X120032116Y-60371549D01*
X120032116Y-60371549D02*
X119984497Y-60466787D01*
X119984497Y-60466787D02*
X119984497Y-60609644D01*
X119984497Y-60609644D02*
X119936878Y-60704882D01*
X119936878Y-60704882D02*
X119841640Y-60752501D01*
X119841640Y-60752501D02*
X119794021Y-60752501D01*
X119794021Y-60752501D02*
X119698783Y-60704882D01*
X119698783Y-60704882D02*
X119651164Y-60609644D01*
X119651164Y-60609644D02*
X119651164Y-60466787D01*
X119651164Y-60466787D02*
X119698783Y-60371549D01*
X120317831Y-59371549D02*
X120317831Y-59942977D01*
X120317831Y-59657263D02*
X119317831Y-59657263D01*
X119317831Y-59657263D02*
X119460688Y-59752501D01*
X119460688Y-59752501D02*
X119555926Y-59847739D01*
X119555926Y-59847739D02*
X119603545Y-59942977D01*
X133295549Y-82925532D02*
X133200311Y-82877913D01*
X133200311Y-82877913D02*
X133105073Y-82782675D01*
X133105073Y-82782675D02*
X132962216Y-82639817D01*
X132962216Y-82639817D02*
X132866978Y-82592198D01*
X132866978Y-82592198D02*
X132771740Y-82592198D01*
X132819359Y-82830294D02*
X132724121Y-82782675D01*
X132724121Y-82782675D02*
X132628883Y-82687436D01*
X132628883Y-82687436D02*
X132581264Y-82496960D01*
X132581264Y-82496960D02*
X132581264Y-82163627D01*
X132581264Y-82163627D02*
X132628883Y-81973151D01*
X132628883Y-81973151D02*
X132724121Y-81877913D01*
X132724121Y-81877913D02*
X132819359Y-81830294D01*
X132819359Y-81830294D02*
X133009835Y-81830294D01*
X133009835Y-81830294D02*
X133105073Y-81877913D01*
X133105073Y-81877913D02*
X133200311Y-81973151D01*
X133200311Y-81973151D02*
X133247930Y-82163627D01*
X133247930Y-82163627D02*
X133247930Y-82496960D01*
X133247930Y-82496960D02*
X133200311Y-82687436D01*
X133200311Y-82687436D02*
X133105073Y-82782675D01*
X133105073Y-82782675D02*
X133009835Y-82830294D01*
X133009835Y-82830294D02*
X132819359Y-82830294D01*
X134009835Y-82306484D02*
X134152692Y-82354103D01*
X134152692Y-82354103D02*
X134200311Y-82401722D01*
X134200311Y-82401722D02*
X134247930Y-82496960D01*
X134247930Y-82496960D02*
X134247930Y-82639817D01*
X134247930Y-82639817D02*
X134200311Y-82735055D01*
X134200311Y-82735055D02*
X134152692Y-82782675D01*
X134152692Y-82782675D02*
X134057454Y-82830294D01*
X134057454Y-82830294D02*
X133676502Y-82830294D01*
X133676502Y-82830294D02*
X133676502Y-81830294D01*
X133676502Y-81830294D02*
X134009835Y-81830294D01*
X134009835Y-81830294D02*
X134105073Y-81877913D01*
X134105073Y-81877913D02*
X134152692Y-81925532D01*
X134152692Y-81925532D02*
X134200311Y-82020770D01*
X134200311Y-82020770D02*
X134200311Y-82116008D01*
X134200311Y-82116008D02*
X134152692Y-82211246D01*
X134152692Y-82211246D02*
X134105073Y-82258865D01*
X134105073Y-82258865D02*
X134009835Y-82306484D01*
X134009835Y-82306484D02*
X133676502Y-82306484D01*
X134962216Y-83211246D02*
X134914597Y-83163627D01*
X134914597Y-83163627D02*
X134819359Y-83020770D01*
X134819359Y-83020770D02*
X134771740Y-82925532D01*
X134771740Y-82925532D02*
X134724121Y-82782675D01*
X134724121Y-82782675D02*
X134676502Y-82544579D01*
X134676502Y-82544579D02*
X134676502Y-82354103D01*
X134676502Y-82354103D02*
X134724121Y-82116008D01*
X134724121Y-82116008D02*
X134771740Y-81973151D01*
X134771740Y-81973151D02*
X134819359Y-81877913D01*
X134819359Y-81877913D02*
X134914597Y-81735055D01*
X134914597Y-81735055D02*
X134962216Y-81687436D01*
X135295550Y-81925532D02*
X135343169Y-81877913D01*
X135343169Y-81877913D02*
X135438407Y-81830294D01*
X135438407Y-81830294D02*
X135676502Y-81830294D01*
X135676502Y-81830294D02*
X135771740Y-81877913D01*
X135771740Y-81877913D02*
X135819359Y-81925532D01*
X135819359Y-81925532D02*
X135866978Y-82020770D01*
X135866978Y-82020770D02*
X135866978Y-82116008D01*
X135866978Y-82116008D02*
X135819359Y-82258865D01*
X135819359Y-82258865D02*
X135247931Y-82830294D01*
X135247931Y-82830294D02*
X135866978Y-82830294D01*
X136200312Y-83211246D02*
X136247931Y-83163627D01*
X136247931Y-83163627D02*
X136343169Y-83020770D01*
X136343169Y-83020770D02*
X136390788Y-82925532D01*
X136390788Y-82925532D02*
X136438407Y-82782675D01*
X136438407Y-82782675D02*
X136486026Y-82544579D01*
X136486026Y-82544579D02*
X136486026Y-82354103D01*
X136486026Y-82354103D02*
X136438407Y-82116008D01*
X136438407Y-82116008D02*
X136390788Y-81973151D01*
X136390788Y-81973151D02*
X136343169Y-81877913D01*
X136343169Y-81877913D02*
X136247931Y-81735055D01*
X136247931Y-81735055D02*
X136200312Y-81687436D01*
X136724122Y-82925532D02*
X137486026Y-82925532D01*
X138247931Y-82830294D02*
X137676503Y-82830294D01*
X137962217Y-82830294D02*
X137962217Y-81830294D01*
X137962217Y-81830294D02*
X137866979Y-81973151D01*
X137866979Y-81973151D02*
X137771741Y-82068389D01*
X137771741Y-82068389D02*
X137676503Y-82116008D01*
X138724122Y-82830294D02*
X138914598Y-82830294D01*
X138914598Y-82830294D02*
X139009836Y-82782675D01*
X139009836Y-82782675D02*
X139057455Y-82735055D01*
X139057455Y-82735055D02*
X139152693Y-82592198D01*
X139152693Y-82592198D02*
X139200312Y-82401722D01*
X139200312Y-82401722D02*
X139200312Y-82020770D01*
X139200312Y-82020770D02*
X139152693Y-81925532D01*
X139152693Y-81925532D02*
X139105074Y-81877913D01*
X139105074Y-81877913D02*
X139009836Y-81830294D01*
X139009836Y-81830294D02*
X138819360Y-81830294D01*
X138819360Y-81830294D02*
X138724122Y-81877913D01*
X138724122Y-81877913D02*
X138676503Y-81925532D01*
X138676503Y-81925532D02*
X138628884Y-82020770D01*
X138628884Y-82020770D02*
X138628884Y-82258865D01*
X138628884Y-82258865D02*
X138676503Y-82354103D01*
X138676503Y-82354103D02*
X138724122Y-82401722D01*
X138724122Y-82401722D02*
X138819360Y-82449341D01*
X138819360Y-82449341D02*
X139009836Y-82449341D01*
X139009836Y-82449341D02*
X139105074Y-82401722D01*
X139105074Y-82401722D02*
X139152693Y-82354103D01*
X139152693Y-82354103D02*
X139200312Y-82258865D01*
X139486027Y-81830294D02*
X139819360Y-82830294D01*
X139819360Y-82830294D02*
X140152693Y-81830294D01*
X140247932Y-82925532D02*
X141009836Y-82925532D01*
X141771741Y-82830294D02*
X141200313Y-82830294D01*
X141486027Y-82830294D02*
X141486027Y-81830294D01*
X141486027Y-81830294D02*
X141390789Y-81973151D01*
X141390789Y-81973151D02*
X141295551Y-82068389D01*
X141295551Y-82068389D02*
X141200313Y-82116008D01*
X103730385Y-77735079D02*
X103778005Y-77782698D01*
X103778005Y-77782698D02*
X103825624Y-77925555D01*
X103825624Y-77925555D02*
X103825624Y-78020793D01*
X103825624Y-78020793D02*
X103778005Y-78163650D01*
X103778005Y-78163650D02*
X103682766Y-78258888D01*
X103682766Y-78258888D02*
X103587528Y-78306507D01*
X103587528Y-78306507D02*
X103397052Y-78354126D01*
X103397052Y-78354126D02*
X103254195Y-78354126D01*
X103254195Y-78354126D02*
X103063719Y-78306507D01*
X103063719Y-78306507D02*
X102968481Y-78258888D01*
X102968481Y-78258888D02*
X102873243Y-78163650D01*
X102873243Y-78163650D02*
X102825624Y-78020793D01*
X102825624Y-78020793D02*
X102825624Y-77925555D01*
X102825624Y-77925555D02*
X102873243Y-77782698D01*
X102873243Y-77782698D02*
X102920862Y-77735079D01*
X103778005Y-77354126D02*
X103825624Y-77258888D01*
X103825624Y-77258888D02*
X103825624Y-77068412D01*
X103825624Y-77068412D02*
X103778005Y-76973174D01*
X103778005Y-76973174D02*
X103682766Y-76925555D01*
X103682766Y-76925555D02*
X103635147Y-76925555D01*
X103635147Y-76925555D02*
X103539909Y-76973174D01*
X103539909Y-76973174D02*
X103492290Y-77068412D01*
X103492290Y-77068412D02*
X103492290Y-77211269D01*
X103492290Y-77211269D02*
X103444671Y-77306507D01*
X103444671Y-77306507D02*
X103349433Y-77354126D01*
X103349433Y-77354126D02*
X103301814Y-77354126D01*
X103301814Y-77354126D02*
X103206576Y-77306507D01*
X103206576Y-77306507D02*
X103158957Y-77211269D01*
X103158957Y-77211269D02*
X103158957Y-77068412D01*
X103158957Y-77068412D02*
X103206576Y-76973174D01*
X103825624Y-75973174D02*
X103825624Y-76544602D01*
X103825624Y-76258888D02*
X102825624Y-76258888D01*
X102825624Y-76258888D02*
X102968481Y-76354126D01*
X102968481Y-76354126D02*
X103063719Y-76449364D01*
X103063719Y-76449364D02*
X103111338Y-76544602D01*
X150528113Y-88290377D02*
X150575733Y-88337996D01*
X150575733Y-88337996D02*
X150623352Y-88480853D01*
X150623352Y-88480853D02*
X150623352Y-88576091D01*
X150623352Y-88576091D02*
X150575733Y-88718948D01*
X150575733Y-88718948D02*
X150480494Y-88814186D01*
X150480494Y-88814186D02*
X150385256Y-88861805D01*
X150385256Y-88861805D02*
X150194780Y-88909424D01*
X150194780Y-88909424D02*
X150051923Y-88909424D01*
X150051923Y-88909424D02*
X149861447Y-88861805D01*
X149861447Y-88861805D02*
X149766209Y-88814186D01*
X149766209Y-88814186D02*
X149670971Y-88718948D01*
X149670971Y-88718948D02*
X149623352Y-88576091D01*
X149623352Y-88576091D02*
X149623352Y-88480853D01*
X149623352Y-88480853D02*
X149670971Y-88337996D01*
X149670971Y-88337996D02*
X149718590Y-88290377D01*
X150623352Y-87861805D02*
X149956685Y-87861805D01*
X149623352Y-87861805D02*
X149670971Y-87909424D01*
X149670971Y-87909424D02*
X149718590Y-87861805D01*
X149718590Y-87861805D02*
X149670971Y-87814186D01*
X149670971Y-87814186D02*
X149623352Y-87861805D01*
X149623352Y-87861805D02*
X149718590Y-87861805D01*
X149956685Y-87385615D02*
X150623352Y-87385615D01*
X150051923Y-87385615D02*
X150004304Y-87337996D01*
X150004304Y-87337996D02*
X149956685Y-87242758D01*
X149956685Y-87242758D02*
X149956685Y-87099901D01*
X149956685Y-87099901D02*
X150004304Y-87004663D01*
X150004304Y-87004663D02*
X150099542Y-86957044D01*
X150099542Y-86957044D02*
X150623352Y-86957044D01*
X151004304Y-86195139D02*
X150956685Y-86242758D01*
X150956685Y-86242758D02*
X150813828Y-86337996D01*
X150813828Y-86337996D02*
X150718590Y-86385615D01*
X150718590Y-86385615D02*
X150575733Y-86433234D01*
X150575733Y-86433234D02*
X150337637Y-86480853D01*
X150337637Y-86480853D02*
X150147161Y-86480853D01*
X150147161Y-86480853D02*
X149909066Y-86433234D01*
X149909066Y-86433234D02*
X149766209Y-86385615D01*
X149766209Y-86385615D02*
X149670971Y-86337996D01*
X149670971Y-86337996D02*
X149528113Y-86242758D01*
X149528113Y-86242758D02*
X149480494Y-86195139D01*
X150575733Y-85385615D02*
X150623352Y-85480853D01*
X150623352Y-85480853D02*
X150623352Y-85671329D01*
X150623352Y-85671329D02*
X150575733Y-85766567D01*
X150575733Y-85766567D02*
X150528113Y-85814186D01*
X150528113Y-85814186D02*
X150432875Y-85861805D01*
X150432875Y-85861805D02*
X150147161Y-85861805D01*
X150147161Y-85861805D02*
X150051923Y-85814186D01*
X150051923Y-85814186D02*
X150004304Y-85766567D01*
X150004304Y-85766567D02*
X149956685Y-85671329D01*
X149956685Y-85671329D02*
X149956685Y-85480853D01*
X149956685Y-85480853D02*
X150004304Y-85385615D01*
X151004304Y-85052281D02*
X150956685Y-85004662D01*
X150956685Y-85004662D02*
X150813828Y-84909424D01*
X150813828Y-84909424D02*
X150718590Y-84861805D01*
X150718590Y-84861805D02*
X150575733Y-84814186D01*
X150575733Y-84814186D02*
X150337637Y-84766567D01*
X150337637Y-84766567D02*
X150147161Y-84766567D01*
X150147161Y-84766567D02*
X149909066Y-84814186D01*
X149909066Y-84814186D02*
X149766209Y-84861805D01*
X149766209Y-84861805D02*
X149670971Y-84909424D01*
X149670971Y-84909424D02*
X149528113Y-85004662D01*
X149528113Y-85004662D02*
X149480494Y-85052281D01*
X150623352Y-83766567D02*
X150623352Y-84337995D01*
X150623352Y-84052281D02*
X149623352Y-84052281D01*
X149623352Y-84052281D02*
X149766209Y-84147519D01*
X149766209Y-84147519D02*
X149861447Y-84242757D01*
X149861447Y-84242757D02*
X149909066Y-84337995D01*
X100206666Y-95762619D02*
X100206666Y-96476904D01*
X100206666Y-96476904D02*
X100159047Y-96619761D01*
X100159047Y-96619761D02*
X100063809Y-96715000D01*
X100063809Y-96715000D02*
X99920952Y-96762619D01*
X99920952Y-96762619D02*
X99825714Y-96762619D01*
X101206666Y-96762619D02*
X100635238Y-96762619D01*
X100920952Y-96762619D02*
X100920952Y-95762619D01*
X100920952Y-95762619D02*
X100825714Y-95905476D01*
X100825714Y-95905476D02*
X100730476Y-96000714D01*
X100730476Y-96000714D02*
X100635238Y-96048333D01*
X97752815Y-77378892D02*
X97276624Y-77712225D01*
X97752815Y-77950320D02*
X96752815Y-77950320D01*
X96752815Y-77950320D02*
X96752815Y-77569368D01*
X96752815Y-77569368D02*
X96800434Y-77474130D01*
X96800434Y-77474130D02*
X96848053Y-77426511D01*
X96848053Y-77426511D02*
X96943291Y-77378892D01*
X96943291Y-77378892D02*
X97086148Y-77378892D01*
X97086148Y-77378892D02*
X97181386Y-77426511D01*
X97181386Y-77426511D02*
X97229005Y-77474130D01*
X97229005Y-77474130D02*
X97276624Y-77569368D01*
X97276624Y-77569368D02*
X97276624Y-77950320D01*
X96848053Y-76997939D02*
X96800434Y-76950320D01*
X96800434Y-76950320D02*
X96752815Y-76855082D01*
X96752815Y-76855082D02*
X96752815Y-76616987D01*
X96752815Y-76616987D02*
X96800434Y-76521749D01*
X96800434Y-76521749D02*
X96848053Y-76474130D01*
X96848053Y-76474130D02*
X96943291Y-76426511D01*
X96943291Y-76426511D02*
X97038529Y-76426511D01*
X97038529Y-76426511D02*
X97181386Y-76474130D01*
X97181386Y-76474130D02*
X97752815Y-77045558D01*
X97752815Y-77045558D02*
X97752815Y-76426511D01*
X133076390Y-57572585D02*
X132981152Y-57524966D01*
X132981152Y-57524966D02*
X132885914Y-57429728D01*
X132885914Y-57429728D02*
X132743057Y-57286870D01*
X132743057Y-57286870D02*
X132647819Y-57239251D01*
X132647819Y-57239251D02*
X132552581Y-57239251D01*
X132600200Y-57477347D02*
X132504962Y-57429728D01*
X132504962Y-57429728D02*
X132409724Y-57334489D01*
X132409724Y-57334489D02*
X132362105Y-57144013D01*
X132362105Y-57144013D02*
X132362105Y-56810680D01*
X132362105Y-56810680D02*
X132409724Y-56620204D01*
X132409724Y-56620204D02*
X132504962Y-56524966D01*
X132504962Y-56524966D02*
X132600200Y-56477347D01*
X132600200Y-56477347D02*
X132790676Y-56477347D01*
X132790676Y-56477347D02*
X132885914Y-56524966D01*
X132885914Y-56524966D02*
X132981152Y-56620204D01*
X132981152Y-56620204D02*
X133028771Y-56810680D01*
X133028771Y-56810680D02*
X133028771Y-57144013D01*
X133028771Y-57144013D02*
X132981152Y-57334489D01*
X132981152Y-57334489D02*
X132885914Y-57429728D01*
X132885914Y-57429728D02*
X132790676Y-57477347D01*
X132790676Y-57477347D02*
X132600200Y-57477347D01*
X133457343Y-57477347D02*
X133457343Y-56477347D01*
X133457343Y-56477347D02*
X133695438Y-56477347D01*
X133695438Y-56477347D02*
X133838295Y-56524966D01*
X133838295Y-56524966D02*
X133933533Y-56620204D01*
X133933533Y-56620204D02*
X133981152Y-56715442D01*
X133981152Y-56715442D02*
X134028771Y-56905918D01*
X134028771Y-56905918D02*
X134028771Y-57048775D01*
X134028771Y-57048775D02*
X133981152Y-57239251D01*
X133981152Y-57239251D02*
X133933533Y-57334489D01*
X133933533Y-57334489D02*
X133838295Y-57429728D01*
X133838295Y-57429728D02*
X133695438Y-57477347D01*
X133695438Y-57477347D02*
X133457343Y-57477347D01*
X134743057Y-57858299D02*
X134695438Y-57810680D01*
X134695438Y-57810680D02*
X134600200Y-57667823D01*
X134600200Y-57667823D02*
X134552581Y-57572585D01*
X134552581Y-57572585D02*
X134504962Y-57429728D01*
X134504962Y-57429728D02*
X134457343Y-57191632D01*
X134457343Y-57191632D02*
X134457343Y-57001156D01*
X134457343Y-57001156D02*
X134504962Y-56763061D01*
X134504962Y-56763061D02*
X134552581Y-56620204D01*
X134552581Y-56620204D02*
X134600200Y-56524966D01*
X134600200Y-56524966D02*
X134695438Y-56382108D01*
X134695438Y-56382108D02*
X134743057Y-56334489D01*
X135028772Y-56477347D02*
X135647819Y-56477347D01*
X135647819Y-56477347D02*
X135314486Y-56858299D01*
X135314486Y-56858299D02*
X135457343Y-56858299D01*
X135457343Y-56858299D02*
X135552581Y-56905918D01*
X135552581Y-56905918D02*
X135600200Y-56953537D01*
X135600200Y-56953537D02*
X135647819Y-57048775D01*
X135647819Y-57048775D02*
X135647819Y-57286870D01*
X135647819Y-57286870D02*
X135600200Y-57382108D01*
X135600200Y-57382108D02*
X135552581Y-57429728D01*
X135552581Y-57429728D02*
X135457343Y-57477347D01*
X135457343Y-57477347D02*
X135171629Y-57477347D01*
X135171629Y-57477347D02*
X135076391Y-57429728D01*
X135076391Y-57429728D02*
X135028772Y-57382108D01*
X135981153Y-57858299D02*
X136028772Y-57810680D01*
X136028772Y-57810680D02*
X136124010Y-57667823D01*
X136124010Y-57667823D02*
X136171629Y-57572585D01*
X136171629Y-57572585D02*
X136219248Y-57429728D01*
X136219248Y-57429728D02*
X136266867Y-57191632D01*
X136266867Y-57191632D02*
X136266867Y-57001156D01*
X136266867Y-57001156D02*
X136219248Y-56763061D01*
X136219248Y-56763061D02*
X136171629Y-56620204D01*
X136171629Y-56620204D02*
X136124010Y-56524966D01*
X136124010Y-56524966D02*
X136028772Y-56382108D01*
X136028772Y-56382108D02*
X135981153Y-56334489D01*
X136504963Y-57572585D02*
X137266867Y-57572585D01*
X138028772Y-57477347D02*
X137457344Y-57477347D01*
X137743058Y-57477347D02*
X137743058Y-56477347D01*
X137743058Y-56477347D02*
X137647820Y-56620204D01*
X137647820Y-56620204D02*
X137552582Y-56715442D01*
X137552582Y-56715442D02*
X137457344Y-56763061D01*
X138504963Y-57477347D02*
X138695439Y-57477347D01*
X138695439Y-57477347D02*
X138790677Y-57429728D01*
X138790677Y-57429728D02*
X138838296Y-57382108D01*
X138838296Y-57382108D02*
X138933534Y-57239251D01*
X138933534Y-57239251D02*
X138981153Y-57048775D01*
X138981153Y-57048775D02*
X138981153Y-56667823D01*
X138981153Y-56667823D02*
X138933534Y-56572585D01*
X138933534Y-56572585D02*
X138885915Y-56524966D01*
X138885915Y-56524966D02*
X138790677Y-56477347D01*
X138790677Y-56477347D02*
X138600201Y-56477347D01*
X138600201Y-56477347D02*
X138504963Y-56524966D01*
X138504963Y-56524966D02*
X138457344Y-56572585D01*
X138457344Y-56572585D02*
X138409725Y-56667823D01*
X138409725Y-56667823D02*
X138409725Y-56905918D01*
X138409725Y-56905918D02*
X138457344Y-57001156D01*
X138457344Y-57001156D02*
X138504963Y-57048775D01*
X138504963Y-57048775D02*
X138600201Y-57096394D01*
X138600201Y-57096394D02*
X138790677Y-57096394D01*
X138790677Y-57096394D02*
X138885915Y-57048775D01*
X138885915Y-57048775D02*
X138933534Y-57001156D01*
X138933534Y-57001156D02*
X138981153Y-56905918D01*
X139266868Y-56477347D02*
X139600201Y-57477347D01*
X139600201Y-57477347D02*
X139933534Y-56477347D01*
X140028773Y-57572585D02*
X140790677Y-57572585D01*
X141552582Y-57477347D02*
X140981154Y-57477347D01*
X141266868Y-57477347D02*
X141266868Y-56477347D01*
X141266868Y-56477347D02*
X141171630Y-56620204D01*
X141171630Y-56620204D02*
X141076392Y-56715442D01*
X141076392Y-56715442D02*
X140981154Y-56763061D01*
X121604650Y-81931126D02*
X121557031Y-81978746D01*
X121557031Y-81978746D02*
X121414174Y-82026365D01*
X121414174Y-82026365D02*
X121318936Y-82026365D01*
X121318936Y-82026365D02*
X121176079Y-81978746D01*
X121176079Y-81978746D02*
X121080841Y-81883507D01*
X121080841Y-81883507D02*
X121033222Y-81788269D01*
X121033222Y-81788269D02*
X120985603Y-81597793D01*
X120985603Y-81597793D02*
X120985603Y-81454936D01*
X120985603Y-81454936D02*
X121033222Y-81264460D01*
X121033222Y-81264460D02*
X121080841Y-81169222D01*
X121080841Y-81169222D02*
X121176079Y-81073984D01*
X121176079Y-81073984D02*
X121318936Y-81026365D01*
X121318936Y-81026365D02*
X121414174Y-81026365D01*
X121414174Y-81026365D02*
X121557031Y-81073984D01*
X121557031Y-81073984D02*
X121604650Y-81121603D01*
X122033222Y-82026365D02*
X122033222Y-81026365D01*
X122033222Y-81407317D02*
X122128460Y-81359698D01*
X122128460Y-81359698D02*
X122318936Y-81359698D01*
X122318936Y-81359698D02*
X122414174Y-81407317D01*
X122414174Y-81407317D02*
X122461793Y-81454936D01*
X122461793Y-81454936D02*
X122509412Y-81550174D01*
X122509412Y-81550174D02*
X122509412Y-81835888D01*
X122509412Y-81835888D02*
X122461793Y-81931126D01*
X122461793Y-81931126D02*
X122414174Y-81978746D01*
X122414174Y-81978746D02*
X122318936Y-82026365D01*
X122318936Y-82026365D02*
X122128460Y-82026365D01*
X122128460Y-82026365D02*
X122033222Y-81978746D01*
X123223698Y-82407317D02*
X123176079Y-82359698D01*
X123176079Y-82359698D02*
X123080841Y-82216841D01*
X123080841Y-82216841D02*
X123033222Y-82121603D01*
X123033222Y-82121603D02*
X122985603Y-81978746D01*
X122985603Y-81978746D02*
X122937984Y-81740650D01*
X122937984Y-81740650D02*
X122937984Y-81550174D01*
X122937984Y-81550174D02*
X122985603Y-81312079D01*
X122985603Y-81312079D02*
X123033222Y-81169222D01*
X123033222Y-81169222D02*
X123080841Y-81073984D01*
X123080841Y-81073984D02*
X123176079Y-80931126D01*
X123176079Y-80931126D02*
X123223698Y-80883507D01*
X123557032Y-81978746D02*
X123699889Y-82026365D01*
X123699889Y-82026365D02*
X123937984Y-82026365D01*
X123937984Y-82026365D02*
X124033222Y-81978746D01*
X124033222Y-81978746D02*
X124080841Y-81931126D01*
X124080841Y-81931126D02*
X124128460Y-81835888D01*
X124128460Y-81835888D02*
X124128460Y-81740650D01*
X124128460Y-81740650D02*
X124080841Y-81645412D01*
X124080841Y-81645412D02*
X124033222Y-81597793D01*
X124033222Y-81597793D02*
X123937984Y-81550174D01*
X123937984Y-81550174D02*
X123747508Y-81502555D01*
X123747508Y-81502555D02*
X123652270Y-81454936D01*
X123652270Y-81454936D02*
X123604651Y-81407317D01*
X123604651Y-81407317D02*
X123557032Y-81312079D01*
X123557032Y-81312079D02*
X123557032Y-81216841D01*
X123557032Y-81216841D02*
X123604651Y-81121603D01*
X123604651Y-81121603D02*
X123652270Y-81073984D01*
X123652270Y-81073984D02*
X123747508Y-81026365D01*
X123747508Y-81026365D02*
X123985603Y-81026365D01*
X123985603Y-81026365D02*
X124128460Y-81073984D01*
X124461794Y-81026365D02*
X124699889Y-82026365D01*
X124699889Y-82026365D02*
X124890365Y-81312079D01*
X124890365Y-81312079D02*
X125080841Y-82026365D01*
X125080841Y-82026365D02*
X125318937Y-81026365D01*
X125652270Y-81121603D02*
X125699889Y-81073984D01*
X125699889Y-81073984D02*
X125795127Y-81026365D01*
X125795127Y-81026365D02*
X126033222Y-81026365D01*
X126033222Y-81026365D02*
X126128460Y-81073984D01*
X126128460Y-81073984D02*
X126176079Y-81121603D01*
X126176079Y-81121603D02*
X126223698Y-81216841D01*
X126223698Y-81216841D02*
X126223698Y-81312079D01*
X126223698Y-81312079D02*
X126176079Y-81454936D01*
X126176079Y-81454936D02*
X125604651Y-82026365D01*
X125604651Y-82026365D02*
X126223698Y-82026365D01*
X126557032Y-82407317D02*
X126604651Y-82359698D01*
X126604651Y-82359698D02*
X126699889Y-82216841D01*
X126699889Y-82216841D02*
X126747508Y-82121603D01*
X126747508Y-82121603D02*
X126795127Y-81978746D01*
X126795127Y-81978746D02*
X126842746Y-81740650D01*
X126842746Y-81740650D02*
X126842746Y-81550174D01*
X126842746Y-81550174D02*
X126795127Y-81312079D01*
X126795127Y-81312079D02*
X126747508Y-81169222D01*
X126747508Y-81169222D02*
X126699889Y-81073984D01*
X126699889Y-81073984D02*
X126604651Y-80931126D01*
X126604651Y-80931126D02*
X126557032Y-80883507D01*
X127842746Y-82026365D02*
X127271318Y-82026365D01*
X127557032Y-82026365D02*
X127557032Y-81026365D01*
X127557032Y-81026365D02*
X127461794Y-81169222D01*
X127461794Y-81169222D02*
X127366556Y-81264460D01*
X127366556Y-81264460D02*
X127271318Y-81312079D01*
X152487618Y-56937380D02*
X152439999Y-56985000D01*
X152439999Y-56985000D02*
X152297142Y-57032619D01*
X152297142Y-57032619D02*
X152201904Y-57032619D01*
X152201904Y-57032619D02*
X152059047Y-56985000D01*
X152059047Y-56985000D02*
X151963809Y-56889761D01*
X151963809Y-56889761D02*
X151916190Y-56794523D01*
X151916190Y-56794523D02*
X151868571Y-56604047D01*
X151868571Y-56604047D02*
X151868571Y-56461190D01*
X151868571Y-56461190D02*
X151916190Y-56270714D01*
X151916190Y-56270714D02*
X151963809Y-56175476D01*
X151963809Y-56175476D02*
X152059047Y-56080238D01*
X152059047Y-56080238D02*
X152201904Y-56032619D01*
X152201904Y-56032619D02*
X152297142Y-56032619D01*
X152297142Y-56032619D02*
X152439999Y-56080238D01*
X152439999Y-56080238D02*
X152487618Y-56127857D01*
X153344761Y-56985000D02*
X153249523Y-57032619D01*
X153249523Y-57032619D02*
X153059047Y-57032619D01*
X153059047Y-57032619D02*
X152963809Y-56985000D01*
X152963809Y-56985000D02*
X152916190Y-56937380D01*
X152916190Y-56937380D02*
X152868571Y-56842142D01*
X152868571Y-56842142D02*
X152868571Y-56556428D01*
X152868571Y-56556428D02*
X152916190Y-56461190D01*
X152916190Y-56461190D02*
X152963809Y-56413571D01*
X152963809Y-56413571D02*
X153059047Y-56365952D01*
X153059047Y-56365952D02*
X153249523Y-56365952D01*
X153249523Y-56365952D02*
X153344761Y-56413571D01*
X154059047Y-57413571D02*
X154011428Y-57365952D01*
X154011428Y-57365952D02*
X153916190Y-57223095D01*
X153916190Y-57223095D02*
X153868571Y-57127857D01*
X153868571Y-57127857D02*
X153820952Y-56985000D01*
X153820952Y-56985000D02*
X153773333Y-56746904D01*
X153773333Y-56746904D02*
X153773333Y-56556428D01*
X153773333Y-56556428D02*
X153820952Y-56318333D01*
X153820952Y-56318333D02*
X153868571Y-56175476D01*
X153868571Y-56175476D02*
X153916190Y-56080238D01*
X153916190Y-56080238D02*
X154011428Y-55937380D01*
X154011428Y-55937380D02*
X154059047Y-55889761D01*
X154582857Y-57032619D02*
X154487619Y-56985000D01*
X154487619Y-56985000D02*
X154440000Y-56937380D01*
X154440000Y-56937380D02*
X154392381Y-56842142D01*
X154392381Y-56842142D02*
X154392381Y-56556428D01*
X154392381Y-56556428D02*
X154440000Y-56461190D01*
X154440000Y-56461190D02*
X154487619Y-56413571D01*
X154487619Y-56413571D02*
X154582857Y-56365952D01*
X154582857Y-56365952D02*
X154725714Y-56365952D01*
X154725714Y-56365952D02*
X154820952Y-56413571D01*
X154820952Y-56413571D02*
X154868571Y-56461190D01*
X154868571Y-56461190D02*
X154916190Y-56556428D01*
X154916190Y-56556428D02*
X154916190Y-56842142D01*
X154916190Y-56842142D02*
X154868571Y-56937380D01*
X154868571Y-56937380D02*
X154820952Y-56985000D01*
X154820952Y-56985000D02*
X154725714Y-57032619D01*
X154725714Y-57032619D02*
X154582857Y-57032619D01*
X155773333Y-56365952D02*
X155773333Y-57032619D01*
X155344762Y-56365952D02*
X155344762Y-56889761D01*
X155344762Y-56889761D02*
X155392381Y-56985000D01*
X155392381Y-56985000D02*
X155487619Y-57032619D01*
X155487619Y-57032619D02*
X155630476Y-57032619D01*
X155630476Y-57032619D02*
X155725714Y-56985000D01*
X155725714Y-56985000D02*
X155773333Y-56937380D01*
X156106667Y-56365952D02*
X156487619Y-56365952D01*
X156249524Y-56032619D02*
X156249524Y-56889761D01*
X156249524Y-56889761D02*
X156297143Y-56985000D01*
X156297143Y-56985000D02*
X156392381Y-57032619D01*
X156392381Y-57032619D02*
X156487619Y-57032619D01*
X156725715Y-57413571D02*
X156773334Y-57365952D01*
X156773334Y-57365952D02*
X156868572Y-57223095D01*
X156868572Y-57223095D02*
X156916191Y-57127857D01*
X156916191Y-57127857D02*
X156963810Y-56985000D01*
X156963810Y-56985000D02*
X157011429Y-56746904D01*
X157011429Y-56746904D02*
X157011429Y-56556428D01*
X157011429Y-56556428D02*
X156963810Y-56318333D01*
X156963810Y-56318333D02*
X156916191Y-56175476D01*
X156916191Y-56175476D02*
X156868572Y-56080238D01*
X156868572Y-56080238D02*
X156773334Y-55937380D01*
X156773334Y-55937380D02*
X156725715Y-55889761D01*
X158011429Y-57032619D02*
X157440001Y-57032619D01*
X157725715Y-57032619D02*
X157725715Y-56032619D01*
X157725715Y-56032619D02*
X157630477Y-56175476D01*
X157630477Y-56175476D02*
X157535239Y-56270714D01*
X157535239Y-56270714D02*
X157440001Y-56318333D01*
X102988516Y-89621401D02*
X102940897Y-89669021D01*
X102940897Y-89669021D02*
X102798040Y-89716640D01*
X102798040Y-89716640D02*
X102702802Y-89716640D01*
X102702802Y-89716640D02*
X102559945Y-89669021D01*
X102559945Y-89669021D02*
X102464707Y-89573782D01*
X102464707Y-89573782D02*
X102417088Y-89478544D01*
X102417088Y-89478544D02*
X102369469Y-89288068D01*
X102369469Y-89288068D02*
X102369469Y-89145211D01*
X102369469Y-89145211D02*
X102417088Y-88954735D01*
X102417088Y-88954735D02*
X102464707Y-88859497D01*
X102464707Y-88859497D02*
X102559945Y-88764259D01*
X102559945Y-88764259D02*
X102702802Y-88716640D01*
X102702802Y-88716640D02*
X102798040Y-88716640D01*
X102798040Y-88716640D02*
X102940897Y-88764259D01*
X102940897Y-88764259D02*
X102988516Y-88811878D01*
X103702802Y-90097592D02*
X103655183Y-90049973D01*
X103655183Y-90049973D02*
X103559945Y-89907116D01*
X103559945Y-89907116D02*
X103512326Y-89811878D01*
X103512326Y-89811878D02*
X103464707Y-89669021D01*
X103464707Y-89669021D02*
X103417088Y-89430925D01*
X103417088Y-89430925D02*
X103417088Y-89240449D01*
X103417088Y-89240449D02*
X103464707Y-89002354D01*
X103464707Y-89002354D02*
X103512326Y-88859497D01*
X103512326Y-88859497D02*
X103559945Y-88764259D01*
X103559945Y-88764259D02*
X103655183Y-88621401D01*
X103655183Y-88621401D02*
X103702802Y-88573782D01*
X104036136Y-89669021D02*
X104178993Y-89716640D01*
X104178993Y-89716640D02*
X104417088Y-89716640D01*
X104417088Y-89716640D02*
X104512326Y-89669021D01*
X104512326Y-89669021D02*
X104559945Y-89621401D01*
X104559945Y-89621401D02*
X104607564Y-89526163D01*
X104607564Y-89526163D02*
X104607564Y-89430925D01*
X104607564Y-89430925D02*
X104559945Y-89335687D01*
X104559945Y-89335687D02*
X104512326Y-89288068D01*
X104512326Y-89288068D02*
X104417088Y-89240449D01*
X104417088Y-89240449D02*
X104226612Y-89192830D01*
X104226612Y-89192830D02*
X104131374Y-89145211D01*
X104131374Y-89145211D02*
X104083755Y-89097592D01*
X104083755Y-89097592D02*
X104036136Y-89002354D01*
X104036136Y-89002354D02*
X104036136Y-88907116D01*
X104036136Y-88907116D02*
X104083755Y-88811878D01*
X104083755Y-88811878D02*
X104131374Y-88764259D01*
X104131374Y-88764259D02*
X104226612Y-88716640D01*
X104226612Y-88716640D02*
X104464707Y-88716640D01*
X104464707Y-88716640D02*
X104607564Y-88764259D01*
X104893279Y-88716640D02*
X105464707Y-88716640D01*
X105178993Y-89716640D02*
X105178993Y-88716640D01*
X106131374Y-89192830D02*
X106274231Y-89240449D01*
X106274231Y-89240449D02*
X106321850Y-89288068D01*
X106321850Y-89288068D02*
X106369469Y-89383306D01*
X106369469Y-89383306D02*
X106369469Y-89526163D01*
X106369469Y-89526163D02*
X106321850Y-89621401D01*
X106321850Y-89621401D02*
X106274231Y-89669021D01*
X106274231Y-89669021D02*
X106178993Y-89716640D01*
X106178993Y-89716640D02*
X105798041Y-89716640D01*
X105798041Y-89716640D02*
X105798041Y-88716640D01*
X105798041Y-88716640D02*
X106131374Y-88716640D01*
X106131374Y-88716640D02*
X106226612Y-88764259D01*
X106226612Y-88764259D02*
X106274231Y-88811878D01*
X106274231Y-88811878D02*
X106321850Y-88907116D01*
X106321850Y-88907116D02*
X106321850Y-89002354D01*
X106321850Y-89002354D02*
X106274231Y-89097592D01*
X106274231Y-89097592D02*
X106226612Y-89145211D01*
X106226612Y-89145211D02*
X106131374Y-89192830D01*
X106131374Y-89192830D02*
X105798041Y-89192830D01*
X106988517Y-89240449D02*
X106988517Y-89716640D01*
X106655184Y-88716640D02*
X106988517Y-89240449D01*
X106988517Y-89240449D02*
X107321850Y-88716640D01*
X107655184Y-89716640D02*
X107655184Y-88716640D01*
X107655184Y-88716640D02*
X107988517Y-89430925D01*
X107988517Y-89430925D02*
X108321850Y-88716640D01*
X108321850Y-88716640D02*
X108321850Y-89716640D01*
X108798041Y-89716640D02*
X108798041Y-88716640D01*
X108798041Y-88716640D02*
X109036136Y-88716640D01*
X109036136Y-88716640D02*
X109178993Y-88764259D01*
X109178993Y-88764259D02*
X109274231Y-88859497D01*
X109274231Y-88859497D02*
X109321850Y-88954735D01*
X109321850Y-88954735D02*
X109369469Y-89145211D01*
X109369469Y-89145211D02*
X109369469Y-89288068D01*
X109369469Y-89288068D02*
X109321850Y-89478544D01*
X109321850Y-89478544D02*
X109274231Y-89573782D01*
X109274231Y-89573782D02*
X109178993Y-89669021D01*
X109178993Y-89669021D02*
X109036136Y-89716640D01*
X109036136Y-89716640D02*
X108798041Y-89716640D01*
X109702803Y-90097592D02*
X109750422Y-90049973D01*
X109750422Y-90049973D02*
X109845660Y-89907116D01*
X109845660Y-89907116D02*
X109893279Y-89811878D01*
X109893279Y-89811878D02*
X109940898Y-89669021D01*
X109940898Y-89669021D02*
X109988517Y-89430925D01*
X109988517Y-89430925D02*
X109988517Y-89240449D01*
X109988517Y-89240449D02*
X109940898Y-89002354D01*
X109940898Y-89002354D02*
X109893279Y-88859497D01*
X109893279Y-88859497D02*
X109845660Y-88764259D01*
X109845660Y-88764259D02*
X109750422Y-88621401D01*
X109750422Y-88621401D02*
X109702803Y-88573782D01*
X110988517Y-89716640D02*
X110417089Y-89716640D01*
X110702803Y-89716640D02*
X110702803Y-88716640D01*
X110702803Y-88716640D02*
X110607565Y-88859497D01*
X110607565Y-88859497D02*
X110512327Y-88954735D01*
X110512327Y-88954735D02*
X110417089Y-89002354D01*
X112669786Y-68727329D02*
X111669786Y-68727329D01*
X111669786Y-68727329D02*
X111669786Y-68489234D01*
X111669786Y-68489234D02*
X111717405Y-68346377D01*
X111717405Y-68346377D02*
X111812643Y-68251139D01*
X111812643Y-68251139D02*
X111907881Y-68203520D01*
X111907881Y-68203520D02*
X112098357Y-68155901D01*
X112098357Y-68155901D02*
X112241214Y-68155901D01*
X112241214Y-68155901D02*
X112431690Y-68203520D01*
X112431690Y-68203520D02*
X112526928Y-68251139D01*
X112526928Y-68251139D02*
X112622167Y-68346377D01*
X112622167Y-68346377D02*
X112669786Y-68489234D01*
X112669786Y-68489234D02*
X112669786Y-68727329D01*
X113050738Y-67441615D02*
X113003119Y-67489234D01*
X113003119Y-67489234D02*
X112860262Y-67584472D01*
X112860262Y-67584472D02*
X112765024Y-67632091D01*
X112765024Y-67632091D02*
X112622167Y-67679710D01*
X112622167Y-67679710D02*
X112384071Y-67727329D01*
X112384071Y-67727329D02*
X112193595Y-67727329D01*
X112193595Y-67727329D02*
X111955500Y-67679710D01*
X111955500Y-67679710D02*
X111812643Y-67632091D01*
X111812643Y-67632091D02*
X111717405Y-67584472D01*
X111717405Y-67584472D02*
X111574547Y-67489234D01*
X111574547Y-67489234D02*
X111526928Y-67441615D01*
X111669786Y-67155900D02*
X111669786Y-66489234D01*
X111669786Y-66489234D02*
X112669786Y-67155900D01*
X112669786Y-67155900D02*
X112669786Y-66489234D01*
X112622167Y-65727329D02*
X112669786Y-65822567D01*
X112669786Y-65822567D02*
X112669786Y-66013043D01*
X112669786Y-66013043D02*
X112622167Y-66108281D01*
X112622167Y-66108281D02*
X112526928Y-66155900D01*
X112526928Y-66155900D02*
X112145976Y-66155900D01*
X112145976Y-66155900D02*
X112050738Y-66108281D01*
X112050738Y-66108281D02*
X112003119Y-66013043D01*
X112003119Y-66013043D02*
X112003119Y-65822567D01*
X112003119Y-65822567D02*
X112050738Y-65727329D01*
X112050738Y-65727329D02*
X112145976Y-65679710D01*
X112145976Y-65679710D02*
X112241214Y-65679710D01*
X112241214Y-65679710D02*
X112336452Y-66155900D01*
X112003119Y-65251138D02*
X112669786Y-65251138D01*
X112098357Y-65251138D02*
X112050738Y-65203519D01*
X112050738Y-65203519D02*
X112003119Y-65108281D01*
X112003119Y-65108281D02*
X112003119Y-64965424D01*
X112003119Y-64965424D02*
X112050738Y-64870186D01*
X112050738Y-64870186D02*
X112145976Y-64822567D01*
X112145976Y-64822567D02*
X112669786Y-64822567D01*
X112622167Y-63965424D02*
X112669786Y-64060662D01*
X112669786Y-64060662D02*
X112669786Y-64251138D01*
X112669786Y-64251138D02*
X112622167Y-64346376D01*
X112622167Y-64346376D02*
X112526928Y-64393995D01*
X112526928Y-64393995D02*
X112145976Y-64393995D01*
X112145976Y-64393995D02*
X112050738Y-64346376D01*
X112050738Y-64346376D02*
X112003119Y-64251138D01*
X112003119Y-64251138D02*
X112003119Y-64060662D01*
X112003119Y-64060662D02*
X112050738Y-63965424D01*
X112050738Y-63965424D02*
X112145976Y-63917805D01*
X112145976Y-63917805D02*
X112241214Y-63917805D01*
X112241214Y-63917805D02*
X112336452Y-64393995D01*
X112669786Y-63489233D02*
X112003119Y-63489233D01*
X112193595Y-63489233D02*
X112098357Y-63441614D01*
X112098357Y-63441614D02*
X112050738Y-63393995D01*
X112050738Y-63393995D02*
X112003119Y-63298757D01*
X112003119Y-63298757D02*
X112003119Y-63203519D01*
X113050738Y-62965423D02*
X113003119Y-62917804D01*
X113003119Y-62917804D02*
X112860262Y-62822566D01*
X112860262Y-62822566D02*
X112765024Y-62774947D01*
X112765024Y-62774947D02*
X112622167Y-62727328D01*
X112622167Y-62727328D02*
X112384071Y-62679709D01*
X112384071Y-62679709D02*
X112193595Y-62679709D01*
X112193595Y-62679709D02*
X111955500Y-62727328D01*
X111955500Y-62727328D02*
X111812643Y-62774947D01*
X111812643Y-62774947D02*
X111717405Y-62822566D01*
X111717405Y-62822566D02*
X111574547Y-62917804D01*
X111574547Y-62917804D02*
X111526928Y-62965423D01*
X112765024Y-62441614D02*
X112765024Y-61679709D01*
X112669786Y-60917804D02*
X112669786Y-61489232D01*
X112669786Y-61203518D02*
X111669786Y-61203518D01*
X111669786Y-61203518D02*
X111812643Y-61298756D01*
X111812643Y-61298756D02*
X111907881Y-61393994D01*
X111907881Y-61393994D02*
X111955500Y-61489232D01*
X112669786Y-60441613D02*
X112669786Y-60251137D01*
X112669786Y-60251137D02*
X112622167Y-60155899D01*
X112622167Y-60155899D02*
X112574547Y-60108280D01*
X112574547Y-60108280D02*
X112431690Y-60013042D01*
X112431690Y-60013042D02*
X112241214Y-59965423D01*
X112241214Y-59965423D02*
X111860262Y-59965423D01*
X111860262Y-59965423D02*
X111765024Y-60013042D01*
X111765024Y-60013042D02*
X111717405Y-60060661D01*
X111717405Y-60060661D02*
X111669786Y-60155899D01*
X111669786Y-60155899D02*
X111669786Y-60346375D01*
X111669786Y-60346375D02*
X111717405Y-60441613D01*
X111717405Y-60441613D02*
X111765024Y-60489232D01*
X111765024Y-60489232D02*
X111860262Y-60536851D01*
X111860262Y-60536851D02*
X112098357Y-60536851D01*
X112098357Y-60536851D02*
X112193595Y-60489232D01*
X112193595Y-60489232D02*
X112241214Y-60441613D01*
X112241214Y-60441613D02*
X112288833Y-60346375D01*
X112288833Y-60346375D02*
X112288833Y-60155899D01*
X112288833Y-60155899D02*
X112241214Y-60060661D01*
X112241214Y-60060661D02*
X112193595Y-60013042D01*
X112193595Y-60013042D02*
X112098357Y-59965423D01*
X111669786Y-59679708D02*
X112669786Y-59346375D01*
X112669786Y-59346375D02*
X111669786Y-59013042D01*
X112669786Y-58155899D02*
X112669786Y-58727327D01*
X112669786Y-58441613D02*
X111669786Y-58441613D01*
X111669786Y-58441613D02*
X111812643Y-58536851D01*
X111812643Y-58536851D02*
X111907881Y-58632089D01*
X111907881Y-58632089D02*
X111955500Y-58727327D01*
X113762619Y-60838399D02*
X114000714Y-60838399D01*
X113905476Y-61076494D02*
X114000714Y-60838399D01*
X114000714Y-60838399D02*
X113905476Y-60600304D01*
X114191190Y-60981256D02*
X114000714Y-60838399D01*
X114000714Y-60838399D02*
X114191190Y-60695542D01*
X114837380Y-60838400D02*
X114599285Y-60838400D01*
X114694523Y-60600305D02*
X114599285Y-60838400D01*
X114599285Y-60838400D02*
X114694523Y-61076495D01*
X114408809Y-60695543D02*
X114599285Y-60838400D01*
X114599285Y-60838400D02*
X114408809Y-60981257D01*
D11*
X109982000Y-45085000D02*
X109982000Y-46355000D01*
X109982000Y-45720000D02*
X110744000Y-45085000D01*
X109982000Y-45720000D02*
X110744000Y-45212000D01*
X109982000Y-45720000D02*
X110744000Y-45339000D01*
X109982000Y-45720000D02*
X110744000Y-45466000D01*
X109982000Y-45720000D02*
X110744000Y-45593000D01*
X109982000Y-45720000D02*
X110744000Y-45847000D01*
X109982000Y-45720000D02*
X110744000Y-45974000D01*
X109982000Y-45720000D02*
X110744000Y-46101000D01*
X109982000Y-45720000D02*
X110744000Y-46228000D01*
X109982000Y-45720000D02*
X110744000Y-46355000D01*
X110744000Y-45085000D02*
X110744000Y-46355000D01*
X110998000Y-45720000D02*
X109728000Y-45720000D01*
X111379000Y-44132500D02*
X111379000Y-44574460D01*
X111379000Y-46865540D02*
X111379000Y-47307500D01*
X111379000Y-47307500D02*
X117221000Y-47307500D01*
X117221000Y-44132500D02*
X111379000Y-44132500D01*
X117221000Y-44574460D02*
X117221000Y-44132500D01*
X117221000Y-47307500D02*
X117221000Y-46865540D01*
D12*
X117750000Y-83092936D02*
X117750000Y-84547064D01*
X115930000Y-83092936D02*
X115930000Y-84547064D01*
D13*
X143970000Y-50870000D02*
X146000000Y-50870000D01*
X148640000Y-50870000D02*
X150670000Y-50870000D01*
X150670000Y-50870000D02*
X152470000Y-49070000D01*
X142170000Y-49070000D02*
X143970000Y-50870000D01*
X152470000Y-49070000D02*
X152470000Y-40570000D01*
X142170000Y-40570000D02*
X142170000Y-49070000D01*
X146000000Y-40570000D02*
X142170000Y-40570000D01*
X152470000Y-40570000D02*
X148640000Y-40570000D01*
D14*
X145320000Y-52020000D02*
G75*
G03*
X145320000Y-52020000I-100000J0D01*
G01*
D12*
X119635000Y-52205000D02*
X119635000Y-54475000D01*
X119635000Y-54475000D02*
X123520000Y-54475000D01*
X123520000Y-52205000D02*
X119635000Y-52205000D01*
X98343339Y-84587832D02*
X98343339Y-83165328D01*
X100163339Y-84587832D02*
X100163339Y-83165328D01*
X104416697Y-84449610D02*
X104416697Y-82995482D01*
X106236697Y-84449610D02*
X106236697Y-82995482D01*
D11*
X117602000Y-90805000D02*
X117602000Y-92075000D01*
X117602000Y-91440000D02*
X118364000Y-90805000D01*
X117602000Y-91440000D02*
X118364000Y-90932000D01*
X117602000Y-91440000D02*
X118364000Y-91059000D01*
X117602000Y-91440000D02*
X118364000Y-91186000D01*
X117602000Y-91440000D02*
X118364000Y-91313000D01*
X117602000Y-91440000D02*
X118364000Y-91567000D01*
X117602000Y-91440000D02*
X118364000Y-91694000D01*
X117602000Y-91440000D02*
X118364000Y-91821000D01*
X117602000Y-91440000D02*
X118364000Y-91948000D01*
X117602000Y-91440000D02*
X118364000Y-92075000D01*
X118364000Y-90805000D02*
X118364000Y-92075000D01*
X118618000Y-91440000D02*
X117348000Y-91440000D01*
X118999000Y-89852500D02*
X118999000Y-90294460D01*
X118999000Y-92585540D02*
X118999000Y-93027500D01*
X118999000Y-93027500D02*
X124841000Y-93027500D01*
X124841000Y-89852500D02*
X118999000Y-89852500D01*
X124841000Y-90294460D02*
X124841000Y-89852500D01*
X124841000Y-93027500D02*
X124841000Y-92585540D01*
X170510200Y-56997600D02*
X170510200Y-85242400D01*
X170510200Y-85242400D02*
X190169800Y-85242400D01*
X190169800Y-56997600D02*
X170510200Y-56997600D01*
X190169800Y-85242400D02*
X190169800Y-56997600D01*
D12*
X110134840Y-77906282D02*
X110134840Y-76452154D01*
X111954840Y-77906282D02*
X111954840Y-76452154D01*
D11*
X140284200Y-76288900D02*
X140284200Y-76113640D01*
X140284200Y-75016360D02*
X140284200Y-74843640D01*
X140284200Y-73746360D02*
X140284200Y-73573640D01*
X140284200Y-72476360D02*
X140284200Y-72303640D01*
X140284200Y-71206360D02*
X140284200Y-71031100D01*
X140284200Y-71031100D02*
X134035800Y-71031100D01*
X134035800Y-76288900D02*
X140284200Y-76288900D01*
X134035800Y-76113640D02*
X134035800Y-76288900D01*
X134035800Y-74843640D02*
X134035800Y-75016360D01*
X134035800Y-73573640D02*
X134035800Y-73746360D01*
X134035800Y-72303640D02*
X134035800Y-72476360D01*
X134035800Y-71031100D02*
X134035800Y-71206360D01*
D12*
X102510000Y-45008748D02*
X102510000Y-46431252D01*
X100690000Y-45008748D02*
X100690000Y-46431252D01*
D11*
X140284200Y-101688900D02*
X140284200Y-101513640D01*
X140284200Y-100416360D02*
X140284200Y-100243640D01*
X140284200Y-99146360D02*
X140284200Y-98973640D01*
X140284200Y-97876360D02*
X140284200Y-97703640D01*
X140284200Y-96606360D02*
X140284200Y-96431100D01*
X140284200Y-96431100D02*
X134035800Y-96431100D01*
X134035800Y-101688900D02*
X140284200Y-101688900D01*
X134035800Y-101513640D02*
X134035800Y-101688900D01*
X134035800Y-100243640D02*
X134035800Y-100416360D01*
X134035800Y-98973640D02*
X134035800Y-99146360D01*
X134035800Y-97703640D02*
X134035800Y-97876360D01*
X134035800Y-96431100D02*
X134035800Y-96606360D01*
D12*
X112041291Y-82931140D02*
X112041291Y-84353644D01*
X110221291Y-82931140D02*
X110221291Y-84353644D01*
D11*
X149158100Y-100965000D02*
X149158100Y-102235000D01*
X149158100Y-101600000D02*
X149920100Y-100965000D01*
X149158100Y-101600000D02*
X149920100Y-101092000D01*
X149158100Y-101600000D02*
X149920100Y-101219000D01*
X149158100Y-101600000D02*
X149920100Y-101346000D01*
X149158100Y-101600000D02*
X149920100Y-101473000D01*
X149158100Y-101600000D02*
X149920100Y-101727000D01*
X149158100Y-101600000D02*
X149920100Y-101854000D01*
X149158100Y-101600000D02*
X149920100Y-101981000D01*
X149158100Y-101600000D02*
X149920100Y-102108000D01*
X149158100Y-101600000D02*
X149920100Y-102235000D01*
X149920100Y-100965000D02*
X149920100Y-102235000D01*
X150174100Y-101600000D02*
X148904100Y-101600000D01*
X151736200Y-103581200D02*
X157298800Y-103581200D01*
X157298800Y-99618800D02*
X151736200Y-99618800D01*
D12*
X162922936Y-97350000D02*
X167277064Y-97350000D01*
X162922936Y-100770000D02*
X167277064Y-100770000D01*
X107590000Y-62772936D02*
X107590000Y-64227064D01*
X105770000Y-62772936D02*
X105770000Y-64227064D01*
X162922936Y-89730000D02*
X167277064Y-89730000D01*
X162922936Y-93150000D02*
X167277064Y-93150000D01*
D11*
X126510009Y-45339000D02*
X126510009Y-46101000D01*
X126891009Y-45720000D02*
X126129009Y-45720000D01*
X128153008Y-43443004D02*
X128153008Y-44137262D01*
X128153008Y-47302738D02*
X128153008Y-47996996D01*
X128153008Y-47996996D02*
X136006992Y-47996996D01*
X136006992Y-43443004D02*
X128153008Y-43443004D01*
X136006992Y-44137262D02*
X136006992Y-43443004D01*
X136006992Y-47996996D02*
X136006992Y-47302738D01*
X149580600Y-67945000D02*
X149580600Y-69215000D01*
X149580600Y-68580000D02*
X150342600Y-67945000D01*
X149580600Y-68580000D02*
X150342600Y-68072000D01*
X149580600Y-68580000D02*
X150342600Y-68199000D01*
X149580600Y-68580000D02*
X150342600Y-68326000D01*
X149580600Y-68580000D02*
X150342600Y-68453000D01*
X149580600Y-68580000D02*
X150342600Y-68707000D01*
X149580600Y-68580000D02*
X150342600Y-68834000D01*
X149580600Y-68580000D02*
X150342600Y-68961000D01*
X149580600Y-68580000D02*
X150342600Y-69088000D01*
X149580600Y-68580000D02*
X150342600Y-69215000D01*
X150342600Y-67945000D02*
X150342600Y-69215000D01*
X150596600Y-68580000D02*
X149326600Y-68580000D01*
X152158700Y-70561200D02*
X157721300Y-70561200D01*
X157721300Y-66598800D02*
X152158700Y-66598800D01*
X119243000Y-70983000D02*
X119243000Y-71452661D01*
X119243000Y-75867339D02*
X119243000Y-76337000D01*
X119243000Y-76337000D02*
X119712661Y-76337000D01*
X119712661Y-70983000D02*
X119243000Y-70983000D01*
X124127339Y-76337000D02*
X124597000Y-76337000D01*
X124597000Y-70983000D02*
X124127339Y-70983000D01*
X124597000Y-71452661D02*
X124597000Y-70983000D01*
X124597000Y-76337000D02*
X124597000Y-75867339D01*
G36*
X120860500Y-77022800D02*
G01*
X120479500Y-77022800D01*
X120479500Y-76768800D01*
X120860500Y-76768800D01*
X120860500Y-77022800D01*
G37*
G36*
X121360499Y-70551200D02*
G01*
X120979499Y-70551200D01*
X120979499Y-70297200D01*
X121360499Y-70297200D01*
X121360499Y-70551200D01*
G37*
G36*
X125282800Y-74100500D02*
G01*
X125028800Y-74100500D01*
X125028800Y-73719499D01*
X125282800Y-73719499D01*
X125282800Y-74100500D01*
G37*
D14*
X96620000Y-70790000D02*
G75*
G03*
X96620000Y-70790000I-100000J0D01*
G01*
D13*
X100520000Y-66040000D02*
G75*
G03*
X100520000Y-66040000I-4000000J0D01*
G01*
D12*
X154212936Y-75290000D02*
X155667064Y-75290000D01*
X154212936Y-77110000D02*
X155667064Y-77110000D01*
D13*
X161750000Y-50870000D02*
X163780000Y-50870000D01*
X166420000Y-50870000D02*
X168450000Y-50870000D01*
X168450000Y-50870000D02*
X170250000Y-49070000D01*
X159950000Y-49070000D02*
X161750000Y-50870000D01*
X170250000Y-49070000D02*
X170250000Y-40570000D01*
X159950000Y-40570000D02*
X159950000Y-49070000D01*
X163780000Y-40570000D02*
X159950000Y-40570000D01*
X170250000Y-40570000D02*
X166420000Y-40570000D01*
D14*
X163100000Y-52020000D02*
G75*
G03*
X163100000Y-52020000I-100000J0D01*
G01*
D12*
X178740000Y-106910000D02*
X181890000Y-106910000D01*
X181890000Y-106910000D02*
X184490000Y-104060000D01*
X176190000Y-104060000D02*
X178740000Y-106910000D01*
X184490000Y-104060000D02*
X184490000Y-91210000D01*
X176190000Y-91210000D02*
X176190000Y-104060000D01*
X184490000Y-91210000D02*
X176190000Y-91210000D01*
X122830000Y-60248748D02*
X122830000Y-61671252D01*
X121010000Y-60248748D02*
X121010000Y-61671252D01*
D11*
X140284200Y-88988900D02*
X140284200Y-88813640D01*
X140284200Y-87716360D02*
X140284200Y-87543640D01*
X140284200Y-86446360D02*
X140284200Y-86273640D01*
X140284200Y-85176360D02*
X140284200Y-85003640D01*
X140284200Y-83906360D02*
X140284200Y-83731100D01*
X140284200Y-83731100D02*
X134035800Y-83731100D01*
X134035800Y-88988900D02*
X140284200Y-88988900D01*
X134035800Y-88813640D02*
X134035800Y-88988900D01*
X134035800Y-87543640D02*
X134035800Y-87716360D01*
X134035800Y-86273640D02*
X134035800Y-86446360D01*
X134035800Y-85003640D02*
X134035800Y-85176360D01*
X134035800Y-83731100D02*
X134035800Y-83906360D01*
D12*
X104303005Y-77874903D02*
X104303005Y-76452399D01*
X106123005Y-77874903D02*
X106123005Y-76452399D01*
X151490000Y-87071252D02*
X151490000Y-85648748D01*
X153310000Y-87071252D02*
X153310000Y-85648748D01*
X92690000Y-100000000D02*
X92690000Y-103150000D01*
X92690000Y-103150000D02*
X95540000Y-105750000D01*
X95540000Y-97450000D02*
X92690000Y-100000000D01*
X95540000Y-105750000D02*
X108390000Y-105750000D01*
X108390000Y-97450000D02*
X95540000Y-97450000D01*
X108390000Y-105750000D02*
X108390000Y-97450000D01*
X98300897Y-77895280D02*
X98300897Y-76441152D01*
X100120897Y-77895280D02*
X100120897Y-76441152D01*
D11*
X140017500Y-63588900D02*
X140017500Y-63413640D01*
X140017500Y-62316360D02*
X140017500Y-62143640D01*
X140017500Y-61046360D02*
X140017500Y-60873640D01*
X140017500Y-59776360D02*
X140017500Y-59603640D01*
X140017500Y-58506360D02*
X140017500Y-58331100D01*
X140017500Y-58331100D02*
X133769100Y-58331100D01*
X133769100Y-63588900D02*
X140017500Y-63588900D01*
X133769100Y-63413640D02*
X133769100Y-63588900D01*
X133769100Y-62143640D02*
X133769100Y-62316360D01*
X133769100Y-60873640D02*
X133769100Y-61046360D01*
X133769100Y-59603640D02*
X133769100Y-59776360D01*
X133769100Y-58331100D02*
X133769100Y-58506360D01*
D12*
X125171252Y-84730000D02*
X123748748Y-84730000D01*
X125171252Y-82910000D02*
X123748748Y-82910000D01*
X154228748Y-57510000D02*
X155651252Y-57510000D01*
X154228748Y-59330000D02*
X155651252Y-59330000D01*
X107391252Y-92350000D02*
X105968748Y-92350000D01*
X107391252Y-90530000D02*
X105968748Y-90530000D01*
D11*
X113498000Y-61948000D02*
X113498000Y-65052000D01*
X115102000Y-65052000D02*
X115102000Y-61948000D01*
%LPC*%
D15*
X112445800Y-45720000D03*
X116154200Y-45720000D03*
D16*
X116840000Y-82357500D03*
X116840000Y-85282500D03*
D17*
X147320000Y-50070000D03*
X147320000Y-41370000D03*
D18*
X120520000Y-53340000D03*
X123320000Y-53340000D03*
D19*
X99253339Y-85351580D03*
X99253339Y-82401580D03*
D20*
X105326697Y-85185046D03*
X105326697Y-82260046D03*
D15*
X120065800Y-91440000D03*
X123774200Y-91440000D03*
D21*
X165798500Y-66045001D03*
X165798500Y-76194999D03*
D20*
X111044840Y-78641718D03*
X111044840Y-75716718D03*
D22*
X139966700Y-75565000D03*
X139966700Y-74295000D03*
X139966700Y-73025000D03*
X139966700Y-71755000D03*
D23*
X134264400Y-71755000D03*
X134264400Y-73025000D03*
X134264400Y-74295000D03*
D24*
X136614700Y-73660000D03*
D23*
X134264400Y-75565000D03*
D25*
X101600000Y-44245000D03*
X101600000Y-47195000D03*
D22*
X139966700Y-100965000D03*
X139966700Y-99695000D03*
X139966700Y-98425000D03*
X139966700Y-97155000D03*
D23*
X134264400Y-97155000D03*
X134264400Y-98425000D03*
X134264400Y-99695000D03*
D24*
X136614700Y-99060000D03*
D23*
X134264400Y-100965000D03*
D25*
X111131291Y-82167392D03*
X111131291Y-85117392D03*
D26*
X152148950Y-101600000D03*
X156886050Y-101600000D03*
D27*
X162137500Y-99060000D03*
X168062500Y-99060000D03*
D16*
X106680000Y-62037500D03*
X106680000Y-64962500D03*
D27*
X162137500Y-91440000D03*
X168062500Y-91440000D03*
D28*
X129407806Y-45720000D03*
X134752194Y-45720000D03*
D26*
X152571450Y-68580000D03*
X157308550Y-68580000D03*
D29*
X119467600Y-71910001D03*
X119467600Y-72410000D03*
X119467600Y-72909999D03*
X119467600Y-73410000D03*
X119467600Y-73910000D03*
X119467600Y-74410001D03*
X119467600Y-74910000D03*
X119467600Y-75409999D03*
D30*
X120170001Y-76112400D03*
X120670000Y-76112400D03*
X121169999Y-76112400D03*
X121670000Y-76112400D03*
X122170000Y-76112400D03*
X122670001Y-76112400D03*
X123170000Y-76112400D03*
X123669999Y-76112400D03*
D29*
X124372400Y-75409999D03*
X124372400Y-74910000D03*
X124372400Y-74410001D03*
X124372400Y-73910000D03*
X124372400Y-73410000D03*
X124372400Y-72909999D03*
X124372400Y-72410000D03*
X124372400Y-71910001D03*
D30*
X123669999Y-71207600D03*
X123170000Y-71207600D03*
X122670001Y-71207600D03*
X122170000Y-71207600D03*
X121670000Y-71207600D03*
X121169999Y-71207600D03*
X120670000Y-71207600D03*
X120170001Y-71207600D03*
D31*
X121920000Y-73660000D03*
D32*
X96520000Y-67790000D03*
D33*
X96520000Y-64290000D03*
D34*
X153477500Y-76200000D03*
X156402500Y-76200000D03*
D17*
X165100000Y-50070000D03*
X165100000Y-41370000D03*
D35*
X180340000Y-102660000D03*
D36*
X180340000Y-95460000D03*
D25*
X121920000Y-59485000D03*
X121920000Y-62435000D03*
D22*
X139966700Y-88265000D03*
X139966700Y-86995000D03*
X139966700Y-85725000D03*
X139966700Y-84455000D03*
D23*
X134264400Y-84455000D03*
X134264400Y-85725000D03*
X134264400Y-86995000D03*
D24*
X136614700Y-86360000D03*
D23*
X134264400Y-88265000D03*
D19*
X105213005Y-78638651D03*
X105213005Y-75688651D03*
X152400000Y-87835000D03*
X152400000Y-84885000D03*
D37*
X96940000Y-101600000D03*
D36*
X104140000Y-101600000D03*
D20*
X99210897Y-78630716D03*
X99210897Y-75705716D03*
D22*
X139700000Y-62865000D03*
X139700000Y-61595000D03*
X139700000Y-60325000D03*
X139700000Y-59055000D03*
D23*
X133997700Y-59055000D03*
X133997700Y-60325000D03*
X133997700Y-61595000D03*
D24*
X136348000Y-60960000D03*
D23*
X133997700Y-62865000D03*
D38*
X125935000Y-83820000D03*
X122985000Y-83820000D03*
D39*
X153465000Y-58420000D03*
X156415000Y-58420000D03*
D38*
X108155000Y-91440000D03*
X105205000Y-91440000D03*
D40*
X114300000Y-61775000D03*
X114300000Y-65225000D03*
%LPD*%
M02*
