%TF.GenerationSoftware,KiCad,Pcbnew,7.0.2*%
%TF.CreationDate,2023-06-26T22:07:46-07:00*%
%TF.ProjectId,19V 10A Standalone,31395620-3130-4412-9053-74616e64616c,rev?*%
%TF.SameCoordinates,Original*%
%TF.FileFunction,Copper,L1,Top*%
%TF.FilePolarity,Positive*%
%FSLAX46Y46*%
G04 Gerber Fmt 4.6, Leading zero omitted, Abs format (unit mm)*
G04 Created by KiCad (PCBNEW 7.0.2) date 2023-06-26 22:07:46*
%MOMM*%
%LPD*%
G01*
G04 APERTURE LIST*
G04 Aperture macros list*
%AMRoundRect*
0 Rectangle with rounded corners*
0 $1 Rounding radius*
0 $2 $3 $4 $5 $6 $7 $8 $9 X,Y pos of 4 corners*
0 Add a 4 corners polygon primitive as box body*
4,1,4,$2,$3,$4,$5,$6,$7,$8,$9,$2,$3,0*
0 Add four circle primitives for the rounded corners*
1,1,$1+$1,$2,$3*
1,1,$1+$1,$4,$5*
1,1,$1+$1,$6,$7*
1,1,$1+$1,$8,$9*
0 Add four rect primitives between the rounded corners*
20,1,$1+$1,$2,$3,$4,$5,0*
20,1,$1+$1,$4,$5,$6,$7,0*
20,1,$1+$1,$6,$7,$8,$9,0*
20,1,$1+$1,$8,$9,$2,$3,0*%
G04 Aperture macros list end*
%TA.AperFunction,SMDPad,CuDef*%
%ADD10R,2.184400X1.625600*%
%TD*%
%TA.AperFunction,SMDPad,CuDef*%
%ADD11RoundRect,0.250000X-0.625000X0.312500X-0.625000X-0.312500X0.625000X-0.312500X0.625000X0.312500X0*%
%TD*%
%TA.AperFunction,SMDPad,CuDef*%
%ADD12R,2.000000X4.100000*%
%TD*%
%TA.AperFunction,SMDPad,CuDef*%
%ADD13RoundRect,0.250000X-0.375000X-0.625000X0.375000X-0.625000X0.375000X0.625000X-0.375000X0.625000X0*%
%TD*%
%TA.AperFunction,SMDPad,CuDef*%
%ADD14RoundRect,0.250000X0.650000X-0.325000X0.650000X0.325000X-0.650000X0.325000X-0.650000X-0.325000X0*%
%TD*%
%TA.AperFunction,SMDPad,CuDef*%
%ADD15RoundRect,0.250000X0.625000X-0.312500X0.625000X0.312500X-0.625000X0.312500X-0.625000X-0.312500X0*%
%TD*%
%TA.AperFunction,SMDPad,CuDef*%
%ADD16R,4.521200X4.241800*%
%TD*%
%TA.AperFunction,SMDPad,CuDef*%
%ADD17R,1.143000X0.431800*%
%TD*%
%TA.AperFunction,SMDPad,CuDef*%
%ADD18R,0.965200X0.431800*%
%TD*%
%TA.AperFunction,SMDPad,CuDef*%
%ADD19R,4.700600X4.241800*%
%TD*%
%TA.AperFunction,SMDPad,CuDef*%
%ADD20RoundRect,0.250000X-0.650000X0.325000X-0.650000X-0.325000X0.650000X-0.325000X0.650000X0.325000X0*%
%TD*%
%TA.AperFunction,SMDPad,CuDef*%
%ADD21R,1.917700X2.997200*%
%TD*%
%TA.AperFunction,SMDPad,CuDef*%
%ADD22RoundRect,0.250000X-0.362500X-1.425000X0.362500X-1.425000X0.362500X1.425000X-0.362500X1.425000X0*%
%TD*%
%TA.AperFunction,SMDPad,CuDef*%
%ADD23R,2.560396X2.499995*%
%TD*%
%TA.AperFunction,SMDPad,CuDef*%
%ADD24R,0.804800X0.249200*%
%TD*%
%TA.AperFunction,SMDPad,CuDef*%
%ADD25R,0.249200X0.804800*%
%TD*%
%TA.AperFunction,SMDPad,CuDef*%
%ADD26R,3.550000X3.550000*%
%TD*%
%TA.AperFunction,ComponentPad*%
%ADD27R,1.200000X1.200000*%
%TD*%
%TA.AperFunction,ComponentPad*%
%ADD28C,1.200000*%
%TD*%
%TA.AperFunction,SMDPad,CuDef*%
%ADD29RoundRect,0.250000X-0.312500X-0.625000X0.312500X-0.625000X0.312500X0.625000X-0.312500X0.625000X0*%
%TD*%
%TA.AperFunction,ComponentPad*%
%ADD30RoundRect,1.500000X1.500000X-1.500000X1.500000X1.500000X-1.500000X1.500000X-1.500000X-1.500000X0*%
%TD*%
%TA.AperFunction,ComponentPad*%
%ADD31C,6.000000*%
%TD*%
%TA.AperFunction,ComponentPad*%
%ADD32RoundRect,1.500000X-1.500000X-1.500000X1.500000X-1.500000X1.500000X1.500000X-1.500000X1.500000X0*%
%TD*%
%TA.AperFunction,SMDPad,CuDef*%
%ADD33RoundRect,0.250000X0.325000X0.650000X-0.325000X0.650000X-0.325000X-0.650000X0.325000X-0.650000X0*%
%TD*%
%TA.AperFunction,SMDPad,CuDef*%
%ADD34RoundRect,0.250000X-0.325000X-0.650000X0.325000X-0.650000X0.325000X0.650000X-0.325000X0.650000X0*%
%TD*%
%TA.AperFunction,SMDPad,CuDef*%
%ADD35R,0.600800X1.111200*%
%TD*%
%TA.AperFunction,ViaPad*%
%ADD36C,0.800000*%
%TD*%
%TA.AperFunction,Conductor*%
%ADD37C,0.250000*%
%TD*%
%TA.AperFunction,Conductor*%
%ADD38C,0.200000*%
%TD*%
G04 APERTURE END LIST*
D10*
X112445800Y-45720000D03*
X116154200Y-45720000D03*
D11*
X116840000Y-82357500D03*
X116840000Y-85282500D03*
D12*
X147320000Y-50070000D03*
X147320000Y-41370000D03*
D13*
X120520000Y-53340000D03*
X123320000Y-53340000D03*
D14*
X99253339Y-85351580D03*
X99253339Y-82401580D03*
D15*
X105326697Y-85185046D03*
X105326697Y-82260046D03*
D10*
X120065800Y-91440000D03*
X123774200Y-91440000D03*
D16*
X165798500Y-66045001D03*
X165798500Y-76194999D03*
D15*
X111044840Y-78641718D03*
X111044840Y-75716718D03*
D17*
X139966700Y-75565000D03*
X139966700Y-74295000D03*
X139966700Y-73025000D03*
X139966700Y-71755000D03*
D18*
X134264400Y-71755000D03*
X134264400Y-73025000D03*
X134264400Y-74295000D03*
D19*
X136614700Y-73660000D03*
D18*
X134264400Y-75565000D03*
D20*
X101600000Y-44245000D03*
X101600000Y-47195000D03*
D17*
X139966700Y-100965000D03*
X139966700Y-99695000D03*
X139966700Y-98425000D03*
X139966700Y-97155000D03*
D18*
X134264400Y-97155000D03*
X134264400Y-98425000D03*
X134264400Y-99695000D03*
D19*
X136614700Y-99060000D03*
D18*
X134264400Y-100965000D03*
D20*
X111131291Y-82167392D03*
X111131291Y-85117392D03*
D21*
X152148950Y-101600000D03*
X156886050Y-101600000D03*
D22*
X162137500Y-99060000D03*
X168062500Y-99060000D03*
D11*
X106680000Y-62037500D03*
X106680000Y-64962500D03*
D22*
X162137500Y-91440000D03*
X168062500Y-91440000D03*
D23*
X129407806Y-45720000D03*
X134752194Y-45720000D03*
D21*
X152571450Y-68580000D03*
X157308550Y-68580000D03*
D24*
X119467600Y-71910001D03*
X119467600Y-72410000D03*
X119467600Y-72909999D03*
X119467600Y-73410000D03*
X119467600Y-73910000D03*
X119467600Y-74410001D03*
X119467600Y-74910000D03*
X119467600Y-75409999D03*
D25*
X120170001Y-76112400D03*
X120670000Y-76112400D03*
X121169999Y-76112400D03*
X121670000Y-76112400D03*
X122170000Y-76112400D03*
X122670001Y-76112400D03*
X123170000Y-76112400D03*
X123669999Y-76112400D03*
D24*
X124372400Y-75409999D03*
X124372400Y-74910000D03*
X124372400Y-74410001D03*
X124372400Y-73910000D03*
X124372400Y-73410000D03*
X124372400Y-72909999D03*
X124372400Y-72410000D03*
X124372400Y-71910001D03*
D25*
X123669999Y-71207600D03*
X123170000Y-71207600D03*
X122670001Y-71207600D03*
X122170000Y-71207600D03*
X121670000Y-71207600D03*
X121169999Y-71207600D03*
X120670000Y-71207600D03*
X120170001Y-71207600D03*
D26*
X121920000Y-73660000D03*
D27*
X96520000Y-67790000D03*
D28*
X96520000Y-64290000D03*
D29*
X153477500Y-76200000D03*
X156402500Y-76200000D03*
D12*
X165100000Y-50070000D03*
X165100000Y-41370000D03*
D30*
X180340000Y-102660000D03*
D31*
X180340000Y-95460000D03*
D20*
X121920000Y-59485000D03*
X121920000Y-62435000D03*
D17*
X139966700Y-88265000D03*
X139966700Y-86995000D03*
X139966700Y-85725000D03*
X139966700Y-84455000D03*
D18*
X134264400Y-84455000D03*
X134264400Y-85725000D03*
X134264400Y-86995000D03*
D19*
X136614700Y-86360000D03*
D18*
X134264400Y-88265000D03*
D14*
X105213005Y-78638651D03*
X105213005Y-75688651D03*
X152400000Y-87835000D03*
X152400000Y-84885000D03*
D32*
X96940000Y-101600000D03*
D31*
X104140000Y-101600000D03*
D15*
X99210897Y-78630716D03*
X99210897Y-75705716D03*
D17*
X139700000Y-62865000D03*
X139700000Y-61595000D03*
X139700000Y-60325000D03*
X139700000Y-59055000D03*
D18*
X133997700Y-59055000D03*
X133997700Y-60325000D03*
X133997700Y-61595000D03*
D19*
X136348000Y-60960000D03*
D18*
X133997700Y-62865000D03*
D33*
X125935000Y-83820000D03*
X122985000Y-83820000D03*
D34*
X153465000Y-58420000D03*
X156415000Y-58420000D03*
D33*
X108155000Y-91440000D03*
X105205000Y-91440000D03*
D35*
X114300000Y-61775000D03*
X114300000Y-65225000D03*
D36*
X123774200Y-91440000D03*
X129540000Y-45720000D03*
X129540000Y-62057085D03*
X119500000Y-80250000D03*
X116867155Y-74814087D03*
X137160000Y-50800000D03*
X119380000Y-76200000D03*
X145000000Y-70500000D03*
X138500000Y-80250000D03*
X128287980Y-70892579D03*
X139700000Y-43180000D03*
X153750000Y-73250000D03*
X139700000Y-50800000D03*
X160500000Y-67000000D03*
X132066422Y-74569692D03*
X123000000Y-81000000D03*
X134620000Y-53340000D03*
X131750000Y-85750000D03*
X109000000Y-72000000D03*
X144250000Y-59500000D03*
X129250000Y-80500000D03*
X139700000Y-48260000D03*
X124460000Y-66040000D03*
X112445800Y-45720000D03*
X134264400Y-71755000D03*
X127000000Y-68580000D03*
X172720000Y-91440000D03*
X172720000Y-53340000D03*
X152400000Y-87835000D03*
X127000000Y-71120000D03*
X106680000Y-62037500D03*
X118072275Y-64050123D03*
X118133054Y-77256236D03*
X139966700Y-75565000D03*
X111055842Y-78593300D03*
X139966700Y-85725000D03*
X139966700Y-97155000D03*
X123198384Y-78769339D03*
X139966700Y-71755000D03*
X129540000Y-73660000D03*
X139700000Y-59055000D03*
X124460000Y-68580000D03*
X121450561Y-69203126D03*
X123320000Y-53340000D03*
X154940000Y-81280000D03*
X116840000Y-82357500D03*
X134264400Y-84455000D03*
X165100000Y-66040000D03*
X139966700Y-98425000D03*
D37*
X120520000Y-53340000D02*
X128140000Y-45720000D01*
X127419700Y-73410000D02*
X124372400Y-73410000D01*
X128140000Y-45720000D02*
X129407806Y-45720000D01*
X120520000Y-49806400D02*
X120520000Y-53340000D01*
X129540000Y-62057085D02*
X129540000Y-71289700D01*
X116154200Y-45720000D02*
X116433600Y-45720000D01*
X116433600Y-45720000D02*
X120520000Y-49806400D01*
X129540000Y-71289700D02*
X127419700Y-73410000D01*
X119467600Y-75409999D02*
X119467600Y-76112400D01*
X128287980Y-70892579D02*
X126270560Y-72909999D01*
X126270560Y-72909999D02*
X124372400Y-72909999D01*
X137160000Y-45720000D02*
X139700000Y-43180000D01*
X131906731Y-74410001D02*
X132066422Y-74569692D01*
X119467600Y-73910000D02*
X117771242Y-73910000D01*
X119467600Y-74910000D02*
X119467600Y-75409999D01*
X119467600Y-76112400D02*
X119380000Y-76200000D01*
X134752194Y-45720000D02*
X137160000Y-45720000D01*
X117771242Y-73910000D02*
X116867155Y-74814087D01*
X124372400Y-74410001D02*
X131906731Y-74410001D01*
X118355000Y-84395000D02*
X121169999Y-81580001D01*
X108155000Y-91440000D02*
X115200000Y-84395000D01*
X115200000Y-84395000D02*
X118355000Y-84395000D01*
X121169999Y-81580001D02*
X121169999Y-76112400D01*
X122670001Y-71207600D02*
X122670001Y-67829999D01*
X122670001Y-67829999D02*
X124460000Y-66040000D01*
X112445800Y-45720000D02*
X103075000Y-45720000D01*
X103075000Y-45720000D02*
X101600000Y-44245000D01*
X134264400Y-71755000D02*
X134264400Y-68300600D01*
X154940000Y-76488173D02*
X152688173Y-78740000D01*
X136389200Y-66040000D02*
X134620000Y-66040000D01*
X112825000Y-58420000D02*
X101600000Y-47195000D01*
X154940000Y-72697150D02*
X154940000Y-76488173D01*
X127000000Y-68580000D02*
X124372400Y-71207600D01*
X124372400Y-71207600D02*
X124372400Y-71910001D01*
X132080000Y-63500000D02*
X132080000Y-62295800D01*
X157308550Y-70328600D02*
X154940000Y-72697150D01*
X134620000Y-66040000D02*
X132080000Y-63500000D01*
X137439400Y-78740000D02*
X134264400Y-75565000D01*
X134264400Y-68300600D02*
X139700000Y-62865000D01*
X139700000Y-62729200D02*
X136389200Y-66040000D01*
X158183501Y-68580000D02*
X157308550Y-68580000D01*
X139700000Y-60325000D02*
X139700000Y-62729200D01*
X165798500Y-76194999D02*
X158183501Y-68580000D01*
X132080000Y-62295800D02*
X128204200Y-58420000D01*
X157308550Y-68580000D02*
X157308550Y-70328600D01*
X128204200Y-58420000D02*
X112825000Y-58420000D01*
X152688173Y-78740000D02*
X137439400Y-78740000D01*
X122670001Y-76789399D02*
X121920000Y-77539400D01*
X118723600Y-88081400D02*
X122985000Y-83820000D01*
X118723600Y-90377200D02*
X118723600Y-88081400D01*
X120065800Y-91440000D02*
X119786400Y-91440000D01*
X121920000Y-77539400D02*
X121920000Y-82755000D01*
X121920000Y-82755000D02*
X122985000Y-83820000D01*
X119786400Y-91440000D02*
X118723600Y-90377200D01*
X122670001Y-76112400D02*
X122670001Y-76789399D01*
X169450000Y-50070000D02*
X172720000Y-53340000D01*
X147320000Y-52275000D02*
X153465000Y-58420000D01*
X152571450Y-75293950D02*
X153477500Y-76200000D01*
X152571450Y-59313550D02*
X152571450Y-68580000D01*
X165100000Y-50070000D02*
X169450000Y-50070000D01*
X153465000Y-58420000D02*
X152571450Y-59313550D01*
X133997700Y-59055000D02*
X133997700Y-59042300D01*
X137160000Y-55880000D02*
X141510000Y-55880000D01*
X172720000Y-95040000D02*
X172720000Y-91440000D01*
X141510000Y-55880000D02*
X147320000Y-50070000D01*
X147320000Y-50070000D02*
X147320000Y-52275000D01*
X161815000Y-50070000D02*
X165100000Y-50070000D01*
X180340000Y-102660000D02*
X172720000Y-95040000D01*
X152571450Y-68580000D02*
X152571450Y-75293950D01*
X153465000Y-58420000D02*
X161815000Y-50070000D01*
X133997700Y-59042300D02*
X137160000Y-55880000D01*
X152400000Y-87835000D02*
X143584400Y-87835000D01*
X93980000Y-70330000D02*
X96520000Y-67790000D01*
X124372400Y-72410000D02*
X125710000Y-72410000D01*
X93980000Y-98640000D02*
X93980000Y-70330000D01*
X100927500Y-67790000D02*
X106680000Y-62037500D01*
X143584400Y-87835000D02*
X134264400Y-97155000D01*
X96520000Y-67790000D02*
X100927500Y-67790000D01*
X125710000Y-72410000D02*
X127000000Y-71120000D01*
X96940000Y-101600000D02*
X93980000Y-98640000D01*
D38*
X99210897Y-78630716D02*
X105205070Y-78630716D01*
X106072438Y-77779218D02*
X110746468Y-77779218D01*
X105205070Y-78630716D02*
X105213005Y-78638651D01*
X116115686Y-72410000D02*
X119467600Y-72410000D01*
X105213005Y-78638651D02*
X106072438Y-77779218D01*
X110746468Y-77779218D02*
X116115686Y-72410000D01*
X111044840Y-75716718D02*
X112243282Y-75716718D01*
X116049999Y-71910001D02*
X119467600Y-71910001D01*
X112243282Y-75716718D02*
X116049999Y-71910001D01*
X111016773Y-75688651D02*
X111044840Y-75716718D01*
X105213005Y-75688651D02*
X111016773Y-75688651D01*
D37*
X121920000Y-62435000D02*
X120670000Y-63685000D01*
X120670000Y-63685000D02*
X120670000Y-71207600D01*
X99419873Y-85185046D02*
X105326697Y-85185046D01*
X99253339Y-85351580D02*
X99419873Y-85185046D01*
X111131291Y-82167392D02*
X112244840Y-81053843D01*
X116216727Y-72909999D02*
X119467600Y-72909999D01*
X112244840Y-81053843D02*
X112244840Y-76881886D01*
X105419351Y-82167392D02*
X111131291Y-82167392D01*
X105326697Y-82260046D02*
X105419351Y-82167392D01*
X112244840Y-76881886D02*
X116216727Y-72909999D01*
X119467600Y-74410001D02*
X118790599Y-74410001D01*
X118790599Y-74410001D02*
X118133054Y-75067546D01*
X109867500Y-61775000D02*
X114300000Y-61775000D01*
X106680000Y-64962500D02*
X109867500Y-61775000D01*
X115797152Y-61775000D02*
X118072275Y-64050123D01*
X118133054Y-75067546D02*
X118133054Y-77256236D01*
X114300000Y-61775000D02*
X115797152Y-61775000D01*
X154517500Y-83820000D02*
X162137500Y-91440000D01*
X139966700Y-73025000D02*
X139966700Y-74295000D01*
X139966700Y-86995000D02*
X139966700Y-88265000D01*
X139966700Y-85725000D02*
X141871700Y-83820000D01*
X162137500Y-91440000D02*
X162137500Y-99060000D01*
X141871700Y-83820000D02*
X154517500Y-83820000D01*
X159597500Y-101600000D02*
X156886050Y-101600000D01*
X162137500Y-99060000D02*
X159597500Y-101600000D01*
X139966700Y-74295000D02*
X139966700Y-75565000D01*
X139966700Y-85725000D02*
X139966700Y-86995000D01*
X123170000Y-76789401D02*
X123198384Y-76817785D01*
X123170000Y-76112400D02*
X123170000Y-76789401D01*
X123198384Y-76817785D02*
X123198384Y-78769339D01*
X139966700Y-84455000D02*
X130421700Y-74910000D01*
X130421700Y-74910000D02*
X124372400Y-74910000D01*
X129290000Y-73910000D02*
X124372400Y-73910000D01*
X129540000Y-73660000D02*
X129290000Y-73910000D01*
X123170000Y-71207600D02*
X123170000Y-69870000D01*
X123170000Y-69870000D02*
X124460000Y-68580000D01*
X121169999Y-71207600D02*
X121169999Y-69483688D01*
X121169999Y-69483688D02*
X121450561Y-69203126D01*
X156402500Y-76200000D02*
X156402500Y-79817500D01*
X116840000Y-82357500D02*
X114300000Y-79817500D01*
X114300000Y-79817500D02*
X114300000Y-75463122D01*
X114300000Y-75463122D02*
X116353122Y-73410000D01*
X116353122Y-73410000D02*
X119467600Y-73410000D01*
X156402500Y-79817500D02*
X154940000Y-81280000D01*
X134264400Y-84455000D02*
X126570000Y-84455000D01*
X125935000Y-83820000D02*
X124372400Y-82257400D01*
X126570000Y-84455000D02*
X125935000Y-83820000D01*
X152148950Y-101600000D02*
X140601700Y-101600000D01*
X139966700Y-98425000D02*
X139966700Y-99695000D01*
X139966700Y-99695000D02*
X139966700Y-100965000D01*
X124372400Y-82257400D02*
X124372400Y-75409999D01*
X140601700Y-101600000D02*
X139966700Y-100965000D01*
%TA.AperFunction,Conductor*%
G36*
X130178287Y-75555185D02*
G01*
X130198929Y-75571819D01*
X138154028Y-83526919D01*
X138187513Y-83588242D01*
X138182529Y-83657934D01*
X138140657Y-83713867D01*
X138075193Y-83738284D01*
X138066347Y-83738600D01*
X134850672Y-83738600D01*
X134783633Y-83718915D01*
X134777786Y-83714918D01*
X134776339Y-83713867D01*
X134717130Y-83670849D01*
X134717129Y-83670848D01*
X134717127Y-83670847D01*
X134544202Y-83593855D01*
X134359048Y-83554500D01*
X134359046Y-83554500D01*
X134169754Y-83554500D01*
X134169752Y-83554500D01*
X133984597Y-83593855D01*
X133811670Y-83670848D01*
X133742473Y-83721122D01*
X133682846Y-83744092D01*
X133674318Y-83745008D01*
X133539468Y-83795303D01*
X133539469Y-83795304D01*
X133526827Y-83804767D01*
X133461365Y-83829184D01*
X133452518Y-83829500D01*
X127134500Y-83829500D01*
X127067461Y-83809815D01*
X127021706Y-83757011D01*
X127010500Y-83705500D01*
X127010499Y-83123141D01*
X127010499Y-83119992D01*
X126999999Y-83017203D01*
X126944814Y-82850666D01*
X126867514Y-82725342D01*
X126852711Y-82701342D01*
X126728657Y-82577288D01*
X126579334Y-82485186D01*
X126412797Y-82430000D01*
X126313141Y-82419819D01*
X126313122Y-82419818D01*
X126310009Y-82419500D01*
X126306860Y-82419500D01*
X125563141Y-82419500D01*
X125563121Y-82419500D01*
X125559992Y-82419501D01*
X125556860Y-82419820D01*
X125556858Y-82419821D01*
X125490768Y-82426572D01*
X125422075Y-82413802D01*
X125390486Y-82390895D01*
X125034219Y-82034628D01*
X125000734Y-81973305D01*
X124997900Y-81946947D01*
X124997900Y-76054861D01*
X125017585Y-75987822D01*
X125047589Y-75955594D01*
X125132346Y-75892145D01*
X125218596Y-75776930D01*
X125268891Y-75642082D01*
X125268890Y-75642082D01*
X125274334Y-75627489D01*
X125275961Y-75628096D01*
X125295179Y-75581697D01*
X125352570Y-75541847D01*
X125391733Y-75535500D01*
X130111248Y-75535500D01*
X130178287Y-75555185D01*
G37*
%TD.AperFunction*%
%TA.AperFunction,Conductor*%
G36*
X122742386Y-79551116D02*
G01*
X122745655Y-79553491D01*
X122918581Y-79630483D01*
X123103736Y-79669839D01*
X123103738Y-79669839D01*
X123293032Y-79669839D01*
X123478184Y-79630484D01*
X123478185Y-79630483D01*
X123478187Y-79630483D01*
X123572466Y-79588506D01*
X123641713Y-79579221D01*
X123704990Y-79608849D01*
X123742204Y-79667984D01*
X123746900Y-79701786D01*
X123746900Y-82174656D01*
X123744635Y-82195166D01*
X123746839Y-82265272D01*
X123746900Y-82269167D01*
X123746900Y-82296750D01*
X123747388Y-82300619D01*
X123747389Y-82300625D01*
X123747404Y-82300743D01*
X123748318Y-82312369D01*
X123749482Y-82349404D01*
X123731913Y-82417028D01*
X123680572Y-82464420D01*
X123611760Y-82476531D01*
X123586539Y-82471005D01*
X123462797Y-82430000D01*
X123363141Y-82419819D01*
X123363122Y-82419818D01*
X123360009Y-82419500D01*
X123356860Y-82419500D01*
X122669499Y-82419500D01*
X122602460Y-82399815D01*
X122556705Y-82347011D01*
X122545499Y-82295504D01*
X122545499Y-79651432D01*
X122565184Y-79584394D01*
X122617988Y-79538639D01*
X122687146Y-79528695D01*
X122742386Y-79551116D01*
G37*
%TD.AperFunction*%
%TA.AperFunction,Conductor*%
G36*
X145922895Y-52454207D02*
G01*
X145953871Y-52471122D01*
X146077666Y-52563794D01*
X146077669Y-52563796D01*
X146212517Y-52614091D01*
X146272127Y-52620500D01*
X146729546Y-52620499D01*
X146796585Y-52640183D01*
X146817225Y-52656815D01*
X146821829Y-52661419D01*
X146821830Y-52661420D01*
X146835994Y-52675584D01*
X146848627Y-52690375D01*
X146860406Y-52706587D01*
X146886633Y-52728284D01*
X146894058Y-52734426D01*
X146902698Y-52742288D01*
X152353182Y-58192773D01*
X152386666Y-58254094D01*
X152389500Y-58280452D01*
X152389500Y-58559546D01*
X152369815Y-58626585D01*
X152353185Y-58647222D01*
X152268793Y-58731615D01*
X152187658Y-58812750D01*
X152171559Y-58825647D01*
X152123546Y-58876775D01*
X152120842Y-58879566D01*
X152104078Y-58896330D01*
X152104071Y-58896337D01*
X152101330Y-58899079D01*
X152098949Y-58902147D01*
X152098940Y-58902158D01*
X152098861Y-58902261D01*
X152091292Y-58911122D01*
X152061385Y-58942970D01*
X152051735Y-58960524D01*
X152041059Y-58976778D01*
X152028776Y-58992613D01*
X152011425Y-59032708D01*
X152006288Y-59043194D01*
X151985252Y-59081457D01*
X151980271Y-59100859D01*
X151973970Y-59119261D01*
X151966011Y-59137652D01*
X151959178Y-59180792D01*
X151956810Y-59192224D01*
X151945950Y-59234527D01*
X151945950Y-59254566D01*
X151944422Y-59273964D01*
X151941290Y-59293746D01*
X151943967Y-59322066D01*
X151945400Y-59337223D01*
X151945950Y-59348893D01*
X151945950Y-66456900D01*
X151926265Y-66523939D01*
X151873461Y-66569694D01*
X151821950Y-66580900D01*
X151568039Y-66580900D01*
X151568020Y-66580900D01*
X151564728Y-66580901D01*
X151561448Y-66581253D01*
X151561440Y-66581254D01*
X151505115Y-66587309D01*
X151370269Y-66637604D01*
X151255054Y-66723854D01*
X151168804Y-66839068D01*
X151118510Y-66973915D01*
X151118509Y-66973917D01*
X151112100Y-67033527D01*
X151112100Y-67036848D01*
X151112100Y-67036849D01*
X151112100Y-70123160D01*
X151112100Y-70123178D01*
X151112101Y-70126472D01*
X151112453Y-70129752D01*
X151112454Y-70129759D01*
X151118509Y-70186084D01*
X151126935Y-70208674D01*
X151168804Y-70320931D01*
X151255054Y-70436146D01*
X151370269Y-70522396D01*
X151505117Y-70572691D01*
X151564727Y-70579100D01*
X151821951Y-70579099D01*
X151888989Y-70598783D01*
X151934744Y-70651587D01*
X151945950Y-70703099D01*
X151945950Y-75211206D01*
X151943685Y-75231716D01*
X151945889Y-75301822D01*
X151945950Y-75305717D01*
X151945950Y-75333300D01*
X151946438Y-75337169D01*
X151946439Y-75337175D01*
X151946454Y-75337293D01*
X151947368Y-75348917D01*
X151948740Y-75392576D01*
X151954329Y-75411810D01*
X151958275Y-75430866D01*
X151960785Y-75450742D01*
X151976864Y-75491354D01*
X151980647Y-75502401D01*
X151992832Y-75544341D01*
X152003030Y-75561585D01*
X152011586Y-75579050D01*
X152018964Y-75597682D01*
X152018965Y-75597683D01*
X152044630Y-75633009D01*
X152051043Y-75642772D01*
X152073276Y-75680366D01*
X152073279Y-75680369D01*
X152073280Y-75680370D01*
X152087445Y-75694535D01*
X152100077Y-75709325D01*
X152111856Y-75725537D01*
X152145508Y-75753376D01*
X152154149Y-75761239D01*
X152378181Y-75985271D01*
X152411666Y-76046594D01*
X152414500Y-76072952D01*
X152414500Y-76871858D01*
X152414500Y-76871877D01*
X152414501Y-76875008D01*
X152414820Y-76878140D01*
X152414821Y-76878141D01*
X152425000Y-76977796D01*
X152480186Y-77144334D01*
X152572288Y-77293657D01*
X152696342Y-77417711D01*
X152828531Y-77499245D01*
X152875256Y-77551193D01*
X152886479Y-77620155D01*
X152858636Y-77684237D01*
X152851116Y-77692465D01*
X152465401Y-78078181D01*
X152404078Y-78111666D01*
X152377720Y-78114500D01*
X137749852Y-78114500D01*
X137682813Y-78094815D01*
X137662171Y-78078181D01*
X136077071Y-76493080D01*
X136043586Y-76431757D01*
X136048570Y-76362065D01*
X136090442Y-76306132D01*
X136155906Y-76281715D01*
X136164752Y-76281399D01*
X139009561Y-76281399D01*
X139012872Y-76281399D01*
X139072483Y-76274991D01*
X139136765Y-76251014D01*
X139206456Y-76246030D01*
X139223428Y-76251012D01*
X139287717Y-76274991D01*
X139347327Y-76281400D01*
X139380425Y-76281399D01*
X139447464Y-76301082D01*
X139453301Y-76305072D01*
X139513970Y-76349151D01*
X139513971Y-76349151D01*
X139513972Y-76349152D01*
X139686897Y-76426144D01*
X139872052Y-76465500D01*
X139872054Y-76465500D01*
X140061348Y-76465500D01*
X140184783Y-76439262D01*
X140246503Y-76426144D01*
X140419430Y-76349151D01*
X140480087Y-76305080D01*
X140545893Y-76281601D01*
X140552972Y-76281399D01*
X140582761Y-76281399D01*
X140586072Y-76281399D01*
X140645683Y-76274991D01*
X140780531Y-76224696D01*
X140895746Y-76138446D01*
X140981996Y-76023231D01*
X141032291Y-75888383D01*
X141038700Y-75828773D01*
X141038699Y-75301228D01*
X141032291Y-75241617D01*
X140981996Y-75106769D01*
X140905294Y-75004308D01*
X140880878Y-74938847D01*
X140895729Y-74870574D01*
X140905289Y-74855697D01*
X140981996Y-74753231D01*
X141032291Y-74618383D01*
X141038700Y-74558773D01*
X141038699Y-74031228D01*
X141032291Y-73971617D01*
X140981996Y-73836769D01*
X140905294Y-73734309D01*
X140880878Y-73668845D01*
X140895730Y-73600572D01*
X140905287Y-73585700D01*
X140981996Y-73483231D01*
X141032291Y-73348383D01*
X141038700Y-73288773D01*
X141038699Y-72761228D01*
X141032291Y-72701617D01*
X140981996Y-72566769D01*
X140905294Y-72464309D01*
X140880878Y-72398845D01*
X140895730Y-72330572D01*
X140905287Y-72315700D01*
X140981996Y-72213231D01*
X141032291Y-72078383D01*
X141038700Y-72018773D01*
X141038699Y-71491228D01*
X141032291Y-71431617D01*
X140981996Y-71296769D01*
X140895746Y-71181554D01*
X140780531Y-71095304D01*
X140645683Y-71045009D01*
X140645683Y-71045008D01*
X140589366Y-71038954D01*
X140589365Y-71038953D01*
X140586073Y-71038600D01*
X140582751Y-71038600D01*
X140552971Y-71038600D01*
X140485932Y-71018915D01*
X140480086Y-71014918D01*
X140419430Y-70970849D01*
X140246502Y-70893855D01*
X140061348Y-70854500D01*
X140061346Y-70854500D01*
X139872054Y-70854500D01*
X139872052Y-70854500D01*
X139686897Y-70893855D01*
X139513970Y-70970848D01*
X139453310Y-71014919D01*
X139387503Y-71038398D01*
X139380430Y-71038600D01*
X139350640Y-71038600D01*
X139350622Y-71038600D01*
X139347328Y-71038601D01*
X139344049Y-71038953D01*
X139344039Y-71038954D01*
X139287714Y-71045009D01*
X139223432Y-71068985D01*
X139153741Y-71073969D01*
X139136767Y-71068985D01*
X139072484Y-71045009D01*
X139016166Y-71038954D01*
X139016165Y-71038953D01*
X139012873Y-71038600D01*
X139009551Y-71038600D01*
X135013900Y-71038600D01*
X134946861Y-71018915D01*
X134901106Y-70966111D01*
X134889900Y-70914600D01*
X134889900Y-68611051D01*
X134909585Y-68544012D01*
X134926214Y-68523375D01*
X139831871Y-63617718D01*
X139893195Y-63584233D01*
X139919553Y-63581399D01*
X140316061Y-63581399D01*
X140319372Y-63581399D01*
X140378983Y-63574991D01*
X140513831Y-63524696D01*
X140629046Y-63438446D01*
X140715296Y-63323231D01*
X140765591Y-63188383D01*
X140772000Y-63128773D01*
X140771999Y-62601228D01*
X140765591Y-62541617D01*
X140715296Y-62406769D01*
X140638594Y-62304309D01*
X140614178Y-62238845D01*
X140629030Y-62170572D01*
X140638587Y-62155700D01*
X140715296Y-62053231D01*
X140765591Y-61918383D01*
X140772000Y-61858773D01*
X140771999Y-61331228D01*
X140765591Y-61271617D01*
X140715296Y-61136769D01*
X140638594Y-61034309D01*
X140614178Y-60968845D01*
X140629030Y-60900572D01*
X140638587Y-60885700D01*
X140715296Y-60783231D01*
X140765591Y-60648383D01*
X140772000Y-60588773D01*
X140771999Y-60061228D01*
X140765591Y-60001617D01*
X140715296Y-59866769D01*
X140638594Y-59764309D01*
X140614178Y-59698845D01*
X140629030Y-59630572D01*
X140638587Y-59615700D01*
X140715296Y-59513231D01*
X140765591Y-59378383D01*
X140772000Y-59318773D01*
X140771999Y-58791228D01*
X140765591Y-58731617D01*
X140715296Y-58596769D01*
X140629046Y-58481554D01*
X140513831Y-58395304D01*
X140378983Y-58345009D01*
X140319373Y-58338600D01*
X140316051Y-58338600D01*
X140286271Y-58338600D01*
X140219232Y-58318915D01*
X140213386Y-58314918D01*
X140152730Y-58270849D01*
X139979802Y-58193855D01*
X139794648Y-58154500D01*
X139794646Y-58154500D01*
X139605354Y-58154500D01*
X139605352Y-58154500D01*
X139420197Y-58193855D01*
X139247270Y-58270848D01*
X139186610Y-58314919D01*
X139120803Y-58338398D01*
X139113730Y-58338600D01*
X139083940Y-58338600D01*
X139083922Y-58338600D01*
X139080628Y-58338601D01*
X139077349Y-58338953D01*
X139077339Y-58338954D01*
X139021014Y-58345009D01*
X138956732Y-58368985D01*
X138887041Y-58373969D01*
X138870067Y-58368985D01*
X138805784Y-58345009D01*
X138749466Y-58338954D01*
X138749465Y-58338953D01*
X138746173Y-58338600D01*
X138742851Y-58338600D01*
X135885351Y-58338600D01*
X135818312Y-58318915D01*
X135772557Y-58266111D01*
X135762613Y-58196953D01*
X135791638Y-58133397D01*
X135797670Y-58126919D01*
X137382771Y-56541819D01*
X137444094Y-56508334D01*
X137470452Y-56505500D01*
X141427256Y-56505500D01*
X141447762Y-56507764D01*
X141450665Y-56507672D01*
X141450667Y-56507673D01*
X141517872Y-56505561D01*
X141521768Y-56505500D01*
X141545448Y-56505500D01*
X141549350Y-56505500D01*
X141553313Y-56504999D01*
X141564962Y-56504080D01*
X141608627Y-56502709D01*
X141627859Y-56497120D01*
X141646918Y-56493174D01*
X141653196Y-56492381D01*
X141666792Y-56490664D01*
X141707407Y-56474582D01*
X141718444Y-56470803D01*
X141760390Y-56458618D01*
X141777629Y-56448422D01*
X141795102Y-56439862D01*
X141813732Y-56432486D01*
X141849064Y-56406814D01*
X141858830Y-56400400D01*
X141896418Y-56378171D01*
X141896417Y-56378171D01*
X141896420Y-56378170D01*
X141910585Y-56364004D01*
X141925373Y-56351373D01*
X141941587Y-56339594D01*
X141969438Y-56305926D01*
X141977279Y-56297309D01*
X145791882Y-52482706D01*
X145853203Y-52449223D01*
X145922895Y-52454207D01*
G37*
%TD.AperFunction*%
%TA.AperFunction,Conductor*%
G36*
X155957638Y-70403085D02*
G01*
X155989867Y-70433091D01*
X155992153Y-70436145D01*
X156063033Y-70489206D01*
X156104904Y-70545140D01*
X156109888Y-70614832D01*
X156076403Y-70676154D01*
X154556208Y-72196349D01*
X154540110Y-72209246D01*
X154492096Y-72260375D01*
X154489392Y-72263166D01*
X154472628Y-72279930D01*
X154472621Y-72279937D01*
X154469880Y-72282679D01*
X154467499Y-72285747D01*
X154467490Y-72285758D01*
X154467411Y-72285861D01*
X154459842Y-72294722D01*
X154429935Y-72326570D01*
X154420285Y-72344124D01*
X154409609Y-72360378D01*
X154397326Y-72376213D01*
X154379975Y-72416308D01*
X154374838Y-72426794D01*
X154353802Y-72465057D01*
X154348821Y-72484459D01*
X154342520Y-72502861D01*
X154334561Y-72521252D01*
X154327728Y-72564392D01*
X154325360Y-72575824D01*
X154314500Y-72618127D01*
X154314500Y-72638166D01*
X154312973Y-72657564D01*
X154309840Y-72677344D01*
X154313950Y-72720823D01*
X154314500Y-72732493D01*
X154314500Y-74794559D01*
X154294815Y-74861598D01*
X154242011Y-74907353D01*
X154172853Y-74917297D01*
X154125404Y-74900098D01*
X154109334Y-74890186D01*
X153942797Y-74835000D01*
X153843141Y-74824819D01*
X153843122Y-74824818D01*
X153840009Y-74824500D01*
X153836860Y-74824500D01*
X153320950Y-74824500D01*
X153253911Y-74804815D01*
X153208156Y-74752011D01*
X153196950Y-74700500D01*
X153196950Y-70703099D01*
X153216635Y-70636060D01*
X153269439Y-70590305D01*
X153320950Y-70579099D01*
X153574861Y-70579099D01*
X153578172Y-70579099D01*
X153637783Y-70572691D01*
X153772631Y-70522396D01*
X153887846Y-70436146D01*
X153890132Y-70433091D01*
X153946066Y-70391219D01*
X153989401Y-70383400D01*
X155890599Y-70383400D01*
X155957638Y-70403085D01*
G37*
%TD.AperFunction*%
%TA.AperFunction,Conductor*%
G36*
X192982539Y-35580185D02*
G01*
X193028294Y-35632989D01*
X193039500Y-35684500D01*
X193039500Y-109095500D01*
X193019815Y-109162539D01*
X192967011Y-109208294D01*
X192915500Y-109219500D01*
X89024500Y-109219500D01*
X88957461Y-109199815D01*
X88911706Y-109147011D01*
X88900500Y-109095500D01*
X88900500Y-70310194D01*
X93349840Y-70310194D01*
X93353950Y-70353673D01*
X93354500Y-70365343D01*
X93354500Y-98557256D01*
X93352235Y-98577766D01*
X93354439Y-98647872D01*
X93354500Y-98651767D01*
X93354500Y-98679350D01*
X93354988Y-98683219D01*
X93354989Y-98683225D01*
X93355004Y-98683343D01*
X93355918Y-98694967D01*
X93357290Y-98738626D01*
X93362879Y-98757860D01*
X93366825Y-98776916D01*
X93369335Y-98796792D01*
X93385414Y-98837404D01*
X93389197Y-98848451D01*
X93401382Y-98890391D01*
X93411580Y-98907635D01*
X93420136Y-98925100D01*
X93427514Y-98943732D01*
X93427515Y-98943733D01*
X93453180Y-98979059D01*
X93459593Y-98988822D01*
X93481826Y-99026416D01*
X93481829Y-99026419D01*
X93481830Y-99026420D01*
X93495995Y-99040585D01*
X93508627Y-99055375D01*
X93520406Y-99071587D01*
X93554058Y-99099426D01*
X93562699Y-99107289D01*
X93588246Y-99132836D01*
X93621731Y-99194159D01*
X93616747Y-99263850D01*
X93515630Y-99534955D01*
X93454804Y-99814570D01*
X93444255Y-99962066D01*
X93439500Y-100028552D01*
X93439500Y-103171448D01*
X93439657Y-103173656D01*
X93439658Y-103173658D01*
X93454804Y-103385429D01*
X93515629Y-103665041D01*
X93615634Y-103933163D01*
X93752772Y-104184313D01*
X93838517Y-104298855D01*
X93924261Y-104413395D01*
X94126605Y-104615739D01*
X94272622Y-104725046D01*
X94355686Y-104787227D01*
X94495435Y-104863535D01*
X94606839Y-104924367D01*
X94874954Y-105024369D01*
X94874957Y-105024369D01*
X94874958Y-105024370D01*
X94927217Y-105035738D01*
X95154572Y-105085196D01*
X95368552Y-105100500D01*
X95370767Y-105100500D01*
X98509233Y-105100500D01*
X98511448Y-105100500D01*
X98725428Y-105085196D01*
X99005046Y-105024369D01*
X99273161Y-104924367D01*
X99524315Y-104787226D01*
X99753395Y-104615739D01*
X99955739Y-104413395D01*
X100127226Y-104184315D01*
X100264367Y-103933161D01*
X100364369Y-103665046D01*
X100425196Y-103385428D01*
X100440500Y-103171448D01*
X100440500Y-100028552D01*
X100425196Y-99814572D01*
X100364369Y-99534954D01*
X100264367Y-99266839D01*
X100151424Y-99060000D01*
X100127227Y-99015686D01*
X100028072Y-98883231D01*
X99955739Y-98786605D01*
X99753395Y-98584261D01*
X99638854Y-98498517D01*
X99524313Y-98412772D01*
X99273163Y-98275634D01*
X99273162Y-98275633D01*
X99273161Y-98275633D01*
X99098123Y-98210347D01*
X99005041Y-98175629D01*
X98725429Y-98114804D01*
X98513658Y-98099658D01*
X98513656Y-98099657D01*
X98511448Y-98099500D01*
X95368552Y-98099500D01*
X95366344Y-98099657D01*
X95366341Y-98099658D01*
X95154570Y-98114804D01*
X94874955Y-98175630D01*
X94772833Y-98213720D01*
X94703142Y-98218704D01*
X94641819Y-98185219D01*
X94608334Y-98123896D01*
X94605500Y-98097538D01*
X94605500Y-85723457D01*
X97852839Y-85723457D01*
X97852840Y-85726588D01*
X97853159Y-85729720D01*
X97853160Y-85729721D01*
X97863339Y-85829376D01*
X97918525Y-85995914D01*
X98010627Y-86145237D01*
X98134681Y-86269291D01*
X98134683Y-86269292D01*
X98284005Y-86361394D01*
X98395356Y-86398292D01*
X98450541Y-86416579D01*
X98550197Y-86426760D01*
X98550198Y-86426760D01*
X98553330Y-86427080D01*
X99953347Y-86427079D01*
X100056136Y-86416579D01*
X100222673Y-86361394D01*
X100371995Y-86269292D01*
X100496051Y-86145236D01*
X100588153Y-85995914D01*
X100621413Y-85895541D01*
X100661186Y-85838097D01*
X100725702Y-85811274D01*
X100739119Y-85810546D01*
X103943769Y-85810546D01*
X104010808Y-85830231D01*
X104049308Y-85869450D01*
X104108985Y-85966203D01*
X104233039Y-86090257D01*
X104233041Y-86090258D01*
X104382363Y-86182360D01*
X104493713Y-86219258D01*
X104548899Y-86237545D01*
X104648555Y-86247726D01*
X104648556Y-86247726D01*
X104651688Y-86248046D01*
X106001705Y-86248045D01*
X106104494Y-86237545D01*
X106271031Y-86182360D01*
X106420353Y-86090258D01*
X106544409Y-85966202D01*
X106636511Y-85816880D01*
X106691696Y-85650343D01*
X106702197Y-85547555D01*
X106702196Y-84822538D01*
X106691696Y-84719749D01*
X106636511Y-84553212D01*
X106570074Y-84445500D01*
X106544408Y-84403888D01*
X106420354Y-84279834D01*
X106271031Y-84187732D01*
X106104494Y-84132546D01*
X106004838Y-84122365D01*
X106004819Y-84122364D01*
X106001706Y-84122046D01*
X105998557Y-84122046D01*
X104654837Y-84122046D01*
X104654817Y-84122046D01*
X104651689Y-84122047D01*
X104648557Y-84122366D01*
X104648555Y-84122367D01*
X104548900Y-84132546D01*
X104382362Y-84187732D01*
X104233039Y-84279834D01*
X104108985Y-84403888D01*
X104049308Y-84500642D01*
X103997360Y-84547367D01*
X103943769Y-84559546D01*
X100549036Y-84559546D01*
X100481997Y-84539861D01*
X100461355Y-84523227D01*
X100371996Y-84433868D01*
X100222673Y-84341766D01*
X100056136Y-84286580D01*
X99956480Y-84276399D01*
X99956461Y-84276398D01*
X99953348Y-84276080D01*
X99950199Y-84276080D01*
X98556479Y-84276080D01*
X98556459Y-84276080D01*
X98553331Y-84276081D01*
X98550199Y-84276400D01*
X98550197Y-84276401D01*
X98450542Y-84286580D01*
X98284004Y-84341766D01*
X98134681Y-84433868D01*
X98010627Y-84557922D01*
X97918525Y-84707245D01*
X97863339Y-84873782D01*
X97853158Y-84973438D01*
X97853156Y-84973458D01*
X97852839Y-84976571D01*
X97852839Y-84979718D01*
X97852839Y-84979719D01*
X97852839Y-85723438D01*
X97852839Y-85723457D01*
X94605500Y-85723457D01*
X94605500Y-78990093D01*
X97835397Y-78990093D01*
X97835398Y-78993224D01*
X97835717Y-78996356D01*
X97835718Y-78996357D01*
X97845897Y-79096012D01*
X97901083Y-79262550D01*
X97993185Y-79411873D01*
X98117239Y-79535927D01*
X98153687Y-79558408D01*
X98266563Y-79628030D01*
X98377914Y-79664928D01*
X98433099Y-79683215D01*
X98532755Y-79693396D01*
X98532756Y-79693396D01*
X98535888Y-79693716D01*
X99885905Y-79693715D01*
X99988694Y-79683215D01*
X100155231Y-79628030D01*
X100304553Y-79535928D01*
X100428609Y-79411872D01*
X100497697Y-79299862D01*
X100503706Y-79290120D01*
X100555654Y-79243395D01*
X100609245Y-79231216D01*
X103777052Y-79231216D01*
X103844091Y-79250901D01*
X103882591Y-79290119D01*
X103970294Y-79432309D01*
X104094347Y-79556362D01*
X104094349Y-79556363D01*
X104243671Y-79648465D01*
X104348539Y-79683215D01*
X104410207Y-79703650D01*
X104509863Y-79713831D01*
X104509864Y-79713831D01*
X104512996Y-79714151D01*
X105913013Y-79714150D01*
X106015802Y-79703650D01*
X106182339Y-79648465D01*
X106331661Y-79556363D01*
X106455717Y-79432307D01*
X106547819Y-79282985D01*
X106603004Y-79116448D01*
X106613505Y-79013660D01*
X106613504Y-78503717D01*
X106633188Y-78436679D01*
X106685992Y-78390924D01*
X106737504Y-78379718D01*
X109545340Y-78379718D01*
X109612379Y-78399403D01*
X109658134Y-78452207D01*
X109669340Y-78503718D01*
X109669340Y-79001076D01*
X109669340Y-79001095D01*
X109669341Y-79004226D01*
X109669660Y-79007358D01*
X109669661Y-79007359D01*
X109679840Y-79107014D01*
X109735026Y-79273552D01*
X109827128Y-79422875D01*
X109951182Y-79546929D01*
X110003536Y-79579221D01*
X110100506Y-79639032D01*
X110211856Y-79675930D01*
X110267042Y-79694217D01*
X110366698Y-79704398D01*
X110366699Y-79704398D01*
X110369831Y-79704718D01*
X111495340Y-79704717D01*
X111562379Y-79724402D01*
X111608134Y-79777205D01*
X111619340Y-79828717D01*
X111619340Y-80743390D01*
X111599655Y-80810429D01*
X111583021Y-80831071D01*
X111358518Y-81055573D01*
X111297195Y-81089058D01*
X111270837Y-81091892D01*
X110434432Y-81091892D01*
X110434412Y-81091892D01*
X110431283Y-81091893D01*
X110428151Y-81092212D01*
X110428149Y-81092213D01*
X110328494Y-81102392D01*
X110161956Y-81157578D01*
X110012633Y-81249680D01*
X109888579Y-81373734D01*
X109821192Y-81482988D01*
X109769244Y-81529713D01*
X109715653Y-81541892D01*
X106652476Y-81541892D01*
X106585437Y-81522207D01*
X106546937Y-81482988D01*
X106544408Y-81478888D01*
X106420354Y-81354834D01*
X106271031Y-81262732D01*
X106104494Y-81207546D01*
X106004838Y-81197365D01*
X106004819Y-81197364D01*
X106001706Y-81197046D01*
X105998557Y-81197046D01*
X104654837Y-81197046D01*
X104654817Y-81197046D01*
X104651689Y-81197047D01*
X104648557Y-81197366D01*
X104648555Y-81197367D01*
X104548900Y-81207546D01*
X104382362Y-81262732D01*
X104233039Y-81354834D01*
X104108985Y-81478888D01*
X104016883Y-81628211D01*
X103961697Y-81794748D01*
X103951516Y-81894404D01*
X103951514Y-81894424D01*
X103951197Y-81897537D01*
X103951197Y-81900684D01*
X103951197Y-81900685D01*
X103951197Y-82619404D01*
X103951197Y-82619423D01*
X103951198Y-82622554D01*
X103951517Y-82625686D01*
X103951518Y-82625687D01*
X103961697Y-82725342D01*
X104016883Y-82891880D01*
X104108985Y-83041203D01*
X104233039Y-83165257D01*
X104233041Y-83165258D01*
X104382363Y-83257360D01*
X104493713Y-83294258D01*
X104548899Y-83312545D01*
X104648555Y-83322726D01*
X104648556Y-83322726D01*
X104651688Y-83323046D01*
X106001705Y-83323045D01*
X106104494Y-83312545D01*
X106271031Y-83257360D01*
X106420353Y-83165258D01*
X106544409Y-83041202D01*
X106636511Y-82891880D01*
X106641147Y-82877888D01*
X106680919Y-82820443D01*
X106745435Y-82793620D01*
X106758853Y-82792892D01*
X109715653Y-82792892D01*
X109782692Y-82812577D01*
X109821192Y-82851796D01*
X109888579Y-82961049D01*
X110012633Y-83085103D01*
X110012635Y-83085104D01*
X110161957Y-83177206D01*
X110251308Y-83206814D01*
X110328493Y-83232391D01*
X110428149Y-83242572D01*
X110428150Y-83242572D01*
X110431282Y-83242892D01*
X111831299Y-83242891D01*
X111934088Y-83232391D01*
X112100625Y-83177206D01*
X112249947Y-83085104D01*
X112374003Y-82961048D01*
X112466105Y-82811726D01*
X112521290Y-82645189D01*
X112531791Y-82542401D01*
X112531790Y-81792384D01*
X112524718Y-81723157D01*
X112537487Y-81654467D01*
X112560392Y-81622880D01*
X112628629Y-81554643D01*
X112644725Y-81541749D01*
X112646713Y-81539630D01*
X112646717Y-81539629D01*
X112692789Y-81490566D01*
X112695374Y-81487898D01*
X112714960Y-81468314D01*
X112717425Y-81465135D01*
X112725007Y-81456259D01*
X112728736Y-81452288D01*
X112754902Y-81424425D01*
X112764557Y-81406861D01*
X112775234Y-81390607D01*
X112787513Y-81374779D01*
X112804858Y-81334695D01*
X112810000Y-81324199D01*
X112831037Y-81285935D01*
X112836019Y-81266527D01*
X112842321Y-81248123D01*
X112850277Y-81229739D01*
X112857109Y-81186595D01*
X112859473Y-81175181D01*
X112870340Y-81132862D01*
X112870340Y-81112825D01*
X112871867Y-81093427D01*
X112872110Y-81091892D01*
X112875000Y-81073647D01*
X112870890Y-81030167D01*
X112870340Y-81018498D01*
X112870340Y-77192338D01*
X112890025Y-77125299D01*
X112906659Y-77104657D01*
X113159111Y-76852205D01*
X113462821Y-76548494D01*
X113524142Y-76515011D01*
X113593833Y-76519995D01*
X113649767Y-76561866D01*
X113674184Y-76627331D01*
X113674500Y-76636177D01*
X113674500Y-79734756D01*
X113672235Y-79755266D01*
X113674439Y-79825372D01*
X113674500Y-79829267D01*
X113674500Y-79856850D01*
X113674988Y-79860719D01*
X113674989Y-79860725D01*
X113675004Y-79860843D01*
X113675918Y-79872467D01*
X113677290Y-79916126D01*
X113682879Y-79935360D01*
X113686825Y-79954416D01*
X113689335Y-79974292D01*
X113705414Y-80014904D01*
X113709197Y-80025951D01*
X113721382Y-80067891D01*
X113731580Y-80085135D01*
X113740136Y-80102600D01*
X113747514Y-80121232D01*
X113747515Y-80121233D01*
X113773180Y-80156559D01*
X113779593Y-80166322D01*
X113801826Y-80203916D01*
X113801829Y-80203919D01*
X113801830Y-80203920D01*
X113815995Y-80218085D01*
X113828627Y-80232875D01*
X113840406Y-80249087D01*
X113874058Y-80276926D01*
X113882699Y-80284789D01*
X115434736Y-81836826D01*
X115468221Y-81898149D01*
X115470413Y-81937109D01*
X115464819Y-81991858D01*
X115464817Y-81991878D01*
X115464500Y-81994991D01*
X115464500Y-81998138D01*
X115464500Y-81998139D01*
X115464500Y-82716858D01*
X115464500Y-82716877D01*
X115464501Y-82720008D01*
X115464820Y-82723140D01*
X115464821Y-82723141D01*
X115475000Y-82822796D01*
X115530186Y-82989334D01*
X115622288Y-83138657D01*
X115746342Y-83262711D01*
X115746344Y-83262712D01*
X115895666Y-83354814D01*
X116007016Y-83391712D01*
X116062202Y-83409999D01*
X116161858Y-83420180D01*
X116161859Y-83420180D01*
X116164991Y-83420500D01*
X117515008Y-83420499D01*
X117617797Y-83409999D01*
X117784334Y-83354814D01*
X117933656Y-83262712D01*
X118057712Y-83138656D01*
X118149814Y-82989334D01*
X118204999Y-82822797D01*
X118215500Y-82720009D01*
X118215499Y-81994992D01*
X118204999Y-81892203D01*
X118149814Y-81725666D01*
X118057712Y-81576344D01*
X118057711Y-81576342D01*
X117933657Y-81452288D01*
X117784334Y-81360186D01*
X117617797Y-81305000D01*
X117518141Y-81294819D01*
X117518122Y-81294818D01*
X117515009Y-81294500D01*
X117511860Y-81294500D01*
X116712953Y-81294500D01*
X116645914Y-81274815D01*
X116625272Y-81258181D01*
X114961818Y-79594727D01*
X114928333Y-79533404D01*
X114925500Y-79507055D01*
X114925500Y-75773574D01*
X114945185Y-75706535D01*
X114961819Y-75685893D01*
X116575894Y-74071819D01*
X116637217Y-74038334D01*
X116663575Y-74035500D01*
X117981147Y-74035500D01*
X118048186Y-74055185D01*
X118093941Y-74107989D01*
X118103885Y-74177147D01*
X118074860Y-74240703D01*
X118068838Y-74247170D01*
X117807885Y-74508123D01*
X117749262Y-74566746D01*
X117733163Y-74579643D01*
X117685150Y-74630771D01*
X117682446Y-74633562D01*
X117665682Y-74650326D01*
X117665675Y-74650333D01*
X117662934Y-74653075D01*
X117660553Y-74656143D01*
X117660544Y-74656154D01*
X117660465Y-74656257D01*
X117652896Y-74665118D01*
X117622989Y-74696966D01*
X117613339Y-74714520D01*
X117602663Y-74730774D01*
X117590380Y-74746609D01*
X117573029Y-74786704D01*
X117567892Y-74797190D01*
X117546856Y-74835453D01*
X117541875Y-74854855D01*
X117535574Y-74873257D01*
X117527615Y-74891648D01*
X117520782Y-74934788D01*
X117518414Y-74946220D01*
X117507554Y-74988523D01*
X117507554Y-75008562D01*
X117506027Y-75027960D01*
X117502894Y-75047740D01*
X117507004Y-75091219D01*
X117507554Y-75102889D01*
X117507554Y-76557548D01*
X117487869Y-76624587D01*
X117475704Y-76640520D01*
X117400520Y-76724019D01*
X117305874Y-76887951D01*
X117247380Y-77067978D01*
X117227594Y-77256235D01*
X117247380Y-77444493D01*
X117305874Y-77624520D01*
X117400520Y-77788452D01*
X117527183Y-77929125D01*
X117680323Y-78040387D01*
X117853251Y-78117380D01*
X118038406Y-78156736D01*
X118038408Y-78156736D01*
X118227702Y-78156736D01*
X118351137Y-78130498D01*
X118412857Y-78117380D01*
X118585784Y-78040387D01*
X118616546Y-78018037D01*
X118738924Y-77929125D01*
X118865587Y-77788452D01*
X118960233Y-77624520D01*
X118976761Y-77573651D01*
X119018728Y-77444492D01*
X119038514Y-77256236D01*
X119018728Y-77067980D01*
X118983187Y-76958596D01*
X118960233Y-76887951D01*
X118865587Y-76724019D01*
X118790404Y-76640520D01*
X118760174Y-76577529D01*
X118758554Y-76557548D01*
X118758554Y-75377998D01*
X118778239Y-75310959D01*
X118794873Y-75290317D01*
X119013371Y-75071820D01*
X119074694Y-75038335D01*
X119101052Y-75035501D01*
X119503048Y-75035501D01*
X119506950Y-75035501D01*
X119509062Y-75035233D01*
X119513318Y-75035100D01*
X119520500Y-75035100D01*
X119587539Y-75054785D01*
X119633294Y-75107589D01*
X119644500Y-75159101D01*
X119644499Y-75369096D01*
X119624814Y-75436135D01*
X119619769Y-75443401D01*
X119601605Y-75467666D01*
X119551310Y-75602514D01*
X119547522Y-75637746D01*
X119544901Y-75662127D01*
X119544901Y-75665448D01*
X119544901Y-75665449D01*
X119544901Y-76559360D01*
X119544901Y-76559378D01*
X119544902Y-76562672D01*
X119545254Y-76565952D01*
X119545255Y-76565959D01*
X119551310Y-76622284D01*
X119556492Y-76636177D01*
X119601605Y-76757131D01*
X119687855Y-76872346D01*
X119803070Y-76958596D01*
X119937918Y-77008891D01*
X119997528Y-77015300D01*
X120342473Y-77015299D01*
X120402084Y-77008891D01*
X120402085Y-77008890D01*
X120406750Y-77008389D01*
X120433205Y-77008384D01*
X120433700Y-77008437D01*
X120498263Y-77035147D01*
X120538136Y-77092522D01*
X120544499Y-77131732D01*
X120544499Y-81269548D01*
X120524814Y-81336587D01*
X120508180Y-81357229D01*
X118132228Y-83733181D01*
X118070905Y-83766666D01*
X118044547Y-83769500D01*
X115282744Y-83769500D01*
X115262236Y-83767235D01*
X115192113Y-83769439D01*
X115188219Y-83769500D01*
X115160650Y-83769500D01*
X115156794Y-83769986D01*
X115156791Y-83769987D01*
X115156735Y-83769994D01*
X115156662Y-83770003D01*
X115145043Y-83770917D01*
X115101372Y-83772289D01*
X115082128Y-83777880D01*
X115063084Y-83781824D01*
X115043208Y-83784335D01*
X115002600Y-83800413D01*
X114991554Y-83804194D01*
X114949610Y-83816382D01*
X114949607Y-83816383D01*
X114932365Y-83826579D01*
X114914904Y-83835133D01*
X114896267Y-83842512D01*
X114860931Y-83868185D01*
X114851174Y-83874595D01*
X114813580Y-83896829D01*
X114799413Y-83910996D01*
X114784624Y-83923626D01*
X114768413Y-83935404D01*
X114740572Y-83969058D01*
X114732711Y-83977697D01*
X108699513Y-90010894D01*
X108638190Y-90044379D01*
X108599231Y-90046571D01*
X108533143Y-90039820D01*
X108533139Y-90039819D01*
X108530009Y-90039500D01*
X108526860Y-90039500D01*
X107783141Y-90039500D01*
X107783121Y-90039500D01*
X107779992Y-90039501D01*
X107776860Y-90039820D01*
X107776858Y-90039821D01*
X107677203Y-90050000D01*
X107510665Y-90105186D01*
X107361342Y-90197288D01*
X107237288Y-90321342D01*
X107145186Y-90470665D01*
X107090000Y-90637202D01*
X107079819Y-90736858D01*
X107079817Y-90736878D01*
X107079500Y-90739991D01*
X107079500Y-90743138D01*
X107079500Y-90743139D01*
X107079500Y-92136859D01*
X107079500Y-92136878D01*
X107079501Y-92140008D01*
X107079820Y-92143140D01*
X107079821Y-92143141D01*
X107090000Y-92242796D01*
X107145186Y-92409334D01*
X107237288Y-92558657D01*
X107361342Y-92682711D01*
X107417895Y-92717593D01*
X107510666Y-92774814D01*
X107617635Y-92810260D01*
X107677202Y-92829999D01*
X107776858Y-92840180D01*
X107776859Y-92840180D01*
X107779991Y-92840500D01*
X108530008Y-92840499D01*
X108632797Y-92829999D01*
X108799334Y-92774814D01*
X108948656Y-92682712D01*
X109072712Y-92558656D01*
X109164814Y-92409334D01*
X109219999Y-92242797D01*
X109230500Y-92140009D01*
X109230499Y-91300450D01*
X109250183Y-91233412D01*
X109266813Y-91212775D01*
X115422770Y-85056819D01*
X115484094Y-85023334D01*
X115510452Y-85020500D01*
X118272256Y-85020500D01*
X118292762Y-85022764D01*
X118295665Y-85022672D01*
X118295667Y-85022673D01*
X118362872Y-85020561D01*
X118366768Y-85020500D01*
X118390448Y-85020500D01*
X118394350Y-85020500D01*
X118398313Y-85019999D01*
X118409962Y-85019080D01*
X118453627Y-85017709D01*
X118472859Y-85012120D01*
X118491918Y-85008174D01*
X118498196Y-85007381D01*
X118511792Y-85005664D01*
X118552407Y-84989582D01*
X118563444Y-84985803D01*
X118605390Y-84973618D01*
X118622629Y-84963422D01*
X118640102Y-84954862D01*
X118658732Y-84947486D01*
X118694064Y-84921814D01*
X118703830Y-84915400D01*
X118741418Y-84893171D01*
X118741417Y-84893171D01*
X118741420Y-84893170D01*
X118755585Y-84879004D01*
X118770373Y-84866373D01*
X118786587Y-84854594D01*
X118814438Y-84820926D01*
X118822279Y-84812309D01*
X121082819Y-82551769D01*
X121144142Y-82518285D01*
X121213834Y-82523269D01*
X121269767Y-82565141D01*
X121294184Y-82630605D01*
X121294500Y-82639451D01*
X121294500Y-82672256D01*
X121292235Y-82692766D01*
X121294439Y-82762872D01*
X121294500Y-82766767D01*
X121294500Y-82794350D01*
X121294988Y-82798219D01*
X121294989Y-82798225D01*
X121295004Y-82798343D01*
X121295918Y-82809967D01*
X121297290Y-82853626D01*
X121302879Y-82872860D01*
X121306825Y-82891916D01*
X121309335Y-82911792D01*
X121325414Y-82952404D01*
X121329197Y-82963451D01*
X121341382Y-83005391D01*
X121351580Y-83022635D01*
X121360136Y-83040100D01*
X121367514Y-83058732D01*
X121367515Y-83058733D01*
X121393180Y-83094059D01*
X121399593Y-83103822D01*
X121421826Y-83141416D01*
X121421829Y-83141419D01*
X121421830Y-83141420D01*
X121435995Y-83155585D01*
X121448627Y-83170375D01*
X121460406Y-83186587D01*
X121494058Y-83214426D01*
X121502699Y-83222289D01*
X121873181Y-83592771D01*
X121906666Y-83654094D01*
X121909500Y-83680452D01*
X121909500Y-83959546D01*
X121889815Y-84026585D01*
X121873181Y-84047227D01*
X118339808Y-87580599D01*
X118323710Y-87593496D01*
X118275696Y-87644625D01*
X118272992Y-87647416D01*
X118256228Y-87664180D01*
X118256221Y-87664187D01*
X118253480Y-87666929D01*
X118251099Y-87669997D01*
X118251090Y-87670008D01*
X118251011Y-87670111D01*
X118243442Y-87678972D01*
X118213535Y-87710820D01*
X118203885Y-87728374D01*
X118193209Y-87744628D01*
X118180926Y-87760463D01*
X118163575Y-87800558D01*
X118158438Y-87811044D01*
X118137402Y-87849307D01*
X118132421Y-87868709D01*
X118126120Y-87887111D01*
X118118161Y-87905502D01*
X118111328Y-87948642D01*
X118108960Y-87960074D01*
X118098099Y-88002377D01*
X118098100Y-88022416D01*
X118096573Y-88041814D01*
X118093440Y-88061594D01*
X118097550Y-88105073D01*
X118098100Y-88116743D01*
X118098100Y-90294456D01*
X118095835Y-90314966D01*
X118098039Y-90385072D01*
X118098100Y-90388967D01*
X118098100Y-90416550D01*
X118098588Y-90420419D01*
X118098589Y-90420425D01*
X118098604Y-90420543D01*
X118099518Y-90432167D01*
X118100890Y-90475826D01*
X118106479Y-90495060D01*
X118110425Y-90514116D01*
X118112935Y-90533992D01*
X118129014Y-90574604D01*
X118132797Y-90585651D01*
X118144982Y-90627591D01*
X118155180Y-90644835D01*
X118163736Y-90662300D01*
X118171114Y-90680932D01*
X118171115Y-90680933D01*
X118196780Y-90716259D01*
X118203193Y-90726022D01*
X118225426Y-90763616D01*
X118225429Y-90763619D01*
X118225430Y-90763620D01*
X118239595Y-90777785D01*
X118252227Y-90792575D01*
X118264006Y-90808787D01*
X118297658Y-90836626D01*
X118306299Y-90844489D01*
X118436781Y-90974971D01*
X118470266Y-91036294D01*
X118473100Y-91062652D01*
X118473100Y-92297360D01*
X118473100Y-92297378D01*
X118473101Y-92300672D01*
X118479509Y-92360283D01*
X118529804Y-92495131D01*
X118616054Y-92610346D01*
X118731269Y-92696596D01*
X118866117Y-92746891D01*
X118925727Y-92753300D01*
X119052800Y-92753299D01*
X119119839Y-92772983D01*
X119165594Y-92825787D01*
X119169126Y-92842026D01*
X119176800Y-92849700D01*
X124663201Y-92849700D01*
X124674673Y-92838227D01*
X124682886Y-92810260D01*
X124735690Y-92764505D01*
X124787201Y-92753299D01*
X124910961Y-92753299D01*
X124914272Y-92753299D01*
X124973883Y-92746891D01*
X125108731Y-92696596D01*
X125223946Y-92610346D01*
X125310196Y-92495131D01*
X125360491Y-92360283D01*
X125366900Y-92300673D01*
X125366899Y-90579328D01*
X125360491Y-90519717D01*
X125310196Y-90384869D01*
X125223946Y-90269654D01*
X125108731Y-90183404D01*
X124973883Y-90133109D01*
X124914273Y-90126700D01*
X124910951Y-90126700D01*
X124787201Y-90126700D01*
X124720162Y-90107015D01*
X124674407Y-90054211D01*
X124670874Y-90037973D01*
X124663201Y-90030300D01*
X124663200Y-90030300D01*
X119473100Y-90030300D01*
X119406061Y-90010615D01*
X119360306Y-89957811D01*
X119349100Y-89906300D01*
X119349100Y-88391851D01*
X119368785Y-88324812D01*
X119385414Y-88304175D01*
X122440485Y-85249103D01*
X122501806Y-85215620D01*
X122540766Y-85213428D01*
X122606858Y-85220180D01*
X122606859Y-85220180D01*
X122609991Y-85220500D01*
X123360008Y-85220499D01*
X123462797Y-85209999D01*
X123629334Y-85154814D01*
X123778656Y-85062712D01*
X123902712Y-84938656D01*
X123994814Y-84789334D01*
X124049999Y-84622797D01*
X124060500Y-84520009D01*
X124060499Y-83129450D01*
X124080184Y-83062412D01*
X124132987Y-83016657D01*
X124202146Y-83006713D01*
X124265702Y-83035738D01*
X124272180Y-83041770D01*
X124823181Y-83592771D01*
X124856666Y-83654094D01*
X124859500Y-83680452D01*
X124859500Y-84516858D01*
X124859500Y-84516877D01*
X124859501Y-84520008D01*
X124859820Y-84523140D01*
X124859821Y-84523141D01*
X124870000Y-84622796D01*
X124925186Y-84789334D01*
X125017288Y-84938657D01*
X125141342Y-85062711D01*
X125141344Y-85062712D01*
X125290666Y-85154814D01*
X125402016Y-85191712D01*
X125457202Y-85209999D01*
X125556858Y-85220180D01*
X125556859Y-85220180D01*
X125559991Y-85220500D01*
X126310008Y-85220499D01*
X126412797Y-85209999D01*
X126579334Y-85154814D01*
X126657752Y-85106445D01*
X126669887Y-85098961D01*
X126734983Y-85080500D01*
X133229723Y-85080500D01*
X133296762Y-85100185D01*
X133342517Y-85152989D01*
X133352461Y-85222147D01*
X133341343Y-85248986D01*
X133344235Y-85250065D01*
X133338005Y-85266767D01*
X133338004Y-85266769D01*
X133287709Y-85401617D01*
X133281300Y-85461227D01*
X133281300Y-85464548D01*
X133281300Y-85464549D01*
X133281300Y-85985460D01*
X133281300Y-85985478D01*
X133281301Y-85988772D01*
X133281653Y-85992052D01*
X133281654Y-85992059D01*
X133287709Y-86048383D01*
X133338004Y-86183231D01*
X133386285Y-86247726D01*
X133414704Y-86285689D01*
X133439121Y-86351154D01*
X133424269Y-86419427D01*
X133414704Y-86434311D01*
X133338004Y-86536768D01*
X133287710Y-86671615D01*
X133287709Y-86671617D01*
X133281300Y-86731227D01*
X133281300Y-86734548D01*
X133281300Y-86734549D01*
X133281300Y-87255460D01*
X133281300Y-87255478D01*
X133281301Y-87258772D01*
X133281653Y-87262052D01*
X133281654Y-87262059D01*
X133287709Y-87318384D01*
X133302188Y-87357203D01*
X133338004Y-87453231D01*
X133345423Y-87463141D01*
X133414704Y-87555689D01*
X133439121Y-87621154D01*
X133424269Y-87689427D01*
X133414704Y-87704311D01*
X133338004Y-87806768D01*
X133287709Y-87941616D01*
X133285725Y-87960074D01*
X133281300Y-88001227D01*
X133281300Y-88004548D01*
X133281300Y-88004549D01*
X133281300Y-88525460D01*
X133281300Y-88525478D01*
X133281301Y-88528772D01*
X133287709Y-88588383D01*
X133338004Y-88723231D01*
X133424254Y-88838446D01*
X133539469Y-88924696D01*
X133674317Y-88974991D01*
X133733927Y-88981400D01*
X134216522Y-88981399D01*
X134216527Y-88981400D01*
X139012872Y-88981399D01*
X139072483Y-88974991D01*
X139136765Y-88951014D01*
X139206456Y-88946030D01*
X139223428Y-88951012D01*
X139287717Y-88974991D01*
X139347327Y-88981400D01*
X140586072Y-88981399D01*
X140645683Y-88974991D01*
X140780531Y-88924696D01*
X140895746Y-88838446D01*
X140981996Y-88723231D01*
X141032291Y-88588383D01*
X141038700Y-88528773D01*
X141038699Y-88001228D01*
X141032291Y-87941617D01*
X140981996Y-87806769D01*
X140905294Y-87704308D01*
X140880878Y-87638847D01*
X140895729Y-87570574D01*
X140905289Y-87555697D01*
X140981996Y-87453231D01*
X141032291Y-87318383D01*
X141038700Y-87258773D01*
X141038699Y-86731228D01*
X141032291Y-86671617D01*
X140981996Y-86536769D01*
X140905294Y-86434308D01*
X140880878Y-86368847D01*
X140895729Y-86300574D01*
X140905289Y-86285697D01*
X140981996Y-86183231D01*
X141032291Y-86048383D01*
X141038700Y-85988773D01*
X141038699Y-85588951D01*
X141058383Y-85521913D01*
X141075013Y-85501276D01*
X142094471Y-84481819D01*
X142155795Y-84448334D01*
X142182153Y-84445500D01*
X154207048Y-84445500D01*
X154274087Y-84465185D01*
X154294729Y-84481819D01*
X160988181Y-91175272D01*
X161021666Y-91236595D01*
X161024500Y-91262953D01*
X161024500Y-92911859D01*
X161024500Y-92911878D01*
X161024501Y-92915008D01*
X161024820Y-92918140D01*
X161024821Y-92918141D01*
X161035000Y-93017796D01*
X161090186Y-93184334D01*
X161182288Y-93333657D01*
X161306342Y-93457711D01*
X161306344Y-93457712D01*
X161453097Y-93548229D01*
X161499821Y-93600175D01*
X161512000Y-93653767D01*
X161512000Y-96846231D01*
X161492315Y-96913270D01*
X161453097Y-96951770D01*
X161306341Y-97042289D01*
X161182288Y-97166342D01*
X161090186Y-97315665D01*
X161035000Y-97482202D01*
X161024819Y-97581858D01*
X161024817Y-97581878D01*
X161024500Y-97584991D01*
X161024500Y-97588138D01*
X161024500Y-97588139D01*
X161024500Y-99237046D01*
X161004815Y-99304085D01*
X160988181Y-99324727D01*
X159374728Y-100938181D01*
X159313405Y-100971666D01*
X159287047Y-100974500D01*
X158469399Y-100974500D01*
X158402360Y-100954815D01*
X158356605Y-100902011D01*
X158345399Y-100850500D01*
X158345399Y-100056839D01*
X158345399Y-100056838D01*
X158345399Y-100053528D01*
X158338991Y-99993917D01*
X158288696Y-99859069D01*
X158202446Y-99743854D01*
X158087231Y-99657604D01*
X157952383Y-99607309D01*
X157892773Y-99600900D01*
X157889450Y-99600900D01*
X155882639Y-99600900D01*
X155882620Y-99600900D01*
X155879328Y-99600901D01*
X155876048Y-99601253D01*
X155876040Y-99601254D01*
X155819715Y-99607309D01*
X155684869Y-99657604D01*
X155569653Y-99743854D01*
X155567367Y-99746909D01*
X155511434Y-99788781D01*
X155468099Y-99796600D01*
X153566901Y-99796600D01*
X153499862Y-99776915D01*
X153467633Y-99746909D01*
X153465346Y-99743854D01*
X153350131Y-99657604D01*
X153215283Y-99607309D01*
X153158966Y-99601254D01*
X153158965Y-99601253D01*
X153155673Y-99600900D01*
X153152350Y-99600900D01*
X151145539Y-99600900D01*
X151145520Y-99600900D01*
X151142228Y-99600901D01*
X151138948Y-99601253D01*
X151138940Y-99601254D01*
X151082615Y-99607309D01*
X150947769Y-99657604D01*
X150832554Y-99743854D01*
X150746304Y-99859068D01*
X150696009Y-99993916D01*
X150693379Y-100018383D01*
X150689600Y-100053527D01*
X150689600Y-100056848D01*
X150689600Y-100056849D01*
X150689600Y-100850500D01*
X150669915Y-100917539D01*
X150617111Y-100963294D01*
X150565600Y-100974500D01*
X141162700Y-100974500D01*
X141095661Y-100954815D01*
X141049906Y-100902011D01*
X141038700Y-100850501D01*
X141038699Y-100704539D01*
X141038699Y-100701228D01*
X141032291Y-100641617D01*
X140981996Y-100506769D01*
X140905294Y-100404308D01*
X140880878Y-100338847D01*
X140895729Y-100270574D01*
X140905289Y-100255697D01*
X140981996Y-100153231D01*
X141032291Y-100018383D01*
X141038700Y-99958773D01*
X141038699Y-99431228D01*
X141032291Y-99371617D01*
X140981996Y-99236769D01*
X140905294Y-99134308D01*
X140880878Y-99068847D01*
X140895729Y-99000574D01*
X140905289Y-98985697D01*
X140981996Y-98883231D01*
X141032291Y-98748383D01*
X141038700Y-98688773D01*
X141038699Y-98161228D01*
X141032291Y-98101617D01*
X140981996Y-97966769D01*
X140905294Y-97864308D01*
X140880878Y-97798847D01*
X140895729Y-97730574D01*
X140905289Y-97715697D01*
X140981996Y-97613231D01*
X141032291Y-97478383D01*
X141038700Y-97418773D01*
X141038699Y-96891228D01*
X141032291Y-96831617D01*
X140981996Y-96696769D01*
X140895746Y-96581554D01*
X140780531Y-96495304D01*
X140645683Y-96445009D01*
X140586073Y-96438600D01*
X140582751Y-96438600D01*
X140552971Y-96438600D01*
X140485932Y-96418915D01*
X140480086Y-96414918D01*
X140419430Y-96370849D01*
X140246502Y-96293855D01*
X140061348Y-96254500D01*
X140061346Y-96254500D01*
X139872054Y-96254500D01*
X139872052Y-96254500D01*
X139686897Y-96293855D01*
X139513970Y-96370848D01*
X139453310Y-96414919D01*
X139387503Y-96438398D01*
X139380430Y-96438600D01*
X139350640Y-96438600D01*
X139350622Y-96438600D01*
X139347328Y-96438601D01*
X139344049Y-96438953D01*
X139344039Y-96438954D01*
X139287714Y-96445009D01*
X139223432Y-96468985D01*
X139153741Y-96473969D01*
X139136767Y-96468985D01*
X139072484Y-96445009D01*
X139016166Y-96438954D01*
X139016165Y-96438953D01*
X139012873Y-96438600D01*
X139009551Y-96438600D01*
X136164751Y-96438600D01*
X136097712Y-96418915D01*
X136051957Y-96366111D01*
X136042013Y-96296953D01*
X136071038Y-96233397D01*
X136077070Y-96226919D01*
X141871824Y-90432167D01*
X143807171Y-88496819D01*
X143868495Y-88463334D01*
X143894853Y-88460500D01*
X150984362Y-88460500D01*
X151051401Y-88480185D01*
X151089901Y-88519404D01*
X151157288Y-88628657D01*
X151281342Y-88752711D01*
X151281344Y-88752712D01*
X151430666Y-88844814D01*
X151542016Y-88881712D01*
X151597202Y-88899999D01*
X151696858Y-88910180D01*
X151696859Y-88910180D01*
X151699991Y-88910500D01*
X153100008Y-88910499D01*
X153202797Y-88899999D01*
X153369334Y-88844814D01*
X153518656Y-88752712D01*
X153642712Y-88628656D01*
X153734814Y-88479334D01*
X153789999Y-88312797D01*
X153800500Y-88210009D01*
X153800499Y-87459992D01*
X153789999Y-87357203D01*
X153734814Y-87190666D01*
X153642712Y-87041344D01*
X153642711Y-87041342D01*
X153518657Y-86917288D01*
X153369334Y-86825186D01*
X153202797Y-86770000D01*
X153103141Y-86759819D01*
X153103122Y-86759818D01*
X153100009Y-86759500D01*
X153096860Y-86759500D01*
X151703140Y-86759500D01*
X151703120Y-86759500D01*
X151699992Y-86759501D01*
X151696860Y-86759820D01*
X151696858Y-86759821D01*
X151597203Y-86770000D01*
X151430665Y-86825186D01*
X151281342Y-86917288D01*
X151157288Y-87041342D01*
X151089901Y-87150596D01*
X151037953Y-87197321D01*
X150984362Y-87209500D01*
X143667140Y-87209500D01*
X143646636Y-87207236D01*
X143576544Y-87209439D01*
X143572650Y-87209500D01*
X143545050Y-87209500D01*
X143541189Y-87209987D01*
X143541178Y-87209988D01*
X143541045Y-87210005D01*
X143529429Y-87210918D01*
X143485768Y-87212290D01*
X143466529Y-87217880D01*
X143447480Y-87221825D01*
X143427608Y-87224335D01*
X143386993Y-87240415D01*
X143375949Y-87244196D01*
X143334011Y-87256382D01*
X143316764Y-87266581D01*
X143299300Y-87275136D01*
X143280667Y-87282514D01*
X143245326Y-87308189D01*
X143235568Y-87314599D01*
X143197979Y-87336829D01*
X143183810Y-87350998D01*
X143169022Y-87363628D01*
X143152813Y-87375405D01*
X143124972Y-87409058D01*
X143117111Y-87417696D01*
X134132526Y-96402281D01*
X134071203Y-96435766D01*
X134044845Y-96438600D01*
X133737239Y-96438600D01*
X133737220Y-96438600D01*
X133733928Y-96438601D01*
X133730648Y-96438953D01*
X133730640Y-96438954D01*
X133674315Y-96445009D01*
X133539469Y-96495304D01*
X133424254Y-96581554D01*
X133338004Y-96696768D01*
X133287710Y-96831615D01*
X133287709Y-96831617D01*
X133281300Y-96891227D01*
X133281300Y-96894548D01*
X133281300Y-96894549D01*
X133281300Y-97415460D01*
X133281300Y-97415478D01*
X133281301Y-97418772D01*
X133281653Y-97422052D01*
X133281654Y-97422059D01*
X133287709Y-97478384D01*
X133312856Y-97545807D01*
X133338004Y-97613231D01*
X133405336Y-97703174D01*
X133414704Y-97715689D01*
X133439121Y-97781154D01*
X133424269Y-97849427D01*
X133414704Y-97864311D01*
X133338004Y-97966768D01*
X133287710Y-98101615D01*
X133287709Y-98101617D01*
X133281300Y-98161227D01*
X133281300Y-98164548D01*
X133281300Y-98164549D01*
X133281300Y-98685460D01*
X133281300Y-98685478D01*
X133281301Y-98688772D01*
X133281653Y-98692052D01*
X133281654Y-98692059D01*
X133287709Y-98748384D01*
X133298351Y-98776916D01*
X133338004Y-98883231D01*
X133356273Y-98907635D01*
X133414704Y-98985689D01*
X133439121Y-99051154D01*
X133424269Y-99119427D01*
X133414704Y-99134311D01*
X133338004Y-99236768D01*
X133287710Y-99371615D01*
X133287709Y-99371617D01*
X133281300Y-99431227D01*
X133281300Y-99434548D01*
X133281300Y-99434549D01*
X133281300Y-99955460D01*
X133281300Y-99955478D01*
X133281301Y-99958772D01*
X133281653Y-99962052D01*
X133281654Y-99962059D01*
X133287709Y-100018384D01*
X133292328Y-100030767D01*
X133338004Y-100153231D01*
X133405336Y-100243174D01*
X133414704Y-100255689D01*
X133439121Y-100321154D01*
X133424269Y-100389427D01*
X133414704Y-100404311D01*
X133338004Y-100506768D01*
X133287710Y-100641615D01*
X133287709Y-100641617D01*
X133281300Y-100701227D01*
X133281300Y-100704548D01*
X133281300Y-100704549D01*
X133281300Y-101225460D01*
X133281300Y-101225478D01*
X133281301Y-101228772D01*
X133281653Y-101232052D01*
X133281654Y-101232059D01*
X133281990Y-101235180D01*
X133287709Y-101288383D01*
X133338004Y-101423231D01*
X133424254Y-101538446D01*
X133539469Y-101624696D01*
X133674317Y-101674991D01*
X133733927Y-101681400D01*
X134216522Y-101681399D01*
X134216527Y-101681400D01*
X139012872Y-101681399D01*
X139072483Y-101674991D01*
X139136765Y-101651014D01*
X139206456Y-101646030D01*
X139223428Y-101651012D01*
X139287717Y-101674991D01*
X139347327Y-101681400D01*
X139747147Y-101681399D01*
X139814186Y-101701083D01*
X139834828Y-101717718D01*
X140100897Y-101983787D01*
X140113798Y-101999889D01*
X140115912Y-102001874D01*
X140115914Y-102001877D01*
X140163261Y-102046339D01*
X140164940Y-102047916D01*
X140167736Y-102050626D01*
X140187230Y-102070120D01*
X140190315Y-102072513D01*
X140190401Y-102072580D01*
X140199273Y-102080158D01*
X140231118Y-102110062D01*
X140248674Y-102119714D01*
X140264931Y-102130392D01*
X140280764Y-102142674D01*
X140296885Y-102149649D01*
X140320856Y-102160023D01*
X140331343Y-102165160D01*
X140369608Y-102186197D01*
X140389016Y-102191180D01*
X140407410Y-102197478D01*
X140425805Y-102205438D01*
X140468954Y-102212271D01*
X140480380Y-102214638D01*
X140495922Y-102218629D01*
X140522680Y-102225500D01*
X140522681Y-102225500D01*
X140542716Y-102225500D01*
X140562113Y-102227026D01*
X140581896Y-102230160D01*
X140625374Y-102226050D01*
X140637044Y-102225500D01*
X150565601Y-102225500D01*
X150632640Y-102245185D01*
X150678395Y-102297989D01*
X150689601Y-102349500D01*
X150689601Y-103146472D01*
X150689953Y-103149752D01*
X150689954Y-103149759D01*
X150692286Y-103171448D01*
X150696009Y-103206083D01*
X150746304Y-103340931D01*
X150832554Y-103456146D01*
X150947769Y-103542396D01*
X151082617Y-103592691D01*
X151142227Y-103599100D01*
X153155672Y-103599099D01*
X153215283Y-103592691D01*
X153350131Y-103542396D01*
X153465346Y-103456146D01*
X153467632Y-103453091D01*
X153523566Y-103411219D01*
X153566901Y-103403400D01*
X155468099Y-103403400D01*
X155535138Y-103423085D01*
X155567367Y-103453091D01*
X155569654Y-103456146D01*
X155684869Y-103542396D01*
X155819717Y-103592691D01*
X155879327Y-103599100D01*
X157892772Y-103599099D01*
X157952383Y-103592691D01*
X158087231Y-103542396D01*
X158202446Y-103456146D01*
X158288696Y-103340931D01*
X158338991Y-103206083D01*
X158345400Y-103146473D01*
X158345400Y-102349500D01*
X158365085Y-102282461D01*
X158417889Y-102236706D01*
X158469400Y-102225500D01*
X159514756Y-102225500D01*
X159535262Y-102227764D01*
X159538165Y-102227672D01*
X159538167Y-102227673D01*
X159605372Y-102225561D01*
X159609268Y-102225500D01*
X159632948Y-102225500D01*
X159636850Y-102225500D01*
X159640813Y-102224999D01*
X159652462Y-102224080D01*
X159696127Y-102222709D01*
X159715359Y-102217120D01*
X159734418Y-102213174D01*
X159741591Y-102212268D01*
X159754292Y-102210664D01*
X159794907Y-102194582D01*
X159805944Y-102190803D01*
X159847890Y-102178618D01*
X159865129Y-102168422D01*
X159882602Y-102159862D01*
X159901232Y-102152486D01*
X159936564Y-102126814D01*
X159946330Y-102120400D01*
X159983918Y-102098171D01*
X159983917Y-102098171D01*
X159983920Y-102098170D01*
X159998085Y-102084004D01*
X160012873Y-102071373D01*
X160029087Y-102059594D01*
X160056938Y-102025926D01*
X160064779Y-102017309D01*
X161067681Y-101014408D01*
X161129002Y-100980925D01*
X161198694Y-100985909D01*
X161243041Y-101014410D01*
X161306342Y-101077711D01*
X161362895Y-101112593D01*
X161455666Y-101169814D01*
X161567017Y-101206712D01*
X161622202Y-101224999D01*
X161721858Y-101235180D01*
X161721859Y-101235180D01*
X161724991Y-101235500D01*
X162550008Y-101235499D01*
X162652797Y-101224999D01*
X162819334Y-101169814D01*
X162968656Y-101077712D01*
X163092712Y-100953656D01*
X163184814Y-100804334D01*
X163239999Y-100637797D01*
X163250500Y-100535009D01*
X163250499Y-97584992D01*
X163239999Y-97482203D01*
X163184814Y-97315666D01*
X163092712Y-97166344D01*
X163092711Y-97166342D01*
X162968658Y-97042289D01*
X162821903Y-96951770D01*
X162775179Y-96899822D01*
X162763000Y-96846231D01*
X162763000Y-93653767D01*
X162782685Y-93586728D01*
X162821901Y-93548230D01*
X162968656Y-93457712D01*
X163092712Y-93333656D01*
X163184814Y-93184334D01*
X163239999Y-93017797D01*
X163250500Y-92915009D01*
X163250499Y-91439999D01*
X171814540Y-91439999D01*
X171834326Y-91628257D01*
X171892820Y-91808284D01*
X171987464Y-91972213D01*
X172062650Y-92055714D01*
X172092880Y-92118706D01*
X172094500Y-92138687D01*
X172094500Y-94957256D01*
X172092235Y-94977766D01*
X172094439Y-95047872D01*
X172094500Y-95051767D01*
X172094500Y-95079350D01*
X172094988Y-95083219D01*
X172094989Y-95083225D01*
X172095004Y-95083343D01*
X172095918Y-95094967D01*
X172097290Y-95138626D01*
X172102879Y-95157860D01*
X172106825Y-95176916D01*
X172109335Y-95196792D01*
X172125414Y-95237404D01*
X172129197Y-95248451D01*
X172141382Y-95290391D01*
X172151580Y-95307635D01*
X172160136Y-95325100D01*
X172167514Y-95343732D01*
X172167515Y-95343733D01*
X172193180Y-95379059D01*
X172199593Y-95388822D01*
X172221826Y-95426416D01*
X172221829Y-95426419D01*
X172221830Y-95426420D01*
X172235995Y-95440585D01*
X172248627Y-95455375D01*
X172260406Y-95471587D01*
X172294058Y-95499426D01*
X172302699Y-95507289D01*
X176988246Y-100192836D01*
X177021731Y-100254159D01*
X177016747Y-100323850D01*
X176915630Y-100594955D01*
X176854804Y-100874570D01*
X176846841Y-100985909D01*
X176839500Y-101088552D01*
X176839500Y-104231448D01*
X176839657Y-104233656D01*
X176839658Y-104233658D01*
X176854804Y-104445429D01*
X176915629Y-104725041D01*
X176915631Y-104725046D01*
X176989973Y-104924365D01*
X177015634Y-104993163D01*
X177152772Y-105244313D01*
X177238517Y-105358855D01*
X177324261Y-105473395D01*
X177526605Y-105675739D01*
X177698415Y-105804354D01*
X177755686Y-105847227D01*
X177895435Y-105923535D01*
X178006839Y-105984367D01*
X178274954Y-106084369D01*
X178274957Y-106084369D01*
X178274958Y-106084370D01*
X178327217Y-106095738D01*
X178554572Y-106145196D01*
X178768552Y-106160500D01*
X178770767Y-106160500D01*
X181909233Y-106160500D01*
X181911448Y-106160500D01*
X182125428Y-106145196D01*
X182405046Y-106084369D01*
X182673161Y-105984367D01*
X182924315Y-105847226D01*
X183153395Y-105675739D01*
X183355739Y-105473395D01*
X183527226Y-105244315D01*
X183664367Y-104993161D01*
X183764369Y-104725046D01*
X183825196Y-104445428D01*
X183840500Y-104231448D01*
X183840500Y-101088552D01*
X183825196Y-100874572D01*
X183764369Y-100594954D01*
X183664367Y-100326839D01*
X183591196Y-100192836D01*
X183527227Y-100075686D01*
X183466015Y-99993917D01*
X183355739Y-99846605D01*
X183153395Y-99644261D01*
X183007378Y-99534954D01*
X182924313Y-99472772D01*
X182673163Y-99335634D01*
X182673162Y-99335633D01*
X182673161Y-99335633D01*
X182408097Y-99236769D01*
X182405041Y-99235629D01*
X182125429Y-99174804D01*
X181913658Y-99159658D01*
X181913656Y-99159657D01*
X181911448Y-99159500D01*
X178768552Y-99159500D01*
X178766344Y-99159657D01*
X178766341Y-99159658D01*
X178554570Y-99174804D01*
X178274955Y-99235630D01*
X178003851Y-99336747D01*
X177934160Y-99341731D01*
X177872837Y-99308246D01*
X173381819Y-94817228D01*
X173348334Y-94755905D01*
X173345500Y-94729547D01*
X173345500Y-92138687D01*
X173365185Y-92071648D01*
X173377350Y-92055714D01*
X173452533Y-91972216D01*
X173547179Y-91808284D01*
X173605674Y-91628256D01*
X173625460Y-91440000D01*
X173605674Y-91251744D01*
X173547179Y-91071716D01*
X173547179Y-91071715D01*
X173452533Y-90907783D01*
X173325870Y-90767110D01*
X173172730Y-90655848D01*
X172999802Y-90578855D01*
X172814648Y-90539500D01*
X172814646Y-90539500D01*
X172625354Y-90539500D01*
X172625352Y-90539500D01*
X172440197Y-90578855D01*
X172267269Y-90655848D01*
X172114129Y-90767110D01*
X171987466Y-90907783D01*
X171892820Y-91071715D01*
X171834326Y-91251742D01*
X171814540Y-91439999D01*
X163250499Y-91439999D01*
X163250499Y-89964992D01*
X163239999Y-89862203D01*
X163184814Y-89695666D01*
X163127592Y-89602895D01*
X163092711Y-89546342D01*
X162968657Y-89422288D01*
X162819334Y-89330186D01*
X162652797Y-89275000D01*
X162553141Y-89264819D01*
X162553122Y-89264818D01*
X162550009Y-89264500D01*
X162546860Y-89264500D01*
X161728141Y-89264500D01*
X161728121Y-89264500D01*
X161724992Y-89264501D01*
X161721860Y-89264820D01*
X161721858Y-89264821D01*
X161622203Y-89275000D01*
X161455665Y-89330186D01*
X161306342Y-89422288D01*
X161243042Y-89485589D01*
X161181719Y-89519074D01*
X161112027Y-89514090D01*
X161067680Y-89485589D01*
X155018302Y-83436211D01*
X155005406Y-83420113D01*
X154954275Y-83372098D01*
X154951478Y-83369387D01*
X154934727Y-83352636D01*
X154931971Y-83349880D01*
X154928790Y-83347412D01*
X154919922Y-83339837D01*
X154888082Y-83309938D01*
X154870524Y-83300285D01*
X154854264Y-83289604D01*
X154838436Y-83277327D01*
X154798351Y-83259980D01*
X154787861Y-83254841D01*
X154749591Y-83233802D01*
X154730191Y-83228821D01*
X154711784Y-83222519D01*
X154693397Y-83214562D01*
X154650258Y-83207729D01*
X154638824Y-83205361D01*
X154596519Y-83194500D01*
X154576484Y-83194500D01*
X154557086Y-83192973D01*
X154549662Y-83191797D01*
X154537305Y-83189840D01*
X154537304Y-83189840D01*
X154511968Y-83192235D01*
X154493825Y-83193950D01*
X154482156Y-83194500D01*
X141954444Y-83194500D01*
X141933937Y-83192235D01*
X141863827Y-83194439D01*
X141859932Y-83194500D01*
X141832350Y-83194500D01*
X141828505Y-83194985D01*
X141828480Y-83194987D01*
X141828353Y-83195004D01*
X141816733Y-83195918D01*
X141773069Y-83197290D01*
X141753829Y-83202880D01*
X141734781Y-83206825D01*
X141714909Y-83209335D01*
X141674299Y-83225413D01*
X141663254Y-83229194D01*
X141621310Y-83241381D01*
X141604065Y-83251579D01*
X141586604Y-83260133D01*
X141567967Y-83267512D01*
X141532631Y-83293185D01*
X141522874Y-83299595D01*
X141485280Y-83321829D01*
X141471113Y-83335996D01*
X141456324Y-83348626D01*
X141440113Y-83360404D01*
X141412272Y-83394058D01*
X141404411Y-83402697D01*
X140988769Y-83818338D01*
X140927446Y-83851823D01*
X140857754Y-83846839D01*
X140826778Y-83829924D01*
X140780533Y-83795305D01*
X140780531Y-83795304D01*
X140645683Y-83745009D01*
X140586073Y-83738600D01*
X140582751Y-83738600D01*
X140186253Y-83738600D01*
X140119214Y-83718915D01*
X140098572Y-83702281D01*
X130922502Y-74526211D01*
X130909606Y-74510113D01*
X130858475Y-74462098D01*
X130855678Y-74459387D01*
X130838927Y-74442636D01*
X130836171Y-74439880D01*
X130832990Y-74437412D01*
X130824122Y-74429837D01*
X130792282Y-74399938D01*
X130774724Y-74390285D01*
X130758464Y-74379604D01*
X130742636Y-74367327D01*
X130702551Y-74349980D01*
X130692061Y-74344841D01*
X130653791Y-74323802D01*
X130634391Y-74318821D01*
X130615984Y-74312519D01*
X130597597Y-74304562D01*
X130554458Y-74297729D01*
X130543024Y-74295361D01*
X130500719Y-74284500D01*
X130480684Y-74284500D01*
X130461286Y-74282973D01*
X130454428Y-74281887D01*
X130426031Y-74277389D01*
X130426422Y-74274916D01*
X130379844Y-74265889D01*
X130329327Y-74217621D01*
X130312926Y-74149704D01*
X130329392Y-74093733D01*
X130367179Y-74028284D01*
X130385591Y-73971617D01*
X130425674Y-73848256D01*
X130445460Y-73660000D01*
X130425674Y-73471744D01*
X130367293Y-73292066D01*
X130367179Y-73291715D01*
X130272533Y-73127783D01*
X130145870Y-72987110D01*
X129992730Y-72875848D01*
X129819802Y-72798855D01*
X129634648Y-72759500D01*
X129634646Y-72759500D01*
X129445354Y-72759500D01*
X129445352Y-72759500D01*
X129260198Y-72798855D01*
X129249945Y-72803420D01*
X129180695Y-72812703D01*
X129117419Y-72783073D01*
X129080207Y-72723937D01*
X129080873Y-72654071D01*
X129111829Y-72602460D01*
X129923789Y-71790500D01*
X129939885Y-71777606D01*
X129941873Y-71775487D01*
X129941877Y-71775486D01*
X129987949Y-71726423D01*
X129990534Y-71723755D01*
X130010120Y-71704171D01*
X130012585Y-71700992D01*
X130020167Y-71692116D01*
X130033500Y-71677918D01*
X130050062Y-71660282D01*
X130059712Y-71642727D01*
X130070400Y-71626457D01*
X130082671Y-71610638D01*
X130082673Y-71610636D01*
X130100026Y-71570532D01*
X130105157Y-71560062D01*
X130126197Y-71521792D01*
X130131175Y-71502399D01*
X130137481Y-71483982D01*
X130139018Y-71480428D01*
X130145438Y-71465596D01*
X130152272Y-71422445D01*
X130154635Y-71411031D01*
X130165500Y-71368719D01*
X130165500Y-71348683D01*
X130167027Y-71329284D01*
X130170160Y-71309504D01*
X130166050Y-71266024D01*
X130165500Y-71254355D01*
X130165500Y-62755772D01*
X130185185Y-62688733D01*
X130197350Y-62672799D01*
X130200470Y-62669334D01*
X130272533Y-62589301D01*
X130300064Y-62541617D01*
X130367179Y-62425369D01*
X130371505Y-62412055D01*
X130425674Y-62245341D01*
X130445460Y-62057085D01*
X130425674Y-61868829D01*
X130420304Y-61852304D01*
X130418310Y-61782465D01*
X130454390Y-61722632D01*
X130517091Y-61691804D01*
X130586506Y-61699769D01*
X130625917Y-61726307D01*
X131418180Y-62518570D01*
X131451665Y-62579893D01*
X131454499Y-62606251D01*
X131454499Y-63417260D01*
X131452235Y-63437771D01*
X131454439Y-63507873D01*
X131454500Y-63511768D01*
X131454500Y-63539350D01*
X131454988Y-63543219D01*
X131454989Y-63543225D01*
X131455004Y-63543343D01*
X131455918Y-63554967D01*
X131457290Y-63598626D01*
X131462879Y-63617860D01*
X131466825Y-63636916D01*
X131469335Y-63656792D01*
X131485414Y-63697404D01*
X131489197Y-63708451D01*
X131501382Y-63750391D01*
X131511580Y-63767635D01*
X131520136Y-63785100D01*
X131527514Y-63803732D01*
X131527515Y-63803733D01*
X131553180Y-63839059D01*
X131559593Y-63848822D01*
X131581826Y-63886416D01*
X131581829Y-63886419D01*
X131581830Y-63886420D01*
X131595995Y-63900585D01*
X131608627Y-63915375D01*
X131620406Y-63931587D01*
X131654058Y-63959426D01*
X131662699Y-63967289D01*
X134119196Y-66423787D01*
X134132096Y-66439888D01*
X134183223Y-66487900D01*
X134186020Y-66490611D01*
X134205529Y-66510120D01*
X134208709Y-66512587D01*
X134217571Y-66520155D01*
X134221600Y-66523939D01*
X134249418Y-66550062D01*
X134266970Y-66559711D01*
X134283238Y-66570397D01*
X134299064Y-66582673D01*
X134339146Y-66600017D01*
X134349633Y-66605155D01*
X134387907Y-66626197D01*
X134396410Y-66628379D01*
X134407308Y-66631178D01*
X134425713Y-66637478D01*
X134444104Y-66645437D01*
X134487250Y-66652270D01*
X134498668Y-66654635D01*
X134540981Y-66665500D01*
X134561016Y-66665500D01*
X134580415Y-66667027D01*
X134600196Y-66670160D01*
X134643674Y-66666050D01*
X134655344Y-66665500D01*
X134715547Y-66665500D01*
X134782586Y-66685185D01*
X134828341Y-66737989D01*
X134838285Y-66807147D01*
X134809260Y-66870703D01*
X134803228Y-66877181D01*
X133880608Y-67799799D01*
X133864510Y-67812696D01*
X133816496Y-67863825D01*
X133813792Y-67866616D01*
X133797028Y-67883380D01*
X133797021Y-67883387D01*
X133794280Y-67886129D01*
X133791899Y-67889197D01*
X133791890Y-67889208D01*
X133791811Y-67889311D01*
X133784242Y-67898172D01*
X133754335Y-67930020D01*
X133744685Y-67947574D01*
X133734009Y-67963828D01*
X133721726Y-67979663D01*
X133704375Y-68019758D01*
X133699238Y-68030244D01*
X133678202Y-68068507D01*
X133673221Y-68087909D01*
X133666920Y-68106311D01*
X133658961Y-68124702D01*
X133652128Y-68167842D01*
X133649760Y-68179274D01*
X133638899Y-68221577D01*
X133638900Y-68241616D01*
X133637373Y-68261014D01*
X133634239Y-68280796D01*
X133638349Y-68324276D01*
X133638899Y-68335943D01*
X133638899Y-70972123D01*
X133619214Y-71039162D01*
X133566410Y-71084917D01*
X133558235Y-71088304D01*
X133539469Y-71095303D01*
X133424254Y-71181553D01*
X133338004Y-71296768D01*
X133287709Y-71431616D01*
X133284056Y-71465597D01*
X133281300Y-71491227D01*
X133281300Y-71494548D01*
X133281300Y-71494549D01*
X133281300Y-72015460D01*
X133281300Y-72015478D01*
X133281301Y-72018772D01*
X133287709Y-72078383D01*
X133338004Y-72213231D01*
X133399008Y-72294722D01*
X133414704Y-72315689D01*
X133439121Y-72381154D01*
X133424269Y-72449427D01*
X133414704Y-72464311D01*
X133338004Y-72566768D01*
X133287709Y-72701616D01*
X133282703Y-72748181D01*
X133281300Y-72761227D01*
X133281300Y-72764548D01*
X133281300Y-72764549D01*
X133281300Y-73285460D01*
X133281300Y-73285478D01*
X133281301Y-73288772D01*
X133287709Y-73348383D01*
X133338004Y-73483231D01*
X133378465Y-73537280D01*
X133414704Y-73585689D01*
X133439121Y-73651154D01*
X133424269Y-73719427D01*
X133414704Y-73734311D01*
X133338004Y-73836768D01*
X133287709Y-73971616D01*
X133281838Y-74026227D01*
X133281300Y-74031227D01*
X133281300Y-74034548D01*
X133281300Y-74034549D01*
X133281300Y-74555460D01*
X133281300Y-74555478D01*
X133281301Y-74558772D01*
X133281653Y-74562052D01*
X133281654Y-74562059D01*
X133287709Y-74618384D01*
X133301835Y-74656257D01*
X133338004Y-74753231D01*
X133370912Y-74797190D01*
X133414704Y-74855689D01*
X133439121Y-74921154D01*
X133424269Y-74989427D01*
X133414704Y-75004311D01*
X133338004Y-75106768D01*
X133287709Y-75241616D01*
X133286199Y-75255666D01*
X133281300Y-75301227D01*
X133281300Y-75304548D01*
X133281300Y-75304549D01*
X133281300Y-75825460D01*
X133281300Y-75825478D01*
X133281301Y-75828772D01*
X133287709Y-75888383D01*
X133338004Y-76023231D01*
X133424254Y-76138446D01*
X133539469Y-76224696D01*
X133674317Y-76274991D01*
X133733927Y-76281400D01*
X134044847Y-76281399D01*
X134111886Y-76301083D01*
X134132528Y-76317718D01*
X136938596Y-79123787D01*
X136951496Y-79139888D01*
X137002623Y-79187900D01*
X137005420Y-79190611D01*
X137024929Y-79210120D01*
X137028109Y-79212587D01*
X137036971Y-79220155D01*
X137068818Y-79250062D01*
X137086372Y-79259712D01*
X137102636Y-79270396D01*
X137106705Y-79273552D01*
X137118464Y-79282673D01*
X137143309Y-79293424D01*
X137158552Y-79300021D01*
X137169031Y-79305154D01*
X137207308Y-79326197D01*
X137226706Y-79331177D01*
X137245108Y-79337477D01*
X137263504Y-79345438D01*
X137306661Y-79352273D01*
X137318064Y-79354634D01*
X137360381Y-79365500D01*
X137380416Y-79365500D01*
X137399813Y-79367026D01*
X137419596Y-79370160D01*
X137463074Y-79366050D01*
X137474744Y-79365500D01*
X152605429Y-79365500D01*
X152625935Y-79367764D01*
X152628838Y-79367672D01*
X152628840Y-79367673D01*
X152696045Y-79365561D01*
X152699941Y-79365500D01*
X152723621Y-79365500D01*
X152727523Y-79365500D01*
X152731486Y-79364999D01*
X152743135Y-79364080D01*
X152786800Y-79362709D01*
X152806032Y-79357120D01*
X152825091Y-79353174D01*
X152832264Y-79352268D01*
X152844965Y-79350664D01*
X152885580Y-79334582D01*
X152896617Y-79330803D01*
X152938563Y-79318618D01*
X152955802Y-79308422D01*
X152973275Y-79299862D01*
X152991905Y-79292486D01*
X153027237Y-79266814D01*
X153037003Y-79260400D01*
X153074591Y-79238171D01*
X153074590Y-79238171D01*
X153074593Y-79238170D01*
X153088758Y-79224004D01*
X153103546Y-79211373D01*
X153119760Y-79199594D01*
X153147611Y-79165926D01*
X153155452Y-79157309D01*
X155204108Y-77108654D01*
X155265429Y-77075171D01*
X155335121Y-77080155D01*
X155391054Y-77122027D01*
X155396587Y-77132609D01*
X155397578Y-77131999D01*
X155497288Y-77293657D01*
X155621342Y-77417711D01*
X155621344Y-77417712D01*
X155718097Y-77477389D01*
X155764821Y-77529335D01*
X155777000Y-77582927D01*
X155777000Y-79507046D01*
X155757315Y-79574085D01*
X155740681Y-79594727D01*
X154992228Y-80343181D01*
X154930905Y-80376666D01*
X154904547Y-80379500D01*
X154845352Y-80379500D01*
X154660197Y-80418855D01*
X154487269Y-80495848D01*
X154334129Y-80607110D01*
X154207466Y-80747783D01*
X154112820Y-80911715D01*
X154054326Y-81091742D01*
X154034540Y-81280000D01*
X154054326Y-81468257D01*
X154112820Y-81648284D01*
X154207466Y-81812216D01*
X154334129Y-81952889D01*
X154487269Y-82064151D01*
X154660197Y-82141144D01*
X154845352Y-82180500D01*
X154845354Y-82180500D01*
X155034648Y-82180500D01*
X155158083Y-82154262D01*
X155219803Y-82141144D01*
X155392730Y-82064151D01*
X155483354Y-81998309D01*
X155545870Y-81952889D01*
X155560079Y-81937109D01*
X155672533Y-81812216D01*
X155767179Y-81648284D01*
X155825674Y-81468256D01*
X155843321Y-81300344D01*
X155869904Y-81235734D01*
X155878951Y-81225638D01*
X156786289Y-80318300D01*
X156802385Y-80305406D01*
X156804373Y-80303287D01*
X156804377Y-80303286D01*
X156850449Y-80254223D01*
X156853034Y-80251555D01*
X156872620Y-80231971D01*
X156875085Y-80228792D01*
X156882667Y-80219916D01*
X156884392Y-80218079D01*
X156912562Y-80188082D01*
X156922217Y-80170518D01*
X156932894Y-80154264D01*
X156945173Y-80138436D01*
X156962518Y-80098352D01*
X156967660Y-80087856D01*
X156969156Y-80085135D01*
X156988697Y-80049592D01*
X156993679Y-80030184D01*
X156999981Y-80011780D01*
X157007937Y-79993396D01*
X157014769Y-79950252D01*
X157017133Y-79938838D01*
X157028000Y-79896519D01*
X157028000Y-79876483D01*
X157029527Y-79857084D01*
X157030182Y-79852946D01*
X157032660Y-79837304D01*
X157028550Y-79793824D01*
X157028000Y-79782155D01*
X157028000Y-77582927D01*
X157047685Y-77515888D01*
X157086901Y-77477390D01*
X157183656Y-77417712D01*
X157307712Y-77293656D01*
X157399814Y-77144334D01*
X157454999Y-76977797D01*
X157465500Y-76875009D01*
X157465499Y-75524992D01*
X157454999Y-75422203D01*
X157399814Y-75255666D01*
X157307712Y-75106344D01*
X157307711Y-75106342D01*
X157183657Y-74982288D01*
X157034334Y-74890186D01*
X156867797Y-74835000D01*
X156768141Y-74824819D01*
X156768122Y-74824818D01*
X156765009Y-74824500D01*
X156761860Y-74824500D01*
X156043141Y-74824500D01*
X156043121Y-74824500D01*
X156039992Y-74824501D01*
X156036860Y-74824820D01*
X156036858Y-74824821D01*
X155937203Y-74835000D01*
X155770665Y-74890186D01*
X155754596Y-74900098D01*
X155687203Y-74918538D01*
X155620540Y-74897615D01*
X155575771Y-74843972D01*
X155565500Y-74794559D01*
X155565500Y-73007601D01*
X155585185Y-72940562D01*
X155601814Y-72919925D01*
X157692336Y-70829402D01*
X157708436Y-70816505D01*
X157710424Y-70814387D01*
X157710427Y-70814386D01*
X157756514Y-70765307D01*
X157759099Y-70762639D01*
X157778670Y-70743070D01*
X157781115Y-70739916D01*
X157788704Y-70731029D01*
X157818612Y-70699182D01*
X157828263Y-70681626D01*
X157838943Y-70665367D01*
X157851224Y-70649536D01*
X157851224Y-70649535D01*
X157860829Y-70637154D01*
X157862301Y-70638295D01*
X157894047Y-70600144D01*
X157960680Y-70579124D01*
X157963158Y-70579099D01*
X158311961Y-70579099D01*
X158315272Y-70579099D01*
X158374883Y-70572691D01*
X158509731Y-70522396D01*
X158624946Y-70436146D01*
X158711196Y-70320931D01*
X158733046Y-70262345D01*
X158774917Y-70206413D01*
X158840381Y-70181996D01*
X158908654Y-70196848D01*
X158936909Y-70217999D01*
X163001081Y-74282170D01*
X163034566Y-74343493D01*
X163037400Y-74369851D01*
X163037400Y-78360459D01*
X163037400Y-78360477D01*
X163037401Y-78363771D01*
X163043809Y-78423382D01*
X163094104Y-78558230D01*
X163180354Y-78673445D01*
X163295569Y-78759695D01*
X163430417Y-78809990D01*
X163490027Y-78816399D01*
X168106972Y-78816398D01*
X168166583Y-78809990D01*
X168301431Y-78759695D01*
X168416646Y-78673445D01*
X168502896Y-78558230D01*
X168553191Y-78423382D01*
X168559600Y-78363772D01*
X168559599Y-74026227D01*
X168553191Y-73966616D01*
X168502896Y-73831768D01*
X168416646Y-73716553D01*
X168301431Y-73630303D01*
X168166583Y-73580008D01*
X168106973Y-73573599D01*
X168103651Y-73573599D01*
X164113053Y-73573599D01*
X164046014Y-73553914D01*
X164025372Y-73537280D01*
X158804218Y-68316126D01*
X158770733Y-68254803D01*
X158767899Y-68228445D01*
X158767899Y-68210479D01*
X163037400Y-68210479D01*
X163037401Y-68213773D01*
X163037753Y-68217053D01*
X163037754Y-68217060D01*
X163043809Y-68273385D01*
X163057615Y-68310400D01*
X163094104Y-68408232D01*
X163180354Y-68523447D01*
X163295569Y-68609697D01*
X163430417Y-68659992D01*
X163490027Y-68666401D01*
X168106972Y-68666400D01*
X168166583Y-68659992D01*
X168301431Y-68609697D01*
X168416646Y-68523447D01*
X168502896Y-68408232D01*
X168553191Y-68273384D01*
X168559600Y-68213774D01*
X168559599Y-63876229D01*
X168553191Y-63816618D01*
X168502896Y-63681770D01*
X168416646Y-63566555D01*
X168301431Y-63480305D01*
X168166583Y-63430010D01*
X168106973Y-63423601D01*
X168103650Y-63423601D01*
X163493339Y-63423601D01*
X163493320Y-63423601D01*
X163490028Y-63423602D01*
X163486748Y-63423954D01*
X163486740Y-63423955D01*
X163430415Y-63430010D01*
X163295569Y-63480305D01*
X163180354Y-63566555D01*
X163094104Y-63681769D01*
X163043809Y-63816617D01*
X163040347Y-63848822D01*
X163037400Y-63876228D01*
X163037400Y-63879549D01*
X163037400Y-63879550D01*
X163037400Y-68210461D01*
X163037400Y-68210479D01*
X158767899Y-68210479D01*
X158767899Y-67036839D01*
X158767899Y-67036838D01*
X158767899Y-67033528D01*
X158761491Y-66973917D01*
X158711196Y-66839069D01*
X158624946Y-66723854D01*
X158509731Y-66637604D01*
X158374883Y-66587309D01*
X158331764Y-66582673D01*
X158318566Y-66581254D01*
X158318565Y-66581253D01*
X158315273Y-66580900D01*
X158311950Y-66580900D01*
X156305139Y-66580900D01*
X156305120Y-66580900D01*
X156301828Y-66580901D01*
X156298548Y-66581253D01*
X156298540Y-66581254D01*
X156242215Y-66587309D01*
X156107369Y-66637604D01*
X155992153Y-66723854D01*
X155989867Y-66726909D01*
X155933934Y-66768781D01*
X155890599Y-66776600D01*
X153989401Y-66776600D01*
X153922362Y-66756915D01*
X153890133Y-66726909D01*
X153887846Y-66723854D01*
X153772631Y-66637604D01*
X153637783Y-66587309D01*
X153581466Y-66581254D01*
X153581465Y-66581253D01*
X153578173Y-66580900D01*
X153574851Y-66580900D01*
X153320950Y-66580900D01*
X153253911Y-66561215D01*
X153208156Y-66508411D01*
X153196950Y-66456900D01*
X153196950Y-59944499D01*
X153216635Y-59877460D01*
X153269439Y-59831705D01*
X153320950Y-59820499D01*
X153836859Y-59820499D01*
X153840008Y-59820499D01*
X153942797Y-59809999D01*
X154109334Y-59754814D01*
X154258656Y-59662712D01*
X154382712Y-59538656D01*
X154474814Y-59389334D01*
X154529999Y-59222797D01*
X154540500Y-59120009D01*
X154540499Y-58280450D01*
X154560183Y-58213412D01*
X154576813Y-58192775D01*
X162037771Y-50731819D01*
X162099095Y-50698334D01*
X162125453Y-50695500D01*
X163475501Y-50695500D01*
X163542540Y-50715185D01*
X163588295Y-50767989D01*
X163599501Y-50819500D01*
X163599501Y-52167872D01*
X163599853Y-52171152D01*
X163599854Y-52171159D01*
X163605909Y-52227484D01*
X163631056Y-52294906D01*
X163656204Y-52362331D01*
X163742454Y-52477546D01*
X163857669Y-52563796D01*
X163992517Y-52614091D01*
X164052127Y-52620500D01*
X166147872Y-52620499D01*
X166207483Y-52614091D01*
X166342331Y-52563796D01*
X166457546Y-52477546D01*
X166543796Y-52362331D01*
X166594091Y-52227483D01*
X166600500Y-52167873D01*
X166600500Y-50819500D01*
X166620185Y-50752461D01*
X166672989Y-50706706D01*
X166724500Y-50695500D01*
X169139548Y-50695500D01*
X169206587Y-50715185D01*
X169227229Y-50731819D01*
X171781038Y-53285629D01*
X171814523Y-53346952D01*
X171816678Y-53360348D01*
X171834326Y-53528257D01*
X171892820Y-53708284D01*
X171987466Y-53872216D01*
X172114129Y-54012889D01*
X172267269Y-54124151D01*
X172440197Y-54201144D01*
X172625352Y-54240500D01*
X172625354Y-54240500D01*
X172814648Y-54240500D01*
X172938083Y-54214262D01*
X172999803Y-54201144D01*
X173172730Y-54124151D01*
X173325871Y-54012888D01*
X173452533Y-53872216D01*
X173547179Y-53708284D01*
X173605674Y-53528256D01*
X173625460Y-53340000D01*
X173605674Y-53151744D01*
X173547179Y-52971716D01*
X173547179Y-52971715D01*
X173452533Y-52807783D01*
X173325870Y-52667110D01*
X173172730Y-52555848D01*
X172999802Y-52478855D01*
X172814648Y-52439500D01*
X172814646Y-52439500D01*
X172755453Y-52439500D01*
X172688414Y-52419815D01*
X172667772Y-52403181D01*
X169950802Y-49686211D01*
X169937906Y-49670113D01*
X169886775Y-49622098D01*
X169883978Y-49619387D01*
X169867227Y-49602636D01*
X169864471Y-49599880D01*
X169861290Y-49597412D01*
X169852422Y-49589837D01*
X169820582Y-49559938D01*
X169803024Y-49550285D01*
X169786764Y-49539604D01*
X169770936Y-49527327D01*
X169730851Y-49509980D01*
X169720361Y-49504841D01*
X169682091Y-49483802D01*
X169662691Y-49478821D01*
X169644284Y-49472519D01*
X169625897Y-49464562D01*
X169582758Y-49457729D01*
X169571324Y-49455361D01*
X169529019Y-49444500D01*
X169508984Y-49444500D01*
X169489586Y-49442973D01*
X169482162Y-49441797D01*
X169469805Y-49439840D01*
X169469804Y-49439840D01*
X169443484Y-49442328D01*
X169426325Y-49443950D01*
X169414656Y-49444500D01*
X166724499Y-49444500D01*
X166657460Y-49424815D01*
X166611705Y-49372011D01*
X166600499Y-49320500D01*
X166600499Y-47975439D01*
X166600499Y-47975438D01*
X166600499Y-47972128D01*
X166594091Y-47912517D01*
X166543796Y-47777669D01*
X166457546Y-47662454D01*
X166342331Y-47576204D01*
X166207483Y-47525909D01*
X166147873Y-47519500D01*
X166144550Y-47519500D01*
X164055439Y-47519500D01*
X164055420Y-47519500D01*
X164052128Y-47519501D01*
X164048848Y-47519853D01*
X164048840Y-47519854D01*
X163992515Y-47525909D01*
X163857669Y-47576204D01*
X163742454Y-47662454D01*
X163656204Y-47777668D01*
X163605910Y-47912515D01*
X163605909Y-47912517D01*
X163599500Y-47972127D01*
X163599500Y-47975448D01*
X163599500Y-47975449D01*
X163599500Y-49320500D01*
X163579815Y-49387539D01*
X163527011Y-49433294D01*
X163475500Y-49444500D01*
X161897740Y-49444500D01*
X161877236Y-49442236D01*
X161807144Y-49444439D01*
X161803250Y-49444500D01*
X161775650Y-49444500D01*
X161771799Y-49444986D01*
X161771768Y-49444988D01*
X161771640Y-49445005D01*
X161760028Y-49445918D01*
X161716368Y-49447290D01*
X161697128Y-49452880D01*
X161678081Y-49456825D01*
X161658209Y-49459335D01*
X161617599Y-49475413D01*
X161606554Y-49479194D01*
X161564611Y-49491380D01*
X161547369Y-49501578D01*
X161529897Y-49510138D01*
X161511266Y-49517514D01*
X161475938Y-49543181D01*
X161466180Y-49549591D01*
X161428579Y-49571829D01*
X161414410Y-49585998D01*
X161399622Y-49598628D01*
X161383413Y-49610405D01*
X161355572Y-49644058D01*
X161347711Y-49652696D01*
X154009513Y-56990894D01*
X153948190Y-57024379D01*
X153909231Y-57026571D01*
X153843143Y-57019820D01*
X153843139Y-57019819D01*
X153840009Y-57019500D01*
X153836860Y-57019500D01*
X153093141Y-57019500D01*
X153093121Y-57019500D01*
X153089992Y-57019501D01*
X153086860Y-57019820D01*
X153086858Y-57019821D01*
X153020768Y-57026572D01*
X152952075Y-57013802D01*
X152920486Y-56990895D01*
X148624091Y-52694500D01*
X148590606Y-52633177D01*
X148595590Y-52563485D01*
X148637460Y-52507554D01*
X148677546Y-52477546D01*
X148763796Y-52362331D01*
X148814091Y-52227483D01*
X148820500Y-52167873D01*
X148820499Y-47972128D01*
X148814091Y-47912517D01*
X148763796Y-47777669D01*
X148677546Y-47662454D01*
X148562331Y-47576204D01*
X148427483Y-47525909D01*
X148367873Y-47519500D01*
X148364550Y-47519500D01*
X146275439Y-47519500D01*
X146275420Y-47519500D01*
X146272128Y-47519501D01*
X146268848Y-47519853D01*
X146268840Y-47519854D01*
X146212515Y-47525909D01*
X146077669Y-47576204D01*
X145962454Y-47662454D01*
X145876204Y-47777668D01*
X145825910Y-47912515D01*
X145825909Y-47912517D01*
X145819500Y-47972127D01*
X145819500Y-47975449D01*
X145819500Y-50634547D01*
X145799815Y-50701586D01*
X145783181Y-50722228D01*
X141287228Y-55218181D01*
X141225905Y-55251666D01*
X141199547Y-55254500D01*
X137242744Y-55254500D01*
X137222236Y-55252235D01*
X137152113Y-55254439D01*
X137148219Y-55254500D01*
X137120650Y-55254500D01*
X137116794Y-55254986D01*
X137116791Y-55254987D01*
X137116735Y-55254994D01*
X137116662Y-55255003D01*
X137105043Y-55255917D01*
X137061372Y-55257289D01*
X137042128Y-55262880D01*
X137023084Y-55266824D01*
X137003208Y-55269335D01*
X136962600Y-55285413D01*
X136951554Y-55289194D01*
X136909610Y-55301382D01*
X136909607Y-55301383D01*
X136892365Y-55311579D01*
X136874904Y-55320133D01*
X136856267Y-55327512D01*
X136820931Y-55353185D01*
X136811174Y-55359595D01*
X136773580Y-55381829D01*
X136759413Y-55395996D01*
X136744624Y-55408626D01*
X136728413Y-55420404D01*
X136700572Y-55454058D01*
X136692711Y-55462697D01*
X133853126Y-58302281D01*
X133791803Y-58335766D01*
X133765445Y-58338600D01*
X133470539Y-58338600D01*
X133470520Y-58338600D01*
X133467228Y-58338601D01*
X133463948Y-58338953D01*
X133463940Y-58338954D01*
X133407615Y-58345009D01*
X133272769Y-58395304D01*
X133157554Y-58481554D01*
X133071304Y-58596768D01*
X133021010Y-58731615D01*
X133021009Y-58731617D01*
X133014600Y-58791227D01*
X133014600Y-58794548D01*
X133014600Y-58794549D01*
X133014600Y-59315460D01*
X133014600Y-59315478D01*
X133014601Y-59318772D01*
X133021009Y-59378383D01*
X133071304Y-59513231D01*
X133090338Y-59538657D01*
X133148004Y-59615689D01*
X133172421Y-59681154D01*
X133157569Y-59749427D01*
X133148004Y-59764311D01*
X133071304Y-59866768D01*
X133021010Y-60001615D01*
X133021009Y-60001617D01*
X133014600Y-60061227D01*
X133014600Y-60064548D01*
X133014600Y-60064549D01*
X133014600Y-60585460D01*
X133014600Y-60585478D01*
X133014601Y-60588772D01*
X133021009Y-60648383D01*
X133071304Y-60783231D01*
X133130161Y-60861854D01*
X133148004Y-60885689D01*
X133172421Y-60951154D01*
X133157569Y-61019427D01*
X133148004Y-61034311D01*
X133071304Y-61136768D01*
X133021009Y-61271616D01*
X133017568Y-61303626D01*
X133014600Y-61331227D01*
X133014600Y-61334548D01*
X133014600Y-61334549D01*
X133014600Y-61855460D01*
X133014600Y-61855478D01*
X133014601Y-61858772D01*
X133014953Y-61862052D01*
X133014954Y-61862059D01*
X133021009Y-61918384D01*
X133035488Y-61957203D01*
X133071304Y-62053231D01*
X133078723Y-62063141D01*
X133148004Y-62155689D01*
X133172421Y-62221154D01*
X133157569Y-62289427D01*
X133148004Y-62304311D01*
X133071304Y-62406768D01*
X133021009Y-62541616D01*
X133015883Y-62589298D01*
X133014600Y-62601227D01*
X133014600Y-62604548D01*
X133014600Y-62604549D01*
X133014600Y-63125460D01*
X133014600Y-63125478D01*
X133014601Y-63128772D01*
X133014953Y-63132052D01*
X133014954Y-63132059D01*
X133021009Y-63188384D01*
X133040732Y-63241263D01*
X133045716Y-63310954D01*
X133012231Y-63372277D01*
X132950908Y-63405762D01*
X132881216Y-63400778D01*
X132836869Y-63372277D01*
X132741819Y-63277227D01*
X132708334Y-63215904D01*
X132705500Y-63189546D01*
X132705500Y-62378543D01*
X132707764Y-62358039D01*
X132705561Y-62287926D01*
X132705500Y-62284031D01*
X132705500Y-62260340D01*
X132705500Y-62256450D01*
X132704998Y-62252477D01*
X132704080Y-62240818D01*
X132703462Y-62221154D01*
X132702709Y-62197173D01*
X132697120Y-62177940D01*
X132693174Y-62158882D01*
X132690664Y-62139006D01*
X132674588Y-62098404D01*
X132670804Y-62087353D01*
X132662010Y-62057085D01*
X132658618Y-62045410D01*
X132648414Y-62028155D01*
X132639861Y-62010695D01*
X132632486Y-61992069D01*
X132632486Y-61992068D01*
X132606808Y-61956725D01*
X132600401Y-61946971D01*
X132578169Y-61909379D01*
X132564006Y-61895216D01*
X132551367Y-61880417D01*
X132539595Y-61864213D01*
X132505941Y-61836373D01*
X132497299Y-61828509D01*
X128705002Y-58036211D01*
X128692106Y-58020113D01*
X128640975Y-57972098D01*
X128638178Y-57969387D01*
X128621427Y-57952636D01*
X128618671Y-57949880D01*
X128615490Y-57947412D01*
X128606622Y-57939837D01*
X128574782Y-57909938D01*
X128557224Y-57900285D01*
X128540964Y-57889604D01*
X128525136Y-57877327D01*
X128485051Y-57859980D01*
X128474561Y-57854841D01*
X128436291Y-57833802D01*
X128416891Y-57828821D01*
X128398484Y-57822519D01*
X128380097Y-57814562D01*
X128336958Y-57807729D01*
X128325524Y-57805361D01*
X128283219Y-57794500D01*
X128263184Y-57794500D01*
X128243786Y-57792973D01*
X128236362Y-57791797D01*
X128224005Y-57789840D01*
X128224004Y-57789840D01*
X128190951Y-57792964D01*
X128180525Y-57793950D01*
X128168856Y-57794500D01*
X113135453Y-57794500D01*
X113068414Y-57774815D01*
X113047772Y-57758181D01*
X103029104Y-47739513D01*
X102995619Y-47678190D01*
X102993427Y-47639236D01*
X103000500Y-47570009D01*
X103000499Y-46819992D01*
X102989999Y-46717203D01*
X102934814Y-46550666D01*
X102926463Y-46537127D01*
X102908023Y-46469738D01*
X102928945Y-46403074D01*
X102982586Y-46358304D01*
X103051401Y-46349559D01*
X103055196Y-46350160D01*
X103098674Y-46346050D01*
X103110344Y-46345500D01*
X110729101Y-46345500D01*
X110796140Y-46365185D01*
X110841895Y-46417989D01*
X110853101Y-46469500D01*
X110853101Y-46580672D01*
X110859509Y-46640283D01*
X110909804Y-46775131D01*
X110996054Y-46890346D01*
X111111269Y-46976596D01*
X111246117Y-47026891D01*
X111305727Y-47033300D01*
X111432800Y-47033299D01*
X111499839Y-47052983D01*
X111545594Y-47105787D01*
X111549126Y-47122026D01*
X111556800Y-47129700D01*
X116907348Y-47129700D01*
X116974387Y-47149385D01*
X116995029Y-47166019D01*
X119858181Y-50029171D01*
X119891666Y-50090494D01*
X119894500Y-50116852D01*
X119894500Y-51918521D01*
X119874815Y-51985560D01*
X119835597Y-52024060D01*
X119676341Y-52122289D01*
X119552288Y-52246342D01*
X119460186Y-52395665D01*
X119405000Y-52562202D01*
X119394819Y-52661858D01*
X119394817Y-52661878D01*
X119394500Y-52664991D01*
X119394500Y-52668138D01*
X119394500Y-52668139D01*
X119394500Y-54011859D01*
X119394500Y-54011878D01*
X119394501Y-54015008D01*
X119394820Y-54018140D01*
X119394821Y-54018141D01*
X119405000Y-54117796D01*
X119460186Y-54284334D01*
X119552288Y-54433657D01*
X119676342Y-54557711D01*
X119676344Y-54557712D01*
X119825666Y-54649814D01*
X119937016Y-54686712D01*
X119992202Y-54704999D01*
X120091858Y-54715180D01*
X120091859Y-54715180D01*
X120094991Y-54715500D01*
X120945008Y-54715499D01*
X121047797Y-54704999D01*
X121214334Y-54649814D01*
X121363656Y-54557712D01*
X121487712Y-54433656D01*
X121579814Y-54284334D01*
X121634999Y-54117797D01*
X121645500Y-54015009D01*
X121645499Y-53150450D01*
X121665183Y-53083412D01*
X121681813Y-53062775D01*
X121982821Y-52761767D01*
X122044142Y-52728284D01*
X122113834Y-52733268D01*
X122169767Y-52775140D01*
X122194184Y-52840604D01*
X122194500Y-52849450D01*
X122194500Y-54011859D01*
X122194500Y-54011878D01*
X122194501Y-54015008D01*
X122194820Y-54018140D01*
X122194821Y-54018141D01*
X122205000Y-54117796D01*
X122260186Y-54284334D01*
X122352288Y-54433657D01*
X122476342Y-54557711D01*
X122476344Y-54557712D01*
X122625666Y-54649814D01*
X122737016Y-54686712D01*
X122792202Y-54704999D01*
X122891858Y-54715180D01*
X122891859Y-54715180D01*
X122894991Y-54715500D01*
X123745008Y-54715499D01*
X123847797Y-54704999D01*
X124014334Y-54649814D01*
X124163656Y-54557712D01*
X124287712Y-54433656D01*
X124379814Y-54284334D01*
X124434999Y-54117797D01*
X124445500Y-54015009D01*
X124445499Y-52664992D01*
X124434999Y-52562203D01*
X124379814Y-52395666D01*
X124287712Y-52246344D01*
X124287711Y-52246342D01*
X124163657Y-52122288D01*
X124014334Y-52030186D01*
X123847797Y-51975000D01*
X123748141Y-51964819D01*
X123748122Y-51964818D01*
X123745009Y-51964500D01*
X123741860Y-51964500D01*
X123079451Y-51964500D01*
X123012412Y-51944815D01*
X122966657Y-51892011D01*
X122956713Y-51822853D01*
X122985738Y-51759297D01*
X122991756Y-51752833D01*
X127517744Y-47226845D01*
X127579065Y-47193362D01*
X127648757Y-47198346D01*
X127704690Y-47240218D01*
X127770060Y-47327542D01*
X127770061Y-47327542D01*
X127770062Y-47327544D01*
X127885277Y-47413794D01*
X128020125Y-47464089D01*
X128079735Y-47470498D01*
X128206808Y-47470497D01*
X128273847Y-47490181D01*
X128319602Y-47542985D01*
X128330808Y-47594497D01*
X128330808Y-47819196D01*
X135829192Y-47819196D01*
X135829192Y-47020798D01*
X133845196Y-47020798D01*
X133778157Y-47001113D01*
X133732402Y-46948309D01*
X133721196Y-46896798D01*
X133721196Y-44543202D01*
X133740881Y-44476163D01*
X133793685Y-44430408D01*
X133845196Y-44419202D01*
X135829192Y-44419202D01*
X135829192Y-43620804D01*
X128330808Y-43620804D01*
X128330808Y-43845502D01*
X128311123Y-43912541D01*
X128258319Y-43958296D01*
X128206809Y-43969502D01*
X128083047Y-43969502D01*
X128083028Y-43969502D01*
X128079736Y-43969503D01*
X128076456Y-43969855D01*
X128076448Y-43969856D01*
X128020123Y-43975911D01*
X127885277Y-44026206D01*
X127770062Y-44112456D01*
X127683812Y-44227670D01*
X127638284Y-44349739D01*
X127633517Y-44362519D01*
X127627108Y-44422129D01*
X127627107Y-44425432D01*
X127627107Y-44425451D01*
X127627107Y-45296938D01*
X127607422Y-45363978D01*
X127590788Y-45384619D01*
X121357180Y-51618227D01*
X121295857Y-51651712D01*
X121226165Y-51646728D01*
X121170232Y-51604856D01*
X121145815Y-51539392D01*
X121145500Y-51530573D01*
X121145500Y-49889129D01*
X121147763Y-49868642D01*
X121145561Y-49798544D01*
X121145500Y-49794650D01*
X121145500Y-49770944D01*
X121145500Y-49767050D01*
X121144998Y-49763081D01*
X121144080Y-49751424D01*
X121142709Y-49707773D01*
X121137120Y-49688537D01*
X121133176Y-49669493D01*
X121130664Y-49649608D01*
X121114582Y-49608991D01*
X121110798Y-49597940D01*
X121098617Y-49556010D01*
X121091030Y-49543181D01*
X121088421Y-49538769D01*
X121079863Y-49521302D01*
X121072486Y-49502668D01*
X121046798Y-49467312D01*
X121040409Y-49457584D01*
X121018170Y-49419979D01*
X121004006Y-49405815D01*
X120991369Y-49391020D01*
X120979595Y-49374814D01*
X120976207Y-49372011D01*
X120945935Y-49346968D01*
X120937305Y-49339114D01*
X117783218Y-46185026D01*
X117749733Y-46123703D01*
X117746899Y-46097345D01*
X117746899Y-44862639D01*
X117746899Y-44862638D01*
X117746899Y-44859328D01*
X117740491Y-44799717D01*
X117690196Y-44664869D01*
X117603946Y-44549654D01*
X117488731Y-44463404D01*
X117353883Y-44413109D01*
X117294273Y-44406700D01*
X117290951Y-44406700D01*
X117167200Y-44406700D01*
X117100161Y-44387015D01*
X117054406Y-44334211D01*
X117050873Y-44317973D01*
X117043200Y-44310300D01*
X111556800Y-44310300D01*
X111545326Y-44321773D01*
X111537115Y-44349739D01*
X111484311Y-44395494D01*
X111432801Y-44406700D01*
X111309039Y-44406700D01*
X111309020Y-44406700D01*
X111305728Y-44406701D01*
X111302448Y-44407053D01*
X111302440Y-44407054D01*
X111246115Y-44413109D01*
X111111269Y-44463404D01*
X110996054Y-44549654D01*
X110909804Y-44664868D01*
X110859510Y-44799715D01*
X110859509Y-44799717D01*
X110853100Y-44859327D01*
X110853100Y-44862649D01*
X110853100Y-44970500D01*
X110833415Y-45037539D01*
X110780611Y-45083294D01*
X110729100Y-45094500D01*
X103385452Y-45094500D01*
X103318413Y-45074815D01*
X103297771Y-45058181D01*
X103029104Y-44789514D01*
X102995619Y-44728191D01*
X102993427Y-44689237D01*
X103000500Y-44620009D01*
X103000499Y-43869992D01*
X102989999Y-43767203D01*
X102934814Y-43600666D01*
X102842712Y-43451344D01*
X102842711Y-43451342D01*
X102718657Y-43327288D01*
X102569334Y-43235186D01*
X102402797Y-43180000D01*
X102303141Y-43169819D01*
X102303122Y-43169818D01*
X102300009Y-43169500D01*
X102296860Y-43169500D01*
X100903140Y-43169500D01*
X100903120Y-43169500D01*
X100899992Y-43169501D01*
X100896860Y-43169820D01*
X100896858Y-43169821D01*
X100797203Y-43180000D01*
X100630665Y-43235186D01*
X100481342Y-43327288D01*
X100357288Y-43451342D01*
X100265186Y-43600665D01*
X100210000Y-43767202D01*
X100199819Y-43866858D01*
X100199817Y-43866878D01*
X100199500Y-43869991D01*
X100199500Y-43873138D01*
X100199500Y-43873139D01*
X100199500Y-44616858D01*
X100199500Y-44616877D01*
X100199501Y-44620008D01*
X100199820Y-44623140D01*
X100199821Y-44623141D01*
X100210000Y-44722796D01*
X100265186Y-44889334D01*
X100357288Y-45038657D01*
X100481342Y-45162711D01*
X100481344Y-45162712D01*
X100630666Y-45254814D01*
X100742016Y-45291712D01*
X100797202Y-45309999D01*
X100896858Y-45320180D01*
X100896859Y-45320180D01*
X100899991Y-45320500D01*
X101739546Y-45320499D01*
X101806585Y-45340183D01*
X101827227Y-45356818D01*
X102378228Y-45907819D01*
X102411713Y-45969142D01*
X102406729Y-46038834D01*
X102364857Y-46094767D01*
X102299393Y-46119184D01*
X102290547Y-46119500D01*
X100903140Y-46119500D01*
X100903120Y-46119500D01*
X100899992Y-46119501D01*
X100896860Y-46119820D01*
X100896858Y-46119821D01*
X100797203Y-46130000D01*
X100630665Y-46185186D01*
X100481342Y-46277288D01*
X100357288Y-46401342D01*
X100265186Y-46550665D01*
X100210000Y-46717202D01*
X100199819Y-46816858D01*
X100199817Y-46816878D01*
X100199500Y-46819991D01*
X100199500Y-46823138D01*
X100199500Y-46823139D01*
X100199500Y-47566858D01*
X100199500Y-47566877D01*
X100199501Y-47570008D01*
X100199820Y-47573140D01*
X100199821Y-47573141D01*
X100210000Y-47672796D01*
X100265186Y-47839334D01*
X100357288Y-47988657D01*
X100481342Y-48112711D01*
X100481344Y-48112712D01*
X100630666Y-48204814D01*
X100742016Y-48241712D01*
X100797202Y-48259999D01*
X100896858Y-48270180D01*
X100896859Y-48270180D01*
X100899991Y-48270500D01*
X101739547Y-48270499D01*
X101806586Y-48290183D01*
X101827228Y-48306818D01*
X112324196Y-58803787D01*
X112337096Y-58819888D01*
X112388223Y-58867900D01*
X112391020Y-58870611D01*
X112410529Y-58890120D01*
X112413709Y-58892587D01*
X112422571Y-58900155D01*
X112424813Y-58902261D01*
X112454418Y-58930062D01*
X112471970Y-58939711D01*
X112488238Y-58950397D01*
X112504064Y-58962673D01*
X112544146Y-58980017D01*
X112554633Y-58985155D01*
X112592907Y-59006197D01*
X112601410Y-59008379D01*
X112612308Y-59011178D01*
X112630713Y-59017478D01*
X112649104Y-59025437D01*
X112692250Y-59032270D01*
X112703668Y-59034635D01*
X112745981Y-59045500D01*
X112766016Y-59045500D01*
X112785415Y-59047027D01*
X112805196Y-59050160D01*
X112848674Y-59046050D01*
X112860344Y-59045500D01*
X127893748Y-59045500D01*
X127960787Y-59065185D01*
X127981429Y-59081819D01*
X129873977Y-60974367D01*
X129907462Y-61035690D01*
X129902478Y-61105382D01*
X129860606Y-61161315D01*
X129795142Y-61185732D01*
X129760516Y-61183338D01*
X129634649Y-61156585D01*
X129634646Y-61156585D01*
X129445354Y-61156585D01*
X129445352Y-61156585D01*
X129260197Y-61195940D01*
X129087269Y-61272933D01*
X128934129Y-61384195D01*
X128807466Y-61524868D01*
X128712820Y-61688800D01*
X128654326Y-61868827D01*
X128650064Y-61909379D01*
X128634540Y-62057085D01*
X128637721Y-62087353D01*
X128654326Y-62245342D01*
X128712820Y-62425369D01*
X128807464Y-62589298D01*
X128818205Y-62601227D01*
X128882649Y-62672799D01*
X128912879Y-62735790D01*
X128914499Y-62755771D01*
X128914499Y-70979247D01*
X128894814Y-71046286D01*
X128878180Y-71066928D01*
X127196928Y-72748181D01*
X127135605Y-72781666D01*
X127109247Y-72784500D01*
X126519452Y-72784500D01*
X126452413Y-72764815D01*
X126406658Y-72712011D01*
X126396714Y-72642853D01*
X126425739Y-72579297D01*
X126431771Y-72572819D01*
X126605746Y-72398845D01*
X126947771Y-72056819D01*
X127009095Y-72023334D01*
X127035453Y-72020500D01*
X127094648Y-72020500D01*
X127218083Y-71994262D01*
X127279803Y-71981144D01*
X127452730Y-71904151D01*
X127605871Y-71792888D01*
X127732533Y-71652216D01*
X127827179Y-71488284D01*
X127885674Y-71308256D01*
X127905460Y-71120000D01*
X127885674Y-70931744D01*
X127855332Y-70838363D01*
X127827179Y-70751715D01*
X127732533Y-70587783D01*
X127605870Y-70447110D01*
X127452730Y-70335848D01*
X127279802Y-70258855D01*
X127094648Y-70219500D01*
X127094646Y-70219500D01*
X126905354Y-70219500D01*
X126905352Y-70219500D01*
X126720197Y-70258855D01*
X126547269Y-70335848D01*
X126394129Y-70447110D01*
X126267466Y-70587783D01*
X126172820Y-70751715D01*
X126114326Y-70931742D01*
X126114325Y-70931744D01*
X126114326Y-70931744D01*
X126102288Y-71046286D01*
X126096679Y-71099650D01*
X126070094Y-71164264D01*
X126061039Y-71174369D01*
X125487228Y-71748181D01*
X125425905Y-71781666D01*
X125399547Y-71784500D01*
X125391733Y-71784500D01*
X125324694Y-71764815D01*
X125278939Y-71712011D01*
X125271518Y-71684961D01*
X125226844Y-71565185D01*
X125218596Y-71543070D01*
X125202667Y-71521792D01*
X125155804Y-71459191D01*
X125131386Y-71393727D01*
X125146237Y-71325454D01*
X125167385Y-71297203D01*
X126947770Y-69516819D01*
X127009094Y-69483334D01*
X127035452Y-69480500D01*
X127094648Y-69480500D01*
X127218084Y-69454262D01*
X127279803Y-69441144D01*
X127452730Y-69364151D01*
X127605871Y-69252888D01*
X127732533Y-69112216D01*
X127827179Y-68948284D01*
X127885674Y-68768256D01*
X127905460Y-68580000D01*
X127885674Y-68391744D01*
X127845176Y-68267105D01*
X127827179Y-68211715D01*
X127732533Y-68047783D01*
X127605870Y-67907110D01*
X127452730Y-67795848D01*
X127279802Y-67718855D01*
X127094648Y-67679500D01*
X127094646Y-67679500D01*
X126905354Y-67679500D01*
X126905352Y-67679500D01*
X126720197Y-67718855D01*
X126547269Y-67795848D01*
X126394129Y-67907110D01*
X126267466Y-68047783D01*
X126172820Y-68211715D01*
X126114326Y-68391742D01*
X126096679Y-68559649D01*
X126070094Y-68624263D01*
X126061039Y-68634368D01*
X124282799Y-70412609D01*
X124221476Y-70446094D01*
X124151784Y-70441110D01*
X124120810Y-70424196D01*
X124036930Y-70361404D01*
X123928416Y-70320931D01*
X123887489Y-70305666D01*
X123888095Y-70304039D01*
X123841688Y-70284814D01*
X123801843Y-70227420D01*
X123795499Y-70188266D01*
X123795499Y-70180451D01*
X123815184Y-70113412D01*
X123831813Y-70092775D01*
X124407771Y-69516819D01*
X124469095Y-69483334D01*
X124495453Y-69480500D01*
X124554648Y-69480500D01*
X124678084Y-69454262D01*
X124739803Y-69441144D01*
X124912730Y-69364151D01*
X125065871Y-69252888D01*
X125192533Y-69112216D01*
X125287179Y-68948284D01*
X125345674Y-68768256D01*
X125365460Y-68580000D01*
X125345674Y-68391744D01*
X125305176Y-68267105D01*
X125287179Y-68211715D01*
X125192533Y-68047783D01*
X125065870Y-67907110D01*
X124912730Y-67795848D01*
X124739802Y-67718855D01*
X124554648Y-67679500D01*
X124554646Y-67679500D01*
X124365354Y-67679500D01*
X124365352Y-67679500D01*
X124180197Y-67718855D01*
X124007269Y-67795848D01*
X123854129Y-67907110D01*
X123727466Y-68047783D01*
X123632820Y-68211715D01*
X123574326Y-68391742D01*
X123572025Y-68413640D01*
X123558323Y-68544012D01*
X123556679Y-68559650D01*
X123530094Y-68624264D01*
X123521036Y-68634372D01*
X123507178Y-68648229D01*
X123445854Y-68681712D01*
X123376162Y-68676725D01*
X123320230Y-68634852D01*
X123295816Y-68569387D01*
X123295500Y-68560562D01*
X123295500Y-68140449D01*
X123315185Y-68073411D01*
X123331814Y-68052774D01*
X124407771Y-66976819D01*
X124469095Y-66943334D01*
X124495453Y-66940500D01*
X124554648Y-66940500D01*
X124678084Y-66914262D01*
X124739803Y-66901144D01*
X124912730Y-66824151D01*
X125005273Y-66756915D01*
X125065870Y-66712889D01*
X125107165Y-66667027D01*
X125192533Y-66572216D01*
X125287179Y-66408284D01*
X125345674Y-66228256D01*
X125365460Y-66040000D01*
X125345674Y-65851744D01*
X125287179Y-65671716D01*
X125287179Y-65671715D01*
X125192533Y-65507783D01*
X125065870Y-65367110D01*
X124912730Y-65255848D01*
X124739802Y-65178855D01*
X124554648Y-65139500D01*
X124554646Y-65139500D01*
X124365354Y-65139500D01*
X124365352Y-65139500D01*
X124180197Y-65178855D01*
X124007269Y-65255848D01*
X123854129Y-65367110D01*
X123727466Y-65507783D01*
X123632820Y-65671715D01*
X123574326Y-65851742D01*
X123556679Y-66019649D01*
X123530094Y-66084263D01*
X123521039Y-66094368D01*
X122286209Y-67329198D01*
X122270111Y-67342095D01*
X122222097Y-67393224D01*
X122219393Y-67396015D01*
X122202629Y-67412779D01*
X122202622Y-67412786D01*
X122199881Y-67415528D01*
X122197500Y-67418596D01*
X122197491Y-67418607D01*
X122197412Y-67418710D01*
X122189843Y-67427571D01*
X122159936Y-67459419D01*
X122150286Y-67476973D01*
X122139610Y-67493227D01*
X122127327Y-67509062D01*
X122109976Y-67549157D01*
X122104839Y-67559643D01*
X122083803Y-67597906D01*
X122078822Y-67617308D01*
X122072521Y-67635710D01*
X122064562Y-67654101D01*
X122057729Y-67697241D01*
X122055361Y-67708673D01*
X122044501Y-67750976D01*
X122044501Y-67771015D01*
X122042974Y-67790413D01*
X122039955Y-67809478D01*
X122039841Y-67810195D01*
X122040278Y-67814814D01*
X122043951Y-67853672D01*
X122044501Y-67865342D01*
X122044501Y-68290902D01*
X122024816Y-68357941D01*
X121972012Y-68403696D01*
X121902854Y-68413640D01*
X121870065Y-68404181D01*
X121730363Y-68341981D01*
X121545209Y-68302626D01*
X121545207Y-68302626D01*
X121419500Y-68302626D01*
X121352461Y-68282941D01*
X121306706Y-68230137D01*
X121295500Y-68178626D01*
X121295500Y-63995451D01*
X121315185Y-63928412D01*
X121331815Y-63907774D01*
X121692771Y-63546817D01*
X121754094Y-63513333D01*
X121780452Y-63510499D01*
X122616859Y-63510499D01*
X122620008Y-63510499D01*
X122722797Y-63499999D01*
X122889334Y-63444814D01*
X123038656Y-63352712D01*
X123162712Y-63228656D01*
X123254814Y-63079334D01*
X123309999Y-62912797D01*
X123320500Y-62810009D01*
X123320499Y-62059992D01*
X123309999Y-61957203D01*
X123254814Y-61790666D01*
X123191983Y-61688800D01*
X123162711Y-61641342D01*
X123038657Y-61517288D01*
X122889334Y-61425186D01*
X122722797Y-61370000D01*
X122623141Y-61359819D01*
X122623122Y-61359818D01*
X122620009Y-61359500D01*
X122616860Y-61359500D01*
X121223140Y-61359500D01*
X121223120Y-61359500D01*
X121219992Y-61359501D01*
X121216860Y-61359820D01*
X121216858Y-61359821D01*
X121117203Y-61370000D01*
X120950665Y-61425186D01*
X120801342Y-61517288D01*
X120677288Y-61641342D01*
X120585186Y-61790665D01*
X120530000Y-61957202D01*
X120519819Y-62056858D01*
X120519817Y-62056878D01*
X120519500Y-62059991D01*
X120519500Y-62063138D01*
X120519500Y-62063139D01*
X120519500Y-62806858D01*
X120519500Y-62806877D01*
X120519501Y-62810008D01*
X120519820Y-62813140D01*
X120519821Y-62813141D01*
X120526572Y-62879231D01*
X120513802Y-62947924D01*
X120490895Y-62979513D01*
X120286208Y-63184199D01*
X120270110Y-63197096D01*
X120222096Y-63248225D01*
X120219392Y-63251016D01*
X120202628Y-63267780D01*
X120202621Y-63267787D01*
X120199880Y-63270529D01*
X120197499Y-63273597D01*
X120197490Y-63273608D01*
X120197411Y-63273711D01*
X120189842Y-63282572D01*
X120159935Y-63314420D01*
X120150285Y-63331974D01*
X120139609Y-63348228D01*
X120127326Y-63364063D01*
X120109975Y-63404158D01*
X120104838Y-63414644D01*
X120083802Y-63452907D01*
X120078821Y-63472309D01*
X120072520Y-63490711D01*
X120064561Y-63509102D01*
X120057728Y-63552242D01*
X120055360Y-63563674D01*
X120044499Y-63605977D01*
X120044500Y-63626016D01*
X120042973Y-63645415D01*
X120039839Y-63665195D01*
X120043949Y-63708671D01*
X120044499Y-63720339D01*
X120044499Y-70188266D01*
X120024814Y-70255305D01*
X119972010Y-70301060D01*
X119944958Y-70308483D01*
X119803070Y-70361404D01*
X119687855Y-70447654D01*
X119601605Y-70562868D01*
X119551310Y-70697716D01*
X119551153Y-70699181D01*
X119544901Y-70757327D01*
X119544901Y-70760648D01*
X119544901Y-70760649D01*
X119544901Y-71160901D01*
X119525216Y-71227940D01*
X119472412Y-71273695D01*
X119420901Y-71284901D01*
X119020639Y-71284901D01*
X119020620Y-71284901D01*
X119017328Y-71284902D01*
X119014048Y-71285254D01*
X119014040Y-71285255D01*
X118957714Y-71291310D01*
X118929904Y-71301683D01*
X118886572Y-71309501D01*
X116097486Y-71309501D01*
X116081301Y-71308440D01*
X116077375Y-71307923D01*
X116049998Y-71304318D01*
X116014740Y-71308960D01*
X116010638Y-71309501D01*
X115951937Y-71317229D01*
X115893236Y-71324957D01*
X115747160Y-71385463D01*
X115713854Y-71411020D01*
X115621717Y-71481719D01*
X115621715Y-71481720D01*
X115621714Y-71481722D01*
X115602489Y-71506775D01*
X115591797Y-71518966D01*
X112306558Y-74804205D01*
X112245235Y-74837690D01*
X112175543Y-74832706D01*
X112151844Y-74817475D01*
X112150833Y-74819115D01*
X111989174Y-74719404D01*
X111822637Y-74664218D01*
X111722981Y-74654037D01*
X111722962Y-74654036D01*
X111719849Y-74653718D01*
X111716700Y-74653718D01*
X110372980Y-74653718D01*
X110372960Y-74653718D01*
X110369832Y-74653719D01*
X110366700Y-74654038D01*
X110366698Y-74654039D01*
X110267043Y-74664218D01*
X110100505Y-74719404D01*
X109951182Y-74811506D01*
X109827128Y-74935560D01*
X109769343Y-75029247D01*
X109717395Y-75075972D01*
X109663804Y-75088151D01*
X106644063Y-75088151D01*
X106577024Y-75068466D01*
X106538524Y-75029247D01*
X106455716Y-74894993D01*
X106331662Y-74770939D01*
X106182339Y-74678837D01*
X106015802Y-74623651D01*
X105916146Y-74613470D01*
X105916127Y-74613469D01*
X105913014Y-74613151D01*
X105909865Y-74613151D01*
X104516145Y-74613151D01*
X104516125Y-74613151D01*
X104512997Y-74613152D01*
X104509865Y-74613471D01*
X104509863Y-74613472D01*
X104410208Y-74623651D01*
X104243670Y-74678837D01*
X104094347Y-74770939D01*
X103970293Y-74894993D01*
X103878191Y-75044316D01*
X103823005Y-75210853D01*
X103812824Y-75310509D01*
X103812822Y-75310529D01*
X103812505Y-75313642D01*
X103812505Y-75316789D01*
X103812505Y-75316790D01*
X103812505Y-76060509D01*
X103812505Y-76060528D01*
X103812506Y-76063659D01*
X103812825Y-76066791D01*
X103812826Y-76066792D01*
X103823005Y-76166447D01*
X103878191Y-76332985D01*
X103970293Y-76482308D01*
X104094347Y-76606362D01*
X104120161Y-76622284D01*
X104243671Y-76698465D01*
X104320788Y-76724019D01*
X104410207Y-76753650D01*
X104509863Y-76763831D01*
X104509864Y-76763831D01*
X104512996Y-76764151D01*
X105913013Y-76764150D01*
X106015802Y-76753650D01*
X106182339Y-76698465D01*
X106331661Y-76606363D01*
X106455717Y-76482307D01*
X106510576Y-76393365D01*
X106538524Y-76348055D01*
X106590472Y-76301330D01*
X106644063Y-76289151D01*
X109629180Y-76289151D01*
X109696219Y-76308836D01*
X109734719Y-76348055D01*
X109827128Y-76497875D01*
X109951182Y-76621929D01*
X109959940Y-76627331D01*
X110100506Y-76714032D01*
X110211856Y-76750930D01*
X110267042Y-76769217D01*
X110366698Y-76779398D01*
X110366699Y-76779398D01*
X110369831Y-76779718D01*
X110597370Y-76779717D01*
X110664409Y-76799401D01*
X110710164Y-76852205D01*
X110720108Y-76921364D01*
X110691083Y-76984919D01*
X110685052Y-76991398D01*
X110641304Y-77035147D01*
X110534050Y-77142400D01*
X110472730Y-77175884D01*
X110446371Y-77178718D01*
X106119925Y-77178718D01*
X106103740Y-77177657D01*
X106099814Y-77177140D01*
X106072437Y-77173535D01*
X106037179Y-77178177D01*
X106033077Y-77178718D01*
X105974376Y-77186446D01*
X105915675Y-77194174D01*
X105769597Y-77254681D01*
X105644154Y-77350936D01*
X105624932Y-77375988D01*
X105614238Y-77388182D01*
X105475588Y-77526832D01*
X105414265Y-77560317D01*
X105387907Y-77563151D01*
X104516146Y-77563151D01*
X104516126Y-77563151D01*
X104512997Y-77563152D01*
X104509865Y-77563471D01*
X104509863Y-77563472D01*
X104410208Y-77573651D01*
X104243670Y-77628837D01*
X104094347Y-77720939D01*
X103970294Y-77844992D01*
X103892380Y-77971313D01*
X103840432Y-78018037D01*
X103786841Y-78030216D01*
X100609245Y-78030216D01*
X100542206Y-78010531D01*
X100503706Y-77971312D01*
X100428608Y-77849558D01*
X100304554Y-77725504D01*
X100155231Y-77633402D01*
X99988694Y-77578216D01*
X99889038Y-77568035D01*
X99889019Y-77568034D01*
X99885906Y-77567716D01*
X99882757Y-77567716D01*
X98539037Y-77567716D01*
X98539017Y-77567716D01*
X98535889Y-77567717D01*
X98532757Y-77568036D01*
X98532755Y-77568037D01*
X98433100Y-77578216D01*
X98266562Y-77633402D01*
X98117239Y-77725504D01*
X97993185Y-77849558D01*
X97901083Y-77998881D01*
X97845897Y-78165418D01*
X97835716Y-78265074D01*
X97835714Y-78265094D01*
X97835397Y-78268207D01*
X97835397Y-78271354D01*
X97835397Y-78271355D01*
X97835397Y-78990074D01*
X97835397Y-78990093D01*
X94605500Y-78990093D01*
X94605500Y-70640452D01*
X94625185Y-70573413D01*
X94641819Y-70552771D01*
X96267772Y-68926818D01*
X96329095Y-68893333D01*
X96355453Y-68890499D01*
X97164561Y-68890499D01*
X97167872Y-68890499D01*
X97227483Y-68884091D01*
X97362331Y-68833796D01*
X97477546Y-68747546D01*
X97563796Y-68632331D01*
X97614091Y-68497483D01*
X97614090Y-68497483D01*
X97614582Y-68496167D01*
X97656453Y-68440233D01*
X97721918Y-68415816D01*
X97730764Y-68415500D01*
X100844756Y-68415500D01*
X100865262Y-68417764D01*
X100868165Y-68417672D01*
X100868167Y-68417673D01*
X100935372Y-68415561D01*
X100939268Y-68415500D01*
X100962948Y-68415500D01*
X100966850Y-68415500D01*
X100970813Y-68414999D01*
X100982462Y-68414080D01*
X101026127Y-68412709D01*
X101045359Y-68407120D01*
X101064418Y-68403174D01*
X101070696Y-68402381D01*
X101084292Y-68400664D01*
X101124907Y-68384582D01*
X101135944Y-68380803D01*
X101177890Y-68368618D01*
X101195129Y-68358422D01*
X101212602Y-68349862D01*
X101231232Y-68342486D01*
X101266564Y-68316814D01*
X101276330Y-68310400D01*
X101313918Y-68288171D01*
X101313917Y-68288171D01*
X101313920Y-68288170D01*
X101328085Y-68274004D01*
X101342873Y-68261373D01*
X101359087Y-68249594D01*
X101386938Y-68215926D01*
X101394779Y-68207309D01*
X105092984Y-64509104D01*
X105154305Y-64475621D01*
X105223997Y-64480605D01*
X105279930Y-64522477D01*
X105304347Y-64587941D01*
X105304479Y-64600800D01*
X105304500Y-64599991D01*
X105304500Y-64603141D01*
X105304500Y-64603145D01*
X105304500Y-65321858D01*
X105304500Y-65321877D01*
X105304501Y-65325008D01*
X105304820Y-65328140D01*
X105304821Y-65328141D01*
X105315000Y-65427796D01*
X105370186Y-65594334D01*
X105462288Y-65743657D01*
X105586342Y-65867711D01*
X105586344Y-65867712D01*
X105735666Y-65959814D01*
X105847017Y-65996712D01*
X105902202Y-66014999D01*
X106001858Y-66025180D01*
X106001859Y-66025180D01*
X106004991Y-66025500D01*
X107355008Y-66025499D01*
X107457797Y-66014999D01*
X107624334Y-65959814D01*
X107773656Y-65867712D01*
X107897712Y-65743656D01*
X107989814Y-65594334D01*
X108044999Y-65427797D01*
X108055500Y-65325009D01*
X108055499Y-64599992D01*
X108049585Y-64542107D01*
X108062356Y-64473414D01*
X108085260Y-64441828D01*
X110090270Y-62436819D01*
X110151594Y-62403334D01*
X110177952Y-62400500D01*
X113405397Y-62400500D01*
X113472436Y-62420185D01*
X113518191Y-62472989D01*
X113521571Y-62481149D01*
X113555804Y-62572931D01*
X113642054Y-62688146D01*
X113757269Y-62774396D01*
X113892117Y-62824691D01*
X113951727Y-62831100D01*
X114648272Y-62831099D01*
X114707883Y-62824691D01*
X114842731Y-62774396D01*
X114957946Y-62688146D01*
X115044196Y-62572931D01*
X115078422Y-62481165D01*
X115120292Y-62425233D01*
X115185756Y-62400816D01*
X115194603Y-62400500D01*
X115486700Y-62400500D01*
X115553739Y-62420185D01*
X115574380Y-62436818D01*
X116362889Y-63225328D01*
X117133313Y-63995752D01*
X117166798Y-64057075D01*
X117168953Y-64070471D01*
X117186601Y-64238380D01*
X117245095Y-64418407D01*
X117339741Y-64582339D01*
X117466404Y-64723012D01*
X117619544Y-64834274D01*
X117792472Y-64911267D01*
X117977627Y-64950623D01*
X117977629Y-64950623D01*
X118166923Y-64950623D01*
X118290358Y-64924385D01*
X118352078Y-64911267D01*
X118525005Y-64834274D01*
X118678146Y-64723011D01*
X118804808Y-64582339D01*
X118899454Y-64418407D01*
X118957949Y-64238379D01*
X118977735Y-64050123D01*
X118957949Y-63861867D01*
X118912843Y-63723046D01*
X118899454Y-63681838D01*
X118804808Y-63517906D01*
X118678145Y-63377233D01*
X118525005Y-63265971D01*
X118352077Y-63188978D01*
X118166923Y-63149623D01*
X118166921Y-63149623D01*
X118107727Y-63149623D01*
X118040688Y-63129938D01*
X118020046Y-63113304D01*
X117167082Y-62260340D01*
X116297954Y-61391211D01*
X116285058Y-61375113D01*
X116233927Y-61327098D01*
X116231130Y-61324387D01*
X116214379Y-61307636D01*
X116211623Y-61304880D01*
X116208442Y-61302412D01*
X116199574Y-61294837D01*
X116167734Y-61264938D01*
X116150176Y-61255285D01*
X116133916Y-61244604D01*
X116118088Y-61232327D01*
X116078003Y-61214980D01*
X116067513Y-61209841D01*
X116029243Y-61188802D01*
X116009843Y-61183821D01*
X115991436Y-61177519D01*
X115973049Y-61169562D01*
X115929910Y-61162729D01*
X115918476Y-61160361D01*
X115876171Y-61149500D01*
X115856136Y-61149500D01*
X115836738Y-61147973D01*
X115829314Y-61146797D01*
X115816957Y-61144840D01*
X115816956Y-61144840D01*
X115791620Y-61147235D01*
X115773477Y-61148950D01*
X115761808Y-61149500D01*
X115194603Y-61149500D01*
X115127564Y-61129815D01*
X115081809Y-61077011D01*
X115078428Y-61068850D01*
X115044196Y-60977069D01*
X114957946Y-60861854D01*
X114842731Y-60775604D01*
X114707883Y-60725309D01*
X114648273Y-60718900D01*
X114644950Y-60718900D01*
X113955039Y-60718900D01*
X113955020Y-60718900D01*
X113951728Y-60718901D01*
X113948448Y-60719253D01*
X113948440Y-60719254D01*
X113892115Y-60725309D01*
X113757268Y-60775604D01*
X113757269Y-60775604D01*
X113642054Y-60861854D01*
X113555804Y-60977069D01*
X113521577Y-61068834D01*
X113479708Y-61124767D01*
X113414244Y-61149184D01*
X113405397Y-61149500D01*
X109950244Y-61149500D01*
X109929736Y-61147235D01*
X109859613Y-61149439D01*
X109855719Y-61149500D01*
X109828150Y-61149500D01*
X109824294Y-61149986D01*
X109824291Y-61149987D01*
X109824235Y-61149994D01*
X109824162Y-61150003D01*
X109812543Y-61150917D01*
X109768872Y-61152289D01*
X109749628Y-61157880D01*
X109730584Y-61161824D01*
X109710708Y-61164335D01*
X109670100Y-61180413D01*
X109659054Y-61184194D01*
X109618628Y-61195941D01*
X109617107Y-61196383D01*
X109599865Y-61206579D01*
X109582404Y-61215133D01*
X109563767Y-61222512D01*
X109528431Y-61248185D01*
X109518674Y-61254595D01*
X109481080Y-61276829D01*
X109466913Y-61290996D01*
X109452124Y-61303626D01*
X109435913Y-61315404D01*
X109408072Y-61349058D01*
X109400211Y-61357697D01*
X108267017Y-62490890D01*
X108205694Y-62524375D01*
X108136002Y-62519391D01*
X108080069Y-62477519D01*
X108055652Y-62412055D01*
X108055522Y-62399150D01*
X108055500Y-62400009D01*
X108055499Y-61674992D01*
X108044999Y-61572203D01*
X107989814Y-61405666D01*
X107907944Y-61272933D01*
X107897711Y-61256342D01*
X107773657Y-61132288D01*
X107624334Y-61040186D01*
X107457797Y-60985000D01*
X107358141Y-60974819D01*
X107358122Y-60974818D01*
X107355009Y-60974500D01*
X107351860Y-60974500D01*
X106008140Y-60974500D01*
X106008120Y-60974500D01*
X106004992Y-60974501D01*
X106001860Y-60974820D01*
X106001858Y-60974821D01*
X105902203Y-60985000D01*
X105735665Y-61040186D01*
X105586342Y-61132288D01*
X105462288Y-61256342D01*
X105370186Y-61405665D01*
X105315000Y-61572202D01*
X105304819Y-61671858D01*
X105304817Y-61671878D01*
X105304500Y-61674991D01*
X105304500Y-61678138D01*
X105304500Y-61678139D01*
X105304500Y-62396858D01*
X105304500Y-62396877D01*
X105304501Y-62400008D01*
X105304820Y-62403138D01*
X105304821Y-62403143D01*
X105310413Y-62457890D01*
X105297643Y-62526583D01*
X105274736Y-62558171D01*
X100704728Y-67128181D01*
X100643405Y-67161666D01*
X100617047Y-67164500D01*
X97730764Y-67164500D01*
X97663725Y-67144815D01*
X97617970Y-67092011D01*
X97614582Y-67083833D01*
X97594590Y-67030233D01*
X97563796Y-66947669D01*
X97477546Y-66832454D01*
X97362331Y-66746204D01*
X97227483Y-66695909D01*
X97167873Y-66689500D01*
X97164550Y-66689500D01*
X95875439Y-66689500D01*
X95875420Y-66689500D01*
X95872128Y-66689501D01*
X95868848Y-66689853D01*
X95868840Y-66689854D01*
X95812515Y-66695909D01*
X95677669Y-66746204D01*
X95562454Y-66832454D01*
X95476204Y-66947668D01*
X95425909Y-67082516D01*
X95425768Y-67083833D01*
X95419500Y-67142127D01*
X95419500Y-67145449D01*
X95419500Y-67954546D01*
X95399815Y-68021585D01*
X95383181Y-68042227D01*
X93596208Y-69829199D01*
X93580110Y-69842096D01*
X93532096Y-69893225D01*
X93529392Y-69896016D01*
X93512628Y-69912780D01*
X93512621Y-69912787D01*
X93509880Y-69915529D01*
X93507499Y-69918597D01*
X93507490Y-69918608D01*
X93507411Y-69918711D01*
X93499842Y-69927572D01*
X93469935Y-69959420D01*
X93460285Y-69976974D01*
X93449609Y-69993228D01*
X93437326Y-70009063D01*
X93419975Y-70049158D01*
X93414838Y-70059644D01*
X93393802Y-70097907D01*
X93388821Y-70117309D01*
X93382520Y-70135711D01*
X93374561Y-70154102D01*
X93367728Y-70197242D01*
X93365360Y-70208674D01*
X93354499Y-70250977D01*
X93354500Y-70271016D01*
X93352973Y-70290414D01*
X93349840Y-70310194D01*
X88900500Y-70310194D01*
X88900500Y-35684500D01*
X88920185Y-35617461D01*
X88972989Y-35571706D01*
X89024500Y-35560500D01*
X192915500Y-35560500D01*
X192982539Y-35580185D01*
G37*
%TD.AperFunction*%
M02*
