G04 #@! TF.GenerationSoftware,KiCad,Pcbnew,7.0.1*
G04 #@! TF.CreationDate,2023-09-17T03:43:03-07:00*
G04 #@! TF.ProjectId,rps01,72707330-312e-46b6-9963-61645f706362,1*
G04 #@! TF.SameCoordinates,Original*
G04 #@! TF.FileFunction,Paste,Top*
G04 #@! TF.FilePolarity,Positive*
%FSLAX46Y46*%
G04 Gerber Fmt 4.6, Leading zero omitted, Abs format (unit mm)*
G04 Created by KiCad (PCBNEW 7.0.1) date 2023-09-17 03:43:03*
%MOMM*%
%LPD*%
G01*
G04 APERTURE LIST*
G04 Aperture macros list*
%AMRoundRect*
0 Rectangle with rounded corners*
0 $1 Rounding radius*
0 $2 $3 $4 $5 $6 $7 $8 $9 X,Y pos of 4 corners*
0 Add a 4 corners polygon primitive as box body*
4,1,4,$2,$3,$4,$5,$6,$7,$8,$9,$2,$3,0*
0 Add four circle primitives for the rounded corners*
1,1,$1+$1,$2,$3*
1,1,$1+$1,$4,$5*
1,1,$1+$1,$6,$7*
1,1,$1+$1,$8,$9*
0 Add four rect primitives between the rounded corners*
20,1,$1+$1,$2,$3,$4,$5,0*
20,1,$1+$1,$4,$5,$6,$7,0*
20,1,$1+$1,$6,$7,$8,$9,0*
20,1,$1+$1,$8,$9,$2,$3,0*%
G04 Aperture macros list end*
%ADD10R,1.917700X2.997200*%
%ADD11R,1.111200X0.600800*%
%ADD12R,2.000000X1.100000*%
%ADD13R,1.600200X0.812800*%
%ADD14RoundRect,0.225000X0.250000X-0.225000X0.250000X0.225000X-0.250000X0.225000X-0.250000X-0.225000X0*%
%ADD15RoundRect,0.250000X0.625000X-0.312500X0.625000X0.312500X-0.625000X0.312500X-0.625000X-0.312500X0*%
%ADD16RoundRect,0.200000X0.200000X0.275000X-0.200000X0.275000X-0.200000X-0.275000X0.200000X-0.275000X0*%
%ADD17RoundRect,0.150000X-0.150000X0.587500X-0.150000X-0.587500X0.150000X-0.587500X0.150000X0.587500X0*%
%ADD18R,0.812800X1.600200*%
%ADD19RoundRect,0.200000X-0.275000X0.200000X-0.275000X-0.200000X0.275000X-0.200000X0.275000X0.200000X0*%
%ADD20RoundRect,0.225000X-0.250000X0.225000X-0.250000X-0.225000X0.250000X-0.225000X0.250000X0.225000X0*%
%ADD21R,4.241800X3.810000*%
%ADD22RoundRect,0.200000X-0.200000X-0.275000X0.200000X-0.275000X0.200000X0.275000X-0.200000X0.275000X0*%
%ADD23RoundRect,0.250000X-0.362500X-1.425000X0.362500X-1.425000X0.362500X1.425000X-0.362500X1.425000X0*%
%ADD24RoundRect,0.225000X-0.225000X-0.250000X0.225000X-0.250000X0.225000X0.250000X-0.225000X0.250000X0*%
%ADD25RoundRect,0.250000X1.000000X-1.500000X1.000000X1.500000X-1.000000X1.500000X-1.000000X-1.500000X0*%
%ADD26R,0.804800X0.249200*%
%ADD27R,0.249200X0.804800*%
%ADD28RoundRect,0.250000X1.500000X1.000000X-1.500000X1.000000X-1.500000X-1.000000X1.500000X-1.000000X0*%
%ADD29R,2.184400X1.625600*%
%ADD30R,3.810000X4.241800*%
%ADD31RoundRect,0.250000X-0.625000X0.312500X-0.625000X-0.312500X0.625000X-0.312500X0.625000X0.312500X0*%
%ADD32R,0.279400X1.333500*%
%ADD33R,1.600000X0.550000*%
%ADD34R,0.550000X1.600000*%
%ADD35RoundRect,0.225000X0.225000X0.250000X-0.225000X0.250000X-0.225000X-0.250000X0.225000X-0.250000X0*%
%ADD36R,0.952500X0.508000*%
%ADD37R,0.355600X1.473200*%
%ADD38RoundRect,0.200000X0.275000X-0.200000X0.275000X0.200000X-0.275000X0.200000X-0.275000X-0.200000X0*%
%ADD39R,2.560396X2.499995*%
%ADD40R,4.100000X2.000000*%
%ADD41RoundRect,0.250000X0.650000X-0.325000X0.650000X0.325000X-0.650000X0.325000X-0.650000X-0.325000X0*%
%ADD42R,4.521200X4.241800*%
%ADD43RoundRect,0.250000X-0.312500X-0.625000X0.312500X-0.625000X0.312500X0.625000X-0.312500X0.625000X0*%
%ADD44R,2.895600X5.410200*%
%ADD45R,5.410200X2.895600*%
%ADD46R,1.550000X1.300000*%
%ADD47R,1.473200X0.355600*%
%ADD48R,4.500000X2.000000*%
G04 APERTURE END LIST*
G36*
X163047600Y-68450000D02*
G01*
X161472600Y-68450000D01*
X161472600Y-66875000D01*
X163047600Y-66875000D01*
X163047600Y-68450000D01*
G37*
G36*
X163047600Y-70225000D02*
G01*
X161472600Y-70225000D01*
X161472600Y-68650000D01*
X163047600Y-68650000D01*
X163047600Y-70225000D01*
G37*
G36*
X164822600Y-68450000D02*
G01*
X163247600Y-68450000D01*
X163247600Y-66875000D01*
X164822600Y-66875000D01*
X164822600Y-68450000D01*
G37*
G36*
X164822600Y-70225000D02*
G01*
X163247600Y-70225000D01*
X163247600Y-68650000D01*
X164822600Y-68650000D01*
X164822600Y-70225000D01*
G37*
D10*
X161417250Y-76600000D03*
X166154350Y-76600000D03*
D11*
X153825000Y-75350000D03*
X150375000Y-75350000D03*
D12*
X66124179Y-131651680D03*
X66124179Y-129951680D03*
X66124179Y-128251680D03*
X61324179Y-128251680D03*
X61324179Y-129951680D03*
X61324179Y-131651680D03*
D13*
X96804900Y-132001700D03*
D14*
X100174179Y-115301680D03*
X100174179Y-113751680D03*
D15*
X94599179Y-111776680D03*
X94599179Y-108851680D03*
D16*
X95924179Y-118151680D03*
X94274179Y-118151680D03*
D17*
X113299179Y-97301680D03*
X111399179Y-97301680D03*
X112349179Y-99176680D03*
D18*
X182100000Y-48800000D03*
D14*
X102324179Y-114051680D03*
X102324179Y-112501680D03*
D18*
X182200000Y-115500000D03*
D19*
X114899179Y-97501680D03*
X114899179Y-99151680D03*
D20*
X100224179Y-109501680D03*
X100224179Y-111051680D03*
D21*
X93123779Y-60151680D03*
X99499179Y-60151680D03*
D22*
X168000000Y-97000000D03*
X169650000Y-97000000D03*
D23*
X147037500Y-69549998D03*
X152962500Y-69549998D03*
D24*
X156350000Y-116000000D03*
X157900000Y-116000000D03*
D13*
X102400000Y-132000000D03*
D25*
X162550000Y-96850000D03*
X162550000Y-90350000D03*
D19*
X109849179Y-97326680D03*
X109849179Y-98976680D03*
D22*
X94224179Y-121151680D03*
X95874179Y-121151680D03*
D18*
X182251700Y-97195100D03*
D24*
X120774179Y-91726680D03*
X122324179Y-91726680D03*
D26*
X160695200Y-66800001D03*
X160695200Y-67300000D03*
X160695200Y-67799999D03*
X160695200Y-68300000D03*
X160695200Y-68800000D03*
X160695200Y-69300001D03*
X160695200Y-69800000D03*
X160695200Y-70299999D03*
D27*
X161397601Y-71002400D03*
X161897600Y-71002400D03*
X162397599Y-71002400D03*
X162897600Y-71002400D03*
X163397600Y-71002400D03*
X163897601Y-71002400D03*
X164397600Y-71002400D03*
X164897599Y-71002400D03*
D26*
X165600000Y-70299999D03*
X165600000Y-69800000D03*
X165600000Y-69300001D03*
X165600000Y-68800000D03*
X165600000Y-68300000D03*
X165600000Y-67799999D03*
X165600000Y-67300000D03*
X165600000Y-66800001D03*
D27*
X164897599Y-66097600D03*
X164397600Y-66097600D03*
X163897601Y-66097600D03*
X163397600Y-66097600D03*
X162897600Y-66097600D03*
X162397599Y-66097600D03*
X161897600Y-66097600D03*
X161397601Y-66097600D03*
D16*
X95899179Y-119651680D03*
X94249179Y-119651680D03*
D28*
X166400000Y-83400000D03*
X159900000Y-83400000D03*
D18*
X180950000Y-84200000D03*
D29*
X173145800Y-63300000D03*
X176854200Y-63300000D03*
D23*
X147137500Y-59649998D03*
X153062500Y-59649998D03*
D22*
X68049179Y-128226680D03*
X69699179Y-128226680D03*
D30*
X171899179Y-81226680D03*
X171899179Y-74851280D03*
D19*
X108261706Y-97334081D03*
X108261706Y-98984081D03*
X137799179Y-115276680D03*
X137799179Y-116926680D03*
D31*
X169500000Y-61037500D03*
X169500000Y-63962500D03*
D13*
X125200000Y-132000000D03*
D32*
X37698419Y-85806730D03*
X38198799Y-85806730D03*
X38699179Y-85806730D03*
X39199559Y-85806730D03*
X39699939Y-85806730D03*
X39699939Y-81374430D03*
X39199559Y-81374430D03*
X38699179Y-81374430D03*
X38198799Y-81374430D03*
X37698419Y-81374430D03*
D22*
X68074179Y-131626680D03*
X69724179Y-131626680D03*
D16*
X106574179Y-95201680D03*
X104924179Y-95201680D03*
D19*
X121624179Y-93651680D03*
X121624179Y-95301680D03*
D33*
X104799179Y-109651680D03*
X104799179Y-110451680D03*
X104799179Y-111251680D03*
X104799179Y-112051680D03*
X104799179Y-112851680D03*
X104799179Y-113651680D03*
X104799179Y-114451680D03*
X104799179Y-115251680D03*
D34*
X106249179Y-116701680D03*
X107049179Y-116701680D03*
X107849179Y-116701680D03*
X108649179Y-116701680D03*
X109449179Y-116701680D03*
X110249179Y-116701680D03*
X111049179Y-116701680D03*
X111849179Y-116701680D03*
D33*
X113299179Y-115251680D03*
X113299179Y-114451680D03*
X113299179Y-113651680D03*
X113299179Y-112851680D03*
X113299179Y-112051680D03*
X113299179Y-111251680D03*
X113299179Y-110451680D03*
X113299179Y-109651680D03*
D34*
X111849179Y-108201680D03*
X111049179Y-108201680D03*
X110249179Y-108201680D03*
X109449179Y-108201680D03*
X108649179Y-108201680D03*
X107849179Y-108201680D03*
X107049179Y-108201680D03*
X106249179Y-108201680D03*
D16*
X112849179Y-101201680D03*
X111199179Y-101201680D03*
D20*
X130674179Y-118751680D03*
X130674179Y-120301680D03*
D35*
X104224179Y-118576680D03*
X102674179Y-118576680D03*
D13*
X115004900Y-132101700D03*
D36*
X115249179Y-91751678D03*
X115249179Y-92701679D03*
X115249179Y-93651680D03*
X117801879Y-93651680D03*
X117801879Y-91751678D03*
D14*
X71500000Y-81500000D03*
X71500000Y-79950000D03*
D37*
X72574178Y-83230680D03*
X71924180Y-83230680D03*
X71274178Y-83230680D03*
X70624180Y-83230680D03*
X70624180Y-89072680D03*
X71274178Y-89072680D03*
X71924180Y-89072680D03*
X72574178Y-89072680D03*
D13*
X135524179Y-41001680D03*
D38*
X123724179Y-122576680D03*
X123724179Y-120926680D03*
D19*
X171150000Y-92825000D03*
X171150000Y-94475000D03*
D24*
X168050000Y-95500000D03*
X169600000Y-95500000D03*
D39*
X172327806Y-68700000D03*
X177672194Y-68700000D03*
D18*
X71516101Y-94490025D03*
D31*
X96974179Y-108864180D03*
X96974179Y-111789180D03*
D19*
X125199179Y-120951680D03*
X125199179Y-122601680D03*
D38*
X102999179Y-61901680D03*
X102999179Y-60251680D03*
X100724179Y-80751680D03*
X100724179Y-79101680D03*
D40*
X172500000Y-56100000D03*
X181200000Y-56100000D03*
D30*
X171899179Y-115226680D03*
X171899179Y-121602080D03*
D31*
X155300000Y-60200000D03*
X155300000Y-63125000D03*
D13*
X127800000Y-97500000D03*
D15*
X96899179Y-116426680D03*
X96899179Y-113501680D03*
D19*
X103199179Y-97276680D03*
X103199179Y-98926680D03*
D22*
X68074179Y-129926680D03*
X69724179Y-129926680D03*
D19*
X168100000Y-92400000D03*
X168100000Y-94050000D03*
D22*
X153275000Y-116000000D03*
X154925000Y-116000000D03*
D38*
X172900000Y-126850000D03*
X172900000Y-125200000D03*
D41*
X152600000Y-66775000D03*
X152600000Y-63825000D03*
D25*
X170100000Y-106600000D03*
X170100000Y-100100000D03*
D42*
X134900000Y-70149998D03*
X134900000Y-60000000D03*
D22*
X94224179Y-122626680D03*
X95874179Y-122626680D03*
D16*
X113149179Y-95151680D03*
X111499179Y-95151680D03*
D13*
X96824179Y-41101680D03*
D14*
X123824179Y-92701680D03*
X123824179Y-91151680D03*
D38*
X113199179Y-93576680D03*
X113199179Y-91926680D03*
D15*
X157500000Y-79412500D03*
X157500000Y-76487500D03*
D13*
X109304900Y-132101700D03*
D20*
X119474179Y-41326680D03*
X119474179Y-42876680D03*
D40*
X158300000Y-57500000D03*
X167000000Y-57500000D03*
D18*
X42298300Y-84704900D03*
D43*
X147700000Y-66100000D03*
X150625000Y-66100000D03*
D44*
X142394000Y-102200000D03*
X152300000Y-102200000D03*
D45*
X149407900Y-92453000D03*
X149407900Y-82547000D03*
D46*
X127649179Y-112276680D03*
X135609179Y-112276680D03*
X127649179Y-116776680D03*
X135609179Y-116776680D03*
D30*
X136700000Y-99800000D03*
X136700000Y-106175400D03*
D31*
X94574179Y-113451680D03*
X94574179Y-116376680D03*
D22*
X70299179Y-92576680D03*
X71949179Y-92576680D03*
D17*
X106749179Y-96976680D03*
X104849179Y-96976680D03*
X105799179Y-98851680D03*
D13*
X120400000Y-132000000D03*
D16*
X154925000Y-117600000D03*
X153275000Y-117600000D03*
D25*
X159200000Y-106600000D03*
X159200000Y-100100000D03*
D22*
X136124179Y-119476680D03*
X137774179Y-119476680D03*
D47*
X111878179Y-39976681D03*
X111878179Y-40626679D03*
X111878179Y-41276681D03*
X111878179Y-41926679D03*
X117720179Y-41926679D03*
X117720179Y-41276681D03*
X117720179Y-40626679D03*
X117720179Y-39976681D03*
D13*
X111300000Y-88700000D03*
D38*
X121049179Y-42926680D03*
X121049179Y-41276680D03*
D19*
X174000000Y-47950000D03*
X174000000Y-49600000D03*
D48*
X97199179Y-126326680D03*
X105699179Y-126326680D03*
D18*
X182200000Y-121300000D03*
D46*
X50889179Y-127901680D03*
X58849179Y-127901680D03*
X50889179Y-132401680D03*
X58849179Y-132401680D03*
D30*
X170400000Y-42524600D03*
X170400000Y-48900000D03*
D20*
X110000000Y-40500000D03*
X110000000Y-42050000D03*
D16*
X157950000Y-117600000D03*
X156300000Y-117600000D03*
D35*
X71924179Y-91051680D03*
X70374179Y-91051680D03*
M02*
