G04 #@! TF.GenerationSoftware,KiCad,Pcbnew,7.0.1*
G04 #@! TF.CreationDate,2023-04-06T04:35:05-07:00*
G04 #@! TF.ProjectId,rps01,72707330-312e-46b6-9963-61645f706362,0*
G04 #@! TF.SameCoordinates,Original*
G04 #@! TF.FileFunction,Paste,Top*
G04 #@! TF.FilePolarity,Positive*
%FSLAX46Y46*%
G04 Gerber Fmt 4.6, Leading zero omitted, Abs format (unit mm)*
G04 Created by KiCad (PCBNEW 7.0.1) date 2023-04-06 04:35:05*
%MOMM*%
%LPD*%
G01*
G04 APERTURE LIST*
G04 Aperture macros list*
%AMRoundRect*
0 Rectangle with rounded corners*
0 $1 Rounding radius*
0 $2 $3 $4 $5 $6 $7 $8 $9 X,Y pos of 4 corners*
0 Add a 4 corners polygon primitive as box body*
4,1,4,$2,$3,$4,$5,$6,$7,$8,$9,$2,$3,0*
0 Add four circle primitives for the rounded corners*
1,1,$1+$1,$2,$3*
1,1,$1+$1,$4,$5*
1,1,$1+$1,$6,$7*
1,1,$1+$1,$8,$9*
0 Add four rect primitives between the rounded corners*
20,1,$1+$1,$2,$3,$4,$5,0*
20,1,$1+$1,$4,$5,$6,$7,0*
20,1,$1+$1,$6,$7,$8,$9,0*
20,1,$1+$1,$8,$9,$2,$3,0*%
G04 Aperture macros list end*
%ADD10C,0.010000*%
%ADD11R,2.184400X1.625600*%
%ADD12RoundRect,0.250000X-0.362500X-1.425000X0.362500X-1.425000X0.362500X1.425000X-0.362500X1.425000X0*%
%ADD13RoundRect,0.250000X-0.325000X-0.650000X0.325000X-0.650000X0.325000X0.650000X-0.325000X0.650000X0*%
%ADD14RoundRect,0.250000X-0.312500X-0.625000X0.312500X-0.625000X0.312500X0.625000X-0.312500X0.625000X0*%
%ADD15R,0.700000X0.420000*%
%ADD16RoundRect,0.250000X-0.375000X-0.625000X0.375000X-0.625000X0.375000X0.625000X-0.375000X0.625000X0*%
%ADD17R,0.279400X1.333500*%
%ADD18R,2.560396X2.499995*%
%ADD19R,1.651000X0.431800*%
%ADD20R,1.111200X0.600800*%
%ADD21R,4.521200X4.241800*%
G04 APERTURE END LIST*
D10*
X173352500Y56895000D02*
X172282500Y56895000D01*
X172282500Y58385000D01*
X173352500Y58385000D01*
X173352500Y56895000D01*
G36*
X173352500Y56895000D02*
G01*
X172282500Y56895000D01*
X172282500Y58385000D01*
X173352500Y58385000D01*
X173352500Y56895000D01*
G37*
X174117500Y58405000D02*
X173677500Y58405000D01*
X173677500Y58825000D01*
X174117500Y58825000D01*
X174117500Y58405000D01*
G36*
X174117500Y58405000D02*
G01*
X173677500Y58405000D01*
X173677500Y58825000D01*
X174117500Y58825000D01*
X174117500Y58405000D01*
G37*
X174117500Y57755000D02*
X173677500Y57755000D01*
X173677500Y58175000D01*
X174117500Y58175000D01*
X174117500Y57755000D01*
G36*
X174117500Y57755000D02*
G01*
X173677500Y57755000D01*
X173677500Y58175000D01*
X174117500Y58175000D01*
X174117500Y57755000D01*
G37*
X174117500Y57105000D02*
X173677500Y57105000D01*
X173677500Y57525000D01*
X174117500Y57525000D01*
X174117500Y57105000D01*
G36*
X174117500Y57105000D02*
G01*
X173677500Y57105000D01*
X173677500Y57525000D01*
X174117500Y57525000D01*
X174117500Y57105000D01*
G37*
X174117500Y56455000D02*
X173677500Y56455000D01*
X173677500Y56875000D01*
X174117500Y56875000D01*
X174117500Y56455000D01*
G36*
X174117500Y56455000D02*
G01*
X173677500Y56455000D01*
X173677500Y56875000D01*
X174117500Y56875000D01*
X174117500Y56455000D01*
G37*
X173352500Y42345000D02*
X172282500Y42345000D01*
X172282500Y43835000D01*
X173352500Y43835000D01*
X173352500Y42345000D01*
G36*
X173352500Y42345000D02*
G01*
X172282500Y42345000D01*
X172282500Y43835000D01*
X173352500Y43835000D01*
X173352500Y42345000D01*
G37*
X174117500Y43855000D02*
X173677500Y43855000D01*
X173677500Y44275000D01*
X174117500Y44275000D01*
X174117500Y43855000D01*
G36*
X174117500Y43855000D02*
G01*
X173677500Y43855000D01*
X173677500Y44275000D01*
X174117500Y44275000D01*
X174117500Y43855000D01*
G37*
X174117500Y43205000D02*
X173677500Y43205000D01*
X173677500Y43625000D01*
X174117500Y43625000D01*
X174117500Y43205000D01*
G36*
X174117500Y43205000D02*
G01*
X173677500Y43205000D01*
X173677500Y43625000D01*
X174117500Y43625000D01*
X174117500Y43205000D01*
G37*
X174117500Y42555000D02*
X173677500Y42555000D01*
X173677500Y42975000D01*
X174117500Y42975000D01*
X174117500Y42555000D01*
G36*
X174117500Y42555000D02*
G01*
X173677500Y42555000D01*
X173677500Y42975000D01*
X174117500Y42975000D01*
X174117500Y42555000D01*
G37*
X174117500Y41905000D02*
X173677500Y41905000D01*
X173677500Y42325000D01*
X174117500Y42325000D01*
X174117500Y41905000D01*
G36*
X174117500Y41905000D02*
G01*
X173677500Y41905000D01*
X173677500Y42325000D01*
X174117500Y42325000D01*
X174117500Y41905000D01*
G37*
X173352500Y47195000D02*
X172282500Y47195000D01*
X172282500Y48685000D01*
X173352500Y48685000D01*
X173352500Y47195000D01*
G36*
X173352500Y47195000D02*
G01*
X172282500Y47195000D01*
X172282500Y48685000D01*
X173352500Y48685000D01*
X173352500Y47195000D01*
G37*
X174117500Y48705000D02*
X173677500Y48705000D01*
X173677500Y49125000D01*
X174117500Y49125000D01*
X174117500Y48705000D01*
G36*
X174117500Y48705000D02*
G01*
X173677500Y48705000D01*
X173677500Y49125000D01*
X174117500Y49125000D01*
X174117500Y48705000D01*
G37*
X174117500Y48055000D02*
X173677500Y48055000D01*
X173677500Y48475000D01*
X174117500Y48475000D01*
X174117500Y48055000D01*
G36*
X174117500Y48055000D02*
G01*
X173677500Y48055000D01*
X173677500Y48475000D01*
X174117500Y48475000D01*
X174117500Y48055000D01*
G37*
X174117500Y47405000D02*
X173677500Y47405000D01*
X173677500Y47825000D01*
X174117500Y47825000D01*
X174117500Y47405000D01*
G36*
X174117500Y47405000D02*
G01*
X173677500Y47405000D01*
X173677500Y47825000D01*
X174117500Y47825000D01*
X174117500Y47405000D01*
G37*
X174117500Y46755000D02*
X173677500Y46755000D01*
X173677500Y47175000D01*
X174117500Y47175000D01*
X174117500Y46755000D01*
G36*
X174117500Y46755000D02*
G01*
X173677500Y46755000D01*
X173677500Y47175000D01*
X174117500Y47175000D01*
X174117500Y46755000D01*
G37*
X173352500Y52045000D02*
X172282500Y52045000D01*
X172282500Y53535000D01*
X173352500Y53535000D01*
X173352500Y52045000D01*
G36*
X173352500Y52045000D02*
G01*
X172282500Y52045000D01*
X172282500Y53535000D01*
X173352500Y53535000D01*
X173352500Y52045000D01*
G37*
X174117500Y53555000D02*
X173677500Y53555000D01*
X173677500Y53975000D01*
X174117500Y53975000D01*
X174117500Y53555000D01*
G36*
X174117500Y53555000D02*
G01*
X173677500Y53555000D01*
X173677500Y53975000D01*
X174117500Y53975000D01*
X174117500Y53555000D01*
G37*
X174117500Y52905000D02*
X173677500Y52905000D01*
X173677500Y53325000D01*
X174117500Y53325000D01*
X174117500Y52905000D01*
G36*
X174117500Y52905000D02*
G01*
X173677500Y52905000D01*
X173677500Y53325000D01*
X174117500Y53325000D01*
X174117500Y52905000D01*
G37*
X174117500Y52255000D02*
X173677500Y52255000D01*
X173677500Y52675000D01*
X174117500Y52675000D01*
X174117500Y52255000D01*
G36*
X174117500Y52255000D02*
G01*
X173677500Y52255000D01*
X173677500Y52675000D01*
X174117500Y52675000D01*
X174117500Y52255000D01*
G37*
X174117500Y51605000D02*
X173677500Y51605000D01*
X173677500Y52025000D01*
X174117500Y52025000D01*
X174117500Y51605000D01*
G36*
X174117500Y51605000D02*
G01*
X173677500Y51605000D01*
X173677500Y52025000D01*
X174117500Y52025000D01*
X174117500Y51605000D01*
G37*
D11*
X149111500Y18961500D03*
X152819900Y18961500D03*
D12*
X156120000Y22010000D03*
X162045000Y22010000D03*
D13*
X131297500Y38290000D03*
X134247500Y38290000D03*
D14*
X165100000Y41970000D03*
X168025000Y41970000D03*
D13*
X131297500Y41640000D03*
X134247500Y41640000D03*
D15*
X170967500Y58615000D03*
X170967500Y57965000D03*
X170967500Y57315000D03*
X170967500Y56665000D03*
D13*
X131297500Y31590000D03*
X134247500Y31590000D03*
D11*
X149111500Y14380100D03*
X152819900Y14380100D03*
D13*
X131297500Y58390000D03*
X134247500Y58390000D03*
D16*
X164872500Y22760000D03*
X167672500Y22760000D03*
D17*
X36750760Y-54033850D03*
X36250380Y-54033850D03*
X35750000Y-54033850D03*
X35249620Y-54033850D03*
X34749240Y-54033850D03*
X34749240Y-58466150D03*
X35249620Y-58466150D03*
X35750000Y-58466150D03*
X36250380Y-58466150D03*
X36750760Y-58466150D03*
D18*
X158592497Y27434804D03*
X163936885Y27434804D03*
D15*
X170967500Y44065000D03*
X170967500Y43415000D03*
X170967500Y42765000D03*
X170967500Y42115000D03*
D14*
X165100000Y58420000D03*
X168025000Y58420000D03*
D15*
X170967500Y48915000D03*
X170967500Y48265000D03*
X170967500Y47615000D03*
X170967500Y46965000D03*
D14*
X165100000Y45260000D03*
X168025000Y45260000D03*
X165100000Y51840000D03*
X168025000Y51840000D03*
X165100000Y48550000D03*
X168025000Y48550000D03*
D15*
X170967500Y53765000D03*
X170967500Y53115000D03*
X170967500Y52465000D03*
X170967500Y51815000D03*
D13*
X131297500Y34940000D03*
X134247500Y34940000D03*
D19*
X198508100Y40072640D03*
X198508100Y39422400D03*
X198508100Y38772160D03*
X198508100Y38121920D03*
X198508100Y37471680D03*
X198508100Y36821440D03*
X198508100Y36171200D03*
X198508100Y35520960D03*
X198508100Y34870720D03*
X198508100Y34220480D03*
X198508100Y33570240D03*
X198508100Y32920000D03*
X205772500Y32920000D03*
X205772500Y33570240D03*
X205772500Y34220480D03*
X205772500Y34870720D03*
X205772500Y35520960D03*
X205772500Y36171200D03*
X205772500Y36821440D03*
X205772500Y37471680D03*
X205772500Y38121920D03*
X205772500Y38772160D03*
X205772500Y39422400D03*
X205772500Y40072640D03*
D13*
X131297500Y55040000D03*
X134247500Y55040000D03*
D11*
X149111500Y23542900D03*
X152819900Y23542900D03*
D13*
X131297500Y51690000D03*
X134247500Y51690000D03*
D12*
X156120000Y17120000D03*
X162045000Y17120000D03*
D20*
X156123300Y13169800D03*
X159573300Y13169800D03*
D13*
X131297500Y44990000D03*
X134247500Y44990000D03*
X131297500Y48340000D03*
X134247500Y48340000D03*
D11*
X149111500Y28124300D03*
X152819900Y28124300D03*
D21*
X138688300Y50314399D03*
X138688300Y40164401D03*
D14*
X165100000Y55130000D03*
X168025000Y55130000D03*
M02*
