G04 #@! TF.GenerationSoftware,KiCad,Pcbnew,7.0.1*
G04 #@! TF.CreationDate,2023-04-06T04:35:05-07:00*
G04 #@! TF.ProjectId,rps01,72707330-312e-46b6-9963-61645f706362,0*
G04 #@! TF.SameCoordinates,Original*
G04 #@! TF.FileFunction,Legend,Top*
G04 #@! TF.FilePolarity,Positive*
%FSLAX46Y46*%
G04 Gerber Fmt 4.6, Leading zero omitted, Abs format (unit mm)*
G04 Created by KiCad (PCBNEW 7.0.1) date 2023-04-06 04:35:05*
%MOMM*%
%LPD*%
G01*
G04 APERTURE LIST*
G04 Aperture macros list*
%AMRoundRect*
0 Rectangle with rounded corners*
0 $1 Rounding radius*
0 $2 $3 $4 $5 $6 $7 $8 $9 X,Y pos of 4 corners*
0 Add a 4 corners polygon primitive as box body*
4,1,4,$2,$3,$4,$5,$6,$7,$8,$9,$2,$3,0*
0 Add four circle primitives for the rounded corners*
1,1,$1+$1,$2,$3*
1,1,$1+$1,$4,$5*
1,1,$1+$1,$6,$7*
1,1,$1+$1,$8,$9*
0 Add four rect primitives between the rounded corners*
20,1,$1+$1,$2,$3,$4,$5,0*
20,1,$1+$1,$4,$5,$6,$7,0*
20,1,$1+$1,$6,$7,$8,$9,0*
20,1,$1+$1,$8,$9,$2,$3,0*%
G04 Aperture macros list end*
%ADD10C,0.150000*%
%ADD11C,0.120000*%
%ADD12C,0.152400*%
%ADD13C,0.200000*%
%ADD14C,0.127000*%
%ADD15C,0.010000*%
%ADD16RoundRect,1.900000X1.900000X-1.900000X1.900000X1.900000X-1.900000X1.900000X-1.900000X-1.900000X0*%
%ADD17C,7.600000*%
%ADD18R,2.184400X1.625600*%
%ADD19RoundRect,0.250000X-0.362500X-1.425000X0.362500X-1.425000X0.362500X1.425000X-0.362500X1.425000X0*%
%ADD20RoundRect,0.250000X-0.325000X-0.650000X0.325000X-0.650000X0.325000X0.650000X-0.325000X0.650000X0*%
%ADD21RoundRect,0.250000X-0.312500X-0.625000X0.312500X-0.625000X0.312500X0.625000X-0.312500X0.625000X0*%
%ADD22R,1.200000X1.200000*%
%ADD23C,1.200000*%
%ADD24R,0.700000X0.420000*%
%ADD25RoundRect,0.250000X-0.375000X-0.625000X0.375000X-0.625000X0.375000X0.625000X-0.375000X0.625000X0*%
%ADD26R,0.279400X1.333500*%
%ADD27R,2.560396X2.499995*%
%ADD28RoundRect,1.900000X-1.900000X1.900000X-1.900000X-1.900000X1.900000X-1.900000X1.900000X1.900000X0*%
%ADD29R,1.651000X0.431800*%
%ADD30R,1.111200X0.600800*%
%ADD31RoundRect,1.900000X-1.900000X-1.900000X1.900000X-1.900000X1.900000X1.900000X-1.900000X1.900000X0*%
%ADD32RoundRect,1.500000X-1.500000X-1.500000X1.500000X-1.500000X1.500000X1.500000X-1.500000X1.500000X0*%
%ADD33C,6.000000*%
%ADD34R,4.521200X4.241800*%
G04 APERTURE END LIST*
D10*
X15912619Y-82833333D02*
X16626904Y-82833333D01*
X16626904Y-82833333D02*
X16769761Y-82880952D01*
X16769761Y-82880952D02*
X16865000Y-82976190D01*
X16865000Y-82976190D02*
X16912619Y-83119047D01*
X16912619Y-83119047D02*
X16912619Y-83214285D01*
X16007857Y-82404761D02*
X15960238Y-82357142D01*
X15960238Y-82357142D02*
X15912619Y-82261904D01*
X15912619Y-82261904D02*
X15912619Y-82023809D01*
X15912619Y-82023809D02*
X15960238Y-81928571D01*
X15960238Y-81928571D02*
X16007857Y-81880952D01*
X16007857Y-81880952D02*
X16103095Y-81833333D01*
X16103095Y-81833333D02*
X16198333Y-81833333D01*
X16198333Y-81833333D02*
X16341190Y-81880952D01*
X16341190Y-81880952D02*
X16912619Y-82452380D01*
X16912619Y-82452380D02*
X16912619Y-81833333D01*
X150227605Y18498880D02*
X150227605Y19498880D01*
X150227605Y19498880D02*
X150465700Y19498880D01*
X150465700Y19498880D02*
X150608557Y19451261D01*
X150608557Y19451261D02*
X150703795Y19356023D01*
X150703795Y19356023D02*
X150751414Y19260785D01*
X150751414Y19260785D02*
X150799033Y19070309D01*
X150799033Y19070309D02*
X150799033Y18927452D01*
X150799033Y18927452D02*
X150751414Y18736976D01*
X150751414Y18736976D02*
X150703795Y18641738D01*
X150703795Y18641738D02*
X150608557Y18546500D01*
X150608557Y18546500D02*
X150465700Y18498880D01*
X150465700Y18498880D02*
X150227605Y18498880D01*
X151656176Y19165547D02*
X151656176Y18498880D01*
X151418081Y19546500D02*
X151179986Y18832214D01*
X151179986Y18832214D02*
X151799033Y18832214D01*
X158511071Y24167380D02*
X158177738Y24643571D01*
X157939643Y24167380D02*
X157939643Y25167380D01*
X157939643Y25167380D02*
X158320595Y25167380D01*
X158320595Y25167380D02*
X158415833Y25119761D01*
X158415833Y25119761D02*
X158463452Y25072142D01*
X158463452Y25072142D02*
X158511071Y24976904D01*
X158511071Y24976904D02*
X158511071Y24834047D01*
X158511071Y24834047D02*
X158463452Y24738809D01*
X158463452Y24738809D02*
X158415833Y24691190D01*
X158415833Y24691190D02*
X158320595Y24643571D01*
X158320595Y24643571D02*
X157939643Y24643571D01*
X158892024Y24215000D02*
X158987262Y24167380D01*
X158987262Y24167380D02*
X159177738Y24167380D01*
X159177738Y24167380D02*
X159272976Y24215000D01*
X159272976Y24215000D02*
X159320595Y24310238D01*
X159320595Y24310238D02*
X159320595Y24357857D01*
X159320595Y24357857D02*
X159272976Y24453095D01*
X159272976Y24453095D02*
X159177738Y24500714D01*
X159177738Y24500714D02*
X159034881Y24500714D01*
X159034881Y24500714D02*
X158939643Y24548333D01*
X158939643Y24548333D02*
X158892024Y24643571D01*
X158892024Y24643571D02*
X158892024Y24691190D01*
X158892024Y24691190D02*
X158939643Y24786428D01*
X158939643Y24786428D02*
X159034881Y24834047D01*
X159034881Y24834047D02*
X159177738Y24834047D01*
X159177738Y24834047D02*
X159272976Y24786428D01*
X160272976Y24167380D02*
X159701548Y24167380D01*
X159987262Y24167380D02*
X159987262Y25167380D01*
X159987262Y25167380D02*
X159892024Y25024523D01*
X159892024Y25024523D02*
X159796786Y24929285D01*
X159796786Y24929285D02*
X159701548Y24881666D01*
X131796309Y39772619D02*
X131748690Y39725000D01*
X131748690Y39725000D02*
X131605833Y39677380D01*
X131605833Y39677380D02*
X131510595Y39677380D01*
X131510595Y39677380D02*
X131367738Y39725000D01*
X131367738Y39725000D02*
X131272500Y39820238D01*
X131272500Y39820238D02*
X131224881Y39915476D01*
X131224881Y39915476D02*
X131177262Y40105952D01*
X131177262Y40105952D02*
X131177262Y40248809D01*
X131177262Y40248809D02*
X131224881Y40439285D01*
X131224881Y40439285D02*
X131272500Y40534523D01*
X131272500Y40534523D02*
X131367738Y40629761D01*
X131367738Y40629761D02*
X131510595Y40677380D01*
X131510595Y40677380D02*
X131605833Y40677380D01*
X131605833Y40677380D02*
X131748690Y40629761D01*
X131748690Y40629761D02*
X131796309Y40582142D01*
X132177262Y39725000D02*
X132272500Y39677380D01*
X132272500Y39677380D02*
X132462976Y39677380D01*
X132462976Y39677380D02*
X132558214Y39725000D01*
X132558214Y39725000D02*
X132605833Y39820238D01*
X132605833Y39820238D02*
X132605833Y39867857D01*
X132605833Y39867857D02*
X132558214Y39963095D01*
X132558214Y39963095D02*
X132462976Y40010714D01*
X132462976Y40010714D02*
X132320119Y40010714D01*
X132320119Y40010714D02*
X132224881Y40058333D01*
X132224881Y40058333D02*
X132177262Y40153571D01*
X132177262Y40153571D02*
X132177262Y40201190D01*
X132177262Y40201190D02*
X132224881Y40296428D01*
X132224881Y40296428D02*
X132320119Y40344047D01*
X132320119Y40344047D02*
X132462976Y40344047D01*
X132462976Y40344047D02*
X132558214Y40296428D01*
X132986786Y39725000D02*
X133082024Y39677380D01*
X133082024Y39677380D02*
X133272500Y39677380D01*
X133272500Y39677380D02*
X133367738Y39725000D01*
X133367738Y39725000D02*
X133415357Y39820238D01*
X133415357Y39820238D02*
X133415357Y39867857D01*
X133415357Y39867857D02*
X133367738Y39963095D01*
X133367738Y39963095D02*
X133272500Y40010714D01*
X133272500Y40010714D02*
X133129643Y40010714D01*
X133129643Y40010714D02*
X133034405Y40058333D01*
X133034405Y40058333D02*
X132986786Y40153571D01*
X132986786Y40153571D02*
X132986786Y40201190D01*
X132986786Y40201190D02*
X133034405Y40296428D01*
X133034405Y40296428D02*
X133129643Y40344047D01*
X133129643Y40344047D02*
X133272500Y40344047D01*
X133272500Y40344047D02*
X133367738Y40296428D01*
X134367738Y39677380D02*
X133796310Y39677380D01*
X134082024Y39677380D02*
X134082024Y40677380D01*
X134082024Y40677380D02*
X133986786Y40534523D01*
X133986786Y40534523D02*
X133891548Y40439285D01*
X133891548Y40439285D02*
X133796310Y40391666D01*
X165657737Y43327380D02*
X165324404Y43803571D01*
X165086309Y43327380D02*
X165086309Y44327380D01*
X165086309Y44327380D02*
X165467261Y44327380D01*
X165467261Y44327380D02*
X165562499Y44279761D01*
X165562499Y44279761D02*
X165610118Y44232142D01*
X165610118Y44232142D02*
X165657737Y44136904D01*
X165657737Y44136904D02*
X165657737Y43994047D01*
X165657737Y43994047D02*
X165610118Y43898809D01*
X165610118Y43898809D02*
X165562499Y43851190D01*
X165562499Y43851190D02*
X165467261Y43803571D01*
X165467261Y43803571D02*
X165086309Y43803571D01*
X165943452Y43994047D02*
X166324404Y43994047D01*
X166086309Y44327380D02*
X166086309Y43470238D01*
X166086309Y43470238D02*
X166133928Y43375000D01*
X166133928Y43375000D02*
X166229166Y43327380D01*
X166229166Y43327380D02*
X166324404Y43327380D01*
X166657738Y43327380D02*
X166657738Y44327380D01*
X167086309Y43327380D02*
X167086309Y43851190D01*
X167086309Y43851190D02*
X167038690Y43946428D01*
X167038690Y43946428D02*
X166943452Y43994047D01*
X166943452Y43994047D02*
X166800595Y43994047D01*
X166800595Y43994047D02*
X166705357Y43946428D01*
X166705357Y43946428D02*
X166657738Y43898809D01*
X168086309Y43327380D02*
X167514881Y43327380D01*
X167800595Y43327380D02*
X167800595Y44327380D01*
X167800595Y44327380D02*
X167705357Y44184523D01*
X167705357Y44184523D02*
X167610119Y44089285D01*
X167610119Y44089285D02*
X167514881Y44041666D01*
X12666666Y-13442619D02*
X12333333Y-12966428D01*
X12095238Y-13442619D02*
X12095238Y-12442619D01*
X12095238Y-12442619D02*
X12476190Y-12442619D01*
X12476190Y-12442619D02*
X12571428Y-12490238D01*
X12571428Y-12490238D02*
X12619047Y-12537857D01*
X12619047Y-12537857D02*
X12666666Y-12633095D01*
X12666666Y-12633095D02*
X12666666Y-12775952D01*
X12666666Y-12775952D02*
X12619047Y-12871190D01*
X12619047Y-12871190D02*
X12571428Y-12918809D01*
X12571428Y-12918809D02*
X12476190Y-12966428D01*
X12476190Y-12966428D02*
X12095238Y-12966428D01*
X13095238Y-12918809D02*
X13428571Y-12918809D01*
X13571428Y-13442619D02*
X13095238Y-13442619D01*
X13095238Y-13442619D02*
X13095238Y-12442619D01*
X13095238Y-12442619D02*
X13571428Y-12442619D01*
X14333333Y-12918809D02*
X14000000Y-12918809D01*
X14000000Y-13442619D02*
X14000000Y-12442619D01*
X14000000Y-12442619D02*
X14476190Y-12442619D01*
X15000000Y-12442619D02*
X15000000Y-12680714D01*
X14761905Y-12585476D02*
X15000000Y-12680714D01*
X15000000Y-12680714D02*
X15238095Y-12585476D01*
X14857143Y-12871190D02*
X15000000Y-12680714D01*
X15000000Y-12680714D02*
X15142857Y-12871190D01*
X15761905Y-12442619D02*
X15761905Y-12680714D01*
X15523810Y-12585476D02*
X15761905Y-12680714D01*
X15761905Y-12680714D02*
X16000000Y-12585476D01*
X15619048Y-12871190D02*
X15761905Y-12680714D01*
X15761905Y-12680714D02*
X15904762Y-12871190D01*
X132201071Y43122619D02*
X132153452Y43075000D01*
X132153452Y43075000D02*
X132010595Y43027380D01*
X132010595Y43027380D02*
X131915357Y43027380D01*
X131915357Y43027380D02*
X131772500Y43075000D01*
X131772500Y43075000D02*
X131677262Y43170238D01*
X131677262Y43170238D02*
X131629643Y43265476D01*
X131629643Y43265476D02*
X131582024Y43455952D01*
X131582024Y43455952D02*
X131582024Y43598809D01*
X131582024Y43598809D02*
X131629643Y43789285D01*
X131629643Y43789285D02*
X131677262Y43884523D01*
X131677262Y43884523D02*
X131772500Y43979761D01*
X131772500Y43979761D02*
X131915357Y44027380D01*
X131915357Y44027380D02*
X132010595Y44027380D01*
X132010595Y44027380D02*
X132153452Y43979761D01*
X132153452Y43979761D02*
X132201071Y43932142D01*
X132582024Y43075000D02*
X132677262Y43027380D01*
X132677262Y43027380D02*
X132867738Y43027380D01*
X132867738Y43027380D02*
X132962976Y43075000D01*
X132962976Y43075000D02*
X133010595Y43170238D01*
X133010595Y43170238D02*
X133010595Y43217857D01*
X133010595Y43217857D02*
X132962976Y43313095D01*
X132962976Y43313095D02*
X132867738Y43360714D01*
X132867738Y43360714D02*
X132724881Y43360714D01*
X132724881Y43360714D02*
X132629643Y43408333D01*
X132629643Y43408333D02*
X132582024Y43503571D01*
X132582024Y43503571D02*
X132582024Y43551190D01*
X132582024Y43551190D02*
X132629643Y43646428D01*
X132629643Y43646428D02*
X132724881Y43694047D01*
X132724881Y43694047D02*
X132867738Y43694047D01*
X132867738Y43694047D02*
X132962976Y43646428D01*
X133962976Y43027380D02*
X133391548Y43027380D01*
X133677262Y43027380D02*
X133677262Y44027380D01*
X133677262Y44027380D02*
X133582024Y43884523D01*
X133582024Y43884523D02*
X133486786Y43789285D01*
X133486786Y43789285D02*
X133391548Y43741666D01*
X136579165Y20807619D02*
X136531546Y20760000D01*
X136531546Y20760000D02*
X136388689Y20712380D01*
X136388689Y20712380D02*
X136293451Y20712380D01*
X136293451Y20712380D02*
X136150594Y20760000D01*
X136150594Y20760000D02*
X136055356Y20855238D01*
X136055356Y20855238D02*
X136007737Y20950476D01*
X136007737Y20950476D02*
X135960118Y21140952D01*
X135960118Y21140952D02*
X135960118Y21283809D01*
X135960118Y21283809D02*
X136007737Y21474285D01*
X136007737Y21474285D02*
X136055356Y21569523D01*
X136055356Y21569523D02*
X136150594Y21664761D01*
X136150594Y21664761D02*
X136293451Y21712380D01*
X136293451Y21712380D02*
X136388689Y21712380D01*
X136388689Y21712380D02*
X136531546Y21664761D01*
X136531546Y21664761D02*
X136579165Y21617142D01*
X137150594Y20712380D02*
X137055356Y20760000D01*
X137055356Y20760000D02*
X137007737Y20807619D01*
X137007737Y20807619D02*
X136960118Y20902857D01*
X136960118Y20902857D02*
X136960118Y21188571D01*
X136960118Y21188571D02*
X137007737Y21283809D01*
X137007737Y21283809D02*
X137055356Y21331428D01*
X137055356Y21331428D02*
X137150594Y21379047D01*
X137150594Y21379047D02*
X137293451Y21379047D01*
X137293451Y21379047D02*
X137388689Y21331428D01*
X137388689Y21331428D02*
X137436308Y21283809D01*
X137436308Y21283809D02*
X137483927Y21188571D01*
X137483927Y21188571D02*
X137483927Y20902857D01*
X137483927Y20902857D02*
X137436308Y20807619D01*
X137436308Y20807619D02*
X137388689Y20760000D01*
X137388689Y20760000D02*
X137293451Y20712380D01*
X137293451Y20712380D02*
X137150594Y20712380D01*
X138341070Y21379047D02*
X138341070Y20712380D01*
X137912499Y21379047D02*
X137912499Y20855238D01*
X137912499Y20855238D02*
X137960118Y20760000D01*
X137960118Y20760000D02*
X138055356Y20712380D01*
X138055356Y20712380D02*
X138198213Y20712380D01*
X138198213Y20712380D02*
X138293451Y20760000D01*
X138293451Y20760000D02*
X138341070Y20807619D01*
X138674404Y21379047D02*
X139055356Y21379047D01*
X138817261Y21712380D02*
X138817261Y20855238D01*
X138817261Y20855238D02*
X138864880Y20760000D01*
X138864880Y20760000D02*
X138960118Y20712380D01*
X138960118Y20712380D02*
X139055356Y20712380D01*
X139674404Y20331428D02*
X139626785Y20379047D01*
X139626785Y20379047D02*
X139531547Y20521904D01*
X139531547Y20521904D02*
X139483928Y20617142D01*
X139483928Y20617142D02*
X139436309Y20760000D01*
X139436309Y20760000D02*
X139388690Y20998095D01*
X139388690Y20998095D02*
X139388690Y21188571D01*
X139388690Y21188571D02*
X139436309Y21426666D01*
X139436309Y21426666D02*
X139483928Y21569523D01*
X139483928Y21569523D02*
X139531547Y21664761D01*
X139531547Y21664761D02*
X139626785Y21807619D01*
X139626785Y21807619D02*
X139674404Y21855238D01*
X139912500Y21379047D02*
X140293452Y21379047D01*
X140055357Y20712380D02*
X140055357Y21569523D01*
X140055357Y21569523D02*
X140102976Y21664761D01*
X140102976Y21664761D02*
X140198214Y21712380D01*
X140198214Y21712380D02*
X140293452Y21712380D01*
X140626786Y20712380D02*
X140626786Y21379047D01*
X140626786Y21712380D02*
X140579167Y21664761D01*
X140579167Y21664761D02*
X140626786Y21617142D01*
X140626786Y21617142D02*
X140674405Y21664761D01*
X140674405Y21664761D02*
X140626786Y21712380D01*
X140626786Y21712380D02*
X140626786Y21617142D01*
X141245833Y20712380D02*
X141150595Y20760000D01*
X141150595Y20760000D02*
X141102976Y20855238D01*
X141102976Y20855238D02*
X141102976Y21712380D01*
X141483929Y21379047D02*
X141864881Y21379047D01*
X141626786Y21712380D02*
X141626786Y20855238D01*
X141626786Y20855238D02*
X141674405Y20760000D01*
X141674405Y20760000D02*
X141769643Y20712380D01*
X141769643Y20712380D02*
X141864881Y20712380D01*
X142579167Y20760000D02*
X142483929Y20712380D01*
X142483929Y20712380D02*
X142293453Y20712380D01*
X142293453Y20712380D02*
X142198215Y20760000D01*
X142198215Y20760000D02*
X142150596Y20855238D01*
X142150596Y20855238D02*
X142150596Y21236190D01*
X142150596Y21236190D02*
X142198215Y21331428D01*
X142198215Y21331428D02*
X142293453Y21379047D01*
X142293453Y21379047D02*
X142483929Y21379047D01*
X142483929Y21379047D02*
X142579167Y21331428D01*
X142579167Y21331428D02*
X142626786Y21236190D01*
X142626786Y21236190D02*
X142626786Y21140952D01*
X142626786Y21140952D02*
X142150596Y21045714D01*
X143055358Y20712380D02*
X143055358Y21379047D01*
X143055358Y21188571D02*
X143102977Y21283809D01*
X143102977Y21283809D02*
X143150596Y21331428D01*
X143150596Y21331428D02*
X143245834Y21379047D01*
X143245834Y21379047D02*
X143341072Y21379047D01*
X143579168Y20331428D02*
X143626787Y20379047D01*
X143626787Y20379047D02*
X143722025Y20521904D01*
X143722025Y20521904D02*
X143769644Y20617142D01*
X143769644Y20617142D02*
X143817263Y20760000D01*
X143817263Y20760000D02*
X143864882Y20998095D01*
X143864882Y20998095D02*
X143864882Y21188571D01*
X143864882Y21188571D02*
X143817263Y21426666D01*
X143817263Y21426666D02*
X143769644Y21569523D01*
X143769644Y21569523D02*
X143722025Y21664761D01*
X143722025Y21664761D02*
X143626787Y21807619D01*
X143626787Y21807619D02*
X143579168Y21855238D01*
X144864882Y20712380D02*
X144293454Y20712380D01*
X144579168Y20712380D02*
X144579168Y21712380D01*
X144579168Y21712380D02*
X144483930Y21569523D01*
X144483930Y21569523D02*
X144388692Y21474285D01*
X144388692Y21474285D02*
X144293454Y21426666D01*
X172831309Y59701714D02*
X172755119Y59739809D01*
X172755119Y59739809D02*
X172678928Y59816000D01*
X172678928Y59816000D02*
X172564642Y59930285D01*
X172564642Y59930285D02*
X172488452Y59968380D01*
X172488452Y59968380D02*
X172412261Y59968380D01*
X172450357Y59777904D02*
X172374166Y59816000D01*
X172374166Y59816000D02*
X172297976Y59892190D01*
X172297976Y59892190D02*
X172259880Y60044571D01*
X172259880Y60044571D02*
X172259880Y60311238D01*
X172259880Y60311238D02*
X172297976Y60463619D01*
X172297976Y60463619D02*
X172374166Y60539809D01*
X172374166Y60539809D02*
X172450357Y60577904D01*
X172450357Y60577904D02*
X172602738Y60577904D01*
X172602738Y60577904D02*
X172678928Y60539809D01*
X172678928Y60539809D02*
X172755119Y60463619D01*
X172755119Y60463619D02*
X172793214Y60311238D01*
X172793214Y60311238D02*
X172793214Y60044571D01*
X172793214Y60044571D02*
X172755119Y59892190D01*
X172755119Y59892190D02*
X172678928Y59816000D01*
X172678928Y59816000D02*
X172602738Y59777904D01*
X172602738Y59777904D02*
X172450357Y59777904D01*
X173555118Y59777904D02*
X173097975Y59777904D01*
X173326547Y59777904D02*
X173326547Y60577904D01*
X173326547Y60577904D02*
X173250356Y60463619D01*
X173250356Y60463619D02*
X173174166Y60387428D01*
X173174166Y60387428D02*
X173097975Y60349333D01*
X131415356Y33072619D02*
X131367737Y33025000D01*
X131367737Y33025000D02*
X131224880Y32977380D01*
X131224880Y32977380D02*
X131129642Y32977380D01*
X131129642Y32977380D02*
X130986785Y33025000D01*
X130986785Y33025000D02*
X130891547Y33120238D01*
X130891547Y33120238D02*
X130843928Y33215476D01*
X130843928Y33215476D02*
X130796309Y33405952D01*
X130796309Y33405952D02*
X130796309Y33548809D01*
X130796309Y33548809D02*
X130843928Y33739285D01*
X130843928Y33739285D02*
X130891547Y33834523D01*
X130891547Y33834523D02*
X130986785Y33929761D01*
X130986785Y33929761D02*
X131129642Y33977380D01*
X131129642Y33977380D02*
X131224880Y33977380D01*
X131224880Y33977380D02*
X131367737Y33929761D01*
X131367737Y33929761D02*
X131415356Y33882142D01*
X131701071Y33644047D02*
X132082023Y33644047D01*
X131843928Y33977380D02*
X131843928Y33120238D01*
X131843928Y33120238D02*
X131891547Y33025000D01*
X131891547Y33025000D02*
X131986785Y32977380D01*
X131986785Y32977380D02*
X132082023Y32977380D01*
X132415357Y32977380D02*
X132415357Y33977380D01*
X132843928Y32977380D02*
X132843928Y33501190D01*
X132843928Y33501190D02*
X132796309Y33596428D01*
X132796309Y33596428D02*
X132701071Y33644047D01*
X132701071Y33644047D02*
X132558214Y33644047D01*
X132558214Y33644047D02*
X132462976Y33596428D01*
X132462976Y33596428D02*
X132415357Y33548809D01*
X133320119Y33644047D02*
X133320119Y32644047D01*
X133320119Y33596428D02*
X133415357Y33644047D01*
X133415357Y33644047D02*
X133605833Y33644047D01*
X133605833Y33644047D02*
X133701071Y33596428D01*
X133701071Y33596428D02*
X133748690Y33548809D01*
X133748690Y33548809D02*
X133796309Y33453571D01*
X133796309Y33453571D02*
X133796309Y33167857D01*
X133796309Y33167857D02*
X133748690Y33072619D01*
X133748690Y33072619D02*
X133701071Y33025000D01*
X133701071Y33025000D02*
X133605833Y32977380D01*
X133605833Y32977380D02*
X133415357Y32977380D01*
X133415357Y32977380D02*
X133320119Y33025000D01*
X134748690Y32977380D02*
X134177262Y32977380D01*
X134462976Y32977380D02*
X134462976Y33977380D01*
X134462976Y33977380D02*
X134367738Y33834523D01*
X134367738Y33834523D02*
X134272500Y33739285D01*
X134272500Y33739285D02*
X134177262Y33691666D01*
X150227605Y13917480D02*
X150227605Y14917480D01*
X150227605Y14917480D02*
X150465700Y14917480D01*
X150465700Y14917480D02*
X150608557Y14869861D01*
X150608557Y14869861D02*
X150703795Y14774623D01*
X150703795Y14774623D02*
X150751414Y14679385D01*
X150751414Y14679385D02*
X150799033Y14488909D01*
X150799033Y14488909D02*
X150799033Y14346052D01*
X150799033Y14346052D02*
X150751414Y14155576D01*
X150751414Y14155576D02*
X150703795Y14060338D01*
X150703795Y14060338D02*
X150608557Y13965100D01*
X150608557Y13965100D02*
X150465700Y13917480D01*
X150465700Y13917480D02*
X150227605Y13917480D01*
X151703795Y14917480D02*
X151227605Y14917480D01*
X151227605Y14917480D02*
X151179986Y14441290D01*
X151179986Y14441290D02*
X151227605Y14488909D01*
X151227605Y14488909D02*
X151322843Y14536528D01*
X151322843Y14536528D02*
X151560938Y14536528D01*
X151560938Y14536528D02*
X151656176Y14488909D01*
X151656176Y14488909D02*
X151703795Y14441290D01*
X151703795Y14441290D02*
X151751414Y14346052D01*
X151751414Y14346052D02*
X151751414Y14107957D01*
X151751414Y14107957D02*
X151703795Y14012719D01*
X151703795Y14012719D02*
X151656176Y13965100D01*
X151656176Y13965100D02*
X151560938Y13917480D01*
X151560938Y13917480D02*
X151322843Y13917480D01*
X151322843Y13917480D02*
X151227605Y13965100D01*
X151227605Y13965100D02*
X151179986Y14012719D01*
X129082023Y59872619D02*
X129034404Y59825000D01*
X129034404Y59825000D02*
X128891547Y59777380D01*
X128891547Y59777380D02*
X128796309Y59777380D01*
X128796309Y59777380D02*
X128653452Y59825000D01*
X128653452Y59825000D02*
X128558214Y59920238D01*
X128558214Y59920238D02*
X128510595Y60015476D01*
X128510595Y60015476D02*
X128462976Y60205952D01*
X128462976Y60205952D02*
X128462976Y60348809D01*
X128462976Y60348809D02*
X128510595Y60539285D01*
X128510595Y60539285D02*
X128558214Y60634523D01*
X128558214Y60634523D02*
X128653452Y60729761D01*
X128653452Y60729761D02*
X128796309Y60777380D01*
X128796309Y60777380D02*
X128891547Y60777380D01*
X128891547Y60777380D02*
X129034404Y60729761D01*
X129034404Y60729761D02*
X129082023Y60682142D01*
X129796309Y59396428D02*
X129748690Y59444047D01*
X129748690Y59444047D02*
X129653452Y59586904D01*
X129653452Y59586904D02*
X129605833Y59682142D01*
X129605833Y59682142D02*
X129558214Y59825000D01*
X129558214Y59825000D02*
X129510595Y60063095D01*
X129510595Y60063095D02*
X129510595Y60253571D01*
X129510595Y60253571D02*
X129558214Y60491666D01*
X129558214Y60491666D02*
X129605833Y60634523D01*
X129605833Y60634523D02*
X129653452Y60729761D01*
X129653452Y60729761D02*
X129748690Y60872619D01*
X129748690Y60872619D02*
X129796309Y60920238D01*
X130129643Y59825000D02*
X130272500Y59777380D01*
X130272500Y59777380D02*
X130510595Y59777380D01*
X130510595Y59777380D02*
X130605833Y59825000D01*
X130605833Y59825000D02*
X130653452Y59872619D01*
X130653452Y59872619D02*
X130701071Y59967857D01*
X130701071Y59967857D02*
X130701071Y60063095D01*
X130701071Y60063095D02*
X130653452Y60158333D01*
X130653452Y60158333D02*
X130605833Y60205952D01*
X130605833Y60205952D02*
X130510595Y60253571D01*
X130510595Y60253571D02*
X130320119Y60301190D01*
X130320119Y60301190D02*
X130224881Y60348809D01*
X130224881Y60348809D02*
X130177262Y60396428D01*
X130177262Y60396428D02*
X130129643Y60491666D01*
X130129643Y60491666D02*
X130129643Y60586904D01*
X130129643Y60586904D02*
X130177262Y60682142D01*
X130177262Y60682142D02*
X130224881Y60729761D01*
X130224881Y60729761D02*
X130320119Y60777380D01*
X130320119Y60777380D02*
X130558214Y60777380D01*
X130558214Y60777380D02*
X130701071Y60729761D01*
X130986786Y60777380D02*
X131558214Y60777380D01*
X131272500Y59777380D02*
X131272500Y60777380D01*
X132224881Y60301190D02*
X132367738Y60253571D01*
X132367738Y60253571D02*
X132415357Y60205952D01*
X132415357Y60205952D02*
X132462976Y60110714D01*
X132462976Y60110714D02*
X132462976Y59967857D01*
X132462976Y59967857D02*
X132415357Y59872619D01*
X132415357Y59872619D02*
X132367738Y59825000D01*
X132367738Y59825000D02*
X132272500Y59777380D01*
X132272500Y59777380D02*
X131891548Y59777380D01*
X131891548Y59777380D02*
X131891548Y60777380D01*
X131891548Y60777380D02*
X132224881Y60777380D01*
X132224881Y60777380D02*
X132320119Y60729761D01*
X132320119Y60729761D02*
X132367738Y60682142D01*
X132367738Y60682142D02*
X132415357Y60586904D01*
X132415357Y60586904D02*
X132415357Y60491666D01*
X132415357Y60491666D02*
X132367738Y60396428D01*
X132367738Y60396428D02*
X132320119Y60348809D01*
X132320119Y60348809D02*
X132224881Y60301190D01*
X132224881Y60301190D02*
X131891548Y60301190D01*
X133082024Y60253571D02*
X133082024Y59777380D01*
X132748691Y60777380D02*
X133082024Y60253571D01*
X133082024Y60253571D02*
X133415357Y60777380D01*
X133748691Y59777380D02*
X133748691Y60777380D01*
X133748691Y60777380D02*
X134082024Y60063095D01*
X134082024Y60063095D02*
X134415357Y60777380D01*
X134415357Y60777380D02*
X134415357Y59777380D01*
X134891548Y59777380D02*
X134891548Y60777380D01*
X134891548Y60777380D02*
X135129643Y60777380D01*
X135129643Y60777380D02*
X135272500Y60729761D01*
X135272500Y60729761D02*
X135367738Y60634523D01*
X135367738Y60634523D02*
X135415357Y60539285D01*
X135415357Y60539285D02*
X135462976Y60348809D01*
X135462976Y60348809D02*
X135462976Y60205952D01*
X135462976Y60205952D02*
X135415357Y60015476D01*
X135415357Y60015476D02*
X135367738Y59920238D01*
X135367738Y59920238D02*
X135272500Y59825000D01*
X135272500Y59825000D02*
X135129643Y59777380D01*
X135129643Y59777380D02*
X134891548Y59777380D01*
X135796310Y59396428D02*
X135843929Y59444047D01*
X135843929Y59444047D02*
X135939167Y59586904D01*
X135939167Y59586904D02*
X135986786Y59682142D01*
X135986786Y59682142D02*
X136034405Y59825000D01*
X136034405Y59825000D02*
X136082024Y60063095D01*
X136082024Y60063095D02*
X136082024Y60253571D01*
X136082024Y60253571D02*
X136034405Y60491666D01*
X136034405Y60491666D02*
X135986786Y60634523D01*
X135986786Y60634523D02*
X135939167Y60729761D01*
X135939167Y60729761D02*
X135843929Y60872619D01*
X135843929Y60872619D02*
X135796310Y60920238D01*
X137082024Y59777380D02*
X136510596Y59777380D01*
X136796310Y59777380D02*
X136796310Y60777380D01*
X136796310Y60777380D02*
X136701072Y60634523D01*
X136701072Y60634523D02*
X136605834Y60539285D01*
X136605834Y60539285D02*
X136510596Y60491666D01*
X163177261Y24117380D02*
X162843928Y24593571D01*
X162605833Y24117380D02*
X162605833Y25117380D01*
X162605833Y25117380D02*
X162986785Y25117380D01*
X162986785Y25117380D02*
X163082023Y25069761D01*
X163082023Y25069761D02*
X163129642Y25022142D01*
X163129642Y25022142D02*
X163177261Y24926904D01*
X163177261Y24926904D02*
X163177261Y24784047D01*
X163177261Y24784047D02*
X163129642Y24688809D01*
X163129642Y24688809D02*
X163082023Y24641190D01*
X163082023Y24641190D02*
X162986785Y24593571D01*
X162986785Y24593571D02*
X162605833Y24593571D01*
X163891547Y23736428D02*
X163843928Y23784047D01*
X163843928Y23784047D02*
X163748690Y23926904D01*
X163748690Y23926904D02*
X163701071Y24022142D01*
X163701071Y24022142D02*
X163653452Y24165000D01*
X163653452Y24165000D02*
X163605833Y24403095D01*
X163605833Y24403095D02*
X163605833Y24593571D01*
X163605833Y24593571D02*
X163653452Y24831666D01*
X163653452Y24831666D02*
X163701071Y24974523D01*
X163701071Y24974523D02*
X163748690Y25069761D01*
X163748690Y25069761D02*
X163843928Y25212619D01*
X163843928Y25212619D02*
X163891547Y25260238D01*
X164272500Y24784047D02*
X164272500Y23784047D01*
X164272500Y24736428D02*
X164367738Y24784047D01*
X164367738Y24784047D02*
X164558214Y24784047D01*
X164558214Y24784047D02*
X164653452Y24736428D01*
X164653452Y24736428D02*
X164701071Y24688809D01*
X164701071Y24688809D02*
X164748690Y24593571D01*
X164748690Y24593571D02*
X164748690Y24307857D01*
X164748690Y24307857D02*
X164701071Y24212619D01*
X164701071Y24212619D02*
X164653452Y24165000D01*
X164653452Y24165000D02*
X164558214Y24117380D01*
X164558214Y24117380D02*
X164367738Y24117380D01*
X164367738Y24117380D02*
X164272500Y24165000D01*
X165605833Y24784047D02*
X165605833Y23974523D01*
X165605833Y23974523D02*
X165558214Y23879285D01*
X165558214Y23879285D02*
X165510595Y23831666D01*
X165510595Y23831666D02*
X165415357Y23784047D01*
X165415357Y23784047D02*
X165272500Y23784047D01*
X165272500Y23784047D02*
X165177262Y23831666D01*
X165605833Y24165000D02*
X165510595Y24117380D01*
X165510595Y24117380D02*
X165320119Y24117380D01*
X165320119Y24117380D02*
X165224881Y24165000D01*
X165224881Y24165000D02*
X165177262Y24212619D01*
X165177262Y24212619D02*
X165129643Y24307857D01*
X165129643Y24307857D02*
X165129643Y24593571D01*
X165129643Y24593571D02*
X165177262Y24688809D01*
X165177262Y24688809D02*
X165224881Y24736428D01*
X165224881Y24736428D02*
X165320119Y24784047D01*
X165320119Y24784047D02*
X165510595Y24784047D01*
X165510595Y24784047D02*
X165605833Y24736428D01*
X166224881Y24117380D02*
X166129643Y24165000D01*
X166129643Y24165000D02*
X166082024Y24212619D01*
X166082024Y24212619D02*
X166034405Y24307857D01*
X166034405Y24307857D02*
X166034405Y24593571D01*
X166034405Y24593571D02*
X166082024Y24688809D01*
X166082024Y24688809D02*
X166129643Y24736428D01*
X166129643Y24736428D02*
X166224881Y24784047D01*
X166224881Y24784047D02*
X166367738Y24784047D01*
X166367738Y24784047D02*
X166462976Y24736428D01*
X166462976Y24736428D02*
X166510595Y24688809D01*
X166510595Y24688809D02*
X166558214Y24593571D01*
X166558214Y24593571D02*
X166558214Y24307857D01*
X166558214Y24307857D02*
X166510595Y24212619D01*
X166510595Y24212619D02*
X166462976Y24165000D01*
X166462976Y24165000D02*
X166367738Y24117380D01*
X166367738Y24117380D02*
X166224881Y24117380D01*
X167129643Y24117380D02*
X167034405Y24165000D01*
X167034405Y24165000D02*
X166986786Y24212619D01*
X166986786Y24212619D02*
X166939167Y24307857D01*
X166939167Y24307857D02*
X166939167Y24593571D01*
X166939167Y24593571D02*
X166986786Y24688809D01*
X166986786Y24688809D02*
X167034405Y24736428D01*
X167034405Y24736428D02*
X167129643Y24784047D01*
X167129643Y24784047D02*
X167272500Y24784047D01*
X167272500Y24784047D02*
X167367738Y24736428D01*
X167367738Y24736428D02*
X167415357Y24688809D01*
X167415357Y24688809D02*
X167462976Y24593571D01*
X167462976Y24593571D02*
X167462976Y24307857D01*
X167462976Y24307857D02*
X167415357Y24212619D01*
X167415357Y24212619D02*
X167367738Y24165000D01*
X167367738Y24165000D02*
X167272500Y24117380D01*
X167272500Y24117380D02*
X167129643Y24117380D01*
X168320119Y24117380D02*
X168320119Y25117380D01*
X168320119Y24165000D02*
X168224881Y24117380D01*
X168224881Y24117380D02*
X168034405Y24117380D01*
X168034405Y24117380D02*
X167939167Y24165000D01*
X167939167Y24165000D02*
X167891548Y24212619D01*
X167891548Y24212619D02*
X167843929Y24307857D01*
X167843929Y24307857D02*
X167843929Y24593571D01*
X167843929Y24593571D02*
X167891548Y24688809D01*
X167891548Y24688809D02*
X167939167Y24736428D01*
X167939167Y24736428D02*
X168034405Y24784047D01*
X168034405Y24784047D02*
X168224881Y24784047D01*
X168224881Y24784047D02*
X168320119Y24736428D01*
X168701072Y23736428D02*
X168748691Y23784047D01*
X168748691Y23784047D02*
X168843929Y23926904D01*
X168843929Y23926904D02*
X168891548Y24022142D01*
X168891548Y24022142D02*
X168939167Y24165000D01*
X168939167Y24165000D02*
X168986786Y24403095D01*
X168986786Y24403095D02*
X168986786Y24593571D01*
X168986786Y24593571D02*
X168939167Y24831666D01*
X168939167Y24831666D02*
X168891548Y24974523D01*
X168891548Y24974523D02*
X168843929Y25069761D01*
X168843929Y25069761D02*
X168748691Y25212619D01*
X168748691Y25212619D02*
X168701072Y25260238D01*
X169986786Y24117380D02*
X169415358Y24117380D01*
X169701072Y24117380D02*
X169701072Y25117380D01*
X169701072Y25117380D02*
X169605834Y24974523D01*
X169605834Y24974523D02*
X169510596Y24879285D01*
X169510596Y24879285D02*
X169415358Y24831666D01*
X36287380Y-55488095D02*
X35477857Y-55488095D01*
X35477857Y-55488095D02*
X35382619Y-55535714D01*
X35382619Y-55535714D02*
X35335000Y-55583333D01*
X35335000Y-55583333D02*
X35287380Y-55678571D01*
X35287380Y-55678571D02*
X35287380Y-55869047D01*
X35287380Y-55869047D02*
X35335000Y-55964285D01*
X35335000Y-55964285D02*
X35382619Y-56011904D01*
X35382619Y-56011904D02*
X35477857Y-56059523D01*
X35477857Y-56059523D02*
X36287380Y-56059523D01*
X36192142Y-56488095D02*
X36239761Y-56535714D01*
X36239761Y-56535714D02*
X36287380Y-56630952D01*
X36287380Y-56630952D02*
X36287380Y-56869047D01*
X36287380Y-56869047D02*
X36239761Y-56964285D01*
X36239761Y-56964285D02*
X36192142Y-57011904D01*
X36192142Y-57011904D02*
X36096904Y-57059523D01*
X36096904Y-57059523D02*
X36001666Y-57059523D01*
X36001666Y-57059523D02*
X35858809Y-57011904D01*
X35858809Y-57011904D02*
X35287380Y-56440476D01*
X35287380Y-56440476D02*
X35287380Y-57059523D01*
X37635779Y-53779849D02*
X37873874Y-53779849D01*
X37778636Y-54017944D02*
X37873874Y-53779849D01*
X37873874Y-53779849D02*
X37778636Y-53541754D01*
X38064350Y-53922706D02*
X37873874Y-53779849D01*
X37873874Y-53779849D02*
X38064350Y-53636992D01*
X38710540Y-53779850D02*
X38472445Y-53779850D01*
X38567683Y-53541755D02*
X38472445Y-53779850D01*
X38472445Y-53779850D02*
X38567683Y-54017945D01*
X38281969Y-53636993D02*
X38472445Y-53779850D01*
X38472445Y-53779850D02*
X38281969Y-53922707D01*
X157764690Y27067423D02*
X157717071Y27019804D01*
X157717071Y27019804D02*
X157574214Y26972184D01*
X157574214Y26972184D02*
X157478976Y26972184D01*
X157478976Y26972184D02*
X157336119Y27019804D01*
X157336119Y27019804D02*
X157240881Y27115042D01*
X157240881Y27115042D02*
X157193262Y27210280D01*
X157193262Y27210280D02*
X157145643Y27400756D01*
X157145643Y27400756D02*
X157145643Y27543613D01*
X157145643Y27543613D02*
X157193262Y27734089D01*
X157193262Y27734089D02*
X157240881Y27829327D01*
X157240881Y27829327D02*
X157336119Y27924565D01*
X157336119Y27924565D02*
X157478976Y27972184D01*
X157478976Y27972184D02*
X157574214Y27972184D01*
X157574214Y27972184D02*
X157717071Y27924565D01*
X157717071Y27924565D02*
X157764690Y27876946D01*
X158478976Y26591232D02*
X158431357Y26638851D01*
X158431357Y26638851D02*
X158336119Y26781708D01*
X158336119Y26781708D02*
X158288500Y26876946D01*
X158288500Y26876946D02*
X158240881Y27019804D01*
X158240881Y27019804D02*
X158193262Y27257899D01*
X158193262Y27257899D02*
X158193262Y27448375D01*
X158193262Y27448375D02*
X158240881Y27686470D01*
X158240881Y27686470D02*
X158288500Y27829327D01*
X158288500Y27829327D02*
X158336119Y27924565D01*
X158336119Y27924565D02*
X158431357Y28067423D01*
X158431357Y28067423D02*
X158478976Y28115042D01*
X159002786Y26972184D02*
X158907548Y27019804D01*
X158907548Y27019804D02*
X158859929Y27115042D01*
X158859929Y27115042D02*
X158859929Y27972184D01*
X159526596Y26972184D02*
X159431358Y27019804D01*
X159431358Y27019804D02*
X159383739Y27067423D01*
X159383739Y27067423D02*
X159336120Y27162661D01*
X159336120Y27162661D02*
X159336120Y27448375D01*
X159336120Y27448375D02*
X159383739Y27543613D01*
X159383739Y27543613D02*
X159431358Y27591232D01*
X159431358Y27591232D02*
X159526596Y27638851D01*
X159526596Y27638851D02*
X159669453Y27638851D01*
X159669453Y27638851D02*
X159764691Y27591232D01*
X159764691Y27591232D02*
X159812310Y27543613D01*
X159812310Y27543613D02*
X159859929Y27448375D01*
X159859929Y27448375D02*
X159859929Y27162661D01*
X159859929Y27162661D02*
X159812310Y27067423D01*
X159812310Y27067423D02*
X159764691Y27019804D01*
X159764691Y27019804D02*
X159669453Y26972184D01*
X159669453Y26972184D02*
X159526596Y26972184D01*
X160193263Y27638851D02*
X160383739Y26972184D01*
X160383739Y26972184D02*
X160574215Y27448375D01*
X160574215Y27448375D02*
X160764691Y26972184D01*
X160764691Y26972184D02*
X160955167Y27638851D01*
X161336120Y27495994D02*
X161669453Y27495994D01*
X161812310Y26972184D02*
X161336120Y26972184D01*
X161336120Y26972184D02*
X161336120Y27972184D01*
X161336120Y27972184D02*
X161812310Y27972184D01*
X162193263Y27019804D02*
X162336120Y26972184D01*
X162336120Y26972184D02*
X162574215Y26972184D01*
X162574215Y26972184D02*
X162669453Y27019804D01*
X162669453Y27019804D02*
X162717072Y27067423D01*
X162717072Y27067423D02*
X162764691Y27162661D01*
X162764691Y27162661D02*
X162764691Y27257899D01*
X162764691Y27257899D02*
X162717072Y27353137D01*
X162717072Y27353137D02*
X162669453Y27400756D01*
X162669453Y27400756D02*
X162574215Y27448375D01*
X162574215Y27448375D02*
X162383739Y27495994D01*
X162383739Y27495994D02*
X162288501Y27543613D01*
X162288501Y27543613D02*
X162240882Y27591232D01*
X162240882Y27591232D02*
X162193263Y27686470D01*
X162193263Y27686470D02*
X162193263Y27781708D01*
X162193263Y27781708D02*
X162240882Y27876946D01*
X162240882Y27876946D02*
X162288501Y27924565D01*
X162288501Y27924565D02*
X162383739Y27972184D01*
X162383739Y27972184D02*
X162621834Y27972184D01*
X162621834Y27972184D02*
X162764691Y27924565D01*
X163764691Y26972184D02*
X163431358Y27448375D01*
X163193263Y26972184D02*
X163193263Y27972184D01*
X163193263Y27972184D02*
X163574215Y27972184D01*
X163574215Y27972184D02*
X163669453Y27924565D01*
X163669453Y27924565D02*
X163717072Y27876946D01*
X163717072Y27876946D02*
X163764691Y27781708D01*
X163764691Y27781708D02*
X163764691Y27638851D01*
X163764691Y27638851D02*
X163717072Y27543613D01*
X163717072Y27543613D02*
X163669453Y27495994D01*
X163669453Y27495994D02*
X163574215Y27448375D01*
X163574215Y27448375D02*
X163193263Y27448375D01*
X164098025Y26591232D02*
X164145644Y26638851D01*
X164145644Y26638851D02*
X164240882Y26781708D01*
X164240882Y26781708D02*
X164288501Y26876946D01*
X164288501Y26876946D02*
X164336120Y27019804D01*
X164336120Y27019804D02*
X164383739Y27257899D01*
X164383739Y27257899D02*
X164383739Y27448375D01*
X164383739Y27448375D02*
X164336120Y27686470D01*
X164336120Y27686470D02*
X164288501Y27829327D01*
X164288501Y27829327D02*
X164240882Y27924565D01*
X164240882Y27924565D02*
X164145644Y28067423D01*
X164145644Y28067423D02*
X164098025Y28115042D01*
X165383739Y26972184D02*
X164812311Y26972184D01*
X165098025Y26972184D02*
X165098025Y27972184D01*
X165098025Y27972184D02*
X165002787Y27829327D01*
X165002787Y27829327D02*
X164907549Y27734089D01*
X164907549Y27734089D02*
X164812311Y27686470D01*
X172831309Y45151714D02*
X172755119Y45189809D01*
X172755119Y45189809D02*
X172678928Y45266000D01*
X172678928Y45266000D02*
X172564642Y45380285D01*
X172564642Y45380285D02*
X172488452Y45418380D01*
X172488452Y45418380D02*
X172412261Y45418380D01*
X172450357Y45227904D02*
X172374166Y45266000D01*
X172374166Y45266000D02*
X172297976Y45342190D01*
X172297976Y45342190D02*
X172259880Y45494571D01*
X172259880Y45494571D02*
X172259880Y45761238D01*
X172259880Y45761238D02*
X172297976Y45913619D01*
X172297976Y45913619D02*
X172374166Y45989809D01*
X172374166Y45989809D02*
X172450357Y46027904D01*
X172450357Y46027904D02*
X172602738Y46027904D01*
X172602738Y46027904D02*
X172678928Y45989809D01*
X172678928Y45989809D02*
X172755119Y45913619D01*
X172755119Y45913619D02*
X172793214Y45761238D01*
X172793214Y45761238D02*
X172793214Y45494571D01*
X172793214Y45494571D02*
X172755119Y45342190D01*
X172755119Y45342190D02*
X172678928Y45266000D01*
X172678928Y45266000D02*
X172602738Y45227904D01*
X172602738Y45227904D02*
X172450357Y45227904D01*
X173478928Y45761238D02*
X173478928Y45227904D01*
X173288452Y46066000D02*
X173097975Y45494571D01*
X173097975Y45494571D02*
X173593214Y45494571D01*
X166395833Y59777380D02*
X166062500Y60253571D01*
X165824405Y59777380D02*
X165824405Y60777380D01*
X165824405Y60777380D02*
X166205357Y60777380D01*
X166205357Y60777380D02*
X166300595Y60729761D01*
X166300595Y60729761D02*
X166348214Y60682142D01*
X166348214Y60682142D02*
X166395833Y60586904D01*
X166395833Y60586904D02*
X166395833Y60444047D01*
X166395833Y60444047D02*
X166348214Y60348809D01*
X166348214Y60348809D02*
X166300595Y60301190D01*
X166300595Y60301190D02*
X166205357Y60253571D01*
X166205357Y60253571D02*
X165824405Y60253571D01*
X167252976Y60444047D02*
X167252976Y59777380D01*
X167014881Y60825000D02*
X166776786Y60110714D01*
X166776786Y60110714D02*
X167395833Y60110714D01*
X28512619Y-34333333D02*
X29226904Y-34333333D01*
X29226904Y-34333333D02*
X29369761Y-34380952D01*
X29369761Y-34380952D02*
X29465000Y-34476190D01*
X29465000Y-34476190D02*
X29512619Y-34619047D01*
X29512619Y-34619047D02*
X29512619Y-34714285D01*
X29512619Y-33333333D02*
X29512619Y-33904761D01*
X29512619Y-33619047D02*
X28512619Y-33619047D01*
X28512619Y-33619047D02*
X28655476Y-33714285D01*
X28655476Y-33714285D02*
X28750714Y-33809523D01*
X28750714Y-33809523D02*
X28798333Y-33904761D01*
X172831309Y50001714D02*
X172755119Y50039809D01*
X172755119Y50039809D02*
X172678928Y50116000D01*
X172678928Y50116000D02*
X172564642Y50230285D01*
X172564642Y50230285D02*
X172488452Y50268380D01*
X172488452Y50268380D02*
X172412261Y50268380D01*
X172450357Y50077904D02*
X172374166Y50116000D01*
X172374166Y50116000D02*
X172297976Y50192190D01*
X172297976Y50192190D02*
X172259880Y50344571D01*
X172259880Y50344571D02*
X172259880Y50611238D01*
X172259880Y50611238D02*
X172297976Y50763619D01*
X172297976Y50763619D02*
X172374166Y50839809D01*
X172374166Y50839809D02*
X172450357Y50877904D01*
X172450357Y50877904D02*
X172602738Y50877904D01*
X172602738Y50877904D02*
X172678928Y50839809D01*
X172678928Y50839809D02*
X172755119Y50763619D01*
X172755119Y50763619D02*
X172793214Y50611238D01*
X172793214Y50611238D02*
X172793214Y50344571D01*
X172793214Y50344571D02*
X172755119Y50192190D01*
X172755119Y50192190D02*
X172678928Y50116000D01*
X172678928Y50116000D02*
X172602738Y50077904D01*
X172602738Y50077904D02*
X172450357Y50077904D01*
X173059880Y50877904D02*
X173555118Y50877904D01*
X173555118Y50877904D02*
X173288452Y50573142D01*
X173288452Y50573142D02*
X173402737Y50573142D01*
X173402737Y50573142D02*
X173478928Y50535047D01*
X173478928Y50535047D02*
X173517023Y50496952D01*
X173517023Y50496952D02*
X173555118Y50420761D01*
X173555118Y50420761D02*
X173555118Y50230285D01*
X173555118Y50230285D02*
X173517023Y50154095D01*
X173517023Y50154095D02*
X173478928Y50116000D01*
X173478928Y50116000D02*
X173402737Y50077904D01*
X173402737Y50077904D02*
X173174166Y50077904D01*
X173174166Y50077904D02*
X173097975Y50116000D01*
X173097975Y50116000D02*
X173059880Y50154095D01*
X166110118Y46617380D02*
X165776785Y47093571D01*
X165538690Y46617380D02*
X165538690Y47617380D01*
X165538690Y47617380D02*
X165919642Y47617380D01*
X165919642Y47617380D02*
X166014880Y47569761D01*
X166014880Y47569761D02*
X166062499Y47522142D01*
X166062499Y47522142D02*
X166110118Y47426904D01*
X166110118Y47426904D02*
X166110118Y47284047D01*
X166110118Y47284047D02*
X166062499Y47188809D01*
X166062499Y47188809D02*
X166014880Y47141190D01*
X166014880Y47141190D02*
X165919642Y47093571D01*
X165919642Y47093571D02*
X165538690Y47093571D01*
X166395833Y47284047D02*
X166776785Y47284047D01*
X166538690Y47617380D02*
X166538690Y46760238D01*
X166538690Y46760238D02*
X166586309Y46665000D01*
X166586309Y46665000D02*
X166681547Y46617380D01*
X166681547Y46617380D02*
X166776785Y46617380D01*
X167633928Y46617380D02*
X167062500Y46617380D01*
X167348214Y46617380D02*
X167348214Y47617380D01*
X167348214Y47617380D02*
X167252976Y47474523D01*
X167252976Y47474523D02*
X167157738Y47379285D01*
X167157738Y47379285D02*
X167062500Y47331666D01*
X137936308Y30357619D02*
X137888689Y30310000D01*
X137888689Y30310000D02*
X137745832Y30262380D01*
X137745832Y30262380D02*
X137650594Y30262380D01*
X137650594Y30262380D02*
X137507737Y30310000D01*
X137507737Y30310000D02*
X137412499Y30405238D01*
X137412499Y30405238D02*
X137364880Y30500476D01*
X137364880Y30500476D02*
X137317261Y30690952D01*
X137317261Y30690952D02*
X137317261Y30833809D01*
X137317261Y30833809D02*
X137364880Y31024285D01*
X137364880Y31024285D02*
X137412499Y31119523D01*
X137412499Y31119523D02*
X137507737Y31214761D01*
X137507737Y31214761D02*
X137650594Y31262380D01*
X137650594Y31262380D02*
X137745832Y31262380D01*
X137745832Y31262380D02*
X137888689Y31214761D01*
X137888689Y31214761D02*
X137936308Y31167142D01*
X138364880Y30262380D02*
X138364880Y31262380D01*
X138364880Y30881428D02*
X138460118Y30929047D01*
X138460118Y30929047D02*
X138650594Y30929047D01*
X138650594Y30929047D02*
X138745832Y30881428D01*
X138745832Y30881428D02*
X138793451Y30833809D01*
X138793451Y30833809D02*
X138841070Y30738571D01*
X138841070Y30738571D02*
X138841070Y30452857D01*
X138841070Y30452857D02*
X138793451Y30357619D01*
X138793451Y30357619D02*
X138745832Y30310000D01*
X138745832Y30310000D02*
X138650594Y30262380D01*
X138650594Y30262380D02*
X138460118Y30262380D01*
X138460118Y30262380D02*
X138364880Y30310000D01*
X139555356Y29881428D02*
X139507737Y29929047D01*
X139507737Y29929047D02*
X139412499Y30071904D01*
X139412499Y30071904D02*
X139364880Y30167142D01*
X139364880Y30167142D02*
X139317261Y30310000D01*
X139317261Y30310000D02*
X139269642Y30548095D01*
X139269642Y30548095D02*
X139269642Y30738571D01*
X139269642Y30738571D02*
X139317261Y30976666D01*
X139317261Y30976666D02*
X139364880Y31119523D01*
X139364880Y31119523D02*
X139412499Y31214761D01*
X139412499Y31214761D02*
X139507737Y31357619D01*
X139507737Y31357619D02*
X139555356Y31405238D01*
X140079166Y30262380D02*
X139983928Y30310000D01*
X139983928Y30310000D02*
X139936309Y30357619D01*
X139936309Y30357619D02*
X139888690Y30452857D01*
X139888690Y30452857D02*
X139888690Y30738571D01*
X139888690Y30738571D02*
X139936309Y30833809D01*
X139936309Y30833809D02*
X139983928Y30881428D01*
X139983928Y30881428D02*
X140079166Y30929047D01*
X140079166Y30929047D02*
X140222023Y30929047D01*
X140222023Y30929047D02*
X140317261Y30881428D01*
X140317261Y30881428D02*
X140364880Y30833809D01*
X140364880Y30833809D02*
X140412499Y30738571D01*
X140412499Y30738571D02*
X140412499Y30452857D01*
X140412499Y30452857D02*
X140364880Y30357619D01*
X140364880Y30357619D02*
X140317261Y30310000D01*
X140317261Y30310000D02*
X140222023Y30262380D01*
X140222023Y30262380D02*
X140079166Y30262380D01*
X141269642Y30929047D02*
X141269642Y30262380D01*
X140841071Y30929047D02*
X140841071Y30405238D01*
X140841071Y30405238D02*
X140888690Y30310000D01*
X140888690Y30310000D02*
X140983928Y30262380D01*
X140983928Y30262380D02*
X141126785Y30262380D01*
X141126785Y30262380D02*
X141222023Y30310000D01*
X141222023Y30310000D02*
X141269642Y30357619D01*
X141602976Y30929047D02*
X141983928Y30929047D01*
X141745833Y31262380D02*
X141745833Y30405238D01*
X141745833Y30405238D02*
X141793452Y30310000D01*
X141793452Y30310000D02*
X141888690Y30262380D01*
X141888690Y30262380D02*
X141983928Y30262380D01*
X142222024Y29881428D02*
X142269643Y29929047D01*
X142269643Y29929047D02*
X142364881Y30071904D01*
X142364881Y30071904D02*
X142412500Y30167142D01*
X142412500Y30167142D02*
X142460119Y30310000D01*
X142460119Y30310000D02*
X142507738Y30548095D01*
X142507738Y30548095D02*
X142507738Y30738571D01*
X142507738Y30738571D02*
X142460119Y30976666D01*
X142460119Y30976666D02*
X142412500Y31119523D01*
X142412500Y31119523D02*
X142364881Y31214761D01*
X142364881Y31214761D02*
X142269643Y31357619D01*
X142269643Y31357619D02*
X142222024Y31405238D01*
X143507738Y30262380D02*
X142936310Y30262380D01*
X143222024Y30262380D02*
X143222024Y31262380D01*
X143222024Y31262380D02*
X143126786Y31119523D01*
X143126786Y31119523D02*
X143031548Y31024285D01*
X143031548Y31024285D02*
X142936310Y30976666D01*
X165943452Y53197380D02*
X165610119Y53673571D01*
X165372024Y53197380D02*
X165372024Y54197380D01*
X165372024Y54197380D02*
X165752976Y54197380D01*
X165752976Y54197380D02*
X165848214Y54149761D01*
X165848214Y54149761D02*
X165895833Y54102142D01*
X165895833Y54102142D02*
X165943452Y54006904D01*
X165943452Y54006904D02*
X165943452Y53864047D01*
X165943452Y53864047D02*
X165895833Y53768809D01*
X165895833Y53768809D02*
X165848214Y53721190D01*
X165848214Y53721190D02*
X165752976Y53673571D01*
X165752976Y53673571D02*
X165372024Y53673571D01*
X166372024Y53197380D02*
X166372024Y54197380D01*
X166372024Y53816428D02*
X166467262Y53864047D01*
X166467262Y53864047D02*
X166657738Y53864047D01*
X166657738Y53864047D02*
X166752976Y53816428D01*
X166752976Y53816428D02*
X166800595Y53768809D01*
X166800595Y53768809D02*
X166848214Y53673571D01*
X166848214Y53673571D02*
X166848214Y53387857D01*
X166848214Y53387857D02*
X166800595Y53292619D01*
X166800595Y53292619D02*
X166752976Y53245000D01*
X166752976Y53245000D02*
X166657738Y53197380D01*
X166657738Y53197380D02*
X166467262Y53197380D01*
X166467262Y53197380D02*
X166372024Y53245000D01*
X167800595Y53197380D02*
X167229167Y53197380D01*
X167514881Y53197380D02*
X167514881Y54197380D01*
X167514881Y54197380D02*
X167419643Y54054523D01*
X167419643Y54054523D02*
X167324405Y53959285D01*
X167324405Y53959285D02*
X167229167Y53911666D01*
X163633928Y49907380D02*
X163300595Y50383571D01*
X163062500Y49907380D02*
X163062500Y50907380D01*
X163062500Y50907380D02*
X163443452Y50907380D01*
X163443452Y50907380D02*
X163538690Y50859761D01*
X163538690Y50859761D02*
X163586309Y50812142D01*
X163586309Y50812142D02*
X163633928Y50716904D01*
X163633928Y50716904D02*
X163633928Y50574047D01*
X163633928Y50574047D02*
X163586309Y50478809D01*
X163586309Y50478809D02*
X163538690Y50431190D01*
X163538690Y50431190D02*
X163443452Y50383571D01*
X163443452Y50383571D02*
X163062500Y50383571D01*
X164062500Y49907380D02*
X164062500Y50574047D01*
X164062500Y50907380D02*
X164014881Y50859761D01*
X164014881Y50859761D02*
X164062500Y50812142D01*
X164062500Y50812142D02*
X164110119Y50859761D01*
X164110119Y50859761D02*
X164062500Y50907380D01*
X164062500Y50907380D02*
X164062500Y50812142D01*
X164538690Y50574047D02*
X164538690Y49907380D01*
X164538690Y50478809D02*
X164586309Y50526428D01*
X164586309Y50526428D02*
X164681547Y50574047D01*
X164681547Y50574047D02*
X164824404Y50574047D01*
X164824404Y50574047D02*
X164919642Y50526428D01*
X164919642Y50526428D02*
X164967261Y50431190D01*
X164967261Y50431190D02*
X164967261Y49907380D01*
X165729166Y49526428D02*
X165681547Y49574047D01*
X165681547Y49574047D02*
X165586309Y49716904D01*
X165586309Y49716904D02*
X165538690Y49812142D01*
X165538690Y49812142D02*
X165491071Y49955000D01*
X165491071Y49955000D02*
X165443452Y50193095D01*
X165443452Y50193095D02*
X165443452Y50383571D01*
X165443452Y50383571D02*
X165491071Y50621666D01*
X165491071Y50621666D02*
X165538690Y50764523D01*
X165538690Y50764523D02*
X165586309Y50859761D01*
X165586309Y50859761D02*
X165681547Y51002619D01*
X165681547Y51002619D02*
X165729166Y51050238D01*
X166681547Y49907380D02*
X166348214Y50383571D01*
X166110119Y49907380D02*
X166110119Y50907380D01*
X166110119Y50907380D02*
X166491071Y50907380D01*
X166491071Y50907380D02*
X166586309Y50859761D01*
X166586309Y50859761D02*
X166633928Y50812142D01*
X166633928Y50812142D02*
X166681547Y50716904D01*
X166681547Y50716904D02*
X166681547Y50574047D01*
X166681547Y50574047D02*
X166633928Y50478809D01*
X166633928Y50478809D02*
X166586309Y50431190D01*
X166586309Y50431190D02*
X166491071Y50383571D01*
X166491071Y50383571D02*
X166110119Y50383571D01*
X167538690Y50574047D02*
X167538690Y49907380D01*
X167110119Y50574047D02*
X167110119Y50050238D01*
X167110119Y50050238D02*
X167157738Y49955000D01*
X167157738Y49955000D02*
X167252976Y49907380D01*
X167252976Y49907380D02*
X167395833Y49907380D01*
X167395833Y49907380D02*
X167491071Y49955000D01*
X167491071Y49955000D02*
X167538690Y50002619D01*
X168014881Y50574047D02*
X168014881Y49907380D01*
X168014881Y50478809D02*
X168062500Y50526428D01*
X168062500Y50526428D02*
X168157738Y50574047D01*
X168157738Y50574047D02*
X168300595Y50574047D01*
X168300595Y50574047D02*
X168395833Y50526428D01*
X168395833Y50526428D02*
X168443452Y50431190D01*
X168443452Y50431190D02*
X168443452Y49907380D01*
X168824405Y49526428D02*
X168872024Y49574047D01*
X168872024Y49574047D02*
X168967262Y49716904D01*
X168967262Y49716904D02*
X169014881Y49812142D01*
X169014881Y49812142D02*
X169062500Y49955000D01*
X169062500Y49955000D02*
X169110119Y50193095D01*
X169110119Y50193095D02*
X169110119Y50383571D01*
X169110119Y50383571D02*
X169062500Y50621666D01*
X169062500Y50621666D02*
X169014881Y50764523D01*
X169014881Y50764523D02*
X168967262Y50859761D01*
X168967262Y50859761D02*
X168872024Y51002619D01*
X168872024Y51002619D02*
X168824405Y51050238D01*
X170110119Y49907380D02*
X169538691Y49907380D01*
X169824405Y49907380D02*
X169824405Y50907380D01*
X169824405Y50907380D02*
X169729167Y50764523D01*
X169729167Y50764523D02*
X169633929Y50669285D01*
X169633929Y50669285D02*
X169538691Y50621666D01*
X172831309Y54851714D02*
X172755119Y54889809D01*
X172755119Y54889809D02*
X172678928Y54966000D01*
X172678928Y54966000D02*
X172564642Y55080285D01*
X172564642Y55080285D02*
X172488452Y55118380D01*
X172488452Y55118380D02*
X172412261Y55118380D01*
X172450357Y54927904D02*
X172374166Y54966000D01*
X172374166Y54966000D02*
X172297976Y55042190D01*
X172297976Y55042190D02*
X172259880Y55194571D01*
X172259880Y55194571D02*
X172259880Y55461238D01*
X172259880Y55461238D02*
X172297976Y55613619D01*
X172297976Y55613619D02*
X172374166Y55689809D01*
X172374166Y55689809D02*
X172450357Y55727904D01*
X172450357Y55727904D02*
X172602738Y55727904D01*
X172602738Y55727904D02*
X172678928Y55689809D01*
X172678928Y55689809D02*
X172755119Y55613619D01*
X172755119Y55613619D02*
X172793214Y55461238D01*
X172793214Y55461238D02*
X172793214Y55194571D01*
X172793214Y55194571D02*
X172755119Y55042190D01*
X172755119Y55042190D02*
X172678928Y54966000D01*
X172678928Y54966000D02*
X172602738Y54927904D01*
X172602738Y54927904D02*
X172450357Y54927904D01*
X173097975Y55651714D02*
X173136071Y55689809D01*
X173136071Y55689809D02*
X173212261Y55727904D01*
X173212261Y55727904D02*
X173402737Y55727904D01*
X173402737Y55727904D02*
X173478928Y55689809D01*
X173478928Y55689809D02*
X173517023Y55651714D01*
X173517023Y55651714D02*
X173555118Y55575523D01*
X173555118Y55575523D02*
X173555118Y55499333D01*
X173555118Y55499333D02*
X173517023Y55385047D01*
X173517023Y55385047D02*
X173059880Y54927904D01*
X173059880Y54927904D02*
X173555118Y54927904D01*
X131867737Y36422619D02*
X131820118Y36375000D01*
X131820118Y36375000D02*
X131677261Y36327380D01*
X131677261Y36327380D02*
X131582023Y36327380D01*
X131582023Y36327380D02*
X131439166Y36375000D01*
X131439166Y36375000D02*
X131343928Y36470238D01*
X131343928Y36470238D02*
X131296309Y36565476D01*
X131296309Y36565476D02*
X131248690Y36755952D01*
X131248690Y36755952D02*
X131248690Y36898809D01*
X131248690Y36898809D02*
X131296309Y37089285D01*
X131296309Y37089285D02*
X131343928Y37184523D01*
X131343928Y37184523D02*
X131439166Y37279761D01*
X131439166Y37279761D02*
X131582023Y37327380D01*
X131582023Y37327380D02*
X131677261Y37327380D01*
X131677261Y37327380D02*
X131820118Y37279761D01*
X131820118Y37279761D02*
X131867737Y37232142D01*
X132153452Y36994047D02*
X132534404Y36994047D01*
X132296309Y37327380D02*
X132296309Y36470238D01*
X132296309Y36470238D02*
X132343928Y36375000D01*
X132343928Y36375000D02*
X132439166Y36327380D01*
X132439166Y36327380D02*
X132534404Y36327380D01*
X132867738Y36327380D02*
X132867738Y37327380D01*
X133296309Y36327380D02*
X133296309Y36851190D01*
X133296309Y36851190D02*
X133248690Y36946428D01*
X133248690Y36946428D02*
X133153452Y36994047D01*
X133153452Y36994047D02*
X133010595Y36994047D01*
X133010595Y36994047D02*
X132915357Y36946428D01*
X132915357Y36946428D02*
X132867738Y36898809D01*
X134296309Y36327380D02*
X133724881Y36327380D01*
X134010595Y36327380D02*
X134010595Y37327380D01*
X134010595Y37327380D02*
X133915357Y37184523D01*
X133915357Y37184523D02*
X133820119Y37089285D01*
X133820119Y37089285D02*
X133724881Y37041666D01*
X201378395Y37033700D02*
X201378395Y36224177D01*
X201378395Y36224177D02*
X201426014Y36128939D01*
X201426014Y36128939D02*
X201473633Y36081320D01*
X201473633Y36081320D02*
X201568871Y36033700D01*
X201568871Y36033700D02*
X201759347Y36033700D01*
X201759347Y36033700D02*
X201854585Y36081320D01*
X201854585Y36081320D02*
X201902204Y36128939D01*
X201902204Y36128939D02*
X201949823Y36224177D01*
X201949823Y36224177D02*
X201949823Y37033700D01*
X202949823Y36033700D02*
X202378395Y36033700D01*
X202664109Y36033700D02*
X202664109Y37033700D01*
X202664109Y37033700D02*
X202568871Y36890843D01*
X202568871Y36890843D02*
X202473633Y36795605D01*
X202473633Y36795605D02*
X202378395Y36747986D01*
X198254100Y42184820D02*
X198254100Y41946725D01*
X198016005Y42041963D02*
X198254100Y41946725D01*
X198254100Y41946725D02*
X198492195Y42041963D01*
X198111243Y41756249D02*
X198254100Y41946725D01*
X198254100Y41946725D02*
X198396957Y41756249D01*
X198254100Y42184820D02*
X198254100Y41946725D01*
X198016005Y42041963D02*
X198254100Y41946725D01*
X198254100Y41946725D02*
X198492195Y42041963D01*
X198111243Y41756249D02*
X198254100Y41946725D01*
X198254100Y41946725D02*
X198396957Y41756249D01*
X129962975Y56522619D02*
X129915356Y56475000D01*
X129915356Y56475000D02*
X129772499Y56427380D01*
X129772499Y56427380D02*
X129677261Y56427380D01*
X129677261Y56427380D02*
X129534404Y56475000D01*
X129534404Y56475000D02*
X129439166Y56570238D01*
X129439166Y56570238D02*
X129391547Y56665476D01*
X129391547Y56665476D02*
X129343928Y56855952D01*
X129343928Y56855952D02*
X129343928Y56998809D01*
X129343928Y56998809D02*
X129391547Y57189285D01*
X129391547Y57189285D02*
X129439166Y57284523D01*
X129439166Y57284523D02*
X129534404Y57379761D01*
X129534404Y57379761D02*
X129677261Y57427380D01*
X129677261Y57427380D02*
X129772499Y57427380D01*
X129772499Y57427380D02*
X129915356Y57379761D01*
X129915356Y57379761D02*
X129962975Y57332142D01*
X130820118Y56427380D02*
X130820118Y56951190D01*
X130820118Y56951190D02*
X130772499Y57046428D01*
X130772499Y57046428D02*
X130677261Y57094047D01*
X130677261Y57094047D02*
X130486785Y57094047D01*
X130486785Y57094047D02*
X130391547Y57046428D01*
X130820118Y56475000D02*
X130724880Y56427380D01*
X130724880Y56427380D02*
X130486785Y56427380D01*
X130486785Y56427380D02*
X130391547Y56475000D01*
X130391547Y56475000D02*
X130343928Y56570238D01*
X130343928Y56570238D02*
X130343928Y56665476D01*
X130343928Y56665476D02*
X130391547Y56760714D01*
X130391547Y56760714D02*
X130486785Y56808333D01*
X130486785Y56808333D02*
X130724880Y56808333D01*
X130724880Y56808333D02*
X130820118Y56855952D01*
X131582023Y56046428D02*
X131534404Y56094047D01*
X131534404Y56094047D02*
X131439166Y56236904D01*
X131439166Y56236904D02*
X131391547Y56332142D01*
X131391547Y56332142D02*
X131343928Y56475000D01*
X131343928Y56475000D02*
X131296309Y56713095D01*
X131296309Y56713095D02*
X131296309Y56903571D01*
X131296309Y56903571D02*
X131343928Y57141666D01*
X131343928Y57141666D02*
X131391547Y57284523D01*
X131391547Y57284523D02*
X131439166Y57379761D01*
X131439166Y57379761D02*
X131534404Y57522619D01*
X131534404Y57522619D02*
X131582023Y57570238D01*
X131915357Y56475000D02*
X132058214Y56427380D01*
X132058214Y56427380D02*
X132296309Y56427380D01*
X132296309Y56427380D02*
X132391547Y56475000D01*
X132391547Y56475000D02*
X132439166Y56522619D01*
X132439166Y56522619D02*
X132486785Y56617857D01*
X132486785Y56617857D02*
X132486785Y56713095D01*
X132486785Y56713095D02*
X132439166Y56808333D01*
X132439166Y56808333D02*
X132391547Y56855952D01*
X132391547Y56855952D02*
X132296309Y56903571D01*
X132296309Y56903571D02*
X132105833Y56951190D01*
X132105833Y56951190D02*
X132010595Y56998809D01*
X132010595Y56998809D02*
X131962976Y57046428D01*
X131962976Y57046428D02*
X131915357Y57141666D01*
X131915357Y57141666D02*
X131915357Y57236904D01*
X131915357Y57236904D02*
X131962976Y57332142D01*
X131962976Y57332142D02*
X132010595Y57379761D01*
X132010595Y57379761D02*
X132105833Y57427380D01*
X132105833Y57427380D02*
X132343928Y57427380D01*
X132343928Y57427380D02*
X132486785Y57379761D01*
X132820119Y57427380D02*
X133058214Y56427380D01*
X133058214Y56427380D02*
X133248690Y57141666D01*
X133248690Y57141666D02*
X133439166Y56427380D01*
X133439166Y56427380D02*
X133677262Y57427380D01*
X134582023Y56427380D02*
X134010595Y56427380D01*
X134296309Y56427380D02*
X134296309Y57427380D01*
X134296309Y57427380D02*
X134201071Y57284523D01*
X134201071Y57284523D02*
X134105833Y57189285D01*
X134105833Y57189285D02*
X134010595Y57141666D01*
X134915357Y56046428D02*
X134962976Y56094047D01*
X134962976Y56094047D02*
X135058214Y56236904D01*
X135058214Y56236904D02*
X135105833Y56332142D01*
X135105833Y56332142D02*
X135153452Y56475000D01*
X135153452Y56475000D02*
X135201071Y56713095D01*
X135201071Y56713095D02*
X135201071Y56903571D01*
X135201071Y56903571D02*
X135153452Y57141666D01*
X135153452Y57141666D02*
X135105833Y57284523D01*
X135105833Y57284523D02*
X135058214Y57379761D01*
X135058214Y57379761D02*
X134962976Y57522619D01*
X134962976Y57522619D02*
X134915357Y57570238D01*
X136201071Y56427380D02*
X135629643Y56427380D01*
X135915357Y56427380D02*
X135915357Y57427380D01*
X135915357Y57427380D02*
X135820119Y57284523D01*
X135820119Y57284523D02*
X135724881Y57189285D01*
X135724881Y57189285D02*
X135629643Y57141666D01*
X150227605Y23080280D02*
X150227605Y24080280D01*
X150227605Y24080280D02*
X150465700Y24080280D01*
X150465700Y24080280D02*
X150608557Y24032661D01*
X150608557Y24032661D02*
X150703795Y23937423D01*
X150703795Y23937423D02*
X150751414Y23842185D01*
X150751414Y23842185D02*
X150799033Y23651709D01*
X150799033Y23651709D02*
X150799033Y23508852D01*
X150799033Y23508852D02*
X150751414Y23318376D01*
X150751414Y23318376D02*
X150703795Y23223138D01*
X150703795Y23223138D02*
X150608557Y23127900D01*
X150608557Y23127900D02*
X150465700Y23080280D01*
X150465700Y23080280D02*
X150227605Y23080280D01*
X151179986Y23985042D02*
X151227605Y24032661D01*
X151227605Y24032661D02*
X151322843Y24080280D01*
X151322843Y24080280D02*
X151560938Y24080280D01*
X151560938Y24080280D02*
X151656176Y24032661D01*
X151656176Y24032661D02*
X151703795Y23985042D01*
X151703795Y23985042D02*
X151751414Y23889804D01*
X151751414Y23889804D02*
X151751414Y23794566D01*
X151751414Y23794566D02*
X151703795Y23651709D01*
X151703795Y23651709D02*
X151132367Y23080280D01*
X151132367Y23080280D02*
X151751414Y23080280D01*
X129962975Y53172619D02*
X129915356Y53125000D01*
X129915356Y53125000D02*
X129772499Y53077380D01*
X129772499Y53077380D02*
X129677261Y53077380D01*
X129677261Y53077380D02*
X129534404Y53125000D01*
X129534404Y53125000D02*
X129439166Y53220238D01*
X129439166Y53220238D02*
X129391547Y53315476D01*
X129391547Y53315476D02*
X129343928Y53505952D01*
X129343928Y53505952D02*
X129343928Y53648809D01*
X129343928Y53648809D02*
X129391547Y53839285D01*
X129391547Y53839285D02*
X129439166Y53934523D01*
X129439166Y53934523D02*
X129534404Y54029761D01*
X129534404Y54029761D02*
X129677261Y54077380D01*
X129677261Y54077380D02*
X129772499Y54077380D01*
X129772499Y54077380D02*
X129915356Y54029761D01*
X129915356Y54029761D02*
X129962975Y53982142D01*
X130391547Y53077380D02*
X130391547Y54077380D01*
X130391547Y53696428D02*
X130486785Y53744047D01*
X130486785Y53744047D02*
X130677261Y53744047D01*
X130677261Y53744047D02*
X130772499Y53696428D01*
X130772499Y53696428D02*
X130820118Y53648809D01*
X130820118Y53648809D02*
X130867737Y53553571D01*
X130867737Y53553571D02*
X130867737Y53267857D01*
X130867737Y53267857D02*
X130820118Y53172619D01*
X130820118Y53172619D02*
X130772499Y53125000D01*
X130772499Y53125000D02*
X130677261Y53077380D01*
X130677261Y53077380D02*
X130486785Y53077380D01*
X130486785Y53077380D02*
X130391547Y53125000D01*
X131582023Y52696428D02*
X131534404Y52744047D01*
X131534404Y52744047D02*
X131439166Y52886904D01*
X131439166Y52886904D02*
X131391547Y52982142D01*
X131391547Y52982142D02*
X131343928Y53125000D01*
X131343928Y53125000D02*
X131296309Y53363095D01*
X131296309Y53363095D02*
X131296309Y53553571D01*
X131296309Y53553571D02*
X131343928Y53791666D01*
X131343928Y53791666D02*
X131391547Y53934523D01*
X131391547Y53934523D02*
X131439166Y54029761D01*
X131439166Y54029761D02*
X131534404Y54172619D01*
X131534404Y54172619D02*
X131582023Y54220238D01*
X131915357Y53125000D02*
X132058214Y53077380D01*
X132058214Y53077380D02*
X132296309Y53077380D01*
X132296309Y53077380D02*
X132391547Y53125000D01*
X132391547Y53125000D02*
X132439166Y53172619D01*
X132439166Y53172619D02*
X132486785Y53267857D01*
X132486785Y53267857D02*
X132486785Y53363095D01*
X132486785Y53363095D02*
X132439166Y53458333D01*
X132439166Y53458333D02*
X132391547Y53505952D01*
X132391547Y53505952D02*
X132296309Y53553571D01*
X132296309Y53553571D02*
X132105833Y53601190D01*
X132105833Y53601190D02*
X132010595Y53648809D01*
X132010595Y53648809D02*
X131962976Y53696428D01*
X131962976Y53696428D02*
X131915357Y53791666D01*
X131915357Y53791666D02*
X131915357Y53886904D01*
X131915357Y53886904D02*
X131962976Y53982142D01*
X131962976Y53982142D02*
X132010595Y54029761D01*
X132010595Y54029761D02*
X132105833Y54077380D01*
X132105833Y54077380D02*
X132343928Y54077380D01*
X132343928Y54077380D02*
X132486785Y54029761D01*
X132820119Y54077380D02*
X133058214Y53077380D01*
X133058214Y53077380D02*
X133248690Y53791666D01*
X133248690Y53791666D02*
X133439166Y53077380D01*
X133439166Y53077380D02*
X133677262Y54077380D01*
X134010595Y53982142D02*
X134058214Y54029761D01*
X134058214Y54029761D02*
X134153452Y54077380D01*
X134153452Y54077380D02*
X134391547Y54077380D01*
X134391547Y54077380D02*
X134486785Y54029761D01*
X134486785Y54029761D02*
X134534404Y53982142D01*
X134534404Y53982142D02*
X134582023Y53886904D01*
X134582023Y53886904D02*
X134582023Y53791666D01*
X134582023Y53791666D02*
X134534404Y53648809D01*
X134534404Y53648809D02*
X133962976Y53077380D01*
X133962976Y53077380D02*
X134582023Y53077380D01*
X134915357Y52696428D02*
X134962976Y52744047D01*
X134962976Y52744047D02*
X135058214Y52886904D01*
X135058214Y52886904D02*
X135105833Y52982142D01*
X135105833Y52982142D02*
X135153452Y53125000D01*
X135153452Y53125000D02*
X135201071Y53363095D01*
X135201071Y53363095D02*
X135201071Y53553571D01*
X135201071Y53553571D02*
X135153452Y53791666D01*
X135153452Y53791666D02*
X135105833Y53934523D01*
X135105833Y53934523D02*
X135058214Y54029761D01*
X135058214Y54029761D02*
X134962976Y54172619D01*
X134962976Y54172619D02*
X134915357Y54220238D01*
X136201071Y53077380D02*
X135629643Y53077380D01*
X135915357Y53077380D02*
X135915357Y54077380D01*
X135915357Y54077380D02*
X135820119Y53934523D01*
X135820119Y53934523D02*
X135724881Y53839285D01*
X135724881Y53839285D02*
X135629643Y53791666D01*
X157630118Y19277380D02*
X157296785Y19753571D01*
X157058690Y19277380D02*
X157058690Y20277380D01*
X157058690Y20277380D02*
X157439642Y20277380D01*
X157439642Y20277380D02*
X157534880Y20229761D01*
X157534880Y20229761D02*
X157582499Y20182142D01*
X157582499Y20182142D02*
X157630118Y20086904D01*
X157630118Y20086904D02*
X157630118Y19944047D01*
X157630118Y19944047D02*
X157582499Y19848809D01*
X157582499Y19848809D02*
X157534880Y19801190D01*
X157534880Y19801190D02*
X157439642Y19753571D01*
X157439642Y19753571D02*
X157058690Y19753571D01*
X158011071Y19325000D02*
X158106309Y19277380D01*
X158106309Y19277380D02*
X158296785Y19277380D01*
X158296785Y19277380D02*
X158392023Y19325000D01*
X158392023Y19325000D02*
X158439642Y19420238D01*
X158439642Y19420238D02*
X158439642Y19467857D01*
X158439642Y19467857D02*
X158392023Y19563095D01*
X158392023Y19563095D02*
X158296785Y19610714D01*
X158296785Y19610714D02*
X158153928Y19610714D01*
X158153928Y19610714D02*
X158058690Y19658333D01*
X158058690Y19658333D02*
X158011071Y19753571D01*
X158011071Y19753571D02*
X158011071Y19801190D01*
X158011071Y19801190D02*
X158058690Y19896428D01*
X158058690Y19896428D02*
X158153928Y19944047D01*
X158153928Y19944047D02*
X158296785Y19944047D01*
X158296785Y19944047D02*
X158392023Y19896428D01*
X159249166Y19325000D02*
X159153928Y19277380D01*
X159153928Y19277380D02*
X158963452Y19277380D01*
X158963452Y19277380D02*
X158868214Y19325000D01*
X158868214Y19325000D02*
X158820595Y19420238D01*
X158820595Y19420238D02*
X158820595Y19801190D01*
X158820595Y19801190D02*
X158868214Y19896428D01*
X158868214Y19896428D02*
X158963452Y19944047D01*
X158963452Y19944047D02*
X159153928Y19944047D01*
X159153928Y19944047D02*
X159249166Y19896428D01*
X159249166Y19896428D02*
X159296785Y19801190D01*
X159296785Y19801190D02*
X159296785Y19705952D01*
X159296785Y19705952D02*
X158820595Y19610714D01*
X159725357Y19944047D02*
X159725357Y19277380D01*
X159725357Y19848809D02*
X159772976Y19896428D01*
X159772976Y19896428D02*
X159868214Y19944047D01*
X159868214Y19944047D02*
X160011071Y19944047D01*
X160011071Y19944047D02*
X160106309Y19896428D01*
X160106309Y19896428D02*
X160153928Y19801190D01*
X160153928Y19801190D02*
X160153928Y19277380D01*
X161153928Y19277380D02*
X160582500Y19277380D01*
X160868214Y19277380D02*
X160868214Y20277380D01*
X160868214Y20277380D02*
X160772976Y20134523D01*
X160772976Y20134523D02*
X160677738Y20039285D01*
X160677738Y20039285D02*
X160582500Y19991666D01*
X154348299Y12707180D02*
X154348299Y13707180D01*
X154348299Y13707180D02*
X154586394Y13707180D01*
X154586394Y13707180D02*
X154729251Y13659561D01*
X154729251Y13659561D02*
X154824489Y13564323D01*
X154824489Y13564323D02*
X154872108Y13469085D01*
X154872108Y13469085D02*
X154919727Y13278609D01*
X154919727Y13278609D02*
X154919727Y13135752D01*
X154919727Y13135752D02*
X154872108Y12945276D01*
X154872108Y12945276D02*
X154824489Y12850038D01*
X154824489Y12850038D02*
X154729251Y12754800D01*
X154729251Y12754800D02*
X154586394Y12707180D01*
X154586394Y12707180D02*
X154348299Y12707180D01*
X155634013Y12326228D02*
X155586394Y12373847D01*
X155586394Y12373847D02*
X155491156Y12516704D01*
X155491156Y12516704D02*
X155443537Y12611942D01*
X155443537Y12611942D02*
X155395918Y12754800D01*
X155395918Y12754800D02*
X155348299Y12992895D01*
X155348299Y12992895D02*
X155348299Y13183371D01*
X155348299Y13183371D02*
X155395918Y13421466D01*
X155395918Y13421466D02*
X155443537Y13564323D01*
X155443537Y13564323D02*
X155491156Y13659561D01*
X155491156Y13659561D02*
X155586394Y13802419D01*
X155586394Y13802419D02*
X155634013Y13850038D01*
X155919728Y13707180D02*
X156586394Y13707180D01*
X156586394Y13707180D02*
X155919728Y12707180D01*
X155919728Y12707180D02*
X156586394Y12707180D01*
X157348299Y12754800D02*
X157253061Y12707180D01*
X157253061Y12707180D02*
X157062585Y12707180D01*
X157062585Y12707180D02*
X156967347Y12754800D01*
X156967347Y12754800D02*
X156919728Y12850038D01*
X156919728Y12850038D02*
X156919728Y13230990D01*
X156919728Y13230990D02*
X156967347Y13326228D01*
X156967347Y13326228D02*
X157062585Y13373847D01*
X157062585Y13373847D02*
X157253061Y13373847D01*
X157253061Y13373847D02*
X157348299Y13326228D01*
X157348299Y13326228D02*
X157395918Y13230990D01*
X157395918Y13230990D02*
X157395918Y13135752D01*
X157395918Y13135752D02*
X156919728Y13040514D01*
X157824490Y13373847D02*
X157824490Y12707180D01*
X157824490Y13278609D02*
X157872109Y13326228D01*
X157872109Y13326228D02*
X157967347Y13373847D01*
X157967347Y13373847D02*
X158110204Y13373847D01*
X158110204Y13373847D02*
X158205442Y13326228D01*
X158205442Y13326228D02*
X158253061Y13230990D01*
X158253061Y13230990D02*
X158253061Y12707180D01*
X159110204Y12754800D02*
X159014966Y12707180D01*
X159014966Y12707180D02*
X158824490Y12707180D01*
X158824490Y12707180D02*
X158729252Y12754800D01*
X158729252Y12754800D02*
X158681633Y12850038D01*
X158681633Y12850038D02*
X158681633Y13230990D01*
X158681633Y13230990D02*
X158729252Y13326228D01*
X158729252Y13326228D02*
X158824490Y13373847D01*
X158824490Y13373847D02*
X159014966Y13373847D01*
X159014966Y13373847D02*
X159110204Y13326228D01*
X159110204Y13326228D02*
X159157823Y13230990D01*
X159157823Y13230990D02*
X159157823Y13135752D01*
X159157823Y13135752D02*
X158681633Y13040514D01*
X159586395Y12707180D02*
X159586395Y13373847D01*
X159586395Y13183371D02*
X159634014Y13278609D01*
X159634014Y13278609D02*
X159681633Y13326228D01*
X159681633Y13326228D02*
X159776871Y13373847D01*
X159776871Y13373847D02*
X159872109Y13373847D01*
X160110205Y12326228D02*
X160157824Y12373847D01*
X160157824Y12373847D02*
X160253062Y12516704D01*
X160253062Y12516704D02*
X160300681Y12611942D01*
X160300681Y12611942D02*
X160348300Y12754800D01*
X160348300Y12754800D02*
X160395919Y12992895D01*
X160395919Y12992895D02*
X160395919Y13183371D01*
X160395919Y13183371D02*
X160348300Y13421466D01*
X160348300Y13421466D02*
X160300681Y13564323D01*
X160300681Y13564323D02*
X160253062Y13659561D01*
X160253062Y13659561D02*
X160157824Y13802419D01*
X160157824Y13802419D02*
X160110205Y13850038D01*
X160824491Y13611942D02*
X160872110Y13659561D01*
X160872110Y13659561D02*
X160967348Y13707180D01*
X160967348Y13707180D02*
X161205443Y13707180D01*
X161205443Y13707180D02*
X161300681Y13659561D01*
X161300681Y13659561D02*
X161348300Y13611942D01*
X161348300Y13611942D02*
X161395919Y13516704D01*
X161395919Y13516704D02*
X161395919Y13421466D01*
X161395919Y13421466D02*
X161348300Y13278609D01*
X161348300Y13278609D02*
X160776872Y12707180D01*
X160776872Y12707180D02*
X161395919Y12707180D01*
X155186700Y13707180D02*
X155186700Y13469085D01*
X154948605Y13564323D02*
X155186700Y13469085D01*
X155186700Y13469085D02*
X155424795Y13564323D01*
X155043843Y13278609D02*
X155186700Y13469085D01*
X155186700Y13469085D02*
X155329557Y13278609D01*
X155186700Y13707180D02*
X155186700Y13469085D01*
X154948605Y13564323D02*
X155186700Y13469085D01*
X155186700Y13469085D02*
X155424795Y13564323D01*
X155043843Y13278609D02*
X155186700Y13469085D01*
X155186700Y13469085D02*
X155329557Y13278609D01*
X53006666Y-49042619D02*
X53006666Y-49756904D01*
X53006666Y-49756904D02*
X52959047Y-49899761D01*
X52959047Y-49899761D02*
X52863809Y-49995000D01*
X52863809Y-49995000D02*
X52720952Y-50042619D01*
X52720952Y-50042619D02*
X52625714Y-50042619D01*
X53387619Y-49042619D02*
X54006666Y-49042619D01*
X54006666Y-49042619D02*
X53673333Y-49423571D01*
X53673333Y-49423571D02*
X53816190Y-49423571D01*
X53816190Y-49423571D02*
X53911428Y-49471190D01*
X53911428Y-49471190D02*
X53959047Y-49518809D01*
X53959047Y-49518809D02*
X54006666Y-49614047D01*
X54006666Y-49614047D02*
X54006666Y-49852142D01*
X54006666Y-49852142D02*
X53959047Y-49947380D01*
X53959047Y-49947380D02*
X53911428Y-49995000D01*
X53911428Y-49995000D02*
X53816190Y-50042619D01*
X53816190Y-50042619D02*
X53530476Y-50042619D01*
X53530476Y-50042619D02*
X53435238Y-49995000D01*
X53435238Y-49995000D02*
X53387619Y-49947380D01*
X168391309Y37637619D02*
X168343690Y37590000D01*
X168343690Y37590000D02*
X168200833Y37542380D01*
X168200833Y37542380D02*
X168105595Y37542380D01*
X168105595Y37542380D02*
X167962738Y37590000D01*
X167962738Y37590000D02*
X167867500Y37685238D01*
X167867500Y37685238D02*
X167819881Y37780476D01*
X167819881Y37780476D02*
X167772262Y37970952D01*
X167772262Y37970952D02*
X167772262Y38113809D01*
X167772262Y38113809D02*
X167819881Y38304285D01*
X167819881Y38304285D02*
X167867500Y38399523D01*
X167867500Y38399523D02*
X167962738Y38494761D01*
X167962738Y38494761D02*
X168105595Y38542380D01*
X168105595Y38542380D02*
X168200833Y38542380D01*
X168200833Y38542380D02*
X168343690Y38494761D01*
X168343690Y38494761D02*
X168391309Y38447142D01*
X168819881Y37542380D02*
X168819881Y38209047D01*
X168819881Y38542380D02*
X168772262Y38494761D01*
X168772262Y38494761D02*
X168819881Y38447142D01*
X168819881Y38447142D02*
X168867500Y38494761D01*
X168867500Y38494761D02*
X168819881Y38542380D01*
X168819881Y38542380D02*
X168819881Y38447142D01*
X169296071Y38209047D02*
X169296071Y37542380D01*
X169296071Y38113809D02*
X169343690Y38161428D01*
X169343690Y38161428D02*
X169438928Y38209047D01*
X169438928Y38209047D02*
X169581785Y38209047D01*
X169581785Y38209047D02*
X169677023Y38161428D01*
X169677023Y38161428D02*
X169724642Y38066190D01*
X169724642Y38066190D02*
X169724642Y37542380D01*
X170486547Y37161428D02*
X170438928Y37209047D01*
X170438928Y37209047D02*
X170343690Y37351904D01*
X170343690Y37351904D02*
X170296071Y37447142D01*
X170296071Y37447142D02*
X170248452Y37590000D01*
X170248452Y37590000D02*
X170200833Y37828095D01*
X170200833Y37828095D02*
X170200833Y38018571D01*
X170200833Y38018571D02*
X170248452Y38256666D01*
X170248452Y38256666D02*
X170296071Y38399523D01*
X170296071Y38399523D02*
X170343690Y38494761D01*
X170343690Y38494761D02*
X170438928Y38637619D01*
X170438928Y38637619D02*
X170486547Y38685238D01*
X170867500Y37542380D02*
X170867500Y38542380D01*
X170867500Y38161428D02*
X170962738Y38209047D01*
X170962738Y38209047D02*
X171153214Y38209047D01*
X171153214Y38209047D02*
X171248452Y38161428D01*
X171248452Y38161428D02*
X171296071Y38113809D01*
X171296071Y38113809D02*
X171343690Y38018571D01*
X171343690Y38018571D02*
X171343690Y37732857D01*
X171343690Y37732857D02*
X171296071Y37637619D01*
X171296071Y37637619D02*
X171248452Y37590000D01*
X171248452Y37590000D02*
X171153214Y37542380D01*
X171153214Y37542380D02*
X170962738Y37542380D01*
X170962738Y37542380D02*
X170867500Y37590000D01*
X171677024Y37161428D02*
X171724643Y37209047D01*
X171724643Y37209047D02*
X171819881Y37351904D01*
X171819881Y37351904D02*
X171867500Y37447142D01*
X171867500Y37447142D02*
X171915119Y37590000D01*
X171915119Y37590000D02*
X171962738Y37828095D01*
X171962738Y37828095D02*
X171962738Y38018571D01*
X171962738Y38018571D02*
X171915119Y38256666D01*
X171915119Y38256666D02*
X171867500Y38399523D01*
X171867500Y38399523D02*
X171819881Y38494761D01*
X171819881Y38494761D02*
X171724643Y38637619D01*
X171724643Y38637619D02*
X171677024Y38685238D01*
X172962738Y37542380D02*
X172391310Y37542380D01*
X172677024Y37542380D02*
X172677024Y38542380D01*
X172677024Y38542380D02*
X172581786Y38399523D01*
X172581786Y38399523D02*
X172486548Y38304285D01*
X172486548Y38304285D02*
X172391310Y38256666D01*
X130820118Y46472619D02*
X130772499Y46425000D01*
X130772499Y46425000D02*
X130629642Y46377380D01*
X130629642Y46377380D02*
X130534404Y46377380D01*
X130534404Y46377380D02*
X130391547Y46425000D01*
X130391547Y46425000D02*
X130296309Y46520238D01*
X130296309Y46520238D02*
X130248690Y46615476D01*
X130248690Y46615476D02*
X130201071Y46805952D01*
X130201071Y46805952D02*
X130201071Y46948809D01*
X130201071Y46948809D02*
X130248690Y47139285D01*
X130248690Y47139285D02*
X130296309Y47234523D01*
X130296309Y47234523D02*
X130391547Y47329761D01*
X130391547Y47329761D02*
X130534404Y47377380D01*
X130534404Y47377380D02*
X130629642Y47377380D01*
X130629642Y47377380D02*
X130772499Y47329761D01*
X130772499Y47329761D02*
X130820118Y47282142D01*
X131248690Y46377380D02*
X131248690Y47044047D01*
X131248690Y47377380D02*
X131201071Y47329761D01*
X131201071Y47329761D02*
X131248690Y47282142D01*
X131248690Y47282142D02*
X131296309Y47329761D01*
X131296309Y47329761D02*
X131248690Y47377380D01*
X131248690Y47377380D02*
X131248690Y47282142D01*
X131724880Y47044047D02*
X131724880Y46377380D01*
X131724880Y46948809D02*
X131772499Y46996428D01*
X131772499Y46996428D02*
X131867737Y47044047D01*
X131867737Y47044047D02*
X132010594Y47044047D01*
X132010594Y47044047D02*
X132105832Y46996428D01*
X132105832Y46996428D02*
X132153451Y46901190D01*
X132153451Y46901190D02*
X132153451Y46377380D01*
X132915356Y45996428D02*
X132867737Y46044047D01*
X132867737Y46044047D02*
X132772499Y46186904D01*
X132772499Y46186904D02*
X132724880Y46282142D01*
X132724880Y46282142D02*
X132677261Y46425000D01*
X132677261Y46425000D02*
X132629642Y46663095D01*
X132629642Y46663095D02*
X132629642Y46853571D01*
X132629642Y46853571D02*
X132677261Y47091666D01*
X132677261Y47091666D02*
X132724880Y47234523D01*
X132724880Y47234523D02*
X132772499Y47329761D01*
X132772499Y47329761D02*
X132867737Y47472619D01*
X132867737Y47472619D02*
X132915356Y47520238D01*
X133724880Y46425000D02*
X133629642Y46377380D01*
X133629642Y46377380D02*
X133439166Y46377380D01*
X133439166Y46377380D02*
X133343928Y46425000D01*
X133343928Y46425000D02*
X133296309Y46472619D01*
X133296309Y46472619D02*
X133248690Y46567857D01*
X133248690Y46567857D02*
X133248690Y46853571D01*
X133248690Y46853571D02*
X133296309Y46948809D01*
X133296309Y46948809D02*
X133343928Y46996428D01*
X133343928Y46996428D02*
X133439166Y47044047D01*
X133439166Y47044047D02*
X133629642Y47044047D01*
X133629642Y47044047D02*
X133724880Y46996428D01*
X134058214Y45996428D02*
X134105833Y46044047D01*
X134105833Y46044047D02*
X134201071Y46186904D01*
X134201071Y46186904D02*
X134248690Y46282142D01*
X134248690Y46282142D02*
X134296309Y46425000D01*
X134296309Y46425000D02*
X134343928Y46663095D01*
X134343928Y46663095D02*
X134343928Y46853571D01*
X134343928Y46853571D02*
X134296309Y47091666D01*
X134296309Y47091666D02*
X134248690Y47234523D01*
X134248690Y47234523D02*
X134201071Y47329761D01*
X134201071Y47329761D02*
X134105833Y47472619D01*
X134105833Y47472619D02*
X134058214Y47520238D01*
X135343928Y46377380D02*
X134772500Y46377380D01*
X135058214Y46377380D02*
X135058214Y47377380D01*
X135058214Y47377380D02*
X134962976Y47234523D01*
X134962976Y47234523D02*
X134867738Y47139285D01*
X134867738Y47139285D02*
X134772500Y47091666D01*
X126666666Y26157380D02*
X126666666Y25443095D01*
X126666666Y25443095D02*
X126619047Y25300238D01*
X126619047Y25300238D02*
X126523809Y25205000D01*
X126523809Y25205000D02*
X126380952Y25157380D01*
X126380952Y25157380D02*
X126285714Y25157380D01*
X127571428Y25824047D02*
X127571428Y25157380D01*
X127333333Y26205000D02*
X127095238Y25490714D01*
X127095238Y25490714D02*
X127714285Y25490714D01*
X130320118Y49822619D02*
X130272499Y49775000D01*
X130272499Y49775000D02*
X130129642Y49727380D01*
X130129642Y49727380D02*
X130034404Y49727380D01*
X130034404Y49727380D02*
X129891547Y49775000D01*
X129891547Y49775000D02*
X129796309Y49870238D01*
X129796309Y49870238D02*
X129748690Y49965476D01*
X129748690Y49965476D02*
X129701071Y50155952D01*
X129701071Y50155952D02*
X129701071Y50298809D01*
X129701071Y50298809D02*
X129748690Y50489285D01*
X129748690Y50489285D02*
X129796309Y50584523D01*
X129796309Y50584523D02*
X129891547Y50679761D01*
X129891547Y50679761D02*
X130034404Y50727380D01*
X130034404Y50727380D02*
X130129642Y50727380D01*
X130129642Y50727380D02*
X130272499Y50679761D01*
X130272499Y50679761D02*
X130320118Y50632142D01*
X131177261Y49775000D02*
X131082023Y49727380D01*
X131082023Y49727380D02*
X130891547Y49727380D01*
X130891547Y49727380D02*
X130796309Y49775000D01*
X130796309Y49775000D02*
X130748690Y49822619D01*
X130748690Y49822619D02*
X130701071Y49917857D01*
X130701071Y49917857D02*
X130701071Y50203571D01*
X130701071Y50203571D02*
X130748690Y50298809D01*
X130748690Y50298809D02*
X130796309Y50346428D01*
X130796309Y50346428D02*
X130891547Y50394047D01*
X130891547Y50394047D02*
X131082023Y50394047D01*
X131082023Y50394047D02*
X131177261Y50346428D01*
X131891547Y49346428D02*
X131843928Y49394047D01*
X131843928Y49394047D02*
X131748690Y49536904D01*
X131748690Y49536904D02*
X131701071Y49632142D01*
X131701071Y49632142D02*
X131653452Y49775000D01*
X131653452Y49775000D02*
X131605833Y50013095D01*
X131605833Y50013095D02*
X131605833Y50203571D01*
X131605833Y50203571D02*
X131653452Y50441666D01*
X131653452Y50441666D02*
X131701071Y50584523D01*
X131701071Y50584523D02*
X131748690Y50679761D01*
X131748690Y50679761D02*
X131843928Y50822619D01*
X131843928Y50822619D02*
X131891547Y50870238D01*
X132415357Y49727380D02*
X132320119Y49775000D01*
X132320119Y49775000D02*
X132272500Y49822619D01*
X132272500Y49822619D02*
X132224881Y49917857D01*
X132224881Y49917857D02*
X132224881Y50203571D01*
X132224881Y50203571D02*
X132272500Y50298809D01*
X132272500Y50298809D02*
X132320119Y50346428D01*
X132320119Y50346428D02*
X132415357Y50394047D01*
X132415357Y50394047D02*
X132558214Y50394047D01*
X132558214Y50394047D02*
X132653452Y50346428D01*
X132653452Y50346428D02*
X132701071Y50298809D01*
X132701071Y50298809D02*
X132748690Y50203571D01*
X132748690Y50203571D02*
X132748690Y49917857D01*
X132748690Y49917857D02*
X132701071Y49822619D01*
X132701071Y49822619D02*
X132653452Y49775000D01*
X132653452Y49775000D02*
X132558214Y49727380D01*
X132558214Y49727380D02*
X132415357Y49727380D01*
X133605833Y50394047D02*
X133605833Y49727380D01*
X133177262Y50394047D02*
X133177262Y49870238D01*
X133177262Y49870238D02*
X133224881Y49775000D01*
X133224881Y49775000D02*
X133320119Y49727380D01*
X133320119Y49727380D02*
X133462976Y49727380D01*
X133462976Y49727380D02*
X133558214Y49775000D01*
X133558214Y49775000D02*
X133605833Y49822619D01*
X133939167Y50394047D02*
X134320119Y50394047D01*
X134082024Y50727380D02*
X134082024Y49870238D01*
X134082024Y49870238D02*
X134129643Y49775000D01*
X134129643Y49775000D02*
X134224881Y49727380D01*
X134224881Y49727380D02*
X134320119Y49727380D01*
X134558215Y49346428D02*
X134605834Y49394047D01*
X134605834Y49394047D02*
X134701072Y49536904D01*
X134701072Y49536904D02*
X134748691Y49632142D01*
X134748691Y49632142D02*
X134796310Y49775000D01*
X134796310Y49775000D02*
X134843929Y50013095D01*
X134843929Y50013095D02*
X134843929Y50203571D01*
X134843929Y50203571D02*
X134796310Y50441666D01*
X134796310Y50441666D02*
X134748691Y50584523D01*
X134748691Y50584523D02*
X134701072Y50679761D01*
X134701072Y50679761D02*
X134605834Y50822619D01*
X134605834Y50822619D02*
X134558215Y50870238D01*
X135843929Y49727380D02*
X135272501Y49727380D01*
X135558215Y49727380D02*
X135558215Y50727380D01*
X135558215Y50727380D02*
X135462977Y50584523D01*
X135462977Y50584523D02*
X135367739Y50489285D01*
X135367739Y50489285D02*
X135272501Y50441666D01*
X150227605Y27661680D02*
X150227605Y28661680D01*
X150227605Y28661680D02*
X150465700Y28661680D01*
X150465700Y28661680D02*
X150608557Y28614061D01*
X150608557Y28614061D02*
X150703795Y28518823D01*
X150703795Y28518823D02*
X150751414Y28423585D01*
X150751414Y28423585D02*
X150799033Y28233109D01*
X150799033Y28233109D02*
X150799033Y28090252D01*
X150799033Y28090252D02*
X150751414Y27899776D01*
X150751414Y27899776D02*
X150703795Y27804538D01*
X150703795Y27804538D02*
X150608557Y27709300D01*
X150608557Y27709300D02*
X150465700Y27661680D01*
X150465700Y27661680D02*
X150227605Y27661680D01*
X151751414Y27661680D02*
X151179986Y27661680D01*
X151465700Y27661680D02*
X151465700Y28661680D01*
X151465700Y28661680D02*
X151370462Y28518823D01*
X151370462Y28518823D02*
X151275224Y28423585D01*
X151275224Y28423585D02*
X151179986Y28375966D01*
X153063133Y44776780D02*
X152586943Y44776780D01*
X152586943Y44776780D02*
X152586943Y45776780D01*
X153920276Y44776780D02*
X153348848Y44776780D01*
X153634562Y44776780D02*
X153634562Y45776780D01*
X153634562Y45776780D02*
X153539324Y45633923D01*
X153539324Y45633923D02*
X153444086Y45538685D01*
X153444086Y45538685D02*
X153348848Y45491066D01*
X138434300Y56236580D02*
X138434300Y55998485D01*
X138196205Y56093723D02*
X138434300Y55998485D01*
X138434300Y55998485D02*
X138672395Y56093723D01*
X138291443Y55808009D02*
X138434300Y55998485D01*
X138434300Y55998485D02*
X138577157Y55808009D01*
X138434300Y56236580D02*
X138434300Y55998485D01*
X138196205Y56093723D02*
X138434300Y55998485D01*
X138434300Y55998485D02*
X138672395Y56093723D01*
X138291443Y55808009D02*
X138434300Y55998485D01*
X138434300Y55998485D02*
X138577157Y55808009D01*
X166395833Y56487380D02*
X166062500Y56963571D01*
X165824405Y56487380D02*
X165824405Y57487380D01*
X165824405Y57487380D02*
X166205357Y57487380D01*
X166205357Y57487380D02*
X166300595Y57439761D01*
X166300595Y57439761D02*
X166348214Y57392142D01*
X166348214Y57392142D02*
X166395833Y57296904D01*
X166395833Y57296904D02*
X166395833Y57154047D01*
X166395833Y57154047D02*
X166348214Y57058809D01*
X166348214Y57058809D02*
X166300595Y57011190D01*
X166300595Y57011190D02*
X166205357Y56963571D01*
X166205357Y56963571D02*
X165824405Y56963571D01*
X167300595Y57487380D02*
X166824405Y57487380D01*
X166824405Y57487380D02*
X166776786Y57011190D01*
X166776786Y57011190D02*
X166824405Y57058809D01*
X166824405Y57058809D02*
X166919643Y57106428D01*
X166919643Y57106428D02*
X167157738Y57106428D01*
X167157738Y57106428D02*
X167252976Y57058809D01*
X167252976Y57058809D02*
X167300595Y57011190D01*
X167300595Y57011190D02*
X167348214Y56915952D01*
X167348214Y56915952D02*
X167348214Y56677857D01*
X167348214Y56677857D02*
X167300595Y56582619D01*
X167300595Y56582619D02*
X167252976Y56535000D01*
X167252976Y56535000D02*
X167157738Y56487380D01*
X167157738Y56487380D02*
X166919643Y56487380D01*
X166919643Y56487380D02*
X166824405Y56535000D01*
X166824405Y56535000D02*
X166776786Y56582619D01*
D11*
X20850000Y-93000000D02*
X24650000Y-93000000D01*
X24650000Y-93000000D02*
X27800000Y-89750000D01*
X17700000Y-89750000D02*
X20850000Y-93000000D01*
X27800000Y-89750000D02*
X27800000Y-72000000D01*
X17700000Y-72000000D02*
X17700000Y-89750000D01*
X27800000Y-72000000D02*
X17700000Y-72000000D01*
D12*
X146647700Y19596500D02*
X146647700Y18326500D01*
X146647700Y18961500D02*
X147409700Y19596500D01*
X146647700Y18961500D02*
X147409700Y19469500D01*
X146647700Y18961500D02*
X147409700Y19342500D01*
X146647700Y18961500D02*
X147409700Y19215500D01*
X146647700Y18961500D02*
X147409700Y19088500D01*
X146647700Y18961500D02*
X147409700Y18834500D01*
X146647700Y18961500D02*
X147409700Y18707500D01*
X146647700Y18961500D02*
X147409700Y18580500D01*
X146647700Y18961500D02*
X147409700Y18453500D01*
X146647700Y18961500D02*
X147409700Y18326500D01*
X147409700Y19596500D02*
X147409700Y18326500D01*
X147663700Y18961500D02*
X146393700Y18961500D01*
X148044700Y20549000D02*
X148044700Y20107040D01*
X148044700Y17815960D02*
X148044700Y17374000D01*
X148044700Y17374000D02*
X153886700Y17374000D01*
X153886700Y20549000D02*
X148044700Y20549000D01*
X153886700Y20107040D02*
X153886700Y20549000D01*
X153886700Y17374000D02*
X153886700Y17815960D01*
D11*
X156905436Y23720000D02*
X161259564Y23720000D01*
X156905436Y20300000D02*
X161259564Y20300000D01*
X132061248Y39200000D02*
X133483752Y39200000D01*
X132061248Y37380000D02*
X133483752Y37380000D01*
X165835436Y42880000D02*
X167289564Y42880000D01*
X165835436Y41060000D02*
X167289564Y41060000D01*
X132061248Y42550000D02*
X133483752Y42550000D01*
X132061248Y40730000D02*
X133483752Y40730000D01*
D13*
X136397500Y16090000D02*
G75*
G03*
X136397500Y16090000I-100000J0D01*
G01*
D14*
X145047500Y16090000D02*
G75*
G03*
X145047500Y16090000I-4000000J0D01*
G01*
X170717500Y59290000D02*
X174017500Y59290000D01*
X174017500Y55990000D02*
X170717500Y55990000D01*
D13*
X170167500Y58615000D02*
G75*
G03*
X170167500Y58615000I-100000J0D01*
G01*
D11*
X132061248Y32500000D02*
X133483752Y32500000D01*
X132061248Y30680000D02*
X133483752Y30680000D01*
D12*
X146647700Y15015100D02*
X146647700Y13745100D01*
X146647700Y14380100D02*
X147409700Y15015100D01*
X146647700Y14380100D02*
X147409700Y14888100D01*
X146647700Y14380100D02*
X147409700Y14761100D01*
X146647700Y14380100D02*
X147409700Y14634100D01*
X146647700Y14380100D02*
X147409700Y14507100D01*
X146647700Y14380100D02*
X147409700Y14253100D01*
X146647700Y14380100D02*
X147409700Y14126100D01*
X146647700Y14380100D02*
X147409700Y13999100D01*
X146647700Y14380100D02*
X147409700Y13872100D01*
X146647700Y14380100D02*
X147409700Y13745100D01*
X147409700Y15015100D02*
X147409700Y13745100D01*
X147663700Y14380100D02*
X146393700Y14380100D01*
X148044700Y15967600D02*
X148044700Y15525640D01*
X148044700Y13234560D02*
X148044700Y12792600D01*
X148044700Y12792600D02*
X153886700Y12792600D01*
X153886700Y15967600D02*
X148044700Y15967600D01*
X153886700Y15525640D02*
X153886700Y15967600D01*
X153886700Y12792600D02*
X153886700Y13234560D01*
D11*
X132061248Y59300000D02*
X133483752Y59300000D01*
X132061248Y57480000D02*
X133483752Y57480000D01*
X163987500Y23895000D02*
X163987500Y21625000D01*
X163987500Y21625000D02*
X167872500Y21625000D01*
X167872500Y23895000D02*
X163987500Y23895000D01*
D12*
X37426400Y-54573600D02*
X37223200Y-54573600D01*
X34276800Y-54573600D02*
X34073600Y-54573600D01*
X34073600Y-54573600D02*
X34073600Y-57926400D01*
X37426400Y-57926400D02*
X37426400Y-54573600D01*
X37223200Y-57926400D02*
X37426400Y-57926400D01*
X34073600Y-57926400D02*
X34276800Y-57926400D01*
G36*
X36941260Y-59640900D02*
G01*
X36560260Y-59640900D01*
X36560260Y-59386900D01*
X36941260Y-59386900D01*
X36941260Y-59640900D01*
G37*
X155694700Y27815804D02*
X155694700Y27053804D01*
X156075700Y27434804D02*
X155313700Y27434804D01*
X157337699Y29711800D02*
X157337699Y29017542D01*
X157337699Y25852066D02*
X157337699Y25157808D01*
X157337699Y25157808D02*
X165191683Y25157808D01*
X165191683Y29711800D02*
X157337699Y29711800D01*
X165191683Y29017542D02*
X165191683Y29711800D01*
X165191683Y25157808D02*
X165191683Y25852066D01*
D14*
X170717500Y44740000D02*
X174017500Y44740000D01*
X174017500Y41440000D02*
X170717500Y41440000D01*
D13*
X170167500Y44065000D02*
G75*
G03*
X170167500Y44065000I-100000J0D01*
G01*
D11*
X165835436Y59330000D02*
X167289564Y59330000D01*
X165835436Y57510000D02*
X167289564Y57510000D01*
X24650000Y-23500000D02*
X20850000Y-23500000D01*
X20850000Y-23500000D02*
X17700000Y-26750000D01*
X27800000Y-26750000D02*
X24650000Y-23500000D01*
X17700000Y-26750000D02*
X17700000Y-44500000D01*
X27800000Y-44500000D02*
X27800000Y-26750000D01*
X17700000Y-44500000D02*
X27800000Y-44500000D01*
D14*
X170717500Y49590000D02*
X174017500Y49590000D01*
X174017500Y46290000D02*
X170717500Y46290000D01*
D13*
X170167500Y48915000D02*
G75*
G03*
X170167500Y48915000I-100000J0D01*
G01*
D11*
X165835436Y46170000D02*
X167289564Y46170000D01*
X165835436Y44350000D02*
X167289564Y44350000D01*
D13*
X136397500Y25640000D02*
G75*
G03*
X136397500Y25640000I-100000J0D01*
G01*
D14*
X145047500Y25640000D02*
G75*
G03*
X145047500Y25640000I-4000000J0D01*
G01*
D11*
X165835436Y52750000D02*
X167289564Y52750000D01*
X165835436Y50930000D02*
X167289564Y50930000D01*
X165835436Y49460000D02*
X167289564Y49460000D01*
X165835436Y47640000D02*
X167289564Y47640000D01*
D14*
X170717500Y54440000D02*
X174017500Y54440000D01*
X174017500Y51140000D02*
X170717500Y51140000D01*
D13*
X170167500Y53765000D02*
G75*
G03*
X170167500Y53765000I-100000J0D01*
G01*
D11*
X132061248Y35850000D02*
X133483752Y35850000D01*
X132061248Y34030000D02*
X133483752Y34030000D01*
D12*
X199206600Y40877820D02*
X199206600Y40621280D01*
X199206600Y32371360D02*
X199206600Y32114820D01*
X199206600Y32114820D02*
X205074000Y32114820D01*
X205074000Y40877820D02*
X199206600Y40877820D01*
X205074000Y40621280D02*
X205074000Y40877820D01*
X205074000Y32114820D02*
X205074000Y32371360D01*
G36*
X197428600Y34029980D02*
G01*
X197174600Y34029980D01*
X197174600Y34410980D01*
X197428600Y34410980D01*
X197428600Y34029980D01*
G37*
G36*
X207106000Y37281180D02*
G01*
X206852000Y37281180D01*
X206852000Y37662180D01*
X207106000Y37662180D01*
X207106000Y37281180D01*
G37*
D11*
X132061248Y55950000D02*
X133483752Y55950000D01*
X132061248Y54130000D02*
X133483752Y54130000D01*
D12*
X146647700Y24177900D02*
X146647700Y22907900D01*
X146647700Y23542900D02*
X147409700Y24177900D01*
X146647700Y23542900D02*
X147409700Y24050900D01*
X146647700Y23542900D02*
X147409700Y23923900D01*
X146647700Y23542900D02*
X147409700Y23796900D01*
X146647700Y23542900D02*
X147409700Y23669900D01*
X146647700Y23542900D02*
X147409700Y23415900D01*
X146647700Y23542900D02*
X147409700Y23288900D01*
X146647700Y23542900D02*
X147409700Y23161900D01*
X146647700Y23542900D02*
X147409700Y23034900D01*
X146647700Y23542900D02*
X147409700Y22907900D01*
X147409700Y24177900D02*
X147409700Y22907900D01*
X147663700Y23542900D02*
X146393700Y23542900D01*
X148044700Y25130400D02*
X148044700Y24688440D01*
X148044700Y22397360D02*
X148044700Y21955400D01*
X148044700Y21955400D02*
X153886700Y21955400D01*
X153886700Y25130400D02*
X148044700Y25130400D01*
X153886700Y24688440D02*
X153886700Y25130400D01*
X153886700Y21955400D02*
X153886700Y22397360D01*
D11*
X132061248Y52600000D02*
X133483752Y52600000D01*
X132061248Y50780000D02*
X133483752Y50780000D01*
X156905436Y18830000D02*
X161259564Y18830000D01*
X156905436Y15410000D02*
X161259564Y15410000D01*
D12*
X156296300Y12367800D02*
X159400300Y12367800D01*
X159400300Y13971800D02*
X156296300Y13971800D01*
D11*
X42840000Y-53980000D02*
X42840000Y-57780000D01*
X42840000Y-57780000D02*
X46090000Y-60930000D01*
X46090000Y-50830000D02*
X42840000Y-53980000D01*
X46090000Y-60930000D02*
X63840000Y-60930000D01*
X63840000Y-50830000D02*
X46090000Y-50830000D01*
X63840000Y-60930000D02*
X63840000Y-50830000D01*
D13*
X166352500Y32920000D02*
G75*
G03*
X166352500Y32920000I-100000J0D01*
G01*
D14*
X175002500Y32920000D02*
G75*
G03*
X175002500Y32920000I-4000000J0D01*
G01*
D11*
X132061248Y45900000D02*
X133483752Y45900000D01*
X132061248Y44080000D02*
X133483752Y44080000D01*
X119150000Y21920000D02*
X119150000Y18770000D01*
X119150000Y18770000D02*
X122000000Y16170000D01*
X122000000Y24470000D02*
X119150000Y21920000D01*
X122000000Y16170000D02*
X134850000Y16170000D01*
X134850000Y24470000D02*
X122000000Y24470000D01*
X134850000Y16170000D02*
X134850000Y24470000D01*
X132061248Y49250000D02*
X133483752Y49250000D01*
X132061248Y47430000D02*
X133483752Y47430000D01*
D12*
X146647700Y28759300D02*
X146647700Y27489300D01*
X146647700Y28124300D02*
X147409700Y28759300D01*
X146647700Y28124300D02*
X147409700Y28632300D01*
X146647700Y28124300D02*
X147409700Y28505300D01*
X146647700Y28124300D02*
X147409700Y28378300D01*
X146647700Y28124300D02*
X147409700Y28251300D01*
X146647700Y28124300D02*
X147409700Y27997300D01*
X146647700Y28124300D02*
X147409700Y27870300D01*
X146647700Y28124300D02*
X147409700Y27743300D01*
X146647700Y28124300D02*
X147409700Y27616300D01*
X146647700Y28124300D02*
X147409700Y27489300D01*
X147409700Y28759300D02*
X147409700Y27489300D01*
X147663700Y28124300D02*
X146393700Y28124300D01*
X148044700Y29711800D02*
X148044700Y29269840D01*
X148044700Y26978760D02*
X148044700Y26536800D01*
X148044700Y26536800D02*
X153886700Y26536800D01*
X153886700Y29711800D02*
X148044700Y29711800D01*
X153886700Y29269840D02*
X153886700Y29711800D01*
X153886700Y26536800D02*
X153886700Y26978760D01*
X143400000Y59361800D02*
X143400000Y31117000D01*
X143400000Y31117000D02*
X163059600Y31117000D01*
X163059600Y59361800D02*
X143400000Y59361800D01*
X163059600Y31117000D02*
X163059600Y59361800D01*
D11*
X165835436Y56040000D02*
X167289564Y56040000D01*
X165835436Y54220000D02*
X167289564Y54220000D01*
%LPC*%
D15*
X174217500Y58305000D02*
X173767500Y58305000D01*
X173767500Y58275000D01*
X174217500Y58275000D01*
X174217500Y57655000D01*
X173767500Y57655000D01*
X173767500Y57625000D01*
X174217500Y57625000D01*
X174217500Y57005000D01*
X173767500Y57005000D01*
X173767500Y56975000D01*
X174217500Y56975000D01*
X174217500Y56355000D01*
X171867500Y56355000D01*
X171867500Y58925000D01*
X174217500Y58925000D01*
X174217500Y58305000D01*
G36*
X174217500Y58305000D02*
G01*
X173767500Y58305000D01*
X173767500Y58275000D01*
X174217500Y58275000D01*
X174217500Y57655000D01*
X173767500Y57655000D01*
X173767500Y57625000D01*
X174217500Y57625000D01*
X174217500Y57005000D01*
X173767500Y57005000D01*
X173767500Y56975000D01*
X174217500Y56975000D01*
X174217500Y56355000D01*
X171867500Y56355000D01*
X171867500Y58925000D01*
X174217500Y58925000D01*
X174217500Y58305000D01*
G37*
X174217500Y43755000D02*
X173767500Y43755000D01*
X173767500Y43725000D01*
X174217500Y43725000D01*
X174217500Y43105000D01*
X173767500Y43105000D01*
X173767500Y43075000D01*
X174217500Y43075000D01*
X174217500Y42455000D01*
X173767500Y42455000D01*
X173767500Y42425000D01*
X174217500Y42425000D01*
X174217500Y41805000D01*
X171867500Y41805000D01*
X171867500Y44375000D01*
X174217500Y44375000D01*
X174217500Y43755000D01*
G36*
X174217500Y43755000D02*
G01*
X173767500Y43755000D01*
X173767500Y43725000D01*
X174217500Y43725000D01*
X174217500Y43105000D01*
X173767500Y43105000D01*
X173767500Y43075000D01*
X174217500Y43075000D01*
X174217500Y42455000D01*
X173767500Y42455000D01*
X173767500Y42425000D01*
X174217500Y42425000D01*
X174217500Y41805000D01*
X171867500Y41805000D01*
X171867500Y44375000D01*
X174217500Y44375000D01*
X174217500Y43755000D01*
G37*
X174217500Y48605000D02*
X173767500Y48605000D01*
X173767500Y48575000D01*
X174217500Y48575000D01*
X174217500Y47955000D01*
X173767500Y47955000D01*
X173767500Y47925000D01*
X174217500Y47925000D01*
X174217500Y47305000D01*
X173767500Y47305000D01*
X173767500Y47275000D01*
X174217500Y47275000D01*
X174217500Y46655000D01*
X171867500Y46655000D01*
X171867500Y49225000D01*
X174217500Y49225000D01*
X174217500Y48605000D01*
G36*
X174217500Y48605000D02*
G01*
X173767500Y48605000D01*
X173767500Y48575000D01*
X174217500Y48575000D01*
X174217500Y47955000D01*
X173767500Y47955000D01*
X173767500Y47925000D01*
X174217500Y47925000D01*
X174217500Y47305000D01*
X173767500Y47305000D01*
X173767500Y47275000D01*
X174217500Y47275000D01*
X174217500Y46655000D01*
X171867500Y46655000D01*
X171867500Y49225000D01*
X174217500Y49225000D01*
X174217500Y48605000D01*
G37*
X174217500Y53455000D02*
X173767500Y53455000D01*
X173767500Y53425000D01*
X174217500Y53425000D01*
X174217500Y52805000D01*
X173767500Y52805000D01*
X173767500Y52775000D01*
X174217500Y52775000D01*
X174217500Y52155000D01*
X173767500Y52155000D01*
X173767500Y52125000D01*
X174217500Y52125000D01*
X174217500Y51505000D01*
X171867500Y51505000D01*
X171867500Y54075000D01*
X174217500Y54075000D01*
X174217500Y53455000D01*
G36*
X174217500Y53455000D02*
G01*
X173767500Y53455000D01*
X173767500Y53425000D01*
X174217500Y53425000D01*
X174217500Y52805000D01*
X173767500Y52805000D01*
X173767500Y52775000D01*
X174217500Y52775000D01*
X174217500Y52155000D01*
X173767500Y52155000D01*
X173767500Y52125000D01*
X174217500Y52125000D01*
X174217500Y51505000D01*
X171867500Y51505000D01*
X171867500Y54075000D01*
X174217500Y54075000D01*
X174217500Y53455000D01*
G37*
D16*
X22750000Y-88000000D03*
D17*
X22750000Y-77000000D03*
D18*
X149111500Y18961500D03*
X152819900Y18961500D03*
D19*
X156120000Y22010000D03*
X162045000Y22010000D03*
D20*
X131297500Y38290000D03*
X134247500Y38290000D03*
D21*
X165100000Y41970000D03*
X168025000Y41970000D03*
D20*
X131297500Y41640000D03*
X134247500Y41640000D03*
D22*
X139297500Y16090000D03*
D23*
X142797500Y16090000D03*
D24*
X170967500Y58615000D03*
X170967500Y57965000D03*
X170967500Y57315000D03*
X170967500Y56665000D03*
D20*
X131297500Y31590000D03*
X134247500Y31590000D03*
D18*
X149111500Y14380100D03*
X152819900Y14380100D03*
D20*
X131297500Y58390000D03*
X134247500Y58390000D03*
D25*
X164872500Y22760000D03*
X167672500Y22760000D03*
D26*
X36750760Y-54033850D03*
X36250380Y-54033850D03*
X35750000Y-54033850D03*
X35249620Y-54033850D03*
X34749240Y-54033850D03*
X34749240Y-58466150D03*
X35249620Y-58466150D03*
X35750000Y-58466150D03*
X36250380Y-58466150D03*
X36750760Y-58466150D03*
D27*
X158592497Y27434804D03*
X163936885Y27434804D03*
D24*
X170967500Y44065000D03*
X170967500Y43415000D03*
X170967500Y42765000D03*
X170967500Y42115000D03*
D21*
X165100000Y58420000D03*
X168025000Y58420000D03*
D28*
X22750000Y-28500000D03*
D17*
X22750000Y-39500000D03*
D24*
X170967500Y48915000D03*
X170967500Y48265000D03*
X170967500Y47615000D03*
X170967500Y46965000D03*
D21*
X165100000Y45260000D03*
X168025000Y45260000D03*
D22*
X139297500Y25640000D03*
D23*
X142797500Y25640000D03*
D21*
X165100000Y51840000D03*
X168025000Y51840000D03*
X165100000Y48550000D03*
X168025000Y48550000D03*
D24*
X170967500Y53765000D03*
X170967500Y53115000D03*
X170967500Y52465000D03*
X170967500Y51815000D03*
D20*
X131297500Y34940000D03*
X134247500Y34940000D03*
D29*
X198508100Y40072640D03*
X198508100Y39422400D03*
X198508100Y38772160D03*
X198508100Y38121920D03*
X198508100Y37471680D03*
X198508100Y36821440D03*
X198508100Y36171200D03*
X198508100Y35520960D03*
X198508100Y34870720D03*
X198508100Y34220480D03*
X198508100Y33570240D03*
X198508100Y32920000D03*
X205772500Y32920000D03*
X205772500Y33570240D03*
X205772500Y34220480D03*
X205772500Y34870720D03*
X205772500Y35520960D03*
X205772500Y36171200D03*
X205772500Y36821440D03*
X205772500Y37471680D03*
X205772500Y38121920D03*
X205772500Y38772160D03*
X205772500Y39422400D03*
X205772500Y40072640D03*
D20*
X131297500Y55040000D03*
X134247500Y55040000D03*
D18*
X149111500Y23542900D03*
X152819900Y23542900D03*
D20*
X131297500Y51690000D03*
X134247500Y51690000D03*
D19*
X156120000Y17120000D03*
X162045000Y17120000D03*
D30*
X156123300Y13169800D03*
X159573300Y13169800D03*
D31*
X47840000Y-55880000D03*
D17*
X58840000Y-55880000D03*
D22*
X169252500Y32920000D03*
D23*
X172752500Y32920000D03*
D20*
X131297500Y44990000D03*
X134247500Y44990000D03*
D32*
X123400000Y20320000D03*
D33*
X130600000Y20320000D03*
D20*
X131297500Y48340000D03*
X134247500Y48340000D03*
D18*
X149111500Y28124300D03*
X152819900Y28124300D03*
D34*
X138688300Y50314399D03*
X138688300Y40164401D03*
D21*
X165100000Y55130000D03*
X168025000Y55130000D03*
M02*
