%TF.GenerationSoftware,KiCad,Pcbnew,7.0.2*%
%TF.CreationDate,2023-08-24T13:31:51-07:00*%
%TF.ProjectId,Current Sense Standalone,43757272-656e-4742-9053-656e73652053,rev?*%
%TF.SameCoordinates,Original*%
%TF.FileFunction,Copper,L1,Top*%
%TF.FilePolarity,Positive*%
%FSLAX46Y46*%
G04 Gerber Fmt 4.6, Leading zero omitted, Abs format (unit mm)*
G04 Created by KiCad (PCBNEW 7.0.2) date 2023-08-24 13:31:51*
%MOMM*%
%LPD*%
G01*
G04 APERTURE LIST*
G04 Aperture macros list*
%AMRoundRect*
0 Rectangle with rounded corners*
0 $1 Rounding radius*
0 $2 $3 $4 $5 $6 $7 $8 $9 X,Y pos of 4 corners*
0 Add a 4 corners polygon primitive as box body*
4,1,4,$2,$3,$4,$5,$6,$7,$8,$9,$2,$3,0*
0 Add four circle primitives for the rounded corners*
1,1,$1+$1,$2,$3*
1,1,$1+$1,$4,$5*
1,1,$1+$1,$6,$7*
1,1,$1+$1,$8,$9*
0 Add four rect primitives between the rounded corners*
20,1,$1+$1,$2,$3,$4,$5,0*
20,1,$1+$1,$4,$5,$6,$7,0*
20,1,$1+$1,$6,$7,$8,$9,0*
20,1,$1+$1,$8,$9,$2,$3,0*%
G04 Aperture macros list end*
%TA.AperFunction,ComponentPad*%
%ADD10C,6.000000*%
%TD*%
%TA.AperFunction,ComponentPad*%
%ADD11RoundRect,1.500000X1.500000X-1.500000X1.500000X1.500000X-1.500000X1.500000X-1.500000X-1.500000X0*%
%TD*%
%TA.AperFunction,SMDPad,CuDef*%
%ADD12RoundRect,0.250000X-0.650000X0.325000X-0.650000X-0.325000X0.650000X-0.325000X0.650000X0.325000X0*%
%TD*%
%TA.AperFunction,SMDPad,CuDef*%
%ADD13R,1.800000X1.600000*%
%TD*%
%TA.AperFunction,SMDPad,CuDef*%
%ADD14R,7.800000X4.000000*%
%TD*%
%TA.AperFunction,ComponentPad*%
%ADD15O,1.700000X1.700000*%
%TD*%
%TA.AperFunction,ComponentPad*%
%ADD16R,1.700000X1.700000*%
%TD*%
%TA.AperFunction,SMDPad,CuDef*%
%ADD17R,1.473200X0.355600*%
%TD*%
%TA.AperFunction,Conductor*%
%ADD18C,0.250000*%
%TD*%
G04 APERTURE END LIST*
D10*
X68344045Y-22010000D03*
D11*
X68344045Y-29210000D03*
D12*
X50411329Y-27633866D03*
X50411329Y-24683866D03*
D13*
X54453375Y-27729624D03*
X54453375Y-24929624D03*
D14*
X29629273Y-22018011D03*
X29629273Y-33018011D03*
D12*
X58363078Y-27724784D03*
X58363078Y-24774784D03*
D15*
X50800000Y-20320000D03*
D16*
X48260000Y-20320000D03*
D15*
X40640000Y-17780000D03*
D16*
X38100000Y-17780000D03*
D17*
X44450000Y-25400000D03*
X44450000Y-26049998D03*
X44450000Y-26700000D03*
X44450000Y-27349998D03*
X38608000Y-27349998D03*
X38608000Y-26700000D03*
X38608000Y-26049998D03*
X38608000Y-25400000D03*
D10*
X18650936Y-22010000D03*
D11*
X18650936Y-29210000D03*
D15*
X59690000Y-20320000D03*
D16*
X57150000Y-20320000D03*
D18*
X54453375Y-24286625D02*
X54453375Y-24929624D01*
X57150000Y-21590000D02*
X54453375Y-24286625D01*
X57150000Y-20320000D02*
X57150000Y-21590000D01*
X48260000Y-22860000D02*
X48260000Y-20320000D01*
X60304045Y-13970000D02*
X49530000Y-13970000D01*
X49530000Y-13970000D02*
X38100000Y-25400000D01*
X68344045Y-22010000D02*
X60304045Y-13970000D01*
X48260000Y-22860000D02*
X48587463Y-22860000D01*
X46990000Y-22860000D02*
X48260000Y-22860000D01*
X44450000Y-25400000D02*
X46990000Y-22860000D01*
X48587463Y-22860000D02*
X50411329Y-24683866D01*
X33861989Y-22018011D02*
X29629273Y-22018011D01*
X38100000Y-17780000D02*
X33861989Y-22018011D01*
X52682999Y-26700000D02*
X54453375Y-24929624D01*
X44450000Y-26700000D02*
X52682999Y-26700000D01*
X58208238Y-24929624D02*
X58363078Y-24774784D01*
X54453375Y-24929624D02*
X58208238Y-24929624D01*
X50507087Y-27729624D02*
X50411329Y-27633866D01*
X18650936Y-29210000D02*
X20510938Y-27349998D01*
X58358238Y-27729624D02*
X54453375Y-27729624D01*
X58363078Y-27724784D02*
X58358238Y-27729624D01*
X20510938Y-27349998D02*
X38608000Y-27349998D01*
X54453375Y-27729624D02*
X50507087Y-27729624D01*
X29629273Y-22018011D02*
X33661260Y-26049998D01*
X33661260Y-26049998D02*
X38608000Y-26049998D01*
X28279273Y-23368011D02*
X29629273Y-22018011D01*
X18650936Y-22010000D02*
X20008947Y-23368011D01*
X20008947Y-23368011D02*
X28279273Y-23368011D01*
X18650936Y-20130973D02*
X18650936Y-22010000D01*
X56557856Y-31668011D02*
X66215867Y-22010000D01*
X66215867Y-22010000D02*
X68344045Y-22010000D01*
X29629273Y-31668011D02*
X56557856Y-31668011D01*
%TA.AperFunction,Conductor*%
G36*
X74872539Y-12720185D02*
G01*
X74918294Y-12772989D01*
X74929500Y-12824500D01*
X74929500Y-36901978D01*
X74909815Y-36969017D01*
X74857011Y-37014772D01*
X74805500Y-37025978D01*
X12730653Y-37025978D01*
X12663614Y-37006293D01*
X12617859Y-36953489D01*
X12606653Y-36901978D01*
X12606653Y-27572376D01*
X43212900Y-27572376D01*
X43212901Y-27575670D01*
X43219309Y-27635281D01*
X43269604Y-27770129D01*
X43355854Y-27885344D01*
X43471069Y-27971594D01*
X43605917Y-28021889D01*
X43665527Y-28028298D01*
X45234472Y-28028297D01*
X45294083Y-28021889D01*
X45428931Y-27971594D01*
X45544146Y-27885344D01*
X45630396Y-27770129D01*
X45680691Y-27635281D01*
X45687100Y-27575671D01*
X45687099Y-27449499D01*
X45706783Y-27382461D01*
X45759587Y-27336706D01*
X45811099Y-27325500D01*
X52600255Y-27325500D01*
X52620761Y-27327764D01*
X52623664Y-27327672D01*
X52623666Y-27327673D01*
X52690871Y-27325561D01*
X52694767Y-27325500D01*
X52718447Y-27325500D01*
X52722349Y-27325500D01*
X52726312Y-27324999D01*
X52737961Y-27324080D01*
X52781626Y-27322709D01*
X52800858Y-27317120D01*
X52819917Y-27313174D01*
X52826195Y-27312381D01*
X52839791Y-27310664D01*
X52880406Y-27294582D01*
X52891443Y-27290803D01*
X52933389Y-27278618D01*
X52950628Y-27268422D01*
X52968101Y-27259862D01*
X52986731Y-27252486D01*
X53022063Y-27226814D01*
X53031829Y-27220400D01*
X53069417Y-27198171D01*
X53069416Y-27198171D01*
X53069419Y-27198170D01*
X53083584Y-27184004D01*
X53098372Y-27171373D01*
X53114586Y-27159594D01*
X53142437Y-27125926D01*
X53150278Y-27117309D01*
X54001146Y-26266442D01*
X54062469Y-26232957D01*
X54088827Y-26230123D01*
X55397936Y-26230123D01*
X55401247Y-26230123D01*
X55460858Y-26223715D01*
X55595706Y-26173420D01*
X55710921Y-26087170D01*
X55797171Y-25971955D01*
X55847466Y-25837107D01*
X55853875Y-25777497D01*
X55853875Y-25679123D01*
X55873560Y-25612085D01*
X55926364Y-25566330D01*
X55977875Y-25555124D01*
X57055687Y-25555124D01*
X57122726Y-25574809D01*
X57143368Y-25591443D01*
X57244420Y-25692495D01*
X57257833Y-25700768D01*
X57393744Y-25784598D01*
X57503691Y-25821031D01*
X57560280Y-25839783D01*
X57659936Y-25849964D01*
X57659937Y-25849964D01*
X57663069Y-25850284D01*
X59063086Y-25850283D01*
X59165875Y-25839783D01*
X59332412Y-25784598D01*
X59481734Y-25692496D01*
X59605790Y-25568440D01*
X59697892Y-25419118D01*
X59753077Y-25252581D01*
X59763578Y-25149793D01*
X59763577Y-24399776D01*
X59753077Y-24296987D01*
X59697892Y-24130450D01*
X59605790Y-23981128D01*
X59605789Y-23981126D01*
X59481735Y-23857072D01*
X59332412Y-23764970D01*
X59165875Y-23709784D01*
X59066219Y-23699603D01*
X59066200Y-23699602D01*
X59063087Y-23699284D01*
X59059938Y-23699284D01*
X57666218Y-23699284D01*
X57666198Y-23699284D01*
X57663070Y-23699285D01*
X57659938Y-23699604D01*
X57659936Y-23699605D01*
X57560281Y-23709784D01*
X57393743Y-23764970D01*
X57244420Y-23857072D01*
X57120366Y-23981126D01*
X57028264Y-24130449D01*
X56998879Y-24219128D01*
X56959106Y-24276573D01*
X56894590Y-24303396D01*
X56881173Y-24304124D01*
X55977874Y-24304124D01*
X55910835Y-24284439D01*
X55865080Y-24231635D01*
X55853874Y-24180124D01*
X55853874Y-24085063D01*
X55853874Y-24081752D01*
X55847466Y-24022141D01*
X55808752Y-23918345D01*
X55803769Y-23848657D01*
X55837252Y-23787336D01*
X57533786Y-22090802D01*
X57549886Y-22077905D01*
X57551874Y-22075787D01*
X57551877Y-22075786D01*
X57597964Y-22026707D01*
X57600549Y-22024039D01*
X57620120Y-22004470D01*
X57622565Y-22001316D01*
X57630154Y-21992429D01*
X57660062Y-21960582D01*
X57669713Y-21943026D01*
X57680393Y-21926767D01*
X57692674Y-21910936D01*
X57710018Y-21870851D01*
X57715160Y-21860356D01*
X57736197Y-21822092D01*
X57741178Y-21802688D01*
X57747480Y-21784283D01*
X57755438Y-21765895D01*
X57755438Y-21765894D01*
X57761661Y-21751515D01*
X57764565Y-21752771D01*
X57783906Y-21711970D01*
X57843215Y-21675037D01*
X57876453Y-21670499D01*
X58044561Y-21670499D01*
X58047872Y-21670499D01*
X58107483Y-21664091D01*
X58242331Y-21613796D01*
X58357546Y-21527546D01*
X58443796Y-21412331D01*
X58494091Y-21277483D01*
X58500500Y-21217873D01*
X58500499Y-19422128D01*
X58494091Y-19362517D01*
X58443796Y-19227669D01*
X58357546Y-19112454D01*
X58242331Y-19026204D01*
X58107483Y-18975909D01*
X58047873Y-18969500D01*
X58044550Y-18969500D01*
X56255439Y-18969500D01*
X56255420Y-18969500D01*
X56252128Y-18969501D01*
X56248848Y-18969853D01*
X56248840Y-18969854D01*
X56192515Y-18975909D01*
X56057669Y-19026204D01*
X55942454Y-19112454D01*
X55856204Y-19227668D01*
X55805910Y-19362515D01*
X55805909Y-19362517D01*
X55799500Y-19422127D01*
X55799500Y-19425448D01*
X55799500Y-19425449D01*
X55799500Y-21214560D01*
X55799500Y-21214578D01*
X55799501Y-21217872D01*
X55799853Y-21221152D01*
X55799854Y-21221159D01*
X55805909Y-21277484D01*
X55808497Y-21284423D01*
X55856204Y-21412331D01*
X55942454Y-21527546D01*
X55942455Y-21527547D01*
X56048304Y-21606785D01*
X56090176Y-21662718D01*
X56095160Y-21732410D01*
X56061675Y-21793733D01*
X54262602Y-23592805D01*
X54201279Y-23626290D01*
X54174921Y-23629124D01*
X53508814Y-23629124D01*
X53508795Y-23629124D01*
X53505503Y-23629125D01*
X53502223Y-23629477D01*
X53502215Y-23629478D01*
X53445890Y-23635533D01*
X53311044Y-23685828D01*
X53195829Y-23772078D01*
X53109579Y-23887292D01*
X53059284Y-24022140D01*
X53053828Y-24072891D01*
X53052875Y-24081751D01*
X53052875Y-24085072D01*
X53052875Y-24085073D01*
X53052875Y-25394170D01*
X53033190Y-25461209D01*
X53016556Y-25481851D01*
X52460227Y-26038181D01*
X52398904Y-26071666D01*
X52372546Y-26074500D01*
X45811100Y-26074500D01*
X45744061Y-26054815D01*
X45698306Y-26002011D01*
X45687100Y-25950501D01*
X45687099Y-25827637D01*
X45687099Y-25824326D01*
X45680691Y-25764715D01*
X45680690Y-25764714D01*
X45679026Y-25749227D01*
X45680661Y-25749051D01*
X45677055Y-25698641D01*
X45680525Y-25686823D01*
X45686744Y-25628980D01*
X45687100Y-25625673D01*
X45687099Y-25174328D01*
X45681128Y-25118784D01*
X45693535Y-25050026D01*
X45716734Y-25017854D01*
X47212771Y-23521819D01*
X47274095Y-23488334D01*
X47300453Y-23485500D01*
X48180981Y-23485500D01*
X48189151Y-23485500D01*
X48212385Y-23487696D01*
X48220411Y-23489227D01*
X48220411Y-23489226D01*
X48220412Y-23489227D01*
X48269612Y-23486131D01*
X48337752Y-23501566D01*
X48365078Y-23522205D01*
X48982223Y-24139350D01*
X49015708Y-24200673D01*
X49017900Y-24239632D01*
X49011149Y-24305722D01*
X49010829Y-24308857D01*
X49010829Y-24312004D01*
X49010829Y-24312005D01*
X49010829Y-25055724D01*
X49010829Y-25055743D01*
X49010830Y-25058874D01*
X49011149Y-25062006D01*
X49011150Y-25062007D01*
X49021329Y-25161662D01*
X49076515Y-25328200D01*
X49168617Y-25477523D01*
X49292671Y-25601577D01*
X49326350Y-25622350D01*
X49441995Y-25693680D01*
X49553346Y-25730578D01*
X49608531Y-25748865D01*
X49708187Y-25759046D01*
X49708188Y-25759046D01*
X49711320Y-25759366D01*
X51111337Y-25759365D01*
X51214126Y-25748865D01*
X51380663Y-25693680D01*
X51529985Y-25601578D01*
X51654041Y-25477522D01*
X51746143Y-25328200D01*
X51801328Y-25161663D01*
X51811829Y-25058875D01*
X51811828Y-24308858D01*
X51801328Y-24206069D01*
X51746143Y-24039532D01*
X51654041Y-23890210D01*
X51654040Y-23890208D01*
X51529986Y-23766154D01*
X51380663Y-23674052D01*
X51214126Y-23618866D01*
X51114470Y-23608685D01*
X51114451Y-23608684D01*
X51111338Y-23608366D01*
X51108189Y-23608366D01*
X50271781Y-23608366D01*
X50204742Y-23588681D01*
X50184100Y-23572047D01*
X49088265Y-22476211D01*
X49075369Y-22460113D01*
X49024238Y-22412098D01*
X49021441Y-22409387D01*
X49004690Y-22392636D01*
X49001934Y-22389880D01*
X48998753Y-22387412D01*
X48989885Y-22379837D01*
X48958045Y-22349938D01*
X48958043Y-22349936D01*
X48949762Y-22345384D01*
X48900498Y-22295838D01*
X48885499Y-22236722D01*
X48885500Y-21794499D01*
X48905185Y-21727459D01*
X48957989Y-21681705D01*
X49009500Y-21670499D01*
X49154561Y-21670499D01*
X49157872Y-21670499D01*
X49217483Y-21664091D01*
X49352331Y-21613796D01*
X49467546Y-21527546D01*
X49553796Y-21412331D01*
X49604091Y-21277483D01*
X49610500Y-21217873D01*
X49610499Y-19422128D01*
X49604091Y-19362517D01*
X49553796Y-19227669D01*
X49467546Y-19112454D01*
X49352331Y-19026204D01*
X49217483Y-18975909D01*
X49157873Y-18969500D01*
X49154550Y-18969500D01*
X47365439Y-18969500D01*
X47365420Y-18969500D01*
X47362128Y-18969501D01*
X47358848Y-18969853D01*
X47358840Y-18969854D01*
X47302515Y-18975909D01*
X47167669Y-19026204D01*
X47052454Y-19112454D01*
X46966204Y-19227668D01*
X46915910Y-19362515D01*
X46915909Y-19362517D01*
X46909500Y-19422127D01*
X46909500Y-19425448D01*
X46909500Y-19425449D01*
X46909500Y-21214560D01*
X46909500Y-21214578D01*
X46909501Y-21217872D01*
X46909853Y-21221152D01*
X46909854Y-21221159D01*
X46915909Y-21277484D01*
X46918497Y-21284423D01*
X46966204Y-21412331D01*
X47052454Y-21527546D01*
X47167669Y-21613796D01*
X47302517Y-21664091D01*
X47362127Y-21670500D01*
X47510500Y-21670499D01*
X47577539Y-21690183D01*
X47623294Y-21742987D01*
X47634500Y-21794499D01*
X47634500Y-22110500D01*
X47614815Y-22177539D01*
X47562011Y-22223294D01*
X47510500Y-22234500D01*
X47072740Y-22234500D01*
X47052236Y-22232236D01*
X46982144Y-22234439D01*
X46978250Y-22234500D01*
X46950650Y-22234500D01*
X46946789Y-22234987D01*
X46946778Y-22234988D01*
X46946645Y-22235005D01*
X46935029Y-22235918D01*
X46891368Y-22237290D01*
X46872129Y-22242880D01*
X46853080Y-22246825D01*
X46833208Y-22249335D01*
X46792593Y-22265415D01*
X46781549Y-22269196D01*
X46739611Y-22281382D01*
X46722364Y-22291581D01*
X46704900Y-22300136D01*
X46686267Y-22307514D01*
X46650926Y-22333189D01*
X46641168Y-22339599D01*
X46603579Y-22361829D01*
X46589410Y-22375998D01*
X46574622Y-22388628D01*
X46558413Y-22400405D01*
X46530572Y-22434058D01*
X46522711Y-22442696D01*
X44280026Y-24685381D01*
X44218703Y-24718866D01*
X44192345Y-24721700D01*
X43668839Y-24721700D01*
X43668820Y-24721700D01*
X43665528Y-24721701D01*
X43662248Y-24722053D01*
X43662240Y-24722054D01*
X43605915Y-24728109D01*
X43471069Y-24778404D01*
X43355854Y-24864654D01*
X43269604Y-24979868D01*
X43219309Y-25114716D01*
X43214262Y-25161663D01*
X43212900Y-25174327D01*
X43212900Y-25177648D01*
X43212900Y-25177649D01*
X43212900Y-25622360D01*
X43212900Y-25622378D01*
X43212901Y-25625672D01*
X43213253Y-25628952D01*
X43213254Y-25628959D01*
X43220974Y-25700768D01*
X43219338Y-25700943D01*
X43222941Y-25751364D01*
X43219475Y-25763168D01*
X43217171Y-25784597D01*
X43212900Y-25824325D01*
X43212900Y-25827646D01*
X43212900Y-25827647D01*
X43212900Y-26272358D01*
X43212900Y-26272376D01*
X43212901Y-26275670D01*
X43213253Y-26278950D01*
X43213254Y-26278957D01*
X43220974Y-26350766D01*
X43219339Y-26350941D01*
X43222943Y-26401362D01*
X43219475Y-26413171D01*
X43219308Y-26414717D01*
X43219309Y-26414717D01*
X43212900Y-26474327D01*
X43212900Y-26477648D01*
X43212900Y-26477649D01*
X43212900Y-26922360D01*
X43212900Y-26922378D01*
X43212901Y-26925672D01*
X43213253Y-26928952D01*
X43213254Y-26928959D01*
X43220974Y-27000768D01*
X43219338Y-27000943D01*
X43222941Y-27051364D01*
X43219475Y-27063168D01*
X43213351Y-27120130D01*
X43212900Y-27124325D01*
X43212900Y-27127646D01*
X43212900Y-27127647D01*
X43212900Y-27572358D01*
X43212900Y-27572376D01*
X12606653Y-27572376D01*
X12606653Y-22010000D01*
X15145632Y-22010000D01*
X15145802Y-22013243D01*
X15161223Y-22307514D01*
X15164834Y-22376404D01*
X15165339Y-22379594D01*
X15165341Y-22379609D01*
X15213798Y-22685550D01*
X15222231Y-22738794D01*
X15223069Y-22741923D01*
X15223072Y-22741935D01*
X15316351Y-23090056D01*
X15316355Y-23090070D01*
X15317194Y-23093199D01*
X15318357Y-23096228D01*
X15318361Y-23096241D01*
X15447520Y-23432712D01*
X15448681Y-23435736D01*
X15450149Y-23438617D01*
X15588316Y-23709785D01*
X15615254Y-23762652D01*
X15815085Y-24070366D01*
X15826995Y-24085073D01*
X16010760Y-24312005D01*
X16045987Y-24355506D01*
X16305430Y-24614949D01*
X16590570Y-24845851D01*
X16898284Y-25045682D01*
X17225200Y-25212255D01*
X17503348Y-25319025D01*
X17527248Y-25328200D01*
X17567737Y-25343742D01*
X17922142Y-25438705D01*
X18284532Y-25496102D01*
X18650936Y-25515304D01*
X19017340Y-25496102D01*
X19379730Y-25438705D01*
X19734135Y-25343742D01*
X20076672Y-25212255D01*
X20403588Y-25045682D01*
X20711302Y-24845851D01*
X20996442Y-24614949D01*
X21255885Y-24355506D01*
X21486787Y-24070366D01*
X21500028Y-24049975D01*
X21553047Y-24004473D01*
X21604023Y-23993511D01*
X25109609Y-23993511D01*
X25176648Y-24013196D01*
X25222403Y-24066000D01*
X25232898Y-24104255D01*
X25235182Y-24125494D01*
X25285477Y-24260342D01*
X25371727Y-24375557D01*
X25486942Y-24461807D01*
X25621790Y-24512102D01*
X25681400Y-24518511D01*
X31193820Y-24518510D01*
X31260859Y-24538195D01*
X31281501Y-24554829D01*
X33160457Y-26433785D01*
X33173358Y-26449887D01*
X33175472Y-26451872D01*
X33175474Y-26451875D01*
X33222821Y-26496337D01*
X33224500Y-26497914D01*
X33227296Y-26500624D01*
X33246790Y-26520118D01*
X33249875Y-26522511D01*
X33249961Y-26522578D01*
X33258833Y-26530156D01*
X33290678Y-26560060D01*
X33308234Y-26569712D01*
X33324491Y-26580390D01*
X33340324Y-26592672D01*
X33356445Y-26599647D01*
X33380416Y-26610021D01*
X33390903Y-26615158D01*
X33429168Y-26636195D01*
X33448576Y-26641178D01*
X33466970Y-26647476D01*
X33485365Y-26655436D01*
X33528514Y-26662269D01*
X33539940Y-26664636D01*
X33555482Y-26668627D01*
X33582240Y-26675498D01*
X33582241Y-26675498D01*
X33602276Y-26675498D01*
X33621673Y-26677024D01*
X33641456Y-26680158D01*
X33684934Y-26676048D01*
X33696604Y-26675498D01*
X37246900Y-26675498D01*
X37313939Y-26695183D01*
X37359694Y-26747987D01*
X37370900Y-26799497D01*
X37370900Y-26922360D01*
X37370900Y-26922378D01*
X37370901Y-26925672D01*
X37371253Y-26928952D01*
X37371254Y-26928959D01*
X37377309Y-26985284D01*
X37383150Y-27000943D01*
X37427604Y-27120131D01*
X37513854Y-27235346D01*
X37629069Y-27321596D01*
X37763917Y-27371891D01*
X37823527Y-27378300D01*
X39392472Y-27378299D01*
X39452083Y-27371891D01*
X39586931Y-27321596D01*
X39702146Y-27235346D01*
X39788396Y-27120131D01*
X39838691Y-26985283D01*
X39845100Y-26925673D01*
X39845099Y-26474328D01*
X39838691Y-26414717D01*
X39838690Y-26414715D01*
X39837026Y-26399232D01*
X39838660Y-26399056D01*
X39835052Y-26348646D01*
X39838525Y-26336817D01*
X39838689Y-26335284D01*
X39838691Y-26335281D01*
X39845100Y-26275671D01*
X39845099Y-25824326D01*
X39838691Y-25764715D01*
X39838690Y-25764714D01*
X39837026Y-25749227D01*
X39838661Y-25749051D01*
X39835055Y-25698641D01*
X39838525Y-25686823D01*
X39844744Y-25628980D01*
X39845100Y-25625673D01*
X39845099Y-25174328D01*
X39838691Y-25114717D01*
X39788396Y-24979869D01*
X39702146Y-24864654D01*
X39702145Y-24864653D01*
X39691462Y-24850382D01*
X39694379Y-24848197D01*
X39670625Y-24816457D01*
X39665649Y-24746765D01*
X39699129Y-24685459D01*
X49752771Y-14631819D01*
X49814095Y-14598334D01*
X49840453Y-14595500D01*
X59993593Y-14595500D01*
X60060632Y-14615185D01*
X60081274Y-14631819D01*
X65394233Y-19944779D01*
X65427718Y-20006102D01*
X65422734Y-20075794D01*
X65410548Y-20099995D01*
X65310135Y-20254620D01*
X65308363Y-20257348D01*
X65306898Y-20260222D01*
X65306890Y-20260237D01*
X65143258Y-20581382D01*
X65141790Y-20584264D01*
X65140633Y-20587277D01*
X65140629Y-20587287D01*
X65011470Y-20923758D01*
X65011463Y-20923776D01*
X65010303Y-20926801D01*
X65009466Y-20929923D01*
X65009460Y-20929943D01*
X64916181Y-21278064D01*
X64916177Y-21278080D01*
X64915340Y-21281206D01*
X64914831Y-21284414D01*
X64914830Y-21284423D01*
X64858450Y-21640390D01*
X64858448Y-21640404D01*
X64857943Y-21643596D01*
X64857773Y-21646826D01*
X64857773Y-21646833D01*
X64846583Y-21860356D01*
X64838741Y-22010000D01*
X64838911Y-22013243D01*
X64854332Y-22307514D01*
X64857943Y-22376404D01*
X64862679Y-22406310D01*
X64853724Y-22475603D01*
X64827887Y-22513387D01*
X56335084Y-31006192D01*
X56273761Y-31039677D01*
X56247403Y-31042511D01*
X34148937Y-31042511D01*
X34081898Y-31022826D01*
X34036143Y-30970022D01*
X34025647Y-30931766D01*
X34023364Y-30910528D01*
X33973069Y-30775680D01*
X33886819Y-30660465D01*
X33771604Y-30574215D01*
X33636756Y-30523920D01*
X33577146Y-30517511D01*
X33573823Y-30517511D01*
X25684712Y-30517511D01*
X25684693Y-30517511D01*
X25681401Y-30517512D01*
X25678121Y-30517864D01*
X25678113Y-30517865D01*
X25621788Y-30523920D01*
X25486942Y-30574215D01*
X25371727Y-30660465D01*
X25285477Y-30775679D01*
X25235182Y-30910527D01*
X25232899Y-30931766D01*
X25228773Y-30970138D01*
X25228773Y-30973459D01*
X25228773Y-30973460D01*
X25228773Y-35062571D01*
X25228773Y-35062589D01*
X25228774Y-35065883D01*
X25235182Y-35125494D01*
X25285477Y-35260342D01*
X25371727Y-35375557D01*
X25486942Y-35461807D01*
X25621790Y-35512102D01*
X25681400Y-35518511D01*
X33577145Y-35518510D01*
X33636756Y-35512102D01*
X33771604Y-35461807D01*
X33886819Y-35375557D01*
X33973069Y-35260342D01*
X34023364Y-35125494D01*
X34029773Y-35065884D01*
X34029772Y-32417510D01*
X34049457Y-32350472D01*
X34102260Y-32304717D01*
X34153772Y-32293511D01*
X56475112Y-32293511D01*
X56495618Y-32295775D01*
X56498521Y-32295683D01*
X56498523Y-32295684D01*
X56565728Y-32293572D01*
X56569624Y-32293511D01*
X56593304Y-32293511D01*
X56597206Y-32293511D01*
X56601169Y-32293010D01*
X56612818Y-32292091D01*
X56656483Y-32290720D01*
X56675715Y-32285131D01*
X56694774Y-32281185D01*
X56701052Y-32280392D01*
X56714648Y-32278675D01*
X56755263Y-32262593D01*
X56766300Y-32258814D01*
X56808246Y-32246629D01*
X56825485Y-32236433D01*
X56842958Y-32227873D01*
X56861588Y-32220497D01*
X56896920Y-32194825D01*
X56906686Y-32188411D01*
X56944274Y-32166182D01*
X56944273Y-32166182D01*
X56944276Y-32166181D01*
X56958441Y-32152015D01*
X56973229Y-32139384D01*
X56989443Y-32127605D01*
X57017294Y-32093937D01*
X57025135Y-32085320D01*
X65215616Y-23894840D01*
X65276937Y-23861357D01*
X65346629Y-23866341D01*
X65402562Y-23908213D01*
X65407290Y-23914988D01*
X65409473Y-23918349D01*
X65508194Y-24070366D01*
X65520104Y-24085073D01*
X65703869Y-24312005D01*
X65739096Y-24355506D01*
X65998539Y-24614949D01*
X66283679Y-24845851D01*
X66591393Y-25045682D01*
X66918309Y-25212255D01*
X67196457Y-25319025D01*
X67220357Y-25328200D01*
X67260846Y-25343742D01*
X67615251Y-25438705D01*
X67977641Y-25496102D01*
X68344045Y-25515304D01*
X68710449Y-25496102D01*
X69072839Y-25438705D01*
X69427244Y-25343742D01*
X69769781Y-25212255D01*
X70096697Y-25045682D01*
X70404411Y-24845851D01*
X70689551Y-24614949D01*
X70948994Y-24355506D01*
X71179896Y-24070366D01*
X71379727Y-23762652D01*
X71546300Y-23435736D01*
X71677787Y-23093199D01*
X71772750Y-22738794D01*
X71830147Y-22376404D01*
X71849349Y-22010000D01*
X71830147Y-21643596D01*
X71772750Y-21281206D01*
X71677787Y-20926801D01*
X71546300Y-20584264D01*
X71379727Y-20257348D01*
X71179896Y-19949634D01*
X70948994Y-19664494D01*
X70689551Y-19405051D01*
X70637023Y-19362515D01*
X70591337Y-19325518D01*
X70404411Y-19174149D01*
X70096697Y-18974318D01*
X70093806Y-18972845D01*
X70093803Y-18972843D01*
X69772662Y-18809213D01*
X69769781Y-18807745D01*
X69766760Y-18806585D01*
X69766757Y-18806584D01*
X69430286Y-18677425D01*
X69430273Y-18677421D01*
X69427244Y-18676258D01*
X69424115Y-18675419D01*
X69424101Y-18675415D01*
X69075980Y-18582136D01*
X69075968Y-18582133D01*
X69072839Y-18581295D01*
X69069626Y-18580786D01*
X69069621Y-18580785D01*
X68713654Y-18524405D01*
X68713642Y-18524403D01*
X68710449Y-18523898D01*
X68707216Y-18523728D01*
X68707211Y-18523728D01*
X68347289Y-18504866D01*
X68344045Y-18504696D01*
X68340801Y-18504866D01*
X67980878Y-18523728D01*
X67980871Y-18523728D01*
X67977641Y-18523898D01*
X67974449Y-18524403D01*
X67974435Y-18524405D01*
X67618468Y-18580785D01*
X67618459Y-18580786D01*
X67615251Y-18581295D01*
X67612125Y-18582132D01*
X67612109Y-18582136D01*
X67263988Y-18675415D01*
X67263968Y-18675421D01*
X67260846Y-18676258D01*
X67257821Y-18677418D01*
X67257803Y-18677425D01*
X66921332Y-18806584D01*
X66921322Y-18806588D01*
X66918309Y-18807745D01*
X66915434Y-18809209D01*
X66915427Y-18809213D01*
X66594282Y-18972845D01*
X66594267Y-18972853D01*
X66591393Y-18974318D01*
X66588681Y-18976078D01*
X66588676Y-18976082D01*
X66434040Y-19076503D01*
X66367095Y-19096506D01*
X66299962Y-19077140D01*
X66278824Y-19060188D01*
X60804847Y-13586211D01*
X60791951Y-13570113D01*
X60740820Y-13522098D01*
X60738023Y-13519387D01*
X60721272Y-13502636D01*
X60718516Y-13499880D01*
X60715335Y-13497412D01*
X60706467Y-13489837D01*
X60674627Y-13459938D01*
X60657069Y-13450285D01*
X60640809Y-13439604D01*
X60624981Y-13427327D01*
X60584896Y-13409980D01*
X60574406Y-13404841D01*
X60536136Y-13383802D01*
X60516736Y-13378821D01*
X60498329Y-13372519D01*
X60479942Y-13364562D01*
X60436803Y-13357729D01*
X60425369Y-13355361D01*
X60383064Y-13344500D01*
X60363029Y-13344500D01*
X60343631Y-13342973D01*
X60336207Y-13341797D01*
X60323850Y-13339840D01*
X60323849Y-13339840D01*
X60298513Y-13342235D01*
X60280370Y-13343950D01*
X60268701Y-13344500D01*
X49612744Y-13344500D01*
X49592237Y-13342235D01*
X49522127Y-13344439D01*
X49518232Y-13344500D01*
X49490650Y-13344500D01*
X49486805Y-13344985D01*
X49486780Y-13344987D01*
X49486653Y-13345004D01*
X49475033Y-13345918D01*
X49431369Y-13347290D01*
X49412129Y-13352880D01*
X49393081Y-13356825D01*
X49373209Y-13359335D01*
X49332599Y-13375413D01*
X49321554Y-13379194D01*
X49279610Y-13391381D01*
X49262365Y-13401579D01*
X49244904Y-13410133D01*
X49226267Y-13417512D01*
X49190931Y-13443185D01*
X49181174Y-13449595D01*
X49143580Y-13471829D01*
X49129413Y-13485996D01*
X49114624Y-13498626D01*
X49098413Y-13510404D01*
X49070572Y-13544058D01*
X49062711Y-13552697D01*
X37930026Y-24685381D01*
X37868703Y-24718866D01*
X37842352Y-24721700D01*
X37826842Y-24721700D01*
X37826824Y-24721700D01*
X37823528Y-24721701D01*
X37820249Y-24722053D01*
X37820239Y-24722054D01*
X37763915Y-24728109D01*
X37629069Y-24778404D01*
X37513854Y-24864654D01*
X37427604Y-24979868D01*
X37377309Y-25114716D01*
X37372262Y-25161663D01*
X37370900Y-25174327D01*
X37370900Y-25252581D01*
X37370901Y-25300497D01*
X37351217Y-25367537D01*
X37298413Y-25413292D01*
X37246901Y-25424498D01*
X33971712Y-25424498D01*
X33904673Y-25404813D01*
X33884031Y-25388179D01*
X33226043Y-24730191D01*
X33192558Y-24668868D01*
X33197542Y-24599176D01*
X33239414Y-24543243D01*
X33304878Y-24518826D01*
X33313724Y-24518510D01*
X33573834Y-24518510D01*
X33577145Y-24518510D01*
X33636756Y-24512102D01*
X33771604Y-24461807D01*
X33886819Y-24375557D01*
X33973069Y-24260342D01*
X34023364Y-24125494D01*
X34029773Y-24065884D01*
X34029772Y-22713729D01*
X34049457Y-22646691D01*
X34102260Y-22600936D01*
X34109882Y-22598105D01*
X34112376Y-22596629D01*
X34112379Y-22596629D01*
X34129618Y-22586433D01*
X34147091Y-22577873D01*
X34165721Y-22570497D01*
X34201053Y-22544825D01*
X34210819Y-22538411D01*
X34248407Y-22516182D01*
X34248406Y-22516182D01*
X34248409Y-22516181D01*
X34262574Y-22502015D01*
X34277362Y-22489384D01*
X34293576Y-22477605D01*
X34321427Y-22443937D01*
X34329268Y-22435320D01*
X37597771Y-19166818D01*
X37659094Y-19133333D01*
X37685452Y-19130499D01*
X38994561Y-19130499D01*
X38997872Y-19130499D01*
X39057483Y-19124091D01*
X39192331Y-19073796D01*
X39307546Y-18987546D01*
X39393796Y-18872331D01*
X39444091Y-18737483D01*
X39450500Y-18677873D01*
X39450499Y-16882128D01*
X39444091Y-16822517D01*
X39393796Y-16687669D01*
X39307546Y-16572454D01*
X39192331Y-16486204D01*
X39057483Y-16435909D01*
X38997873Y-16429500D01*
X38994550Y-16429500D01*
X37205439Y-16429500D01*
X37205420Y-16429500D01*
X37202128Y-16429501D01*
X37198848Y-16429853D01*
X37198840Y-16429854D01*
X37142515Y-16435909D01*
X37007669Y-16486204D01*
X36892454Y-16572454D01*
X36806204Y-16687668D01*
X36755910Y-16822515D01*
X36755909Y-16822517D01*
X36749500Y-16882127D01*
X36749500Y-16885449D01*
X36749500Y-18194546D01*
X36729815Y-18261585D01*
X36713181Y-18282227D01*
X34241453Y-20753955D01*
X34180130Y-20787440D01*
X34110438Y-20782456D01*
X34054505Y-20740584D01*
X34030088Y-20675120D01*
X34029772Y-20666274D01*
X34029772Y-19973450D01*
X34029772Y-19970139D01*
X34023364Y-19910528D01*
X33973069Y-19775680D01*
X33886819Y-19660465D01*
X33771604Y-19574215D01*
X33636756Y-19523920D01*
X33577146Y-19517511D01*
X33573823Y-19517511D01*
X25684712Y-19517511D01*
X25684693Y-19517511D01*
X25681401Y-19517512D01*
X25678121Y-19517864D01*
X25678113Y-19517865D01*
X25621788Y-19523920D01*
X25486942Y-19574215D01*
X25371727Y-19660465D01*
X25285477Y-19775679D01*
X25235183Y-19910526D01*
X25235182Y-19910528D01*
X25228773Y-19970138D01*
X25228773Y-19973459D01*
X25228773Y-19973460D01*
X25228774Y-22618511D01*
X25209089Y-22685550D01*
X25156286Y-22731305D01*
X25104774Y-22742511D01*
X22224237Y-22742511D01*
X22157198Y-22722826D01*
X22111443Y-22670022D01*
X22101499Y-22600864D01*
X22101764Y-22599113D01*
X22101924Y-22598105D01*
X22137038Y-22376404D01*
X22156240Y-22010000D01*
X22137038Y-21643596D01*
X22079641Y-21281206D01*
X21984678Y-20926801D01*
X21853191Y-20584264D01*
X21686618Y-20257348D01*
X21486787Y-19949634D01*
X21255885Y-19664494D01*
X20996442Y-19405051D01*
X20943914Y-19362515D01*
X20898228Y-19325518D01*
X20711302Y-19174149D01*
X20403588Y-18974318D01*
X20400697Y-18972845D01*
X20400694Y-18972843D01*
X20079553Y-18809213D01*
X20076672Y-18807745D01*
X20073651Y-18806585D01*
X20073648Y-18806584D01*
X19737177Y-18677425D01*
X19737164Y-18677421D01*
X19734135Y-18676258D01*
X19731006Y-18675419D01*
X19730992Y-18675415D01*
X19382871Y-18582136D01*
X19382859Y-18582133D01*
X19379730Y-18581295D01*
X19376517Y-18580786D01*
X19376512Y-18580785D01*
X19020545Y-18524405D01*
X19020533Y-18524403D01*
X19017340Y-18523898D01*
X19014107Y-18523728D01*
X19014102Y-18523728D01*
X18654180Y-18504866D01*
X18650936Y-18504696D01*
X18647692Y-18504866D01*
X18287769Y-18523728D01*
X18287762Y-18523728D01*
X18284532Y-18523898D01*
X18281340Y-18524403D01*
X18281326Y-18524405D01*
X17925359Y-18580785D01*
X17925350Y-18580786D01*
X17922142Y-18581295D01*
X17919016Y-18582132D01*
X17919000Y-18582136D01*
X17570879Y-18675415D01*
X17570859Y-18675421D01*
X17567737Y-18676258D01*
X17564712Y-18677418D01*
X17564694Y-18677425D01*
X17228223Y-18806584D01*
X17228213Y-18806588D01*
X17225200Y-18807745D01*
X17222325Y-18809209D01*
X17222318Y-18809213D01*
X16901177Y-18972843D01*
X16901163Y-18972850D01*
X16898284Y-18974318D01*
X16895568Y-18976082D01*
X16895556Y-18976089D01*
X16593298Y-19172377D01*
X16593292Y-19172380D01*
X16590570Y-19174149D01*
X16588050Y-19176189D01*
X16588044Y-19176194D01*
X16307948Y-19403011D01*
X16307937Y-19403020D01*
X16305430Y-19405051D01*
X16303145Y-19407335D01*
X16303135Y-19407345D01*
X16048281Y-19662199D01*
X16048271Y-19662209D01*
X16045987Y-19664494D01*
X16043956Y-19667001D01*
X16043947Y-19667012D01*
X15817130Y-19947108D01*
X15817125Y-19947114D01*
X15815085Y-19949634D01*
X15813316Y-19952356D01*
X15813313Y-19952362D01*
X15617025Y-20254620D01*
X15617020Y-20254628D01*
X15615254Y-20257348D01*
X15613786Y-20260227D01*
X15613779Y-20260241D01*
X15450149Y-20581382D01*
X15448681Y-20584264D01*
X15447524Y-20587277D01*
X15447520Y-20587287D01*
X15318361Y-20923758D01*
X15318354Y-20923776D01*
X15317194Y-20926801D01*
X15316357Y-20929923D01*
X15316351Y-20929943D01*
X15223072Y-21278064D01*
X15223068Y-21278080D01*
X15222231Y-21281206D01*
X15221722Y-21284414D01*
X15221721Y-21284423D01*
X15165341Y-21640390D01*
X15165339Y-21640404D01*
X15164834Y-21643596D01*
X15164664Y-21646826D01*
X15164664Y-21646833D01*
X15153474Y-21860356D01*
X15145632Y-22010000D01*
X12606653Y-22010000D01*
X12606653Y-12824500D01*
X12626338Y-12757461D01*
X12679142Y-12711706D01*
X12730653Y-12700500D01*
X74805500Y-12700500D01*
X74872539Y-12720185D01*
G37*
%TD.AperFunction*%
M02*
