%TF.GenerationSoftware,KiCad,Pcbnew,7.0.2*%
%TF.CreationDate,2023-08-24T13:31:51-07:00*%
%TF.ProjectId,Current Sense Standalone,43757272-656e-4742-9053-656e73652053,rev?*%
%TF.SameCoordinates,Original*%
%TF.FileFunction,Copper,L2,Bot*%
%TF.FilePolarity,Positive*%
%FSLAX46Y46*%
G04 Gerber Fmt 4.6, Leading zero omitted, Abs format (unit mm)*
G04 Created by KiCad (PCBNEW 7.0.2) date 2023-08-24 13:31:51*
%MOMM*%
%LPD*%
G01*
G04 APERTURE LIST*
G04 Aperture macros list*
%AMRoundRect*
0 Rectangle with rounded corners*
0 $1 Rounding radius*
0 $2 $3 $4 $5 $6 $7 $8 $9 X,Y pos of 4 corners*
0 Add a 4 corners polygon primitive as box body*
4,1,4,$2,$3,$4,$5,$6,$7,$8,$9,$2,$3,0*
0 Add four circle primitives for the rounded corners*
1,1,$1+$1,$2,$3*
1,1,$1+$1,$4,$5*
1,1,$1+$1,$6,$7*
1,1,$1+$1,$8,$9*
0 Add four rect primitives between the rounded corners*
20,1,$1+$1,$2,$3,$4,$5,0*
20,1,$1+$1,$4,$5,$6,$7,0*
20,1,$1+$1,$6,$7,$8,$9,0*
20,1,$1+$1,$8,$9,$2,$3,0*%
G04 Aperture macros list end*
%TA.AperFunction,ComponentPad*%
%ADD10C,6.000000*%
%TD*%
%TA.AperFunction,ComponentPad*%
%ADD11RoundRect,1.500000X1.500000X-1.500000X1.500000X1.500000X-1.500000X1.500000X-1.500000X-1.500000X0*%
%TD*%
%TA.AperFunction,ComponentPad*%
%ADD12O,1.700000X1.700000*%
%TD*%
%TA.AperFunction,ComponentPad*%
%ADD13R,1.700000X1.700000*%
%TD*%
G04 APERTURE END LIST*
D10*
X68344045Y-22010000D03*
D11*
X68344045Y-29210000D03*
D12*
X50800000Y-20320000D03*
D13*
X48260000Y-20320000D03*
D12*
X40640000Y-17780000D03*
D13*
X38100000Y-17780000D03*
D10*
X18650936Y-22010000D03*
D11*
X18650936Y-29210000D03*
D12*
X59690000Y-20320000D03*
D13*
X57150000Y-20320000D03*
%TA.AperFunction,Conductor*%
G36*
X74872539Y-12720185D02*
G01*
X74918294Y-12772989D01*
X74929500Y-12824500D01*
X74929500Y-36901978D01*
X74909815Y-36969017D01*
X74857011Y-37014772D01*
X74805500Y-37025978D01*
X12730653Y-37025978D01*
X12663614Y-37006293D01*
X12617859Y-36953489D01*
X12606653Y-36901978D01*
X12606653Y-22010000D01*
X15145632Y-22010000D01*
X15164834Y-22376404D01*
X15165339Y-22379597D01*
X15165341Y-22379609D01*
X15221721Y-22735576D01*
X15222231Y-22738794D01*
X15223069Y-22741923D01*
X15223072Y-22741935D01*
X15316351Y-23090056D01*
X15316355Y-23090070D01*
X15317194Y-23093199D01*
X15318357Y-23096228D01*
X15318361Y-23096241D01*
X15447520Y-23432712D01*
X15448681Y-23435736D01*
X15615254Y-23762652D01*
X15815085Y-24070366D01*
X16045987Y-24355506D01*
X16305430Y-24614949D01*
X16590570Y-24845851D01*
X16898284Y-25045682D01*
X17225200Y-25212255D01*
X17567737Y-25343742D01*
X17922142Y-25438705D01*
X18284532Y-25496102D01*
X18650936Y-25515304D01*
X19017340Y-25496102D01*
X19379730Y-25438705D01*
X19734135Y-25343742D01*
X20076672Y-25212255D01*
X20403588Y-25045682D01*
X20711302Y-24845851D01*
X20996442Y-24614949D01*
X21255885Y-24355506D01*
X21486787Y-24070366D01*
X21686618Y-23762652D01*
X21853191Y-23435736D01*
X21984678Y-23093199D01*
X22079641Y-22738794D01*
X22137038Y-22376404D01*
X22156240Y-22010000D01*
X64838741Y-22010000D01*
X64857943Y-22376404D01*
X64858448Y-22379597D01*
X64858450Y-22379609D01*
X64914830Y-22735576D01*
X64915340Y-22738794D01*
X64916178Y-22741923D01*
X64916181Y-22741935D01*
X65009460Y-23090056D01*
X65009464Y-23090070D01*
X65010303Y-23093199D01*
X65011466Y-23096228D01*
X65011470Y-23096241D01*
X65140629Y-23432712D01*
X65141790Y-23435736D01*
X65308363Y-23762652D01*
X65508194Y-24070366D01*
X65739096Y-24355506D01*
X65998539Y-24614949D01*
X66283679Y-24845851D01*
X66591393Y-25045682D01*
X66918309Y-25212255D01*
X67260846Y-25343742D01*
X67615251Y-25438705D01*
X67977641Y-25496102D01*
X68344045Y-25515304D01*
X68710449Y-25496102D01*
X69072839Y-25438705D01*
X69427244Y-25343742D01*
X69769781Y-25212255D01*
X70096697Y-25045682D01*
X70404411Y-24845851D01*
X70689551Y-24614949D01*
X70948994Y-24355506D01*
X71179896Y-24070366D01*
X71379727Y-23762652D01*
X71546300Y-23435736D01*
X71677787Y-23093199D01*
X71772750Y-22738794D01*
X71830147Y-22376404D01*
X71849349Y-22010000D01*
X71830147Y-21643596D01*
X71772750Y-21281206D01*
X71677787Y-20926801D01*
X71546300Y-20584264D01*
X71379727Y-20257348D01*
X71179896Y-19949634D01*
X70948994Y-19664494D01*
X70689551Y-19405051D01*
X70637023Y-19362515D01*
X70591337Y-19325518D01*
X70404411Y-19174149D01*
X70096697Y-18974318D01*
X70093809Y-18972846D01*
X70093803Y-18972843D01*
X69772662Y-18809213D01*
X69769781Y-18807745D01*
X69766760Y-18806585D01*
X69766757Y-18806584D01*
X69430286Y-18677425D01*
X69430273Y-18677421D01*
X69427244Y-18676258D01*
X69424115Y-18675419D01*
X69424101Y-18675415D01*
X69075980Y-18582136D01*
X69075968Y-18582133D01*
X69072839Y-18581295D01*
X69069626Y-18580786D01*
X69069621Y-18580785D01*
X68713654Y-18524405D01*
X68713642Y-18524403D01*
X68710449Y-18523898D01*
X68707216Y-18523728D01*
X68707211Y-18523728D01*
X68347289Y-18504866D01*
X68344045Y-18504696D01*
X68340801Y-18504866D01*
X67980878Y-18523728D01*
X67980871Y-18523728D01*
X67977641Y-18523898D01*
X67974449Y-18524403D01*
X67974435Y-18524405D01*
X67618468Y-18580785D01*
X67618459Y-18580786D01*
X67615251Y-18581295D01*
X67612125Y-18582132D01*
X67612109Y-18582136D01*
X67263988Y-18675415D01*
X67263968Y-18675421D01*
X67260846Y-18676258D01*
X67257821Y-18677418D01*
X67257803Y-18677425D01*
X66921332Y-18806584D01*
X66921322Y-18806588D01*
X66918309Y-18807745D01*
X66915434Y-18809209D01*
X66915427Y-18809213D01*
X66594286Y-18972843D01*
X66594272Y-18972850D01*
X66591393Y-18974318D01*
X66588673Y-18976084D01*
X66588665Y-18976089D01*
X66286407Y-19172377D01*
X66286401Y-19172380D01*
X66283679Y-19174149D01*
X66281159Y-19176189D01*
X66281153Y-19176194D01*
X66001057Y-19403011D01*
X66001046Y-19403020D01*
X65998539Y-19405051D01*
X65996254Y-19407335D01*
X65996244Y-19407345D01*
X65741390Y-19662199D01*
X65741380Y-19662209D01*
X65739096Y-19664494D01*
X65737065Y-19667001D01*
X65737056Y-19667012D01*
X65510239Y-19947108D01*
X65510234Y-19947114D01*
X65508194Y-19949634D01*
X65506425Y-19952356D01*
X65506422Y-19952362D01*
X65310134Y-20254620D01*
X65310129Y-20254628D01*
X65308363Y-20257348D01*
X65306895Y-20260227D01*
X65306888Y-20260241D01*
X65143258Y-20581382D01*
X65141790Y-20584264D01*
X65140633Y-20587277D01*
X65140629Y-20587287D01*
X65011470Y-20923758D01*
X65011463Y-20923776D01*
X65010303Y-20926801D01*
X65009466Y-20929923D01*
X65009460Y-20929943D01*
X64916181Y-21278064D01*
X64916177Y-21278080D01*
X64915340Y-21281206D01*
X64914831Y-21284414D01*
X64914830Y-21284423D01*
X64858450Y-21640390D01*
X64858448Y-21640404D01*
X64857943Y-21643596D01*
X64857773Y-21646826D01*
X64857773Y-21646833D01*
X64856533Y-21670499D01*
X64838741Y-22010000D01*
X22156240Y-22010000D01*
X22137038Y-21643596D01*
X22079641Y-21281206D01*
X22061788Y-21214578D01*
X46909500Y-21214578D01*
X46909501Y-21217872D01*
X46909853Y-21221152D01*
X46909854Y-21221159D01*
X46915909Y-21277484D01*
X46918497Y-21284423D01*
X46966204Y-21412331D01*
X47052454Y-21527546D01*
X47167669Y-21613796D01*
X47302517Y-21664091D01*
X47362127Y-21670500D01*
X49157872Y-21670499D01*
X49217483Y-21664091D01*
X49352331Y-21613796D01*
X49467546Y-21527546D01*
X49553796Y-21412331D01*
X49604091Y-21277483D01*
X49610500Y-21217873D01*
X49610500Y-21214578D01*
X55799500Y-21214578D01*
X55799501Y-21217872D01*
X55799853Y-21221152D01*
X55799854Y-21221159D01*
X55805909Y-21277484D01*
X55808497Y-21284423D01*
X55856204Y-21412331D01*
X55942454Y-21527546D01*
X56057669Y-21613796D01*
X56192517Y-21664091D01*
X56252127Y-21670500D01*
X58047872Y-21670499D01*
X58107483Y-21664091D01*
X58242331Y-21613796D01*
X58357546Y-21527546D01*
X58443796Y-21412331D01*
X58494091Y-21277483D01*
X58500500Y-21217873D01*
X58500499Y-19422128D01*
X58494091Y-19362517D01*
X58443796Y-19227669D01*
X58357546Y-19112454D01*
X58242331Y-19026204D01*
X58107483Y-18975909D01*
X58047873Y-18969500D01*
X58044550Y-18969500D01*
X56255439Y-18969500D01*
X56255420Y-18969500D01*
X56252128Y-18969501D01*
X56248848Y-18969853D01*
X56248840Y-18969854D01*
X56192515Y-18975909D01*
X56057669Y-19026204D01*
X55942454Y-19112454D01*
X55856204Y-19227668D01*
X55805910Y-19362515D01*
X55805909Y-19362517D01*
X55799500Y-19422127D01*
X55799500Y-19425448D01*
X55799500Y-19425449D01*
X55799500Y-21214560D01*
X55799500Y-21214578D01*
X49610500Y-21214578D01*
X49610499Y-19422128D01*
X49604091Y-19362517D01*
X49553796Y-19227669D01*
X49467546Y-19112454D01*
X49352331Y-19026204D01*
X49217483Y-18975909D01*
X49157873Y-18969500D01*
X49154550Y-18969500D01*
X47365439Y-18969500D01*
X47365420Y-18969500D01*
X47362128Y-18969501D01*
X47358848Y-18969853D01*
X47358840Y-18969854D01*
X47302515Y-18975909D01*
X47167669Y-19026204D01*
X47052454Y-19112454D01*
X46966204Y-19227668D01*
X46915910Y-19362515D01*
X46915909Y-19362517D01*
X46909500Y-19422127D01*
X46909500Y-19425448D01*
X46909500Y-19425449D01*
X46909500Y-21214560D01*
X46909500Y-21214578D01*
X22061788Y-21214578D01*
X21984678Y-20926801D01*
X21853191Y-20584264D01*
X21686618Y-20257348D01*
X21486787Y-19949634D01*
X21255885Y-19664494D01*
X20996442Y-19405051D01*
X20943914Y-19362515D01*
X20898228Y-19325518D01*
X20711302Y-19174149D01*
X20403588Y-18974318D01*
X20400700Y-18972846D01*
X20400694Y-18972843D01*
X20079553Y-18809213D01*
X20076672Y-18807745D01*
X20073651Y-18806585D01*
X20073648Y-18806584D01*
X19737177Y-18677425D01*
X19737164Y-18677421D01*
X19734135Y-18676258D01*
X19731006Y-18675419D01*
X19730992Y-18675415D01*
X19727868Y-18674578D01*
X36749500Y-18674578D01*
X36749501Y-18677872D01*
X36755909Y-18737483D01*
X36806204Y-18872331D01*
X36892454Y-18987546D01*
X37007669Y-19073796D01*
X37142517Y-19124091D01*
X37202127Y-19130500D01*
X38997872Y-19130499D01*
X39057483Y-19124091D01*
X39192331Y-19073796D01*
X39307546Y-18987546D01*
X39393796Y-18872331D01*
X39444091Y-18737483D01*
X39450500Y-18677873D01*
X39450499Y-16882128D01*
X39444091Y-16822517D01*
X39393796Y-16687669D01*
X39307546Y-16572454D01*
X39192331Y-16486204D01*
X39057483Y-16435909D01*
X38997873Y-16429500D01*
X38994550Y-16429500D01*
X37205439Y-16429500D01*
X37205420Y-16429500D01*
X37202128Y-16429501D01*
X37198848Y-16429853D01*
X37198840Y-16429854D01*
X37142515Y-16435909D01*
X37007669Y-16486204D01*
X36892454Y-16572454D01*
X36806204Y-16687668D01*
X36755910Y-16822515D01*
X36755909Y-16822517D01*
X36749500Y-16882127D01*
X36749500Y-16885448D01*
X36749500Y-16885449D01*
X36749500Y-18674560D01*
X36749500Y-18674578D01*
X19727868Y-18674578D01*
X19382871Y-18582136D01*
X19382859Y-18582133D01*
X19379730Y-18581295D01*
X19376517Y-18580786D01*
X19376512Y-18580785D01*
X19020545Y-18524405D01*
X19020533Y-18524403D01*
X19017340Y-18523898D01*
X19014107Y-18523728D01*
X19014102Y-18523728D01*
X18654180Y-18504866D01*
X18650936Y-18504696D01*
X18647692Y-18504866D01*
X18287769Y-18523728D01*
X18287762Y-18523728D01*
X18284532Y-18523898D01*
X18281340Y-18524403D01*
X18281326Y-18524405D01*
X17925359Y-18580785D01*
X17925350Y-18580786D01*
X17922142Y-18581295D01*
X17919016Y-18582132D01*
X17919000Y-18582136D01*
X17570879Y-18675415D01*
X17570859Y-18675421D01*
X17567737Y-18676258D01*
X17564712Y-18677418D01*
X17564694Y-18677425D01*
X17228223Y-18806584D01*
X17228213Y-18806588D01*
X17225200Y-18807745D01*
X17222325Y-18809209D01*
X17222318Y-18809213D01*
X16901177Y-18972843D01*
X16901163Y-18972850D01*
X16898284Y-18974318D01*
X16895564Y-18976084D01*
X16895556Y-18976089D01*
X16593298Y-19172377D01*
X16593292Y-19172380D01*
X16590570Y-19174149D01*
X16588050Y-19176189D01*
X16588044Y-19176194D01*
X16307948Y-19403011D01*
X16307937Y-19403020D01*
X16305430Y-19405051D01*
X16303145Y-19407335D01*
X16303135Y-19407345D01*
X16048281Y-19662199D01*
X16048271Y-19662209D01*
X16045987Y-19664494D01*
X16043956Y-19667001D01*
X16043947Y-19667012D01*
X15817130Y-19947108D01*
X15817125Y-19947114D01*
X15815085Y-19949634D01*
X15813316Y-19952356D01*
X15813313Y-19952362D01*
X15617025Y-20254620D01*
X15617020Y-20254628D01*
X15615254Y-20257348D01*
X15613786Y-20260227D01*
X15613779Y-20260241D01*
X15450149Y-20581382D01*
X15448681Y-20584264D01*
X15447524Y-20587277D01*
X15447520Y-20587287D01*
X15318361Y-20923758D01*
X15318354Y-20923776D01*
X15317194Y-20926801D01*
X15316357Y-20929923D01*
X15316351Y-20929943D01*
X15223072Y-21278064D01*
X15223068Y-21278080D01*
X15222231Y-21281206D01*
X15221722Y-21284414D01*
X15221721Y-21284423D01*
X15165341Y-21640390D01*
X15165339Y-21640404D01*
X15164834Y-21643596D01*
X15164664Y-21646826D01*
X15164664Y-21646833D01*
X15163424Y-21670499D01*
X15145632Y-22010000D01*
X12606653Y-22010000D01*
X12606653Y-12824500D01*
X12626338Y-12757461D01*
X12679142Y-12711706D01*
X12730653Y-12700500D01*
X74805500Y-12700500D01*
X74872539Y-12720185D01*
G37*
%TD.AperFunction*%
M02*
