M48
; DRILL file {KiCad 7.0.2} date Fri Sep  1 19:51:01 2023
; FORMAT={-:-/ absolute / metric / decimal}
; #@! TF.CreationDate,2023-09-01T19:51:01-07:00
; #@! TF.GenerationSoftware,Kicad,Pcbnew,7.0.2
; #@! TF.FileFunction,Plated,1,2,PTH
FMAT,2
METRIC
; #@! TA.AperFunction,Plated,PTH,ViaDrill
T1C0.400
; #@! TA.AperFunction,Plated,PTH,ComponentDrill
T2C0.500
; #@! TA.AperFunction,Plated,PTH,ComponentDrill
T3C0.700
; #@! TA.AperFunction,Plated,PTH,ComponentDrill
T4C0.800
; #@! TA.AperFunction,Plated,PTH,ComponentDrill
T5C0.900
; #@! TA.AperFunction,Plated,PTH,ComponentDrill
T6C1.000
; #@! TA.AperFunction,Plated,PTH,ComponentDrill
T7C1.100
; #@! TA.AperFunction,Plated,PTH,ComponentDrill
T8C2.700
%
G90
G05
T1
X121.539Y-70.231
X122.123Y-75.336
X125.2Y-80.8
X125.984Y-68.326
X125.984Y-71.374
X127.889Y-75.438
X128.4Y-64.0
X129.6Y-82.8
X132.08Y-74.549
X133.4Y-88.0
X134.8Y-70.6
X135.8Y-88.4
X136.652Y-71.755
X138.0Y-87.8
X138.43Y-77.216
X139.0Y-80.0
X141.0Y-67.2
X142.0Y-88.0
X143.002Y-72.39
X148.2Y-55.4
T2
X137.4Y-75.4
T3
X145.669Y-57.552
X145.669Y-59.452
T4
X122.555Y-85.872
X122.555Y-88.372
X123.083Y-66.04
X125.583Y-66.04
X128.742Y-89.892
X133.622Y-89.892
X139.828Y-89.15
X139.828Y-91.65
T5
X146.304Y-62.865
X146.304Y-65.405
T6
X117.983Y-67.31
X117.983Y-69.85
X117.983Y-72.39
X117.983Y-74.93
X117.983Y-77.47
X117.983Y-80.01
X117.983Y-84.836
X133.4Y-84.2
X135.94Y-84.2
X138.48Y-84.2
X140.208Y-69.596
X140.589Y-58.293
X140.589Y-60.833
X140.589Y-63.373
X141.02Y-84.2
X142.489Y-74.818
X142.489Y-77.358
X142.489Y-79.898
X142.748Y-69.596
X144.4Y-89.125
X144.4Y-91.665
X145.029Y-74.818
X145.029Y-77.358
X145.029Y-79.898
X145.288Y-69.596
T7
X131.1Y-60.504
X131.1Y-67.004
X135.6Y-60.504
X135.6Y-67.004
T8
X108.117Y-62.103
X113.117Y-62.103
T0
M30
