%TF.GenerationSoftware,KiCad,Pcbnew,7.0.2*%
%TF.CreationDate,2023-09-01T19:34:45-07:00*%
%TF.ProjectId,mcu_singleside,6d63755f-7369-46e6-976c-65736964652e,rev?*%
%TF.SameCoordinates,Original*%
%TF.FileFunction,Drillmap*%
%TF.FilePolarity,Positive*%
%FSLAX45Y45*%
G04 Gerber Fmt 4.5, Leading zero omitted, Abs format (unit mm)*
G04 Created by KiCad (PCBNEW 7.0.2) date 2023-09-01 19:34:45*
%MOMM*%
%LPD*%
G01*
G04 APERTURE LIST*
%ADD10C,0.100000*%
%ADD11C,0.200000*%
G04 APERTURE END LIST*
D10*
X10147300Y-5435600D02*
X15087600Y-5435600D01*
X15087600Y-9409400D01*
X10147300Y-9409400D01*
X10147300Y-5435600D01*
D11*
X10389919Y-9726924D02*
X10389919Y-9526924D01*
X10389919Y-9526924D02*
X10437538Y-9526924D01*
X10437538Y-9526924D02*
X10466110Y-9536448D01*
X10466110Y-9536448D02*
X10485157Y-9555495D01*
X10485157Y-9555495D02*
X10494681Y-9574543D01*
X10494681Y-9574543D02*
X10504205Y-9612638D01*
X10504205Y-9612638D02*
X10504205Y-9641210D01*
X10504205Y-9641210D02*
X10494681Y-9679305D01*
X10494681Y-9679305D02*
X10485157Y-9698352D01*
X10485157Y-9698352D02*
X10466110Y-9717400D01*
X10466110Y-9717400D02*
X10437538Y-9726924D01*
X10437538Y-9726924D02*
X10389919Y-9726924D01*
X10589919Y-9726924D02*
X10589919Y-9593590D01*
X10589919Y-9631686D02*
X10599443Y-9612638D01*
X10599443Y-9612638D02*
X10608967Y-9603114D01*
X10608967Y-9603114D02*
X10628014Y-9593590D01*
X10628014Y-9593590D02*
X10647062Y-9593590D01*
X10713729Y-9726924D02*
X10713729Y-9593590D01*
X10713729Y-9526924D02*
X10704205Y-9536448D01*
X10704205Y-9536448D02*
X10713729Y-9545971D01*
X10713729Y-9545971D02*
X10723252Y-9536448D01*
X10723252Y-9536448D02*
X10713729Y-9526924D01*
X10713729Y-9526924D02*
X10713729Y-9545971D01*
X10837538Y-9726924D02*
X10818490Y-9717400D01*
X10818490Y-9717400D02*
X10808967Y-9698352D01*
X10808967Y-9698352D02*
X10808967Y-9526924D01*
X10942300Y-9726924D02*
X10923252Y-9717400D01*
X10923252Y-9717400D02*
X10913729Y-9698352D01*
X10913729Y-9698352D02*
X10913729Y-9526924D01*
X11170871Y-9726924D02*
X11170871Y-9526924D01*
X11170871Y-9526924D02*
X11237538Y-9669781D01*
X11237538Y-9669781D02*
X11304205Y-9526924D01*
X11304205Y-9526924D02*
X11304205Y-9726924D01*
X11485157Y-9726924D02*
X11485157Y-9622162D01*
X11485157Y-9622162D02*
X11475633Y-9603114D01*
X11475633Y-9603114D02*
X11456586Y-9593590D01*
X11456586Y-9593590D02*
X11418490Y-9593590D01*
X11418490Y-9593590D02*
X11399443Y-9603114D01*
X11485157Y-9717400D02*
X11466109Y-9726924D01*
X11466109Y-9726924D02*
X11418490Y-9726924D01*
X11418490Y-9726924D02*
X11399443Y-9717400D01*
X11399443Y-9717400D02*
X11389919Y-9698352D01*
X11389919Y-9698352D02*
X11389919Y-9679305D01*
X11389919Y-9679305D02*
X11399443Y-9660257D01*
X11399443Y-9660257D02*
X11418490Y-9650733D01*
X11418490Y-9650733D02*
X11466109Y-9650733D01*
X11466109Y-9650733D02*
X11485157Y-9641210D01*
X11580395Y-9593590D02*
X11580395Y-9793590D01*
X11580395Y-9603114D02*
X11599443Y-9593590D01*
X11599443Y-9593590D02*
X11637538Y-9593590D01*
X11637538Y-9593590D02*
X11656586Y-9603114D01*
X11656586Y-9603114D02*
X11666109Y-9612638D01*
X11666109Y-9612638D02*
X11675633Y-9631686D01*
X11675633Y-9631686D02*
X11675633Y-9688829D01*
X11675633Y-9688829D02*
X11666109Y-9707876D01*
X11666109Y-9707876D02*
X11656586Y-9717400D01*
X11656586Y-9717400D02*
X11637538Y-9726924D01*
X11637538Y-9726924D02*
X11599443Y-9726924D01*
X11599443Y-9726924D02*
X11580395Y-9717400D01*
X11761348Y-9707876D02*
X11770871Y-9717400D01*
X11770871Y-9717400D02*
X11761348Y-9726924D01*
X11761348Y-9726924D02*
X11751824Y-9717400D01*
X11751824Y-9717400D02*
X11761348Y-9707876D01*
X11761348Y-9707876D02*
X11761348Y-9726924D01*
X11761348Y-9603114D02*
X11770871Y-9612638D01*
X11770871Y-9612638D02*
X11761348Y-9622162D01*
X11761348Y-9622162D02*
X11751824Y-9612638D01*
X11751824Y-9612638D02*
X11761348Y-9603114D01*
X11761348Y-9603114D02*
X11761348Y-9622162D01*
M02*
