G04 #@! TF.GenerationSoftware,KiCad,Pcbnew,7.0.2*
G04 #@! TF.CreationDate,2023-09-01T19:34:41-07:00*
G04 #@! TF.ProjectId,mcu_singleside,6d63755f-7369-46e6-976c-65736964652e,rev?*
G04 #@! TF.SameCoordinates,Original*
G04 #@! TF.FileFunction,Copper,L1,Top*
G04 #@! TF.FilePolarity,Positive*
%FSLAX46Y46*%
G04 Gerber Fmt 4.6, Leading zero omitted, Abs format (unit mm)*
G04 Created by KiCad (PCBNEW 7.0.2) date 2023-09-01 19:34:41*
%MOMM*%
%LPD*%
G01*
G04 APERTURE LIST*
G04 Aperture macros list*
%AMRoundRect*
0 Rectangle with rounded corners*
0 $1 Rounding radius*
0 $2 $3 $4 $5 $6 $7 $8 $9 X,Y pos of 4 corners*
0 Add a 4 corners polygon primitive as box body*
4,1,4,$2,$3,$4,$5,$6,$7,$8,$9,$2,$3,0*
0 Add four circle primitives for the rounded corners*
1,1,$1+$1,$2,$3*
1,1,$1+$1,$4,$5*
1,1,$1+$1,$6,$7*
1,1,$1+$1,$8,$9*
0 Add four rect primitives between the rounded corners*
20,1,$1+$1,$2,$3,$4,$5,0*
20,1,$1+$1,$4,$5,$6,$7,0*
20,1,$1+$1,$6,$7,$8,$9,0*
20,1,$1+$1,$8,$9,$2,$3,0*%
G04 Aperture macros list end*
G04 #@! TA.AperFunction,ComponentPad*
%ADD10R,1.700000X1.700000*%
G04 #@! TD*
G04 #@! TA.AperFunction,ComponentPad*
%ADD11O,1.700000X1.700000*%
G04 #@! TD*
G04 #@! TA.AperFunction,SMDPad,CuDef*
%ADD12RoundRect,0.250000X-0.325000X-0.650000X0.325000X-0.650000X0.325000X0.650000X-0.325000X0.650000X0*%
G04 #@! TD*
G04 #@! TA.AperFunction,ComponentPad*
%ADD13R,1.800000X1.800000*%
G04 #@! TD*
G04 #@! TA.AperFunction,ComponentPad*
%ADD14C,1.800000*%
G04 #@! TD*
G04 #@! TA.AperFunction,ComponentPad*
%ADD15R,3.800000X3.800000*%
G04 #@! TD*
G04 #@! TA.AperFunction,ComponentPad*
%ADD16C,4.000000*%
G04 #@! TD*
G04 #@! TA.AperFunction,SMDPad,CuDef*
%ADD17R,1.600000X0.550000*%
G04 #@! TD*
G04 #@! TA.AperFunction,SMDPad,CuDef*
%ADD18R,0.550000X1.600000*%
G04 #@! TD*
G04 #@! TA.AperFunction,ComponentPad*
%ADD19C,2.000000*%
G04 #@! TD*
G04 #@! TA.AperFunction,ComponentPad*
%ADD20C,1.600000*%
G04 #@! TD*
G04 #@! TA.AperFunction,ComponentPad*
%ADD21C,1.400000*%
G04 #@! TD*
G04 #@! TA.AperFunction,ComponentPad*
%ADD22O,1.400000X1.400000*%
G04 #@! TD*
G04 #@! TA.AperFunction,ComponentPad*
%ADD23C,1.500000*%
G04 #@! TD*
G04 #@! TA.AperFunction,ComponentPad*
%ADD24R,0.850000X0.850000*%
G04 #@! TD*
G04 #@! TA.AperFunction,SMDPad,CuDef*
%ADD25R,1.500000X2.000000*%
G04 #@! TD*
G04 #@! TA.AperFunction,SMDPad,CuDef*
%ADD26R,3.800000X2.000000*%
G04 #@! TD*
G04 #@! TA.AperFunction,SMDPad,CuDef*
%ADD27RoundRect,0.250000X0.312500X0.625000X-0.312500X0.625000X-0.312500X-0.625000X0.312500X-0.625000X0*%
G04 #@! TD*
G04 #@! TA.AperFunction,SMDPad,CuDef*
%ADD28R,0.952500X0.508000*%
G04 #@! TD*
G04 #@! TA.AperFunction,ViaPad*
%ADD29C,0.800000*%
G04 #@! TD*
G04 #@! TA.AperFunction,Conductor*
%ADD30C,0.250000*%
G04 #@! TD*
G04 APERTURE END LIST*
D10*
X117983000Y-67310000D03*
D11*
X117983000Y-69850000D03*
X117983000Y-72390000D03*
X117983000Y-74930000D03*
X117983000Y-77470000D03*
X117983000Y-80010000D03*
D10*
X142489000Y-74818000D03*
D11*
X145029000Y-74818000D03*
X142489000Y-77358000D03*
X145029000Y-77358000D03*
X142489000Y-79898000D03*
X145029000Y-79898000D03*
D12*
X106778000Y-86233000D03*
X109728000Y-86233000D03*
D13*
X146304000Y-62865000D03*
D14*
X146304000Y-65405000D03*
D10*
X144400000Y-89125000D03*
D11*
X144400000Y-91665000D03*
D15*
X108117000Y-62103000D03*
D16*
X113117000Y-62103000D03*
D10*
X117983000Y-84836000D03*
D17*
X126077000Y-73007000D03*
X126077000Y-73807000D03*
X126077000Y-74607000D03*
X126077000Y-75407000D03*
X126077000Y-76207000D03*
X126077000Y-77007000D03*
X126077000Y-77807000D03*
X126077000Y-78607000D03*
D18*
X127527000Y-80057000D03*
X128327000Y-80057000D03*
X129127000Y-80057000D03*
X129927000Y-80057000D03*
X130727000Y-80057000D03*
X131527000Y-80057000D03*
X132327000Y-80057000D03*
X133127000Y-80057000D03*
D17*
X134577000Y-78607000D03*
X134577000Y-77807000D03*
X134577000Y-77007000D03*
X134577000Y-76207000D03*
X134577000Y-75407000D03*
X134577000Y-74607000D03*
X134577000Y-73807000D03*
X134577000Y-73007000D03*
D18*
X133127000Y-71557000D03*
X132327000Y-71557000D03*
X131527000Y-71557000D03*
X130727000Y-71557000D03*
X129927000Y-71557000D03*
X129127000Y-71557000D03*
X128327000Y-71557000D03*
X127527000Y-71557000D03*
D19*
X135600000Y-60504000D03*
X135600000Y-67004000D03*
X131100000Y-60504000D03*
X131100000Y-67004000D03*
D20*
X125583000Y-66040000D03*
X123083000Y-66040000D03*
D21*
X145669000Y-59452000D03*
D22*
X145669000Y-57552000D03*
D10*
X140589000Y-63373000D03*
D11*
X140589000Y-60833000D03*
X140589000Y-58293000D03*
D23*
X128742000Y-89892000D03*
X133622000Y-89892000D03*
D24*
X137400000Y-75400000D03*
D25*
X112663000Y-68224000D03*
X110363000Y-68224000D03*
D26*
X110363000Y-74524000D03*
D25*
X108063000Y-68224000D03*
D10*
X133400000Y-84200000D03*
D11*
X135940000Y-84200000D03*
X138480000Y-84200000D03*
X141020000Y-84200000D03*
D20*
X139828000Y-89150000D03*
X139828000Y-91650000D03*
D10*
X140208000Y-69596000D03*
D11*
X142748000Y-69596000D03*
X145288000Y-69596000D03*
D27*
X127319500Y-61341000D03*
X124394500Y-61341000D03*
D20*
X122555000Y-85872000D03*
X122555000Y-88372000D03*
D12*
X111809000Y-86233000D03*
X114759000Y-86233000D03*
D28*
X109340650Y-80202999D03*
X109340650Y-81153000D03*
X109340650Y-82103001D03*
X111893350Y-82103001D03*
X111893350Y-80202999D03*
D29*
X134800000Y-70600000D03*
X129600000Y-82800000D03*
X125200000Y-80800000D03*
X142000000Y-88000000D03*
X127889000Y-75438000D03*
X136652000Y-71755000D03*
X138000000Y-87800000D03*
X122555000Y-72390000D03*
X135800000Y-88400000D03*
X139000000Y-80000000D03*
X138430000Y-77216000D03*
X148200000Y-55400000D03*
X121539000Y-70231000D03*
X120777000Y-78740000D03*
X132080000Y-74549000D03*
X121920000Y-76200000D03*
X128400000Y-64000000D03*
X125984000Y-68326000D03*
X133400000Y-88000000D03*
X141000000Y-67200000D03*
X125984000Y-71374000D03*
X143002000Y-72390000D03*
D30*
X144000000Y-82000000D02*
X143854000Y-81854000D01*
X147400000Y-81600000D02*
X147000000Y-82000000D01*
X127319500Y-61341000D02*
X127319500Y-66400459D01*
X131100000Y-63100000D02*
X138200000Y-56000000D01*
X129927000Y-69918381D02*
X129927000Y-71557000D01*
X147000000Y-82000000D02*
X144000000Y-82000000D01*
X127319500Y-61341000D02*
X128156500Y-60504000D01*
X128156500Y-60504000D02*
X131100000Y-60504000D01*
X149800000Y-74000000D02*
X147400000Y-76400000D01*
X130382211Y-69463170D02*
X129006170Y-69463170D01*
X131100000Y-68745381D02*
X130382211Y-69463170D01*
X143854000Y-81854000D02*
X143854000Y-78723000D01*
X131100000Y-67004000D02*
X131100000Y-68745381D01*
X147400000Y-76400000D02*
X147400000Y-81600000D01*
X147400000Y-56000000D02*
X149800000Y-58400000D01*
X130382211Y-69463170D02*
X129927000Y-69918381D01*
X149800000Y-58400000D02*
X149800000Y-74000000D01*
X127319500Y-66400459D02*
X130382211Y-69463170D01*
X143854000Y-78723000D02*
X142489000Y-77358000D01*
X131100000Y-67004000D02*
X131100000Y-63100000D01*
X129006170Y-69463170D02*
X125583000Y-66040000D01*
X138200000Y-56000000D02*
X147400000Y-56000000D01*
X145669000Y-59452000D02*
X145669000Y-62230000D01*
X145669000Y-62230000D02*
X146304000Y-62865000D01*
X126077000Y-76207000D02*
X127120000Y-76207000D01*
X127120000Y-76207000D02*
X127889000Y-75438000D01*
X134577000Y-75407000D02*
X132938000Y-75407000D01*
X126077000Y-74607000D02*
X127058000Y-74607000D01*
X127058000Y-74607000D02*
X127889000Y-75438000D01*
X132938000Y-75407000D02*
X132080000Y-74549000D01*
X137250000Y-80057000D02*
X142489000Y-74818000D01*
X133127000Y-80057000D02*
X137250000Y-80057000D01*
X127708000Y-69088000D02*
X129127000Y-70507000D01*
X117983000Y-72390000D02*
X121285000Y-69088000D01*
X121285000Y-69088000D02*
X127708000Y-69088000D01*
X129127000Y-70507000D02*
X129127000Y-71557000D01*
X122809000Y-70104000D02*
X127799000Y-70104000D01*
X128327000Y-70632000D02*
X128327000Y-71557000D01*
X117983000Y-74930000D02*
X122809000Y-70104000D01*
X127799000Y-70104000D02*
X128327000Y-70632000D01*
X138176000Y-68326000D02*
X138176000Y-64135000D01*
X131527000Y-71557000D02*
X131527000Y-70507000D01*
X136906000Y-69596000D02*
X138176000Y-68326000D01*
X131527000Y-70507000D02*
X132438000Y-69596000D01*
X138938000Y-63373000D02*
X140589000Y-63373000D01*
X138176000Y-64135000D02*
X138938000Y-63373000D01*
X132438000Y-69596000D02*
X136906000Y-69596000D01*
X144008000Y-73797000D02*
X145029000Y-74818000D01*
X143363000Y-73152000D02*
X144008000Y-73797000D01*
X148844000Y-67945000D02*
X148844000Y-73556000D01*
X148844000Y-73556000D02*
X147582000Y-74818000D01*
X134577000Y-78607000D02*
X136013695Y-78607000D01*
X146304000Y-65405000D02*
X148844000Y-67945000D01*
X136013695Y-78607000D02*
X141468695Y-73152000D01*
X141468695Y-73152000D02*
X143363000Y-73152000D01*
X147582000Y-74818000D02*
X145029000Y-74818000D01*
X139043305Y-81400000D02*
X132745000Y-81400000D01*
X140545305Y-79898000D02*
X139043305Y-81400000D01*
X142489000Y-79898000D02*
X140545305Y-79898000D01*
X132327000Y-80982000D02*
X132327000Y-80057000D01*
X132745000Y-81400000D02*
X132327000Y-80982000D01*
X125027000Y-77807000D02*
X124460000Y-78374000D01*
X128742000Y-86868999D02*
X128742000Y-89892000D01*
X125183802Y-83310801D02*
X128742000Y-86868999D01*
X122555000Y-85872000D02*
X125116199Y-83310801D01*
X124460000Y-82587000D02*
X125183802Y-83310801D01*
X126077000Y-77807000D02*
X125027000Y-77807000D01*
X125116199Y-83310801D02*
X125183802Y-83310801D01*
X124460000Y-78374000D02*
X124460000Y-82587000D01*
X136549000Y-89150000D02*
X139828000Y-89150000D01*
X135807000Y-89892000D02*
X136549000Y-89150000D01*
X126077000Y-82477000D02*
X133492000Y-89892000D01*
X126077000Y-78607000D02*
X126077000Y-82477000D01*
X133492000Y-89892000D02*
X135807000Y-89892000D01*
X129127000Y-81107000D02*
X132220000Y-84200000D01*
X129127000Y-80057000D02*
X129127000Y-81107000D01*
X132220000Y-84200000D02*
X133400000Y-84200000D01*
X129927000Y-80057000D02*
X129927000Y-80982000D01*
X131950730Y-83005730D02*
X134745730Y-83005730D01*
X129927000Y-80982000D02*
X131950730Y-83005730D01*
X134745730Y-83005730D02*
X135940000Y-84200000D01*
X132300730Y-82555730D02*
X136835730Y-82555730D01*
X130727000Y-80982000D02*
X132300730Y-82555730D01*
X130727000Y-80057000D02*
X130727000Y-80982000D01*
X136835730Y-82555730D02*
X138480000Y-84200000D01*
X132146000Y-69088000D02*
X136525000Y-69088000D01*
X130727000Y-70507000D02*
X132146000Y-69088000D01*
X137541000Y-68072000D02*
X137541000Y-63881000D01*
X130727000Y-71557000D02*
X130727000Y-70507000D01*
X136525000Y-69088000D02*
X137541000Y-68072000D01*
X137541000Y-63881000D02*
X140589000Y-60833000D01*
X140400000Y-86800000D02*
X141200000Y-87600000D01*
X141200000Y-87600000D02*
X141200000Y-88465000D01*
X131400000Y-86800000D02*
X140400000Y-86800000D01*
X127527000Y-80057000D02*
X127527000Y-82927000D01*
X141200000Y-88465000D02*
X144400000Y-91665000D01*
X127527000Y-82927000D02*
X131400000Y-86800000D01*
X128327000Y-82927000D02*
X131600000Y-86200000D01*
X141475000Y-86200000D02*
X144400000Y-89125000D01*
X131600000Y-86200000D02*
X141475000Y-86200000D01*
X128327000Y-80057000D02*
X128327000Y-82927000D01*
X117496299Y-71215000D02*
X118469701Y-71215000D01*
X116808000Y-76295000D02*
X116808000Y-71903299D01*
X118469701Y-71215000D02*
X119925000Y-69759701D01*
X119925000Y-67898695D02*
X121783695Y-66040000D01*
X117983000Y-77470000D02*
X116808000Y-76295000D01*
X119925000Y-69759701D02*
X119925000Y-67898695D01*
X121783695Y-66040000D02*
X123083000Y-66040000D01*
X116808000Y-71903299D02*
X117496299Y-71215000D01*
X104013000Y-65532000D02*
X107442000Y-62103000D01*
X109340650Y-82103001D02*
X106487001Y-82103001D01*
X109340650Y-82103001D02*
X109340650Y-83670350D01*
X108063000Y-68224000D02*
X108063000Y-62157000D01*
X106487001Y-82103001D02*
X104013000Y-79629000D01*
X107442000Y-62103000D02*
X108117000Y-62103000D01*
X104013000Y-79629000D02*
X104013000Y-65532000D01*
X108063000Y-62157000D02*
X108117000Y-62103000D01*
X109340650Y-83670350D02*
X106778000Y-86233000D01*
X111893350Y-86148650D02*
X111809000Y-86233000D01*
X111893350Y-82103001D02*
X111893350Y-86148650D01*
X115250001Y-82103001D02*
X117983000Y-84836000D01*
X111893350Y-82103001D02*
X115250001Y-82103001D01*
X110363000Y-74524000D02*
X110363000Y-68224000D01*
X116000000Y-69293000D02*
X117983000Y-67310000D01*
X111438000Y-66899000D02*
X117572000Y-66899000D01*
X124997000Y-77007000D02*
X126077000Y-77007000D01*
X118425500Y-67310000D02*
X117983000Y-67310000D01*
X124952000Y-76962000D02*
X120114000Y-81800000D01*
X124952000Y-76962000D02*
X124952000Y-75496386D01*
X110363000Y-67974000D02*
X111438000Y-66899000D01*
X124952000Y-76962000D02*
X124997000Y-77007000D01*
X116000000Y-81400000D02*
X116000000Y-69293000D01*
X110363000Y-68224000D02*
X110363000Y-67974000D01*
X125041386Y-75407000D02*
X126077000Y-75407000D01*
X117572000Y-66899000D02*
X117983000Y-67310000D01*
X120114000Y-81800000D02*
X116400000Y-81800000D01*
X116400000Y-81800000D02*
X116000000Y-81400000D01*
X124952000Y-75496386D02*
X125041386Y-75407000D01*
X124394500Y-61341000D02*
X118425500Y-67310000D01*
X131527000Y-81107000D02*
X132525730Y-82105730D01*
X131527000Y-80057000D02*
X131527000Y-81107000D01*
X132525730Y-82105730D02*
X138925730Y-82105730D01*
X138925730Y-82105730D02*
X141020000Y-84200000D01*
X135824695Y-71557000D02*
X137785695Y-69596000D01*
X133127000Y-71557000D02*
X135824695Y-71557000D01*
X137785695Y-69596000D02*
X140208000Y-69596000D01*
X134722000Y-73152000D02*
X139192000Y-73152000D01*
X139192000Y-73152000D02*
X142748000Y-69596000D01*
X134577000Y-73007000D02*
X134722000Y-73152000D01*
X144113000Y-70771000D02*
X142209396Y-70771000D01*
X139173396Y-73807000D02*
X134577000Y-73807000D01*
X145288000Y-69596000D02*
X144113000Y-70771000D01*
X142209396Y-70771000D02*
X139173396Y-73807000D01*
G04 #@! TA.AperFunction,Conductor*
G36*
X150543312Y-54419876D02*
G01*
X150589246Y-54472524D01*
X150600625Y-54523792D01*
X150618707Y-58104116D01*
X150599362Y-58171254D01*
X150546789Y-58217275D01*
X150477682Y-58227567D01*
X150413981Y-58198864D01*
X150389586Y-58161323D01*
X150386592Y-58163095D01*
X150378619Y-58149613D01*
X150378618Y-58149610D01*
X150368414Y-58132355D01*
X150359861Y-58114895D01*
X150352486Y-58096269D01*
X150352486Y-58096268D01*
X150326808Y-58060925D01*
X150320401Y-58051171D01*
X150298169Y-58013579D01*
X150284006Y-57999416D01*
X150271367Y-57984617D01*
X150259595Y-57968413D01*
X150225941Y-57940573D01*
X150217299Y-57932709D01*
X147900802Y-55616211D01*
X147887906Y-55600113D01*
X147836775Y-55552098D01*
X147833978Y-55549387D01*
X147817227Y-55532636D01*
X147814471Y-55529880D01*
X147811290Y-55527412D01*
X147802422Y-55519837D01*
X147770582Y-55489938D01*
X147753024Y-55480285D01*
X147736764Y-55469604D01*
X147720936Y-55457327D01*
X147680851Y-55439980D01*
X147670361Y-55434841D01*
X147632091Y-55413802D01*
X147612691Y-55408821D01*
X147594284Y-55402519D01*
X147575897Y-55394562D01*
X147532758Y-55387729D01*
X147521324Y-55385361D01*
X147479019Y-55374500D01*
X147458984Y-55374500D01*
X147439586Y-55372973D01*
X147432162Y-55371797D01*
X147419805Y-55369840D01*
X147419804Y-55369840D01*
X147393484Y-55372328D01*
X147376325Y-55373950D01*
X147364656Y-55374500D01*
X138282740Y-55374500D01*
X138262236Y-55372236D01*
X138192144Y-55374439D01*
X138188250Y-55374500D01*
X138160650Y-55374500D01*
X138156799Y-55374986D01*
X138156768Y-55374988D01*
X138156640Y-55375005D01*
X138145028Y-55375918D01*
X138101372Y-55377290D01*
X138082135Y-55382879D01*
X138063094Y-55386822D01*
X138043208Y-55389335D01*
X138002582Y-55405419D01*
X137991537Y-55409200D01*
X137949613Y-55421381D01*
X137932365Y-55431581D01*
X137914903Y-55440135D01*
X137902915Y-55444881D01*
X137896265Y-55447515D01*
X137860926Y-55473189D01*
X137851168Y-55479599D01*
X137813579Y-55501829D01*
X137799410Y-55515998D01*
X137784622Y-55528628D01*
X137768413Y-55540405D01*
X137740572Y-55574058D01*
X137732711Y-55582696D01*
X132810554Y-60504853D01*
X132749231Y-60538338D01*
X132679539Y-60533354D01*
X132623606Y-60491482D01*
X132599297Y-60427412D01*
X132593165Y-60353413D01*
X132585108Y-60256179D01*
X132524063Y-60015119D01*
X132434016Y-59809833D01*
X132424174Y-59787395D01*
X132405756Y-59759204D01*
X132288164Y-59579215D01*
X132119744Y-59396262D01*
X132097612Y-59379036D01*
X131923514Y-59243529D01*
X131923510Y-59243526D01*
X131923509Y-59243526D01*
X131704810Y-59125172D01*
X131704806Y-59125170D01*
X131704805Y-59125170D01*
X131469615Y-59044429D01*
X131224335Y-59003500D01*
X130975665Y-59003500D01*
X130730384Y-59044429D01*
X130495194Y-59125170D01*
X130276485Y-59243529D01*
X130080259Y-59396259D01*
X130080256Y-59396261D01*
X130080256Y-59396262D01*
X130005618Y-59477341D01*
X129911837Y-59579214D01*
X129775825Y-59787395D01*
X129768406Y-59804310D01*
X129723450Y-59857796D01*
X129656714Y-59878486D01*
X129654850Y-59878500D01*
X128239244Y-59878500D01*
X128218736Y-59876235D01*
X128148613Y-59878439D01*
X128144719Y-59878500D01*
X128117150Y-59878500D01*
X128113294Y-59878986D01*
X128113291Y-59878987D01*
X128113235Y-59878994D01*
X128113162Y-59879003D01*
X128101543Y-59879917D01*
X128057872Y-59881289D01*
X128038628Y-59886880D01*
X128019584Y-59890824D01*
X127999708Y-59893335D01*
X127959100Y-59909413D01*
X127948054Y-59913194D01*
X127906110Y-59925382D01*
X127906107Y-59925383D01*
X127888865Y-59935579D01*
X127871404Y-59944133D01*
X127838210Y-59957278D01*
X127837959Y-59956645D01*
X127787365Y-59974693D01*
X127767693Y-59974253D01*
X127685141Y-59965819D01*
X127685122Y-59965818D01*
X127682009Y-59965500D01*
X127678860Y-59965500D01*
X126960141Y-59965500D01*
X126960121Y-59965500D01*
X126956992Y-59965501D01*
X126953860Y-59965820D01*
X126953858Y-59965821D01*
X126854203Y-59976000D01*
X126687665Y-60031186D01*
X126538342Y-60123288D01*
X126414288Y-60247342D01*
X126322186Y-60396665D01*
X126267000Y-60563202D01*
X126256819Y-60662858D01*
X126256817Y-60662878D01*
X126256500Y-60665991D01*
X126256500Y-60669138D01*
X126256500Y-60669139D01*
X126256500Y-62012859D01*
X126256500Y-62012878D01*
X126256501Y-62016008D01*
X126256820Y-62019140D01*
X126256821Y-62019141D01*
X126267000Y-62118796D01*
X126322186Y-62285334D01*
X126414288Y-62434657D01*
X126538342Y-62558711D01*
X126635095Y-62618388D01*
X126681820Y-62670335D01*
X126693999Y-62723927D01*
X126693999Y-65012451D01*
X126674314Y-65079490D01*
X126621510Y-65125245D01*
X126552352Y-65135189D01*
X126488796Y-65106164D01*
X126482331Y-65100145D01*
X126422139Y-65039953D01*
X126422138Y-65039952D01*
X126422136Y-65039950D01*
X126235735Y-64909432D01*
X126029497Y-64813261D01*
X125809689Y-64754364D01*
X125582999Y-64734531D01*
X125356310Y-64754364D01*
X125136502Y-64813261D01*
X124930264Y-64909432D01*
X124743859Y-65039953D01*
X124582953Y-65200859D01*
X124452432Y-65387264D01*
X124445382Y-65402385D01*
X124399209Y-65454824D01*
X124332016Y-65473976D01*
X124265135Y-65453760D01*
X124220618Y-65402385D01*
X124219152Y-65399242D01*
X124213568Y-65387266D01*
X124203892Y-65373446D01*
X124083046Y-65200859D01*
X123922140Y-65039953D01*
X123735735Y-64909432D01*
X123529497Y-64813261D01*
X123309689Y-64754364D01*
X123082999Y-64734531D01*
X122856310Y-64754364D01*
X122636502Y-64813261D01*
X122430264Y-64909432D01*
X122243859Y-65039953D01*
X122082953Y-65200859D01*
X121970387Y-65361623D01*
X121915811Y-65405248D01*
X121868812Y-65414500D01*
X121866439Y-65414500D01*
X121845931Y-65412235D01*
X121775808Y-65414439D01*
X121771914Y-65414500D01*
X121744345Y-65414500D01*
X121740489Y-65414986D01*
X121740486Y-65414987D01*
X121740430Y-65414994D01*
X121740357Y-65415003D01*
X121728738Y-65415917D01*
X121685067Y-65417289D01*
X121665823Y-65422880D01*
X121646779Y-65426824D01*
X121626903Y-65429335D01*
X121586295Y-65445413D01*
X121575249Y-65449194D01*
X121533305Y-65461382D01*
X121533302Y-65461383D01*
X121516060Y-65471579D01*
X121498599Y-65480133D01*
X121465405Y-65493278D01*
X121464655Y-65491384D01*
X121418453Y-65507865D01*
X121350400Y-65492035D01*
X121301709Y-65441925D01*
X121287839Y-65373446D01*
X121313193Y-65308339D01*
X121323694Y-65296394D01*
X123873827Y-62746261D01*
X123935148Y-62712778D01*
X123974105Y-62710586D01*
X124031991Y-62716500D01*
X124757008Y-62716499D01*
X124859797Y-62705999D01*
X125026334Y-62650814D01*
X125175656Y-62558712D01*
X125299712Y-62434656D01*
X125391814Y-62285334D01*
X125446999Y-62118797D01*
X125457500Y-62016009D01*
X125457499Y-60665992D01*
X125446999Y-60563203D01*
X125391814Y-60396666D01*
X125305164Y-60256183D01*
X125299711Y-60247342D01*
X125175657Y-60123288D01*
X125026334Y-60031186D01*
X124859797Y-59976000D01*
X124760141Y-59965819D01*
X124760122Y-59965818D01*
X124757009Y-59965500D01*
X124753860Y-59965500D01*
X124035141Y-59965500D01*
X124035121Y-59965500D01*
X124031992Y-59965501D01*
X124028860Y-59965820D01*
X124028858Y-59965821D01*
X123929203Y-59976000D01*
X123762665Y-60031186D01*
X123613342Y-60123288D01*
X123489288Y-60247342D01*
X123397186Y-60396665D01*
X123342000Y-60563202D01*
X123331819Y-60662858D01*
X123331817Y-60662878D01*
X123331500Y-60665991D01*
X123331500Y-60669139D01*
X123331500Y-61468046D01*
X123311815Y-61535085D01*
X123295181Y-61555727D01*
X118927726Y-65923181D01*
X118866403Y-65956666D01*
X118840045Y-65959500D01*
X117088439Y-65959500D01*
X117088420Y-65959500D01*
X117085128Y-65959501D01*
X117081848Y-65959853D01*
X117081840Y-65959854D01*
X117025515Y-65965909D01*
X116890669Y-66016204D01*
X116775454Y-66102453D01*
X116746323Y-66141368D01*
X116689204Y-66217669D01*
X116689203Y-66217671D01*
X116684607Y-66223811D01*
X116628673Y-66265682D01*
X116585340Y-66273500D01*
X111520744Y-66273500D01*
X111500236Y-66271235D01*
X111430113Y-66273439D01*
X111426219Y-66273500D01*
X111398650Y-66273500D01*
X111394794Y-66273986D01*
X111394791Y-66273987D01*
X111394735Y-66273994D01*
X111394662Y-66274003D01*
X111383043Y-66274917D01*
X111339372Y-66276289D01*
X111320128Y-66281880D01*
X111301084Y-66285824D01*
X111281208Y-66288335D01*
X111240600Y-66304413D01*
X111229554Y-66308194D01*
X111187610Y-66320382D01*
X111187607Y-66320383D01*
X111170365Y-66330579D01*
X111152904Y-66339133D01*
X111134267Y-66346512D01*
X111098931Y-66372185D01*
X111089174Y-66378595D01*
X111051580Y-66400829D01*
X111037413Y-66414996D01*
X111022624Y-66427626D01*
X111006413Y-66439404D01*
X110978572Y-66473058D01*
X110970711Y-66481697D01*
X110765227Y-66687181D01*
X110703904Y-66720666D01*
X110677546Y-66723500D01*
X109568439Y-66723500D01*
X109568420Y-66723500D01*
X109565128Y-66723501D01*
X109561848Y-66723853D01*
X109561840Y-66723854D01*
X109505515Y-66729909D01*
X109370667Y-66780204D01*
X109287309Y-66842606D01*
X109221845Y-66867023D01*
X109153572Y-66852171D01*
X109138696Y-66842611D01*
X109055331Y-66780204D01*
X108920483Y-66729909D01*
X108860873Y-66723500D01*
X108857551Y-66723500D01*
X108812500Y-66723500D01*
X108745461Y-66703815D01*
X108699706Y-66651011D01*
X108688500Y-66599500D01*
X108688500Y-64627499D01*
X108708185Y-64560460D01*
X108760989Y-64514705D01*
X108812500Y-64503499D01*
X110061561Y-64503499D01*
X110064872Y-64503499D01*
X110124483Y-64497091D01*
X110259331Y-64446796D01*
X110374546Y-64360546D01*
X110460796Y-64245331D01*
X110511091Y-64110483D01*
X110517500Y-64050873D01*
X110517499Y-60155128D01*
X110511091Y-60095517D01*
X110460796Y-59960669D01*
X110374546Y-59845454D01*
X110259331Y-59759204D01*
X110124483Y-59708909D01*
X110064873Y-59702500D01*
X110061550Y-59702500D01*
X106172439Y-59702500D01*
X106172420Y-59702500D01*
X106169128Y-59702501D01*
X106165848Y-59702853D01*
X106165840Y-59702854D01*
X106109515Y-59708909D01*
X105974669Y-59759204D01*
X105859454Y-59845454D01*
X105773204Y-59960668D01*
X105722910Y-60095515D01*
X105722909Y-60095517D01*
X105716500Y-60155127D01*
X105716499Y-60158449D01*
X105716500Y-60158449D01*
X105716500Y-62892546D01*
X105696815Y-62959585D01*
X105680181Y-62980227D01*
X103629208Y-65031199D01*
X103613110Y-65044096D01*
X103565096Y-65095225D01*
X103562392Y-65098016D01*
X103545628Y-65114780D01*
X103545621Y-65114787D01*
X103542880Y-65117529D01*
X103540499Y-65120597D01*
X103540490Y-65120608D01*
X103540411Y-65120711D01*
X103532842Y-65129572D01*
X103502935Y-65161420D01*
X103493285Y-65178974D01*
X103482609Y-65195228D01*
X103470326Y-65211063D01*
X103452975Y-65251158D01*
X103447838Y-65261644D01*
X103426802Y-65299907D01*
X103421821Y-65319309D01*
X103415520Y-65337711D01*
X103407561Y-65356102D01*
X103400728Y-65399242D01*
X103398360Y-65410674D01*
X103387500Y-65452977D01*
X103387500Y-65473016D01*
X103385972Y-65492414D01*
X103382840Y-65512196D01*
X103385641Y-65541830D01*
X103386950Y-65555673D01*
X103387500Y-65567343D01*
X103387500Y-79546256D01*
X103385235Y-79566766D01*
X103387439Y-79636872D01*
X103387500Y-79640767D01*
X103387500Y-79668350D01*
X103387988Y-79672219D01*
X103387989Y-79672225D01*
X103388004Y-79672343D01*
X103388918Y-79683967D01*
X103390290Y-79727626D01*
X103395879Y-79746860D01*
X103399825Y-79765916D01*
X103402335Y-79785792D01*
X103418414Y-79826404D01*
X103422197Y-79837451D01*
X103434382Y-79879391D01*
X103444580Y-79896635D01*
X103453136Y-79914100D01*
X103460514Y-79932732D01*
X103460515Y-79932733D01*
X103486180Y-79968059D01*
X103492593Y-79977822D01*
X103514826Y-80015416D01*
X103514829Y-80015419D01*
X103514830Y-80015420D01*
X103528995Y-80029585D01*
X103541627Y-80044375D01*
X103553406Y-80060587D01*
X103587058Y-80088426D01*
X103595699Y-80096289D01*
X105986198Y-82486788D01*
X105999099Y-82502890D01*
X106001213Y-82504875D01*
X106001215Y-82504878D01*
X106025484Y-82527668D01*
X106050241Y-82550917D01*
X106053037Y-82553627D01*
X106072531Y-82573121D01*
X106075616Y-82575514D01*
X106075702Y-82575581D01*
X106084574Y-82583159D01*
X106116419Y-82613063D01*
X106133975Y-82622715D01*
X106150232Y-82633393D01*
X106166065Y-82645675D01*
X106182186Y-82652650D01*
X106206157Y-82663024D01*
X106216644Y-82668161D01*
X106254909Y-82689198D01*
X106274317Y-82694181D01*
X106292711Y-82700479D01*
X106311106Y-82708439D01*
X106354255Y-82715272D01*
X106365681Y-82717639D01*
X106381223Y-82721630D01*
X106407981Y-82728501D01*
X106407982Y-82728501D01*
X106428017Y-82728501D01*
X106447414Y-82730027D01*
X106467197Y-82733161D01*
X106510675Y-82729051D01*
X106522345Y-82728501D01*
X108484222Y-82728501D01*
X108551261Y-82748186D01*
X108558533Y-82753234D01*
X108622069Y-82800797D01*
X108634481Y-82805426D01*
X108690415Y-82847296D01*
X108714834Y-82912760D01*
X108715150Y-82921609D01*
X108715150Y-83359896D01*
X108695465Y-83426935D01*
X108678831Y-83447577D01*
X107322513Y-84803894D01*
X107261190Y-84837379D01*
X107222231Y-84839571D01*
X107156143Y-84832820D01*
X107156139Y-84832819D01*
X107153009Y-84832500D01*
X107149860Y-84832500D01*
X106406141Y-84832500D01*
X106406121Y-84832500D01*
X106402992Y-84832501D01*
X106399860Y-84832820D01*
X106399858Y-84832821D01*
X106300203Y-84843000D01*
X106133665Y-84898186D01*
X105984342Y-84990288D01*
X105860288Y-85114342D01*
X105768186Y-85263665D01*
X105713000Y-85430202D01*
X105702819Y-85529858D01*
X105702817Y-85529878D01*
X105702500Y-85532991D01*
X105702500Y-85536138D01*
X105702500Y-85536139D01*
X105702500Y-86929859D01*
X105702500Y-86929878D01*
X105702501Y-86933008D01*
X105702820Y-86936140D01*
X105702821Y-86936141D01*
X105713000Y-87035796D01*
X105768186Y-87202334D01*
X105860288Y-87351657D01*
X105984342Y-87475711D01*
X105984344Y-87475712D01*
X106133666Y-87567814D01*
X106245017Y-87604712D01*
X106300202Y-87622999D01*
X106399858Y-87633180D01*
X106399859Y-87633180D01*
X106402991Y-87633500D01*
X107153008Y-87633499D01*
X107255797Y-87622999D01*
X107422334Y-87567814D01*
X107571656Y-87475712D01*
X107695712Y-87351656D01*
X107787814Y-87202334D01*
X107842999Y-87035797D01*
X107853500Y-86933009D01*
X107853499Y-86093450D01*
X107873183Y-86026412D01*
X107889813Y-86005775D01*
X109724439Y-84171150D01*
X109740535Y-84158256D01*
X109742523Y-84156137D01*
X109742527Y-84156136D01*
X109788599Y-84107073D01*
X109791184Y-84104405D01*
X109810770Y-84084821D01*
X109813235Y-84081642D01*
X109820817Y-84072766D01*
X109850712Y-84040932D01*
X109860367Y-84023368D01*
X109871044Y-84007114D01*
X109883323Y-83991286D01*
X109900668Y-83951202D01*
X109905810Y-83940706D01*
X109926847Y-83902442D01*
X109931829Y-83883034D01*
X109938131Y-83864630D01*
X109946087Y-83846246D01*
X109952919Y-83803102D01*
X109955283Y-83791688D01*
X109966150Y-83749369D01*
X109966150Y-83729333D01*
X109967677Y-83709934D01*
X109970810Y-83690153D01*
X109966700Y-83646685D01*
X109966149Y-83635012D01*
X109966149Y-83250641D01*
X109966149Y-82921605D01*
X109985834Y-82854570D01*
X110038638Y-82808815D01*
X110046820Y-82805426D01*
X110049942Y-82804261D01*
X110059231Y-82800797D01*
X110174446Y-82714547D01*
X110260696Y-82599332D01*
X110310991Y-82464484D01*
X110317400Y-82404874D01*
X110317399Y-81801129D01*
X110310991Y-81741518D01*
X110260696Y-81606670D01*
X110174446Y-81491455D01*
X110059231Y-81405205D01*
X109924383Y-81354910D01*
X109864773Y-81348501D01*
X109861450Y-81348501D01*
X108819839Y-81348501D01*
X108819820Y-81348501D01*
X108816528Y-81348502D01*
X108813248Y-81348854D01*
X108813240Y-81348855D01*
X108756915Y-81354910D01*
X108622067Y-81405205D01*
X108558532Y-81452768D01*
X108493068Y-81477185D01*
X108484222Y-81477501D01*
X106797453Y-81477501D01*
X106730414Y-81457816D01*
X106709772Y-81441182D01*
X105770167Y-80501577D01*
X108363900Y-80501577D01*
X108363901Y-80504871D01*
X108364253Y-80508151D01*
X108364254Y-80508158D01*
X108370309Y-80564483D01*
X108374745Y-80576376D01*
X108420604Y-80699330D01*
X108506854Y-80814545D01*
X108622069Y-80900795D01*
X108756917Y-80951090D01*
X108816527Y-80957499D01*
X109864772Y-80957498D01*
X109924383Y-80951090D01*
X110059231Y-80900795D01*
X110174446Y-80814545D01*
X110260696Y-80699330D01*
X110310991Y-80564482D01*
X110317400Y-80504872D01*
X110317400Y-80501577D01*
X110916600Y-80501577D01*
X110916601Y-80504871D01*
X110916953Y-80508151D01*
X110916954Y-80508158D01*
X110923009Y-80564483D01*
X110927445Y-80576376D01*
X110973304Y-80699330D01*
X111059554Y-80814545D01*
X111174769Y-80900795D01*
X111309617Y-80951090D01*
X111369227Y-80957499D01*
X112417472Y-80957498D01*
X112477083Y-80951090D01*
X112611931Y-80900795D01*
X112727146Y-80814545D01*
X112813396Y-80699330D01*
X112863691Y-80564482D01*
X112870100Y-80504872D01*
X112870099Y-79901127D01*
X112863691Y-79841516D01*
X112813396Y-79706668D01*
X112727146Y-79591453D01*
X112611931Y-79505203D01*
X112477083Y-79454908D01*
X112417473Y-79448499D01*
X112414150Y-79448499D01*
X111372539Y-79448499D01*
X111372520Y-79448499D01*
X111369228Y-79448500D01*
X111365948Y-79448852D01*
X111365940Y-79448853D01*
X111309615Y-79454908D01*
X111174769Y-79505203D01*
X111059554Y-79591453D01*
X110973304Y-79706667D01*
X110923010Y-79841514D01*
X110923009Y-79841516D01*
X110916600Y-79901126D01*
X110916600Y-79904447D01*
X110916600Y-79904448D01*
X110916600Y-80501559D01*
X110916600Y-80501577D01*
X110317400Y-80501577D01*
X110317399Y-79901127D01*
X110310991Y-79841516D01*
X110260696Y-79706668D01*
X110174446Y-79591453D01*
X110059231Y-79505203D01*
X109924383Y-79454908D01*
X109864773Y-79448499D01*
X109861450Y-79448499D01*
X108819839Y-79448499D01*
X108819820Y-79448499D01*
X108816528Y-79448500D01*
X108813248Y-79448852D01*
X108813240Y-79448853D01*
X108756915Y-79454908D01*
X108622069Y-79505203D01*
X108506854Y-79591453D01*
X108420604Y-79706667D01*
X108370310Y-79841514D01*
X108370309Y-79841516D01*
X108363900Y-79901126D01*
X108363900Y-79904447D01*
X108363900Y-79904448D01*
X108363900Y-80501559D01*
X108363900Y-80501577D01*
X105770167Y-80501577D01*
X104674819Y-79406228D01*
X104641334Y-79344905D01*
X104638500Y-79318547D01*
X104638500Y-65842451D01*
X104658185Y-65775412D01*
X104674814Y-65754775D01*
X105924239Y-64505350D01*
X105985560Y-64471867D01*
X106055250Y-64476850D01*
X106109517Y-64497091D01*
X106169127Y-64503500D01*
X107313500Y-64503499D01*
X107380539Y-64523184D01*
X107426294Y-64575987D01*
X107437500Y-64627499D01*
X107437500Y-66599500D01*
X107417815Y-66666539D01*
X107365011Y-66712294D01*
X107313503Y-66723500D01*
X107268439Y-66723500D01*
X107268420Y-66723500D01*
X107265128Y-66723501D01*
X107261848Y-66723853D01*
X107261840Y-66723854D01*
X107205515Y-66729909D01*
X107070669Y-66780204D01*
X106955454Y-66866454D01*
X106869204Y-66981668D01*
X106847431Y-67040046D01*
X106818909Y-67116517D01*
X106812500Y-67176127D01*
X106812500Y-67179448D01*
X106812500Y-67179449D01*
X106812500Y-69268560D01*
X106812500Y-69268578D01*
X106812501Y-69271872D01*
X106818909Y-69331483D01*
X106869204Y-69466331D01*
X106955454Y-69581546D01*
X107070669Y-69667796D01*
X107205517Y-69718091D01*
X107265127Y-69724500D01*
X108860872Y-69724499D01*
X108920483Y-69718091D01*
X109055331Y-69667796D01*
X109138689Y-69605393D01*
X109204153Y-69580976D01*
X109272426Y-69595827D01*
X109287309Y-69605393D01*
X109370669Y-69667796D01*
X109505517Y-69718091D01*
X109565127Y-69724500D01*
X109613499Y-69724499D01*
X109680537Y-69744182D01*
X109726293Y-69796985D01*
X109737500Y-69848499D01*
X109737500Y-72899500D01*
X109717815Y-72966539D01*
X109665011Y-73012294D01*
X109613500Y-73023500D01*
X108418439Y-73023500D01*
X108418420Y-73023500D01*
X108415128Y-73023501D01*
X108411848Y-73023853D01*
X108411840Y-73023854D01*
X108355515Y-73029909D01*
X108220669Y-73080204D01*
X108105454Y-73166454D01*
X108019204Y-73281668D01*
X107968910Y-73416515D01*
X107968909Y-73416517D01*
X107962500Y-73476127D01*
X107962500Y-73479448D01*
X107962500Y-73479449D01*
X107962500Y-75568560D01*
X107962500Y-75568578D01*
X107962501Y-75571872D01*
X107962853Y-75575152D01*
X107962854Y-75575159D01*
X107968909Y-75631484D01*
X107977748Y-75655182D01*
X108019204Y-75766331D01*
X108105454Y-75881546D01*
X108220669Y-75967796D01*
X108355517Y-76018091D01*
X108415127Y-76024500D01*
X112310872Y-76024499D01*
X112370483Y-76018091D01*
X112505331Y-75967796D01*
X112620546Y-75881546D01*
X112706796Y-75766331D01*
X112757091Y-75631483D01*
X112763500Y-75571873D01*
X112763499Y-73476128D01*
X112757091Y-73416517D01*
X112706796Y-73281669D01*
X112620546Y-73166454D01*
X112505331Y-73080204D01*
X112370483Y-73029909D01*
X112310873Y-73023500D01*
X112307551Y-73023500D01*
X111112500Y-73023500D01*
X111045461Y-73003815D01*
X110999706Y-72951011D01*
X110988500Y-72899500D01*
X110988500Y-69848499D01*
X111008185Y-69781460D01*
X111060989Y-69735705D01*
X111112500Y-69724499D01*
X111157561Y-69724499D01*
X111160872Y-69724499D01*
X111220483Y-69718091D01*
X111355331Y-69667796D01*
X111470546Y-69581546D01*
X111556796Y-69466331D01*
X111607091Y-69331483D01*
X111613500Y-69271873D01*
X111613499Y-67659452D01*
X111633184Y-67592414D01*
X111649822Y-67571768D01*
X111660776Y-67560815D01*
X111722100Y-67527333D01*
X111748453Y-67524500D01*
X116508501Y-67524500D01*
X116575540Y-67544185D01*
X116621295Y-67596989D01*
X116632500Y-67648499D01*
X116632500Y-67687257D01*
X116632500Y-67724547D01*
X116612815Y-67791586D01*
X116596181Y-67812226D01*
X115616208Y-68792199D01*
X115600110Y-68805096D01*
X115552096Y-68856225D01*
X115549392Y-68859016D01*
X115532628Y-68875780D01*
X115532621Y-68875787D01*
X115529880Y-68878529D01*
X115527499Y-68881597D01*
X115527490Y-68881608D01*
X115527411Y-68881711D01*
X115519842Y-68890572D01*
X115489935Y-68922420D01*
X115480285Y-68939974D01*
X115469609Y-68956228D01*
X115457326Y-68972063D01*
X115439975Y-69012158D01*
X115434838Y-69022644D01*
X115413802Y-69060907D01*
X115408821Y-69080309D01*
X115402520Y-69098711D01*
X115394561Y-69117102D01*
X115387728Y-69160242D01*
X115385360Y-69171674D01*
X115374499Y-69213977D01*
X115374500Y-69234016D01*
X115372973Y-69253414D01*
X115369839Y-69273196D01*
X115373949Y-69316676D01*
X115374499Y-69328343D01*
X115374499Y-81317260D01*
X115372235Y-81337771D01*
X115372507Y-81346400D01*
X115354938Y-81414025D01*
X115303597Y-81461416D01*
X115260239Y-81473745D01*
X115239051Y-81475748D01*
X115226324Y-81476951D01*
X115214657Y-81477501D01*
X112749778Y-81477501D01*
X112682739Y-81457816D01*
X112675468Y-81452768D01*
X112611933Y-81405206D01*
X112611931Y-81405205D01*
X112477083Y-81354910D01*
X112417473Y-81348501D01*
X112414150Y-81348501D01*
X111372539Y-81348501D01*
X111372520Y-81348501D01*
X111369228Y-81348502D01*
X111365948Y-81348854D01*
X111365940Y-81348855D01*
X111309615Y-81354910D01*
X111174769Y-81405205D01*
X111059554Y-81491455D01*
X110973304Y-81606669D01*
X110923009Y-81741517D01*
X110917607Y-81791766D01*
X110916600Y-81801128D01*
X110916600Y-81804449D01*
X110916600Y-81804450D01*
X110916600Y-82401561D01*
X110916600Y-82401579D01*
X110916601Y-82404873D01*
X110916953Y-82408153D01*
X110916954Y-82408160D01*
X110923009Y-82464485D01*
X110934938Y-82496467D01*
X110973304Y-82599332D01*
X111059554Y-82714547D01*
X111174769Y-82800797D01*
X111187181Y-82805426D01*
X111243115Y-82847296D01*
X111267534Y-82912760D01*
X111267850Y-82921609D01*
X111267850Y-84774453D01*
X111248165Y-84841492D01*
X111195361Y-84887247D01*
X111182855Y-84892158D01*
X111164668Y-84898184D01*
X111015342Y-84990288D01*
X110891288Y-85114342D01*
X110799186Y-85263665D01*
X110744000Y-85430202D01*
X110733819Y-85529858D01*
X110733817Y-85529878D01*
X110733500Y-85532991D01*
X110733500Y-85536138D01*
X110733500Y-85536139D01*
X110733500Y-86929859D01*
X110733500Y-86929878D01*
X110733501Y-86933008D01*
X110733820Y-86936140D01*
X110733821Y-86936141D01*
X110744000Y-87035796D01*
X110799186Y-87202334D01*
X110891288Y-87351657D01*
X111015342Y-87475711D01*
X111015344Y-87475712D01*
X111164666Y-87567814D01*
X111276017Y-87604712D01*
X111331202Y-87622999D01*
X111430858Y-87633180D01*
X111430859Y-87633180D01*
X111433991Y-87633500D01*
X112184008Y-87633499D01*
X112286797Y-87622999D01*
X112453334Y-87567814D01*
X112602656Y-87475712D01*
X112726712Y-87351656D01*
X112818814Y-87202334D01*
X112873999Y-87035797D01*
X112884500Y-86933009D01*
X112884499Y-85532992D01*
X112873999Y-85430203D01*
X112818814Y-85263666D01*
X112753320Y-85157483D01*
X112726711Y-85114342D01*
X112602656Y-84990287D01*
X112577752Y-84974926D01*
X112531027Y-84922978D01*
X112518850Y-84869392D01*
X112518850Y-82921605D01*
X112538534Y-82854570D01*
X112591338Y-82808815D01*
X112599520Y-82805426D01*
X112602642Y-82804261D01*
X112611931Y-82800797D01*
X112675466Y-82753234D01*
X112740931Y-82728817D01*
X112749778Y-82728501D01*
X114939549Y-82728501D01*
X115006588Y-82748186D01*
X115027230Y-82764820D01*
X116596181Y-84333771D01*
X116629666Y-84395094D01*
X116632500Y-84421452D01*
X116632500Y-85730560D01*
X116632500Y-85730578D01*
X116632501Y-85733872D01*
X116632853Y-85737152D01*
X116632854Y-85737159D01*
X116638909Y-85793484D01*
X116643775Y-85806530D01*
X116689204Y-85928331D01*
X116775454Y-86043546D01*
X116890669Y-86129796D01*
X117025517Y-86180091D01*
X117085127Y-86186500D01*
X118880872Y-86186499D01*
X118940483Y-86180091D01*
X119075331Y-86129796D01*
X119190546Y-86043546D01*
X119276796Y-85928331D01*
X119327091Y-85793483D01*
X119333500Y-85733873D01*
X119333499Y-83938128D01*
X119327091Y-83878517D01*
X119276796Y-83743669D01*
X119190546Y-83628454D01*
X119075331Y-83542204D01*
X118940483Y-83491909D01*
X118880873Y-83485500D01*
X118877551Y-83485500D01*
X117568453Y-83485500D01*
X117501414Y-83465815D01*
X117480772Y-83449181D01*
X116668772Y-82637181D01*
X116635287Y-82575858D01*
X116640271Y-82506166D01*
X116682143Y-82450233D01*
X116747607Y-82425816D01*
X116756453Y-82425500D01*
X120031256Y-82425500D01*
X120051762Y-82427764D01*
X120054665Y-82427672D01*
X120054667Y-82427673D01*
X120121872Y-82425561D01*
X120125768Y-82425500D01*
X120149448Y-82425500D01*
X120153350Y-82425500D01*
X120157313Y-82424999D01*
X120168962Y-82424080D01*
X120212627Y-82422709D01*
X120231859Y-82417120D01*
X120250918Y-82413174D01*
X120257196Y-82412381D01*
X120270792Y-82410664D01*
X120311407Y-82394582D01*
X120322444Y-82390803D01*
X120364390Y-82378618D01*
X120381629Y-82368422D01*
X120399102Y-82359862D01*
X120417732Y-82352486D01*
X120453064Y-82326814D01*
X120462830Y-82320400D01*
X120500418Y-82298171D01*
X120500417Y-82298171D01*
X120500420Y-82298170D01*
X120514585Y-82284004D01*
X120529373Y-82271373D01*
X120545587Y-82259594D01*
X120573438Y-82225926D01*
X120581279Y-82217309D01*
X123622820Y-79175769D01*
X123684141Y-79142286D01*
X123753833Y-79147270D01*
X123809766Y-79189142D01*
X123834183Y-79254606D01*
X123834499Y-79263452D01*
X123834499Y-82504261D01*
X123832235Y-82524772D01*
X123834439Y-82594874D01*
X123834500Y-82598769D01*
X123834500Y-82626350D01*
X123834988Y-82630219D01*
X123834989Y-82630225D01*
X123835004Y-82630343D01*
X123835918Y-82641967D01*
X123837290Y-82685630D01*
X123842880Y-82704870D01*
X123846825Y-82723920D01*
X123849335Y-82743791D01*
X123865412Y-82784395D01*
X123869196Y-82795448D01*
X123881381Y-82837389D01*
X123891575Y-82854625D01*
X123900137Y-82872101D01*
X123907512Y-82890730D01*
X123911360Y-82896026D01*
X123929947Y-82921609D01*
X123933181Y-82926059D01*
X123939595Y-82935823D01*
X123961831Y-82973422D01*
X123975993Y-82987584D01*
X123988629Y-83002378D01*
X124000406Y-83018587D01*
X124034054Y-83046423D01*
X124042695Y-83054286D01*
X124177727Y-83189318D01*
X124211212Y-83250641D01*
X124206228Y-83320333D01*
X124177727Y-83364680D01*
X122969821Y-84572586D01*
X122908498Y-84606071D01*
X122850047Y-84604680D01*
X122781690Y-84586364D01*
X122554999Y-84566531D01*
X122328310Y-84586364D01*
X122108502Y-84645261D01*
X121902264Y-84741432D01*
X121715859Y-84871953D01*
X121554953Y-85032859D01*
X121424432Y-85219264D01*
X121328261Y-85425502D01*
X121269364Y-85645310D01*
X121249531Y-85872000D01*
X121269364Y-86098689D01*
X121328261Y-86318497D01*
X121424432Y-86524735D01*
X121554953Y-86711140D01*
X121715859Y-86872046D01*
X121902264Y-87002567D01*
X121902265Y-87002567D01*
X121902266Y-87002568D01*
X122108504Y-87098739D01*
X122328308Y-87157635D01*
X122555000Y-87177468D01*
X122781692Y-87157635D01*
X123001496Y-87098739D01*
X123207734Y-87002568D01*
X123394139Y-86872047D01*
X123555047Y-86711139D01*
X123685568Y-86524734D01*
X123781739Y-86318496D01*
X123840635Y-86098692D01*
X123860468Y-85872000D01*
X123840635Y-85645308D01*
X123822318Y-85576951D01*
X123823982Y-85507101D01*
X123854411Y-85457178D01*
X125062319Y-84249269D01*
X125123642Y-84215785D01*
X125193334Y-84220769D01*
X125237681Y-84249270D01*
X128080181Y-87091770D01*
X128113666Y-87153093D01*
X128116500Y-87179451D01*
X128116500Y-88738850D01*
X128096815Y-88805889D01*
X128063624Y-88840425D01*
X127935119Y-88930405D01*
X127780402Y-89085122D01*
X127654898Y-89264361D01*
X127562425Y-89462668D01*
X127505792Y-89674025D01*
X127486722Y-89892000D01*
X127505792Y-90109974D01*
X127562425Y-90321331D01*
X127594526Y-90390171D01*
X127654898Y-90519639D01*
X127780402Y-90698877D01*
X127935123Y-90853598D01*
X128114361Y-90979102D01*
X128312670Y-91071575D01*
X128524023Y-91128207D01*
X128742000Y-91147277D01*
X128959977Y-91128207D01*
X129171330Y-91071575D01*
X129369639Y-90979102D01*
X129548877Y-90853598D01*
X129703598Y-90698877D01*
X129829102Y-90519639D01*
X129921575Y-90321330D01*
X129978207Y-90109977D01*
X129997277Y-89892000D01*
X129978207Y-89674023D01*
X129921575Y-89462670D01*
X129829102Y-89264362D01*
X129703598Y-89085123D01*
X129548877Y-88930402D01*
X129420374Y-88840423D01*
X129376750Y-88785846D01*
X129367499Y-88738849D01*
X129367499Y-87875205D01*
X129367499Y-86951733D01*
X129370598Y-86924195D01*
X129370652Y-86923958D01*
X129404737Y-86862967D01*
X129466387Y-86830086D01*
X129536026Y-86835755D01*
X129579234Y-86863824D01*
X132345199Y-89629789D01*
X132378684Y-89691112D01*
X132381046Y-89728277D01*
X132366722Y-89892000D01*
X132385792Y-90109974D01*
X132442425Y-90321331D01*
X132474526Y-90390171D01*
X132534898Y-90519639D01*
X132660402Y-90698877D01*
X132815123Y-90853598D01*
X132994361Y-90979102D01*
X133192670Y-91071575D01*
X133404023Y-91128207D01*
X133622000Y-91147277D01*
X133839977Y-91128207D01*
X134051330Y-91071575D01*
X134249639Y-90979102D01*
X134428877Y-90853598D01*
X134583598Y-90698877D01*
X134673575Y-90570375D01*
X134728151Y-90526752D01*
X134775149Y-90517500D01*
X135724256Y-90517500D01*
X135744762Y-90519764D01*
X135747665Y-90519672D01*
X135747667Y-90519673D01*
X135814872Y-90517561D01*
X135818768Y-90517500D01*
X135842448Y-90517500D01*
X135846350Y-90517500D01*
X135850313Y-90516999D01*
X135861962Y-90516080D01*
X135905627Y-90514709D01*
X135924859Y-90509120D01*
X135943918Y-90505174D01*
X135950196Y-90504381D01*
X135963792Y-90502664D01*
X136004407Y-90486582D01*
X136015444Y-90482803D01*
X136057390Y-90470618D01*
X136074629Y-90460422D01*
X136092102Y-90451862D01*
X136110732Y-90444486D01*
X136146064Y-90418814D01*
X136155830Y-90412400D01*
X136193418Y-90390171D01*
X136193417Y-90390171D01*
X136193420Y-90390170D01*
X136207585Y-90376004D01*
X136222373Y-90363373D01*
X136238587Y-90351594D01*
X136266438Y-90317926D01*
X136274269Y-90309319D01*
X136771773Y-89811816D01*
X136833095Y-89778334D01*
X136859453Y-89775500D01*
X138613812Y-89775500D01*
X138680851Y-89795185D01*
X138715387Y-89828377D01*
X138827953Y-89989140D01*
X138988859Y-90150046D01*
X139175264Y-90280567D01*
X139175265Y-90280567D01*
X139175266Y-90280568D01*
X139381504Y-90376739D01*
X139601308Y-90435635D01*
X139752435Y-90448857D01*
X139827999Y-90455468D01*
X139827999Y-90455467D01*
X139828000Y-90455468D01*
X140054692Y-90435635D01*
X140274496Y-90376739D01*
X140480734Y-90280568D01*
X140667139Y-90150047D01*
X140828047Y-89989139D01*
X140958568Y-89802734D01*
X141054739Y-89596496D01*
X141082026Y-89494657D01*
X141118389Y-89434999D01*
X141181236Y-89404469D01*
X141250611Y-89412763D01*
X141289480Y-89439070D01*
X142182954Y-90332545D01*
X143059761Y-91209352D01*
X143093246Y-91270675D01*
X143091855Y-91329125D01*
X143064936Y-91429591D01*
X143044340Y-91665000D01*
X143064936Y-91900407D01*
X143109709Y-92067501D01*
X143126097Y-92128663D01*
X143225965Y-92342830D01*
X143361505Y-92536401D01*
X143528599Y-92703495D01*
X143722170Y-92839035D01*
X143936337Y-92938903D01*
X144164591Y-93000063D01*
X144164592Y-93000063D01*
X144399999Y-93020659D01*
X144399999Y-93020658D01*
X144400000Y-93020659D01*
X144635408Y-93000063D01*
X144863663Y-92938903D01*
X145077830Y-92839035D01*
X145271401Y-92703495D01*
X145438495Y-92536401D01*
X145574035Y-92342830D01*
X145673903Y-92128663D01*
X145735063Y-91900408D01*
X145755659Y-91665000D01*
X145735063Y-91429592D01*
X145673903Y-91201337D01*
X145574035Y-90987171D01*
X145438495Y-90793599D01*
X145316569Y-90671672D01*
X145283084Y-90610350D01*
X145288068Y-90540658D01*
X145329940Y-90484725D01*
X145360915Y-90467810D01*
X145492331Y-90418796D01*
X145607546Y-90332546D01*
X145693796Y-90217331D01*
X145744091Y-90082483D01*
X145750500Y-90022873D01*
X145750499Y-88227128D01*
X145744091Y-88167517D01*
X145693796Y-88032669D01*
X145607546Y-87917454D01*
X145492331Y-87831204D01*
X145357483Y-87780909D01*
X145297873Y-87774500D01*
X145294551Y-87774500D01*
X143985453Y-87774500D01*
X143918414Y-87754815D01*
X143897772Y-87738181D01*
X141975802Y-85816211D01*
X141962906Y-85800113D01*
X141911775Y-85752098D01*
X141908978Y-85749387D01*
X141892227Y-85732636D01*
X141889471Y-85729880D01*
X141886290Y-85727412D01*
X141877422Y-85719837D01*
X141845582Y-85689938D01*
X141828024Y-85680285D01*
X141811764Y-85669604D01*
X141795936Y-85657327D01*
X141755851Y-85639980D01*
X141745361Y-85634841D01*
X141707091Y-85613802D01*
X141704956Y-85613254D01*
X141644918Y-85577516D01*
X141613733Y-85514992D01*
X141621301Y-85445533D01*
X141665220Y-85391193D01*
X141683386Y-85380770D01*
X141697830Y-85374035D01*
X141891401Y-85238495D01*
X142058495Y-85071401D01*
X142194035Y-84877830D01*
X142293903Y-84663663D01*
X142355063Y-84435408D01*
X142375659Y-84200000D01*
X142355063Y-83964592D01*
X142293903Y-83736337D01*
X142194035Y-83522171D01*
X142058495Y-83328599D01*
X141891401Y-83161505D01*
X141697830Y-83025965D01*
X141483663Y-82926097D01*
X141422501Y-82909709D01*
X141255407Y-82864936D01*
X141020000Y-82844340D01*
X140784593Y-82864936D01*
X140684126Y-82891856D01*
X140614276Y-82890193D01*
X140564352Y-82859762D01*
X139603923Y-81899333D01*
X139570438Y-81838010D01*
X139575422Y-81768318D01*
X139603923Y-81723971D01*
X140173080Y-81154815D01*
X140768075Y-80559819D01*
X140829399Y-80526334D01*
X140855757Y-80523500D01*
X141213773Y-80523500D01*
X141280812Y-80543185D01*
X141315345Y-80576373D01*
X141450505Y-80769401D01*
X141617599Y-80936495D01*
X141811170Y-81072035D01*
X142025337Y-81171903D01*
X142252808Y-81232853D01*
X142253592Y-81233063D01*
X142488999Y-81253659D01*
X142488999Y-81253658D01*
X142489000Y-81253659D01*
X142724408Y-81233063D01*
X142952663Y-81171903D01*
X143052098Y-81125535D01*
X143121172Y-81115044D01*
X143184956Y-81143563D01*
X143223196Y-81202040D01*
X143228500Y-81237918D01*
X143228500Y-81771256D01*
X143226235Y-81791766D01*
X143228439Y-81861872D01*
X143228500Y-81865767D01*
X143228500Y-81893350D01*
X143228988Y-81897219D01*
X143228989Y-81897225D01*
X143229004Y-81897343D01*
X143229918Y-81908967D01*
X143231290Y-81952626D01*
X143236879Y-81971860D01*
X143240825Y-81990916D01*
X143243335Y-82010792D01*
X143259414Y-82051404D01*
X143263197Y-82062451D01*
X143275382Y-82104391D01*
X143285580Y-82121635D01*
X143294136Y-82139100D01*
X143301514Y-82157732D01*
X143301515Y-82157733D01*
X143327180Y-82193059D01*
X143333593Y-82202822D01*
X143355826Y-82240416D01*
X143355829Y-82240419D01*
X143355830Y-82240420D01*
X143369995Y-82254585D01*
X143382628Y-82269376D01*
X143394404Y-82285585D01*
X143394405Y-82285586D01*
X143394406Y-82285587D01*
X143428068Y-82313435D01*
X143436695Y-82321286D01*
X143499198Y-82383789D01*
X143512096Y-82399888D01*
X143514213Y-82401876D01*
X143514214Y-82401877D01*
X143538053Y-82424264D01*
X143563225Y-82447902D01*
X143566021Y-82450612D01*
X143585529Y-82470120D01*
X143588709Y-82472587D01*
X143597571Y-82480155D01*
X143621781Y-82502890D01*
X143629418Y-82510062D01*
X143646970Y-82519711D01*
X143663238Y-82530397D01*
X143679064Y-82542673D01*
X143719146Y-82560017D01*
X143729633Y-82565155D01*
X143767907Y-82586197D01*
X143776410Y-82588379D01*
X143787308Y-82591178D01*
X143805713Y-82597478D01*
X143824104Y-82605437D01*
X143867250Y-82612270D01*
X143878668Y-82614635D01*
X143920981Y-82625500D01*
X143941016Y-82625500D01*
X143960415Y-82627027D01*
X143980196Y-82630160D01*
X144023674Y-82626050D01*
X144035344Y-82625500D01*
X146917256Y-82625500D01*
X146937762Y-82627764D01*
X146940665Y-82627672D01*
X146940667Y-82627673D01*
X147007872Y-82625561D01*
X147011768Y-82625500D01*
X147035448Y-82625500D01*
X147039350Y-82625500D01*
X147043313Y-82624999D01*
X147054962Y-82624080D01*
X147098627Y-82622709D01*
X147117859Y-82617120D01*
X147136918Y-82613174D01*
X147144099Y-82612267D01*
X147156792Y-82610664D01*
X147197407Y-82594582D01*
X147208444Y-82590803D01*
X147250390Y-82578618D01*
X147267629Y-82568422D01*
X147285102Y-82559862D01*
X147303732Y-82552486D01*
X147339064Y-82526814D01*
X147348830Y-82520400D01*
X147376120Y-82504261D01*
X147386420Y-82498170D01*
X147400585Y-82484004D01*
X147415373Y-82471373D01*
X147431587Y-82459594D01*
X147459438Y-82425926D01*
X147467279Y-82417309D01*
X147783786Y-82100802D01*
X147799881Y-82087910D01*
X147801873Y-82085788D01*
X147801877Y-82085786D01*
X147847949Y-82036723D01*
X147850534Y-82034055D01*
X147870120Y-82014471D01*
X147872585Y-82011292D01*
X147880167Y-82002416D01*
X147888339Y-81993714D01*
X147910062Y-81970582D01*
X147919717Y-81953018D01*
X147930394Y-81936764D01*
X147942673Y-81920936D01*
X147960018Y-81880852D01*
X147965160Y-81870356D01*
X147968757Y-81863814D01*
X147986197Y-81832092D01*
X147991179Y-81812684D01*
X147997481Y-81794280D01*
X148005437Y-81775896D01*
X148012269Y-81732752D01*
X148014633Y-81721338D01*
X148025500Y-81679019D01*
X148025500Y-81658983D01*
X148027027Y-81639584D01*
X148030160Y-81619804D01*
X148026050Y-81576324D01*
X148025500Y-81564655D01*
X148025500Y-76710451D01*
X148045185Y-76643412D01*
X148061819Y-76622770D01*
X149116039Y-75568550D01*
X150183786Y-74500802D01*
X150199886Y-74487905D01*
X150201874Y-74485787D01*
X150201877Y-74485786D01*
X150247964Y-74436707D01*
X150250549Y-74434039D01*
X150270120Y-74414470D01*
X150272565Y-74411316D01*
X150280154Y-74402429D01*
X150310062Y-74370582D01*
X150319713Y-74353026D01*
X150330393Y-74336767D01*
X150342674Y-74320936D01*
X150360018Y-74280851D01*
X150365160Y-74270356D01*
X150386197Y-74232092D01*
X150391178Y-74212688D01*
X150397480Y-74194283D01*
X150405438Y-74175895D01*
X150412270Y-74132748D01*
X150414639Y-74121316D01*
X150425500Y-74079020D01*
X150425500Y-74058983D01*
X150427027Y-74039584D01*
X150430160Y-74019804D01*
X150426050Y-73976324D01*
X150425500Y-73964655D01*
X150425500Y-68953230D01*
X150445185Y-68886191D01*
X150497989Y-68840436D01*
X150567147Y-68830492D01*
X150630703Y-68859517D01*
X150668477Y-68918295D01*
X150673498Y-68952604D01*
X150792608Y-92536404D01*
X150799371Y-93875374D01*
X150780026Y-93942512D01*
X150727453Y-93988533D01*
X150675373Y-94000000D01*
X101723372Y-94000000D01*
X101656333Y-93980315D01*
X101610578Y-93927511D01*
X101599374Y-93876629D01*
X101594111Y-92839035D01*
X101473500Y-69058553D01*
X101473500Y-61882828D01*
X101473500Y-58738786D01*
X117713786Y-58738786D01*
X117713786Y-61686214D01*
X121213595Y-61686214D01*
X121213595Y-58738786D01*
X117713786Y-58738786D01*
X101473500Y-58738786D01*
X101473500Y-54690209D01*
X101493184Y-54623174D01*
X101545988Y-54577419D01*
X101597072Y-54566215D01*
X150476209Y-54400419D01*
X150543312Y-54419876D01*
G37*
G04 #@! TD.AperFunction*
G04 #@! TA.AperFunction,Conductor*
G36*
X140156587Y-87445185D02*
G01*
X140177229Y-87461819D01*
X140459600Y-87744190D01*
X140493085Y-87805513D01*
X140488101Y-87875205D01*
X140446229Y-87931138D01*
X140380765Y-87955555D01*
X140319514Y-87944253D01*
X140274498Y-87923261D01*
X140054689Y-87864364D01*
X139827999Y-87844531D01*
X139601310Y-87864364D01*
X139381502Y-87923261D01*
X139175264Y-88019432D01*
X138988859Y-88149953D01*
X138827953Y-88310859D01*
X138715387Y-88471623D01*
X138660811Y-88515248D01*
X138613812Y-88524500D01*
X136631740Y-88524500D01*
X136611236Y-88522236D01*
X136541144Y-88524439D01*
X136537250Y-88524500D01*
X136509650Y-88524500D01*
X136505789Y-88524987D01*
X136505778Y-88524988D01*
X136505645Y-88525005D01*
X136494029Y-88525918D01*
X136450368Y-88527290D01*
X136431129Y-88532880D01*
X136412080Y-88536825D01*
X136392208Y-88539335D01*
X136351593Y-88555415D01*
X136340549Y-88559196D01*
X136298611Y-88571382D01*
X136281364Y-88581581D01*
X136263900Y-88590136D01*
X136245267Y-88597514D01*
X136209926Y-88623189D01*
X136200168Y-88629599D01*
X136162579Y-88651829D01*
X136148410Y-88665998D01*
X136133622Y-88678628D01*
X136117411Y-88690406D01*
X136089572Y-88724058D01*
X136081711Y-88732697D01*
X135584228Y-89230181D01*
X135522905Y-89263666D01*
X135496547Y-89266500D01*
X134775149Y-89266500D01*
X134708110Y-89246815D01*
X134673574Y-89213623D01*
X134583597Y-89085122D01*
X134428880Y-88930405D01*
X134428879Y-88930404D01*
X134428877Y-88930402D01*
X134249639Y-88804898D01*
X134107999Y-88738850D01*
X134051331Y-88712425D01*
X133839974Y-88655792D01*
X133622000Y-88636722D01*
X133404024Y-88655792D01*
X133265247Y-88692977D01*
X133195397Y-88691314D01*
X133145473Y-88660883D01*
X132121771Y-87637181D01*
X132088286Y-87575858D01*
X132093270Y-87506166D01*
X132135142Y-87450233D01*
X132200606Y-87425816D01*
X132209452Y-87425500D01*
X140089548Y-87425500D01*
X140156587Y-87445185D01*
G37*
G04 #@! TD.AperFunction*
G04 #@! TA.AperFunction,Conductor*
G36*
X142030703Y-87640739D02*
G01*
X142037181Y-87646771D01*
X143013181Y-88622771D01*
X143046666Y-88684094D01*
X143049500Y-88710452D01*
X143049500Y-89130547D01*
X143029815Y-89197586D01*
X142977011Y-89243341D01*
X142907853Y-89253285D01*
X142844297Y-89224260D01*
X142837819Y-89218228D01*
X141861819Y-88242228D01*
X141828334Y-88180905D01*
X141825500Y-88154547D01*
X141825500Y-87734452D01*
X141845185Y-87667413D01*
X141897989Y-87621658D01*
X141967147Y-87611714D01*
X142030703Y-87640739D01*
G37*
G04 #@! TD.AperFunction*
G04 #@! TA.AperFunction,Conductor*
G36*
X125229127Y-79382500D02*
G01*
X125327499Y-79382499D01*
X125394537Y-79402183D01*
X125440293Y-79454986D01*
X125451499Y-79506499D01*
X125451499Y-82394256D01*
X125448510Y-82421318D01*
X125448457Y-82421555D01*
X125414616Y-82482682D01*
X125353100Y-82515810D01*
X125283438Y-82510421D01*
X125239765Y-82482174D01*
X125121819Y-82364228D01*
X125088334Y-82302905D01*
X125085500Y-82276547D01*
X125085500Y-79505104D01*
X125105185Y-79438065D01*
X125157989Y-79392310D01*
X125222756Y-79381815D01*
X125229127Y-79382500D01*
G37*
G04 #@! TD.AperFunction*
G04 #@! TA.AperFunction,Conductor*
G36*
X129157703Y-82022739D02*
G01*
X129164181Y-82028771D01*
X131719197Y-84583787D01*
X131732098Y-84599889D01*
X131734212Y-84601874D01*
X131734214Y-84601877D01*
X131780413Y-84645261D01*
X131783240Y-84647916D01*
X131786036Y-84650626D01*
X131805530Y-84670120D01*
X131808615Y-84672513D01*
X131808701Y-84672580D01*
X131817573Y-84680158D01*
X131849418Y-84710062D01*
X131866974Y-84719714D01*
X131883231Y-84730392D01*
X131899064Y-84742674D01*
X131915185Y-84749649D01*
X131939156Y-84760023D01*
X131949648Y-84765163D01*
X131985238Y-84784729D01*
X132034501Y-84834274D01*
X132049500Y-84893389D01*
X132049500Y-85094560D01*
X132049500Y-85094578D01*
X132049501Y-85097872D01*
X132049853Y-85101152D01*
X132049854Y-85101159D01*
X132055909Y-85157484D01*
X132106204Y-85292332D01*
X132168980Y-85376190D01*
X132193397Y-85441654D01*
X132178545Y-85509927D01*
X132129140Y-85559332D01*
X132069713Y-85574500D01*
X131910452Y-85574500D01*
X131843413Y-85554815D01*
X131822771Y-85538181D01*
X128988819Y-82704228D01*
X128955334Y-82642905D01*
X128952500Y-82616547D01*
X128952500Y-82116452D01*
X128972185Y-82049413D01*
X129024989Y-82003658D01*
X129094147Y-81993714D01*
X129157703Y-82022739D01*
G37*
G04 #@! TD.AperFunction*
G04 #@! TA.AperFunction,Conductor*
G36*
X119234926Y-68574873D02*
G01*
X119284332Y-68624278D01*
X119299500Y-68683705D01*
X119299500Y-69449247D01*
X119279815Y-69516286D01*
X119263181Y-69536928D01*
X118246929Y-70553181D01*
X118185606Y-70586666D01*
X118159248Y-70589500D01*
X117579043Y-70589500D01*
X117558536Y-70587235D01*
X117488426Y-70589439D01*
X117484531Y-70589500D01*
X117456949Y-70589500D01*
X117453104Y-70589985D01*
X117453079Y-70589987D01*
X117452952Y-70590004D01*
X117441332Y-70590918D01*
X117397668Y-70592290D01*
X117378428Y-70597880D01*
X117359380Y-70601825D01*
X117339508Y-70604335D01*
X117298898Y-70620413D01*
X117287853Y-70624194D01*
X117245909Y-70636381D01*
X117228664Y-70646579D01*
X117211203Y-70655133D01*
X117192566Y-70662512D01*
X117157230Y-70688185D01*
X117147473Y-70694595D01*
X117109879Y-70716829D01*
X117095712Y-70730996D01*
X117080923Y-70743626D01*
X117064712Y-70755404D01*
X117036871Y-70789058D01*
X117029010Y-70797697D01*
X116837180Y-70989527D01*
X116775857Y-71023012D01*
X116706165Y-71018028D01*
X116650232Y-70976156D01*
X116625815Y-70910692D01*
X116625499Y-70901868D01*
X116625499Y-69603450D01*
X116645184Y-69536412D01*
X116661813Y-69515775D01*
X117480770Y-68696818D01*
X117542094Y-68663333D01*
X117568452Y-68660499D01*
X118877561Y-68660499D01*
X118880872Y-68660499D01*
X118940483Y-68654091D01*
X119075331Y-68603796D01*
X119101190Y-68584437D01*
X119166653Y-68560021D01*
X119234926Y-68574873D01*
G37*
G04 #@! TD.AperFunction*
G04 #@! TA.AperFunction,Conductor*
G36*
X122082587Y-69733185D02*
G01*
X122128342Y-69785989D01*
X122138286Y-69855147D01*
X122109261Y-69918703D01*
X122103230Y-69925178D01*
X121441743Y-70586666D01*
X119550807Y-72477601D01*
X119489484Y-72511086D01*
X119419792Y-72506102D01*
X119363859Y-72464230D01*
X119339598Y-72400728D01*
X119320461Y-72182000D01*
X119318063Y-72154592D01*
X119291143Y-72054125D01*
X119292806Y-71984276D01*
X119323235Y-71934353D01*
X121507771Y-69749819D01*
X121569095Y-69716334D01*
X121595453Y-69713500D01*
X122015548Y-69713500D01*
X122082587Y-69733185D01*
G37*
G04 #@! TD.AperFunction*
G04 #@! TA.AperFunction,Conductor*
G36*
X126694539Y-70749185D02*
G01*
X126740294Y-70801989D01*
X126751500Y-70853500D01*
X126751500Y-72107500D01*
X126731815Y-72174539D01*
X126679011Y-72220294D01*
X126627500Y-72231500D01*
X125232439Y-72231500D01*
X125232420Y-72231500D01*
X125229128Y-72231501D01*
X125225848Y-72231853D01*
X125225840Y-72231854D01*
X125169515Y-72237909D01*
X125034669Y-72288204D01*
X124919454Y-72374454D01*
X124833204Y-72489668D01*
X124782909Y-72624516D01*
X124776999Y-72679490D01*
X124776500Y-72684127D01*
X124776500Y-72687448D01*
X124776500Y-72687449D01*
X124776500Y-73326560D01*
X124776500Y-73326578D01*
X124776501Y-73329872D01*
X124776853Y-73333149D01*
X124776854Y-73333162D01*
X124783367Y-73393746D01*
X124783367Y-73420252D01*
X124777360Y-73476127D01*
X124776500Y-73484127D01*
X124776500Y-73487448D01*
X124776500Y-73487449D01*
X124776500Y-74126560D01*
X124776500Y-74126578D01*
X124776501Y-74129872D01*
X124776853Y-74133152D01*
X124776854Y-74133159D01*
X124782909Y-74189484D01*
X124789442Y-74207000D01*
X124833204Y-74324331D01*
X124919454Y-74439546D01*
X124919455Y-74439547D01*
X124963261Y-74472340D01*
X125006874Y-74504989D01*
X125010539Y-74507732D01*
X125052411Y-74563665D01*
X125057395Y-74633357D01*
X125023910Y-74694680D01*
X125010540Y-74706266D01*
X124909802Y-74781678D01*
X124881136Y-74797704D01*
X124843986Y-74812412D01*
X124832940Y-74816194D01*
X124790996Y-74828381D01*
X124773751Y-74838579D01*
X124756290Y-74847133D01*
X124737656Y-74854511D01*
X124702319Y-74880185D01*
X124692559Y-74886596D01*
X124654963Y-74908830D01*
X124640797Y-74922996D01*
X124626013Y-74935623D01*
X124609799Y-74947404D01*
X124581962Y-74981054D01*
X124574100Y-74989694D01*
X124568208Y-74995586D01*
X124552108Y-75008485D01*
X124504095Y-75059612D01*
X124501391Y-75062403D01*
X124484628Y-75079166D01*
X124484621Y-75079173D01*
X124481880Y-75081915D01*
X124479499Y-75084983D01*
X124479490Y-75084994D01*
X124479411Y-75085097D01*
X124471842Y-75093958D01*
X124441935Y-75125806D01*
X124432285Y-75143360D01*
X124421609Y-75159614D01*
X124409326Y-75175449D01*
X124391975Y-75215544D01*
X124386838Y-75226030D01*
X124365802Y-75264293D01*
X124360821Y-75283695D01*
X124354520Y-75302097D01*
X124346561Y-75320488D01*
X124339728Y-75363628D01*
X124337360Y-75375060D01*
X124326499Y-75417363D01*
X124326500Y-75437402D01*
X124324973Y-75456800D01*
X124321840Y-75476580D01*
X124325950Y-75520059D01*
X124326500Y-75531729D01*
X124326499Y-76651547D01*
X124306814Y-76718587D01*
X124290180Y-76739228D01*
X119891228Y-81138181D01*
X119829905Y-81171666D01*
X119803547Y-81174500D01*
X119027758Y-81174500D01*
X118960719Y-81154815D01*
X118914964Y-81102011D01*
X118905020Y-81032853D01*
X118934045Y-80969297D01*
X118940077Y-80962819D01*
X118966405Y-80936491D01*
X119021495Y-80881401D01*
X119157035Y-80687830D01*
X119256903Y-80473663D01*
X119318063Y-80245408D01*
X119338659Y-80010000D01*
X119318063Y-79774592D01*
X119256903Y-79546337D01*
X119157035Y-79332171D01*
X119021495Y-79138599D01*
X118854401Y-78971505D01*
X118668839Y-78841573D01*
X118625216Y-78786998D01*
X118618022Y-78717500D01*
X118649545Y-78655145D01*
X118668837Y-78638428D01*
X118854401Y-78508495D01*
X119021495Y-78341401D01*
X119157035Y-78147830D01*
X119256903Y-77933663D01*
X119318063Y-77705408D01*
X119338659Y-77470000D01*
X119331987Y-77393746D01*
X119318063Y-77234592D01*
X119288053Y-77122592D01*
X119256903Y-77006337D01*
X119157035Y-76792171D01*
X119021495Y-76598599D01*
X118854401Y-76431505D01*
X118668839Y-76301573D01*
X118625217Y-76246998D01*
X118618024Y-76177499D01*
X118649546Y-76115145D01*
X118668837Y-76098428D01*
X118854401Y-75968495D01*
X119021495Y-75801401D01*
X119157035Y-75607830D01*
X119256903Y-75393663D01*
X119318063Y-75165408D01*
X119338659Y-74930000D01*
X119318063Y-74694592D01*
X119291143Y-74594125D01*
X119292806Y-74524276D01*
X119323235Y-74474353D01*
X123031770Y-70765819D01*
X123093094Y-70732334D01*
X123119452Y-70729500D01*
X126627500Y-70729500D01*
X126694539Y-70749185D01*
G37*
G04 #@! TD.AperFunction*
G04 #@! TA.AperFunction,Conductor*
G36*
X132740259Y-72850633D02*
G01*
X132744516Y-72851090D01*
X132744517Y-72851091D01*
X132804127Y-72857500D01*
X133152500Y-72857499D01*
X133219539Y-72877183D01*
X133265294Y-72929987D01*
X133276500Y-72981499D01*
X133276500Y-73326560D01*
X133276500Y-73326578D01*
X133276501Y-73329872D01*
X133276853Y-73333149D01*
X133276854Y-73333162D01*
X133283367Y-73393746D01*
X133283367Y-73420252D01*
X133277360Y-73476127D01*
X133276500Y-73484127D01*
X133276500Y-73487448D01*
X133276500Y-73487449D01*
X133276500Y-74126560D01*
X133276500Y-74126578D01*
X133276501Y-74129872D01*
X133276853Y-74133149D01*
X133276854Y-74133162D01*
X133283367Y-74193746D01*
X133283367Y-74220252D01*
X133276854Y-74280831D01*
X133276500Y-74284127D01*
X133276500Y-74287448D01*
X133276500Y-74287449D01*
X133276500Y-74926560D01*
X133276500Y-74926578D01*
X133276501Y-74929872D01*
X133276853Y-74933152D01*
X133276854Y-74933159D01*
X133282909Y-74989484D01*
X133289996Y-75008485D01*
X133333204Y-75124331D01*
X133414215Y-75232547D01*
X133419454Y-75239546D01*
X133510540Y-75307733D01*
X133552411Y-75363667D01*
X133557395Y-75433359D01*
X133523910Y-75494682D01*
X133510540Y-75506267D01*
X133419454Y-75574453D01*
X133333204Y-75689668D01*
X133282910Y-75824515D01*
X133282909Y-75824517D01*
X133276500Y-75884127D01*
X133276500Y-75887448D01*
X133276500Y-75887449D01*
X133276500Y-76526560D01*
X133276500Y-76526578D01*
X133276501Y-76529872D01*
X133276853Y-76533149D01*
X133276854Y-76533162D01*
X133283367Y-76593746D01*
X133283367Y-76620252D01*
X133279192Y-76659089D01*
X133276500Y-76684127D01*
X133276500Y-76687448D01*
X133276500Y-76687449D01*
X133276500Y-77326560D01*
X133276500Y-77326578D01*
X133276501Y-77329872D01*
X133276853Y-77333149D01*
X133276854Y-77333162D01*
X133283367Y-77393746D01*
X133283367Y-77420252D01*
X133276854Y-77480831D01*
X133276500Y-77484127D01*
X133276500Y-77487448D01*
X133276500Y-77487449D01*
X133276500Y-78126560D01*
X133276500Y-78126578D01*
X133276501Y-78129872D01*
X133276853Y-78133149D01*
X133276854Y-78133162D01*
X133283367Y-78193746D01*
X133283367Y-78220252D01*
X133279110Y-78259851D01*
X133276500Y-78284127D01*
X133276500Y-78287449D01*
X133276500Y-78632500D01*
X133256815Y-78699539D01*
X133204011Y-78745294D01*
X133152500Y-78756500D01*
X132807439Y-78756500D01*
X132807420Y-78756500D01*
X132804128Y-78756501D01*
X132800851Y-78756853D01*
X132800837Y-78756854D01*
X132740253Y-78763367D01*
X132713747Y-78763367D01*
X132653168Y-78756854D01*
X132653163Y-78756853D01*
X132649873Y-78756500D01*
X132646550Y-78756500D01*
X132007439Y-78756500D01*
X132007420Y-78756500D01*
X132004128Y-78756501D01*
X132000851Y-78756853D01*
X132000837Y-78756854D01*
X131940253Y-78763367D01*
X131913747Y-78763367D01*
X131853168Y-78756854D01*
X131853163Y-78756853D01*
X131849873Y-78756500D01*
X131846550Y-78756500D01*
X131207439Y-78756500D01*
X131207420Y-78756500D01*
X131204128Y-78756501D01*
X131200851Y-78756853D01*
X131200837Y-78756854D01*
X131140253Y-78763367D01*
X131113747Y-78763367D01*
X131053168Y-78756854D01*
X131053163Y-78756853D01*
X131049873Y-78756500D01*
X131046550Y-78756500D01*
X130407439Y-78756500D01*
X130407420Y-78756500D01*
X130404128Y-78756501D01*
X130400851Y-78756853D01*
X130400837Y-78756854D01*
X130340253Y-78763367D01*
X130313747Y-78763367D01*
X130253168Y-78756854D01*
X130253163Y-78756853D01*
X130249873Y-78756500D01*
X130246550Y-78756500D01*
X129607439Y-78756500D01*
X129607420Y-78756500D01*
X129604128Y-78756501D01*
X129600851Y-78756853D01*
X129600837Y-78756854D01*
X129540253Y-78763367D01*
X129513747Y-78763367D01*
X129453168Y-78756854D01*
X129453163Y-78756853D01*
X129449873Y-78756500D01*
X129446550Y-78756500D01*
X128807439Y-78756500D01*
X128807420Y-78756500D01*
X128804128Y-78756501D01*
X128800851Y-78756853D01*
X128800837Y-78756854D01*
X128740253Y-78763367D01*
X128713747Y-78763367D01*
X128653168Y-78756854D01*
X128653163Y-78756853D01*
X128649873Y-78756500D01*
X128646550Y-78756500D01*
X128007439Y-78756500D01*
X128007420Y-78756500D01*
X128004128Y-78756501D01*
X128000851Y-78756853D01*
X128000837Y-78756854D01*
X127940253Y-78763367D01*
X127913747Y-78763367D01*
X127853168Y-78756854D01*
X127853163Y-78756853D01*
X127849873Y-78756500D01*
X127846551Y-78756500D01*
X127501499Y-78756500D01*
X127434460Y-78736815D01*
X127388705Y-78684011D01*
X127377499Y-78632500D01*
X127377499Y-78287439D01*
X127377499Y-78284128D01*
X127371091Y-78224517D01*
X127371090Y-78224515D01*
X127370632Y-78220250D01*
X127370633Y-78193740D01*
X127371532Y-78185379D01*
X127377500Y-78129873D01*
X127377499Y-77484128D01*
X127371091Y-77424517D01*
X127371090Y-77424515D01*
X127370632Y-77420250D01*
X127370633Y-77393740D01*
X127374476Y-77358000D01*
X127377500Y-77329873D01*
X127377499Y-76684128D01*
X127371091Y-76624517D01*
X127320796Y-76489669D01*
X127234546Y-76374454D01*
X127143457Y-76306265D01*
X127101588Y-76250333D01*
X127096604Y-76180642D01*
X127130089Y-76119319D01*
X127143452Y-76107738D01*
X127234546Y-76039546D01*
X127320796Y-75924331D01*
X127371091Y-75789483D01*
X127377500Y-75729873D01*
X127377499Y-75084128D01*
X127371091Y-75024517D01*
X127320796Y-74889669D01*
X127234546Y-74774454D01*
X127143457Y-74706265D01*
X127101588Y-74650333D01*
X127096604Y-74580642D01*
X127130089Y-74519319D01*
X127143452Y-74507738D01*
X127234546Y-74439546D01*
X127320796Y-74324331D01*
X127371091Y-74189483D01*
X127377500Y-74129873D01*
X127377499Y-73484128D01*
X127371091Y-73424517D01*
X127371090Y-73424515D01*
X127370632Y-73420250D01*
X127370633Y-73393740D01*
X127377144Y-73333180D01*
X127377500Y-73329873D01*
X127377499Y-72981498D01*
X127397183Y-72914460D01*
X127449987Y-72868705D01*
X127501499Y-72857499D01*
X127846561Y-72857499D01*
X127849872Y-72857499D01*
X127909483Y-72851091D01*
X127909484Y-72851090D01*
X127913749Y-72850632D01*
X127940259Y-72850633D01*
X127944516Y-72851090D01*
X127944517Y-72851091D01*
X128004127Y-72857500D01*
X128649872Y-72857499D01*
X128709483Y-72851091D01*
X128709484Y-72851090D01*
X128713749Y-72850632D01*
X128740259Y-72850633D01*
X128744516Y-72851090D01*
X128744517Y-72851091D01*
X128804127Y-72857500D01*
X129449872Y-72857499D01*
X129509483Y-72851091D01*
X129509484Y-72851090D01*
X129513749Y-72850632D01*
X129540259Y-72850633D01*
X129544516Y-72851090D01*
X129544517Y-72851091D01*
X129604127Y-72857500D01*
X130249872Y-72857499D01*
X130309483Y-72851091D01*
X130309484Y-72851090D01*
X130313749Y-72850632D01*
X130340259Y-72850633D01*
X130344516Y-72851090D01*
X130344517Y-72851091D01*
X130404127Y-72857500D01*
X131049872Y-72857499D01*
X131109483Y-72851091D01*
X131109484Y-72851090D01*
X131113749Y-72850632D01*
X131140259Y-72850633D01*
X131144516Y-72851090D01*
X131144517Y-72851091D01*
X131204127Y-72857500D01*
X131849872Y-72857499D01*
X131909483Y-72851091D01*
X131909484Y-72851090D01*
X131913749Y-72850632D01*
X131940259Y-72850633D01*
X131944516Y-72851090D01*
X131944517Y-72851091D01*
X132004127Y-72857500D01*
X132649872Y-72857499D01*
X132709483Y-72851091D01*
X132709484Y-72851090D01*
X132713749Y-72850632D01*
X132740259Y-72850633D01*
G37*
G04 #@! TD.AperFunction*
G04 #@! TA.AperFunction,Conductor*
G36*
X141057834Y-74549964D02*
G01*
X141113767Y-74591836D01*
X141138184Y-74657300D01*
X141138500Y-74666146D01*
X141138500Y-75232547D01*
X141118815Y-75299586D01*
X141102181Y-75320228D01*
X137027228Y-79395181D01*
X136965905Y-79428666D01*
X136939547Y-79431500D01*
X136289023Y-79431500D01*
X136221984Y-79411815D01*
X136176229Y-79359011D01*
X136166285Y-79289853D01*
X136195310Y-79226297D01*
X136254088Y-79188523D01*
X136254428Y-79188424D01*
X136258736Y-79187171D01*
X136264085Y-79185618D01*
X136281324Y-79175422D01*
X136298797Y-79166862D01*
X136317427Y-79159486D01*
X136352759Y-79133814D01*
X136362525Y-79127400D01*
X136400113Y-79105171D01*
X136400112Y-79105171D01*
X136400115Y-79105170D01*
X136414280Y-79091004D01*
X136429068Y-79078373D01*
X136445282Y-79066594D01*
X136473133Y-79032926D01*
X136480974Y-79024309D01*
X140926821Y-74578463D01*
X140988142Y-74544980D01*
X141057834Y-74549964D01*
G37*
G04 #@! TD.AperFunction*
G04 #@! TA.AperFunction,Conductor*
G36*
X147239586Y-75463185D02*
G01*
X147285341Y-75515989D01*
X147295285Y-75585147D01*
X147266260Y-75648703D01*
X147260247Y-75655160D01*
X147058917Y-75856491D01*
X147016208Y-75899200D01*
X147000109Y-75912097D01*
X146952096Y-75963225D01*
X146949392Y-75966016D01*
X146932628Y-75982780D01*
X146932621Y-75982787D01*
X146929880Y-75985529D01*
X146927499Y-75988597D01*
X146927490Y-75988608D01*
X146927411Y-75988711D01*
X146919842Y-75997572D01*
X146889935Y-76029420D01*
X146880285Y-76046974D01*
X146869609Y-76063228D01*
X146857326Y-76079063D01*
X146839975Y-76119158D01*
X146834838Y-76129644D01*
X146813802Y-76167907D01*
X146808821Y-76187309D01*
X146802520Y-76205711D01*
X146794561Y-76224102D01*
X146787728Y-76267242D01*
X146785360Y-76278674D01*
X146774500Y-76320977D01*
X146774500Y-76341016D01*
X146772973Y-76360414D01*
X146769840Y-76380194D01*
X146773950Y-76423673D01*
X146774500Y-76435343D01*
X146774500Y-81250500D01*
X146754815Y-81317539D01*
X146702011Y-81363294D01*
X146650500Y-81374500D01*
X145617519Y-81374500D01*
X145550480Y-81354815D01*
X145504725Y-81302011D01*
X145494781Y-81232853D01*
X145523806Y-81169297D01*
X145565112Y-81138119D01*
X145706830Y-81072035D01*
X145900401Y-80936495D01*
X146067495Y-80769401D01*
X146203035Y-80575830D01*
X146302903Y-80361663D01*
X146364063Y-80133408D01*
X146384659Y-79898000D01*
X146364063Y-79662592D01*
X146302903Y-79434337D01*
X146203035Y-79220171D01*
X146067495Y-79026599D01*
X145900401Y-78859505D01*
X145706830Y-78723965D01*
X145492663Y-78624097D01*
X145431502Y-78607709D01*
X145264407Y-78562936D01*
X145029000Y-78542340D01*
X144793592Y-78562936D01*
X144601756Y-78614338D01*
X144531906Y-78612675D01*
X144474044Y-78573512D01*
X144454373Y-78540215D01*
X144449445Y-78527771D01*
X144448586Y-78525601D01*
X144444806Y-78514562D01*
X144432618Y-78472610D01*
X144422419Y-78455364D01*
X144413861Y-78437897D01*
X144406486Y-78419268D01*
X144380808Y-78383926D01*
X144374405Y-78374176D01*
X144352170Y-78336579D01*
X144338006Y-78322415D01*
X144325369Y-78307620D01*
X144313595Y-78291414D01*
X144304788Y-78284128D01*
X144279935Y-78263568D01*
X144271305Y-78255714D01*
X143829237Y-77813646D01*
X143795752Y-77752323D01*
X143797143Y-77693872D01*
X143824063Y-77593408D01*
X143844659Y-77358000D01*
X143824063Y-77122592D01*
X143762903Y-76894337D01*
X143663035Y-76680171D01*
X143527495Y-76486599D01*
X143405569Y-76364673D01*
X143372084Y-76303350D01*
X143377068Y-76233658D01*
X143418940Y-76177725D01*
X143449915Y-76160810D01*
X143581331Y-76111796D01*
X143696546Y-76025546D01*
X143782796Y-75910331D01*
X143831810Y-75778916D01*
X143873681Y-75722983D01*
X143939146Y-75698566D01*
X144007419Y-75713418D01*
X144035673Y-75734569D01*
X144157599Y-75856495D01*
X144351170Y-75992035D01*
X144565337Y-76091903D01*
X144793592Y-76153063D01*
X145029000Y-76173659D01*
X145264408Y-76153063D01*
X145492663Y-76091903D01*
X145706830Y-75992035D01*
X145900401Y-75856495D01*
X146067495Y-75689401D01*
X146202653Y-75496374D01*
X146257229Y-75452752D01*
X146304227Y-75443500D01*
X147172547Y-75443500D01*
X147239586Y-75463185D01*
G37*
G04 #@! TD.AperFunction*
G04 #@! TA.AperFunction,Conductor*
G36*
X141052207Y-77241896D02*
G01*
X141108140Y-77283768D01*
X141132401Y-77347270D01*
X141153936Y-77593407D01*
X141183947Y-77705408D01*
X141215097Y-77821663D01*
X141314965Y-78035830D01*
X141450505Y-78229401D01*
X141617599Y-78396495D01*
X141803160Y-78526426D01*
X141846783Y-78581002D01*
X141853976Y-78650501D01*
X141822454Y-78712855D01*
X141803159Y-78729575D01*
X141617595Y-78859508D01*
X141450505Y-79026598D01*
X141377839Y-79130377D01*
X141316721Y-79217664D01*
X141315349Y-79219623D01*
X141260772Y-79263248D01*
X141213774Y-79272500D01*
X140628049Y-79272500D01*
X140607541Y-79270235D01*
X140537418Y-79272439D01*
X140533524Y-79272500D01*
X140505955Y-79272500D01*
X140502099Y-79272986D01*
X140502096Y-79272987D01*
X140502040Y-79272994D01*
X140501967Y-79273003D01*
X140490348Y-79273917D01*
X140446677Y-79275289D01*
X140427433Y-79280880D01*
X140408389Y-79284824D01*
X140388513Y-79287335D01*
X140347905Y-79303413D01*
X140336859Y-79307194D01*
X140297789Y-79318547D01*
X140294912Y-79319383D01*
X140277670Y-79329579D01*
X140260209Y-79338133D01*
X140241572Y-79345512D01*
X140206236Y-79371185D01*
X140196479Y-79377595D01*
X140158885Y-79399829D01*
X140144718Y-79413996D01*
X140129929Y-79426626D01*
X140113718Y-79438404D01*
X140085877Y-79472058D01*
X140078016Y-79480697D01*
X138820533Y-80738181D01*
X138759210Y-80771666D01*
X138732852Y-80774500D01*
X137716453Y-80774500D01*
X137649414Y-80754815D01*
X137603659Y-80702011D01*
X137593715Y-80632853D01*
X137622740Y-80569297D01*
X137628766Y-80562825D01*
X137636420Y-80555170D01*
X137650584Y-80541005D01*
X137665373Y-80528373D01*
X137681587Y-80516594D01*
X137709438Y-80482926D01*
X137717279Y-80474309D01*
X140921194Y-77270395D01*
X140982515Y-77236912D01*
X141052207Y-77241896D01*
G37*
G04 #@! TD.AperFunction*
G04 #@! TA.AperFunction,Conductor*
G36*
X147156587Y-56645185D02*
G01*
X147177229Y-56661819D01*
X149138181Y-58622771D01*
X149171666Y-58684094D01*
X149174500Y-58710452D01*
X149174500Y-67091547D01*
X149154815Y-67158586D01*
X149102011Y-67204341D01*
X149032853Y-67214285D01*
X148969297Y-67185260D01*
X148962819Y-67179228D01*
X147685349Y-65901758D01*
X147651864Y-65840435D01*
X147652824Y-65783637D01*
X147660134Y-65754770D01*
X147690134Y-65636305D01*
X147709300Y-65405000D01*
X147690134Y-65173695D01*
X147633157Y-64948700D01*
X147539924Y-64736151D01*
X147435284Y-64575987D01*
X147412980Y-64541848D01*
X147406237Y-64534523D01*
X147318195Y-64438884D01*
X147287275Y-64376232D01*
X147295135Y-64306806D01*
X147339282Y-64252651D01*
X147366091Y-64238723D01*
X147446331Y-64208796D01*
X147561546Y-64122546D01*
X147647796Y-64007331D01*
X147698091Y-63872483D01*
X147704500Y-63812873D01*
X147704499Y-61917128D01*
X147698091Y-61857517D01*
X147647796Y-61722669D01*
X147561546Y-61607454D01*
X147446331Y-61521204D01*
X147311483Y-61470909D01*
X147251873Y-61464500D01*
X147248551Y-61464500D01*
X146418500Y-61464500D01*
X146351461Y-61444815D01*
X146305706Y-61392011D01*
X146294500Y-61340500D01*
X146294500Y-60545765D01*
X146314185Y-60478726D01*
X146353223Y-60440338D01*
X146395562Y-60414124D01*
X146559981Y-60264236D01*
X146694058Y-60086689D01*
X146793229Y-59887528D01*
X146793414Y-59886880D01*
X146829740Y-59759204D01*
X146854115Y-59673536D01*
X146874643Y-59452000D01*
X146854115Y-59230464D01*
X146824156Y-59125170D01*
X146793230Y-59016473D01*
X146694058Y-58817311D01*
X146559980Y-58639762D01*
X146395562Y-58489875D01*
X146206404Y-58372754D01*
X146022148Y-58301373D01*
X145998940Y-58292382D01*
X145780243Y-58251500D01*
X145557757Y-58251500D01*
X145339059Y-58292382D01*
X145339060Y-58292382D01*
X145131595Y-58372754D01*
X144942437Y-58489875D01*
X144778019Y-58639762D01*
X144643941Y-58817311D01*
X144544769Y-59016473D01*
X144483885Y-59230462D01*
X144463357Y-59452000D01*
X144483885Y-59673537D01*
X144544769Y-59887526D01*
X144643941Y-60086688D01*
X144778019Y-60264237D01*
X144929086Y-60401952D01*
X144942438Y-60414124D01*
X144984776Y-60440338D01*
X145031412Y-60492364D01*
X145043500Y-60545765D01*
X145043500Y-61570128D01*
X145023815Y-61637167D01*
X145018767Y-61644439D01*
X144960204Y-61722668D01*
X144909909Y-61857516D01*
X144907188Y-61882829D01*
X144903500Y-61917127D01*
X144903500Y-61920448D01*
X144903500Y-61920449D01*
X144903500Y-63809560D01*
X144903500Y-63809578D01*
X144903501Y-63812872D01*
X144909909Y-63872483D01*
X144960204Y-64007331D01*
X145046454Y-64122546D01*
X145161669Y-64208796D01*
X145241905Y-64238722D01*
X145297839Y-64280593D01*
X145322256Y-64346058D01*
X145307404Y-64414331D01*
X145289802Y-64438887D01*
X145195020Y-64541848D01*
X145068076Y-64736150D01*
X144974844Y-64948696D01*
X144974842Y-64948700D01*
X144974843Y-64948700D01*
X144920975Y-65161420D01*
X144917865Y-65173700D01*
X144898699Y-65405000D01*
X144917865Y-65636299D01*
X144917865Y-65636301D01*
X144917866Y-65636305D01*
X144969559Y-65840435D01*
X144974844Y-65861303D01*
X145017918Y-65959500D01*
X145068076Y-66073849D01*
X145195021Y-66268153D01*
X145352216Y-66438913D01*
X145535374Y-66581470D01*
X145739497Y-66691936D01*
X145798798Y-66712294D01*
X145959015Y-66767297D01*
X145959017Y-66767297D01*
X145959019Y-66767298D01*
X146187951Y-66805500D01*
X146187952Y-66805500D01*
X146420048Y-66805500D01*
X146420049Y-66805500D01*
X146648981Y-66767298D01*
X146674576Y-66758510D01*
X146744374Y-66755360D01*
X146802521Y-66788111D01*
X148182181Y-68167771D01*
X148215666Y-68229094D01*
X148218500Y-68255452D01*
X148218500Y-73245547D01*
X148198815Y-73312586D01*
X148182181Y-73333228D01*
X147359228Y-74156181D01*
X147297905Y-74189666D01*
X147271547Y-74192500D01*
X146304226Y-74192500D01*
X146237187Y-74172815D01*
X146202651Y-74139623D01*
X146195824Y-74129873D01*
X146067495Y-73946599D01*
X145900401Y-73779505D01*
X145706830Y-73643965D01*
X145492663Y-73544097D01*
X145431502Y-73527709D01*
X145264407Y-73482936D01*
X145029000Y-73462340D01*
X144793591Y-73482936D01*
X144693125Y-73509855D01*
X144623275Y-73508192D01*
X144573352Y-73477761D01*
X143863802Y-72768211D01*
X143850906Y-72752113D01*
X143799775Y-72704098D01*
X143796978Y-72701387D01*
X143780227Y-72684636D01*
X143777471Y-72681880D01*
X143774290Y-72679412D01*
X143765422Y-72671837D01*
X143733582Y-72641938D01*
X143716024Y-72632285D01*
X143699764Y-72621604D01*
X143683936Y-72609327D01*
X143643851Y-72591980D01*
X143633361Y-72586841D01*
X143595091Y-72565802D01*
X143575691Y-72560821D01*
X143557284Y-72554519D01*
X143538897Y-72546562D01*
X143495758Y-72539729D01*
X143484324Y-72537361D01*
X143442019Y-72526500D01*
X143421984Y-72526500D01*
X143402586Y-72524973D01*
X143394333Y-72523666D01*
X143382805Y-72521840D01*
X143382804Y-72521840D01*
X143356495Y-72524327D01*
X143339325Y-72525950D01*
X143327656Y-72526500D01*
X141637848Y-72526500D01*
X141570809Y-72506815D01*
X141525054Y-72454011D01*
X141515110Y-72384853D01*
X141544135Y-72321297D01*
X141550167Y-72314819D01*
X141930636Y-71934351D01*
X142432167Y-71432819D01*
X142493491Y-71399334D01*
X142519849Y-71396500D01*
X144030256Y-71396500D01*
X144050762Y-71398764D01*
X144053665Y-71398672D01*
X144053667Y-71398673D01*
X144120872Y-71396561D01*
X144124768Y-71396500D01*
X144148448Y-71396500D01*
X144152350Y-71396500D01*
X144156313Y-71395999D01*
X144167962Y-71395080D01*
X144211627Y-71393709D01*
X144230859Y-71388120D01*
X144249918Y-71384174D01*
X144256196Y-71383381D01*
X144269792Y-71381664D01*
X144310407Y-71365582D01*
X144321444Y-71361803D01*
X144363390Y-71349618D01*
X144380629Y-71339422D01*
X144398102Y-71330862D01*
X144416732Y-71323486D01*
X144452064Y-71297814D01*
X144461830Y-71291400D01*
X144499418Y-71269171D01*
X144499417Y-71269171D01*
X144499420Y-71269170D01*
X144513585Y-71255004D01*
X144528373Y-71242373D01*
X144544587Y-71230594D01*
X144572438Y-71196926D01*
X144580279Y-71188309D01*
X144832353Y-70936235D01*
X144893674Y-70902752D01*
X144952125Y-70904142D01*
X145052592Y-70931063D01*
X145288000Y-70951659D01*
X145523408Y-70931063D01*
X145751663Y-70869903D01*
X145965830Y-70770035D01*
X146159401Y-70634495D01*
X146326495Y-70467401D01*
X146462035Y-70273830D01*
X146561903Y-70059663D01*
X146623063Y-69831408D01*
X146643659Y-69596000D01*
X146623063Y-69360592D01*
X146561903Y-69132337D01*
X146462035Y-68918171D01*
X146326495Y-68724599D01*
X146159401Y-68557505D01*
X145965830Y-68421965D01*
X145751663Y-68322097D01*
X145690502Y-68305709D01*
X145523407Y-68260936D01*
X145288000Y-68240340D01*
X145052592Y-68260936D01*
X144824336Y-68322097D01*
X144610170Y-68421965D01*
X144416598Y-68557505D01*
X144249505Y-68724598D01*
X144119575Y-68910159D01*
X144064998Y-68953784D01*
X143995500Y-68960978D01*
X143933145Y-68929455D01*
X143916425Y-68910159D01*
X143807591Y-68754728D01*
X143786495Y-68724599D01*
X143619401Y-68557505D01*
X143425830Y-68421965D01*
X143211663Y-68322097D01*
X143150502Y-68305709D01*
X142983407Y-68260936D01*
X142748000Y-68240340D01*
X142512592Y-68260936D01*
X142284336Y-68322097D01*
X142070170Y-68421965D01*
X141876601Y-68557503D01*
X141754673Y-68679431D01*
X141693350Y-68712915D01*
X141623658Y-68707931D01*
X141567725Y-68666059D01*
X141550810Y-68635082D01*
X141539141Y-68603796D01*
X141501796Y-68503669D01*
X141415546Y-68388454D01*
X141300331Y-68302204D01*
X141165483Y-68251909D01*
X141105873Y-68245500D01*
X141102550Y-68245500D01*
X139313439Y-68245500D01*
X139313420Y-68245500D01*
X139310128Y-68245501D01*
X139306848Y-68245853D01*
X139306840Y-68245854D01*
X139250515Y-68251909D01*
X139115669Y-68302204D01*
X138999811Y-68388935D01*
X138934346Y-68413352D01*
X138866073Y-68398500D01*
X138816668Y-68349095D01*
X138801500Y-68289668D01*
X138801500Y-64445451D01*
X138821185Y-64378412D01*
X138837819Y-64357770D01*
X138986794Y-64208795D01*
X139026821Y-64168768D01*
X139088143Y-64135284D01*
X139157835Y-64140268D01*
X139213768Y-64182140D01*
X139238185Y-64247604D01*
X139238501Y-64256450D01*
X139238501Y-64270872D01*
X139244909Y-64330483D01*
X139295204Y-64465331D01*
X139381454Y-64580546D01*
X139496669Y-64666796D01*
X139631517Y-64717091D01*
X139691127Y-64723500D01*
X141486872Y-64723499D01*
X141546483Y-64717091D01*
X141681331Y-64666796D01*
X141796546Y-64580546D01*
X141882796Y-64465331D01*
X141933091Y-64330483D01*
X141939500Y-64270873D01*
X141939499Y-62475128D01*
X141933091Y-62415517D01*
X141882796Y-62280669D01*
X141796546Y-62165454D01*
X141681331Y-62079204D01*
X141619898Y-62056291D01*
X141549916Y-62030189D01*
X141493983Y-61988317D01*
X141469566Y-61922853D01*
X141484418Y-61854580D01*
X141505563Y-61826332D01*
X141627495Y-61704401D01*
X141763035Y-61510830D01*
X141862903Y-61296663D01*
X141924063Y-61068408D01*
X141944659Y-60833000D01*
X141924063Y-60597592D01*
X141862903Y-60369337D01*
X141763035Y-60155171D01*
X141627495Y-59961599D01*
X141460401Y-59794505D01*
X141266830Y-59658965D01*
X141052663Y-59559097D01*
X140991502Y-59542709D01*
X140824407Y-59497936D01*
X140589000Y-59477340D01*
X140353592Y-59497936D01*
X140125336Y-59559097D01*
X139911170Y-59658965D01*
X139717598Y-59794505D01*
X139550505Y-59961598D01*
X139414965Y-60155170D01*
X139315097Y-60369336D01*
X139253936Y-60597592D01*
X139233340Y-60832999D01*
X139253936Y-61068405D01*
X139280856Y-61168871D01*
X139279193Y-61238721D01*
X139248762Y-61288646D01*
X137157208Y-63380199D01*
X137141110Y-63393096D01*
X137093096Y-63444225D01*
X137090392Y-63447016D01*
X137073628Y-63463780D01*
X137073621Y-63463787D01*
X137070880Y-63466529D01*
X137068499Y-63469597D01*
X137068490Y-63469608D01*
X137068411Y-63469711D01*
X137060842Y-63478572D01*
X137030935Y-63510420D01*
X137021285Y-63527974D01*
X137010609Y-63544228D01*
X136998326Y-63560063D01*
X136980975Y-63600158D01*
X136975838Y-63610644D01*
X136954802Y-63648907D01*
X136949821Y-63668309D01*
X136943520Y-63686711D01*
X136935561Y-63705102D01*
X136928728Y-63748242D01*
X136926360Y-63759674D01*
X136915500Y-63801977D01*
X136915500Y-63822016D01*
X136913973Y-63841414D01*
X136910840Y-63861194D01*
X136914950Y-63904673D01*
X136915500Y-63916343D01*
X136915500Y-67761547D01*
X136895815Y-67828586D01*
X136879181Y-67849228D01*
X136302228Y-68426181D01*
X136240905Y-68459666D01*
X136214547Y-68462500D01*
X132228741Y-68462500D01*
X132208237Y-68460236D01*
X132138145Y-68462439D01*
X132134251Y-68462500D01*
X132106650Y-68462500D01*
X132102799Y-68462986D01*
X132102768Y-68462988D01*
X132102640Y-68463005D01*
X132091028Y-68463918D01*
X132031717Y-68465783D01*
X132031588Y-68461690D01*
X131989603Y-68461564D01*
X131930939Y-68423613D01*
X131902106Y-68359970D01*
X131912257Y-68290842D01*
X131948730Y-68244843D01*
X132119744Y-68111738D01*
X132288164Y-67928785D01*
X132424173Y-67720607D01*
X132524063Y-67492881D01*
X132585108Y-67251821D01*
X132605643Y-67004000D01*
X132585108Y-66756179D01*
X132524063Y-66515119D01*
X132424173Y-66287393D01*
X132288164Y-66079215D01*
X132119744Y-65896262D01*
X131923509Y-65743526D01*
X131923509Y-65743525D01*
X131790482Y-65671534D01*
X131740891Y-65622315D01*
X131725500Y-65562480D01*
X131725500Y-63410452D01*
X131745185Y-63343413D01*
X131761819Y-63322771D01*
X138422772Y-56661819D01*
X138484095Y-56628334D01*
X138510453Y-56625500D01*
X147089548Y-56625500D01*
X147156587Y-56645185D01*
G37*
G04 #@! TD.AperFunction*
G04 #@! TA.AperFunction,Conductor*
G36*
X136043281Y-70241185D02*
G01*
X136089036Y-70293989D01*
X136098980Y-70363147D01*
X136069955Y-70426703D01*
X136063923Y-70433181D01*
X135601923Y-70895181D01*
X135540600Y-70928666D01*
X135514242Y-70931500D01*
X134026499Y-70931500D01*
X133959460Y-70911815D01*
X133913705Y-70859011D01*
X133902499Y-70807500D01*
X133902499Y-70712439D01*
X133902499Y-70709128D01*
X133896091Y-70649517D01*
X133845796Y-70514669D01*
X133774784Y-70419810D01*
X133750368Y-70354346D01*
X133765220Y-70286073D01*
X133814625Y-70236668D01*
X133874052Y-70221500D01*
X135976242Y-70221500D01*
X136043281Y-70241185D01*
G37*
G04 #@! TD.AperFunction*
G04 #@! TA.AperFunction,Conductor*
G36*
X138800540Y-70241185D02*
G01*
X138846295Y-70293989D01*
X138857501Y-70345499D01*
X138857501Y-70493872D01*
X138857853Y-70497152D01*
X138857854Y-70497159D01*
X138863909Y-70553484D01*
X138882876Y-70604336D01*
X138914204Y-70688331D01*
X139000454Y-70803546D01*
X139115669Y-70889796D01*
X139250517Y-70940091D01*
X139310127Y-70946500D01*
X140213546Y-70946499D01*
X140280585Y-70966183D01*
X140326340Y-71018987D01*
X140336284Y-71088146D01*
X140307259Y-71151702D01*
X140301227Y-71158180D01*
X138969228Y-72490181D01*
X138907905Y-72523666D01*
X138881547Y-72526500D01*
X135910437Y-72526500D01*
X135843398Y-72506815D01*
X135811170Y-72476811D01*
X135739305Y-72380811D01*
X135714888Y-72315346D01*
X135729740Y-72247073D01*
X135779145Y-72197668D01*
X135838572Y-72182500D01*
X135860143Y-72182500D01*
X135864045Y-72182500D01*
X135868008Y-72181999D01*
X135879657Y-72181080D01*
X135923322Y-72179709D01*
X135942554Y-72174120D01*
X135961613Y-72170174D01*
X135967891Y-72169381D01*
X135981487Y-72167664D01*
X136022102Y-72151582D01*
X136033139Y-72147803D01*
X136075085Y-72135618D01*
X136092324Y-72125422D01*
X136109797Y-72116862D01*
X136128427Y-72109486D01*
X136163759Y-72083814D01*
X136173525Y-72077400D01*
X136211113Y-72055171D01*
X136211112Y-72055171D01*
X136211115Y-72055170D01*
X136225280Y-72041004D01*
X136240068Y-72028373D01*
X136256282Y-72016594D01*
X136284133Y-71982926D01*
X136291974Y-71974309D01*
X138008465Y-70257819D01*
X138069789Y-70224334D01*
X138096147Y-70221500D01*
X138733501Y-70221500D01*
X138800540Y-70241185D01*
G37*
G04 #@! TD.AperFunction*
G04 #@! TA.AperFunction,Conductor*
G36*
X124400864Y-66626238D02*
G01*
X124445380Y-66677612D01*
X124452432Y-66692734D01*
X124452434Y-66692738D01*
X124582953Y-66879140D01*
X124743859Y-67040046D01*
X124930264Y-67170567D01*
X124930265Y-67170567D01*
X124930266Y-67170568D01*
X125136504Y-67266739D01*
X125356308Y-67325635D01*
X125583000Y-67345468D01*
X125809692Y-67325635D01*
X125878047Y-67307319D01*
X125947897Y-67308982D01*
X125997822Y-67339413D01*
X126909228Y-68250819D01*
X126942713Y-68312142D01*
X126937729Y-68381834D01*
X126895857Y-68437767D01*
X126830393Y-68462184D01*
X126821547Y-68462500D01*
X121367740Y-68462500D01*
X121347236Y-68460236D01*
X121277144Y-68462439D01*
X121273250Y-68462500D01*
X121245650Y-68462500D01*
X121241799Y-68462986D01*
X121241768Y-68462988D01*
X121241640Y-68463005D01*
X121230028Y-68463918D01*
X121186368Y-68465290D01*
X121167128Y-68470880D01*
X121148081Y-68474825D01*
X121128209Y-68477335D01*
X121087599Y-68493413D01*
X121076554Y-68497194D01*
X121034611Y-68509380D01*
X121017369Y-68519578D01*
X120999897Y-68528138D01*
X120981266Y-68535514D01*
X120945938Y-68561181D01*
X120936180Y-68567591D01*
X120898579Y-68589829D01*
X120884410Y-68603998D01*
X120869622Y-68616628D01*
X120853410Y-68628407D01*
X120825570Y-68662059D01*
X120817711Y-68670696D01*
X120762182Y-68726226D01*
X120700859Y-68759712D01*
X120631167Y-68754728D01*
X120575234Y-68712857D01*
X120550816Y-68647393D01*
X120550500Y-68638546D01*
X120550500Y-68209146D01*
X120570185Y-68142107D01*
X120586814Y-68121470D01*
X121873933Y-66834350D01*
X121935254Y-66800867D01*
X122004946Y-66805851D01*
X122060879Y-66847723D01*
X122063165Y-66850878D01*
X122082953Y-66879139D01*
X122082956Y-66879142D01*
X122243860Y-67040046D01*
X122430264Y-67170567D01*
X122430265Y-67170567D01*
X122430266Y-67170568D01*
X122636504Y-67266739D01*
X122856308Y-67325635D01*
X123007435Y-67338856D01*
X123082999Y-67345468D01*
X123082999Y-67345467D01*
X123083000Y-67345468D01*
X123309692Y-67325635D01*
X123529496Y-67266739D01*
X123735734Y-67170568D01*
X123922139Y-67040047D01*
X124083047Y-66879139D01*
X124213568Y-66692734D01*
X124220619Y-66677612D01*
X124266789Y-66625176D01*
X124333982Y-66606023D01*
X124400864Y-66626238D01*
G37*
G04 #@! TD.AperFunction*
G04 #@! TA.AperFunction,Conductor*
G36*
X129721889Y-61149185D02*
G01*
X129767644Y-61201989D01*
X129768406Y-61203690D01*
X129775825Y-61220604D01*
X129775827Y-61220607D01*
X129911836Y-61428785D01*
X130080256Y-61611738D01*
X130080259Y-61611740D01*
X130276485Y-61764470D01*
X130276487Y-61764471D01*
X130276491Y-61764474D01*
X130495190Y-61882828D01*
X130730386Y-61963571D01*
X130975665Y-62004500D01*
X131011546Y-62004500D01*
X131078585Y-62024185D01*
X131124340Y-62076989D01*
X131134284Y-62146147D01*
X131105259Y-62209703D01*
X131099227Y-62216181D01*
X130716208Y-62599199D01*
X130700110Y-62612096D01*
X130652096Y-62663225D01*
X130649392Y-62666016D01*
X130632628Y-62682780D01*
X130632621Y-62682787D01*
X130629880Y-62685529D01*
X130627499Y-62688597D01*
X130627490Y-62688608D01*
X130627411Y-62688711D01*
X130619842Y-62697572D01*
X130589935Y-62729420D01*
X130580285Y-62746974D01*
X130569609Y-62763228D01*
X130557326Y-62779063D01*
X130539975Y-62819158D01*
X130534838Y-62829644D01*
X130513802Y-62867907D01*
X130508821Y-62887309D01*
X130502520Y-62905711D01*
X130494561Y-62924102D01*
X130487728Y-62967242D01*
X130485360Y-62978674D01*
X130474499Y-63020977D01*
X130474500Y-63041016D01*
X130472973Y-63060414D01*
X130469840Y-63080194D01*
X130473950Y-63123673D01*
X130474500Y-63135343D01*
X130474500Y-65562480D01*
X130454815Y-65629519D01*
X130409518Y-65671534D01*
X130276490Y-65743526D01*
X130080259Y-65896259D01*
X130080256Y-65896261D01*
X130080256Y-65896262D01*
X129969842Y-66016204D01*
X129911837Y-66079214D01*
X129775825Y-66287395D01*
X129709148Y-66439406D01*
X129675937Y-66515119D01*
X129623167Y-66723501D01*
X129614891Y-66756183D01*
X129594356Y-67003999D01*
X129614891Y-67251816D01*
X129614891Y-67251819D01*
X129614892Y-67251821D01*
X129675937Y-67492881D01*
X129675938Y-67492883D01*
X129707736Y-67565376D01*
X129716639Y-67634676D01*
X129686661Y-67697789D01*
X129627322Y-67734675D01*
X129557460Y-67733624D01*
X129506499Y-67702867D01*
X127981318Y-66177686D01*
X127947833Y-66116363D01*
X127944999Y-66090014D01*
X127944999Y-62723927D01*
X127964684Y-62656889D01*
X128003901Y-62618390D01*
X128100656Y-62558712D01*
X128224712Y-62434656D01*
X128316814Y-62285334D01*
X128371999Y-62118797D01*
X128382500Y-62016009D01*
X128382499Y-61253499D01*
X128402183Y-61186461D01*
X128454987Y-61140706D01*
X128506499Y-61129500D01*
X129654850Y-61129500D01*
X129721889Y-61149185D01*
G37*
G04 #@! TD.AperFunction*
M02*
